<svg id="Ebene_1" data-name="Ebene 1" xmlns="http://www.w3.org/2000/svg" viewBox="0 0 1440 617"><defs><style>.cls-1{fill:#fff857;}.cls-2{fill:#666;}.cls-3{fill:#8c8c8c;}.cls-4{fill:none;stroke:#fff;stroke-width:6px;}</style></defs><title>bitter__detail__hero</title><polygon class="cls-1" points="0 0 0 617 1440 617 1440 0 0 0 0 0"/><path d="M376.42,81.1h30.16q29,0,46.11,12.49t17.09,37.21q0,36.48-34.47,47.4,41.07,11.78,41.08,46,0,59.47-74.69,59.47H311.2v-25q7.19-2.59,21.55-7.19V115l-21.55-8.62V82.53Zm0,33.9v48.83h16.66q32.16,0,32.17-26.71,0-10.92-6.75-16.52T400.83,115Zm16.66,79H376.42v56h23.84q14.94,0,22.84-6.9t7.9-19q0-15.51-9.19-22.84T393.08,194Z"/><path d="M498.51,130.8l65.21-2.3v125l20.11,7.18v23H498.51v-23l23-7.18V159.52l-23-5.74ZM516,81.1q0-11.77,7.33-18.82a24.23,24.23,0,0,1,17.38-7q24.13,0,24.13,25.86,0,12.06-7.33,19.1a23.52,23.52,0,0,1-16.8,7q-11.79,0-18.24-6.75T516,81.1Z"/><path d="M664.55,286.5q-23.85,0-32.75-15.37t-8.9-53.57V163.83H596.18V136.54l26.72-3.73V93.16l42.23-7.75v47.4h40.22v31H665.13v64.93q0,14.37,3.16,20.11t12.06,5.74q10.35,0,22.7-6.6l10.34,20.68Q688.1,286.51,664.55,286.5Z"/><path d="M790.09,286.5q-23.85,0-32.75-15.37t-8.9-53.57V163.83H721.72V136.54l26.72-3.73V93.16l42.23-7.75v47.4h40.22v31H790.67v64.93q0,14.37,3.16,20.11t12.06,5.74q10.35,0,22.7-6.6l10.34,20.68Q813.64,286.51,790.09,286.5Z"/><path d="M992.91,214.68l-95.38.86q1.15,17.82,10.49,27.58t24,9.77a86.18,86.18,0,0,0,22.69-3.3,98.12,98.12,0,0,0,18.68-6.75l6.89-3.45,12.35,23q-3.17,2.58-8.9,6.61t-23,10.77a91.91,91.91,0,0,1-33.62,6.75q-36.48,0-55.58-20.25t-19.11-57.31q0-38.2,20.4-60.76t56.3-22.55q31.61,0,48.55,18.09t17,49.42Zm-66.65-55.44q-11.78,0-19.1,8t-9,21.55h51.71Q949.82,159.23,926.26,159.24Z"/><path d="M1012.44,130.8l59.47-2.3,2.59,19.82q2.3-2.58,6.32-6.32t14.5-10.05q10.48-6.31,19.11-6.32a68.17,68.17,0,0,1,13.36,1.29,46.8,46.8,0,0,1,9.62,2.73l2.87,1.15-2.3,54.58h-25L1108.68,161a32.91,32.91,0,0,0-15.22,4,48.28,48.28,0,0,0-11.78,8.05l-4,4v76.42l27.29,7.18v23h-92.51v-23l23-7.18V159.52l-23-5.74Z"/><path class="cls-2" d="M350.34,415.76A22.82,22.82,0,0,0,343,414.7q-10.87,0-10.88,16.14,0,15.17,11.21,15.16a17.31,17.31,0,0,0,6-1.15,22.44,22.44,0,0,0,4.85-2.34l1.64-1.12,3.63,5.93c-.18.17-.44.43-.79.75a25.18,25.18,0,0,1-2.28,1.75,24.61,24.61,0,0,1-3.65,2.18,29.72,29.72,0,0,1-4.78,1.71,21.45,21.45,0,0,1-5.76.79q-10.1,0-15.59-6t-5.5-17.37q0-11.52,6-18.12t16.21-6.58a42.89,42.89,0,0,1,13.24,2.3l2.11.79-.33,12.52h-6.46Z"/><path class="cls-2" d="M385.45,406.47q9.89,0,15.32,6.16t5.44,17.23q0,11.13-6.1,17.92t-16,6.78q-9.88,0-15.16-6.06t-5.27-17.66q0-11.32,5.83-17.85T385.45,406.47Zm-.33,8.23a9,9,0,0,0-7.77,3.66q-2.64,3.66-2.64,12.16,0,8.1,2.41,12a8.06,8.06,0,0,0,7.34,3.86,9.17,9.17,0,0,0,7.94-3.79q2.75-3.8,2.74-12.35,0-8-2.5-11.77A8.46,8.46,0,0,0,385.12,414.7Z"/><path class="cls-2" d="M429.73,448v5.73H411V448l4.94-1.65V415l-4.94-2v-5.46l17-.33,9.88,21.94,10.35-21.61,15.81-.33v5.79l-4.74,2v31.3l4.94,1.65v5.73H444.55V448l5.14-1.65v-25q-1.19,3.09-2.73,6.42c-1,2.22-2.2,4.64-3.49,7.25s-2.3,4.67-3,6.16l-7.12.33-7.57-15.62-1.12-3.42v23.85Z"/><path class="cls-2" d="M491.8,448v5.73H470.58V448q1.65-.6,4.94-1.65V415l-4.94-2v-5.46l15.16-.33h18.45v12.52h-6.13L496.41,415H485.74v11.66h13.64v7.25H485.74v12.39Q490.87,447.71,491.8,448Z"/><path class="cls-2" d="M529.88,406.47q9.89,0,15.32,6.16t5.44,17.23q0,11.13-6.1,17.92t-16,6.78q-9.88,0-15.15-6.06t-5.27-17.66q0-11.32,5.83-17.85T529.88,406.47Zm-.33,8.23a9,9,0,0,0-7.77,3.66q-2.64,3.66-2.64,12.16,0,8.1,2.41,12a8.06,8.06,0,0,0,7.34,3.86,9.17,9.17,0,0,0,7.94-3.79q2.73-3.8,2.74-12.35,0-8-2.51-11.77A8.45,8.45,0,0,0,529.55,414.7Z"/><path class="cls-2" d="M574.16,448v5.73h-19.9V448l4.94-1.65V415l-4.94-2v-5.46l15.16-.33h5q8.24,0,12.69,3.39t4.44,10.05q0,8.76-7.44,12.45a19,19,0,0,1,2.77,4.28l4.41,9,4.48,1.52v5.73H583.58l-5.53-12.19a20.6,20.6,0,0,0-2.8-5,4.84,4.84,0,0,0-3.53-1.05h-2.3v10.87Zm-4.74-33v13.51h3.75a9.19,9.19,0,0,0,6.06-1.81,6.29,6.29,0,0,0,2.18-5.11,6.55,6.55,0,0,0-1.78-4.78,6.47,6.47,0,0,0-4.81-1.81Z"/><path class="cls-2" d="M605.65,453.71V448l5.41-1.65V415H604.8l-1.65,6.26h-6.06V407.46l38.21-.2v14h-6.13L627.53,415h-6.26v31.3l5.47,1.65v5.73Z"/><path class="cls-2" d="M662.65,407.26l14.16,39.2,4.61,1.52v5.73H660.47V448l4.94-1.52-1.58-4.94H649.21l-1.65,4.87L652.7,448v5.73H632.8V448l4.81-1.52,14.49-39Zm-5.93,11.59-5.21,15.62h10.15Z"/><path class="cls-2" d="M699.81,407.26h6.91q6.66,0,10.58,2.86t3.92,8.54q0,8.35-7.91,10.87,9.42,2.7,9.43,10.54,0,13.64-17.14,13.64H684.85V448c1.1-.4,2.74-1,4.94-1.65V415l-4.94-2v-5.46Zm0,7.77v11.2h3.82q7.38,0,7.38-6.12a4.64,4.64,0,0,0-1.55-3.79,6.11,6.11,0,0,0-4.05-1.29Zm3.82,18.12h-3.82V446h5.47a7.75,7.75,0,0,0,5.23-1.58,5.49,5.49,0,0,0,1.82-4.35,6.32,6.32,0,0,0-2.11-5.24Q708.1,433.15,703.63,433.15Z"/><path class="cls-2" d="M742.76,415v31h10.09l1.44-7.45h6.26v15.16H727.61V448l4.94-1.65V415l-4.94-2v-5.46l20.1-.33v5.79Z"/><path class="cls-2" d="M790.4,448v5.73H770.3V448l5-1.65v-8.7l-12.06-22.8-4.28-1.78v-5.46l18.64-.33v5.79l-3.36,1.39,6.59,14.3,7-14.24-3.63-1.45v-5.46l17.79-.33v5.79l-4.55,1.78-11.92,22.74v8.76Z"/><path class="cls-2" d="M840.41,448v5.73h-19.9V448l4.94-1.65V415l-4.94-2v-5.46l15.16-.33h5q8.24,0,12.69,3.39t4.44,10.05q0,8.76-7.44,12.45a18.67,18.67,0,0,1,2.76,4.28l4.42,9L862,448v5.73H849.83l-5.53-12.19a20.6,20.6,0,0,0-2.8-5,4.84,4.84,0,0,0-3.53-1.05h-2.3v10.87Zm-4.74-33v13.51h3.75a9.19,9.19,0,0,0,6.06-1.81,6.29,6.29,0,0,0,2.18-5.11,6.55,6.55,0,0,0-1.78-4.78,6.47,6.47,0,0,0-4.81-1.81Z"/><path class="cls-2" d="M881.46,415v11h13.31v7.24H881.46V446h11.66l1.51-5.47h6.07v13.18H866.3V448l4.94-1.65V415l-4.94-2v-5.46l15.16-.33H899.9V420h-6.12L892.13,415Z"/><path class="cls-2" d="M934.63,407.26l14.17,39.2,4.61,1.52v5.73H932.46V448l4.94-1.52-1.58-4.94H921.19l-1.65,4.87,5.14,1.59v5.73h-19.9V448l4.81-1.52,14.5-39Zm-5.93,11.59-5.2,15.62h10.14Z"/><path class="cls-2" d="M956.31,453.71V448l4.94-1.65V415l-4.94-2v-5.46l15.15-.33h6.26q10,0,15.48,5.79t5.47,16.81q0,11.07-5.93,17.46t-16,6.39ZM971.46,415v31h5.47a9.33,9.33,0,0,0,7.91-3.66q2.76-3.66,2.76-12.15,0-8-2.6-11.6a8.84,8.84,0,0,0-7.61-3.56Z"/><path class="cls-2" d="M1022.06,448v5.73H1002V448l4.94-1.65V415l-4.94-2v-5.46l20.09-.33v5.79l-4.94,2v31.3Z"/><path class="cls-2" d="M1045.78,448v5.73h-19.11V448l4.95-1.65V415l-4.95-2v-5.46l15.82-.33,17.79,30.44V415l-4.81-2v-5.46l18.77-.33v5.79l-4.94,2v38.68h-11l-17.66-29.85v22.47Z"/><path class="cls-2" d="M1106.86,421.42l-1.65-5.66a23,23,0,0,0-7.44-1.06q-11,0-11,16.14,0,15.3,11.2,15.29a20.54,20.54,0,0,0,3.33-.3c1.21-.19,2.16-.38,2.87-.56l1-.32v-8.31l-4.94-1.51v-5.41l19-.32v5.73l-4.49,1.51v13.44a22,22,0,0,1-2.2,1.26,37.3,37.3,0,0,1-6.1,1.94,38.09,38.09,0,0,1-9.62,1.22q-10.08,0-15.58-6t-5.5-17.37q0-11.52,6-18.12t16.21-6.58a38.34,38.34,0,0,1,7.38.75,41,41,0,0,1,5.93,1.55l2,.79-.32,11.86Z"/><path class="cls-3" d="M367.41,526.31a10.29,10.29,0,0,1-7.86-3.12,11.58,11.58,0,0,1-2.94-8.28q0-9.6,5-15.6a16.16,16.16,0,0,1,13-6,10.69,10.69,0,0,1,8.13,3.12,11.26,11.26,0,0,1,3,8.1q0,9.9-5.13,15.84A16.61,16.61,0,0,1,367.41,526.31Zm9.27-9.39q3-4.59,3-11.7t-6.3-7.11q-5,0-7.89,4.83a22.21,22.21,0,0,0-2.91,11.67,7.4,7.4,0,0,0,1.59,5.19,5.73,5.73,0,0,0,4.41,1.71A9.26,9.26,0,0,0,376.68,516.92Z"/><path class="cls-3" d="M411.63,525.71,415,505a22.34,22.34,0,0,0,.24-2.64q0-4-3.12-4a6.84,6.84,0,0,0-4.29,1.71,15.34,15.34,0,0,0-3.57,4.11,46.38,46.38,0,0,0-4.44,9l-.54,1.68-1.74,10.8h-5.7l4.32-27-5-1.2.54-3.3,11-.3-2.7,11.64a29.66,29.66,0,0,1,2.49-4.32,26.7,26.7,0,0,1,3.12-3.87,15.91,15.91,0,0,1,4-2.79,10.76,10.76,0,0,1,5-1.26q6.66,0,6.66,7.38a23.29,23.29,0,0,1-.3,3.42l-2.76,16.8,5.1.9-.54,3.3Z"/><path class="cls-3" d="M468.7,520.91l5.22.9-.54,3.3-11.16.6,2.4-11a29.73,29.73,0,0,1-5.4,7.8,15.89,15.89,0,0,1-3.63,2.64,9.1,9.1,0,0,1-4.41,1.2,6.78,6.78,0,0,1-5.61-3,12.15,12.15,0,0,1-2.25-7.5q0-10.44,5.31-16.47t12.57-6a13.16,13.16,0,0,1,3.42.45,14.16,14.16,0,0,1,2.52.87l.78.48,1.8-1.2H473ZM465.4,505l1.2-6.3a14.68,14.68,0,0,0-5.4-.9q-4.8,0-8.34,4.35t-3.54,12.75a8.83,8.83,0,0,0,1,4.68,3.2,3.2,0,0,0,2.85,1.62,6.11,6.11,0,0,0,3.84-1.68,16.38,16.38,0,0,0,3.45-4,45.72,45.72,0,0,0,4.38-8.82Z"/><path class="cls-3" d="M499.24,525.71,502.6,505a22.34,22.34,0,0,0,.24-2.64q0-4-3.12-4a6.84,6.84,0,0,0-4.29,1.71,15.34,15.34,0,0,0-3.57,4.11,46.38,46.38,0,0,0-4.44,9l-.54,1.68-1.74,10.8h-5.7l4.32-27-5-1.2.54-3.3,11-.3-2.7,11.64a29.66,29.66,0,0,1,2.49-4.32,26.7,26.7,0,0,1,3.12-3.87,15.91,15.91,0,0,1,4-2.79,10.76,10.76,0,0,1,5-1.26q6.66,0,6.66,7.38a23.29,23.29,0,0,1-.3,3.42l-2.76,16.8,5.1.9-.54,3.3Z"/><path class="cls-3" d="M545.31,497.51l-3.36,1-10.68,25.26q-4.08,9.66-6.78,13a8.77,8.77,0,0,1-7.2,3.36,23.68,23.68,0,0,1-5.88-.72l-.9-.24,1.2-3.84a40.14,40.14,0,0,0,5,.3,5.78,5.78,0,0,0,4.23-1.62,19.49,19.49,0,0,0,3.51-5.94l-7.8-29.4L512,497.51l.54-3.3,9.66-.3,5,22,.54,4.08,8.88-21.42-4.5-1.08.54-3.3,13.2-.3Z"/><path class="cls-3" d="M582.39,503.81l-.18-5.1a10.36,10.36,0,0,0-3.9-.6q-4.92,0-7.86,4.95a22.49,22.49,0,0,0-2.94,11.7q0,6.75,5.7,6.75a14.71,14.71,0,0,0,4.11-.66,18.54,18.54,0,0,0,3.57-1.38l1.32-.66,1.8,3q-.66.48-1.83,1.23a28.89,28.89,0,0,1-4.35,2,15.94,15.94,0,0,1-5.82,1.26,10.21,10.21,0,0,1-7.59-2.94q-2.91-2.94-2.91-8.16,0-9.78,5-15.84a15.74,15.74,0,0,1,12.72-6.06,15.43,15.43,0,0,1,4.26.6,14.13,14.13,0,0,1,3.12,1.2l1,.6-1.32,8.1Z"/><path class="cls-3" d="M599.91,526.31a10.29,10.29,0,0,1-7.86-3.12,11.58,11.58,0,0,1-2.94-8.28q0-9.6,5-15.6a16.16,16.16,0,0,1,13-6,10.69,10.69,0,0,1,8.13,3.12,11.26,11.26,0,0,1,3,8.1q0,9.9-5.13,15.84A16.61,16.61,0,0,1,599.91,526.31Zm9.27-9.39q3-4.59,3-11.7t-6.3-7.11q-5,0-7.89,4.83a22.21,22.21,0,0,0-2.91,11.67,7.4,7.4,0,0,0,1.59,5.19,5.73,5.73,0,0,0,4.41,1.71A9.26,9.26,0,0,0,609.18,516.92Z"/><path class="cls-3" d="M649.6,515.33,648,525.71h-5.7l3.36-20.7a22.34,22.34,0,0,0,.24-2.64q0-4-3.12-4a6.43,6.43,0,0,0-4.14,1.71,15.18,15.18,0,0,0-3.42,4.11,40.3,40.3,0,0,0-4.08,9l-.54,1.68-1.74,10.8h-5.7l4.32-27-5-1.2.54-3.3,10.92-.3-2.58,11.64a25.12,25.12,0,0,1,5.1-8.16,15.41,15.41,0,0,1,3.84-2.82,10.23,10.23,0,0,1,4.92-1.26q6.42,0,6.42,7.32a28.62,28.62,0,0,1-.3,3.72,27.24,27.24,0,0,1,4.2-6.84,12.06,12.06,0,0,1,3.93-3.06,11,11,0,0,1,5-1.14q6.6,0,6.6,7.38a23.29,23.29,0,0,1-.3,3.42l-2.76,16.8,5.1.9-.54,3.3-11,.6,3.42-20.7a22.32,22.32,0,0,0,.24-2.58q0-4-3.12-4a6.55,6.55,0,0,0-4.23,1.74,15,15,0,0,0-3.45,4.2,45.61,45.61,0,0,0-4.14,9.24Z"/><path class="cls-3" d="M690,493.91l-2.4,11a29.89,29.89,0,0,1,3.48-6,14.93,14.93,0,0,1,4.35-4,11.29,11.29,0,0,1,6.06-1.65,6.29,6.29,0,0,1,5.46,3.12,13.59,13.59,0,0,1,2.07,7.68q0,9.9-5.34,16t-12.78,6.15a12.08,12.08,0,0,1-5.88-1.44l-1.56,9.84,4.56,1.5-.6,3.3h-15.3l.54-3.3,5.1-1.5,5.76-36-4.92-1.2.54-3.3Zm-3.12,20.7-1.2,6.3a16.31,16.31,0,0,0,5.52.9q4.32,0,8.07-4.44T703.06,505a10.12,10.12,0,0,0-1-4.68,3.24,3.24,0,0,0-3.06-1.92,6.35,6.35,0,0,0-4.08,1.68,15.35,15.35,0,0,0-3.39,4,47.17,47.17,0,0,0-4.14,8.82Z"/><path class="cls-3" d="M733.47,525.71l2.46-11.64a21.82,21.82,0,0,1-2.37,4.29,30.89,30.89,0,0,1-3.12,3.9,14.55,14.55,0,0,1-4,2.82,10.85,10.85,0,0,1-5,1.23q-6.66,0-6.66-7.32a25.47,25.47,0,0,1,.3-3.48l2.76-16.8-5.1-1.2.54-3.3,11-.3-3.3,20.7a25.55,25.55,0,0,0-.24,2.64q0,4,3.12,4a7,7,0,0,0,4.38-1.71,15.11,15.11,0,0,0,3.6-4.11,46.16,46.16,0,0,0,4.26-9l.54-1.68,1.8-10.8h5.7l-4.32,27,5.16.9-.54,3.3Z"/><path class="cls-3" d="M766.05,520.31l1,3.24q-4.5,2.76-7.86,2.76-6.06,0-6.06-7.14a22.88,22.88,0,0,1,.36-3.84l2.64-16.62h-5.94l.66-3.9,6-.6,1.2-7.56,5.94-1.2-1.44,8.76h8.28l-.72,4.5h-8.28l-2.58,16a26.37,26.37,0,0,0-.36,3.87,3.62,3.62,0,0,0,.54,2.22,1.8,1.8,0,0,0,1.5.69,13.22,13.22,0,0,0,4.32-.9Z"/><path class="cls-3" d="M798,501.11q0,5.16-5.85,8.37T777,512.69a19.09,19.09,0,0,0-.18,2.58q0,6.24,6.6,6.24a17.13,17.13,0,0,0,4.38-.66,23.38,23.38,0,0,0,4-1.38l1.5-.66,1.8,3.06q-.72.48-2,1.23a30.18,30.18,0,0,1-4.8,2,20.33,20.33,0,0,1-6.66,1.23,10.75,10.75,0,0,1-7.86-2.88,10.19,10.19,0,0,1-2.94-7.62q0-9.48,5.07-16t12.27-6.51a11.28,11.28,0,0,1,7.23,2.13A6.89,6.89,0,0,1,798,501.11Zm-20.52,7.38a25.6,25.6,0,0,0,10.62-1.92q4.2-1.92,4.2-4.86,0-3.9-4.5-3.9a8.7,8.7,0,0,0-6.24,3A16.18,16.18,0,0,0,777.51,508.49Z"/><path class="cls-3" d="M827.07,493.91l-1.8,9h-3.9v-4.2a5.59,5.59,0,0,0-3.69,1.62,14.55,14.55,0,0,0-3.09,3.9,51.09,51.09,0,0,0-3.84,8.46l-.48,1.62-1.92,11.4h-5.7l4.38-27-5.1-1.2.54-3.3,11-.3-2.34,10.44a23.56,23.56,0,0,1,4.74-7.44,12.84,12.84,0,0,1,3.51-2.49,10.15,10.15,0,0,1,4.65-1.11A9.05,9.05,0,0,1,827.07,493.91Z"/><path class="cls-3" d="M853.47,526.31a10.29,10.29,0,0,1-7.86-3.12,11.58,11.58,0,0,1-2.94-8.28q0-9.6,5-15.6a16.16,16.16,0,0,1,13-6,10.69,10.69,0,0,1,8.13,3.12,11.26,11.26,0,0,1,3,8.1q0,9.9-5.13,15.84A16.61,16.61,0,0,1,853.47,526.31Zm9.27-9.39c2-3.06,3-7,3-11.7s-2.1-7.11-6.3-7.11c-3.33,0-6,1.61-7.89,4.83a22.12,22.12,0,0,0-2.91,11.67,7.4,7.4,0,0,0,1.59,5.19,5.73,5.73,0,0,0,4.41,1.71A9.28,9.28,0,0,0,862.74,516.92Z"/><path class="cls-3" d="M902.31,493.91l-1.81,9h-3.89v-4.2a5.57,5.57,0,0,0-3.69,1.62,14.36,14.36,0,0,0-3.09,3.9,50.27,50.27,0,0,0-3.84,8.46l-.49,1.62-1.92,11.4h-5.7l4.39-27-5.1-1.2.54-3.3,11-.3-2.34,10.44a23.21,23.21,0,0,1,4.74-7.44,12.53,12.53,0,0,1,3.51-2.49,10.15,10.15,0,0,1,4.65-1.11A9.15,9.15,0,0,1,902.31,493.91Z"/><path class="cls-3" d="M941.43,520.91l5.16.9-.54,3.3-11,.6,2.64-11a27.44,27.44,0,0,1-5.28,7.8,15.5,15.5,0,0,1-3.69,2.67,9.28,9.28,0,0,1-4.41,1.17,6.82,6.82,0,0,1-5.7-3,12.23,12.23,0,0,1-2.22-7.53q0-10.38,5.25-16.44t12.51-6.06a12.23,12.23,0,0,1,5.76,1.32l1.68-10.32-5.1-1.2.54-3.3,11.1-.3ZM938.31,505l1-6.3a12.93,12.93,0,0,0-5.1-.9q-5.16,0-8.46,4.77t-3.3,12a9.87,9.87,0,0,0,1,4.89,3.15,3.15,0,0,0,2.88,1.71,6.06,6.06,0,0,0,3.87-1.68,15.64,15.64,0,0,0,3.36-4,44.38,44.38,0,0,0,4.2-8.82Z"/><path class="cls-3" d="M978.39,501.11q0,5.16-5.85,8.37t-15.21,3.21a19.09,19.09,0,0,0-.18,2.58q0,6.24,6.6,6.24a17.13,17.13,0,0,0,4.38-.66,23.38,23.38,0,0,0,4-1.38l1.5-.66,1.8,3.06q-.72.48-2,1.23a30.18,30.18,0,0,1-4.8,2,20.33,20.33,0,0,1-6.66,1.23,10.75,10.75,0,0,1-7.86-2.88,10.19,10.19,0,0,1-2.94-7.62q0-9.48,5.07-16t12.27-6.51a11.28,11.28,0,0,1,7.23,2.13A6.89,6.89,0,0,1,978.39,501.11Zm-20.52,7.38a25.6,25.6,0,0,0,10.62-1.92q4.2-1.92,4.2-4.86,0-3.9-4.5-3.9a8.7,8.7,0,0,0-6.24,3A16.18,16.18,0,0,0,957.87,508.49Z"/><path class="cls-3" d="M1012.77,497.51l-3.24,1-13.38,27.24h-6.48L984,498.65l-4.74-1.14.54-3.3,9.66-.3,4,21.6.6,4.5,9.9-21.42-4.38-1.08.54-3.3,13.26-.3Z"/><path class="cls-3" d="M1014.75,525.71l4.32-27-5.1-1.2.6-3.3,11-.3-4.32,27,5.1.9-.54,3.3Zm12.6-42.45a5.73,5.73,0,0,1-1.11,3.39,3.37,3.37,0,0,1-2.85,1.56,3.83,3.83,0,0,1-2.64-.81,3.4,3.4,0,0,1-.9-2.64,5.73,5.73,0,0,1,1.11-3.39,3.37,3.37,0,0,1,2.85-1.56,3.83,3.83,0,0,1,2.64.81A3.4,3.4,0,0,1,1027.35,483.26Z"/><path class="cls-3" d="M1051.23,503.81l-.18-5.1a10.36,10.36,0,0,0-3.9-.6q-4.92,0-7.86,4.95a22.49,22.49,0,0,0-2.94,11.7q0,6.75,5.7,6.75a14.71,14.71,0,0,0,4.11-.66,18.54,18.54,0,0,0,3.57-1.38l1.32-.66,1.8,3q-.66.48-1.83,1.23a28.89,28.89,0,0,1-4.35,2,15.94,15.94,0,0,1-5.82,1.26,10.21,10.21,0,0,1-7.59-2.94q-2.91-2.94-2.91-8.16,0-9.78,5-15.84a15.74,15.74,0,0,1,12.72-6.06,15.43,15.43,0,0,1,4.26.6,14.13,14.13,0,0,1,3.12,1.2l1,.6-1.32,8.1Z"/><path class="cls-3" d="M1084.59,501.11q0,5.16-5.85,8.37t-15.21,3.21a19.09,19.09,0,0,0-.18,2.58q0,6.24,6.6,6.24a17.13,17.13,0,0,0,4.38-.66,23.38,23.38,0,0,0,4-1.38l1.5-.66,1.8,3.06q-.72.48-2,1.23a30.18,30.18,0,0,1-4.8,2,20.33,20.33,0,0,1-6.66,1.23,10.75,10.75,0,0,1-7.86-2.88,10.19,10.19,0,0,1-2.94-7.62q0-9.48,5.07-16t12.27-6.51a11.28,11.28,0,0,1,7.23,2.13A6.89,6.89,0,0,1,1084.59,501.11Zm-20.52,7.38a25.6,25.6,0,0,0,10.62-1.92q4.2-1.92,4.2-4.86,0-3.9-4.5-3.9a8.7,8.7,0,0,0-6.24,3A16.18,16.18,0,0,0,1064.07,508.49Z"/><line class="cls-4" x1="170" y1="351.71" x2="1270" y2="351.71"/></svg>