<?xml version="1.0" encoding="utf-8"?>
<!-- Generator: Adobe Illustrator 22.0.0, SVG Export Plug-In . SVG Version: 6.00 Build 0)  -->
<svg version="1.1" id="Ebene_1" xmlns="http://www.w3.org/2000/svg" xmlns:xlink="http://www.w3.org/1999/xlink" x="0px" y="0px"
	 viewBox="0 0 1440 617" style="enable-background:new 0 0 1440 617;" xml:space="preserve">
<style type="text/css">
	.st0{opacity:0.6;fill:url(#SVGID_1_);enable-background:new    ;}
	.st1{fill:#F0B921;}
</style>
<g id="Ebene_1_1_">
	
		<linearGradient id="SVGID_1_" gradientUnits="userSpaceOnUse" x1="197.6791" y1="302.372" x2="1315.6282" y2="315.5132" gradientTransform="matrix(1 0 0 -1 0 617)">
		<stop  offset="5.000000e-04" style="stop-color:#FAE897;stop-opacity:0.5"/>
		<stop  offset="0.1242" style="stop-color:#EFE49B;stop-opacity:0.4876"/>
		<stop  offset="0.3441" style="stop-color:#D0DAA5;stop-opacity:0.4656"/>
		<stop  offset="0.6345" style="stop-color:#9FC9B6;stop-opacity:0.4365"/>
		<stop  offset="0.981" style="stop-color:#5CB1CD;stop-opacity:0.4019"/>
		<stop  offset="0.9995" style="stop-color:#58B0CE;stop-opacity:0.4"/>
	</linearGradient>
	<rect x="-2" class="st0" width="1442" height="617"/>
	
		<ellipse transform="matrix(0.2298 -0.9732 0.9732 0.2298 597.7368 1149.1189)" class="st1" cx="1024.9" cy="196.9" rx="37.5" ry="37.5"/>
	<circle class="st1" cx="815" cy="198.1" r="37.5"/>
	<circle class="st1" cx="537.4" cy="154" r="37.5"/>
	<circle class="st1" cx="1264.5" cy="293.5" r="37.5"/>
	<circle class="st1" cx="191.6" cy="273.3" r="37.5"/>
	<circle class="st1" cx="690.6" cy="436.2" r="37.5"/>
	<circle class="st1" cx="1050.8" cy="436.2" r="37.5"/>
	<g>
		<path d="M187.3,241.1c1.1,2.7,2.2,5.4,3.4,8.2c1.1-2.8,2.2-5.6,3.4-8.4c1.2-2.7,2.4-5.4,3.7-7.9l50.4-94.2c0.7-1.2,1.3-2.1,2-2.8
			c0.7-0.7,1.4-1.2,2.2-1.5s1.8-0.5,2.8-0.6c1-0.1,2.2-0.1,3.6-0.1h23.8v170h-27.8V194c0-2,0.1-4.3,0.2-6.7c0.1-2.4,0.3-4.9,0.6-7.4
			l-51.4,96.4c-1.2,2.2-2.7,3.9-4.6,5.1c-1.9,1.2-4.1,1.9-6.6,1.9h-4.4c-2.5,0-4.7-0.7-6.6-1.9c-1.9-1.2-3.4-2.9-4.6-5.1l-52.1-96.8
			c0.3,2.6,0.6,5.1,0.7,7.5c0.1,2.5,0.2,4.7,0.2,6.9v109.8H98.3v-170h23.8c1.4,0,2.6,0,3.6,0.1c1,0.1,2,0.3,2.8,0.6s1.6,0.8,2.3,1.5
			c0.7,0.7,1.4,1.7,2,2.8l50.8,94.4C185,235.8,186.2,238.4,187.3,241.1z"/>
		<path d="M341.9,183.2v76.6c0,7.4,1.7,13,5.1,17.1c3.4,4,8.6,6.1,15.4,6.1c5,0,9.7-1.1,14.1-3.4c4.4-2.2,8.6-5.3,12.5-9.2v-87.2h29
			v120.6h-17.8c-3.7,0-6.2-1.8-7.4-5.3l-2-9.7c-2.5,2.5-5.1,4.8-7.7,6.9c-2.7,2-5.5,3.8-8.6,5.3c-3,1.5-6.2,2.6-9.8,3.4
			c-3.4,0.8-7.3,1.2-11.3,1.2c-6.6,0-12.4-1.1-17.5-3.4c-5-2.2-9.3-5.4-12.8-9.5c-3.4-4.1-6.1-8.9-7.8-14.5
			c-1.8-5.6-2.6-11.7-2.6-18.5v-76.6H341.9z M360.6,152c0,2.2-0.5,4.3-1.3,6.1c-0.8,2-2,3.6-3.6,5c-1.5,1.4-3.3,2.5-5.3,3.4
			c-2,0.8-4.1,1.2-6.3,1.2c-2.1,0-4.1-0.4-6.1-1.2c-2-0.8-3.6-2-5.1-3.4c-1.5-1.4-2.7-3.1-3.5-5c-0.8-2-1.3-4-1.3-6.1
			c0-2.2,0.5-4.4,1.3-6.4c0.8-2,2-3.7,3.5-5.2c1.5-1.5,3.2-2.7,5.1-3.5s3.9-1.3,6.1-1.3c2.2,0,4.3,0.5,6.3,1.3c2,0.8,3.7,2,5.3,3.5
			c1.5,1.5,2.7,3.3,3.6,5.2C360.1,147.5,360.6,149.6,360.6,152z M404.5,152c0,2.2-0.5,4.3-1.3,6.1c-0.8,2-2,3.6-3.5,5
			c-1.5,1.4-3.3,2.5-5.2,3.4s-4.1,1.2-6.3,1.2c-2.2,0-4.3-0.4-6.2-1.2c-2-0.8-3.6-2-5.1-3.4c-1.5-1.4-2.6-3.1-3.4-5
			c-0.8-2-1.3-4-1.3-6.1c0-2.2,0.5-4.4,1.3-6.4c0.8-2,2-3.7,3.4-5.2c1.5-1.5,3.2-2.7,5.1-3.5s4-1.3,6.2-1.3c2.2,0,4.3,0.5,6.3,1.3
			c2,0.8,3.7,2,5.2,3.5c1.5,1.5,2.7,3.3,3.5,5.2C404.1,147.5,404.5,149.6,404.5,152z"/>
		<path d="M479.9,129.2v174.7h-29V129.2H479.9z"/>
		<path d="M552.3,305.7c-10.4,0-18.4-3-24.1-8.8c-5.7-6-8.5-14.1-8.5-24.5V205h-12.2c-1.6,0-2.9-0.5-4.1-1.5c-1.1-1-1.7-2.5-1.7-4.6
			v-11.5l19.4-3.2l6.1-33c0.3-1.6,1-2.8,2.1-3.6c1.1-0.8,2.6-1.3,4.3-1.3h15.1v38h31.7V205h-31.7v65.3c0,3.7,0.9,6.7,2.8,8.8
			c1.9,2.1,4.4,3.2,7.5,3.2c1.8,0,3.4-0.2,4.6-0.7c1.2-0.5,2.2-0.8,3.2-1.4c0.9-0.5,1.7-0.9,2.4-1.4c0.7-0.5,1.4-0.7,2.1-0.7
			c0.8,0,1.6,0.2,2.1,0.7c0.6,0.5,1.1,1.1,1.8,2L584,295c-4.2,3.5-9.1,6.2-14.6,8C563.9,304.8,558.2,305.7,552.3,305.7z"/>
		<path d="M661.6,131.9l-29,30.7c-1.5,1.6-2.9,2.6-4.3,3.3c-1.4,0.6-3.2,0.8-5.3,0.8h-17.4l16.7-28.6c1.2-2,2.5-3.6,4.1-4.7
			c1.6-1,3.9-1.6,7.1-1.6H661.6z M634.6,183.2v120.6h-29V183.2H634.6z"/>
		<path d="M698.3,129.2v174.7h-29V129.2H698.3z"/>
		<path d="M789,166.5h-19.4c-2.4,0-4.4-0.7-5.9-2.1l-12.4-11.2c-0.4-0.4-0.8-0.7-1.2-1.2c-0.5-0.4-0.8-0.8-1.2-1.4
			c-0.4,0.6-0.8,1-1.2,1.4c-0.5,0.4-0.8,0.7-1.2,1.2L734,164.3c-0.7,0.6-1.5,1-2.5,1.5c-1,0.5-2.1,0.7-3.4,0.7H708l26.9-32.7h27.3
			L789,166.5z M762.1,183.2v120.6h-29V183.2H762.1z"/>
		<path d="M794.8,303.8V183.2h17.8c3.7,0,6.2,1.8,7.4,5.3l2,9.5c2.4-2.5,5-4.7,7.7-6.8c2.7-2,5.6-3.8,8.6-5.3c3-1.5,6.2-2.6,9.7-3.4
			c3.4-0.7,7.2-1.2,11.3-1.2c6.6,0,12.4,1.1,17.5,3.4c5.1,2.2,9.3,5.4,12.8,9.4c3.4,4,6,8.8,7.7,14.4s2.6,11.8,2.6,18.5v76.8h-29
			V227c0-7.4-1.7-13-5.1-17.1c-3.4-4-8.6-6.1-15.4-6.1c-5,0-9.7,1.1-14.1,3.4c-4.4,2.2-8.6,5.4-12.5,9.3v87.2H794.8z M859.8,144
			c2.3,0,4.2-0.7,5.5-2c1.3-1.3,2-3.6,2-7h17.6c0,4.4-0.7,8.4-1.9,11.9c-1.2,3.5-2.9,6.6-5,9.2c-2.1,2.5-4.7,4.5-7.5,5.9
			c-3,1.4-6.1,2-9.7,2c-2.8,0-5.5-0.5-7.9-1.5c-2.4-1-4.7-2.1-6.8-3.3c-2-1.1-4.1-2.2-6-3.3c-1.9-1-3.5-1.5-5.1-1.5
			c-2.2,0-4.1,0.7-5.3,2c-1.3,1.4-2,3.7-2,7h-18c0-4.4,0.7-8.4,1.9-11.9c1.2-3.5,2.9-6.6,5.1-9.2c2.2-2.5,4.7-4.6,7.7-6
			c3-1.4,6.1-2.1,9.6-2.1c2.8,0,5.5,0.5,7.9,1.5c2.5,1,4.7,2.1,6.9,3.3c2.1,1.2,4.1,2.2,5.9,3.3C856.6,143.6,858.3,144,859.8,144z"
			/>
		<path d="M970.2,181.1c5.2,0,10.1,0.6,14.6,1.6c4.6,1,8.7,2.6,12.5,4.7h34.7v10.8c0,1.8-0.5,3.3-1.4,4.2c-0.9,1-2.5,1.8-4.8,2.1
			l-10.8,2c0.7,2,1.4,4.2,1.9,6.4c0.5,2.2,0.7,4.7,0.7,7.2c0,6-1.2,11.4-3.6,16.2c-2.4,4.8-5.7,8.9-9.9,12.3
			c-4.2,3.4-9.2,6-14.9,7.8c-5.8,1.9-12,2.8-18.7,2.8c-4.6,0-8.9-0.5-13.3-1.3c-3.7,2.3-5.7,4.8-5.7,7.7c0,2.4,1.1,4.3,3.4,5.4
			c2.2,1.1,5.2,2,8.8,2.4c3.6,0.5,7.8,0.7,12.4,0.7c4.7,0,9.4,0.2,14.2,0.6c4.8,0.4,9.6,1.1,14.2,2c4.7,1,8.8,2.5,12.4,4.7
			c3.6,2.1,6.6,5,8.8,8.7c2.2,3.6,3.4,8.4,3.4,14.1c0,5.3-1.3,10.5-3.9,15.5c-2.6,5-6.4,9.5-11.4,13.4c-4.9,3.9-11.1,7.1-18.2,9.5
			c-7.2,2.4-15.5,3.6-24.7,3.6s-17.1-0.8-23.8-2.6c-6.7-1.8-12.3-4.1-16.8-7.1c-4.5-3-7.7-6.3-10-10.1s-3.3-7.8-3.3-12
			c0-5.7,1.8-10.4,5.2-14.2c3.4-3.8,8.2-6.9,14.3-9.2c-3-1.7-5.4-3.8-7.2-6.6c-1.8-2.7-2.7-6.3-2.7-10.7c0-1.8,0.3-3.6,0.9-5.6
			s1.6-3.8,2.9-5.7c1.3-1.9,2.9-3.6,4.8-5.3c2-1.7,4.3-3.2,7-4.6c-6.1-3.3-10.9-7.7-14.4-13.1c-3.4-5.5-5.2-11.9-5.2-19.3
			c0-6,1.2-11.4,3.6-16.2c2.4-4.8,5.7-8.9,10-12.4c4.3-3.4,9.3-6.1,15.2-7.8C957,182,963.3,181.1,970.2,181.1z M1002.1,308.9
			c0-2.4-0.7-4.4-2.1-5.9c-1.4-1.5-3.4-2.7-5.8-3.5s-5.3-1.5-8.6-1.9c-3.3-0.4-6.7-0.6-10.3-0.6c-3.6,0-7.4,0-11.3,0
			c-3.9,0-7.6-0.5-11.3-1.3c-3.3,1.8-6,3.9-7.9,6.4c-2,2.5-3,5.3-3,8.6c0,2.1,0.6,4.1,1.6,6c1,1.9,2.7,3.4,5,4.7
			c2.3,1.3,5.3,2.3,9,3.1c3.7,0.7,8.2,1.1,13.5,1.1c5.4,0,10.1-0.5,14-1.3c3.9-0.8,7.2-2,9.7-3.4c2.5-1.5,4.4-3.3,5.6-5.3
			C1001.5,313.5,1002.1,311.3,1002.1,308.9z M970.2,240.6c3.6,0,6.7-0.5,9.4-1.5c2.7-1,4.8-2.3,6.6-4.1c1.8-1.8,3.1-3.8,4-6.2
			c0.9-2.4,1.4-5.1,1.4-8c0-6-1.8-10.7-5.3-14.1c-3.5-3.4-8.9-5.2-16-5.2c-7.2,0-12.5,1.8-16,5.2s-5.3,8.2-5.3,14.1
			c0,2.8,0.5,5.5,1.4,7.9c0.9,2.4,2.2,4.6,4,6.3s4,3.2,6.7,4.1C963.6,240.1,966.7,240.6,970.2,240.6z"/>
		<path d="M1076.7,183.2v76.6c0,7.4,1.7,13,5.1,17.1c3.4,4,8.6,6.1,15.4,6.1c5,0,9.7-1.1,14.1-3.4c4.4-2.2,8.6-5.3,12.5-9.2v-87.2
			h29v120.6h-17.8c-3.7,0-6.2-1.8-7.4-5.3l-2-9.7c-2.5,2.5-5.1,4.8-7.7,6.9c-2.7,2-5.5,3.8-8.6,5.3c-3,1.5-6.2,2.6-9.8,3.4
			c-3.4,0.8-7.3,1.2-11.3,1.2c-6.6,0-12.4-1.1-17.5-3.4c-5-2.2-9.3-5.4-12.8-9.5c-3.4-4.1-6.1-8.9-7.8-14.5s-2.6-11.7-2.6-18.5
			v-76.6H1076.7z M1141.9,131.9l-29,30.7c-1.5,1.6-2.9,2.6-4.3,3.3c-1.4,0.6-3.2,0.8-5.3,0.8h-17.4l16.7-28.6c1.2-2,2.5-3.6,4.1-4.7
			c1.6-1,3.9-1.6,7.1-1.6H1141.9z"/>
		<path d="M1278.3,303.8h-13c-2.7,0-4.9-0.4-6.4-1.2c-1.6-0.8-2.7-2.5-3.5-5l-2.6-8.6c-3.1,2.7-6.1,5.1-9,7.3c-3,2-6,3.8-9.1,5.2
			c-3.2,1.4-6.4,2.5-10,3.2c-3.5,0.7-7.4,1-11.7,1c-5.1,0-9.8-0.7-14.1-2c-4.3-1.4-8-3.4-11.1-6.2c-3.1-2.8-5.5-6.1-7.3-10.2
			c-1.8-4.1-2.6-8.8-2.6-14.2c0-4.6,1.2-9,3.6-13.5s6.3-8.5,11.9-12c5.6-3.5,12.9-6.5,22.2-8.9c9.2-2.3,20.8-3.5,34.4-3.5v-7.1
			c0-8.1-1.7-14.1-5.1-18.1c-3.4-3.9-8.4-5.9-14.9-5.9c-4.7,0-8.7,0.6-11.7,1.7c-3.2,1.1-5.9,2.3-8.2,3.7c-2.3,1.4-4.5,2.6-6.4,3.7
			c-2,1.1-4.1,1.7-6.4,1.7c-2,0-3.6-0.5-5-1.5c-1.4-1-2.5-2.2-3.4-3.7l-5.3-9.3c13.9-12.7,30.6-19.1,50.2-19.1
			c7.1,0,13.3,1.1,18.9,3.4c5.5,2.3,10.2,5.5,14.1,9.7c3.8,4.1,6.8,9,8.8,14.7s3,12,3,18.8V303.8z M1221.9,285.7
			c3,0,5.7-0.3,8.2-0.8c2.5-0.6,4.8-1.4,7.1-2.4c2.2-1,4.4-2.4,6.4-4c2-1.6,4.2-3.4,6.3-5.6v-20.2c-8.5,0-15.5,0.6-21.2,1.6
			c-5.7,1-10.2,2.4-13.7,4.1c-3.4,1.7-5.9,3.6-7.4,5.8c-1.5,2.2-2.1,4.7-2.1,7.3c0,5.1,1.5,8.8,4.6,11
			C1213.2,284.6,1217.1,285.7,1221.9,285.7z"/>
		<path d="M1345.8,129.2v65.4l19.2-7.7v16.7c0,3.3-1.3,5.3-4,6.3l-15.2,6.4v87.5h-29v-77.3l-19.3,7.7v-17.1c0-2.7,1.2-4.7,3.6-5.7
			l15.6-6.6V129h29V129.2z"/>
	</g>
	<g>
		<path d="M138.7,496.9h-4.5c-1,0-1.8-0.2-2.4-0.5c-0.6-0.3-1-0.9-1.2-2l-1-5.3c-1.5,1.4-3,2.6-4.4,3.6c-1.4,1-3,2-4.6,2.7
			c-1.6,0.7-3.3,1.3-5,1.7c-1.8,0.4-3.8,0.6-6,0.6c-2.2,0-4.3-0.3-6.2-0.9c-2-0.7-3.6-1.6-5-2.8s-2.6-2.8-3.4-4.7s-1.3-4.2-1.3-6.8
			c0-2.2,0.7-4.5,1.9-6.5c1.2-2.1,3.3-4,6.1-5.6c2.8-1.6,6.4-3,10.9-4c4.5-1,10-1.6,16.5-1.6v-4.5c0-4.5-0.9-7.8-2.9-10.1
			c-1.9-2.3-4.7-3.4-8.5-3.4c-2.4,0-4.6,0.3-6.2,0.9c-1.7,0.7-3.2,1.3-4.4,2c-1.2,0.7-2.3,1.5-3.2,2c-0.9,0.7-1.8,0.9-2.6,0.9
			c-0.7,0-1.3-0.2-1.8-0.6c-0.5-0.4-0.9-0.8-1.2-1.3l-1.8-3.3c3.2-3.1,6.6-5.3,10.2-6.9c3.6-1.5,7.7-2.2,12.2-2.2
			c3.2,0,6.1,0.6,8.6,1.6c2.5,1,4.6,2.5,6.2,4.4s3,4.2,3.8,6.9c0.8,2.7,1.3,5.6,1.3,8.8L138.7,496.9L138.7,496.9z M112.6,490.8
			c1.8,0,3.4-0.2,4.8-0.6s2.9-0.8,4.2-1.5c1.3-0.7,2.5-1.5,3.7-2.4s2.3-2,3.4-3.3v-11.8c-4.7,0-8.6,0.3-11.8,0.8
			c-3.3,0.6-5.9,1.4-7.9,2.3c-2,0.9-3.5,2-4.5,3.4c-0.9,1.3-1.4,2.7-1.4,4.3c0,1.5,0.3,2.8,0.7,3.9c0.5,1.1,1.1,2,2,2.7
			c0.8,0.7,1.8,1.2,3,1.6C110,490.6,111.3,490.8,112.6,490.8z"/>
		<path d="M153.9,496.9v-57.2h6c1.4,0,2.3,0.7,2.7,2l0.8,6.2c2.5-2.8,5.3-4.9,8.4-6.7c3.1-1.7,6.6-2.5,10.7-2.5
			c3.2,0,5.9,0.6,8.3,1.6c2.4,1,4.4,2.5,6,4.4c1.6,1.9,2.8,4.2,3.6,6.9c0.8,2.7,1.2,5.7,1.2,8.8v36.5h-10.1v-36.5
			c0-4.4-1-7.7-3-10.1c-2-2.4-5-3.6-9.1-3.6c-3,0-5.8,0.7-8.4,2.1s-4.9,3.4-7.2,5.9v42.2H153.9z"/>
		<path d="M279,496.9c-1.4,0-2.3-0.7-2.7-2l-0.9-7c-2.4,3-5.2,5.4-8.4,7.2c-3.2,1.8-6.8,2.7-10.8,2.7c-3.3,0-6.2-0.7-8.9-1.9
			c-2.7-1.3-4.9-3.2-6.9-5.6c-1.9-2.4-3.4-5.5-4.4-9.1c-1-3.6-1.5-7.8-1.5-12.6c0-4.2,0.6-8.2,1.7-11.8c1.1-3.6,2.8-6.8,4.9-9.5
			c2.1-2.7,4.7-4.7,7.8-6.3s6.5-2.3,10.4-2.3c3.5,0,6.5,0.6,9,1.8c2.5,1.2,4.7,2.9,6.7,5v-31.7h9.9V497L279,496.9L279,496.9z
			 M259.5,489.6c3.3,0,6.1-0.7,8.7-2.2c2.5-1.5,4.7-3.6,6.8-6.4v-27.7c-1.9-2.5-3.9-4.2-6.1-5.2c-2.2-1-4.7-1.5-7.4-1.5
			c-5.4,0-9.5,1.9-12.3,5.7c-2.9,3.8-4.3,9.2-4.3,16.3c0,3.7,0.3,6.9,0.9,9.6c0.7,2.7,1.6,4.8,2.8,6.5c1.2,1.7,2.8,3,4.6,3.7
			C255,489,257.2,489.6,259.5,489.6z"/>
		<path d="M315.3,421.6c0,1-0.2,1.9-0.6,2.7c-0.4,0.8-0.9,1.6-1.6,2.2c-0.7,0.7-1.4,1.2-2.3,1.6c-0.8,0.4-1.8,0.6-2.8,0.6
			c-1,0-1.9-0.2-2.7-0.6c-0.8-0.4-1.6-0.9-2.2-1.6c-0.7-0.7-1.2-1.4-1.6-2.2c-0.4-0.8-0.6-1.8-0.6-2.7c0-1,0.2-2,0.6-2.8
			c0.4-0.9,0.9-1.7,1.6-2.3c0.7-0.7,1.4-1.2,2.2-1.6c0.8-0.4,1.8-0.6,2.7-0.6c1,0,1.9,0.2,2.8,0.6c0.8,0.4,1.7,0.9,2.3,1.6
			c0.7,0.7,1.2,1.4,1.6,2.3C315.2,419.8,315.3,420.7,315.3,421.6z M313.1,439.7v57.2H303v-57.2H313.1z"/>
		<path d="M353.5,438.8c3.4,0,6.6,0.6,9.5,1.8c2.9,1.1,5.4,2.8,7.5,4.9c2.1,2.1,3.7,4.8,4.9,8c1.2,3.2,1.8,6.8,1.8,10.9
			c0,1.6-0.2,2.6-0.5,3.2c-0.4,0.6-1,0.8-2,0.8h-38.1c0.1,3.6,0.6,6.8,1.5,9.4c0.9,2.7,2.1,4.9,3.7,6.7c1.6,1.8,3.4,3.2,5.7,4
			c2.1,0.9,4.7,1.3,7.4,1.3c2.5,0,4.7-0.3,6.5-0.8c1.9-0.6,3.4-1.2,4.7-1.9c1.3-0.7,2.4-1.3,3.4-1.9s1.7-0.8,2.3-0.8
			c0.8,0,1.5,0.3,2,0.9l2.8,3.6c-1.2,1.5-2.7,2.8-4.5,3.9c-1.8,1.1-3.6,2-5.6,2.7c-2,0.7-4,1.2-6.1,1.6c-2.1,0.4-4.2,0.6-6.2,0.6
			c-4,0-7.6-0.7-11-2c-3.4-1.3-6.2-3.3-8.7-5.9c-2.4-2.6-4.3-5.8-5.7-9.6c-1.4-3.8-2-8.2-2-13.1c0-4,0.7-7.7,1.9-11.2
			c1.2-3.4,3-6.5,5.3-9s5.1-4.6,8.5-6C345.7,439.5,349.4,438.8,353.5,438.8z M353.8,446.1c-4.8,0-8.7,1.4-11.4,4.2
			c-2.8,2.8-4.6,6.7-5.2,11.6h31.2c0-2.3-0.3-4.5-0.9-6.4c-0.7-2-1.6-3.6-2.8-5s-2.8-2.5-4.6-3.3C358.1,446.6,356,446.1,353.8,446.1
			z"/>
		<path d="M480.2,496.9h-8.5c-1,0-1.8-0.3-2.4-0.7c-0.6-0.5-1-1.1-1.4-1.9l-7.5-19.5H424l-7.5,19.5c-0.3,0.7-0.7,1.3-1.4,1.8
			c-0.7,0.6-1.4,0.8-2.4,0.8h-8.5l32.4-81.1h11.2L480.2,496.9z M427.1,466.9h30.3l-12.8-33c-0.8-2-1.7-4.6-2.4-7.6
			c-0.4,1.6-0.8,3-1.2,4.3s-0.7,2.4-1.1,3.4L427.1,466.9z"/>
		<path d="M488.9,496.9v-57.2h6c1.4,0,2.3,0.7,2.7,2l0.7,5.9c2.1-2.6,4.5-4.7,7.1-6.4c2.6-1.7,5.7-2.5,9.1-2.5c3.9,0,7,1.1,9.4,3.3
			c2.4,2.1,4.1,5,5.2,8.8c0.8-2,1.9-3.9,3.2-5.4c1.3-1.5,2.8-2.8,4.4-3.7c1.6-1,3.4-1.7,5.2-2.1c1.9-0.5,3.7-0.7,5.6-0.7
			c3,0,5.7,0.5,8.1,1.4c2.3,0.9,4.4,2.3,6,4.2c1.6,1.9,2.9,4.1,3.7,6.8c0.8,2.7,1.3,5.8,1.3,9.2v36.5h-10.1v-36.5
			c0-4.5-1-7.9-3-10.2s-4.8-3.4-8.6-3.4c-1.7,0-3.3,0.3-4.7,0.8s-2.8,1.4-3.9,2.6s-2,2.5-2.7,4.3c-0.7,1.7-1,3.7-1,6v36.5h-10.1
			v-36.5c0-4.6-0.9-8-2.8-10.3s-4.6-3.4-8.1-3.4c-2.5,0-4.8,0.7-6.9,2c-2.1,1.3-4.1,3.2-5.9,5.5v42.7L488.9,496.9L488.9,496.9z"/>
		<path d="M623.7,496.9h-4.5c-1,0-1.8-0.2-2.4-0.5c-0.6-0.3-1-0.9-1.2-2l-1.1-5.3c-1.5,1.4-3,2.6-4.4,3.6c-1.4,1-3,2-4.6,2.7
			c-1.6,0.7-3.3,1.3-5,1.7c-1.8,0.4-3.8,0.6-6,0.6c-2.2,0-4.3-0.3-6.2-0.9c-2-0.7-3.6-1.6-5-2.8c-1.4-1.2-2.6-2.8-3.4-4.7
			s-1.3-4.2-1.3-6.8c0-2.2,0.7-4.5,1.9-6.5c1.2-2.1,3.3-4,6.1-5.6c2.8-1.6,6.4-3,10.9-4c4.5-1,10-1.6,16.5-1.6v-4.5
			c0-4.5-0.9-7.8-2.9-10.1c-1.9-2.3-4.7-3.4-8.5-3.4c-2.4,0-4.6,0.3-6.2,0.9c-1.7,0.7-3.2,1.3-4.4,2s-2.3,1.5-3.2,2
			c-0.9,0.7-1.8,0.9-2.6,0.9c-0.7,0-1.3-0.2-1.8-0.6c-0.5-0.4-0.9-0.8-1.2-1.3l-1.8-3.3c3.2-3.1,6.6-5.3,10.2-6.9
			c3.6-1.5,7.7-2.2,12.2-2.2c3.2,0,6.1,0.6,8.6,1.6c2.5,1,4.6,2.5,6.2,4.4s3,4.2,3.8,6.9c0.8,2.7,1.3,5.6,1.3,8.8L623.7,496.9
			L623.7,496.9z M597.7,490.8c1.8,0,3.4-0.2,4.8-0.6s2.9-0.8,4.2-1.5c1.3-0.7,2.5-1.5,3.7-2.4s2.3-2,3.4-3.3v-11.8
			c-4.7,0-8.6,0.3-11.8,0.8c-3.3,0.6-5.9,1.4-7.9,2.3s-3.5,2-4.5,3.4c-0.9,1.3-1.4,2.7-1.4,4.3c0,1.5,0.3,2.8,0.7,3.9
			c0.5,1.1,1.1,2,2,2.7c0.8,0.7,1.8,1.2,3,1.6C595.1,490.6,596.4,490.8,597.7,490.8z"/>
		<path d="M650.3,413.6v83.3h-10.1v-83.3H650.3z"/>
		<path d="M670.3,496.9v-48.7l-6.3-0.7c-0.8-0.2-1.4-0.5-2-0.8c-0.6-0.4-0.7-0.9-0.7-1.8v-4.1h9v-3.2c0-3.5,0.6-6.7,1.7-9.7
			c1.1-2.9,2.7-5.4,4.9-7.5c2.1-2.1,4.9-3.7,8.2-4.9c3.3-1.2,7.1-1.8,11.4-1.8c1.4,0,2.9,0.1,4.4,0.3c1.5,0.2,2.8,0.5,3.9,0.8
			l-0.4,5.3c-0.1,0.5-0.3,0.7-0.7,0.9c-0.4,0.1-0.9,0.2-1.7,0.2c-0.4,0-0.8,0-1.3,0s-0.9,0-1.5,0c-6.7,0-11.5,1.4-14.5,4.2
			c-3.1,2.8-4.6,6.9-4.6,12.5v2.9h34.6v56.1h-10.1v-48.9h-24.2v48.9L670.3,496.9L670.3,496.9z"/>
		<path d="M742.9,413.6v49.1h2.6c0.7,0,1.4-0.1,1.9-0.3s1-0.7,1.7-1.3l18.1-19.4c0.6-0.6,1.1-1.1,1.7-1.5c0.6-0.4,1.3-0.6,2.2-0.6
			h9.1L759,462.1c-0.6,0.7-1,1.2-1.6,1.7c-0.5,0.5-1.1,0.9-1.8,1.3c0.7,0.5,1.3,0.9,1.9,1.6c0.6,0.7,1,1.2,1.6,2l22.4,28.3h-9
			c-0.8,0-1.6-0.2-2.1-0.5c-0.6-0.3-1.1-0.8-1.7-1.5L750,471.5c-0.6-0.8-1.1-1.3-1.7-1.6c-0.6-0.3-1.4-0.4-2.5-0.4H743v27.4h-10.1
			v-83.3H742.9z"/>
		<path d="M800.4,439.7v36.5c0,4.4,1,7.7,3,10.1c2,2.4,5,3.5,9,3.5c3,0,5.7-0.7,8.3-2c2.6-1.4,5-3.4,7.2-5.9v-42.3h10.1v57.2h-6
			c-1.4,0-2.3-0.7-2.7-2l-0.8-6.1c-2.5,2.8-5.3,4.9-8.4,6.6c-3.1,1.7-6.6,2.5-10.6,2.5c-3.2,0-5.9-0.6-8.3-1.6
			c-2.4-1-4.4-2.5-6.1-4.4c-1.6-1.9-2.8-4.2-3.6-6.9s-1.2-5.7-1.2-8.8v-36.5L800.4,439.7L800.4,439.7z M810.8,424.1
			c0,0.8-0.2,1.7-0.5,2.4c-0.4,0.7-0.8,1.4-1.4,2c-0.6,0.6-1.3,1-2,1.4s-1.6,0.5-2.4,0.5c-0.8,0-1.6-0.2-2.4-0.5
			c-0.7-0.4-1.4-0.8-2-1.4c-0.6-0.6-1-1.2-1.4-2c-0.4-0.7-0.5-1.6-0.5-2.4c0-0.8,0.2-1.7,0.5-2.5c0.4-0.8,0.8-1.5,1.4-2
			c0.6-0.6,1.2-1,2-1.4c0.7-0.4,1.6-0.5,2.4-0.5c0.8,0,1.7,0.2,2.4,0.5c0.7,0.3,1.5,0.8,2,1.4c0.6,0.6,1.1,1.3,1.4,2
			S810.8,423.2,810.8,424.1z M831.1,424.1c0,0.8-0.2,1.7-0.5,2.4c-0.4,0.7-0.8,1.4-1.4,2s-1.3,1-2,1.4s-1.6,0.5-2.4,0.5
			s-1.7-0.2-2.4-0.5c-0.7-0.4-1.4-0.8-2-1.4s-1-1.2-1.4-2c-0.4-0.7-0.5-1.6-0.5-2.4c0-0.8,0.2-1.7,0.5-2.5c0.4-0.8,0.8-1.5,1.4-2
			c0.6-0.6,1.2-1,2-1.4c0.7-0.4,1.6-0.5,2.4-0.5c0.8,0,1.7,0.2,2.4,0.5c0.7,0.4,1.5,0.8,2,1.4c0.6,0.6,1,1.3,1.4,2
			C831,422.4,831.1,423.2,831.1,424.1z"/>
		<path d="M887.5,449.1c-0.5,0.8-1.1,1.2-2,1.2c-0.6,0-1.2-0.2-2-0.7c-0.7-0.4-1.6-0.8-2.6-1.4c-1-0.5-2.2-1-3.7-1.4
			c-1.4-0.5-3.2-0.7-5.1-0.7c-1.7,0-3.3,0.2-4.6,0.7c-1.4,0.5-2.5,1-3.4,1.8c-0.9,0.7-1.7,1.7-2.2,2.6c-0.5,1-0.7,2-0.7,3.3
			c0,1.5,0.5,2.7,1.3,3.6c0.8,1,2,1.9,3.4,2.5c1.4,0.7,3,1.3,4.7,1.9c1.8,0.6,3.6,1.1,5.5,1.8s3.7,1.3,5.5,2
			c1.8,0.7,3.4,1.7,4.7,2.8c1.4,1.1,2.5,2.5,3.4,4.2c0.8,1.7,1.3,3.6,1.3,5.9c0,2.6-0.5,5.1-1.4,7.4c-0.9,2.2-2.3,4.2-4.2,5.9
			s-4.1,2.9-6.8,3.9c-2.7,1-5.8,1.4-9.3,1.4c-4,0-7.6-0.7-10.9-2c-3.3-1.3-6-3-8.3-5l2.4-3.8c0.3-0.5,0.7-0.8,1.1-1.1
			c0.4-0.3,0.9-0.4,1.7-0.4c0.7,0,1.4,0.3,2.1,0.8c0.7,0.6,1.7,1.1,2.7,1.8c1.1,0.7,2.4,1.2,3.9,1.8c1.5,0.6,3.4,0.8,5.8,0.8
			c2,0,3.6-0.3,5.1-0.7s2.7-1.2,3.6-2c1-0.8,1.7-1.9,2.1-3s0.7-2.3,0.7-3.6c0-1.6-0.5-2.9-1.3-3.9c-0.8-1-2-2-3.4-2.7
			c-1.4-0.7-3-1.4-4.7-2c-1.8-0.6-3.6-1.1-5.5-1.8c-1.9-0.6-3.7-1.3-5.5-2c-1.8-0.7-3.4-1.8-4.7-2.9c-1.4-1.2-2.5-2.6-3.4-4.3
			c-0.8-1.7-1.3-3.8-1.3-6.2c0-2.1,0.5-4.3,1.4-6.3c0.9-2,2.2-3.8,4-5.3c1.8-1.5,3.9-2.7,6.4-3.6c2.5-0.9,5.4-1.4,8.7-1.4
			c3.7,0,7.2,0.6,10.1,1.8c3,1.2,5.6,2.8,7.8,4.9L887.5,449.1z"/>
		<path d="M921.1,497.9c-4.6,0-8-1.3-10.4-3.8c-2.4-2.5-3.6-6.1-3.6-10.9v-35.1h-6.9c-0.6,0-1.1-0.2-1.5-0.6
			c-0.4-0.4-0.7-0.9-0.7-1.7v-4l9.4-1.2l2.3-17.7c0.1-0.6,0.3-1,0.7-1.4c0.4-0.4,0.9-0.6,1.6-0.6h5.1v19.8h16.4v7.3h-16.5v34.3
			c0,2.4,0.6,4.2,1.8,5.4c1.2,1.2,2.7,1.8,4.6,1.8c1,0,2-0.2,2.7-0.5c0.7-0.3,1.4-0.6,2-0.9c0.7-0.4,1-0.7,1.4-0.9
			c0.4-0.3,0.7-0.5,1-0.5c0.6,0,1,0.3,1.4,0.9l3,4.8c-1.8,1.6-3.8,2.9-6.2,3.8C926.2,497.4,923.7,497.9,921.1,497.9z"/>
		<path d="M968.5,438.8c3.4,0,6.6,0.6,9.5,1.8c2.9,1.1,5.4,2.8,7.5,4.9s3.7,4.8,4.9,8c1.2,3.2,1.8,6.8,1.8,10.9
			c0,1.6-0.2,2.6-0.5,3.2c-0.4,0.6-1,0.8-2,0.8h-38.1c0.1,3.6,0.6,6.8,1.5,9.4c0.9,2.7,2.1,4.9,3.7,6.7c1.6,1.8,3.4,3.2,5.7,4
			c2.1,0.9,4.7,1.3,7.4,1.3c2.5,0,4.7-0.3,6.5-0.8c1.9-0.6,3.4-1.2,4.7-1.9c1.3-0.7,2.4-1.3,3.4-1.9c0.9-0.6,1.7-0.8,2.3-0.8
			c0.8,0,1.5,0.3,2,0.9l2.8,3.6c-1.2,1.5-2.7,2.8-4.5,3.9c-1.8,1.1-3.6,2-5.6,2.7c-2,0.7-4,1.2-6.1,1.6c-2.1,0.4-4.2,0.6-6.2,0.6
			c-4,0-7.6-0.7-11-2c-3.4-1.3-6.2-3.3-8.7-5.9c-2.4-2.6-4.3-5.8-5.7-9.6c-1.4-3.8-2-8.2-2-13.1c0-4,0.7-7.7,1.9-11.2s3-6.5,5.3-9
			s5.1-4.6,8.5-6C960.7,439.5,964.4,438.8,968.5,438.8z M968.8,446.1c-4.8,0-8.7,1.4-11.4,4.2c-2.8,2.8-4.6,6.7-5.2,11.6h31.2
			c0-2.3-0.3-4.5-0.9-6.4s-1.6-3.6-2.8-5c-1.2-1.4-2.8-2.5-4.6-3.3C973.1,446.6,971.1,446.1,968.8,446.1z"/>
		<path d="M1029.2,496.9v-48.7l-6.3-0.7c-0.8-0.2-1.4-0.5-2-0.8c-0.6-0.4-0.7-0.9-0.7-1.8v-4.1h9v-3.1c0-3.2,0.5-6.1,1.5-9
			c1-2.9,2.4-5.3,4.4-7.4s4.4-3.8,7.4-5c3-1.2,6.3-1.9,10.3-1.9c3.2,0,6.1,0.1,9,0.4c2.9,0.3,5.7,0.4,8.4,0.4h5.7v81.8h-10.1v-75
			c-2,0-4.1,0-6.1,0c-2,0-3.8,0-5.3,0c-4.9,0-8.7,1.4-11.4,4.2c-2.7,2.8-4,6.7-4,11.6v3h14.9v7.3h-14.6v48.9L1029.2,496.9
			L1029.2,496.9z"/>
		<path d="M1107.6,421.6c0,1-0.2,1.9-0.6,2.7c-0.4,0.8-0.9,1.6-1.6,2.2s-1.4,1.2-2.3,1.6c-0.8,0.4-1.8,0.6-2.8,0.6s-1.9-0.2-2.7-0.6
			c-0.8-0.4-1.6-0.9-2.2-1.6c-0.7-0.7-1.2-1.4-1.6-2.2c-0.4-0.8-0.6-1.8-0.6-2.7c0-1,0.2-2,0.6-2.8c0.4-0.9,0.9-1.7,1.6-2.3
			c0.7-0.7,1.4-1.2,2.2-1.6c0.8-0.4,1.8-0.6,2.7-0.6c1,0,1.9,0.2,2.8,0.6c0.8,0.4,1.7,0.9,2.3,1.6c0.7,0.7,1.2,1.4,1.6,2.3
			S1107.6,420.7,1107.6,421.6z M1105.4,439.7v57.2h-10.1v-57.2H1105.4z"/>
		<path d="M1145.8,438.8c3.4,0,6.6,0.6,9.5,1.8c2.9,1.1,5.4,2.8,7.5,4.9c2.1,2.1,3.7,4.8,4.9,8c1.2,3.2,1.8,6.8,1.8,10.9
			c0,1.6-0.2,2.6-0.5,3.2c-0.4,0.6-1,0.8-2,0.8H1129c0.1,3.6,0.6,6.8,1.5,9.4c0.9,2.7,2.1,4.9,3.7,6.7c1.6,1.8,3.4,3.2,5.7,4
			c2.1,0.9,4.7,1.3,7.4,1.3c2.5,0,4.7-0.3,6.5-0.8c1.9-0.6,3.4-1.2,4.7-1.9c1.3-0.7,2.4-1.3,3.4-1.9s1.7-0.8,2.3-0.8
			c0.8,0,1.5,0.3,2,0.9l2.8,3.6c-1.2,1.5-2.7,2.8-4.5,3.9c-1.8,1.1-3.6,2-5.6,2.7c-2,0.7-4,1.2-6.1,1.6c-2.1,0.4-4.2,0.6-6.2,0.6
			c-4,0-7.6-0.7-11-2c-3.4-1.3-6.2-3.3-8.7-5.9c-2.4-2.6-4.3-5.8-5.7-9.6c-1.4-3.8-2-8.2-2-13.1c0-4,0.7-7.7,1.9-11.2s3-6.5,5.3-9
			c2.3-2.5,5.1-4.6,8.5-6C1138,439.5,1141.7,438.8,1145.8,438.8z M1146.1,446.1c-4.8,0-8.7,1.4-11.4,4.2c-2.8,2.8-4.6,6.7-5.2,11.6
			h31.2c0-2.3-0.3-4.5-0.9-6.4s-1.6-3.6-2.8-5s-2.8-2.5-4.6-3.3C1150.3,446.6,1148.3,446.1,1146.1,446.1z"/>
		<path d="M1201.6,438.7c2.5,0,4.8,0.3,7,0.8c2.1,0.6,4.1,1.3,5.9,2.4h15.5v3.7c0,1.2-0.8,2-2.4,2.4l-6.5,0.9c1.3,2.4,2,5.2,2,8.2
			c0,2.8-0.6,5.3-1.6,7.6c-1,2.3-2.6,4.2-4.5,5.9c-1.9,1.6-4.2,2.9-6.8,3.7c-2.6,0.8-5.5,1.3-8.7,1.3c-2.7,0-5.2-0.3-7.5-0.9
			c-1.2,0.7-2.1,1.6-2.7,2.5c-0.7,0.9-0.9,1.8-0.9,2.6c0,1.4,0.6,2.4,1.7,3.2s2.5,1.2,4.4,1.6s3.9,0.5,6.1,0.5c2.3,0,4.7,0,7.1,0
			s4.7,0.2,7.1,0.7c2.3,0.5,4.4,1.1,6.1,2s3.3,2.2,4.4,3.9c1.1,1.7,1.7,3.8,1.7,6.5c0,2.5-0.7,4.8-1.9,7.2s-3,4.4-5.3,6.2
			c-2.3,1.8-5.1,3.3-8.5,4.4c-3.4,1.1-7.1,1.7-11.3,1.7s-7.8-0.4-11-1.2s-5.8-2-7.8-3.4c-2-1.4-3.6-3-4.7-4.8s-1.6-3.7-1.6-5.8
			c0-2.8,0.9-5.2,2.7-7.3c1.8-2,4.3-3.5,7.4-4.7c-1.6-0.7-2.9-1.8-3.9-3c-0.9-1.3-1.4-3-1.4-5c0-0.8,0.2-1.7,0.5-2.6
			s0.7-1.8,1.4-2.6c0.7-0.8,1.4-1.7,2.3-2.5c0.9-0.7,2-1.5,3.2-2c-2.8-1.6-5-3.7-6.6-6.3c-1.6-2.6-2.4-5.7-2.4-9.2
			c0-2.8,0.6-5.3,1.6-7.6c1-2.3,2.6-4.2,4.5-5.9c2-1.6,4.2-2.8,6.9-3.7S1198.5,438.7,1201.6,438.7z M1219.5,499.8
			c0-1.5-0.4-2.6-1.2-3.5c-0.8-0.9-1.9-1.6-3.3-2c-1.4-0.5-2.9-0.8-4.7-1s-3.6-0.4-5.6-0.4s-4,0-6,0c-2,0-4-0.3-5.9-0.7
			c-2.1,1-3.9,2.2-5.2,3.7c-1.3,1.5-2,3.3-2,5.3c0,1.3,0.4,2.5,1,3.6c0.7,1.1,1.7,2,3.1,2.9c1.4,0.8,3.1,1.5,5.1,2
			c2,0.5,4.5,0.7,7.3,0.7c2.7,0,5.1-0.3,7.3-0.7c2.1-0.5,4-1.2,5.5-2.1c1.5-0.9,2.6-2,3.4-3.3
			C1219.1,502.8,1219.5,501.4,1219.5,499.8z M1201.6,468.9c2,0,3.8-0.3,5.4-0.8c1.6-0.6,2.9-1.4,3.9-2.4s1.9-2.2,2.4-3.6
			s0.8-3,0.8-4.7c0-3.5-1-6.3-3.2-8.4c-2.1-2-5.2-3.1-9.3-3.1c-4,0-7.1,1-9.2,3.1c-2.1,2-3.2,4.8-3.2,8.4c0,1.7,0.3,3.3,0.8,4.7
			c0.6,1.4,1.3,2.6,2.4,3.6c1.1,1,2.3,1.8,3.9,2.4C1197.9,468.6,1199.7,468.9,1201.6,468.9z"/>
		<path d="M1262.9,438.8c3.4,0,6.6,0.6,9.5,1.8c2.9,1.1,5.4,2.8,7.5,4.9c2.1,2.1,3.7,4.8,4.9,8c1.2,3.2,1.8,6.8,1.8,10.9
			c0,1.6-0.2,2.6-0.5,3.2c-0.4,0.6-1,0.8-2,0.8h-38.1c0.1,3.6,0.6,6.8,1.5,9.4c0.9,2.7,2.1,4.9,3.7,6.7c1.6,1.8,3.4,3.2,5.7,4
			c2.1,0.9,4.7,1.3,7.4,1.3c2.5,0,4.7-0.3,6.5-0.8c1.9-0.6,3.4-1.2,4.7-1.9c1.3-0.7,2.4-1.3,3.4-1.9c0.9-0.6,1.7-0.8,2.3-0.8
			c0.8,0,1.5,0.3,2,0.9l2.8,3.6c-1.2,1.5-2.7,2.8-4.5,3.9c-1.8,1.1-3.6,2-5.6,2.7c-2,0.7-4,1.2-6.1,1.6c-2.1,0.4-4.2,0.6-6.2,0.6
			c-4,0-7.6-0.7-11-2c-3.4-1.3-6.2-3.3-8.7-5.9c-2.4-2.6-4.3-5.8-5.7-9.6c-1.4-3.8-2-8.2-2-13.1c0-4,0.7-7.7,1.9-11.2s3-6.5,5.3-9
			c2.3-2.5,5.1-4.6,8.5-6C1255,439.5,1258.7,438.8,1262.9,438.8z M1263.1,446.1c-4.8,0-8.7,1.4-11.4,4.2c-2.8,2.8-4.6,6.7-5.2,11.6
			h31.2c0-2.3-0.3-4.5-0.9-6.4s-1.6-3.6-2.8-5c-1.2-1.4-2.8-2.5-4.6-3.3C1267.4,446.6,1265.4,446.1,1263.1,446.1z"/>
		<path d="M1299.5,496.9v-57.2h6c1.4,0,2.3,0.7,2.7,2l0.8,6.2c2.5-2.8,5.3-4.9,8.4-6.7c3.1-1.7,6.6-2.5,10.7-2.5
			c3.2,0,5.9,0.6,8.3,1.6c2.4,1,4.4,2.5,6,4.4c1.6,1.9,2.8,4.2,3.6,6.9s1.2,5.7,1.2,8.8v36.5h-10.1v-36.5c0-4.4-1-7.7-3-10.1
			c-2-2.4-5-3.6-9.1-3.6c-3,0-5.8,0.7-8.4,2.1c-2.6,1.4-4.9,3.4-7.2,5.9v42.2H1299.5z"/>
	</g>
</g>
<g id="Ebene_2_1_">
</g>
<g id="Ebene_3">
</g>
</svg>
