<?xml version="1.0" encoding="utf-8"?>
<!-- Generator: Adobe Illustrator 22.1.0, SVG Export Plug-In . SVG Version: 6.00 Build 0)  -->
<svg version="1.1" id="Ebene_1" xmlns="http://www.w3.org/2000/svg" xmlns:xlink="http://www.w3.org/1999/xlink" x="0px" y="0px"
	 viewBox="0 0 1540 1080" style="enable-background:new 0 0 1540 1080;" xml:space="preserve">
<g>
	<path d="M132.9,135.3c36.5,0,53.2,18.9,53.2,64.4v4.8h-4.8c0-47.9-14.5-64.4-47.7-64.4h-1.5c-35.8,0-54.9,23.7-54.9,86.2v9.7
		c0,62.4,19.1,86.2,54.9,86.2h1.5c30.3,0,47.7-16.9,47.7-57.1h4.8v3.4c0,35.1-16,58.6-53.2,58.6c-39.9,0-60.5-25.7-60.5-91v-9.7
		C72.4,160.9,93,135.3,132.9,135.3z"/>
	<path d="M213.5,263.8V259c0-39.2,17.9-63.2,50.3-63.2s50.3,24,50.3,63.2v4.8c0,39.2-17.9,63.2-50.3,63.2S213.5,303,213.5,263.8z
		 M309.4,263.8V259c0-35.8-16-58.3-45.5-58.3s-45.5,22.5-45.5,58.3v4.8c0,35.8,16,58.3,45.5,58.3
		C293.4,322.1,309.4,299.6,309.4,263.8z"/>
	<path d="M340.8,263.8V259c0-39.2,17.9-63.2,50.3-63.2s50.3,24,50.3,63.2v4.8c0,39.2-17.9,63.2-50.3,63.2S340.8,303,340.8,263.8z
		 M436.7,263.8V259c0-35.8-16-58.3-45.5-58.3s-45.5,22.5-45.5,58.3v4.8c0,35.8,16,58.3,45.5,58.3S436.7,299.6,436.7,263.8z"/>
	<path d="M476.6,307.3v66.6h-4.8V226.3l-1.2-29h3.6l1.7,19.1c5.8-8.5,18.9-20.6,39.9-20.6c32.4,0,49.1,24,49.1,63.2v4.8
		c0,39.2-16.7,63.2-49.1,63.2C495.5,327,482.9,315.8,476.6,307.3z M476.6,299.6c6.5,9.9,18.4,22.5,39.2,22.5
		c29.5,0,44.3-22.5,44.3-58.3V259c0-35.8-14.8-58.3-44.3-58.3c-20.8,0-32.7,12.6-39.2,22.5V299.6z"/>
	<path d="M596.4,263.8c0,33.9,14.3,58.3,47.2,58.3s44.8-20.6,44.8-37.8h4.8v1.2c0,18.2-14,41.4-49.6,41.4c-36.5,0-52-27.8-52-63.2
		v-4.8c0-35.3,15-63.2,50.8-63.2s50.8,27.8,50.8,63.2v4.8h-96.8V263.8z M596.4,258.9h92c0-34.1-14.8-58.3-46-58.3
		C611.1,200.6,596.4,224.8,596.4,258.9z"/>
	<path d="M768.2,196v4.6H766c-21.3,0-32.9,12.3-37.8,23v101.9h-4.8v-99.2l-1.2-29h3.6l1.7,19.6c5.8-9.7,17.7-21.1,37-21.1
		C766.7,195.8,768.2,196,768.2,196z"/>
</g>
<g>
	<path d="M349,344.7v186.8h-45.5v-75.7H258v75.7h-45.5V344.7H258v71.9h45.5v-71.9H349z"/>
	<path d="M411.1,483.6c1.4,14.4,8.6,18.2,19.6,18.2c9.6,0,17-5,17-11h41.4v1c0,25.4-21.8,43.1-58.7,43.1
		c-43.4,0-63.5-26.1-63.5-63.2v-7.2c0-37.1,21.1-63.2,62-63.2c41,0,60.1,26.1,60.1,63.2v19.2L411.1,483.6L411.1,483.6z M411.1,452.5
		h34c-1.2-13.4-6.7-18.2-17-18.2S412.3,439.1,411.1,452.5z"/>
	<path d="M571.3,531.5h-55.1l-20.4-127H539l6,79l14.4-79h52.7l14.4,79l6-79h43.1l-20.4,127h-55.1l-14.4-81.4L571.3,531.5z"/>
	<path d="M735.4,390.2h-45.5v-45.5h45.5V390.2z M690.6,404.6h44.1v127h-44.1V404.6z"/>
	<path d="M843.4,404.6v38.3H813V480c0,14.4,6.9,17,17,17c3.8,0,9.8-1,11-1.4v35.9c-2.2,1.2-9.3,3.4-21.3,3.4
		c-30.4,0-50.8-12.9-50.8-50.1v-41.9h-19.2v-38.3h19.2v-35.9H813v35.9L843.4,404.6L843.4,404.6z"/>
	<path d="M948.8,404.6v38.3h-30.4V480c0,14.4,6.9,17,17,17c3.8,0,9.8-1,11-1.4v35.9c-2.2,1.2-9.3,3.4-21.3,3.4
		c-30.4,0-50.8-12.9-50.8-50.1v-41.9h-19.2v-38.3h19.2v-35.9h44.1v35.9L948.8,404.6L948.8,404.6z"/>
</g>
<g>
	<path d="M664.9,631.3l-7.6,0.1h-11.4V629H668v1.8l-19.7,29.5l7.6-0.1h12.7v2.4h-23.4v-1.8L664.9,631.3z"/>
	<path d="M677.7,629v23.4c0,6,3.5,8.4,8.3,8.4c6,0,8.9-3.3,10.5-5.8V629h2.5v24.1l0.4,9.5h-1.9l-0.6-4.8c-1.8,2.9-5.5,5.5-11.4,5.5
		c-6.3,0-10.1-4.1-10.1-10.5v-23.7L677.7,629L677.7,629z"/>
	<path d="M746.4,662.5v-24.4c0-6-3.2-7.4-7.3-7.4c-5.4,0-7.9,3.3-9.5,5.8v25.9h-2.5v-24.4c0-6-3.2-7.4-7.3-7.4
		c-5.4,0-7.9,3.3-9.5,5.8v25.9h-2.5v-24.1l-0.4-9.5h1.9l0.5,4.7c1.8-2.8,5.1-5.4,10.6-5.4c4.4,0,7.5,1.9,8.6,5.6
		c1.7-2.9,5.1-5.6,10.7-5.6c5.7,0,9.1,3.2,9.1,9.5v24.7L746.4,662.5L746.4,662.5z"/>
	<path d="M770.8,611.9h2.5v50.6h-2.5V611.9z"/>
	<path d="M784.5,647c0.1,8.3,3.5,13.8,11.3,13.8s10.7-4.8,10.7-9h2.5v0.3c0,4.8-4,11.2-13.3,11.2c-9.8,0-13.9-7.6-13.9-16.8v-1.2
		c0-9.1,4-16.8,13.6-16.8s13.6,7.6,13.6,16.8v1.8L784.5,647L784.5,647z M784.5,644.6h21.9c-0.2-8.3-3.6-13.8-11-13.8
		S784.6,636.3,784.5,644.6z"/>
	<path d="M838.7,653.7c0-5.4-3.3-6.5-10.6-7.1c-8.9-0.8-11-4.2-11-8.8v-0.4c0-5.1,4.1-9.1,12-9.1c9,0,12,4.8,12,11.2v0.3h-2.5
		c0-5.5-2.1-9-9.5-9c-5.8,0-9.3,2.4-9.3,6.8c0,4,1.8,6.2,10.3,6.9c8.4,0.6,11.4,3.3,11.4,9.1v0.3c0,5.4-4.5,9.4-12.3,9.4
		c-9.4,0-12.3-5.9-12.3-10.6v-0.3h2.5c0,4.2,2,8.4,9.8,8.4C835.2,660.8,838.7,658.1,838.7,653.7z"/>
	<path d="M851.6,647c0.1,8.3,3.5,13.8,11.3,13.8c7.7,0,10.7-4.8,10.7-9h2.5v0.3c0,4.8-4,11.2-13.3,11.2c-9.8,0-13.9-7.6-13.9-16.8
		v-1.2c0-9.1,4-16.8,13.6-16.8c9.6,0,13.6,7.6,13.6,16.8v1.8L851.6,647L851.6,647z M851.6,644.6h21.9c-0.2-8.3-3.6-13.8-11-13.8
		C855.1,630.8,851.8,636.3,851.6,644.6z"/>
	<path d="M905.3,662.5v-23.4c0-6-3.5-8.4-8.3-8.4c-6,0-8.9,3.3-10.5,5.8v25.9H884v-24.1l-0.4-9.5h1.9l0.5,4.9
		c1.8-2.9,5.5-5.5,11.4-5.5c6.3,0,10.1,4.1,10.1,10.5v23.7H905.3z"/>
	<path d="M950.9,656c-1.8,2.6-4.8,4.7-9.8,4.7c-9.1,0-13-7.3-13-15.5V644c0-8.3,3.8-15.5,13-15.5c5.3,0,8.4,2.5,10.1,5.4l0.6-4.7
		h1.9l-0.4,9.5v24.7c0,6.9-3.2,12.7-12.3,12.7c-9.1,0-12.3-5.7-12.3-12.7v-0.6h2.5c0,7.4,2.8,10.9,9.8,10.9c7.3,0,9.8-4,9.8-10.6
		L950.9,656L950.9,656z M941.4,630.8c-7.1,0-10.6,5.3-10.6,13.1v1.2c0,7.8,3.5,13.1,10.6,13.1c5.1,0,7.9-3.3,9.5-5.8v-15.8
		C949.3,634.1,946.5,630.8,941.4,630.8z"/>
	<path d="M964,647c0.1,8.3,3.5,13.8,11.3,13.8c7.7,0,10.7-4.8,10.7-9h2.5v0.3c0,4.8-4,11.2-13.3,11.2c-9.8,0-13.9-7.6-13.9-16.8
		v-1.2c0-9.1,4-16.8,13.6-16.8c9.6,0,13.6,7.6,13.6,16.8v1.8L964,647L964,647z M964,644.6h21.9c-0.2-8.3-3.6-13.8-11-13.8
		C967.5,630.8,964.1,636.3,964,644.6z"/>
	<path d="M1035.1,662.5v-24.4c0-6-3.2-7.4-7.3-7.4c-5.4,0-7.9,3.3-9.5,5.8v25.9h-2.5v-24.4c0-6-3.2-7.4-7.3-7.4
		c-5.4,0-7.9,3.3-9.5,5.8v25.9h-2.5v-24.1l-0.4-9.5h1.9l0.5,4.7c1.8-2.8,5.1-5.4,10.6-5.4c4.4,0,7.5,1.9,8.6,5.6
		c1.7-2.9,5.1-5.6,10.7-5.6c5.7,0,9.1,3.2,9.1,9.5v24.7L1035.1,662.5L1035.1,662.5z"/>
	<path d="M1066.7,657.5c-2.1,2.9-6,5.7-12.3,5.7c-5.7,0-9.5-3.5-9.5-8.9v-0.6c0-7.3,5.7-9.2,10.6-10l10.9-1.7v-1.2
		c0-6.5-2.1-9.9-8.9-9.9c-7.3,0-8.9,4.2-8.9,9.3h-2.5v-0.5c0-4.8,1.9-11.2,11.4-11.2c8.7,0,11.4,5.2,11.4,12.3v12.3l0.4,9.5h-1.9
		L1066.7,657.5z M1066.4,654.5v-10.1l-11.1,1.8c-4.7,0.8-7.9,3.2-7.9,7.6v0.6c0,3.3,2.2,6.4,7.3,6.4
		C1062.2,660.8,1065.2,656.7,1066.4,654.5z"/>
	<path d="M1090.5,660.8c7.4,0,9.8-4.7,9.8-9.6h2.5v0.9c0,4.8-3.3,11.2-12.3,11.2c-9.6,0-13.6-7.6-13.6-16.8v-1.2
		c0-9.1,4-16.8,13.6-16.8c9.1,0,12.3,6.7,12.3,11.4v1.2h-2.5c0-5.7-2.7-10.3-9.8-10.3c-7.6,0-11,5.8-11,14.3v1.2
		C1079.5,655,1082.9,660.8,1090.5,660.8z"/>
	<path d="M1113.3,633.4c1.9-2.7,5.5-5.1,11.1-5.1c6.3,0,10.1,4.1,10.1,10.5v23.7h-2.5v-23.4c0-6-3.5-8.4-8.3-8.4
		c-6,0-8.9,3.3-10.5,5.8v25.9h-2.5v-50.6h2.5L1113.3,633.4L1113.3,633.4z"/>
	<path d="M1159.3,629v2.4h-11.4v22.2c0,5.7,2.4,7.1,6.9,7.1c1.5,0,3.3-0.4,3.8-0.5v2.4c-0.4,0.2-1.9,0.6-4.4,0.6
		c-5.1,0-8.9-2.5-8.9-9.1v-22.6h-5.4v-2.4h5.4v-9.5h2.5v9.5L1159.3,629L1159.3,629z"/>
	<path d="M1170.8,662.5h-3.8v-3.8h3.8V662.5z"/>
</g>
<g>
	<path d="M777.6,720.8h-6.1v-23.1h6.1c5.6,0,8.9,3,8.9,11v1.2C786.4,717.8,783.2,720.8,777.6,720.8z M777.4,718.8c4.4,0,7-2.5,7-9
		v-1.2c0-6.5-2.5-9-7-9h-3.8v19.2L777.4,718.8L777.4,718.8z"/>
	<path d="M792.7,701.4H790v-2.7h2.7V701.4z M790.3,705.1h2.1v15.7h-2.1V705.1z"/>
	<path d="M798.1,713.8c0.1,3.4,1.5,5.6,4.7,5.6c3.1,0,4.4-1.9,4.4-3.6h1.9v0.1c0,2.4-2.1,5.2-6.4,5.2c-4.7,0-6.8-3.6-6.8-7.8v-0.6
		c0-4.3,2.1-7.8,6.7-7.8s6.5,3.6,6.5,7.8v1.2h-11.1V713.8z M798.1,712h9c-0.1-3.4-1.5-5.6-4.4-5.6
		C799.6,706.4,798.3,708.6,798.1,712z"/>
	<path d="M818.3,703.7v-0.3c0-3.8,2.8-6.2,7.3-6.2c5.2,0,7.3,2.7,7.3,7.4v0.7h-2.1c0-4.4-1.5-6.2-5-6.2h-0.3c-2.8,0-4.9,1.5-4.9,4
		v0.3c0,2.5,1.3,3.8,5.5,4.4c5,0.7,7.1,2.7,7.1,6.2v0.3c0,4.1-3,6.5-7.6,6.5c-4.9,0-7.6-2.8-7.6-7.6v-0.1h2.1c0,4,2.2,5.9,5.3,5.9
		h0.1c3.1,0,5.2-1.6,5.2-4.4v-0.3c0-2.7-1.6-4.1-5.8-4.6C820.1,709.1,818.3,706.8,818.3,703.7z"/>
	<path d="M842.4,719.1c3,0,4-1.9,4-3.8h1.9v0.4c0,2.5-1.6,5.3-6.1,5.3c-4.6,0-6.5-3.4-6.5-7.8v-0.7c0-4.3,1.9-7.8,6.5-7.8
		c4.3,0,6.1,3,6.1,5.5v0.6h-1.9c0-2.4-1.2-4.1-4-4.1c-3.1,0-4.4,2.4-4.4,5.9v0.7C838,716.8,839.3,719.1,842.4,719.1z"/>
	<path d="M854,707c0.9-1.2,2.5-2.2,5-2.2c3.1,0,4.7,2.1,4.7,5v11h-2.1v-10.7c0-2.4-1.3-3.4-3.4-3.4c-2.5,0-3.7,1.3-4.3,2.4v11.7
		h-2.1v-23.7h2.1V707z"/>
	<path d="M874.1,704.8v1.9h-0.4c-2.4,0-3.6,1.3-4.1,2.4v11.7h-2.1v-11.3l-0.1-4.4h1.8l0.3,2.1c0.9-1.3,2.2-2.4,4.4-2.4
		C873.9,704.8,874.1,704.8,874.1,704.8z"/>
	<path d="M879.9,701.4h-2.7v-2.7h2.7V701.4z M877.5,705.1h2.1v15.7h-2.1V705.1z"/>
	<path d="M887.3,705.1h4.4v1.9h-4.4v13.8h-2.1V707h-2.5v-1.9h2.5v-3.7c0-3.4,1.9-4.7,4.6-4.7c1.2,0,1.9,0.3,2.2,0.3v1.8
		c-0.3-0.1-1-0.3-1.6-0.3c-1.9,0-3,0.6-3,3.1v3.6H887.3z"/>
	<path d="M903.6,705.1v1.9h-5v9.2c0,2.5,1,3.1,3,3.1c0.6,0,1.5-0.1,1.6-0.3v1.8c-0.3,0.1-0.9,0.3-2.2,0.3c-2.7,0-4.6-1.3-4.6-4.7
		v-9.5h-2.5v-1.9h2.5v-4.4h2.1v4.4h5.2V705.1z"/>
	<path d="M920.3,719.1h0.1c3.4,0,4.9-2.1,4.9-5.9h2.2v0.3c0,4.9-2.4,7.6-7.3,7.6c-5.3,0-7.8-3.3-7.8-11.3v-1.2
		c0-8,2.5-11.3,7.8-11.3c4.9,0,7.3,2.7,7.3,7.8v0.9h-2.2c0-4.7-1.5-6.8-4.9-6.8h-0.1c-3.8,0-5.6,2.8-5.6,9.3v1.2
		C914.7,716.3,916.4,719.1,920.3,719.1z"/>
	<path d="M930.5,713.2v-0.7c0-4.3,1.9-7.8,6.7-7.8c4.7,0,6.7,3.4,6.7,7.8v0.7c0,4.3-1.9,7.8-6.7,7.8
		C932.4,721.1,930.5,717.6,930.5,713.2z M941.6,713.2v-0.7c0-3.6-1.3-5.9-4.4-5.9c-3.1,0-4.4,2.4-4.4,5.9v0.7c0,3.6,1.3,5.9,4.4,5.9
		C940.3,719.1,941.6,716.8,941.6,713.2z"/>
	<path d="M946.6,713.2v-0.7c0-4.3,1.9-7.8,6.7-7.8c4.6,0,6.7,3.4,6.7,7.8v0.7c0,4.3-1.9,7.8-6.7,7.8S946.6,717.6,946.6,713.2z
		 M957.7,713.2v-0.7c0-3.6-1.3-5.9-4.4-5.9s-4.4,2.4-4.4,5.9v0.7c0,3.6,1.3,5.9,4.4,5.9S957.7,716.8,957.7,713.2z"/>
	<path d="M965.3,719v7.7h-2.1v-17.2l-0.1-4.4h1.8l0.3,2.1c0.9-1.3,2.2-2.5,4.7-2.5c4.3,0,6.1,3.4,6.1,7.8v0.7c0,4.3-1.8,7.8-6.1,7.8
		C967.5,721.1,966.2,720.2,965.3,719z M965.3,716.8c0.6,1,1.8,2.4,4,2.4c3,0,4.3-2.4,4.3-5.9v-0.7c0-3.7-1.3-5.9-4.3-5.9
		c-2.1,0-3.4,1.3-4,2.4V716.8z"/>
	<path d="M980.7,713.8c0.1,3.4,1.5,5.6,4.7,5.6c3.1,0,4.4-1.9,4.4-3.6h1.9v0.1c0,2.4-2.1,5.2-6.4,5.2c-4.7,0-6.8-3.6-6.8-7.8v-0.6
		c0-4.3,2.1-7.8,6.7-7.8s6.5,3.6,6.5,7.8v1.2h-11.1V713.8z M980.7,712h9c-0.1-3.4-1.5-5.6-4.4-5.6
		C982.3,706.4,980.8,708.6,980.7,712z"/>
	<path d="M1001.9,704.8v1.9h-0.4c-2.4,0-3.6,1.3-4.1,2.4v11.7h-2.1v-11.3l-0.1-4.4h1.8l0.3,2.1c0.9-1.3,2.2-2.4,4.4-2.4
		C1001.7,704.8,1001.9,704.8,1001.9,704.8z"/>
	<path d="M1025.6,697.7v23.1h-2.1V710h-10.2v10.8h-2.1v-23.1h2.1V708h10.2v-10.4H1025.6z"/>
	<path d="M1031.2,713.8c0.1,3.4,1.5,5.6,4.7,5.6c3.1,0,4.4-1.9,4.4-3.6h1.9v0.1c0,2.4-2.1,5.2-6.4,5.2c-4.7,0-6.8-3.6-6.8-7.8v-0.6
		c0-4.3,2.1-7.8,6.7-7.8s6.5,3.6,6.5,7.8v1.2h-11.1V713.8z M1031.2,712h9c-0.1-3.4-1.5-5.6-4.4-5.6
		C1032.8,706.4,1031.3,708.6,1031.2,712z"/>
	<path d="M1050.4,720.8h-2.7l-3.4-15.7h2.1l2.7,13.5l3.7-13.5h2.5l3.7,13.5l2.7-13.5h2.1l-3.4,15.7h-2.8l-3.6-13.3L1050.4,720.8z"/>
	<path d="M1069.2,701.4h-2.7v-2.7h2.7V701.4z M1066.9,705.1h2.1v15.7h-2.1V705.1z"/>
	<path d="M1081.5,705.1v1.9h-5v9.2c0,2.5,1,3.1,3,3.1c0.6,0,1.5-0.1,1.6-0.3v1.8c-0.3,0.1-0.9,0.3-2.2,0.3c-2.7,0-4.6-1.3-4.6-4.7
		v-9.5h-2.5v-1.9h2.5v-4.4h2.1v4.4h5.2V705.1z"/>
	<path d="M1093.4,705.1v1.9h-5v9.2c0,2.5,1,3.1,3,3.1c0.6,0,1.5-0.1,1.6-0.3v1.8c-0.3,0.1-0.9,0.3-2.2,0.3c-2.7,0-4.6-1.3-4.6-4.7
		v-9.5h-2.5v-1.9h2.5v-4.4h2.1v4.4h5.2V705.1z"/>
	<path d="M1104.2,713.8c0.1,3.4,1.5,5.6,4.7,5.6s4.4-1.9,4.4-3.6h1.9v0.1c0,2.4-2.1,5.2-6.4,5.2c-4.7,0-6.8-3.6-6.8-7.8v-0.6
		c0-4.3,2.1-7.8,6.7-7.8s6.5,3.6,6.5,7.8v1.2h-11.1V713.8z M1104.2,712h9c-0.1-3.4-1.5-5.6-4.4-5.6
		C1105.8,706.4,1104.3,708.6,1104.2,712z"/>
	<path d="M1128.6,720.8v-10.7c0-2.4-1.3-3.4-3.4-3.4c-2.5,0-3.7,1.3-4.3,2.4v11.7h-2.1v-11.3l-0.1-4.4h1.8l0.3,2.2
		c0.9-1.3,2.5-2.5,5.3-2.5c3.1,0,4.7,2.1,4.7,5v11L1128.6,720.8L1128.6,720.8z"/>
	<path d="M1142.5,705.1v1.9h-5v9.2c0,2.5,1,3.1,3,3.1c0.6,0,1.5-0.1,1.6-0.3v1.8c-0.3,0.1-0.9,0.3-2.2,0.3c-2.7,0-4.6-1.3-4.6-4.7
		v-9.5h-2.5v-1.9h2.5v-4.4h2.1v4.4h5.2V705.1z"/>
	<path d="M1155.6,716.5c0-2.1-1.2-2.7-4.3-3c-4.3-0.3-5.5-1.8-5.5-4.1v-0.1c0-2.7,2.2-4.4,5.8-4.4c4.3,0,5.9,2.2,5.9,5.3v0.1h-2.1
		c0-2.2-0.9-3.7-3.8-3.7c-2.4,0-3.7,1-3.7,2.7s0.7,2.5,4.1,2.8c4,0.3,5.6,1.5,5.6,4.3v0.1c0,2.7-2.2,4.6-6.1,4.6
		c-4.4,0-6.1-2.7-6.1-5v-0.1h2.1c0,1.8,0.9,3.4,4,3.4C1154.2,719.3,1155.6,718.2,1155.6,716.5z"/>
	<path d="M1169.5,705.1v1.9h-5v9.2c0,2.5,1,3.1,3,3.1c0.6,0,1.5-0.1,1.6-0.3v1.8c-0.3,0.1-0.9,0.3-2.2,0.3c-2.7,0-4.6-1.3-4.6-4.7
		v-9.5h-2.5v-1.9h2.5v-4.4h2.1v4.4h5.2V705.1z"/>
	<path d="M1182.2,718.5c-1,1.3-2.8,2.5-5.5,2.5c-2.8,0-4.6-1.8-4.6-4.3v-0.3c0-3.4,2.5-4.4,5.2-4.7l4.7-0.7v-0.4
		c0-2.7-0.9-4.1-3.7-4.1c-3,0-3.7,1.8-3.7,3.7h-1.9v-0.3c0-2.4,1-5.2,5.6-5.2c4.3,0,5.6,2.4,5.6,5.8v5.8l0.1,4.4h-1.8L1182.2,718.5z
		 M1182.1,716.8v-4.3l-4.6,0.7c-2.1,0.3-3.3,1.3-3.3,3.1v0.3c0,1.3,0.9,2.7,3,2.7C1180.1,719.3,1181.5,717.6,1182.1,716.8z"/>
	<path d="M1197.7,720.8v-10.7c0-2.4-1.3-3.4-3.4-3.4c-2.5,0-3.7,1.3-4.3,2.4v11.7h-2.1v-11.3l-0.1-4.4h1.8l0.3,2.2
		c0.9-1.3,2.5-2.5,5.3-2.5c3.1,0,4.7,2.1,4.7,5v11L1197.7,720.8L1197.7,720.8z"/>
	<path d="M1213.6,706.8v-9.8h2.1v19.2l0.1,4.4h-1.8l-0.3-2.1c-0.7,1.3-2.2,2.4-4.6,2.4c-4.3,0-6.1-3.4-6.1-7.8v-0.7
		c0-4.3,1.8-7.8,6.1-7.8C1211.4,704.8,1212.7,705.7,1213.6,706.8z M1213.6,716.8v-7.7c-0.6-1-1.9-2.4-4-2.4c-3,0-4.3,2.4-4.3,5.9
		v0.7c0,3.7,1.3,5.9,4.3,5.9C1211.8,719.1,1213,717.8,1213.6,716.8z"/>
	<path d="M1222.2,720.2c0,2.7-1.2,4-3.4,4V723c1.2,0,1.9-0.6,2.1-2.2h-1.3v-2.7h2.7V720.2z"/>
	<path d="M1233.9,705.1v10.7c0,2.4,1.3,3.4,3.4,3.4c2.5,0,3.7-1.3,4.3-2.4v-11.7h2.1v11.3l0.1,4.4h-1.8l-0.3-2.2
		c-0.9,1.3-2.5,2.5-5.2,2.5c-3.1,0-4.7-2.1-4.7-5v-11L1233.9,705.1L1233.9,705.1z"/>
	<path d="M1265.6,720.8v-11.1c0-2.4-1.2-3.1-3-3.1c-2.2,0-3.3,1.3-3.8,2.4v11.8h-2.1v-11.1c0-2.4-1.2-3.1-3-3.1
		c-2.2,0-3.3,1.3-3.8,2.4v11.8h-2.1v-11.3l-0.1-4.4h1.8l0.3,2.1c0.9-1.3,2.4-2.5,4.9-2.5c2.1,0,3.4,0.9,4,2.7
		c0.9-1.5,2.4-2.7,4.9-2.7c2.8,0,4.4,1.6,4.4,4.6v11.4h-2.4V720.8z"/>
	<path d="M1287.3,706.8v-9.8h2.1v19.2l0.1,4.4h-1.8l-0.3-2.1c-0.7,1.3-2.2,2.4-4.6,2.4c-4.3,0-6.1-3.4-6.1-7.8v-0.7
		c0-4.3,1.8-7.8,6.1-7.8C1285.1,704.8,1286.4,705.7,1287.3,706.8z M1287.3,716.8v-7.7c-0.6-1-1.9-2.4-4-2.4c-3,0-4.3,2.4-4.3,5.9
		v0.7c0,3.7,1.3,5.9,4.3,5.9C1285.4,719.1,1286.7,717.8,1287.3,716.8z"/>
	<path d="M1295.9,701.4h-2.7v-2.7h2.7V701.4z M1293.5,705.1h2.1v15.7h-2.1V705.1z"/>
	<path d="M1301.2,713.8c0.1,3.4,1.5,5.6,4.7,5.6c3.1,0,4.4-1.9,4.4-3.6h1.9v0.1c0,2.4-2.1,5.2-6.4,5.2c-4.7,0-6.8-3.6-6.8-7.8v-0.6
		c0-4.3,2.1-7.8,6.7-7.8s6.5,3.6,6.5,7.8v1.2h-11.1V713.8z M1301.2,712h9c-0.1-3.4-1.5-5.6-4.4-5.6
		C1302.9,706.4,1301.4,708.6,1301.2,712z"/>
	<path d="M1334.8,697.7v1.9H1324v8.4h9.3v1.9h-9.3v8.9h10.8v1.9H1322v-23.1H1334.8z"/>
	<path d="M1339.1,705.1l4,6.4l4-6.4h2.5l-4.9,7.7l4.9,8h-2.5l-4-6.7l-4,6.7h-2.5l4.9-8l-4.9-7.7H1339.1z"/>
	<path d="M1354.4,719v7.7h-2.1v-17.2l-0.1-4.4h1.8l0.3,2.1c0.9-1.3,2.2-2.5,4.7-2.5c4.3,0,6.1,3.4,6.1,7.8v0.7
		c0,4.3-1.8,7.8-6.1,7.8C1356.6,721.1,1355.3,720.2,1354.4,719z M1354.4,716.8c0.6,1,1.8,2.4,4,2.4c3,0,4.3-2.4,4.3-5.9v-0.7
		c0-3.7-1.3-5.9-4.3-5.9c-2.1,0-3.4,1.3-4,2.4V716.8z"/>
	<path d="M1377.6,718.5c-1,1.3-2.8,2.5-5.5,2.5c-2.8,0-4.6-1.8-4.6-4.3v-0.3c0-3.4,2.5-4.4,5.2-4.7l4.7-0.7v-0.4
		c0-2.7-0.9-4.1-3.7-4.1c-3,0-3.7,1.8-3.7,3.7h-1.9v-0.3c0-2.4,1-5.2,5.6-5.2c4.3,0,5.6,2.4,5.6,5.8v5.8l0.1,4.4h-1.8L1377.6,718.5z
		 M1377.5,716.8v-4.3l-4.6,0.7c-2.1,0.3-3.3,1.3-3.3,3.1v0.3c0,1.3,0.9,2.7,3,2.7C1375.6,719.3,1376.9,717.6,1377.5,716.8z"/>
	<path d="M1393.2,720.8v-10.7c0-2.4-1.3-3.4-3.4-3.4c-2.5,0-3.7,1.3-4.3,2.4v11.7h-2.1v-11.3l-0.1-4.4h1.8l0.3,2.2
		c0.9-1.3,2.5-2.5,5.3-2.5c3.1,0,4.7,2.1,4.7,5v11L1393.2,720.8L1393.2,720.8z"/>
	<path d="M1408.7,716.5c0-2.1-1.2-2.7-4.3-3c-4.3-0.3-5.5-1.8-5.5-4.1v-0.1c0-2.7,2.2-4.4,5.8-4.4c4.3,0,5.9,2.2,5.9,5.3v0.1h-2.1
		c0-2.2-0.9-3.7-3.8-3.7c-2.4,0-3.7,1-3.7,2.7s0.7,2.5,4.1,2.8c4,0.3,5.6,1.5,5.6,4.3v0.1c0,2.7-2.2,4.6-6.1,4.6
		c-4.4,0-6.1-2.7-6.1-5v-0.1h2.1c0,1.8,0.9,3.4,4,3.4C1407.4,719.3,1408.7,718.2,1408.7,716.5z"/>
	<path d="M1417,701.4h-2.7v-2.7h2.7V701.4z M1414.7,705.1h2.1v15.7h-2.1V705.1z"/>
	<path d="M1420.1,709.4h7.4v1.9h-7.4V709.4z"/>
	<path d="M770.8,754.7v-0.7c0-4.3,1.9-7.8,6.7-7.8c4.6,0,6.7,3.4,6.7,7.8v0.7c0,4.3-1.9,7.8-6.7,7.8
		C772.7,762.5,770.8,759.1,770.8,754.7z M781.9,754.7v-0.7c0-3.6-1.3-5.9-4.4-5.9s-4.4,2.4-4.4,5.9v0.7c0,3.6,1.3,5.9,4.4,5.9
		S781.9,758.2,781.9,754.7z"/>
	<path d="M797.1,762.2v-10.7c0-2.4-1.3-3.4-3.4-3.4c-2.5,0-3.7,1.3-4.3,2.4v11.7h-2.1V751l-0.1-4.4h1.8l0.3,2.2
		c0.9-1.3,2.5-2.5,5.3-2.5c3.1,0,4.7,2.1,4.7,5v11L797.1,762.2L797.1,762.2z"/>
	<path d="M810.7,746.5v10.7c0,2.4,1.3,3.4,3.4,3.4c2.5,0,3.7-1.3,4.3-2.4v-11.7h2.1v11.3l0.1,4.4h-1.8l-0.3-2.2
		c-0.9,1.3-2.5,2.5-5.2,2.5c-3.1,0-4.7-2.1-4.7-5v-11L810.7,746.5L810.7,746.5z"/>
	<path d="M834.3,762.2v-10.7c0-2.4-1.3-3.4-3.4-3.4c-2.5,0-3.7,1.3-4.3,2.4v11.7h-2.1V751l-0.1-4.4h1.8l0.3,2.2
		c0.9-1.3,2.5-2.5,5.3-2.5c3.1,0,4.7,2.1,4.7,5v11L834.3,762.2L834.3,762.2z"/>
	<path d="M850.1,748.3v-9.8h2.1v19.2l0.1,4.4h-1.8l-0.3-2.1c-0.7,1.3-2.2,2.4-4.6,2.4c-4.3,0-6.1-3.4-6.1-7.8v-0.7
		c0-4.3,1.8-7.8,6.1-7.8C847.9,746.2,849.4,747.1,850.1,748.3z M850.1,758.2v-7.7c-0.6-1-1.9-2.4-4-2.4c-3,0-4.3,2.4-4.3,5.9v0.7
		c0,3.7,1.3,5.9,4.3,5.9C848.3,760.6,849.5,759.3,850.1,758.2z"/>
	<path d="M872,748.3v-9.8h2.1v19.2l0.1,4.4h-1.8l-0.3-2.1c-0.7,1.3-2.2,2.4-4.6,2.4c-4.3,0-6.1-3.4-6.1-7.8v-0.7
		c0-4.3,1.8-7.8,6.1-7.8C869.8,746.2,871.3,747.1,872,748.3z M872,758.2v-7.7c-0.6-1-1.9-2.4-4-2.4c-3,0-4.3,2.4-4.3,5.9v0.7
		c0,3.7,1.3,5.9,4.3,5.9C870.2,760.6,871.4,759.3,872,758.2z"/>
	<path d="M887.6,760c-1,1.3-2.8,2.5-5.5,2.5c-2.8,0-4.6-1.8-4.6-4.3v-0.3c0-3.4,2.5-4.4,5.2-4.7l4.7-0.7V752c0-2.7-0.9-4.1-3.7-4.1
		c-3,0-3.7,1.8-3.7,3.7h-1.9v-0.3c0-2.4,1-5.2,5.6-5.2c4.3,0,5.6,2.4,5.6,5.8v5.8l0.1,4.4h-1.8L887.6,760z M887.3,758.2v-4.3
		l-4.6,0.7c-2.1,0.3-3.3,1.3-3.3,3.1v0.3c0,1.3,0.9,2.7,3,2.7C885.3,760.7,886.7,759.1,887.3,758.2z"/>
	<path d="M903,757.9c0-2.1-1.2-2.7-4.3-3c-4.3-0.3-5.5-1.8-5.5-4.1v-0.1c0-2.7,2.2-4.4,5.8-4.4c4.3,0,5.9,2.2,5.9,5.3v0.1h-2.1
		c0-2.2-0.9-3.7-3.8-3.7c-2.4,0-3.7,1-3.7,2.7s0.7,2.5,4.1,2.8c4,0.3,5.6,1.5,5.6,4.3v0.1c0,2.7-2.2,4.6-6.1,4.6
		c-4.4,0-6.1-2.7-6.1-5v-0.1h2.1c0,1.8,0.9,3.4,4,3.4C901.5,760.7,903,759.7,903,757.9z"/>
	<path d="M924.6,748.3v-9.8h2.1v19.2l0.1,4.4H925l-0.3-2.1c-0.7,1.3-2.2,2.4-4.6,2.4c-4.3,0-6.1-3.4-6.1-7.8v-0.7
		c0-4.3,1.8-7.8,6.1-7.8C922.4,746.2,923.7,747.1,924.6,748.3z M924.6,758.2v-7.7c-0.6-1-1.9-2.4-4-2.4c-3,0-4.3,2.4-4.3,5.9v0.7
		c0,3.7,1.3,5.9,4.3,5.9C922.8,760.6,924,759.3,924.6,758.2z"/>
	<path d="M940,760c-1,1.3-2.8,2.5-5.5,2.5c-2.8,0-4.6-1.8-4.6-4.3v-0.3c0-3.4,2.5-4.4,5.2-4.7l4.7-0.7V752c0-2.7-0.9-4.1-3.7-4.1
		c-3,0-3.7,1.8-3.7,3.7h-1.9v-0.3c0-2.4,1-5.2,5.6-5.2c4.3,0,5.6,2.4,5.6,5.8v5.8l0.1,4.4h-1.8L940,760z M939.8,758.2v-4.3l-4.6,0.7
		c-2.1,0.3-3.3,1.3-3.3,3.1v0.3c0,1.3,0.9,2.7,3,2.7C937.9,760.7,939.2,759.1,939.8,758.2z"/>
	<path d="M963.8,762.2v-11.1c0-2.4-1.2-3.1-3-3.1c-2.2,0-3.3,1.3-3.8,2.4v11.8h-2.1v-11.1c0-2.4-1.2-3.1-3-3.1
		c-2.2,0-3.3,1.3-3.8,2.4v11.8h-2.1V751l-0.1-4.4h1.8l0.3,2.1c0.9-1.3,2.4-2.5,4.9-2.5c2.1,0,3.4,0.9,4,2.7c0.9-1.5,2.4-2.7,4.9-2.7
		c2.8,0,4.4,1.6,4.4,4.6v11.4h-2.4V762.2z"/>
	<path d="M972.1,742.8h-2.7v-2.7h2.7V742.8z M969.7,746.5h2.1v15.7h-2.1V746.5z"/>
	<path d="M984.5,746.5v1.9h-5v9.2c0,2.5,1,3.1,3,3.1c0.6,0,1.5-0.1,1.6-0.3v1.8c-0.3,0.1-0.9,0.3-2.2,0.3c-2.7,0-4.6-1.3-4.6-4.7
		v-9.5h-2.4v-1.9h2.5v-4.4h2.1v4.4h5V746.5z"/>
	<path d="M995.4,755.3c0.1,3.4,1.5,5.6,4.7,5.6s4.4-1.9,4.4-3.6h1.9v0.1c0,2.4-2.1,5.2-6.4,5.2c-4.7,0-6.8-3.6-6.8-7.8v-0.6
		c0-4.3,2.1-7.8,6.7-7.8s6.5,3.6,6.5,7.8v1.2h-11.1V755.3z M995.4,753.5h9c-0.1-3.4-1.5-5.6-4.4-5.6
		C996.8,747.9,995.4,750.1,995.4,753.5z"/>
	<path d="M1012.4,742.8h-2.7v-2.7h2.7V742.8z M1010,746.5h2.1v15.7h-2.1V746.5z"/>
	<path d="M1026,762.2v-10.7c0-2.4-1.3-3.4-3.4-3.4c-2.5,0-3.7,1.3-4.3,2.4v11.7h-2.1V751l-0.1-4.4h1.8l0.3,2.2
		c0.9-1.3,2.5-2.5,5.3-2.5c3.1,0,4.7,2.1,4.7,5v11L1026,762.2L1026,762.2z"/>
	<path d="M1034,748.4c0.9-1.2,2.5-2.2,5-2.2c3.1,0,4.7,2.1,4.7,5v11h-2.1v-10.7c0-2.4-1.3-3.4-3.4-3.4c-2.5,0-3.7,1.3-4.3,2.4v11.7
		h-2.1v-23.7h2.1L1034,748.4L1034,748.4z"/>
	<path d="M1049.1,755.3c0.1,3.4,1.5,5.6,4.7,5.6c3.1,0,4.4-1.9,4.4-3.6h1.9v0.1c0,2.4-2.1,5.2-6.4,5.2c-4.7,0-6.8-3.6-6.8-7.8v-0.6
		c0-4.3,2.1-7.8,6.7-7.8s6.5,3.6,6.5,7.8v1.2h-11.1V755.3z M1049.1,753.5h9c-0.1-3.4-1.5-5.6-4.4-5.6
		C1050.7,747.9,1049.2,750.1,1049.1,753.5z"/>
	<path d="M1070.3,746.2v1.9h-0.4c-2.4,0-3.6,1.3-4.1,2.4v11.7h-2.1V751l-0.1-4.4h1.8l0.3,2.1c0.9-1.3,2.2-2.4,4.4-2.4
		C1070,746.2,1070.3,746.2,1070.3,746.2z"/>
	<path d="M1082.7,759.3c-0.9,1.2-2.2,2.1-4.4,2.1c-4.3,0-6.1-3.3-6.1-7.3v-0.6c0-4,1.8-7.3,6.1-7.3c2.4,0,3.8,1,4.7,2.4l0.3-2.1h1.8
		l-0.1,4.4v11.4c0,3.6-1.6,6.1-6.2,6.1s-6.1-2.7-6.1-5.9v-0.4h1.9c0,3,1.2,4.4,4,4.4c3,0,4.1-1.5,4.1-4.4V759.3z M1078.7,748
		c-3,0-4.3,2.2-4.3,5.5v0.6c0,3.3,1.5,5.5,4.3,5.5c2.2,0,3.4-1.3,4-2.4v-6.7C1082.1,749.5,1080.9,748,1078.7,748z"/>
	<path d="M1090.3,755.3c0.1,3.4,1.5,5.6,4.7,5.6c3.1,0,4.4-1.9,4.4-3.6h1.9v0.1c0,2.4-2.1,5.2-6.4,5.2c-4.7,0-6.8-3.6-6.8-7.8v-0.6
		c0-4.3,2.1-7.8,6.7-7.8s6.5,3.6,6.5,7.8v1.2h-11.1V755.3z M1090.3,753.5h9c-0.1-3.4-1.5-5.6-4.4-5.6
		C1091.7,747.9,1090.4,750.1,1090.3,753.5z"/>
	<path d="M1106.8,748.4c0.9-1.2,2.5-2.2,5-2.2c3.1,0,4.7,2.1,4.7,5v11h-2.1v-10.7c0-2.4-1.3-3.4-3.4-3.4c-2.5,0-3.7,1.3-4.3,2.4
		v11.7h-2.1v-23.7h2.1L1106.8,748.4L1106.8,748.4z"/>
	<path d="M1121.9,755.3c0.1,3.4,1.5,5.6,4.7,5.6c3.1,0,4.4-1.9,4.4-3.6h1.9v0.1c0,2.4-2.1,5.2-6.4,5.2c-4.7,0-6.8-3.6-6.8-7.8v-0.6
		c0-4.3,2.1-7.8,6.7-7.8s6.5,3.6,6.5,7.8v1.2h-11.1V755.3z M1121.9,753.5h9c-0.1-3.4-1.5-5.6-4.4-5.6
		C1123.6,747.9,1122.1,750.1,1121.9,753.5z"/>
	<path d="M1146.4,762.2v-10.7c0-2.4-1.3-3.4-3.4-3.4c-2.5,0-3.7,1.3-4.3,2.4v11.7h-2.1V751l-0.1-4.4h1.8l0.3,2.2
		c0.9-1.3,2.5-2.5,5.3-2.5c3.1,0,4.7,2.1,4.7,5v11L1146.4,762.2L1146.4,762.2z"/>
	<path d="M1162.2,748.3v-9.8h2.1v19.2l0.1,4.4h-1.8l-0.3-2.1c-0.7,1.3-2.2,2.4-4.6,2.4c-4.3,0-6.1-3.4-6.1-7.8v-0.7
		c0-4.3,1.8-7.8,6.1-7.8C1160,746.2,1161.3,747.1,1162.2,748.3z M1162.2,758.2v-7.7c-0.6-1-1.9-2.4-4-2.4c-3,0-4.3,2.4-4.3,5.9v0.7
		c0,3.7,1.3,5.9,4.3,5.9C1160.3,760.6,1161.5,759.3,1162.2,758.2z"/>
	<path d="M1169.8,755.3c0.1,3.4,1.5,5.6,4.7,5.6c3.1,0,4.4-1.9,4.4-3.6h1.9v0.1c0,2.4-2.1,5.2-6.4,5.2c-4.7,0-6.8-3.6-6.8-7.8v-0.6
		c0-4.3,2.1-7.8,6.7-7.8s6.5,3.6,6.5,7.8v1.2h-11.1V755.3z M1169.8,753.5h9c-0.1-3.4-1.5-5.6-4.4-5.6
		C1171.2,747.9,1169.8,750.1,1169.8,753.5z"/>
	<path d="M1192.6,762.2h-2.1v-23.1h6.4c3.3,0,7.1,1.2,7.1,6.5v0.6c0,3.7-1.8,5.3-4,6.1l4,9.8h-2.4l-3.7-9.5c-0.3,0-0.7,0-1,0h-4.3
		L1192.6,762.2L1192.6,762.2z M1196.9,750.8c1.9,0,4.9-0.7,4.9-4.7v-0.3c0-4-2.8-4.7-4.9-4.7h-4.3v9.9h4.3V750.8z"/>
	<path d="M1209,755.3c0.1,3.4,1.5,5.6,4.7,5.6c3.1,0,4.4-1.9,4.4-3.6h1.9v0.1c0,2.4-2.1,5.2-6.4,5.2c-4.7,0-6.8-3.6-6.8-7.8v-0.6
		c0-4.3,2.1-7.8,6.7-7.8s6.5,3.6,6.5,7.8v1.2H1209V755.3z M1209,753.5h9c-0.1-3.4-1.5-5.6-4.4-5.6
		C1210.6,747.9,1209.1,750.1,1209,753.5z"/>
	<path d="M1225.6,748.3c0.9-1.2,2.2-2.1,4.4-2.1c4.3,0,6.1,3.4,6.1,7.8v0.7c0,4.3-1.8,7.8-6.1,7.8c-2.4,0-3.8-1-4.7-2.5l-0.3,2.1
		h-1.8l0.1-4.4v-19.2h2.1v9.8H1225.6z M1225.6,758.2c0.6,1,1.8,2.4,4,2.4c3,0,4.3-2.4,4.3-5.9v-0.7c0-3.7-1.3-5.9-4.3-5.9
		c-2.1,0-3.4,1.3-4,2.4V758.2z"/>
	<path d="M1246.2,746.2v1.9h-0.4c-2.4,0-3.6,1.3-4.1,2.4v11.7h-2.1V751l-0.1-4.4h1.8l0.3,2.1c0.9-1.3,2.2-2.4,4.4-2.4
		C1245.9,746.2,1246.2,746.2,1246.2,746.2z"/>
	<path d="M1258,760c-1,1.3-2.8,2.5-5.5,2.5c-2.8,0-4.6-1.8-4.6-4.3v-0.3c0-3.4,2.5-4.4,5.2-4.7l4.7-0.7V752c0-2.7-0.9-4.1-3.7-4.1
		c-3,0-3.7,1.8-3.7,3.7h-1.9v-0.3c0-2.4,1-5.2,5.6-5.2c4.3,0,5.6,2.4,5.6,5.8v5.8l0.1,4.4h-1.8L1258,760z M1257.9,758.2v-4.3
		l-4.6,0.7c-2.1,0.3-3.3,1.3-3.3,3.1v0.3c0,1.3,0.9,2.7,3,2.7C1255.9,760.7,1257.3,759.1,1257.9,758.2z"/>
	<path d="M1273.6,762.2v-10.7c0-2.4-1.3-3.4-3.4-3.4c-2.5,0-3.7,1.3-4.3,2.4v11.7h-2.1V751l-0.1-4.4h1.8l0.3,2.2
		c0.9-1.3,2.5-2.5,5.3-2.5c3.1,0,4.7,2.1,4.7,5v11L1273.6,762.2L1273.6,762.2z"/>
	<path d="M1289.4,748.3v-9.8h2.1v19.2l0.1,4.4h-1.8l-0.3-2.1c-0.7,1.3-2.2,2.4-4.6,2.4c-4.3,0-6.1-3.4-6.1-7.8v-0.7
		c0-4.3,1.8-7.8,6.1-7.8C1287.2,746.2,1288.5,747.1,1289.4,748.3z M1289.4,758.2v-7.7c-0.6-1-1.9-2.4-4-2.4c-3,0-4.3,2.4-4.3,5.9
		v0.7c0,3.7,1.3,5.9,4.3,5.9C1287.6,760.6,1288.8,759.3,1289.4,758.2z"/>
	<path d="M1298,742.8h-2.7v-2.7h2.7V742.8z M1295.6,746.5h2.1v15.7h-2.1V746.5z"/>
	<path d="M1311.6,762.2v-10.7c0-2.4-1.3-3.4-3.4-3.4c-2.5,0-3.7,1.3-4.3,2.4v11.7h-2.1V751l-0.1-4.4h1.8l0.3,2.2
		c0.9-1.3,2.5-2.5,5.3-2.5c3.1,0,4.7,2.1,4.7,5v11L1311.6,762.2L1311.6,762.2z"/>
	<path d="M1327.4,759.3c-0.9,1.2-2.2,2.1-4.4,2.1c-4.3,0-6.1-3.3-6.1-7.3v-0.6c0-4,1.8-7.3,6.1-7.3c2.4,0,3.8,1,4.7,2.4l0.3-2.1h1.8
		l-0.1,4.4v11.4c0,3.6-1.6,6.1-6.2,6.1s-6.1-2.7-6.1-5.9v-0.4h1.9c0,3,1.2,4.4,4,4.4c3,0,4.1-1.5,4.1-4.4V759.3z M1323.4,748
		c-3,0-4.3,2.2-4.3,5.5v0.6c0,3.3,1.5,5.5,4.3,5.5c2.2,0,3.4-1.3,4-2.4v-6.7C1326.7,749.5,1325.5,748,1323.4,748z"/>
	<path d="M1349.2,748.3v-9.8h2.1v19.2l0.1,4.4h-1.8l-0.3-2.1c-0.7,1.3-2.2,2.4-4.6,2.4c-4.3,0-6.1-3.4-6.1-7.8v-0.7
		c0-4.3,1.8-7.8,6.1-7.8C1347,746.2,1348.5,747.1,1349.2,748.3z M1349.2,758.2v-7.7c-0.6-1-1.9-2.4-4-2.4c-3,0-4.3,2.4-4.3,5.9v0.7
		c0,3.7,1.3,5.9,4.3,5.9C1347.4,760.6,1348.6,759.3,1349.2,758.2z"/>
	<path d="M1356.9,755.3c0.1,3.4,1.5,5.6,4.7,5.6c3.1,0,4.4-1.9,4.4-3.6h1.9v0.1c0,2.4-2.1,5.2-6.4,5.2c-4.7,0-6.8-3.6-6.8-7.8v-0.6
		c0-4.3,2.1-7.8,6.7-7.8s6.5,3.6,6.5,7.8v1.2h-11.1V755.3z M1356.9,753.5h9c-0.1-3.4-1.5-5.6-4.4-5.6
		C1358.4,747.9,1356.9,750.1,1356.9,753.5z"/>
	<path d="M1381,757.9c0-2.1-1.2-2.7-4.3-3c-4.3-0.3-5.5-1.8-5.5-4.1v-0.1c0-2.7,2.2-4.4,5.8-4.4c4.3,0,5.9,2.2,5.9,5.3v0.1h-2.1
		c0-2.2-0.9-3.7-3.8-3.7c-2.4,0-3.7,1-3.7,2.7s0.7,2.5,4.1,2.8c4,0.3,5.6,1.5,5.6,4.3v0.1c0,2.7-2.2,4.6-6.1,4.6
		c-4.4,0-6.1-2.7-6.1-5v-0.1h2.1c0,1.8,0.9,3.4,4,3.4C1379.7,760.7,1381,759.7,1381,757.9z"/>
	<path d="M782.2,803.7h-1.9l-6.7-19.4l0.1,5.2v14.2h-2.1v-23.1h3l6.7,19.4l6.7-19.4h3v23.1h-2.1v-14.2l0.1-5.2L782.2,803.7z"/>
	<path d="M797,788v10.7c0,2.4,1.3,3.4,3.4,3.4c2.5,0,3.7-1.3,4.3-2.4V788h2.1v11.3l0.1,4.4h-1.8l-0.3-2.2c-0.9,1.3-2.5,2.5-5.2,2.5
		c-3.1,0-4.7-2.1-4.7-5v-11L797,788L797,788z"/>
	<path d="M820.4,799.4c0-2.1-1.2-2.7-4.3-3c-4.3-0.3-5.5-1.8-5.5-4.1v-0.1c0-2.7,2.2-4.4,5.8-4.4c4.3,0,5.9,2.2,5.9,5.3v0.1h-2.1
		c0-2.2-0.9-3.7-3.8-3.7c-2.4,0-3.7,1-3.7,2.7s0.7,2.5,4.1,2.8c4,0.3,5.6,1.5,5.6,4.3v0.1c0,2.7-2.2,4.6-6.1,4.6
		c-4.4,0-6.1-2.7-6.1-5v-0.1h2.1c0,1.8,0.9,3.4,4,3.4C819,802.2,820.4,801.2,820.4,799.4z"/>
	<path d="M827.8,796.7c0.1,3.4,1.5,5.6,4.7,5.6s4.4-1.9,4.4-3.6h1.9v0.1c0,2.4-2.1,5.2-6.4,5.2c-4.7,0-6.8-3.6-6.8-7.8v-0.6
		c0-4.3,2.1-7.8,6.7-7.8s6.5,3.6,6.5,7.8v1.2h-11.1V796.7z M827.8,794.9h9c-0.1-3.4-1.5-5.6-4.4-5.6
		C829.2,789.3,827.8,791.5,827.8,794.9z"/>
	<path d="M844,788v10.7c0,2.4,1.3,3.4,3.4,3.4c2.5,0,3.7-1.3,4.3-2.4V788h2.1v11.3l0.1,4.4h-1.8l-0.3-2.2c-0.9,1.3-2.5,2.5-5.2,2.5
		c-3.1,0-4.7-2.1-4.7-5v-11L844,788L844,788z"/>
	<path d="M875.9,803.7v-11.1c0-2.4-1.2-3.1-3-3.1c-2.2,0-3.3,1.3-3.8,2.4v11.8h-2.2v-11.1c0-2.4-1.2-3.1-3-3.1
		c-2.2,0-3.3,1.3-3.8,2.4v11.8H858v-11.3l-0.1-4.4h1.8l0.3,2.1c0.9-1.3,2.4-2.5,4.9-2.5c2.1,0,3.4,0.9,4,2.7
		c0.9-1.5,2.4-2.7,4.9-2.7c2.8,0,4.4,1.6,4.4,4.6v11.4h-2.2V803.7z"/>
	<path d="M891.4,799.4c0-2.1-1.2-2.7-4.3-3c-4.3-0.3-5.5-1.8-5.5-4.1v-0.1c0-2.7,2.2-4.4,5.8-4.4c4.3,0,5.9,2.2,5.9,5.3v0.1h-2.1
		c0-2.2-0.9-3.7-3.8-3.7c-2.4,0-3.7,1-3.7,2.7s0.7,2.5,4.1,2.8c4,0.3,5.6,1.5,5.6,4.3v0.1c0,2.7-2.2,4.6-6.1,4.6
		c-4.4,0-6.1-2.7-6.1-5v-0.1h2.1c0,1.8,0.9,3.4,4,3.4C889.9,802.2,891.4,801.2,891.4,799.4z"/>
	<path d="M910.8,789.8h-3.6h-4.9v-1.9h11v1.5l-8.6,12.4h3.6h5.5v1.9h-11.5v-1.5L910.8,789.8z"/>
	<path d="M918.7,788v10.7c0,2.4,1.3,3.4,3.4,3.4c2.5,0,3.7-1.3,4.3-2.4V788h2.1v11.3l0.1,4.4h-1.8l-0.3-2.2
		c-0.9,1.3-2.5,2.5-5.2,2.5c-3.1,0-4.7-2.1-4.7-5v-11L918.7,788L918.7,788z"/>
	<path d="M940.4,789.8c0.9-1.2,2.2-2.1,4.4-2.1c4.3,0,6.1,3.4,6.1,7.8v0.7c0,4.3-1.8,7.8-6.1,7.8c-2.4,0-3.8-1-4.7-2.5l-0.3,2.1
		h-1.8l0.1-4.4V780h2.1v9.8H940.4z M940.4,799.7c0.6,1,1.8,2.4,4,2.4c3,0,4.3-2.4,4.3-5.9v-0.7c0-3.7-1.3-5.9-4.3-5.9
		c-2.1,0-3.4,1.3-4,2.4V799.7z"/>
	<path d="M955.8,796.7c0.1,3.4,1.5,5.6,4.7,5.6s4.4-1.9,4.4-3.6h1.9v0.1c0,2.4-2.1,5.2-6.4,5.2c-4.7,0-6.8-3.6-6.8-7.8v-0.6
		c0-4.3,2.1-7.8,6.7-7.8s6.5,3.6,6.5,7.8v1.2h-11.1V796.7z M955.8,794.9h9c-0.1-3.4-1.5-5.6-4.4-5.6
		C957.3,789.3,956,791.5,955.8,794.9z"/>
	<path d="M980.3,800.7c-0.9,1.2-2.2,2.1-4.4,2.1c-4.3,0-6.1-3.3-6.1-7.3v-0.6c0-4,1.8-7.3,6.1-7.3c2.4,0,3.8,1,4.7,2.4l0.3-2.1h1.8
		l-0.1,4.4v11.4c0,3.6-1.6,6.1-6.2,6.1c-4.6,0-6.1-2.7-6.1-5.9v-0.4h1.9c0,3,1.2,4.4,4,4.4c3,0,4.1-1.5,4.1-4.4L980.3,800.7
		L980.3,800.7z M976.3,789.5c-3,0-4.3,2.2-4.3,5.5v0.6c0,3.3,1.5,5.5,4.3,5.5c2.2,0,3.4-1.3,4-2.4V792
		C979.7,790.9,978.5,789.5,976.3,789.5z"/>
	<path d="M986.5,780h2.1v23.7h-2.1V780z"/>
	<path d="M994.2,796.7c0.1,3.4,1.5,5.6,4.7,5.6s4.4-1.9,4.4-3.6h1.9v0.1c0,2.4-2.1,5.2-6.4,5.2c-4.7,0-6.8-3.6-6.8-7.8v-0.6
		c0-4.3,2.1-7.8,6.7-7.8s6.5,3.6,6.5,7.8v1.2h-11.1V796.7z M994.2,794.9h9c-0.1-3.4-1.5-5.6-4.4-5.6S994.3,791.5,994.2,794.9z"/>
	<path d="M1011.3,784.3h-2.7v-2.7h2.7V784.3z M1009,788h2.1v15.7h-2.1V788z"/>
	<path d="M1023.6,788v1.9h-5v9.2c0,2.5,1,3.1,3,3.1c0.6,0,1.5-0.1,1.6-0.3v1.8c-0.3,0.1-0.9,0.3-2.2,0.3c-2.7,0-4.6-1.3-4.6-4.7
		v-9.5h-2.5v-1.9h2.5v-4.4h2.1v4.4h5.2V788z"/>
	<path d="M1028.5,796.7c0.1,3.4,1.5,5.6,4.7,5.6c3.1,0,4.4-1.9,4.4-3.6h1.9v0.1c0,2.4-2.1,5.2-6.4,5.2c-4.7,0-6.8-3.6-6.8-7.8v-0.6
		c0-4.3,2.1-7.8,6.7-7.8s6.5,3.6,6.5,7.8v1.2h-11.1V796.7z M1028.5,794.9h9c-0.1-3.4-1.5-5.6-4.4-5.6
		C1030.1,789.3,1028.7,791.5,1028.5,794.9z"/>
	<path d="M1052.9,803.7V793c0-2.4-1.3-3.4-3.4-3.4c-2.5,0-3.7,1.3-4.3,2.4v11.7h-2.1v-11.3l-0.1-4.4h1.8l0.3,2.2
		c0.9-1.3,2.5-2.5,5.3-2.5c3.1,0,4.7,2.1,4.7,5v11L1052.9,803.7L1052.9,803.7z"/>
	<path d="M1061.2,803.7h-2.7V801h2.7V803.7z"/>
	<path d="M1070.7,786.6v-0.3c0-3.8,2.8-6.2,7.3-6.2c5.2,0,7.3,2.7,7.3,7.4v0.7h-2.1c0-4.4-1.5-6.2-5-6.2h-0.1c-2.8,0-4.9,1.5-4.9,4
		v0.3c0,2.5,1.3,3.8,5.5,4.4c5,0.7,7.1,2.7,7.1,6.2v0.3c0,4.1-3,6.5-7.6,6.5c-4.9,0-7.6-2.8-7.6-7.6v-0.1h2.1c0,4,2.2,5.9,5.3,5.9
		h0.1c3.1,0,5.2-1.6,5.2-4.4v-0.3c0-2.7-1.6-4.1-5.8-4.6C1072.5,792,1070.7,789.8,1070.7,786.6z"/>
	<path d="M1091.4,784.3h-2.7v-2.7h2.7V784.3z M1089.1,788h2.1v15.7h-2.1V788z"/>
	<path d="M1096.8,796.7c0.1,3.4,1.5,5.6,4.7,5.6c3.1,0,4.4-1.9,4.4-3.6h1.9v0.1c0,2.4-2.1,5.2-6.4,5.2c-4.7,0-6.8-3.6-6.8-7.8v-0.6
		c0-4.3,2.1-7.8,6.7-7.8s6.5,3.6,6.5,7.8v1.2h-11.1V796.7z M1096.8,794.9h9c-0.1-3.4-1.5-5.6-4.4-5.6
		C1098.4,789.3,1096.9,791.5,1096.8,794.9z"/>
	<path d="M1119.9,784.3h-2.7v-2.7h2.7V784.3z M1117.5,788h2.1v15.7h-2.1V788z"/>
	<path d="M1133.3,799.4c0-2.1-1.2-2.7-4.3-3c-4.3-0.3-5.5-1.8-5.5-4.1v-0.1c0-2.7,2.2-4.4,5.8-4.4c4.3,0,5.9,2.2,5.9,5.3v0.1h-2.1
		c0-2.2-0.9-3.7-3.8-3.7c-2.4,0-3.7,1-3.7,2.7s0.7,2.5,4.1,2.8c4,0.3,5.6,1.5,5.6,4.3v0.1c0,2.7-2.2,4.6-6.1,4.6
		c-4.4,0-6.1-2.7-6.1-5v-0.1h2.1c0,1.8,0.9,3.4,4,3.4C1132,802.2,1133.3,801.2,1133.3,799.4z"/>
	<path d="M1147.3,788v1.9h-5v9.2c0,2.5,1,3.1,3,3.1c0.6,0,1.5-0.1,1.6-0.3v1.8c-0.3,0.1-0.9,0.3-2.2,0.3c-2.7,0-4.6-1.3-4.6-4.7
		v-9.5h-2.5v-1.9h2.5v-4.4h2.1v4.4h5.2V788z"/>
	<path d="M1162.7,803.7h-2.1v-21.2h-5.9v-1.9h13.9v1.9h-5.9V803.7z"/>
	<path d="M1169.6,796.7c0.1,3.4,1.5,5.6,4.7,5.6c3.1,0,4.4-1.9,4.4-3.6h1.9v0.1c0,2.4-2.1,5.2-6.4,5.2c-4.7,0-6.8-3.6-6.8-7.8v-0.6
		c0-4.3,2.1-7.8,6.7-7.8s6.5,3.6,6.5,7.8v1.2h-11.1V796.7z M1169.6,794.9h9c-0.1-3.4-1.5-5.6-4.4-5.6S1169.8,791.5,1169.6,794.9z"/>
	<path d="M1186.8,784.3h-2.7v-2.7h2.7V784.3z M1184.4,788h2.1v15.7h-2.1V788z"/>
	<path d="M1190.8,780h2.1v23.7h-2.1V780z"/>
	<path d="M1204.4,796.7c0.1,3.4,1.5,5.6,4.7,5.6c3.1,0,4.4-1.9,4.4-3.6h1.9v0.1c0,2.4-2.1,5.2-6.4,5.2c-4.7,0-6.8-3.6-6.8-7.8v-0.6
		c0-4.3,2.1-7.8,6.7-7.8s6.5,3.6,6.5,7.8v1.2h-11.1V796.7z M1204.4,794.9h9c-0.1-3.4-1.5-5.6-4.4-5.6
		C1206,789.3,1204.6,791.5,1204.4,794.9z"/>
	<path d="M1221.6,784.3h-2.7v-2.7h2.7V784.3z M1219.2,788h2.1v15.7h-2.1V788z"/>
	<path d="M1235.2,803.7V793c0-2.4-1.3-3.4-3.4-3.4c-2.5,0-3.7,1.3-4.3,2.4v11.7h-2.1v-11.3l-0.1-4.4h1.8l0.3,2.2
		c0.9-1.3,2.5-2.5,5.3-2.5c3.1,0,4.7,2.1,4.7,5v11L1235.2,803.7L1235.2,803.7z"/>
	<path d="M1242.6,796.7c0.1,3.4,1.5,5.6,4.7,5.6c3.1,0,4.4-1.9,4.4-3.6h1.9v0.1c0,2.4-2.1,5.2-6.4,5.2c-4.7,0-6.8-3.6-6.8-7.8v-0.6
		c0-4.3,2.1-7.8,6.7-7.8s6.5,3.6,6.5,7.8v1.2h-11.1V796.7z M1242.6,794.9h9c-0.1-3.4-1.5-5.6-4.4-5.6
		C1244.1,789.3,1242.8,791.5,1242.6,794.9z"/>
	<path d="M1266.7,799.4c0-2.1-1.2-2.7-4.3-3c-4.3-0.3-5.5-1.8-5.5-4.1v-0.1c0-2.7,2.2-4.4,5.8-4.4c4.3,0,5.9,2.2,5.9,5.3v0.1h-2.1
		c0-2.2-0.9-3.7-3.8-3.7c-2.4,0-3.7,1-3.7,2.7s0.7,2.5,4.1,2.8c4,0.3,5.6,1.5,5.6,4.3v0.1c0,2.7-2.2,4.6-6.1,4.6
		c-4.4,0-6.1-2.7-6.1-5v-0.1h2.1c0,1.8,0.9,3.4,4,3.4C1265.4,802.2,1266.7,801.2,1266.7,799.4z"/>
	<path d="M1282,788h4.4v1.9h-4.4v13.8h-2.1v-13.8h-2.5V788h2.5v-3.7c0-3.4,1.9-4.7,4.6-4.7c1.2,0,1.9,0.3,2.2,0.3v1.8
		c-0.3-0.1-1-0.3-1.6-0.3c-1.9,0-3,0.6-3,3.1v3.6H1282z"/>
	<path d="M1290,780h2.1v23.7h-2.1V780z"/>
	<path d="M1297.7,796.7c0.1,3.4,1.5,5.6,4.7,5.6c3.1,0,4.4-1.9,4.4-3.6h1.9v0.1c0,2.4-2.1,5.2-6.4,5.2c-4.7,0-6.8-3.6-6.8-7.8v-0.6
		c0-4.3,2.1-7.8,6.7-7.8s6.5,3.6,6.5,7.8v1.2h-11.1V796.7z M1297.7,794.9h9c-0.1-3.4-1.5-5.6-4.4-5.6
		C1299.3,789.3,1297.8,791.5,1297.7,794.9z"/>
	<path d="M1313.4,788l4,6.4l4-6.4h2.5l-4.9,7.7l4.9,8h-2.5l-4-6.7l-4,6.7h-2.5l4.9-8l-4.9-7.7H1313.4z"/>
	<path d="M1329.2,784.3h-2.7v-2.7h2.7V784.3z M1326.9,788h2.1v15.7h-2.1V788z"/>
	<path d="M1335.1,789.8c0.9-1.2,2.2-2.1,4.4-2.1c4.3,0,6.1,3.4,6.1,7.8v0.7c0,4.3-1.8,7.8-6.1,7.8c-2.4,0-3.8-1-4.7-2.5l-0.3,2.1
		h-1.8l0.1-4.4V780h2.1v9.8H1335.1z M1335.1,799.7c0.6,1,1.8,2.4,4,2.4c3,0,4.3-2.4,4.3-5.9v-0.7c0-3.7-1.3-5.9-4.3-5.9
		c-2.1,0-3.4,1.3-4,2.4V799.7z"/>
	<path d="M1349.1,780h2.1v23.7h-2.1V780z"/>
	<path d="M1356.9,796.7c0.1,3.4,1.5,5.6,4.7,5.6c3.1,0,4.4-1.9,4.4-3.6h1.9v0.1c0,2.4-2.1,5.2-6.4,5.2c-4.7,0-6.8-3.6-6.8-7.8v-0.6
		c0-4.3,2.1-7.8,6.7-7.8s6.5,3.6,6.5,7.8v1.2h-11.1V796.7z M1356.9,794.9h9c-0.1-3.4-1.5-5.6-4.4-5.6
		C1358.4,789.3,1357.1,791.5,1356.9,794.9z"/>
	<path d="M1381.2,803.7V793c0-2.4-1.3-3.4-3.4-3.4c-2.5,0-3.7,1.3-4.3,2.4v11.7h-2.1v-11.3l-0.1-4.4h1.8l0.3,2.2
		c0.9-1.3,2.5-2.5,5.3-2.5c3.1,0,4.7,2.1,4.7,5v11L1381.2,803.7L1381.2,803.7z"/>
	<path d="M777.3,822c3.8,0,7,1.6,7,5.8v0.6c0,2.7-1.5,4-3.4,4.7c2.4,0.7,4,2.2,4,5.2v0.6c0,4.4-3.3,6.1-7.1,6.1h-6.4v-23.1h5.9V822z
		 M773.6,824v8.3h3.8c2.5,0,4.7-1,4.7-4v-0.4c0-2.8-2.2-4-4.7-4h-3.8V824z M773.6,834.2v9h4.3c2.7,0,4.7-1.2,4.7-4.3v-0.4
		c0-3-2.2-4.3-4.7-4.3L773.6,834.2L773.6,834.2z"/>
	<path d="M795.2,829.1v1.9h-0.4c-2.4,0-3.6,1.3-4.1,2.4v11.7h-2.1v-11.3l-0.1-4.4h1.8l0.3,2.1c0.9-1.3,2.2-2.4,4.4-2.4
		C795,829.1,795.2,829.1,795.2,829.1z"/>
	<path d="M807.2,842.9c-1,1.3-2.8,2.5-5.5,2.5c-2.8,0-4.6-1.8-4.6-4.3v-0.3c0-3.4,2.5-4.4,5.2-4.7l4.7-0.7v-0.4
		c0-2.7-0.9-4.1-3.7-4.1c-3,0-3.7,1.8-3.7,3.7h-1.9v-0.3c0-2.4,1-5.2,5.6-5.2c4.3,0,5.6,2.4,5.6,5.8v5.8l0.1,4.4h-1.8L807.2,842.9z
		 M807,841.1v-4.3l-4.6,0.7c-2.1,0.3-3.3,1.3-3.3,3.1v0.3c0,1.3,0.9,2.7,3,2.7C805.1,843.6,806.4,842,807,841.1z"/>
	<path d="M822.7,845.1v-10.7c0-2.4-1.3-3.4-3.4-3.4c-2.5,0-3.7,1.3-4.3,2.4v11.7h-2.1v-11.3l-0.1-4.4h1.8l0.3,2.2
		c0.9-1.3,2.5-2.5,5.3-2.5c3.1,0,4.7,2.1,4.7,5v11L822.7,845.1L822.7,845.1z"/>
	<path d="M838.6,831.2v-9.8h2.1v19.2l0.1,4.4H839l-0.3-2.1c-0.7,1.3-2.2,2.4-4.6,2.4c-4.3,0-6.1-3.4-6.1-7.8v-0.7
		c0-4.3,1.8-7.8,6.1-7.8C836.3,829.1,837.7,830,838.6,831.2z M838.6,841.1v-7.7c-0.6-1-1.9-2.4-4-2.4c-3,0-4.3,2.4-4.3,5.9v0.7
		c0,3.7,1.3,5.9,4.3,5.9C836.6,843.5,837.8,842.2,838.6,841.1z"/>
	<path d="M847.2,825.7h-2.7v-2.7h2.7V825.7z M844.8,829.4h2.1v15.7h-2.1V829.4z"/>
	<path d="M860.8,845.1v-10.7c0-2.4-1.3-3.4-3.4-3.4c-2.5,0-3.7,1.3-4.3,2.4v11.7H851v-11.3l-0.1-4.4h1.8l0.3,2.2
		c0.9-1.3,2.5-2.5,5.3-2.5c3.1,0,4.7,2.1,4.7,5v11L860.8,845.1L860.8,845.1z"/>
	<path d="M876.5,842.2c-0.9,1.2-2.2,2.1-4.4,2.1c-4.3,0-6.1-3.3-6.1-7.3v-0.6c0-4,1.8-7.3,6.1-7.3c2.4,0,3.8,1,4.7,2.4l0.3-2.1h1.8
		l-0.1,4.4v11.4c0,3.6-1.6,6.1-6.2,6.1c-4.6,0-6.1-2.7-6.1-5.9V845h1.9c0,3,1.2,4.4,4,4.4c3,0,4.1-1.5,4.1-4.4L876.5,842.2
		L876.5,842.2z M872.5,830.9c-3,0-4.3,2.2-4.3,5.5v0.6c0,3.3,1.5,5.5,4.3,5.5c2.2,0,3.4-1.3,4-2.4v-6.7
		C875.9,832.4,874.7,830.9,872.5,830.9z"/>
	<path d="M881.6,833.7h7.4v1.9h-7.4V833.7z"/>
	<path d="M891.9,828.1v-0.3c0-3.8,2.8-6.2,7.3-6.2c5.2,0,7.3,2.7,7.3,7.4v0.7h-2.1c0-4.4-1.5-6.2-5-6.2h-0.1c-2.8,0-4.9,1.5-4.9,4
		v0.3c0,2.5,1.3,3.8,5.5,4.4c5,0.7,7.1,2.7,7.1,6.2v0.3c0,4.1-3,6.5-7.6,6.5c-4.9,0-7.6-2.8-7.6-7.6v-0.1h2.1c0,4,2.2,5.9,5.3,5.9
		h0.1c3.1,0,5.2-1.6,5.2-4.4v-0.3c0-2.7-1.6-4.1-5.8-4.6C893.8,833.4,891.9,831.2,891.9,828.1z"/>
	<path d="M919.8,829.4h2.2l-5.6,15.1l-2.2,6.5h-2.4l2.5-6.5l-5.6-15.1h2.2l4.4,12.9L919.8,829.4z"/>
	<path d="M933.3,840.8c0-2.1-1.2-2.7-4.3-3c-4.3-0.3-5.5-1.8-5.5-4.1v-0.1c0-2.7,2.2-4.4,5.8-4.4c4.3,0,5.9,2.2,5.9,5.3v0.1h-2.1
		c0-2.2-0.9-3.7-3.8-3.7c-2.4,0-3.7,1-3.7,2.7c0,1.6,0.7,2.5,4.1,2.8c4,0.3,5.6,1.5,5.6,4.3v0.1c0,2.7-2.2,4.6-6.1,4.6
		c-4.4,0-6.1-2.7-6.1-5v-0.1h2.1c0,1.8,0.9,3.4,4,3.4C932,843.6,933.3,842.6,933.3,840.8z"/>
	<path d="M947.2,829.4v1.9h-4.9v9.2c0,2.5,1,3.1,3,3.1c0.6,0,1.5-0.1,1.6-0.3v1.8c-0.3,0.1-0.9,0.3-2.2,0.3c-2.7,0-4.6-1.3-4.6-4.7
		v-9.5h-2.5v-1.9h2.5v-4.4h2.1v4.4h5V829.4z"/>
	<path d="M952.3,838.2c0.1,3.4,1.5,5.6,4.7,5.6c3.1,0,4.4-1.9,4.4-3.6h1.9v0.1c0,2.4-2.1,5.2-6.4,5.2c-4.7,0-6.8-3.6-6.8-7.8v-0.6
		c0-4.3,2.1-7.8,6.7-7.8s6.5,3.6,6.5,7.8v1.2h-11.1V838.2z M952.3,836.4h9c-0.1-3.4-1.5-5.6-4.4-5.6
		C953.8,830.8,952.3,833,952.3,836.4z"/>
	<path d="M984.7,845.1V834c0-2.4-1.2-3.1-3-3.1c-2.2,0-3.3,1.3-3.8,2.4v11.8h-2.1V834c0-2.4-1.2-3.1-3-3.1c-2.2,0-3.3,1.3-3.8,2.4
		v11.8h-2.1v-11.3l-0.1-4.4h1.8l0.3,2.1c0.9-1.3,2.4-2.5,4.9-2.5c2.1,0,3.4,0.9,4,2.7c0.9-1.5,2.4-2.7,4.9-2.7
		c2.8,0,4.4,1.6,4.4,4.6V845h-2.4V845.1z"/>
	<path d="M1000.2,840.8c0-2.1-1.2-2.7-4.3-3c-4.3-0.3-5.5-1.8-5.5-4.1v-0.1c0-2.7,2.2-4.4,5.8-4.4c4.3,0,5.9,2.2,5.9,5.3v0.1h-2.1
		c0-2.2-0.9-3.7-3.8-3.7c-2.4,0-3.7,1-3.7,2.7c0,1.6,0.7,2.5,4.1,2.8c4,0.3,5.6,1.5,5.6,4.3v0.1c0,2.7-2.2,4.6-6.1,4.6
		c-4.4,0-6.1-2.7-6.1-5v-0.1h2.1c0,1.8,0.9,3.4,4,3.4C998.9,843.6,1000.2,842.6,1000.2,840.8z"/>
	<path d="M1008.5,844.5c0,2.7-1.2,4-3.4,4v-1.2c1.2,0,1.9-0.6,2.1-2.2h-1.3v-2.7h2.7V844.5z"/>
	<path d="M1016.7,829.4h2.2l4.6,13.8l4.6-13.8h2.2l-5.5,15.7h-2.7L1016.7,829.4z"/>
	<path d="M1032.2,837.6v-0.7c0-4.3,1.9-7.8,6.7-7.8c4.6,0,6.7,3.4,6.7,7.8v0.7c0,4.3-1.9,7.8-6.7,7.8
		C1034.3,845.4,1032.2,842,1032.2,837.6z M1043.3,837.6v-0.7c0-3.6-1.3-5.9-4.4-5.9c-3.1,0-4.4,2.4-4.4,5.9v0.7
		c0,3.6,1.3,5.9,4.4,5.9C1042,843.5,1043.3,841.1,1043.3,837.6z"/>
	<path d="M1058.7,845.1v-10.7c0-2.4-1.3-3.4-3.4-3.4c-2.5,0-3.7,1.3-4.3,2.4v11.7h-2.1v-11.3l-0.1-4.4h1.8l0.3,2.2
		c0.9-1.3,2.5-2.5,5.3-2.5c3.1,0,4.7,2.1,4.7,5v11L1058.7,845.1L1058.7,845.1z"/>
	<path d="M1072.8,845.1h-2.1V822h6.4c3.3,0,7.1,1.2,7.1,6.5v0.6c0,5.3-3.8,6.5-7.1,6.5h-4.3V845.1z M1077.1,833.7
		c1.9,0,4.9-0.7,4.9-4.7v-0.3c0-4-2.8-4.7-4.9-4.7h-4.3v9.9h4.3V833.7z"/>
	<path d="M1088,838.2c0.1,3.4,1.5,5.6,4.7,5.6c3.1,0,4.4-1.9,4.4-3.6h1.9v0.1c0,2.4-2.1,5.2-6.4,5.2c-4.7,0-6.8-3.6-6.8-7.8v-0.6
		c0-4.3,2.1-7.8,6.7-7.8s6.5,3.6,6.5,7.8v1.2H1088V838.2z M1088,836.4h9c-0.1-3.4-1.5-5.6-4.4-5.6
		C1089.7,830.8,1088.2,833,1088,836.4z"/>
	<path d="M1112.5,845.1v-10.7c0-2.4-1.3-3.4-3.4-3.4c-2.5,0-3.7,1.3-4.3,2.4v11.7h-2.1v-11.3l-0.1-4.4h1.8l0.3,2.2
		c0.9-1.3,2.5-2.5,5.3-2.5c3.1,0,4.7,2.1,4.7,5v11L1112.5,845.1L1112.5,845.1z"/>
	<path d="M1126.4,829.4v1.9h-5v9.2c0,2.5,1,3.1,3,3.1c0.6,0,1.5-0.1,1.6-0.3v1.8c-0.3,0.1-0.9,0.3-2.2,0.3c-2.7,0-4.6-1.3-4.6-4.7
		v-9.5h-2.5v-1.9h2.5v-4.4h2.1v4.4h5.2V829.4z"/>
	<path d="M1139.3,842.9c-1,1.3-2.8,2.5-5.5,2.5c-2.8,0-4.6-1.8-4.6-4.3v-0.3c0-3.4,2.5-4.4,5.2-4.7l4.7-0.7v-0.4
		c0-2.7-0.9-4.1-3.7-4.1c-3,0-3.7,1.8-3.7,3.7h-1.9v-0.3c0-2.4,1-5.2,5.6-5.2c4.3,0,5.6,2.4,5.6,5.8v5.8l0.1,4.4h-1.8L1139.3,842.9z
		 M1139,841.1v-4.3l-4.6,0.7c-2.1,0.3-3.3,1.3-3.3,3.1v0.3c0,1.3,0.9,2.7,3,2.7C1137,843.6,1138.4,842,1139,841.1z"/>
	<path d="M1154.8,842.2c-0.9,1.2-2.2,2.1-4.4,2.1c-4.3,0-6.1-3.3-6.1-7.3v-0.6c0-4,1.8-7.3,6.1-7.3c2.4,0,3.8,1,4.7,2.4l0.3-2.1h1.8
		l-0.1,4.4v11.4c0,3.6-1.6,6.1-6.2,6.1s-6.1-2.7-6.1-5.9V845h1.9c0,3,1.2,4.4,4,4.4c3,0,4.1-1.5,4.1-4.4V842.2z M1150.8,830.9
		c-3,0-4.3,2.2-4.3,5.5v0.6c0,3.3,1.5,5.5,4.3,5.5c2.2,0,3.4-1.3,4-2.4v-6.7C1154.2,832.4,1153,830.9,1150.8,830.9z"/>
	<path d="M1167.4,829.1v1.9h-0.4c-2.4,0-3.6,1.3-4.1,2.4v11.7h-2.1v-11.3l-0.1-4.4h1.8l0.3,2.1c0.9-1.3,2.2-2.4,4.4-2.4
		C1167.2,829.1,1167.4,829.1,1167.4,829.1z"/>
	<path d="M1179.4,842.9c-1,1.3-2.8,2.5-5.5,2.5c-2.8,0-4.6-1.8-4.6-4.3v-0.3c0-3.4,2.5-4.4,5.2-4.7l4.7-0.7v-0.4
		c0-2.7-0.9-4.1-3.7-4.1c-3,0-3.7,1.8-3.7,3.7h-1.9v-0.3c0-2.4,1-5.2,5.6-5.2c4.3,0,5.6,2.4,5.6,5.8v5.8l0.1,4.4h-1.8L1179.4,842.9z
		 M1179.2,841.1v-4.3l-4.6,0.7c-2.1,0.3-3.3,1.3-3.3,3.1v0.3c0,1.3,0.9,2.7,3,2.7C1177.3,843.6,1178.6,842,1179.2,841.1z"/>
	<path d="M1203.1,845.1V834c0-2.4-1.2-3.1-3-3.1c-2.2,0-3.3,1.3-3.8,2.4v11.8h-2.1V834c0-2.4-1.2-3.1-3-3.1c-2.2,0-3.3,1.3-3.8,2.4
		v11.8h-2.1v-11.3l-0.1-4.4h1.8l0.3,2.1c0.9-1.3,2.4-2.5,4.9-2.5c2.1,0,3.4,0.9,4,2.7c0.9-1.5,2.4-2.7,4.9-2.7
		c2.8,0,4.4,1.6,4.4,4.6V845h-2.4V845.1z"/>
	<path d="M1226.9,845.1V834c0-2.4-1.2-3.1-3-3.1c-2.2,0-3.3,1.3-3.8,2.4v11.8h-2.1V834c0-2.4-1.2-3.1-3-3.1c-2.2,0-3.3,1.3-3.8,2.4
		v11.8h-2.1v-11.3l-0.1-4.4h1.8l0.3,2.1c0.9-1.3,2.4-2.5,4.9-2.5c2.1,0,3.4,0.9,4,2.7c0.9-1.5,2.4-2.7,4.9-2.7
		c2.8,0,4.4,1.6,4.4,4.6V845h-2.4V845.1z"/>
	<path d="M1242.5,840.8c0-2.1-1.2-2.7-4.3-3c-4.3-0.3-5.5-1.8-5.5-4.1v-0.1c0-2.7,2.2-4.4,5.8-4.4c4.3,0,5.9,2.2,5.9,5.3v0.1h-2.1
		c0-2.2-0.9-3.7-3.8-3.7c-2.4,0-3.7,1-3.7,2.7c0,1.6,0.7,2.5,4.1,2.8c4,0.3,5.6,1.5,5.6,4.3v0.1c0,2.7-2.2,4.6-6.1,4.6
		c-4.4,0-6.1-2.7-6.1-5v-0.1h2.1c0,1.8,0.9,3.4,4,3.4C1241.1,843.6,1242.5,842.6,1242.5,840.8z"/>
	<path d="M1267.3,822v1.9h-10.8v8.4h9.3v1.9h-9.3v8.9h10.8v1.9h-12.9V822H1267.3z"/>
	<path d="M1280.4,831.2v-9.8h2.1v19.2l0.1,4.4h-1.8l-0.3-2.1c-0.7,1.3-2.2,2.4-4.6,2.4c-4.3,0-6.1-3.4-6.1-7.8v-0.7
		c0-4.3,1.8-7.8,6.1-7.8C1278.1,829.1,1279.6,830,1280.4,831.2z M1280.4,841.1v-7.7c-0.6-1-1.9-2.4-4-2.4c-3,0-4.3,2.4-4.3,5.9v0.7
		c0,3.7,1.3,5.9,4.3,5.9C1278.6,843.5,1279.8,842.2,1280.4,841.1z"/>
	<path d="M1296.4,831.2v-9.8h2.1v19.2l0.1,4.4h-1.8l-0.3-2.1c-0.7,1.3-2.2,2.4-4.6,2.4c-4.3,0-6.1-3.4-6.1-7.8v-0.7
		c0-4.3,1.8-7.8,6.1-7.8C1294.1,829.1,1295.6,830,1296.4,831.2z M1296.4,841.1v-7.7c-0.6-1-1.9-2.4-4-2.4c-3,0-4.3,2.4-4.3,5.9v0.7
		c0,3.7,1.3,5.9,4.3,5.9C1294.6,843.5,1295.8,842.2,1296.4,841.1z"/>
	<path d="M1304.9,825.7h-2.7v-2.7h2.7V825.7z M1302.6,829.4h2.1v15.7h-2.1V829.4z"/>
	<path d="M1310.4,838.2c0.1,3.4,1.5,5.6,4.7,5.6c3.1,0,4.4-1.9,4.4-3.6h1.9v0.1c0,2.4-2.1,5.2-6.4,5.2c-4.7,0-6.8-3.6-6.8-7.8v-0.6
		c0-4.3,2.1-7.8,6.7-7.8s6.5,3.6,6.5,7.8v1.2h-11.1V838.2z M1310.4,836.4h9c-0.1-3.4-1.5-5.6-4.4-5.6
		C1311.9,830.8,1310.4,833,1310.4,836.4z"/>
	<path d="M1330.6,834.2V833c0-8,2.7-11.3,7.8-11.3c5.3,0,8,3.3,8,11.3v1.2c0,8-2.7,11.3-8,11.3
		C1333.2,845.4,1330.6,842.2,1330.6,834.2z M1338.6,843.5c3.8,0,5.6-2.8,5.6-9.3V833c0-6.5-1.8-9.3-5.6-9.3h-0.1
		c-3.8,0-5.6,2.8-5.6,9.3v1.2c0,6.5,1.8,9.3,5.6,9.3H1338.6z"/>
	<path d="M1352.2,843.3v7.7h-2.1v-17.2l-0.1-4.4h1.8l0.3,2.1c0.9-1.3,2.2-2.5,4.7-2.5c4.3,0,6.1,3.4,6.1,7.8v0.7
		c0,4.3-1.8,7.8-6.1,7.8C1354.4,845.4,1352.9,844.5,1352.2,843.3z M1352.2,841.1c0.6,1,1.8,2.4,4,2.4c3,0,4.3-2.4,4.3-5.9v-0.7
		c0-3.7-1.3-5.9-4.3-5.9c-2.1,0-3.4,1.3-4,2.4V841.1z"/>
	<path d="M1375.4,842.9c-1,1.3-2.8,2.5-5.5,2.5c-2.8,0-4.6-1.8-4.6-4.3v-0.3c0-3.4,2.5-4.4,5.2-4.7l4.7-0.7v-0.4
		c0-2.7-0.9-4.1-3.7-4.1c-3,0-3.7,1.8-3.7,3.7h-1.9v-0.3c0-2.4,1-5.2,5.6-5.2c4.3,0,5.6,2.4,5.6,5.8v5.8l0.1,4.4h-1.8L1375.4,842.9z
		 M1375.1,841.1v-4.3l-4.6,0.7c-2.1,0.3-3.3,1.3-3.3,3.1v0.3c0,1.3,0.9,2.7,3,2.7C1373.3,843.6,1374.7,842,1375.1,841.1z"/>
	<path d="M1387.7,829.1v1.9h-0.4c-2.4,0-3.6,1.3-4.1,2.4v11.7h-2.1v-11.3l-0.1-4.4h1.8l0.3,2.1c0.9-1.3,2.2-2.4,4.4-2.4
		C1387.6,829.1,1387.7,829.1,1387.7,829.1z"/>
	<path d="M1399.7,842.9c-1,1.3-2.8,2.5-5.5,2.5c-2.8,0-4.6-1.8-4.6-4.3v-0.3c0-3.4,2.5-4.4,5.2-4.7l4.7-0.7v-0.4
		c0-2.7-0.9-4.1-3.7-4.1c-3,0-3.7,1.8-3.7,3.7h-1.9v-0.3c0-2.4,1-5.2,5.6-5.2c4.3,0,5.6,2.4,5.6,5.8v5.8l0.1,4.4h-1.8L1399.7,842.9z
		 M1399.5,841.1v-4.3l-4.6,0.7c-2.1,0.3-3.3,1.3-3.3,3.1v0.3c0,1.3,0.9,2.7,3,2.7C1397.6,843.6,1399,842,1399.5,841.1z"/>
	<path d="M1408,844.5c0,2.7-1.2,4-3.4,4v-1.2c1.2,0,1.9-0.6,2.1-2.2h-1.3v-2.7h2.7V844.5z"/>
	<path d="M781.3,872.7v-9.8h2.1v19.2l0.1,4.4h-1.8l-0.3-2.1c-0.7,1.3-2.2,2.4-4.6,2.4c-4.3,0-6.1-3.4-6.1-7.8v-0.7
		c0-4.3,1.8-7.8,6.1-7.8C779,870.6,780.4,871.5,781.3,872.7z M781.3,882.6v-7.7c-0.6-1-1.9-2.4-4-2.4c-3,0-4.3,2.4-4.3,5.9v0.7
		c0,3.7,1.3,5.9,4.3,5.9C779.3,885,780.5,883.6,781.3,882.6z"/>
	<path d="M788.8,879.6c0.1,3.4,1.5,5.6,4.7,5.6c3.1,0,4.4-1.9,4.4-3.6h1.9v0.1c0,2.4-2.1,5.2-6.4,5.2c-4.7,0-6.8-3.6-6.8-7.8v-0.6
		c0-4.3,2.1-7.8,6.7-7.8s6.5,3.6,6.5,7.8v1.2h-11.1V879.6z M788.8,877.8h9c-0.1-3.4-1.5-5.6-4.4-5.6
		C790.3,872.2,789,874.4,788.8,877.8z"/>
	<path d="M810,870.6v1.9h-0.4c-2.4,0-3.6,1.3-4.1,2.4v11.7h-2.1v-11.3l-0.1-4.4h1.8l0.3,2.1c0.9-1.3,2.2-2.4,4.4-2.4
		C809.7,870.6,810,870.6,810,870.6z"/>
	<path d="M828.8,872.7v-9.8h2.1v19.2l0.1,4.4h-1.8l-0.3-2.1c-0.7,1.3-2.2,2.4-4.6,2.4c-4.3,0-6.1-3.4-6.1-7.8v-0.7
		c0-4.3,1.8-7.8,6.1-7.8C826.6,870.6,827.9,871.5,828.8,872.7z M828.8,882.6v-7.7c-0.6-1-1.9-2.4-4-2.4c-3,0-4.3,2.4-4.3,5.9v0.7
		c0,3.7,1.3,5.9,4.3,5.9C827,885,828.2,883.6,828.8,882.6z"/>
	<path d="M844.2,884.4c-1,1.3-2.8,2.5-5.5,2.5c-2.8,0-4.6-1.8-4.6-4.3v-0.3c0-3.4,2.5-4.4,5.2-4.7l4.7-0.7v-0.4
		c0-2.7-0.9-4.1-3.7-4.1c-3,0-3.7,1.8-3.7,3.7h-1.9v-0.3c0-2.4,1-5.2,5.6-5.2c4.3,0,5.6,2.4,5.6,5.8v5.8l0.1,4.4h-1.5L844.2,884.4z
		 M844,882.6v-4.3l-4.6,0.7c-2.1,0.3-3.3,1.3-3.3,3.1v0.3c0,1.3,0.9,2.7,3,2.7C842.1,885.1,843.4,883.5,844,882.6z"/>
	<path d="M859.6,882.3c0-2.1-1.2-2.7-4.3-3c-4.3-0.3-5.5-1.8-5.5-4.1V875c0-2.7,2.2-4.4,5.8-4.4c4.3,0,5.9,2.2,5.9,5.3v0.1h-2.1
		c0-2.2-0.9-3.7-3.8-3.7c-2.4,0-3.7,1-3.7,2.7c0,1.6,0.7,2.5,4.1,2.8c4,0.3,5.6,1.5,5.6,4.3v0.1c0,2.7-2.2,4.6-6.1,4.6
		c-4.4,0-6.1-2.7-6.1-5v-0.1h2.1c0,1.8,0.9,3.4,4,3.4C858.3,885.1,859.6,884.1,859.6,882.3z"/>
	<path d="M877.5,863.5c3.8,0,7,1.6,7,5.8v0.6c0,2.7-1.5,4-3.4,4.7c2.4,0.7,4,2.2,4,5.2v0.6c0,4.4-3.3,6.1-7.1,6.1h-6.4v-23.1h5.9
		V863.5z M873.7,865.4v8.3h3.8c2.5,0,4.7-1,4.7-4v-0.4c0-2.8-2.2-4-4.7-4h-3.8V865.4z M873.7,875.6v9h4.3c2.7,0,4.7-1.2,4.7-4.3
		v-0.4c0-3-2.2-4.3-4.7-4.3L873.7,875.6L873.7,875.6z"/>
	<path d="M895.4,870.6v1.9H895c-2.4,0-3.6,1.3-4.1,2.4v11.7h-2.1v-11.3l-0.1-4.4h1.8l0.3,2.1c0.9-1.3,2.2-2.4,4.4-2.4
		C895.1,870.6,895.3,870.6,895.4,870.6z"/>
	<path d="M907.3,884.4c-1,1.3-2.8,2.5-5.5,2.5c-2.8,0-4.6-1.8-4.6-4.3v-0.3c0-3.4,2.5-4.4,5.2-4.7l4.7-0.7v-0.4
		c0-2.7-0.9-4.1-3.7-4.1c-3,0-3.7,1.8-3.7,3.7h-1.9v-0.3c0-2.4,1-5.2,5.6-5.2c4.3,0,5.6,2.4,5.6,5.8v5.8l0.1,4.4h-1.8L907.3,884.4z
		 M907.1,882.6v-4.3l-4.6,0.7c-2.1,0.3-3.3,1.3-3.3,3.1v0.3c0,1.3,0.9,2.7,3,2.7C905.2,885.1,906.5,883.5,907.1,882.6z"/>
	<path d="M922.8,886.6v-10.7c0-2.4-1.3-3.4-3.4-3.4c-2.5,0-3.7,1.3-4.3,2.4v11.7H913v-11.3l-0.1-4.4h1.8l0.3,2.2
		c0.9-1.3,2.5-2.5,5.3-2.5c3.1,0,4.7,2.1,4.7,5v11L922.8,886.6L922.8,886.6z"/>
	<path d="M938.6,872.7v-9.8h2.1v19.2l0.1,4.4h-1.8l-0.3-2.1c-0.7,1.3-2.2,2.4-4.6,2.4c-4.3,0-6.1-3.4-6.1-7.8v-0.7
		c0-4.3,1.8-7.8,6.1-7.8C936.4,870.6,937.8,871.5,938.6,872.7z M938.6,882.6v-7.7c-0.6-1-1.9-2.4-4-2.4c-3,0-4.3,2.4-4.3,5.9v0.7
		c0,3.7,1.3,5.9,4.3,5.9C936.7,885,938.1,883.6,938.6,882.6z"/>
	<path d="M947.2,867.2h-2.7v-2.7h2.7V867.2z M944.9,870.9h2.1v15.7h-2.1V870.9z"/>
	<path d="M960.9,886.6v-10.7c0-2.4-1.3-3.4-3.4-3.4c-2.5,0-3.7,1.3-4.3,2.4v11.7h-2.1v-11.3l-0.1-4.4h1.8l0.3,2.2
		c0.9-1.3,2.5-2.5,5.3-2.5c3.1,0,4.7,2.1,4.7,5v11L960.9,886.6L960.9,886.6z"/>
	<path d="M976.6,883.6c-0.9,1.2-2.2,2.1-4.4,2.1c-4.3,0-6.1-3.3-6.1-7.3v-0.6c0-4,1.8-7.3,6.1-7.3c2.4,0,3.8,1,4.7,2.4l0.3-2.1h1.8
		l-0.1,4.4v11.4c0,3.6-1.6,6.1-6.2,6.1c-4.6,0-6.1-2.7-6.1-5.9v-0.4h1.9c0,3,1.2,4.4,4,4.4c3,0,4.1-1.5,4.1-4.4L976.6,883.6
		L976.6,883.6z M972.6,872.4c-3,0-4.3,2.2-4.3,5.5v0.6c0,3.3,1.5,5.5,4.3,5.5c2.2,0,3.4-1.3,4-2.4v-6.7
		C976,873.8,974.8,872.4,972.6,872.4z"/>
	<path d="M990,879.6c0.1,3.4,1.5,5.6,4.7,5.6c3.1,0,4.4-1.9,4.4-3.6h1.9v0.1c0,2.4-2.1,5.2-6.4,5.2c-4.7,0-6.8-3.6-6.8-7.8v-0.6
		c0-4.3,2.1-7.8,6.7-7.8s6.5,3.6,6.5,7.8v1.2H990V879.6z M990,877.8h9c-0.1-3.4-1.5-5.6-4.4-5.6S990.2,874.4,990,877.8z"/>
	<path d="M1014.5,886.6v-10.7c0-2.4-1.3-3.4-3.4-3.4c-2.5,0-3.7,1.3-4.3,2.4v11.7h-2.1v-11.3l-0.1-4.4h1.8l0.3,2.2
		c0.9-1.3,2.5-2.5,5.3-2.5c3.1,0,4.7,2.1,4.7,5v11L1014.5,886.6L1014.5,886.6z"/>
	<path d="M1028.4,870.9v1.9h-5v9.2c0,2.5,1,3.1,3,3.1c0.6,0,1.5-0.1,1.6-0.3v1.8c-0.3,0.1-0.9,0.3-2.2,0.3c-2.7,0-4.6-1.3-4.6-4.7
		v-9.5h-2.5v-1.9h2.5v-4.4h2.1v4.4h5.2V870.9z"/>
	<path d="M1036.8,886.6h-2.7l-3.4-15.7h2.1l2.7,13.5l3.7-13.5h2.5l3.7,13.5l2.7-13.5h2.1l-3.4,15.7h-2.8l-3.6-13.3L1036.8,886.6z"/>
	<path d="M1055.5,867.2h-2.7v-2.7h2.7V867.2z M1053.1,870.9h2.1v15.7h-2.1V870.9z"/>
	<path d="M1065.4,885c3,0,4-1.9,4-3.8h1.9v0.4c0,2.5-1.6,5.3-6.1,5.3c-4.6,0-6.5-3.4-6.5-7.8v-0.7c0-4.3,1.9-7.8,6.5-7.8
		c4.3,0,6.1,3,6.1,5.5v0.6h-1.9c0-2.4-1.2-4.1-4-4.1c-3.1,0-4.4,2.4-4.4,5.9v0.7C1060.9,882.6,1062.3,885,1065.4,885z"/>
	<path d="M1074.7,862.9h2.1v16.3l7.4-8.3h2.5l-5.3,5.9l5.3,9.8h-2.4l-4.4-8.1l-3.3,3.6v4.6h-2.1v-23.7H1074.7z"/>
	<path d="M1090.3,879.6c0.1,3.4,1.5,5.6,4.7,5.6c3.1,0,4.4-1.9,4.4-3.6h1.9v0.1c0,2.4-2.1,5.2-6.4,5.2c-4.7,0-6.8-3.6-6.8-7.8v-0.6
		c0-4.3,2.1-7.8,6.7-7.8s6.5,3.6,6.5,7.8v1.2h-11.1V879.6z M1090.3,877.8h9c-0.1-3.4-1.5-5.6-4.4-5.6
		C1091.9,872.2,1090.4,874.4,1090.3,877.8z"/>
	<path d="M1105.1,862.9h2.1v23.7h-2.1V862.9z"/>
	<path d="M1119.7,870.9v1.9h-5v9.2c0,2.5,1,3.1,3,3.1c0.6,0,1.5-0.1,1.6-0.3v1.8c-0.3,0.1-0.9,0.3-2.2,0.3c-2.7,0-4.6-1.3-4.6-4.7
		v-9.5h-2.5v-1.9h2.5v-4.4h2.1v4.4h5.2V870.9z"/>
	<path d="M1124.6,879.6c0.1,3.4,1.5,5.6,4.7,5.6c3.3,0,4.4-1.9,4.4-3.6h1.9v0.1c0,2.4-2.1,5.2-6.4,5.2c-4.7,0-6.8-3.6-6.8-7.8v-0.6
		c0-4.3,2.1-7.8,6.7-7.8s6.5,3.6,6.5,7.8v1.2h-11.1V879.6z M1124.6,877.8h9c-0.1-3.4-1.5-5.6-4.4-5.6
		C1126.2,872.2,1124.8,874.4,1124.6,877.8z"/>
	<path d="M1147,870.9v10.7c0,2.4,1.3,3.4,3.4,3.4c2.5,0,3.7-1.3,4.3-2.4v-11.7h2.1v11.3l0.1,4.4h-1.8l-0.3-2.2
		c-0.9,1.3-2.5,2.5-5.2,2.5c-3.1,0-4.7-2.1-4.7-5v-11L1147,870.9L1147,870.9z"/>
	<path d="M1170.5,886.6v-10.7c0-2.4-1.3-3.4-3.4-3.4c-2.5,0-3.7,1.3-4.3,2.4v11.7h-2.1v-11.3l-0.1-4.4h1.8l0.3,2.2
		c0.9-1.3,2.5-2.5,5.3-2.5c3.1,0,4.7,2.1,4.7,5v11L1170.5,886.6L1170.5,886.6z"/>
	<path d="M1186.3,872.7v-9.8h2.1v19.2l0.1,4.4h-1.8l-0.3-2.1c-0.7,1.3-2.2,2.4-4.6,2.4c-4.3,0-6.1-3.4-6.1-7.8v-0.7
		c0-4.3,1.8-7.8,6.1-7.8C1184.1,870.6,1185.5,871.5,1186.3,872.7z M1186.3,882.6v-7.7c-0.6-1-1.9-2.4-4-2.4c-3,0-4.3,2.4-4.3,5.9
		v0.7c0,3.7,1.3,5.9,4.3,5.9C1184.6,885,1185.8,883.6,1186.3,882.6z"/>
	<path d="M1205.9,885h0.1c3.4,0,4.9-2.1,4.9-5.9h2.2v0.3c0,4.9-2.4,7.6-7.3,7.6c-5.3,0-7.8-3.3-7.8-11.3v-1.2c0-8,2.5-11.3,7.8-11.3
		c4.9,0,7.3,2.7,7.3,7.8v0.9h-2.2c0-4.7-1.5-6.8-4.9-6.8h-0.1c-3.8,0-5.6,2.8-5.6,9.3v1.2C1200.3,882.1,1201.9,885,1205.9,885z"/>
	<path d="M1218.6,872.8c0.9-1.2,2.5-2.2,5-2.2c3.1,0,4.7,2.1,4.7,5v11h-2.1v-10.7c0-2.4-1.3-3.4-3.4-3.4c-2.5,0-3.7,1.3-4.3,2.4
		v11.7h-2.1v-23.7h2.1L1218.6,872.8L1218.6,872.8z"/>
	<path d="M1233.9,879.6c0.1,3.4,1.5,5.6,4.7,5.6c3.1,0,4.4-1.9,4.4-3.6h1.9v0.1c0,2.4-2.1,5.2-6.4,5.2c-4.7,0-6.8-3.6-6.8-7.8v-0.6
		c0-4.3,2.1-7.8,6.7-7.8s6.5,3.6,6.5,7.8v1.2h-11.1V879.6z M1233.9,877.8h9c-0.1-3.4-1.5-5.6-4.4-5.6
		C1235.4,872.2,1233.9,874.4,1233.9,877.8z"/>
	<path d="M1258,882.3c0-2.1-1.2-2.7-4.3-3c-4.3-0.3-5.5-1.8-5.5-4.1V875c0-2.7,2.2-4.4,5.8-4.4c4.3,0,5.9,2.2,5.9,5.3v0.1h-2.1
		c0-2.2-0.9-3.7-3.8-3.7c-2.4,0-3.7,1-3.7,2.7c0,1.6,0.7,2.5,4.1,2.8c4,0.3,5.6,1.5,5.6,4.3v0.1c0,2.7-2.2,4.6-6.1,4.6
		c-4.4,0-6.1-2.7-6.1-5v-0.1h2.1c0,1.8,0.9,3.4,4,3.4C1256.7,885.1,1258,884.1,1258,882.3z"/>
	<path d="M1271.9,870.9v1.9h-5v9.2c0,2.5,1,3.1,3,3.1c0.6,0,1.5-0.1,1.6-0.3v1.8c-0.3,0.1-0.9,0.3-2.2,0.3c-2.7,0-4.6-1.3-4.6-4.7
		v-9.5h-2.5v-1.9h2.5v-4.4h2.1v4.4h5.2V870.9z"/>
	<path d="M1276.8,879.6c0.1,3.4,1.5,5.6,4.7,5.6c3.1,0,4.4-1.9,4.4-3.6h1.9v0.1c0,2.4-2.1,5.2-6.4,5.2c-4.7,0-6.8-3.6-6.8-7.8v-0.6
		c0-4.3,2.1-7.8,6.7-7.8s6.5,3.6,6.5,7.8v1.2h-11.1V879.6z M1276.8,877.8h9c-0.1-3.4-1.5-5.6-4.4-5.6
		C1278.4,872.2,1277,874.4,1276.8,877.8z"/>
	<path d="M1298,870.6v1.9h-0.4c-2.4,0-3.6,1.3-4.1,2.4v11.7h-2.1v-11.3l-0.1-4.4h1.8l0.3,2.1c0.9-1.3,2.2-2.4,4.4-2.4
		C1297.8,870.6,1298,870.6,1298,870.6z"/>
	<path d="M1317.2,863.5v16c0,4.6-1.6,7.4-5.9,7.4c-4.4,0-5.9-2.7-5.9-7.4V879h2.1c0,4.1,1,5.9,3.8,5.9c2.7,0,3.8-1.8,3.8-5.9v-15.7
		h2.1V863.5z"/>
	<path d="M1322.7,879.6c0.1,3.4,1.5,5.6,4.7,5.6c3.1,0,4.4-1.9,4.4-3.6h1.9v0.1c0,2.4-2.1,5.2-6.4,5.2c-4.7,0-6.8-3.6-6.8-7.8v-0.6
		c0-4.3,2.1-7.8,6.7-7.8s6.5,3.6,6.5,7.8v1.2h-11.1V879.6z M1322.7,877.8h9c-0.1-3.4-1.5-5.6-4.4-5.6
		C1324.3,872.2,1322.9,874.4,1322.7,877.8z"/>
	<path d="M1347.1,886.6v-10.7c0-2.4-1.3-3.4-3.4-3.4c-2.5,0-3.7,1.3-4.3,2.4v11.7h-2.1v-11.3l-0.1-4.4h1.8l0.3,2.2
		c0.9-1.3,2.5-2.5,5.3-2.5c3.1,0,4.7,2.1,4.7,5v11L1347.1,886.6L1347.1,886.6z"/>
	<path d="M1352.9,862.9h2.1v16.3l7.4-8.3h2.5l-5.3,5.9l5.3,9.8h-2.4l-4.4-8.1l-3.3,3.6v4.6h-2.1v-23.7H1352.9z"/>
	<path d="M1370.4,867.2h-2.7v-2.7h2.7V867.2z M1368,870.9h2.1v15.7h-2.1V870.9z"/>
	<path d="M1384,886.6v-10.7c0-2.4-1.3-3.4-3.4-3.4c-2.5,0-3.7,1.3-4.3,2.4v11.7h-2.1v-11.3l-0.1-4.4h1.8l0.3,2.2
		c0.9-1.3,2.5-2.5,5.3-2.5c3.1,0,4.7,2.1,4.7,5v11L1384,886.6L1384,886.6z"/>
	<path d="M1399.4,882.3c0-2.1-1.2-2.7-4.3-3c-4.3-0.3-5.5-1.8-5.5-4.1V875c0-2.7,2.2-4.4,5.8-4.4c4.3,0,5.9,2.2,5.9,5.3v0.1h-2.1
		c0-2.2-0.9-3.7-3.8-3.7c-2.4,0-3.7,1-3.7,2.7c0,1.6,0.7,2.5,4.1,2.8c4,0.3,5.6,1.5,5.6,4.3v0.1c0,2.7-2.2,4.6-6.1,4.6
		c-4.4,0-6.1-2.7-6.1-5v-0.1h2.1c0,1.8,0.9,3.4,4,3.4C1398.1,885.1,1399.4,884.1,1399.4,882.3z"/>
	<path d="M770,912.3h2.2l4.6,13.8l4.6-13.8h2.2l-5.5,15.7h-2.7L770,912.3z"/>
	<path d="M785.6,920.5v-0.7c0-4.3,1.9-7.8,6.7-7.8c4.6,0,6.7,3.4,6.7,7.8v0.7c0,4.3-1.9,7.8-6.7,7.8
		C787.5,928.3,785.6,924.9,785.6,920.5z M796.7,920.5v-0.7c0-3.6-1.3-5.9-4.4-5.9s-4.4,2.4-4.4,5.9v0.7c0,3.6,1.3,5.9,4.4,5.9
		S796.7,924,796.7,920.5z"/>
	<path d="M811.9,928v-10.7c0-2.4-1.3-3.4-3.4-3.4c-2.5,0-3.7,1.3-4.3,2.4V928h-2.1v-11.3l-0.1-4.4h1.8l0.3,2.2
		c0.9-1.3,2.5-2.5,5.3-2.5c3.1,0,4.7,2.1,4.7,5v11L811.9,928L811.9,928z"/>
	<path d="M828.8,928.2l-6.7-23.4h2.4l5.9,21l5.9-21h2.4l-6.7,23.4H828.8z"/>
	<path d="M843.9,908.6h-2.7V906h2.7V908.6z M841.5,912.3h2.1V928h-2.1V912.3z"/>
	<path d="M847.9,904.3h2.1V928h-2.1V904.3z"/>
	<path d="M854.3,904.3h2.1V928h-2.1V904.3z"/>
	<path d="M870,925.8c-1,1.3-2.8,2.5-5.5,2.5c-2.8,0-4.6-1.8-4.6-4.3v-0.3c0-3.4,2.5-4.4,5.2-4.7l4.7-0.7v-0.4c0-2.7-0.9-4.1-3.7-4.1
		c-3,0-3.7,1.8-3.7,3.7h-1.9v-0.3c0-2.4,1-5.2,5.6-5.2c4.3,0,5.6,2.4,5.6,5.8v5.8l0.1,4.4h-1.8L870,925.8z M869.7,924v-4.3l-4.6,0.7
		c-2.1,0.3-3.3,1.3-3.3,3.1v0.3c0,1.3,0.9,2.7,3,2.7C867.9,926.6,869.2,924.9,869.7,924z"/>
	<path d="M885.6,925.1c-0.9,1.2-2.2,2.1-4.4,2.1c-4.3,0-6.1-3.3-6.1-7.3v-0.6c0-4,1.8-7.3,6.1-7.3c2.4,0,3.8,1,4.7,2.4l0.3-2.1h1.8
		l-0.1,4.4v11.4c0,3.6-1.6,6.1-6.2,6.1c-4.6,0-6.1-2.7-6.1-5.9v-0.4h1.9c0,3,1.2,4.4,4,4.4c3,0,4.1-1.5,4.1-4.4L885.6,925.1
		L885.6,925.1z M881.6,913.8c-3,0-4.3,2.2-4.3,5.5v0.6c0,3.3,1.5,5.5,4.3,5.5c2.2,0,3.4-1.3,4-2.4v-6.7
		C884.9,915.3,883.7,913.8,881.6,913.8z"/>
	<path d="M893.2,921.1c0.1,3.4,1.5,5.6,4.7,5.6c3.1,0,4.4-1.9,4.4-3.6h1.9v0.1c0,2.4-2.1,5.2-6.4,5.2c-4.7,0-6.8-3.6-6.8-7.8V920
		c0-4.3,2.1-7.8,6.7-7.8s6.5,3.6,6.5,7.8v1.2h-11.1V921.1z M893.2,919.3h9c-0.1-3.4-1.5-5.6-4.4-5.6
		C894.7,913.7,893.2,915.9,893.2,919.3z"/>
	<path d="M910.2,927.4c0,2.7-1.2,4-3.4,4v-1.2c1.2,0,1.9-0.6,2.1-2.2h-1.3v-2.7h2.7V927.4z"/>
	<path d="M929.9,914.1v-9.8h2.1v19.2l0.1,4.4h-1.6l-0.3-2.1c-0.7,1.3-2.2,2.4-4.6,2.4c-4.3,0-6.1-3.4-6.1-7.8v-0.7
		c0-4.3,1.8-7.8,6.1-7.8C927.7,912,929.2,912.9,929.9,914.1z M929.9,924v-7.7c-0.6-1-1.9-2.4-4-2.4c-3,0-4.3,2.4-4.3,5.9v0.7
		c0,3.7,1.3,5.9,4.3,5.9C928.1,926.4,929.3,925.1,929.9,924z"/>
	<path d="M937.5,921.1c0.1,3.4,1.5,5.6,4.7,5.6c3.1,0,4.4-1.9,4.4-3.6h1.9v0.1c0,2.4-2.1,5.2-6.4,5.2c-4.7,0-6.8-3.6-6.8-7.8V920
		c0-4.3,2.1-7.8,6.7-7.8s6.5,3.6,6.5,7.8v1.2h-11.1V921.1z M937.5,919.3h9c-0.1-3.4-1.5-5.6-4.4-5.6
		C939.1,913.7,937.6,915.9,937.5,919.3z"/>
	<path d="M958.6,912v1.9h-0.4c-2.4,0-3.6,1.3-4.1,2.4V928H952v-11.3l-0.1-4.4h1.8l0.3,2.1c0.9-1.3,2.2-2.4,4.4-2.4
		C958.5,912,958.6,912,958.6,912z"/>
	<path d="M977.6,914.1v-9.8h2.1v19.2l0.1,4.4H978l-0.3-2.1c-0.7,1.3-2.2,2.4-4.6,2.4c-4.3,0-6.1-3.4-6.1-7.8v-0.7
		c0-4.3,1.8-7.8,6.1-7.8C975.2,912,976.7,912.9,977.6,914.1z M977.6,924v-7.7c-0.6-1-1.9-2.4-4-2.4c-3,0-4.3,2.4-4.3,5.9v0.7
		c0,3.7,1.3,5.9,4.3,5.9C975.7,926.4,976.8,925.1,977.6,924z"/>
	<path d="M986,908.6h-2.7V906h2.7V908.6z M983.7,912.3h2.1V928h-2.1V912.3z"/>
	<path d="M991.5,921.1c0.1,3.4,1.5,5.6,4.7,5.6c3.1,0,4.4-1.9,4.4-3.6h1.9v0.1c0,2.4-2.1,5.2-6.4,5.2c-4.7,0-6.8-3.6-6.8-7.8V920
		c0-4.3,2.1-7.8,6.7-7.8s6.5,3.6,6.5,7.8v1.2h-11.1V921.1z M991.5,919.3h9c-0.1-3.4-1.5-5.6-4.4-5.6
		C993,913.7,991.7,915.9,991.5,919.3z"/>
	<path d="M1011.6,911v-0.3c0-3.8,2.8-6.2,7.3-6.2c5.2,0,7.3,2.7,7.3,7.4v0.7h-2.1c0-4.4-1.5-6.2-5-6.2h-0.1c-2.8,0-4.9,1.5-4.9,4
		v0.3c0,2.5,1.3,3.8,5.5,4.4c5,0.7,7.1,2.7,7.1,6.2v0.3c0,4.1-3,6.5-7.6,6.5c-4.9,0-7.6-2.8-7.6-7.6v-0.1h2.1c0,4,2.2,5.9,5.3,5.9
		h0.1c3.1,0,5.2-1.6,5.2-4.4v-0.3c0-2.7-1.6-4.1-5.8-4.6C1013.4,916.3,1011.6,914.1,1011.6,911z"/>
	<path d="M1035.8,926.4c3,0,4-1.9,4-3.8h1.9v0.4c0,2.5-1.6,5.3-6.1,5.3c-4.6,0-6.5-3.4-6.5-7.8v-0.7c0-4.3,1.9-7.8,6.5-7.8
		c4.3,0,6.1,3,6.1,5.5v0.6h-1.9c0-2.4-1.2-4.1-4-4.1c-3.1,0-4.4,2.4-4.4,5.9v0.7C1031.3,924,1032.7,926.4,1035.8,926.4z"/>
	<path d="M1047.3,914.3c0.9-1.2,2.5-2.2,5-2.2c3.1,0,4.7,2.1,4.7,5v11h-2.1v-10.7c0-2.4-1.3-3.4-3.4-3.4c-2.5,0-3.7,1.3-4.3,2.4V928
		h-2.1v-23.7h2.1L1047.3,914.3L1047.3,914.3z"/>
	<path d="M1067.5,912v1.9h-0.4c-2.4,0-3.6,1.3-4.1,2.4V928h-2.1v-11.3l-0.1-4.4h1.8l0.3,2.1c0.9-1.3,2.2-2.4,4.4-2.4
		C1067.3,912,1067.5,912,1067.5,912z"/>
	<path d="M1073.2,908.6h-2.7V906h2.7V908.6z M1070.9,912.3h2.1V928h-2.1V912.3z"/>
	<path d="M1080.6,912.3h4.4v1.9h-4.4V928h-2.1v-13.8h-2.5v-1.9h2.5v-3.7c0-3.4,1.9-4.7,4.6-4.7c1.2,0,1.9,0.3,2.2,0.3v1.8
		c-0.3-0.1-1-0.3-1.6-0.3c-1.9,0-3,0.6-3,3.1v3.6H1080.6z"/>
	<path d="M1096.9,912.3v1.9h-5v9.2c0,2.5,1,3.1,3,3.1c0.6,0,1.5-0.1,1.6-0.3v1.8c-0.3,0.1-0.9,0.3-2.2,0.3c-2.7,0-4.6-1.3-4.6-4.7
		v-9.5h-2.5v-1.9h2.5v-4.4h2.1v4.4h5.2V912.3z"/>
	<path d="M1113.8,914.1h-3.6h-4.9v-1.9h11v1.5l-8.6,12.4h3.6h5.5v1.9h-11.5v-1.5L1113.8,914.1z"/>
	<path d="M1121.1,921.1c0.1,3.4,1.5,5.6,4.7,5.6c3.3,0,4.4-1.9,4.4-3.6h1.9v0.1c0,2.4-2.1,5.2-6.4,5.2c-4.7,0-6.8-3.6-6.8-7.8V920
		c0-4.3,2.1-7.8,6.7-7.8s6.5,3.6,6.5,7.8v1.2h-11.1V921.1z M1121.1,919.3h9c-0.1-3.4-1.5-5.6-4.4-5.6
		C1122.5,913.7,1121.2,915.9,1121.1,919.3z"/>
	<path d="M1138.1,908.6h-2.7V906h2.7V908.6z M1135.7,912.3h2.1V928h-2.1V912.3z"/>
	<path d="M1148,926.4c3,0,4-1.9,4-3.8h1.9v0.4c0,2.5-1.6,5.3-6.1,5.3c-4.6,0-6.5-3.4-6.5-7.8v-0.7c0-4.3,1.9-7.8,6.5-7.8
		c4.3,0,6.1,3,6.1,5.5v0.6h-1.9c0-2.4-1.2-4.1-4-4.1c-3.1,0-4.4,2.4-4.4,5.9v0.7C1143.6,924,1144.9,926.4,1148,926.4z"/>
	<path d="M1159.6,914.3c0.9-1.2,2.5-2.2,5-2.2c3.1,0,4.7,2.1,4.7,5v11h-2.1v-10.7c0-2.4-1.3-3.4-3.4-3.4c-2.5,0-3.7,1.3-4.3,2.4V928
		h-2.1v-23.7h2.1L1159.6,914.3L1159.6,914.3z"/>
	<path d="M1182.8,928v-10.7c0-2.4-1.3-3.4-3.4-3.4c-2.5,0-3.7,1.3-4.3,2.4V928h-2.1v-11.3l-0.1-4.4h1.8l0.3,2.2
		c0.9-1.3,2.5-2.5,5.3-2.5c3.1,0,4.7,2.1,4.7,5v11L1182.8,928L1182.8,928z"/>
	<path d="M1190.3,921.1c0.1,3.4,1.5,5.6,4.7,5.6s4.4-1.9,4.4-3.6h1.9v0.1c0,2.4-2.1,5.2-6.4,5.2c-4.7,0-6.8-3.6-6.8-7.8V920
		c0-4.3,2.1-7.8,6.7-7.8s6.5,3.6,6.5,7.8v1.2h-11.1V921.1z M1190.3,919.3h9c-0.1-3.4-1.5-5.6-4.4-5.6
		C1191.8,913.7,1190.3,915.9,1190.3,919.3z"/>
	<path d="M1213,912.3v1.9h-5v9.2c0,2.5,1,3.1,3,3.1c0.6,0,1.5-0.1,1.6-0.3v1.8c-0.3,0.1-0.9,0.3-2.2,0.3c-2.7,0-4.6-1.3-4.6-4.7
		v-9.5h-2.5v-1.9h2.5v-4.4h2.1v4.4h5.2V912.3z"/>
	<path d="M1217.9,921.1c0.1,3.4,1.5,5.6,4.7,5.6c3.1,0,4.4-1.9,4.4-3.6h1.9v0.1c0,2.4-2.1,5.2-6.4,5.2c-4.7,0-6.8-3.6-6.8-7.8V920
		c0-4.3,2.1-7.8,6.7-7.8s6.5,3.6,6.5,7.8v1.2h-11.1V921.1z M1217.9,919.3h9c-0.1-3.4-1.5-5.6-4.4-5.6
		C1219.4,913.7,1218,915.9,1217.9,919.3z"/>
	<path d="M1234.9,928h-2.7v-2.7h2.7V928z"/>
	<path d="M1251,928h-6.1v-23.1h6.1c5.6,0,8.9,3,8.9,11v1.2C1259.9,925.1,1256.7,928,1251,928z M1250.9,926.1c4.4,0,7-2.5,7-9v-1.2
		c0-6.5-2.5-9-7-9h-3.8v19.2L1250.9,926.1L1250.9,926.1z"/>
	<path d="M1265.3,921.1c0.1,3.4,1.5,5.6,4.7,5.6c3.1,0,4.4-1.9,4.4-3.6h1.9v0.1c0,2.4-2.1,5.2-6.4,5.2c-4.7,0-6.8-3.6-6.8-7.8V920
		c0-4.3,2.1-7.8,6.7-7.8s6.5,3.6,6.5,7.8v1.2h-11.1V921.1z M1265.3,919.3h9c-0.1-3.4-1.5-5.6-4.4-5.6
		C1266.7,913.7,1265.3,915.9,1265.3,919.3z"/>
	<path d="M1286.4,912v1.9h-0.4c-2.4,0-3.6,1.3-4.1,2.4V928h-2.1v-11.3l-0.1-4.4h1.8l0.3,2.1c0.9-1.3,2.2-2.4,4.4-2.4
		C1286.1,912,1286.4,912,1286.4,912z"/>
	<path d="M1294.9,911v-0.3c0-3.8,2.8-6.2,7.3-6.2c5.2,0,7.3,2.7,7.3,7.4v0.7h-2.1c0-4.4-1.5-6.2-5-6.2h-0.1c-2.8,0-4.9,1.5-4.9,4
		v0.3c0,2.5,1.3,3.8,5.5,4.4c5,0.7,7.1,2.7,7.1,6.2v0.3c0,4.1-3,6.5-7.6,6.5c-4.9,0-7.6-2.8-7.6-7.6v-0.1h2.1c0,4,2.2,5.9,5.3,5.9
		h0.1c3.1,0,5.2-1.6,5.2-4.4v-0.3c0-2.7-1.6-4.1-5.8-4.6C1296.8,916.3,1294.9,914.1,1294.9,911z"/>
	<path d="M1319.2,926.4c3,0,4-1.9,4-3.8h1.9v0.4c0,2.5-1.6,5.3-6.1,5.3c-4.6,0-6.5-3.4-6.5-7.8v-0.7c0-4.3,1.9-7.8,6.5-7.8
		c4.3,0,6.1,3,6.1,5.5v0.6h-1.9c0-2.4-1.2-4.1-4-4.1c-3.1,0-4.4,2.4-4.4,5.9v0.7C1314.6,924,1316,926.4,1319.2,926.4z"/>
	<path d="M1330.6,914.3c0.9-1.2,2.5-2.2,5-2.2c3.1,0,4.7,2.1,4.7,5v11h-2.1v-10.7c0-2.4-1.3-3.4-3.4-3.4c-2.5,0-3.7,1.3-4.3,2.4V928
		h-2.1v-23.7h2.1L1330.6,914.3L1330.6,914.3z"/>
	<path d="M1350.8,912v1.9h-0.4c-2.4,0-3.6,1.3-4.1,2.4V928h-2.1v-11.3l-0.1-4.4h1.8l0.3,2.1c0.9-1.3,2.2-2.4,4.4-2.4
		C1350.5,912,1350.7,912,1350.8,912z"/>
	<path d="M1356.6,908.6h-2.7V906h2.7V908.6z M1354.2,912.3h2.1V928h-2.1V912.3z"/>
	<path d="M1363.9,912.3h4.4v1.9h-4.4V928h-2.1v-13.8h-2.5v-1.9h2.5v-3.7c0-3.4,1.9-4.7,4.6-4.7c1.2,0,1.9,0.3,2.2,0.3v1.8
		c-0.3-0.1-1-0.3-1.6-0.3c-1.9,0-3,0.6-3,3.1v3.6H1363.9z"/>
	<path d="M1380.2,912.3v1.9h-5v9.2c0,2.5,1,3.1,3,3.1c0.6,0,1.5-0.1,1.6-0.3v1.8c-0.3,0.1-0.9,0.3-2.2,0.3c-2.7,0-4.6-1.3-4.6-4.7
		v-9.5h-2.5v-1.9h2.5v-4.4h2.1v4.4h5.2V912.3z"/>
	<path d="M1393.2,923.7c0-2.1-1.2-2.7-4.3-3c-4.3-0.3-5.5-1.8-5.5-4.1v-0.1c0-2.7,2.2-4.4,5.8-4.4c4.3,0,5.9,2.2,5.9,5.3v0.1h-2.1
		c0-2.2-0.9-3.7-3.8-3.7c-2.4,0-3.7,1-3.7,2.7s0.7,2.5,4.1,2.8c4,0.3,5.6,1.5,5.6,4.3v0.1c0,2.7-2.2,4.6-6.1,4.6
		c-4.4,0-6.1-2.7-6.1-5v-0.1h2.1c0,1.8,0.9,3.4,4,3.4C1391.9,926.6,1393.2,925.5,1393.2,923.7z"/>
	<path d="M1408.4,925.8c-1,1.3-2.8,2.5-5.5,2.5c-2.8,0-4.6-1.8-4.6-4.3v-0.3c0-3.4,2.5-4.4,5.2-4.7l4.7-0.7v-0.4
		c0-2.7-0.9-4.1-3.7-4.1c-3,0-3.7,1.8-3.7,3.7h-1.9v-0.3c0-2.4,1-5.2,5.6-5.2c4.3,0,5.6,2.4,5.6,5.8v5.8l0.1,4.4h-1.8L1408.4,925.8z
		 M1408.1,924v-4.3l-4.6,0.7c-2.1,0.3-3.3,1.3-3.3,3.1v0.3c0,1.3,0.9,2.7,3,2.7C1406.2,926.6,1407.5,924.9,1408.1,924z"/>
	<path d="M1422.2,912.3v1.9h-5v9.2c0,2.5,1,3.1,3,3.1c0.6,0,1.5-0.1,1.6-0.3v1.8c-0.3,0.1-0.9,0.3-2.2,0.3c-2.7,0-4.6-1.3-4.6-4.7
		v-9.5h-2.5v-1.9h2.5v-4.4h2.1v4.4h5.2V912.3z"/>
	<path d="M1433.3,914.1h-3.6h-4.9v-1.9h11v1.5l-8.6,12.4h3.6h5.5v1.9h-11.5v-1.5L1433.3,914.1z"/>
	<path d="M776.2,969.5h-2.7l-3.4-15.7h2.1l2.7,13.5l3.7-13.5h2.5l3.7,13.5l2.7-13.5h2.1l-3.4,15.7h-2.8l-3.6-13.3L776.2,969.5z"/>
	<path d="M794.3,953.8v10.7c0,2.4,1.3,3.4,3.4,3.4c2.5,0,3.7-1.3,4.3-2.4v-11.7h2.1v11.3l0.1,4.4h-1.8l-0.3-2.2
		c-0.9,1.3-2.5,2.5-5.2,2.5c-3.1,0-4.7-2.1-4.7-5v-11L794.3,953.8L794.3,953.8z"/>
	<path d="M814.7,953.5v1.9h-0.4c-2.4,0-3.6,1.3-4.1,2.4v11.7h-2.1v-11.3l-0.1-4.4h1.8l0.3,2.1c0.9-1.3,2.2-2.4,4.4-2.4
		C814.6,953.5,814.7,953.5,814.7,953.5z"/>
	<path d="M827.9,955.6v-9.8h2.1v19.2l0.1,4.4h-1.8l-0.3-2.1c-0.7,1.3-2.2,2.4-4.6,2.4c-4.3,0-6.1-3.4-6.1-7.8v-0.7
		c0-4.3,1.8-7.8,6.1-7.8C825.7,953.5,827.2,954.4,827.9,955.6z M827.9,965.5v-7.7c-0.6-1-1.9-2.4-4-2.4c-3,0-4.3,2.4-4.3,5.9v0.7
		c0,3.7,1.3,5.9,4.3,5.9C826.1,967.9,827.3,966.5,827.9,965.5z"/>
	<path d="M835.6,962.5c0.1,3.4,1.5,5.6,4.7,5.6c3.1,0,4.4-1.9,4.4-3.6h1.9v0.1c0,2.4-2.1,5.2-6.4,5.2c-4.7,0-6.8-3.6-6.8-7.8v-0.6
		c0-4.3,2.1-7.8,6.7-7.8s6.5,3.6,6.5,7.8v1.2h-11.1V962.5z M835.6,960.8h9c-0.1-3.4-1.5-5.6-4.4-5.6
		C837.1,955.1,835.6,957.4,835.6,960.8z"/>
	<path d="M855.7,958.5v-1.2c0-8,2.7-11.3,7.8-11.3c5.3,0,8,3.3,8,11.3v1.2c0,8-2.7,11.3-8,11.3C858.3,969.8,855.7,966.5,855.7,958.5
		z M863.7,967.9c3.8,0,5.6-2.8,5.6-9.3v-1.2c0-6.5-1.8-9.3-5.6-9.3h-0.1c-3.8,0-5.6,2.8-5.6,9.3v1.2c0,6.5,1.8,9.3,5.6,9.3H863.7z"
		/>
	<path d="M877.2,967.7v7.7h-2.1v-17.2l-0.1-4.4h1.8l0.3,2.1c0.9-1.3,2.2-2.5,4.7-2.5c4.3,0,6.1,3.4,6.1,7.8v0.7
		c0,4.3-1.8,7.8-6.1,7.8C879.6,969.8,878.1,968.9,877.2,967.7z M877.2,965.5c0.6,1,1.8,2.4,4,2.4c3,0,4.3-2.4,4.3-5.9v-0.7
		c0-3.7-1.3-5.9-4.3-5.9c-2.1,0-3.4,1.3-4,2.4V965.5z"/>
	<path d="M892.6,962.5c0.1,3.4,1.5,5.6,4.7,5.6s4.4-1.9,4.4-3.6h1.9v0.1c0,2.4-2.1,5.2-6.4,5.2c-4.7,0-6.8-3.6-6.8-7.8v-0.6
		c0-4.3,2.1-7.8,6.7-7.8s6.5,3.6,6.5,7.8v1.2h-11.1V962.5z M892.6,960.8h9c-0.1-3.4-1.5-5.6-4.4-5.6
		C894.2,955.1,892.8,957.4,892.6,960.8z"/>
	<path d="M917,969.5v-10.7c0-2.4-1.3-3.4-3.4-3.4c-2.5,0-3.7,1.3-4.3,2.4v11.7h-2.1v-11.3l-0.1-4.4h1.8l0.3,2.2
		c0.9-1.3,2.5-2.5,5.3-2.5c3.1,0,4.7,2.1,4.7,5v11L917,969.5L917,969.5z"/>
	<path d="M928.4,952.5v-0.3c0-3.8,2.8-6.2,7.3-6.2c5.2,0,7.3,2.7,7.3,7.4v0.7h-2.1c0-4.4-1.5-6.2-5-6.2h-0.1c-2.8,0-4.9,1.5-4.9,4
		v0.3c0,2.5,1.3,3.8,5.5,4.4c5,0.7,7.1,2.7,7.1,6.2v0.3c0,4.1-3,6.5-7.6,6.5c-4.9,0-7.6-2.8-7.6-7.6v-0.1h2.1c0,4,2.2,5.9,5.3,5.9
		h0.1c3.1,0,5.2-1.6,5.2-4.4v-0.3c0-2.7-1.6-4.1-5.8-4.6C930.2,957.8,928.4,955.6,928.4,952.5z"/>
	<path d="M946.1,961.9v-0.7c0-4.3,1.9-7.8,6.7-7.8c4.6,0,6.7,3.4,6.7,7.8v0.7c0,4.3-1.9,7.8-6.7,7.8
		C948,969.8,946.1,966.4,946.1,961.9z M957.2,961.9v-0.7c0-3.6-1.3-5.9-4.4-5.9c-3.1,0-4.4,2.4-4.4,5.9v0.7c0,3.6,1.3,5.9,4.4,5.9
		C955.8,967.9,957.2,965.5,957.2,961.9z"/>
	<path d="M964.6,953.8v10.7c0,2.4,1.3,3.4,3.4,3.4c2.5,0,3.7-1.3,4.3-2.4v-11.7h2.1v11.3l0.1,4.4h-1.8l-0.3-2.2
		c-0.9,1.3-2.5,2.5-5.2,2.5c-3.1,0-4.7-2.1-4.7-5v-11L964.6,953.8L964.6,953.8z"/>
	<path d="M985,953.5v1.9h-0.4c-2.4,0-3.6,1.3-4.1,2.4v11.7h-2.1v-11.3l-0.1-4.4h1.8l0.3,2.1c0.9-1.3,2.2-2.4,4.4-2.4
		C984.7,953.5,985,953.5,985,953.5z"/>
	<path d="M993.6,967.9c3,0,4-1.9,4-3.8h1.9v0.4c0,2.5-1.6,5.3-6.1,5.3c-4.6,0-6.5-3.4-6.5-7.8v-0.7c0-4.3,1.9-7.8,6.5-7.8
		c4.3,0,6.1,3,6.1,5.5v0.6h-1.9c0-2.4-1.2-4.1-4-4.1c-3.1,0-4.4,2.4-4.4,5.9v0.7C989,965.5,990.3,967.9,993.6,967.9z"/>
	<path d="M1004.5,962.5c0.1,3.4,1.5,5.6,4.7,5.6c3.1,0,4.4-1.9,4.4-3.6h1.9v0.1c0,2.4-2.1,5.2-6.4,5.2c-4.7,0-6.8-3.6-6.8-7.8v-0.6
		c0-4.3,2.1-7.8,6.7-7.8s6.5,3.6,6.5,7.8v1.2h-11.1V962.5z M1004.5,960.8h9c-0.1-3.4-1.5-5.6-4.4-5.6
		C1006,955.1,1004.5,957.4,1004.5,960.8z"/>
	<path d="M1026.4,962.5c0.1,3.4,1.5,5.6,4.7,5.6c3.1,0,4.4-1.9,4.4-3.6h1.9v0.1c0,2.4-2.1,5.2-6.4,5.2c-4.7,0-6.8-3.6-6.8-7.8v-0.6
		c0-4.3,2.1-7.8,6.7-7.8s6.5,3.6,6.5,7.8v1.2h-11.1V962.5z M1026.4,960.8h9c-0.1-3.4-1.5-5.6-4.4-5.6
		C1028.1,955.1,1026.6,957.4,1026.4,960.8z"/>
	<path d="M1050.9,969.5v-10.7c0-2.4-1.3-3.4-3.4-3.4c-2.5,0-3.7,1.3-4.3,2.4v11.7h-2.1v-11.3l-0.1-4.4h1.8l0.3,2.2
		c0.9-1.3,2.5-2.5,5.3-2.5c3.1,0,4.7,2.1,4.7,5v11L1050.9,969.5L1050.9,969.5z"/>
	<path d="M1064.8,953.8v1.9h-5v9.2c0,2.5,1,3.1,3,3.1c0.6,0,1.5-0.1,1.6-0.3v1.8c-0.3,0.1-0.9,0.3-2.2,0.3c-2.7,0-4.6-1.3-4.6-4.7
		v-9.5h-2.5v-1.9h2.5v-4.4h2.1v4.4h5.2V953.8z"/>
	<path d="M1073.2,969.5h-2.7l-3.4-15.7h2.1l2.7,13.5l3.7-13.5h2.5l3.7,13.5l2.7-13.5h2.1l-3.4,15.7h-2.8l-3.6-13.3L1073.2,969.5z"/>
	<path d="M1091.9,950.1h-2.7v-2.7h2.7V950.1z M1089.5,953.8h2.1v15.7h-2.1V953.8z"/>
	<path d="M1101.8,967.9c3,0,4-1.9,4-3.8h1.9v0.4c0,2.5-1.6,5.3-6.1,5.3c-4.6,0-6.5-3.4-6.5-7.8v-0.7c0-4.3,1.9-7.8,6.5-7.8
		c4.3,0,6.1,3,6.1,5.5v0.6h-1.9c0-2.4-1.2-4.1-4-4.1c-3.1,0-4.4,2.4-4.4,5.9v0.7C1097.4,965.5,1098.7,967.9,1101.8,967.9z"/>
	<path d="M1111.1,945.8h2.1v16.3l7.4-8.3h2.5l-5.3,5.9l5.3,9.8h-2.4l-4.4-8.1l-3.3,3.6v4.6h-2.1v-23.7H1111.1z"/>
	<path d="M1126.8,962.5c0.1,3.4,1.5,5.6,4.7,5.6c3.1,0,4.4-1.9,4.4-3.6h1.9v0.1c0,2.4-2.1,5.2-6.4,5.2c-4.7,0-6.8-3.6-6.8-7.8v-0.6
		c0-4.3,2.1-7.8,6.7-7.8s6.5,3.6,6.5,7.8v1.2h-11.1V962.5z M1126.8,960.8h9c-0.1-3.4-1.5-5.6-4.4-5.6
		C1128.3,955.1,1126.8,957.4,1126.8,960.8z"/>
	<path d="M1141.5,945.8h2.1v23.7h-2.1V945.8z"/>
	<path d="M1156.1,953.8v1.9h-5v9.2c0,2.5,1,3.1,3,3.1c0.6,0,1.5-0.1,1.6-0.3v1.8c-0.3,0.1-0.9,0.3-2.2,0.3c-2.7,0-4.6-1.3-4.6-4.7
		v-9.5h-2.5v-1.9h2.5v-4.4h2.1v4.4h5.2V953.8z"/>
	<path d="M1162.1,968.9c0,2.7-1.2,4-3.4,4v-1.2c1.2,0,1.9-0.6,2.1-2.2h-1.3v-2.7h2.7V968.9z"/>
	<path d="M1173.8,953.8v10.7c0,2.4,1.3,3.4,3.4,3.4c2.5,0,3.7-1.3,4.3-2.4v-11.7h2.1v11.3l0.1,4.4h-1.8l-0.3-2.2
		c-0.9,1.3-2.5,2.5-5.2,2.5c-3.1,0-4.7-2.1-4.7-5v-11L1173.8,953.8L1173.8,953.8z"/>
	<path d="M1205.4,969.5v-11.1c0-2.4-1.2-3.1-3-3.1c-2.2,0-3.3,1.3-3.8,2.4v11.8h-2.1v-11.1c0-2.4-1.2-3.1-3-3.1
		c-2.2,0-3.3,1.3-3.8,2.4v11.8h-2.1v-11.3l-0.1-4.4h1.8l0.3,2.1c0.9-1.3,2.4-2.5,4.9-2.5c2.1,0,3.4,0.9,4,2.7
		c0.9-1.5,2.4-2.7,4.9-2.7c2.8,0,4.4,1.6,4.4,4.6v11.4h-2.4V969.5z"/>
	<path d="M1227.2,955.6v-9.8h2.1v19.2l0.1,4.4h-1.8l-0.3-2.1c-0.7,1.3-2.2,2.4-4.6,2.4c-4.3,0-6.1-3.4-6.1-7.8v-0.7
		c0-4.3,1.8-7.8,6.1-7.8C1225,953.5,1226.3,954.4,1227.2,955.6z M1227.2,965.5v-7.7c-0.6-1-1.9-2.4-4-2.4c-3,0-4.3,2.4-4.3,5.9v0.7
		c0,3.7,1.3,5.9,4.3,5.9C1225.4,967.9,1226.6,966.5,1227.2,965.5z"/>
	<path d="M1235.8,950.1h-2.7v-2.7h2.7V950.1z M1233.4,953.8h2.1v15.7h-2.1V953.8z"/>
	<path d="M1241.3,962.5c0.1,3.4,1.5,5.6,4.7,5.6c3.1,0,4.4-1.9,4.4-3.6h1.9v0.1c0,2.4-2.1,5.2-6.4,5.2c-4.7,0-6.8-3.6-6.8-7.8v-0.6
		c0-4.3,2.1-7.8,6.7-7.8s6.5,3.6,6.5,7.8v1.2h-11.1V962.5z M1241.3,960.8h9c-0.1-3.4-1.5-5.6-4.4-5.6
		C1242.8,955.1,1241.3,957.4,1241.3,960.8z"/>
	<path d="M1264.2,969.5h-2.1v-23.1h2.1V969.5z"/>
	<path d="M1278.4,955.6v-9.8h2.1v19.2l0.1,4.4h-1.8l-0.3-2.1c-0.7,1.3-2.2,2.4-4.6,2.4c-4.3,0-6.1-3.4-6.1-7.8v-0.7
		c0-4.3,1.8-7.8,6.1-7.8C1276.2,953.5,1277.6,954.4,1278.4,955.6z M1278.4,965.5v-7.7c-0.6-1-1.9-2.4-4-2.4c-3,0-4.3,2.4-4.3,5.9
		v0.7c0,3.7,1.3,5.9,4.3,5.9C1276.7,967.9,1277.8,966.5,1278.4,965.5z"/>
	<path d="M1286,962.5c0.1,3.4,1.5,5.6,4.7,5.6c3.1,0,4.4-1.9,4.4-3.6h1.9v0.1c0,2.4-2.1,5.2-6.4,5.2c-4.7,0-6.8-3.6-6.8-7.8v-0.6
		c0-4.3,2.1-7.8,6.7-7.8s6.5,3.6,6.5,7.8v1.2H1286V962.5z M1286,960.8h9c-0.1-3.4-1.5-5.6-4.4-5.6
		C1287.6,955.1,1286.1,957.4,1286,960.8z"/>
	<path d="M1310.4,969.5v-10.7c0-2.4-1.3-3.4-3.4-3.4c-2.5,0-3.7,1.3-4.3,2.4v11.7h-2.1v-11.3l-0.1-4.4h1.8l0.3,2.2
		c0.9-1.3,2.5-2.5,5.3-2.5c3.1,0,4.7,2.1,4.7,5v11L1310.4,969.5L1310.4,969.5z"/>
	<path d="M1324.3,953.8v1.9h-5v9.2c0,2.5,1,3.1,3,3.1c0.6,0,1.5-0.1,1.6-0.3v1.8c-0.3,0.1-0.9,0.3-2.2,0.3c-2.7,0-4.6-1.3-4.6-4.7
		v-9.5h-2.5v-1.9h2.5v-4.4h2.1v4.4h5.2V953.8z"/>
	<path d="M1330.3,950.1h-2.7v-2.7h2.7V950.1z M1327.9,953.8h2.1v15.7h-2.1V953.8z"/>
	<path d="M1342.5,953.8v1.9h-5v9.2c0,2.5,1,3.1,3,3.1c0.6,0,1.5-0.1,1.6-0.3v1.8c-0.3,0.1-0.9,0.3-2.2,0.3c-2.7,0-4.6-1.3-4.6-4.7
		v-9.5h-2.5v-1.9h2.5v-4.4h2.1v4.4h5.2V953.8z"/>
	<path d="M1355.4,967.3c-1,1.3-2.8,2.5-5.5,2.5c-2.8,0-4.6-1.8-4.6-4.3v-0.3c0-3.4,2.5-4.4,5.2-4.7l4.7-0.7v-0.4
		c0-2.7-0.9-4.1-3.7-4.1c-3,0-3.7,1.8-3.7,3.7h-1.9v-0.3c0-2.4,1-5.2,5.6-5.2c4.3,0,5.6,2.4,5.6,5.8v5.8l0.1,4.4h-1.8L1355.4,967.3z
		 M1355.1,965.5v-4.3l-4.6,0.7c-2.1,0.3-3.3,1.3-3.3,3.1v0.3c0,1.3,0.9,2.7,3,2.7C1353.2,968,1354.5,966.4,1355.1,965.5z
		 M1350.4,950h-2.5v-2.7h2.5V950z M1355.3,950h-2.5v-2.7h2.5V950z"/>
	<path d="M1369.2,953.8v1.9h-5v9.2c0,2.5,1,3.1,3,3.1c0.6,0,1.5-0.1,1.6-0.3v1.8c-0.3,0.1-0.9,0.3-2.2,0.3c-2.7,0-4.6-1.3-4.6-4.7
		v-9.5h-2.5v-1.9h2.5v-4.4h2.1v4.4h5.2V953.8z"/>
	<path d="M1388.4,955.6v-9.8h2.1v19.2l0.1,4.4h-1.8l-0.3-2.1c-0.7,1.3-2.2,2.4-4.6,2.4c-4.3,0-6.1-3.4-6.1-7.8v-0.7
		c0-4.3,1.8-7.8,6.1-7.8C1386.2,953.5,1387.7,954.4,1388.4,955.6z M1388.4,965.5v-7.7c-0.6-1-1.9-2.4-4-2.4c-3,0-4.3,2.4-4.3,5.9
		v0.7c0,3.7,1.3,5.9,4.3,5.9C1386.7,967.9,1387.9,966.5,1388.4,965.5z"/>
	<path d="M1396.1,962.5c0.1,3.4,1.5,5.6,4.7,5.6c3.1,0,4.4-1.9,4.4-3.6h1.9v0.1c0,2.4-2.1,5.2-6.4,5.2c-4.7,0-6.8-3.6-6.8-7.8v-0.6
		c0-4.3,2.1-7.8,6.7-7.8s6.5,3.6,6.5,7.8v1.2h-11.1V962.5z M1396.1,960.8h9c-0.1-3.4-1.5-5.6-4.4-5.6
		C1397.6,955.1,1396.1,957.4,1396.1,960.8z"/>
	<path d="M1420.3,965.2c0-2.1-1.2-2.7-4.3-3c-4.3-0.3-5.5-1.8-5.5-4.1v-0.1c0-2.7,2.2-4.4,5.8-4.4c4.3,0,5.9,2.2,5.9,5.3v0.1h-2.1
		c0-2.2-0.9-3.7-3.8-3.7c-2.4,0-3.7,1-3.7,2.7s0.7,2.5,4.1,2.8c4,0.3,5.6,1.5,5.6,4.3v0.1c0,2.7-2.2,4.6-6.1,4.6
		c-4.4,0-6.1-2.7-6.1-5v-0.1h2.1c0,1.8,0.9,3.4,4,3.4C1418.9,968,1420.3,967,1420.3,965.2z"/>
	<path d="M777.3,987.9c3.8,0,7,1.6,7,5.8v0.6c0,2.7-1.5,4-3.4,4.7c2.4,0.7,4,2.2,4,5.2v0.6c0,4.4-3.3,6.1-7.1,6.1h-6.4v-23.1h5.9
		V987.9z M773.6,989.8v8.3h3.8c2.5,0,4.7-1,4.7-4v-0.4c0-2.8-2.2-4-4.7-4h-3.8V989.8z M773.6,1000v9h4.3c2.7,0,4.7-1.2,4.7-4.3v-0.4
		c0-3-2.2-4.3-4.7-4.3L773.6,1000L773.6,1000z"/>
	<path d="M795.2,995v1.9h-0.4c-2.4,0-3.6,1.3-4.1,2.4v11.7h-2.1v-11.3l-0.1-4.4h1.8l0.3,2.1c0.9-1.3,2.2-2.4,4.4-2.4
		C795,995,795.2,995,795.2,995z"/>
	<path d="M807.2,1008.7c-1,1.3-2.8,2.5-5.5,2.5c-2.8,0-4.6-1.8-4.6-4.3v-0.3c0-3.4,2.5-4.4,5.2-4.7l4.7-0.7v-0.4
		c0-2.7-0.9-4.1-3.7-4.1c-3,0-3.7,1.8-3.7,3.7h-1.9v-0.3c0-2.4,1-5.2,5.6-5.2c4.3,0,5.6,2.4,5.6,5.8v5.8l0.1,4.4h-1.8L807.2,1008.7z
		 M807,1007v-4.3l-4.6,0.7c-2.1,0.3-3.3,1.3-3.3,3.1v0.3c0,1.3,0.9,2.7,3,2.7C805.1,1009.5,806.4,1007.8,807,1007z"/>
	<path d="M822.7,1010.9v-10.7c0-2.4-1.3-3.4-3.4-3.4c-2.5,0-3.7,1.3-4.3,2.4v11.7h-2.1v-11.3l-0.1-4.4h1.8l0.3,2.2
		c0.9-1.3,2.5-2.5,5.3-2.5c3.1,0,4.7,2.1,4.7,5v11L822.7,1010.9L822.7,1010.9z"/>
	<path d="M838.6,997v-9.8h2.1v19.2l0.1,4.4H839l-0.3-2.1c-0.7,1.3-2.2,2.4-4.6,2.4c-4.3,0-6.1-3.4-6.1-7.8v-0.7
		c0-4.3,1.8-7.8,6.1-7.8C836.3,995,837.7,995.8,838.6,997z M838.6,1007v-7.7c-0.6-1-1.9-2.4-4-2.4c-3,0-4.3,2.4-4.3,5.9v0.7
		c0,3.7,1.3,5.9,4.3,5.9C836.6,1009.3,837.8,1008,838.6,1007z"/>
	<path d="M854.3,1006.7c0-2.1-1.2-2.7-4.3-3c-4.3-0.3-5.5-1.8-5.5-4.1v-0.1c0-2.7,2.2-4.4,5.8-4.4c4.3,0,5.9,2.2,5.9,5.3v0.1h-2.1
		c0-2.2-0.9-3.7-3.8-3.7c-2.4,0-3.7,1-3.7,2.7s0.7,2.5,4.1,2.8c4,0.3,5.6,1.5,5.6,4.3v0.1c0,2.7-2.2,4.6-6.1,4.6
		c-4.4,0-6.1-2.7-6.1-5v-0.1h2.1c0,1.8,0.9,3.4,4,3.4C852.8,1009.5,854.3,1008.4,854.3,1006.7z"/>
	<path d="M871.4,997.5l-4.4,3.4l4.4,3.4v2.1l-6.1-4.6v-1.8l6.1-4.6V997.5z M877.8,997.5l-4.4,3.4l4.4,3.4v2.1l-6.1-4.6v-1.8l6.1-4.6
		V997.5z"/>
	<path d="M888.8,1009.3h0.1c3.4,0,4.9-2.1,4.9-5.9h2.2v0.3c0,4.9-2.4,7.6-7.3,7.6c-5.3,0-7.8-3.3-7.8-11.3v-1.2
		c0-8,2.5-11.3,7.8-11.3c4.9,0,7.3,2.7,7.3,7.8v0.9h-2.2c0-4.7-1.5-6.8-4.9-6.8h-0.1c-3.8,0-5.6,2.8-5.6,9.3v1.2
		C883.1,1006.5,884.9,1009.3,888.8,1009.3z"/>
	<path d="M899,1003.4v-0.7c0-4.3,1.9-7.8,6.7-7.8c4.6,0,6.7,3.4,6.7,7.8v0.7c0,4.3-1.9,7.8-6.7,7.8S899,1007.8,899,1003.4z
		 M910.1,1003.4v-0.7c0-3.6-1.3-5.9-4.4-5.9s-4.4,2.4-4.4,5.9v0.7c0,3.6,1.3,5.9,4.4,5.9S910.1,1007,910.1,1003.4z"/>
	<path d="M915.1,1003.4v-0.7c0-4.3,1.9-7.8,6.7-7.8s6.7,3.4,6.7,7.8v0.7c0,4.3-1.9,7.8-6.7,7.8S915.1,1007.8,915.1,1003.4z
		 M926.2,1003.4v-0.7c0-3.6-1.3-5.9-4.4-5.9s-4.4,2.4-4.4,5.9v0.7c0,3.6,1.3,5.9,4.4,5.9C924.9,1009.3,926.2,1007,926.2,1003.4z"/>
	<path d="M933.8,1009.2v7.7h-2.1v-17.2l-0.1-4.4h1.8l0.3,2.1c0.9-1.3,2.2-2.5,4.7-2.5c4.3,0,6.1,3.4,6.1,7.8v0.7
		c0,4.3-1.8,7.8-6.1,7.8C936,1011.2,934.7,1010.4,933.8,1009.2z M933.8,1007c0.6,1,1.8,2.4,4,2.4c3,0,4.3-2.4,4.3-5.9v-0.7
		c0-3.7-1.3-5.9-4.3-5.9c-2.1,0-3.4,1.3-4,2.4V1007z"/>
	<path d="M949.2,1004c0.1,3.4,1.5,5.6,4.7,5.6c3.1,0,4.4-1.9,4.4-3.6h1.9v0.1c0,2.4-2.1,5.2-6.4,5.2c-4.7,0-6.8-3.6-6.8-7.8v-0.6
		c0-4.3,2.1-7.8,6.7-7.8s6.5,3.6,6.5,7.8v1.2h-11.1V1004z M949.2,1002.2h9c-0.1-3.4-1.5-5.6-4.4-5.6
		C950.8,996.6,949.3,998.8,949.2,1002.2z"/>
	<path d="M970.3,995v1.9h-0.4c-2.4,0-3.6,1.3-4.1,2.4v11.7h-2.1v-11.3l-0.1-4.4h1.8l0.3,2.1c0.9-1.3,2.2-2.4,4.4-2.4
		C970.2,995,970.3,995,970.3,995z"/>
	<path d="M994,987.9v23.1h-2.1v-10.8h-10.2v10.8h-2.4v-23.1h2.1v10.4h10.2v-10.4H994z"/>
	<path d="M999.6,1004c0.1,3.4,1.5,5.6,4.7,5.6c3.1,0,4.4-1.9,4.4-3.6h1.9v0.1c0,2.4-2.1,5.2-6.4,5.2c-4.7,0-6.8-3.6-6.8-7.8v-0.6
		c0-4.3,2.1-7.8,6.7-7.8s6.5,3.6,6.5,7.8v1.2h-11.1V1004z M999.6,1002.2h9c-0.1-3.4-1.5-5.6-4.4-5.6
		C1001.3,996.6,999.8,998.8,999.6,1002.2z"/>
	<path d="M1018.9,1010.9h-2.7l-3.4-15.7h2.1l2.7,13.5l3.7-13.5h2.5l3.7,13.5l2.7-13.5h2.1l-3.4,15.7h-2.8l-3.6-13.3L1018.9,1010.9z"
		/>
	<path d="M1037.7,991.6h-2.7v-2.7h2.7V991.6z M1035.3,995.3h2.1v15.7h-2.1V995.3z"/>
	<path d="M1050,995.3v1.9h-5v9.2c0,2.5,1,3.1,3,3.1c0.6,0,1.5-0.1,1.6-0.3v1.8c-0.3,0.1-0.9,0.3-2.2,0.3c-2.7,0-4.6-1.3-4.6-4.7V997
		h-2.5v-1.9h2.5v-4.4h2.1v4.4h5.2V995.3z"/>
	<path d="M1061.8,995.3v1.9h-5v9.2c0,2.5,1,3.1,3,3.1c0.6,0,1.5-0.1,1.6-0.3v1.8c-0.3,0.1-0.9,0.3-2.2,0.3c-2.7,0-4.6-1.3-4.6-4.7
		V997h-2.5v-1.9h2.5v-4.4h2.1v4.4h5.2V995.3z"/>
	<path d="M1064.6,995.4l6.1,4.6v1.8l-6.1,4.6v-2.1l4.4-3.4l-4.4-3.4V995.4z M1071,995.4l6.1,4.6v1.8l-6.1,4.6v-2.1l4.4-3.4l-4.4-3.4
		V995.4z"/>
	<path d="M1094.1,997h-3.6h-4.9v-1.9h11v1.5l-8.6,12.4h3.6h5.5v1.9h-11.5v-1.5L1094.1,997z"/>
	<path d="M1102,995.3v10.7c0,2.4,1.3,3.4,3.4,3.4c2.5,0,3.7-1.3,4.3-2.4v-11.7h2.1v11.3l0.1,4.4h-1.8l-0.3-2.2
		c-0.9,1.3-2.5,2.5-5.2,2.5c-3.1,0-4.7-2.1-4.7-5v-11L1102,995.3L1102,995.3z"/>
	<path d="M1123.6,995.3v10.7c0,2.4,1.3,3.4,3.4,3.4c2.5,0,3.7-1.3,4.3-2.4v-11.7h2.1v11.3l0.1,4.4h-1.8l-0.3-2.2
		c-0.9,1.3-2.5,2.5-5.2,2.5c-3.1,0-4.7-2.1-4.7-5v-11L1123.6,995.3L1123.6,995.3z"/>
	<path d="M1147.1,1010.9v-10.7c0-2.4-1.3-3.4-3.4-3.4c-2.5,0-3.7,1.3-4.3,2.4v11.7h-2.1v-11.3l-0.1-4.4h1.8l0.3,2.2
		c0.9-1.3,2.5-2.5,5.3-2.5c3.1,0,4.7,2.1,4.7,5v11L1147.1,1010.9L1147.1,1010.9z"/>
	<path d="M1161.2,995.3v1.9h-5v9.2c0,2.5,1,3.1,3,3.1c0.6,0,1.5-0.1,1.6-0.3v1.8c-0.3,0.1-0.9,0.3-2.2,0.3c-2.7,0-4.6-1.3-4.6-4.7
		V997h-2.5v-1.9h2.5v-4.4h2.1v4.4h5.2V995.3z"/>
	<path d="M1166.1,1004c0.1,3.4,1.5,5.6,4.7,5.6c3.1,0,4.4-1.9,4.4-3.6h1.9v0.1c0,2.4-2.1,5.2-6.4,5.2c-4.7,0-6.8-3.6-6.8-7.8v-0.6
		c0-4.3,2.1-7.8,6.7-7.8s6.5,3.6,6.5,7.8v1.2h-11.1V1004z M1166.1,1002.2h9c-0.1-3.4-1.5-5.6-4.4-5.6
		C1167.5,996.6,1166.1,998.8,1166.1,1002.2z"/>
	<path d="M1187.2,995v1.9h-0.4c-2.4,0-3.6,1.3-4.1,2.4v11.7h-2.1v-11.3l-0.1-4.4h1.8l0.3,2.1c0.9-1.3,2.2-2.4,4.4-2.4
		C1186.9,995,1187.2,995,1187.2,995z"/>
	<path d="M1199.4,1006.7c0-2.1-1.2-2.7-4.3-3c-4.3-0.3-5.5-1.8-5.5-4.1v-0.1c0-2.7,2.2-4.4,5.8-4.4c4.3,0,5.9,2.2,5.9,5.3v0.1h-2.1
		c0-2.2-0.9-3.7-3.8-3.7c-2.4,0-3.7,1-3.7,2.7s0.7,2.5,4.1,2.8c4,0.3,5.6,1.5,5.6,4.3v0.1c0,2.7-2.2,4.6-6.1,4.6
		c-4.4,0-6.1-2.7-6.1-5v-0.1h2.1c0,1.8,0.9,3.4,4,3.4C1198,1009.5,1199.4,1008.4,1199.4,1006.7z"/>
	<path d="M1213.3,995.3v1.9h-5v9.2c0,2.5,1,3.1,3,3.1c0.6,0,1.5-0.1,1.6-0.3v1.8c-0.3,0.1-0.9,0.3-2.2,0.3c-2.7,0-4.6-1.3-4.6-4.7
		V997h-2.5v-1.9h2.5v-4.4h2.1v4.4h5.2V995.3z"/>
	<path d="M1223.4,995v1.9h-0.4c-2.4,0-3.6,1.3-4.1,2.4v11.7h-2.1v-11.3l-0.1-4.4h1.8l0.3,2.1c0.9-1.3,2.2-2.4,4.4-2.4
		C1223.1,995,1223.4,995,1223.4,995z"/>
	<path d="M1227.4,1004c0.1,3.4,1.5,5.6,4.7,5.6c3.1,0,4.4-1.9,4.4-3.6h1.9v0.1c0,2.4-2.1,5.2-6.4,5.2c-4.7,0-6.8-3.6-6.8-7.8v-0.6
		c0-4.3,2.1-7.8,6.7-7.8s6.5,3.6,6.5,7.8v1.2h-11.1V1004z M1227.4,1002.2h9c-0.1-3.4-1.5-5.6-4.4-5.6
		C1229,996.6,1227.5,998.8,1227.4,1002.2z"/>
	<path d="M1244.5,991.6h-2.7v-2.7h2.7V991.6z M1242.2,995.3h2.1v15.7h-2.1V995.3z"/>
	<path d="M1254.3,1009.3c3,0,4-1.9,4-3.8h1.9v0.4c0,2.5-1.6,5.3-6.1,5.3c-4.6,0-6.5-3.4-6.5-7.8v-0.7c0-4.3,1.9-7.8,6.5-7.8
		c4.3,0,6.1,3,6.1,5.5v0.6h-1.9c0-2.4-1.2-4.1-4-4.1c-3.1,0-4.4,2.4-4.4,5.9v0.7C1249.9,1007,1251.2,1009.3,1254.3,1009.3z"/>
	<path d="M1265.9,997.2c0.9-1.2,2.5-2.2,5-2.2c3.1,0,4.7,2.1,4.7,5v11h-2.1v-10.7c0-2.4-1.3-3.4-3.4-3.4c-2.5,0-3.7,1.3-4.3,2.4
		v11.7h-2.1v-23.7h2.1L1265.9,997.2L1265.9,997.2z"/>
	<path d="M1281,1004c0.1,3.4,1.5,5.6,4.7,5.6c3.1,0,4.4-1.9,4.4-3.6h1.9v0.1c0,2.4-2.1,5.2-6.4,5.2c-4.7,0-6.8-3.6-6.8-7.8v-0.6
		c0-4.3,2.1-7.8,6.7-7.8s6.5,3.6,6.5,7.8v1.2H1281V1004z M1281,1002.2h9c-0.1-3.4-1.5-5.6-4.4-5.6
		C1282.6,996.6,1281.1,998.8,1281,1002.2z"/>
	<path d="M1305.2,1010.9v-10.7c0-2.4-1.3-3.4-3.4-3.4c-2.5,0-3.7,1.3-4.3,2.4v11.7h-2.1v-11.3l-0.1-4.4h1.8l0.3,2.2
		c0.9-1.3,2.5-2.5,5.3-2.5c3.1,0,4.7,2.1,4.7,5v11L1305.2,1010.9L1305.2,1010.9z"/>
	<path d="M1313.7,1010.9h-2.7v-2.7h2.7V1010.9z"/>
</g>
</svg>
