<?xml version="1.0" encoding="utf-8"?>
<!-- Generator: Adobe Illustrator 22.1.0, SVG Export Plug-In . SVG Version: 6.00 Build 0)  -->
<svg version="1.1" id="Ebene_1" xmlns="http://www.w3.org/2000/svg" xmlns:xlink="http://www.w3.org/1999/xlink" x="0px" y="0px"
	 viewBox="0 0 375 600" style="enable-background:new 0 0 375 600;" xml:space="preserve">
<g>
	<path d="M56,75.9c13.7,0,20,7.1,20,24.2v1.8h-1.8c0-18-5.5-24.2-17.9-24.2h-0.6c-13.5,0-20.6,8.9-20.6,32.4v3.6
		c0,23.5,7.2,32.4,20.6,32.4h0.6c11.4,0,17.9-6.4,17.9-21.5H76v1.3c0,13.2-6,22-20,22c-15,0-22.8-9.7-22.8-34.2v-3.6
		C33.3,85.5,41,75.9,56,75.9z"/>
	<path d="M86.3,124.2v-1.8c0-14.7,6.7-23.8,18.9-23.8s18.9,9,18.9,23.8v1.8c0,14.7-6.7,23.8-18.9,23.8S86.3,139,86.3,124.2z
		 M122.4,124.2v-1.8c0-13.5-6-21.9-17.1-21.9s-17.1,8.5-17.1,21.9v1.8c0,13.5,6,21.9,17.1,21.9C116.4,146.1,122.4,137.7,122.4,124.2
		z"/>
	<path d="M134.2,124.2v-1.8c0-14.7,6.7-23.8,18.9-23.8c12.2,0,18.9,9,18.9,23.8v1.8c0,14.7-6.7,23.8-18.9,23.8
		C140.9,148,134.2,139,134.2,124.2z M170.3,124.2v-1.8c0-13.5-6-21.9-17.1-21.9s-17.1,8.5-17.1,21.9v1.8c0,13.5,6,21.9,17.1,21.9
		S170.3,137.7,170.3,124.2z"/>
	<path d="M185.3,140.6v25h-1.8v-55.5L183,99.2h1.4l0.6,7.2c2.2-3.2,7.1-7.7,15-7.7c12.2,0,18.5,9,18.5,23.8v1.8
		c0,14.7-6.3,23.8-18.5,23.8C192.4,148,187.7,143.8,185.3,140.6z M185.3,137.7c2.4,3.7,6.9,8.5,14.7,8.5c11.1,0,16.7-8.5,16.7-21.9
		v-1.8c0-13.5-5.6-21.9-16.7-21.9c-7.8,0-12.3,4.7-14.7,8.5V137.7z"/>
	<path d="M230.3,124.2c0,12.7,5.4,21.9,17.8,21.9c12.4,0,16.8-7.7,16.8-14.2h1.8v0.5c0,6.8-5.3,15.6-18.7,15.6
		c-13.7,0-19.6-10.5-19.6-23.8v-1.8c0-13.3,5.6-23.8,19.1-23.8c13.5,0,19.1,10.5,19.1,23.8v1.8L230.3,124.2L230.3,124.2z
		 M230.3,122.4H265c0-12.8-5.6-21.9-17.3-21.9C235.9,100.5,230.3,109.6,230.3,122.4z"/>
	<path d="M295,98.7v1.7h-0.8c-8,0-12.4,4.6-14.2,8.7v38.3h-1.8v-37.3l-0.5-10.9h1.4l0.6,7.4c2.2-3.6,6.7-7.9,13.9-7.9
		C294.4,98.6,295,98.7,295,98.7z"/>
</g>
<g>
	<path d="M85,174.2V245H67.8v-28.7H50.5V245H33.3v-70.8h17.3v27.3h17.3v-27.3H85z"/>
	<path d="M108.6,226.9c0.5,5.5,3.3,6.9,7.4,6.9c3.6,0,6.4-1.9,6.4-4.2h15.7v0.4c0,9.6-8.3,16.3-22.3,16.3c-16.5,0-24.1-9.9-24.1-24
		v-2.7c0-14.1,8-24,23.5-24c15.6,0,22.8,9.9,22.8,24v7.3L108.6,226.9L108.6,226.9z M108.6,215.1h12.9c-0.5-5.1-2.5-6.9-6.4-6.9
		S109,210,108.6,215.1z"/>
	<path d="M169.4,245h-20.9l-7.7-48.2h16.4l2.3,30l5.5-30h20l5.5,30l2.3-30h16.3l-7.7,48.2h-20.9l-5.5-30.9L169.4,245z"/>
	<path d="M231.6,191.4h-17.3v-17.3h17.3V191.4z M214.6,196.9h16.7v48.2h-16.7V196.9z"/>
	<path d="M272.6,196.9v14.5H261v14.1c0,5.5,2.6,6.4,6.4,6.4c1.4,0,3.7-0.4,4.2-0.5V245c-0.8,0.5-3.5,1.3-8.1,1.3
		c-11.5,0-19.3-4.9-19.3-19v-15.9H237v-14.5h7.3v-13.6H261v13.6L272.6,196.9L272.6,196.9z"/>
	<path d="M312.5,196.9v14.5H301v14.1c0,5.5,2.6,6.4,6.4,6.4c1.4,0,3.7-0.4,4.2-0.5V245c-0.8,0.5-3.5,1.3-8.1,1.3
		c-11.5,0-19.3-4.9-19.3-19v-15.9H277v-14.5h7.3v-13.6H301v13.6L312.5,196.9L312.5,196.9z"/>
</g>
<g>
	<path d="M45.5,330.3l-4,0h-6v-1.3h11.7v0.9l-10.4,15.6l4,0h6.7v1.3H35.1v-0.9L45.5,330.3z"/>
	<path d="M52.2,329.1v12.4c0,3.2,1.9,4.4,4.4,4.4c3.2,0,4.7-1.7,5.5-3.1v-13.7h1.3v12.7l0.2,5h-1l-0.3-2.6c-1,1.5-2.9,2.9-6,2.9
		c-3.3,0-5.3-2.2-5.3-5.5v-12.5L52.2,329.1L52.2,329.1z"/>
	<path d="M88.5,346.8v-12.9c0-3.2-1.7-3.9-3.9-3.9c-2.8,0-4.2,1.7-5,3.1v13.7h-1.3v-12.9c0-3.2-1.7-3.9-3.9-3.9
		c-2.8,0-4.2,1.7-5,3.1v13.7h-1.3v-12.7l-0.2-5h1l0.3,2.5c0.9-1.5,2.7-2.8,5.6-2.8c2.3,0,4,1,4.6,3c0.9-1.5,2.7-3,5.7-3
		c3,0,4.8,1.7,4.8,5v13.1L88.5,346.8L88.5,346.8z"/>
	<path d="M101.4,320h1.3v26.8h-1.3V320z"/>
	<path d="M108.7,338.6c0,4.4,1.9,7.3,5.9,7.3s5.7-2.6,5.7-4.7h1.3v0.1c0,2.6-2.1,5.9-7,5.9c-5.2,0-7.3-4-7.3-8.9v-0.7
		c0-4.8,2.1-8.9,7.2-8.9s7.2,4,7.2,8.9v1L108.7,338.6L108.7,338.6z M108.7,337.3h11.6c-0.1-4.4-1.9-7.3-5.8-7.3
		S108.7,332.9,108.7,337.3z"/>
	<path d="M137.3,342.1c0-2.8-1.7-3.4-5.6-3.8c-4.7-0.4-5.8-2.2-5.8-4.6v-0.2c0-2.7,2.2-4.8,6.3-4.8c4.7,0,6.4,2.6,6.4,5.9v0.1h-1.3
		c0-2.9-1.1-4.7-5-4.7c-3.1,0-4.9,1.3-4.9,3.6c0,2.1,1,3.3,5.4,3.6c4.5,0.3,6,1.7,6,4.8v0.1c0,2.8-2.4,5-6.5,5c-5,0-6.5-3.1-6.5-5.6
		v-0.1h1.3c0,2.2,1.1,4.4,5.2,4.4C135.5,345.9,137.3,344.4,137.3,342.1z"/>
	<path d="M144.1,338.6c0,4.4,1.9,7.3,5.9,7.3s5.7-2.6,5.7-4.7h1.3v0.1c0,2.6-2.1,5.9-7,5.9c-5.2,0-7.3-4-7.3-8.9v-0.7
		c0-4.8,2.1-8.9,7.2-8.9s7.2,4,7.2,8.9v1L144.1,338.6L144.1,338.6z M144.1,337.3h11.6c-0.1-4.4-1.9-7.3-5.8-7.3
		S144.2,332.9,144.1,337.3z"/>
	<path d="M172.5,346.8v-12.4c0-3.2-1.9-4.4-4.4-4.4c-3.2,0-4.7,1.7-5.5,3.1v13.7h-1.3v-12.7l-0.2-5h1l0.3,2.6c1-1.5,2.9-2.9,6-2.9
		c3.3,0,5.3,2.2,5.3,5.5v12.5H172.5z"/>
	<path d="M196.6,343.3c-0.9,1.4-2.6,2.5-5.2,2.5c-4.8,0-6.9-3.9-6.9-8.2V337c0-4.4,2-8.2,6.9-8.2c2.8,0,4.5,1.3,5.3,2.8l0.3-2.5h1
		l-0.2,5v13.1c0,3.7-1.7,6.7-6.5,6.7s-6.5-3-6.5-6.7v-0.3h1.3c0,3.9,1.5,5.8,5.2,5.8c3.9,0,5.2-2.1,5.2-5.6L196.6,343.3L196.6,343.3
		z M191.6,330c-3.8,0-5.6,2.8-5.6,6.9v0.7c0,4.1,1.9,6.9,5.6,6.9c2.7,0,4.2-1.7,5-3.1v-8.4C195.8,331.7,194.3,330,191.6,330z"/>
	<path d="M203.5,338.6c0,4.4,1.9,7.3,5.9,7.3s5.7-2.6,5.7-4.7h1.3v0.1c0,2.6-2.1,5.9-7,5.9c-5.2,0-7.3-4-7.3-8.9v-0.7
		c0-4.8,2.1-8.9,7.2-8.9c5.1,0,7.2,4,7.2,8.9v1L203.5,338.6L203.5,338.6z M203.5,337.3h11.6c-0.1-4.4-1.9-7.3-5.8-7.3
		S203.6,332.9,203.5,337.3z"/>
	<path d="M241.1,346.8v-12.9c0-3.2-1.7-3.9-3.9-3.9c-2.8,0-4.2,1.7-5,3.1v13.7h-1.3v-12.9c0-3.2-1.7-3.9-3.9-3.9
		c-2.8,0-4.2,1.7-5,3.1v13.7h-1.3v-12.7l-0.2-5h1l0.3,2.5c0.9-1.5,2.7-2.8,5.6-2.8c2.3,0,4,1,4.6,3c0.9-1.5,2.7-3,5.7-3
		c3,0,4.8,1.7,4.8,5v13.1L241.1,346.8L241.1,346.8z"/>
	<path d="M257.9,344.1c-1.1,1.5-3.2,3-6.5,3c-3,0-5-1.9-5-4.7v-0.3c0-3.9,3-4.9,5.6-5.3l5.8-0.9v-0.7c0-3.4-1.1-5.3-4.7-5.3
		c-3.9,0-4.7,2.2-4.7,4.9H247v-0.3c0-2.6,1-5.9,6-5.9c4.6,0,6,2.7,6,6.5v6.5l0.2,5h-1L257.9,344.1z M257.7,342.5v-5.3l-5.9,1
		c-2.5,0.4-4.2,1.7-4.2,4v0.3c0,1.8,1.2,3.4,3.9,3.4C255.4,345.9,257,343.7,257.7,342.5z"/>
	<path d="M270.4,345.9c3.9,0,5.2-2.5,5.2-5.1h1.3v0.5c0,2.6-1.7,5.9-6.5,5.9c-5.1,0-7.2-4-7.2-8.9v-0.7c0-4.8,2.1-8.9,7.2-8.9
		c4.8,0,6.5,3.5,6.5,6v0.7h-1.3c0-3-1.4-5.4-5.2-5.4c-4,0-5.8,3.1-5.8,7.6v0.7C264.6,342.8,266.4,345.9,270.4,345.9z"/>
	<path d="M282.4,331.4c1-1.4,2.9-2.7,5.9-2.7c3.3,0,5.3,2.2,5.3,5.5v12.5h-1.3v-12.4c0-3.2-1.9-4.4-4.4-4.4c-3.2,0-4.7,1.7-5.5,3.1
		v13.7H281V320h1.3L282.4,331.4L282.4,331.4z"/>
	<path d="M306.8,329.1v1.3h-6v11.8c0,3,1.3,3.8,3.7,3.8c0.8,0,1.7-0.2,2-0.3v1.3c-0.2,0.1-1,0.3-2.3,0.3c-2.7,0-4.7-1.3-4.7-4.8
		v-11.9h-2.8v-1.3h2.8v-5h1.3v5L306.8,329.1L306.8,329.1z"/>
	<path d="M312.8,346.8h-2v-2h2V346.8z"/>
</g>
<g>
	<path d="M38.8,390h-2.8v-10.7h2.8c2.6,0,4.1,1.4,4.1,5.1v0.5C42.9,388.6,41.4,390,38.8,390z M38.7,389.1c2.1,0,3.2-1.2,3.2-4.2
		v-0.5c0-3-1.2-4.2-3.2-4.2h-1.8v8.9L38.7,389.1L38.7,389.1z"/>
	<path d="M45.7,381.1h-1.2v-1.2h1.2V381.1z M44.6,382.8h1v7.3h-1V382.8z"/>
	<path d="M48.3,386.8c0.1,1.6,0.7,2.6,2.2,2.6c1.4,0,2.1-0.9,2.1-1.6h0.9v0.1c0,1.1-1,2.4-2.9,2.4c-2.2,0-3.1-1.6-3.1-3.6v-0.3
		c0-2,1-3.6,3.1-3.6s3,1.6,3,3.6v0.5L48.3,386.8L48.3,386.8z M48.3,386h4.2c-0.1-1.6-0.7-2.6-2.1-2.6
		C48.9,383.4,48.3,384.4,48.3,386z"/>
	<path d="M57.6,382.1V382c0-1.8,1.3-2.9,3.4-2.9c2.4,0,3.4,1.2,3.4,3.4v0.3h-1c0-2.1-0.7-2.9-2.3-2.9h-0.1c-1.3,0-2.3,0.7-2.3,1.8
		v0.1c0,1.2,0.6,1.8,2.5,2.1c2.3,0.3,3.3,1.2,3.3,2.9v0.1c0,1.9-1.4,3-3.5,3c-2.3,0-3.5-1.3-3.5-3.5v-0.1h1c0,1.8,1,2.7,2.5,2.7h0.1
		c1.4,0,2.4-0.8,2.4-2.1v-0.1c0-1.2-0.8-1.9-2.7-2.1C58.4,384.6,57.6,383.6,57.6,382.1z"/>
	<path d="M68.7,389.3c1.4,0,1.8-0.9,1.8-1.8h0.9v0.2c0,1.2-0.8,2.5-2.8,2.5c-2.1,0-3-1.6-3-3.6v-0.3c0-2,0.9-3.6,3-3.6
		c2,0,2.8,1.4,2.8,2.5v0.3h-0.9c0-1.1-0.5-1.9-1.8-1.9c-1.4,0-2.1,1.1-2.1,2.7v0.3C66.7,388.2,67.3,389.3,68.7,389.3z"/>
	<path d="M74,383.6c0.4-0.5,1.2-1,2.3-1c1.4,0,2.2,1,2.2,2.3v5.1h-1v-4.9c0-1.1-0.6-1.6-1.6-1.6c-1.2,0-1.7,0.6-2,1.1v5.4h-1v-10.9
		h1V383.6z"/>
	<path d="M83.3,382.6v0.9h-0.2c-1.1,0-1.6,0.6-1.9,1.1v5.4h-1v-5.2l-0.1-2.1H81l0.1,1c0.4-0.6,1-1.1,2.1-1.1
		C83.3,382.6,83.3,382.6,83.3,382.6z"/>
	<path d="M86,381.1h-1.2v-1.2H86V381.1z M84.9,382.8h1v7.3h-1V382.8z"/>
	<path d="M89.4,382.8h2.1v0.9h-2.1v6.4h-1v-6.4h-1.2v-0.9h1.2v-1.7c0-1.6,0.9-2.2,2.1-2.2c0.5,0,0.9,0.1,1,0.1v0.8
		c-0.1-0.1-0.5-0.1-0.8-0.1c-0.9,0-1.4,0.3-1.4,1.4L89.4,382.8L89.4,382.8z"/>
	<path d="M97,382.8v0.9h-2.3v4.2c0,1.2,0.5,1.4,1.4,1.4c0.3,0,0.7-0.1,0.8-0.1v0.8c-0.1,0.1-0.4,0.1-1,0.1c-1.2,0-2.1-0.6-2.1-2.2
		v-4.4h-1.2v-0.9h1.2v-2.1h1v2.1L97,382.8L97,382.8z"/>
	<path d="M104.7,389.3L104.7,389.3c1.6,0,2.3-1,2.3-2.7h1v0.1c0,2.3-1.1,3.5-3.4,3.5c-2.5,0-3.6-1.5-3.6-5.2v-0.5
		c0-3.7,1.2-5.2,3.6-5.2c2.3,0,3.4,1.2,3.4,3.6v0.4h-1c0-2.2-0.7-3.1-2.3-3.1h-0.1c-1.8,0-2.6,1.3-2.6,4.3v0.5
		C102.1,388,102.9,389.3,104.7,389.3z"/>
	<path d="M109.4,386.5v-0.3c0-2,0.9-3.6,3.1-3.6s3.1,1.6,3.1,3.6v0.3c0,2-0.9,3.6-3.1,3.6S109.4,388.6,109.4,386.5z M114.5,386.5
		v-0.3c0-1.6-0.6-2.7-2.1-2.7c-1.4,0-2.1,1.1-2.1,2.7v0.3c0,1.6,0.6,2.7,2.1,2.7C113.9,389.3,114.5,388.2,114.5,386.5z"/>
	<path d="M116.9,386.5v-0.3c0-2,0.9-3.6,3.1-3.6c2.1,0,3.1,1.6,3.1,3.6v0.3c0,2-0.9,3.6-3.1,3.6
		C117.8,390.1,116.9,388.6,116.9,386.5z M122,386.5v-0.3c0-1.6-0.6-2.7-2.1-2.7c-1.4,0-2.1,1.1-2.1,2.7v0.3c0,1.6,0.6,2.7,2.1,2.7
		C121.4,389.3,122,388.2,122,386.5z"/>
	<path d="M125.5,389.2v3.6h-1v-7.9l-0.1-2.1h0.8l0.1,1c0.4-0.6,1-1.2,2.2-1.2c2,0,2.8,1.6,2.8,3.6v0.3c0,2-0.8,3.6-2.8,3.6
		C126.5,390.1,125.9,389.7,125.5,389.2z M125.5,388.2c0.3,0.5,0.8,1.1,1.8,1.1c1.4,0,2-1.1,2-2.7v-0.3c0-1.7-0.6-2.7-2-2.7
		c-1,0-1.6,0.6-1.8,1.1V388.2z"/>
	<path d="M132.6,386.8c0.1,1.6,0.7,2.6,2.2,2.6c1.4,0,2.1-0.9,2.1-1.6h0.9v0.1c0,1.1-1,2.4-2.9,2.4c-2.2,0-3.1-1.6-3.1-3.6v-0.3
		c0-2,1-3.6,3.1-3.6c2.1,0,3,1.6,3,3.6v0.5L132.6,386.8L132.6,386.8z M132.6,386h4.2c-0.1-1.6-0.7-2.6-2.1-2.6
		S132.7,384.4,132.6,386z"/>
	<path d="M142.4,382.6v0.9h-0.2c-1.1,0-1.6,0.6-1.9,1.1v5.4h-1v-5.2l-0.1-2.1h0.8l0.1,1c0.4-0.6,1-1.1,2.1-1.1
		C142.3,382.6,142.4,382.6,142.4,382.6z"/>
	<path d="M153.3,379.3V390h-1v-5h-4.7v5h-1v-10.7h1v4.8h4.7v-4.8H153.3z"/>
	<path d="M155.9,386.8c0.1,1.6,0.7,2.6,2.2,2.6c1.4,0,2.1-0.9,2.1-1.6h0.9v0.1c0,1.1-1,2.4-2.9,2.4c-2.2,0-3.1-1.6-3.1-3.6v-0.3
		c0-2,1-3.6,3.1-3.6s3,1.6,3,3.6v0.5L155.9,386.8L155.9,386.8z M155.9,386h4.2c-0.1-1.6-0.7-2.6-2.1-2.6S156,384.4,155.9,386z"/>
	<path d="M164.8,390h-1.2l-1.6-7.3h1l1.2,6.2l1.7-6.2h1.2l1.7,6.2l1.2-6.2h1l-1.6,7.3h-1.3l-1.6-6.2L164.8,390z"/>
	<path d="M173.5,381.1h-1.2v-1.2h1.2V381.1z M172.4,382.8h1v7.3h-1V382.8z"/>
	<path d="M179.2,382.8v0.9h-2.3v4.2c0,1.2,0.5,1.4,1.4,1.4c0.3,0,0.7-0.1,0.8-0.1v0.8c-0.1,0.1-0.4,0.1-1,0.1
		c-1.2,0-2.1-0.6-2.1-2.2v-4.4h-1.2v-0.9h1.2v-2.1h1v2.1L179.2,382.8L179.2,382.8z"/>
	<path d="M184.6,382.8v0.9h-2.3v4.2c0,1.2,0.5,1.4,1.4,1.4c0.3,0,0.7-0.1,0.8-0.1v0.8c-0.1,0.1-0.4,0.1-1,0.1
		c-1.2,0-2.1-0.6-2.1-2.2v-4.4h-1.2v-0.9h1.2v-2.1h1v2.1L184.6,382.8L184.6,382.8z"/>
	<path d="M189.6,386.8c0.1,1.6,0.7,2.6,2.2,2.6s2.1-0.9,2.1-1.6h0.9v0.1c0,1.1-1,2.4-2.9,2.4c-2.2,0-3.1-1.6-3.1-3.6v-0.3
		c0-2,1-3.6,3.1-3.6c2.1,0,3,1.6,3,3.6v0.5L189.6,386.8L189.6,386.8z M189.6,386h4.2c-0.1-1.6-0.7-2.6-2.1-2.6
		S189.7,384.4,189.6,386z"/>
	<path d="M200.9,390v-4.9c0-1.1-0.6-1.6-1.6-1.6c-1.2,0-1.7,0.6-2,1.1v5.4h-1v-5.2l-0.1-2.1h0.8l0.1,1c0.4-0.6,1.2-1.2,2.5-1.2
		c1.4,0,2.2,1,2.2,2.3v5.1L200.9,390L200.9,390z"/>
	<path d="M207.4,382.8v0.9H205v4.2c0,1.2,0.5,1.4,1.4,1.4c0.3,0,0.7-0.1,0.8-0.1v0.8c-0.1,0.1-0.4,0.1-1,0.1c-1.2,0-2.1-0.6-2.1-2.2
		v-4.4h-1.2v-0.9h1.2v-2.1h1v2.1L207.4,382.8L207.4,382.8z"/>
	<path d="M213.4,388c0-1-0.5-1.2-2-1.4c-2-0.1-2.5-0.8-2.5-1.9v-0.1c0-1.2,1-2.1,2.7-2.1c2,0,2.7,1,2.7,2.5v0.1h-1
		c0-1-0.4-1.7-1.8-1.7c-1.1,0-1.7,0.5-1.7,1.2s0.3,1.2,1.9,1.3c1.8,0.1,2.6,0.7,2.6,2v0.1c0,1.2-1,2.1-2.8,2.1
		c-2.1,0-2.8-1.2-2.8-2.3v-0.1h1c0,0.8,0.4,1.6,1.8,1.6C212.8,389.3,213.4,388.8,213.4,388z"/>
	<path d="M219.8,382.8v0.9h-2.3v4.2c0,1.2,0.5,1.4,1.4,1.4c0.3,0,0.7-0.1,0.8-0.1v0.8c-0.1,0.1-0.4,0.1-1,0.1
		c-1.2,0-2.1-0.6-2.1-2.2v-4.4h-1.2v-0.9h1.2v-2.1h1v2.1L219.8,382.8L219.8,382.8z"/>
	<path d="M225.7,389c-0.5,0.6-1.3,1.2-2.5,1.2c-1.3,0-2.1-0.8-2.1-2V388c0-1.6,1.2-2.1,2.4-2.2l2.2-0.3v-0.2c0-1.2-0.4-1.9-1.7-1.9
		c-1.4,0-1.7,0.8-1.7,1.7h-0.9v-0.1c0-1.1,0.5-2.4,2.6-2.4c2,0,2.6,1.1,2.6,2.7v2.7l0.1,2.1h-0.8L225.7,389z M225.6,388.2v-2
		l-2.1,0.3c-1,0.1-1.5,0.6-1.5,1.4v0.1c0,0.6,0.4,1.2,1.4,1.2C224.7,389.3,225.3,388.6,225.6,388.2z"/>
	<path d="M232.9,390v-4.9c0-1.1-0.6-1.6-1.6-1.6c-1.2,0-1.7,0.6-2,1.1v5.4h-1v-5.2l-0.1-2.1h0.8l0.1,1c0.4-0.6,1.2-1.2,2.5-1.2
		c1.4,0,2.2,1,2.2,2.3v5.1L232.9,390L232.9,390z"/>
	<path d="M240.2,383.6v-4.5h1v8.9l0.1,2.1h-0.8l-0.1-1c-0.3,0.6-1,1.1-2.1,1.1c-2,0-2.8-1.6-2.8-3.6v-0.3c0-2,0.8-3.6,2.8-3.6
		C239.2,382.6,239.8,383,240.2,383.6z M240.2,388.2v-3.6c-0.3-0.5-0.9-1.1-1.8-1.1c-1.4,0-2,1.1-2,2.7v0.3c0,1.7,0.6,2.7,2,2.7
		C239.4,389.3,239.9,388.6,240.2,388.2z"/>
	<path d="M244.2,389.7c0,1.2-0.5,1.8-1.6,1.8V391c0.5,0,0.9-0.3,1-1h-0.6v-1.2h1.2V389.7z"/>
	<path d="M249.6,382.8v4.9c0,1.1,0.6,1.6,1.6,1.6c1.2,0,1.7-0.6,2-1.1v-5.4h1v5.2l0.1,2.1h-0.8l-0.1-1c-0.4,0.6-1.2,1.2-2.4,1.2
		c-1.4,0-2.2-1-2.2-2.3v-5.1L249.6,382.8L249.6,382.8z"/>
	<path d="M264.2,390v-5.1c0-1.1-0.5-1.4-1.4-1.4c-1,0-1.5,0.6-1.8,1.1v5.5h-1v-5.1c0-1.1-0.5-1.4-1.4-1.4c-1,0-1.5,0.6-1.8,1.1v5.5
		h-1v-5.2l-0.1-2.1h0.8l0.1,1c0.4-0.6,1.1-1.2,2.3-1.2c1,0,1.6,0.4,1.8,1.2c0.4-0.7,1.1-1.2,2.3-1.2c1.3,0,2.1,0.8,2.1,2.1v5.3
		L264.2,390L264.2,390z"/>
	<path d="M274.3,383.6v-4.5h1v8.9l0.1,2.1h-0.8l-0.1-1c-0.3,0.6-1,1.1-2.1,1.1c-2,0-2.8-1.6-2.8-3.6v-0.3c0-2,0.8-3.6,2.8-3.6
		C273.2,382.6,273.8,383,274.3,383.6z M274.3,388.2v-3.6c-0.3-0.5-0.9-1.1-1.8-1.1c-1.4,0-2,1.1-2,2.7v0.3c0,1.7,0.6,2.7,2,2.7
		C273.4,389.3,274,388.6,274.3,388.2z"/>
	<path d="M278.2,381.1H277v-1.2h1.2V381.1z M277.1,382.8h1v7.3h-1V382.8z"/>
	<path d="M280.7,386.8c0.1,1.6,0.7,2.6,2.2,2.6c1.4,0,2.1-0.9,2.1-1.6h0.9v0.1c0,1.1-1,2.4-2.9,2.4c-2.2,0-3.1-1.6-3.1-3.6v-0.3
		c0-2,1-3.6,3.1-3.6c2.1,0,3,1.6,3,3.6v0.5L280.7,386.8L280.7,386.8z M280.7,386h4.2c-0.1-1.6-0.7-2.6-2.1-2.6
		C281.4,383.4,280.8,384.4,280.7,386z"/>
	<path d="M296.2,379.3v0.9h-5v3.9h4.3v0.9h-4.3v4.1h5v0.9h-6v-10.7H296.2z"/>
	<path d="M298.2,382.8l1.8,2.9l1.8-2.9h1.2l-2.3,3.6l2.3,3.7h-1.2l-1.8-3.1l-1.8,3.1H297l2.3-3.7l-2.3-3.6H298.2z"/>
	<path d="M305.2,389.2v3.6h-1v-7.9l-0.1-2.1h0.8l0.1,1c0.4-0.6,1-1.2,2.2-1.2c2,0,2.8,1.6,2.8,3.6v0.3c0,2-0.8,3.6-2.8,3.6
		C306.3,390.1,305.6,389.7,305.2,389.2z M305.2,388.2c0.3,0.5,0.8,1.1,1.8,1.1c1.4,0,2-1.1,2-2.7v-0.3c0-1.7-0.6-2.7-2-2.7
		c-1,0-1.6,0.6-1.8,1.1V388.2z"/>
	<path d="M316,389c-0.5,0.6-1.3,1.2-2.5,1.2c-1.3,0-2.1-0.8-2.1-2V388c0-1.6,1.2-2.1,2.4-2.2l2.2-0.3v-0.2c0-1.2-0.4-1.9-1.7-1.9
		c-1.4,0-1.7,0.8-1.7,1.7h-0.9v-0.1c0-1.1,0.5-2.4,2.6-2.4c2,0,2.6,1.1,2.6,2.7v2.7l0.1,2.1H316L316,389z M315.9,388.2v-2l-2.1,0.3
		c-1,0.1-1.5,0.6-1.5,1.4v0.1c0,0.6,0.4,1.2,1.4,1.2C315,389.3,315.6,388.6,315.9,388.2z"/>
	<path d="M323.2,390v-4.9c0-1.1-0.6-1.6-1.6-1.6c-1.2,0-1.7,0.6-2,1.1v5.4h-1v-5.2l-0.1-2.1h0.8l0.1,1c0.4-0.6,1.2-1.2,2.5-1.2
		c1.4,0,2.2,1,2.2,2.3v5.1L323.2,390L323.2,390z"/>
	<path d="M330.3,388c0-1-0.5-1.2-2-1.4c-2-0.1-2.5-0.8-2.5-1.9v-0.1c0-1.2,1-2.1,2.7-2.1c2,0,2.7,1,2.7,2.5v0.1h-1
		c0-1-0.4-1.7-1.8-1.7c-1.1,0-1.7,0.5-1.7,1.2s0.3,1.2,1.9,1.3c1.8,0.1,2.6,0.7,2.6,2v0.1c0,1.2-1,2.1-2.8,2.1
		c-2.1,0-2.8-1.2-2.8-2.3v-0.1h1c0,0.8,0.4,1.6,1.8,1.6C329.7,389.3,330.3,388.8,330.3,388z"/>
	<path d="M334.2,381.1h-1.2v-1.2h1.2V381.1z M333.1,382.8h1v7.3h-1V382.8z"/>
	<path d="M335.6,384.7h3.4v0.9h-3.4V384.7z"/>
	<path d="M35.6,405.7v-0.3c0-2,0.9-3.6,3.1-3.6c2.1,0,3.1,1.6,3.1,3.6v0.3c0,2-0.9,3.6-3.1,3.6C36.5,409.3,35.6,407.7,35.6,405.7z
		 M40.7,405.7v-0.3c0-1.6-0.6-2.7-2.1-2.7c-1.4,0-2.1,1.1-2.1,2.7v0.3c0,1.6,0.6,2.7,2.1,2.7C40.1,408.4,40.7,407.3,40.7,405.7z"/>
	<path d="M47.8,409.2v-4.9c0-1.1-0.6-1.6-1.6-1.6c-1.2,0-1.7,0.6-2,1.1v5.4h-1V404l-0.1-2.1H44l0.1,1c0.4-0.6,1.2-1.2,2.5-1.2
		c1.4,0,2.2,1,2.2,2.3v5.1L47.8,409.2L47.8,409.2z"/>
	<path d="M54.1,401.9v4.9c0,1.1,0.6,1.6,1.6,1.6c1.2,0,1.7-0.6,2-1.1v-5.4h1v5.2l0.1,2.1h-0.8l-0.1-1c-0.4,0.6-1.2,1.2-2.4,1.2
		c-1.4,0-2.2-1-2.2-2.3v-5.1L54.1,401.9L54.1,401.9z"/>
	<path d="M64.9,409.2v-4.9c0-1.1-0.6-1.6-1.6-1.6c-1.2,0-1.7,0.6-2,1.1v5.4h-1V404l-0.1-2.1h0.8l0.1,1c0.4-0.6,1.2-1.2,2.5-1.2
		c1.4,0,2.2,1,2.2,2.3v5.1L64.9,409.2L64.9,409.2z"/>
	<path d="M72.3,402.7v-4.5h1v8.9l0.1,2.1h-0.8l-0.1-1c-0.3,0.6-1,1.1-2.1,1.1c-2,0-2.8-1.6-2.8-3.6v-0.3c0-2,0.8-3.6,2.8-3.6
		C71.2,401.8,71.9,402.2,72.3,402.7z M72.3,407.3v-3.6c-0.3-0.5-0.9-1.1-1.8-1.1c-1.4,0-2,1.1-2,2.7v0.3c0,1.7,0.6,2.7,2,2.7
		C71.4,408.4,72,407.8,72.3,407.3z"/>
	<path d="M82.4,402.7v-4.5h1v8.9l0.1,2.1h-0.8l-0.1-1c-0.3,0.6-1,1.1-2.1,1.1c-2,0-2.8-1.6-2.8-3.6v-0.3c0-2,0.8-3.6,2.8-3.6
		C81.4,401.8,82,402.2,82.4,402.7z M82.4,407.3v-3.6c-0.3-0.5-0.9-1.1-1.8-1.1c-1.4,0-2,1.1-2,2.7v0.3c0,1.7,0.6,2.7,2,2.7
		C81.6,408.4,82.1,407.8,82.4,407.3z"/>
	<path d="M89.6,408.1c-0.5,0.6-1.3,1.2-2.5,1.2c-1.3,0-2.1-0.8-2.1-2v-0.1c0-1.6,1.2-2.1,2.4-2.2l2.2-0.3v-0.2
		c0-1.2-0.4-1.9-1.7-1.9c-1.4,0-1.7,0.8-1.7,1.7h-0.9v-0.1c0-1.1,0.5-2.4,2.6-2.4c2,0,2.6,1.1,2.6,2.7v2.7l0.1,2.1h-0.8L89.6,408.1z
		 M89.4,407.3v-2l-2.1,0.3c-1,0.1-1.5,0.6-1.5,1.4v0.1c0,0.6,0.4,1.2,1.4,1.2C88.5,408.5,89.2,407.7,89.4,407.3z"/>
	<path d="M96.7,407.2c0-1-0.5-1.2-2-1.4c-2-0.1-2.5-0.8-2.5-1.9v-0.1c0-1.2,1-2.1,2.7-2.1c2,0,2.7,1,2.7,2.5v0.1h-1
		c0-1-0.4-1.7-1.8-1.7c-1.1,0-1.7,0.5-1.7,1.2s0.3,1.2,1.9,1.3c1.8,0.1,2.6,0.7,2.6,2v0.1c0,1.2-1,2.1-2.8,2.1
		c-2.1,0-2.8-1.2-2.8-2.3v-0.1h1c0,0.8,0.4,1.6,1.8,1.6C96,408.5,96.7,408,96.7,407.2z"/>
	<path d="M106.7,402.7v-4.5h1v8.9l0.1,2.1h-0.8l-0.1-1c-0.3,0.6-1,1.1-2.1,1.1c-2,0-2.8-1.6-2.8-3.6v-0.3c0-2,0.8-3.6,2.8-3.6
		C105.6,401.8,106.3,402.2,106.7,402.7z M106.7,407.3v-3.6c-0.3-0.5-0.9-1.1-1.8-1.1c-1.4,0-2,1.1-2,2.7v0.3c0,1.7,0.6,2.7,2,2.7
		C105.9,408.4,106.4,407.8,106.7,407.3z"/>
	<path d="M113.8,408.1c-0.5,0.6-1.3,1.2-2.5,1.2c-1.3,0-2.1-0.8-2.1-2v-0.1c0-1.6,1.2-2.1,2.4-2.2l2.2-0.3v-0.2
		c0-1.2-0.4-1.9-1.7-1.9c-1.4,0-1.7,0.8-1.7,1.7h-0.9v-0.1c0-1.1,0.5-2.4,2.6-2.4c2,0,2.6,1.1,2.6,2.7v2.7l0.1,2.1h-0.8L113.8,408.1
		z M113.7,407.3v-2l-2.1,0.3c-1,0.1-1.5,0.6-1.5,1.4v0.1c0,0.6,0.4,1.2,1.4,1.2C112.8,408.5,113.4,407.7,113.7,407.3z"/>
	<path d="M124.8,409.2V404c0-1.1-0.5-1.4-1.4-1.4c-1,0-1.5,0.6-1.8,1.1v5.5h-1V404c0-1.1-0.5-1.4-1.4-1.4c-1,0-1.5,0.6-1.8,1.1v5.5
		h-1V404l-0.1-2.1h0.8l0.1,1c0.4-0.6,1.1-1.2,2.3-1.2c1,0,1.6,0.4,1.8,1.2c0.4-0.7,1.1-1.2,2.3-1.2c1.3,0,2.1,0.8,2.1,2.1v5.3
		L124.8,409.2L124.8,409.2z"/>
	<path d="M128.6,400.2h-1.2V399h1.2V400.2z M127.5,401.9h1v7.3h-1V401.9z"/>
	<path d="M134.4,401.9v0.9H132v4.2c0,1.2,0.5,1.4,1.4,1.4c0.3,0,0.7-0.1,0.8-0.1v0.8c-0.1,0.1-0.4,0.1-1,0.1c-1.2,0-2.1-0.6-2.1-2.2
		v-4.4h-1.1v-0.9h1.2v-2.1h1v2.1L134.4,401.9L134.4,401.9z"/>
	<path d="M139.4,405.9c0.1,1.6,0.7,2.6,2.2,2.6s2.1-0.9,2.1-1.6h0.9v0.1c0,1.1-1,2.4-2.9,2.4c-2.2,0-3.1-1.6-3.1-3.6v-0.3
		c0-2,1-3.6,3.1-3.6s3,1.6,3,3.6v0.5L139.4,405.9L139.4,405.9z M139.4,405.1h4.2c-0.1-1.6-0.7-2.6-2.1-2.6
		C140.1,402.5,139.4,403.6,139.4,405.1z"/>
	<path d="M147.2,400.2H146V399h1.2V400.2z M146.1,401.9h1v7.3h-1V401.9z"/>
	<path d="M153.5,409.2v-4.9c0-1.1-0.6-1.6-1.6-1.6c-1.2,0-1.7,0.6-2,1.1v5.4h-1V404l-0.1-2.1h0.8l0.1,1c0.4-0.6,1.2-1.2,2.5-1.2
		c1.4,0,2.2,1,2.2,2.3v5.1L153.5,409.2L153.5,409.2z"/>
	<path d="M157.2,402.8c0.4-0.5,1.2-1,2.3-1c1.4,0,2.2,1,2.2,2.3v5.1h-1v-4.9c0-1.1-0.6-1.6-1.6-1.6c-1.2,0-1.7,0.6-2,1.1v5.4h-1
		v-10.9h1L157.2,402.8L157.2,402.8z"/>
	<path d="M164.2,405.9c0.1,1.6,0.7,2.6,2.2,2.6c1.4,0,2.1-0.9,2.1-1.6h0.9v0.1c0,1.1-1,2.4-2.9,2.4c-2.2,0-3.1-1.6-3.1-3.6v-0.3
		c0-2,1-3.6,3.1-3.6s3,1.6,3,3.6v0.5L164.2,405.9L164.2,405.9z M164.2,405.1h4.2c-0.1-1.6-0.7-2.6-2.1-2.6S164.3,403.6,164.2,405.1z
		"/>
	<path d="M174,401.8v0.9h-0.2c-1.1,0-1.6,0.6-1.9,1.1v5.4h-1V404l-0.1-2.1h0.8l0.1,1c0.4-0.6,1-1.1,2.1-1.1
		C173.8,401.8,174,401.8,174,401.8z"/>
	<path d="M179.7,407.8c-0.4,0.5-1,1-2.1,1c-2,0-2.8-1.5-2.8-3.4v-0.3c0-1.8,0.8-3.4,2.8-3.4c1.1,0,1.8,0.5,2.2,1.1l0.1-1h0.8
		l-0.1,2.1v5.3c0,1.6-0.8,2.8-2.9,2.8s-2.8-1.2-2.8-2.7v-0.2h0.9c0,1.4,0.5,2.1,1.8,2.1c1.4,0,1.9-0.7,1.9-2.1V407.8z M177.9,402.6
		c-1.4,0-2,1-2,2.5v0.3c0,1.5,0.7,2.5,2,2.5c1,0,1.6-0.6,1.8-1.1v-3.1C179.5,403.3,178.9,402.6,177.9,402.6z"/>
	<path d="M183.2,405.9c0.1,1.6,0.7,2.6,2.2,2.6c1.4,0,2.1-0.9,2.1-1.6h0.9v0.1c0,1.1-1,2.4-2.9,2.4c-2.2,0-3.1-1.6-3.1-3.6v-0.3
		c0-2,1-3.6,3.1-3.6s3,1.6,3,3.6v0.5L183.2,405.9L183.2,405.9z M183.2,405.1h4.2c-0.1-1.6-0.7-2.6-2.1-2.6
		C183.9,402.5,183.3,403.6,183.2,405.1z"/>
	<path d="M190.9,402.8c0.4-0.5,1.2-1,2.3-1c1.4,0,2.2,1,2.2,2.3v5.1h-1v-4.9c0-1.1-0.6-1.6-1.6-1.6c-1.2,0-1.7,0.6-2,1.1v5.4h-1
		v-10.9h1L190.9,402.8L190.9,402.8z"/>
	<path d="M197.9,405.9c0.1,1.6,0.7,2.6,2.2,2.6c1.4,0,2.1-0.9,2.1-1.6h0.9v0.1c0,1.1-1,2.4-2.9,2.4c-2.2,0-3.1-1.6-3.1-3.6v-0.3
		c0-2,1-3.6,3.1-3.6c2.1,0,3,1.6,3,3.6v0.5L197.9,405.9L197.9,405.9z M197.9,405.1h4.2c-0.1-1.6-0.7-2.6-2.1-2.6
		C198.6,402.5,197.9,403.6,197.9,405.1z"/>
	<path d="M209.1,409.2v-4.9c0-1.1-0.6-1.6-1.6-1.6c-1.2,0-1.7,0.6-2,1.1v5.4h-1V404l-0.1-2.1h0.8l0.1,1c0.4-0.6,1.2-1.2,2.5-1.2
		c1.4,0,2.2,1,2.2,2.3v5.1L209.1,409.2L209.1,409.2z"/>
	<path d="M216.5,402.7v-4.5h1v8.9l0.1,2.1h-0.8l-0.1-1c-0.3,0.6-1,1.1-2.1,1.1c-2,0-2.8-1.6-2.8-3.6v-0.3c0-2,0.8-3.6,2.8-3.6
		C215.4,401.8,216,402.2,216.5,402.7z M216.5,407.3v-3.6c-0.3-0.5-0.9-1.1-1.8-1.1c-1.4,0-2,1.1-2,2.7v0.3c0,1.7,0.6,2.7,2,2.7
		C215.6,408.4,216.1,407.8,216.5,407.3z"/>
	<path d="M219.9,405.9c0.1,1.6,0.7,2.6,2.2,2.6c1.4,0,2.1-0.9,2.1-1.6h0.9v0.1c0,1.1-1,2.4-2.9,2.4c-2.2,0-3.1-1.6-3.1-3.6v-0.3
		c0-2,1-3.6,3.1-3.6s3,1.6,3,3.6v0.5L219.9,405.9L219.9,405.9z M219.9,405.1h4.2c-0.1-1.6-0.7-2.6-2.1-2.6
		C220.6,402.5,219.9,403.6,219.9,405.1z"/>
	<path d="M230.5,409.2h-1v-10.7h2.9c1.5,0,3.3,0.5,3.3,3v0.3c0,1.7-0.8,2.5-1.8,2.8l1.8,4.5h-1.1l-1.7-4.4c-0.1,0-0.3,0-0.5,0h-2
		L230.5,409.2L230.5,409.2z M232.5,403.9c0.9,0,2.3-0.3,2.3-2.2v-0.1c0-1.8-1.3-2.2-2.3-2.2h-2v4.6L232.5,403.9L232.5,403.9z"/>
	<path d="M238.1,405.9c0.1,1.6,0.7,2.6,2.2,2.6c1.4,0,2.1-0.9,2.1-1.6h0.9v0.1c0,1.1-1,2.4-2.9,2.4c-2.2,0-3.1-1.6-3.1-3.6v-0.3
		c0-2,1-3.6,3.1-3.6s3,1.6,3,3.6v0.5L238.1,405.9L238.1,405.9z M238.1,405.1h4.2c-0.1-1.6-0.7-2.6-2.1-2.6S238.1,403.6,238.1,405.1z
		"/>
	<path d="M245.7,402.7c0.4-0.5,1-1,2.1-1c2,0,2.8,1.6,2.8,3.6v0.3c0,2-0.8,3.6-2.8,3.6c-1.1,0-1.8-0.5-2.2-1.2l-0.1,1h-0.8l0.1-2.1
		v-8.9h1L245.7,402.7L245.7,402.7z M245.7,407.3c0.3,0.5,0.8,1.1,1.8,1.1c1.4,0,2-1.1,2-2.7v-0.3c0-1.7-0.6-2.7-2-2.7
		c-1,0-1.6,0.6-1.8,1.1V407.3z"/>
	<path d="M255.2,401.8v0.9H255c-1.1,0-1.6,0.6-1.9,1.1v5.4h-1V404l-0.1-2.1h0.8l0.1,1c0.4-0.6,1-1.1,2.1-1.1
		C255.1,401.8,255.2,401.8,255.2,401.8z"/>
	<path d="M260.7,408.1c-0.5,0.6-1.3,1.2-2.5,1.2c-1.3,0-2.1-0.8-2.1-2v-0.1c0-1.6,1.2-2.1,2.4-2.2l2.2-0.3v-0.2
		c0-1.2-0.4-1.9-1.7-1.9c-1.4,0-1.7,0.8-1.7,1.7h-0.9v-0.1c0-1.1,0.5-2.4,2.6-2.4c2,0,2.6,1.1,2.6,2.7v2.7l0.1,2.1h-0.8L260.7,408.1
		z M260.6,407.3v-2l-2.1,0.3c-1,0.1-1.5,0.6-1.5,1.4v0.1c0,0.6,0.4,1.2,1.4,1.2C259.8,408.5,260.4,407.7,260.6,407.3z"/>
	<path d="M267.9,409.2v-4.9c0-1.1-0.6-1.6-1.6-1.6c-1.2,0-1.7,0.6-2,1.1v5.4h-1V404l-0.1-2.1h0.8l0.1,1c0.4-0.6,1.2-1.2,2.5-1.2
		c1.4,0,2.2,1,2.2,2.3v5.1L267.9,409.2L267.9,409.2z"/>
	<path d="M275.2,402.7v-4.5h1v8.9l0.1,2.1h-0.8l-0.1-1c-0.3,0.6-1,1.1-2.1,1.1c-2,0-2.8-1.6-2.8-3.6v-0.3c0-2,0.8-3.6,2.8-3.6
		C274.2,401.8,274.8,402.2,275.2,402.7z M275.2,407.3v-3.6c-0.3-0.5-0.9-1.1-1.8-1.1c-1.4,0-2,1.1-2,2.7v0.3c0,1.7,0.6,2.7,2,2.7
		C274.4,408.4,274.9,407.8,275.2,407.3z"/>
	<path d="M279.2,400.2h-1.2V399h1.2V400.2z M278.1,401.9h1v7.3h-1V401.9z"/>
	<path d="M285.5,409.2v-4.9c0-1.1-0.6-1.6-1.6-1.6c-1.2,0-1.7,0.6-2,1.1v5.4h-1V404l-0.1-2.1h0.8l0.1,1c0.4-0.6,1.2-1.2,2.5-1.2
		c1.4,0,2.2,1,2.2,2.3v5.1L285.5,409.2L285.5,409.2z"/>
	<path d="M292.8,407.8c-0.4,0.5-1,1-2.1,1c-2,0-2.8-1.5-2.8-3.4v-0.3c0-1.8,0.8-3.4,2.8-3.4c1.1,0,1.8,0.5,2.2,1.1l0.1-1h0.8
		l-0.1,2.1v5.3c0,1.6-0.8,2.8-2.9,2.8s-2.8-1.2-2.8-2.7v-0.2h0.9c0,1.4,0.5,2.1,1.8,2.1c1.4,0,1.9-0.7,1.9-2.1V407.8z M290.9,402.6
		c-1.4,0-2,1-2,2.5v0.3c0,1.5,0.7,2.5,2,2.5c1,0,1.6-0.6,1.8-1.1v-3.1C292.4,403.3,291.9,402.6,290.9,402.6z"/>
	<path d="M302.8,402.7v-4.5h1v8.9l0.1,2.1H303l-0.1-1c-0.3,0.6-1,1.1-2.1,1.1c-2,0-2.8-1.6-2.8-3.6v-0.3c0-2,0.8-3.6,2.8-3.6
		C301.8,401.8,302.5,402.2,302.8,402.7z M302.8,407.3v-3.6c-0.3-0.5-0.9-1.1-1.8-1.1c-1.4,0-2,1.1-2,2.7v0.3c0,1.7,0.6,2.7,2,2.7
		C302,408.4,302.6,407.8,302.8,407.3z"/>
	<path d="M306.4,405.9c0.1,1.6,0.7,2.6,2.2,2.6c1.4,0,2.1-0.9,2.1-1.6h0.9v0.1c0,1.1-1,2.4-2.9,2.4c-2.2,0-3.1-1.6-3.1-3.6v-0.3
		c0-2,1-3.6,3.1-3.6s3,1.6,3,3.6v0.5L306.4,405.9L306.4,405.9z M306.4,405.1h4.2c-0.1-1.6-0.7-2.6-2.1-2.6
		C307.1,402.5,306.4,403.6,306.4,405.1z"/>
	<path d="M317.6,407.2c0-1-0.5-1.2-2-1.4c-2-0.1-2.5-0.8-2.5-1.9v-0.1c0-1.2,1-2.1,2.7-2.1c2,0,2.7,1,2.7,2.5v0.1h-1
		c0-1-0.4-1.7-1.8-1.7c-1.1,0-1.7,0.5-1.7,1.2s0.3,1.2,1.9,1.3c1.8,0.1,2.6,0.7,2.6,2v0.1c0,1.2-1,2.1-2.8,2.1
		c-2.1,0-2.8-1.2-2.8-2.3v-0.1h1c0,0.8,0.4,1.6,1.8,1.6C316.9,408.5,317.6,408,317.6,407.2z"/>
	<path d="M40.9,428.3H40l-3.1-9l0.1,2.4v6.6h-1v-10.7h1.4l3.1,9l3.1-9h1.4v10.7h-1v-6.6l0.1-2.4L40.9,428.3z"/>
	<path d="M47.7,421.1v4.9c0,1.1,0.6,1.6,1.6,1.6c1.2,0,1.7-0.6,2-1.1v-5.4h1v5.2l0.1,2.1h-0.8l-0.1-1c-0.4,0.6-1.2,1.2-2.4,1.2
		c-1.4,0-2.2-1-2.2-2.3v-5.1L47.7,421.1L47.7,421.1z"/>
	<path d="M58.5,426.3c0-1-0.5-1.2-2-1.4c-2-0.1-2.5-0.8-2.5-1.9V423c0-1.2,1-2.1,2.7-2.1c2,0,2.7,1,2.7,2.5v0.1h-1
		c0-1-0.4-1.7-1.8-1.7c-1.1,0-1.7,0.5-1.7,1.2s0.3,1.2,1.9,1.3c1.8,0.1,2.6,0.7,2.6,2v0.1c0,1.2-1,2.1-2.8,2.1
		c-2.1,0-2.8-1.2-2.8-2.3v-0.1h1c0,0.8,0.4,1.6,1.8,1.6C57.9,427.6,58.5,427.2,58.5,426.3z"/>
	<path d="M61.9,425.1c0.1,1.6,0.7,2.6,2.2,2.6s2.1-0.9,2.1-1.6h0.9v0.1c0,1.1-1,2.4-2.9,2.4c-2.2,0-3.1-1.6-3.1-3.6v-0.3
		c0-2,1-3.6,3.1-3.6c2.1,0,3,1.6,3,3.6v0.5L61.9,425.1L61.9,425.1z M61.9,424.3h4.2c-0.1-1.6-0.7-2.6-2.1-2.6
		C62.6,421.7,61.9,422.7,61.9,424.3z"/>
	<path d="M69.5,421.1v4.9c0,1.1,0.6,1.6,1.6,1.6c1.2,0,1.7-0.6,2-1.1v-5.4h1v5.2l0.1,2.1h-0.8l-0.1-1c-0.4,0.6-1.2,1.2-2.4,1.2
		c-1.4,0-2.2-1-2.2-2.3v-5.1L69.5,421.1L69.5,421.1z"/>
	<path d="M84.2,428.3v-5.1c0-1.1-0.5-1.4-1.4-1.4c-1,0-1.5,0.6-1.8,1.1v5.5h-1v-5.1c0-1.1-0.5-1.4-1.4-1.4c-1,0-1.5,0.6-1.8,1.1v5.5
		h-1v-5.2l-0.1-2.1h0.8l0.1,1c0.4-0.6,1.1-1.2,2.3-1.2c1,0,1.6,0.4,1.8,1.2c0.4-0.7,1.1-1.2,2.3-1.2c1.3,0,2.1,0.8,2.1,2.1v5.3
		L84.2,428.3L84.2,428.3z"/>
	<path d="M91.4,426.3c0-1-0.5-1.2-2-1.4c-2-0.1-2.5-0.8-2.5-1.9V423c0-1.2,1-2.1,2.7-2.1c2,0,2.7,1,2.7,2.5v0.1h-1
		c0-1-0.4-1.7-1.8-1.7c-1.1,0-1.7,0.5-1.7,1.2s0.3,1.2,1.9,1.3c1.8,0.1,2.6,0.7,2.6,2v0.1c0,1.2-1,2.1-2.8,2.1
		c-2.1,0-2.8-1.2-2.8-2.3v-0.1h1c0,0.8,0.4,1.6,1.8,1.6C90.7,427.6,91.4,427.2,91.4,426.3z"/>
	<path d="M100.3,421.9h-1.6h-2.3V421h5.1v0.7l-4,5.7h1.6h2.5v0.9h-5.3v-0.7L100.3,421.9z"/>
	<path d="M103.9,421.1v4.9c0,1.1,0.6,1.6,1.6,1.6c1.2,0,1.7-0.6,2-1.1v-5.4h1v5.2l0.1,2.1h-0.8l-0.1-1c-0.4,0.6-1.2,1.2-2.4,1.2
		c-1.4,0-2.2-1-2.2-2.3v-5.1L103.9,421.1L103.9,421.1z"/>
	<path d="M114,421.9c0.4-0.5,1-1,2.1-1c2,0,2.8,1.6,2.8,3.6v0.3c0,2-0.8,3.6-2.8,3.6c-1.1,0-1.8-0.5-2.2-1.2l-0.1,1h-0.8l0.1-2.1
		v-8.9h1L114,421.9L114,421.9z M114,426.5c0.3,0.5,0.8,1.1,1.8,1.1c1.4,0,2-1.1,2-2.7v-0.3c0-1.7-0.6-2.7-2-2.7
		c-1,0-1.6,0.6-1.8,1.1V426.5z"/>
	<path d="M121.1,425.1c0.1,1.6,0.7,2.6,2.2,2.6s2.1-0.9,2.1-1.6h0.9v0.1c0,1.1-1,2.4-2.9,2.4c-2.2,0-3.1-1.6-3.1-3.6v-0.3
		c0-2,1-3.6,3.1-3.6c2.1,0,3,1.6,3,3.6v0.5L121.1,425.1L121.1,425.1z M121.1,424.3h4.2c-0.1-1.6-0.7-2.6-2.1-2.6
		C121.8,421.7,121.2,422.7,121.1,424.3z"/>
	<path d="M132.4,426.9c-0.4,0.5-1,1-2.1,1c-2,0-2.8-1.5-2.8-3.4v-0.3c0-1.8,0.8-3.4,2.8-3.4c1.1,0,1.8,0.5,2.2,1.1l0.1-1h0.8
		l-0.1,2.1v5.3c0,1.6-0.8,2.8-2.9,2.8c-2.1,0-2.8-1.2-2.8-2.7v-0.2h0.9c0,1.4,0.5,2.1,1.8,2.1c1.4,0,1.9-0.7,1.9-2.1L132.4,426.9
		L132.4,426.9z M130.5,421.7c-1.4,0-2,1-2,2.5v0.3c0,1.5,0.7,2.5,2,2.5c1,0,1.6-0.6,1.8-1.1v-3.1
		C132.1,422.4,131.6,421.7,130.5,421.7z"/>
	<path d="M135.3,417.4h1v10.9h-1V417.4z"/>
	<path d="M138.8,425.1c0.1,1.6,0.7,2.6,2.2,2.6s2.1-0.9,2.1-1.6h0.9v0.1c0,1.1-1,2.4-2.9,2.4c-2.2,0-3.1-1.6-3.1-3.6v-0.3
		c0-2,1-3.6,3.1-3.6c2.1,0,3,1.6,3,3.6v0.5L138.8,425.1L138.8,425.1z M138.8,424.3h4.2c-0.1-1.6-0.7-2.6-2.1-2.6
		C139.6,421.7,138.9,422.7,138.8,424.3z"/>
	<path d="M146.8,419.4h-1.2v-1.2h1.2V419.4z M145.7,421.1h1v7.3h-1V421.1z"/>
	<path d="M152.4,421.1v0.9h-2.3v4.2c0,1.2,0.5,1.4,1.4,1.4c0.3,0,0.7-0.1,0.8-0.1v0.8c-0.1,0.1-0.4,0.1-1,0.1
		c-1.2,0-2.1-0.6-2.1-2.2v-4.4h-1.2V421h1.2v-2.1h1v2.1L152.4,421.1L152.4,421.1z"/>
	<path d="M154.7,425.1c0.1,1.6,0.7,2.6,2.2,2.6c1.4,0,2.1-0.9,2.1-1.6h0.9v0.1c0,1.1-1,2.4-2.9,2.4c-2.2,0-3.1-1.6-3.1-3.6v-0.3
		c0-2,1-3.6,3.1-3.6s3,1.6,3,3.6v0.5L154.7,425.1L154.7,425.1z M154.7,424.3h4.2c-0.1-1.6-0.7-2.6-2.1-2.6S154.8,422.7,154.7,424.3z
		"/>
	<path d="M166,428.3v-4.9c0-1.1-0.6-1.6-1.6-1.6c-1.2,0-1.7,0.6-2,1.1v5.4h-1v-5.2l-0.1-2.1h0.8l0.1,1c0.4-0.6,1.2-1.2,2.5-1.2
		c1.4,0,2.2,1,2.2,2.3v5.1L166,428.3L166,428.3z"/>
	<path d="M169.8,428.3h-1.2v-1.2h1.2V428.3z"/>
	<path d="M174.2,420.4v-0.1c0-1.8,1.3-2.9,3.4-2.9c2.4,0,3.4,1.2,3.4,3.4v0.3h-1c0-2.1-0.7-2.9-2.3-2.9h-0.1c-1.3,0-2.3,0.7-2.3,1.8
		v0.1c0,1.2,0.6,1.8,2.5,2.1c2.3,0.3,3.3,1.2,3.3,2.9v0.1c0,1.9-1.4,3-3.5,3c-2.3,0-3.5-1.3-3.5-3.5v-0.1h1c0,1.8,1,2.7,2.5,2.7h0.1
		c1.4,0,2.4-0.8,2.4-2.1v-0.1c0-1.2-0.8-1.9-2.7-2.1C175,422.9,174.2,421.9,174.2,420.4z"/>
	<path d="M183.8,419.4h-1.2v-1.2h1.2V419.4z M182.7,421.1h1v7.3h-1V421.1z"/>
	<path d="M186.2,425.1c0.1,1.6,0.7,2.6,2.2,2.6c1.4,0,2.1-0.9,2.1-1.6h0.9v0.1c0,1.1-1,2.4-2.9,2.4c-2.2,0-3.1-1.6-3.1-3.6v-0.3
		c0-2,1-3.6,3.1-3.6s3,1.6,3,3.6v0.5L186.2,425.1L186.2,425.1z M186.2,424.3h4.2c-0.1-1.6-0.7-2.6-2.1-2.6S186.3,422.7,186.2,424.3z
		"/>
	<path d="M196.9,419.4h-1.2v-1.2h1.2V419.4z M195.8,421.1h1v7.3h-1V421.1z"/>
	<path d="M203.1,426.3c0-1-0.5-1.2-2-1.4c-2-0.1-2.5-0.8-2.5-1.9V423c0-1.2,1-2.1,2.7-2.1c2,0,2.7,1,2.7,2.5v0.1h-1
		c0-1-0.4-1.7-1.8-1.7c-1.1,0-1.7,0.5-1.7,1.2s0.3,1.2,1.9,1.3c1.8,0.1,2.6,0.7,2.6,2v0.1c0,1.2-1,2.1-2.8,2.1
		c-2.1,0-2.8-1.2-2.8-2.3v-0.1h1c0,0.8,0.4,1.6,1.8,1.6C202.5,427.6,203.1,427.2,203.1,426.3z"/>
	<path d="M209.5,421.1v0.9h-2.3v4.2c0,1.2,0.5,1.4,1.4,1.4c0.3,0,0.7-0.1,0.8-0.1v0.8c-0.1,0.1-0.4,0.1-1,0.1
		c-1.2,0-2.1-0.6-2.1-2.2v-4.4H205V421h1.2v-2.1h1v2.1L209.5,421.1L209.5,421.1z"/>
	<path d="M216.7,428.3h-1v-9.8H213v-0.9h6.4v0.9h-2.7V428.3z"/>
	<path d="M219.9,425.1c0.1,1.6,0.7,2.6,2.2,2.6c1.4,0,2.1-0.9,2.1-1.6h0.9v0.1c0,1.1-1,2.4-2.9,2.4c-2.2,0-3.1-1.6-3.1-3.6v-0.3
		c0-2,1-3.6,3.1-3.6c2.1,0,3,1.6,3,3.6v0.5L219.9,425.1L219.9,425.1z M219.9,424.3h4.2c-0.1-1.6-0.7-2.6-2.1-2.6
		S219.9,422.7,219.9,424.3z"/>
	<path d="M227.8,419.4h-1.2v-1.2h1.2V419.4z M226.7,421.1h1v7.3h-1V421.1z"/>
	<path d="M229.7,417.4h1v10.9h-1V417.4z"/>
	<path d="M235.9,425.1c0.1,1.6,0.7,2.6,2.2,2.6c1.4,0,2.1-0.9,2.1-1.6h0.9v0.1c0,1.1-1,2.4-2.9,2.4c-2.2,0-3.1-1.6-3.1-3.6v-0.3
		c0-2,1-3.6,3.1-3.6s3,1.6,3,3.6v0.5L235.9,425.1L235.9,425.1z M235.9,424.3h4.2c-0.1-1.6-0.7-2.6-2.1-2.6S236,422.7,235.9,424.3z"
		/>
	<path d="M243.9,419.4h-1.2v-1.2h1.2V419.4z M242.8,421.1h1v7.3h-1V421.1z"/>
	<path d="M250.2,428.3v-4.9c0-1.1-0.6-1.6-1.6-1.6c-1.2,0-1.7,0.6-2,1.1v5.4h-1v-5.2l-0.1-2.1h0.8l0.1,1c0.4-0.6,1.2-1.2,2.5-1.2
		c1.4,0,2.2,1,2.2,2.3v5.1L250.2,428.3L250.2,428.3z"/>
	<path d="M253.6,425.1c0.1,1.6,0.7,2.6,2.2,2.6c1.4,0,2.1-0.9,2.1-1.6h0.9v0.1c0,1.1-1,2.4-2.9,2.4c-2.2,0-3.1-1.6-3.1-3.6v-0.3
		c0-2,1-3.6,3.1-3.6c2.1,0,3,1.6,3,3.6v0.5L253.6,425.1L253.6,425.1z M253.6,424.3h4.2c-0.1-1.6-0.7-2.6-2.1-2.6
		C254.3,421.7,253.7,422.7,253.6,424.3z"/>
	<path d="M264.7,426.3c0-1-0.5-1.2-2-1.4c-2-0.1-2.5-0.8-2.5-1.9V423c0-1.2,1-2.1,2.7-2.1c2,0,2.7,1,2.7,2.5v0.1h-1
		c0-1-0.4-1.7-1.8-1.7c-1.1,0-1.7,0.5-1.7,1.2s0.3,1.2,1.9,1.3c1.8,0.1,2.6,0.7,2.6,2v0.1c0,1.2-1,2.1-2.8,2.1
		c-2.1,0-2.8-1.2-2.8-2.3v-0.1h1c0,0.8,0.4,1.6,1.8,1.6C264.1,427.6,264.7,427.2,264.7,426.3z"/>
	<path d="M271.8,421.1h2.1v0.9h-2.1v6.4h-1V422h-1.2v-0.9h1.2v-1.7c0-1.6,0.9-2.2,2.1-2.2c0.5,0,0.9,0.1,1,0.1v0.8
		c-0.1-0.1-0.5-0.1-0.8-0.1c-0.9,0-1.4,0.3-1.4,1.4L271.8,421.1L271.8,421.1z"/>
	<path d="M275.5,417.4h1v10.9h-1V417.4z"/>
	<path d="M279,425.1c0.1,1.6,0.7,2.6,2.2,2.6c1.4,0,2.1-0.9,2.1-1.6h0.9v0.1c0,1.1-1,2.4-2.9,2.4c-2.2,0-3.1-1.6-3.1-3.6v-0.3
		c0-2,1-3.6,3.1-3.6c2.1,0,3,1.6,3,3.6v0.5L279,425.1L279,425.1z M279,424.3h4.2c-0.1-1.6-0.7-2.6-2.1-2.6
		C279.8,421.7,279.1,422.7,279,424.3z"/>
	<path d="M286.3,421.1l1.8,2.9l1.8-2.9h1.2l-2.3,3.6l2.3,3.7H290l-1.8-3.1l-1.8,3.1h-1.2l2.3-3.7l-2.3-3.6H286.3z"/>
	<path d="M293.6,419.4h-1.2v-1.2h1.2V419.4z M292.5,421.1h1v7.3h-1V421.1z"/>
	<path d="M296.3,421.9c0.4-0.5,1-1,2.1-1c2,0,2.8,1.6,2.8,3.6v0.3c0,2-0.8,3.6-2.8,3.6c-1.1,0-1.8-0.5-2.2-1.2l-0.1,1h-0.8l0.1-2.1
		v-8.9h1L296.3,421.9L296.3,421.9z M296.3,426.5c0.3,0.5,0.8,1.1,1.8,1.1c1.4,0,2-1.1,2-2.7v-0.3c0-1.7-0.6-2.7-2-2.7
		c-1,0-1.6,0.6-1.8,1.1V426.5z"/>
	<path d="M302.8,417.4h1v10.9h-1V417.4z"/>
	<path d="M306.4,425.1c0.1,1.6,0.7,2.6,2.2,2.6c1.4,0,2.1-0.9,2.1-1.6h0.9v0.1c0,1.1-1,2.4-2.9,2.4c-2.2,0-3.1-1.6-3.1-3.6v-0.3
		c0-2,1-3.6,3.1-3.6s3,1.6,3,3.6v0.5L306.4,425.1L306.4,425.1z M306.4,424.3h4.2c-0.1-1.6-0.7-2.6-2.1-2.6
		C307.1,421.7,306.5,422.7,306.4,424.3z"/>
	<path d="M317.6,428.3v-4.9c0-1.1-0.6-1.6-1.6-1.6c-1.2,0-1.7,0.6-2,1.1v5.4h-1v-5.2l-0.1-2.1h0.8l0.1,1c0.4-0.6,1.2-1.2,2.5-1.2
		c1.4,0,2.2,1,2.2,2.3v5.1L317.6,428.3L317.6,428.3z"/>
	<path d="M38.6,436.8c1.8,0,3.2,0.8,3.2,2.7v0.3c0,1.2-0.7,1.8-1.6,2.2c1.1,0.3,1.8,1,1.8,2.4v0.3c0,2.1-1.5,2.8-3.3,2.8h-2.9v-10.7
		L38.6,436.8L38.6,436.8z M36.9,437.7v3.8h1.8c1.2,0,2.2-0.5,2.2-1.8v-0.2c0-1.3-1-1.8-2.2-1.8L36.9,437.7L36.9,437.7z M36.9,442.4
		v4.2h2c1.2,0,2.2-0.5,2.2-2v-0.2c0-1.4-1-2-2.2-2L36.9,442.4L36.9,442.4z"/>
	<path d="M46.9,440.1v0.9h-0.2c-1.1,0-1.6,0.6-1.9,1.1v5.4h-1v-5.2l-0.1-2.1h0.8l0.1,1c0.4-0.6,1-1.1,2.1-1.1
		C46.8,440.1,46.9,440.1,46.9,440.1z"/>
	<path d="M52.4,446.4c-0.5,0.6-1.3,1.2-2.5,1.2c-1.3,0-2.1-0.8-2.1-2v-0.1c0-1.6,1.2-2.1,2.4-2.2l2.2-0.3v-0.2
		c0-1.2-0.4-1.9-1.7-1.9c-1.4,0-1.7,0.8-1.7,1.7h-0.9v-0.1c0-1.1,0.5-2.4,2.6-2.4c2,0,2.6,1.1,2.6,2.7v2.7l0.1,2.1h-0.8L52.4,446.4z
		 M52.4,445.6v-2l-2.1,0.3c-1,0.1-1.5,0.6-1.5,1.4v0.1c0,0.6,0.4,1.2,1.4,1.2C51.5,446.8,52.1,446,52.4,445.6z"/>
	<path d="M59.6,447.5v-4.9c0-1.1-0.6-1.6-1.6-1.6c-1.2,0-1.7,0.6-2,1.1v5.4h-1v-5.2l-0.1-2.1h0.8l0.1,1c0.4-0.6,1.2-1.2,2.5-1.2
		c1.4,0,2.2,1,2.2,2.3v5.1L59.6,447.5L59.6,447.5z"/>
	<path d="M66.9,441v-4.5h1v8.9l0.1,2.1h-0.8l-0.1-1c-0.3,0.6-1,1.1-2.1,1.1c-2,0-2.8-1.6-2.8-3.6v-0.3c0-2,0.8-3.6,2.8-3.6
		C65.9,440.1,66.5,440.5,66.9,441z M66.9,445.6v-3.6c-0.3-0.5-0.9-1.1-1.8-1.1c-1.4,0-2,1.1-2,2.7v0.3c0,1.7,0.6,2.7,2,2.7
		C66,446.7,66.6,446.1,66.9,445.6z"/>
	<path d="M70.9,438.5h-1.2v-1.2h1.2V438.5z M69.8,440.2h1v7.3h-1V440.2z"/>
	<path d="M77.2,447.5v-4.9c0-1.1-0.6-1.6-1.6-1.6c-1.2,0-1.7,0.6-2,1.1v5.4h-1v-5.2l-0.1-2.1h0.8l0.1,1c0.4-0.6,1.2-1.2,2.5-1.2
		c1.4,0,2.2,1,2.2,2.3v5.1L77.2,447.5L77.2,447.5z"/>
	<path d="M84.4,446.1c-0.4,0.5-1,1-2.1,1c-2,0-2.8-1.5-2.8-3.4v-0.3c0-1.8,0.8-3.4,2.8-3.4c1.1,0,1.8,0.5,2.2,1.1l0.1-1h0.8
		l-0.1,2.1v5.3c0,1.6-0.8,2.8-2.9,2.8c-2.1,0-2.8-1.2-2.8-2.7v-0.2h0.9c0,1.4,0.5,2.1,1.8,2.1c1.4,0,1.9-0.7,1.9-2.1L84.4,446.1
		L84.4,446.1z M82.6,440.9c-1.4,0-2,1-2,2.5v0.3c0,1.5,0.7,2.5,2,2.5c1,0,1.6-0.6,1.8-1.1v-3.1C84.2,441.6,83.6,440.9,82.6,440.9z"
		/>
	<path d="M86.8,442.2h3.4v0.9h-3.4V442.2z"/>
	<path d="M91.6,439.6v-0.1c0-1.8,1.3-2.9,3.4-2.9c2.4,0,3.4,1.2,3.4,3.4v0.3h-1c0-2.1-0.7-2.9-2.3-2.9h-0.1c-1.3,0-2.3,0.7-2.3,1.8
		v0.1c0,1.2,0.6,1.8,2.5,2.1c2.3,0.3,3.3,1.2,3.3,2.9v0.1c0,1.9-1.4,3-3.5,3c-2.3,0-3.5-1.3-3.5-3.5V444h1c0,1.8,1,2.7,2.5,2.7H95
		c1.4,0,2.4-0.8,2.4-2.1v-0.1c0-1.2-0.8-1.9-2.7-2.1C92.4,442.1,91.6,441,91.6,439.6z"/>
	<path d="M104.5,440.2h1l-2.6,7l-1,3h-1.1l1.2-3l-2.6-7h1l2.1,6L104.5,440.2z"/>
	<path d="M110.7,445.5c0-1-0.5-1.2-2-1.4c-2-0.1-2.5-0.8-2.5-1.9v-0.1c0-1.2,1-2.1,2.7-2.1c2,0,2.7,1,2.7,2.5v0.1h-1
		c0-1-0.4-1.7-1.8-1.7c-1.1,0-1.7,0.5-1.7,1.2s0.3,1.2,1.9,1.3c1.8,0.1,2.6,0.7,2.6,2v0.1c0,1.2-1,2.1-2.8,2.1
		c-2.1,0-2.8-1.2-2.8-2.3v-0.1h1c0,0.8,0.4,1.6,1.8,1.6C110.1,446.8,110.7,446.3,110.7,445.5z"/>
	<path d="M117.1,440.2v0.9h-2.3v4.2c0,1.2,0.5,1.4,1.4,1.4c0.3,0,0.7-0.1,0.8-0.1v0.8c-0.1,0.1-0.4,0.1-1,0.1
		c-1.2,0-2.1-0.6-2.1-2.2V441h-1.2v-0.9h1.2v-2.1h1v2.1L117.1,440.2L117.1,440.2z"/>
	<path d="M119.5,444.3c0.1,1.6,0.7,2.6,2.2,2.6c1.4,0,2.1-0.9,2.1-1.6h0.9v0.1c0,1.1-1,2.4-2.9,2.4c-2.2,0-3.1-1.6-3.1-3.6v-0.3
		c0-2,1-3.6,3.1-3.6c2.1,0,3,1.6,3,3.6v0.5L119.5,444.3L119.5,444.3z M119.5,443.4h4.2c-0.1-1.6-0.7-2.6-2.1-2.6
		C120.1,440.8,119.5,441.9,119.5,443.4z"/>
	<path d="M134.4,447.5v-5.1c0-1.1-0.5-1.4-1.4-1.4c-1,0-1.5,0.6-1.8,1.1v5.5h-1v-5.1c0-1.1-0.5-1.4-1.4-1.4c-1,0-1.5,0.6-1.8,1.1
		v5.5h-1v-5.2l-0.1-2.1h0.8l0.1,1c0.4-0.6,1.1-1.2,2.3-1.2c1,0,1.6,0.4,1.8,1.2c0.4-0.7,1.1-1.2,2.3-1.2c1.3,0,2.1,0.8,2.1,2.1v5.3
		L134.4,447.5L134.4,447.5z"/>
	<path d="M141.6,445.5c0-1-0.5-1.2-2-1.4c-2-0.1-2.5-0.8-2.5-1.9v-0.1c0-1.2,1-2.1,2.7-2.1c2,0,2.7,1,2.7,2.5v0.1h-1
		c0-1-0.4-1.7-1.8-1.7c-1.1,0-1.7,0.5-1.7,1.2s0.3,1.2,1.9,1.3c1.8,0.1,2.6,0.7,2.6,2v0.1c0,1.2-1,2.1-2.8,2.1
		c-2.1,0-2.8-1.2-2.8-2.3v-0.1h1c0,0.8,0.4,1.6,1.8,1.6C141,446.8,141.6,446.3,141.6,445.5z"/>
	<path d="M145.5,447.2c0,1.2-0.5,1.8-1.6,1.8v-0.5c0.5,0,0.9-0.3,1-1h-0.6v-1.2h1.2V447.2z"/>
	<path d="M149.2,440.2h1l2.1,6.4l2.1-6.4h1l-2.5,7.3h-1.2L149.2,440.2z"/>
	<path d="M156.4,444v-0.3c0-2,0.9-3.6,3.1-3.6c2.1,0,3.1,1.6,3.1,3.6v0.3c0,2-0.9,3.6-3.1,3.6C157.4,447.6,156.4,446,156.4,444z
		 M161.5,444v-0.3c0-1.6-0.6-2.7-2.1-2.7c-1.4,0-2.1,1.1-2.1,2.7v0.3c0,1.6,0.6,2.7,2.1,2.7C160.9,446.7,161.5,445.6,161.5,444z"/>
	<path d="M168.6,447.5v-4.9c0-1.1-0.6-1.6-1.6-1.6c-1.2,0-1.7,0.6-2,1.1v5.4h-1v-5.2l-0.1-2.1h0.8l0.1,1c0.4-0.6,1.2-1.2,2.5-1.2
		c1.4,0,2.2,1,2.2,2.3v5.1L168.6,447.5L168.6,447.5z"/>
	<path d="M175.1,447.5h-1v-10.7h2.9c1.5,0,3.3,0.5,3.3,3v0.3c0,2.5-1.8,3-3.3,3h-2V447.5z M177.1,442.2c0.9,0,2.3-0.3,2.3-2.2v-0.1
		c0-1.8-1.3-2.2-2.3-2.2h-2v4.6L177.1,442.2L177.1,442.2z"/>
	<path d="M182.2,444.3c0.1,1.6,0.7,2.6,2.2,2.6c1.4,0,2.1-0.9,2.1-1.6h0.9v0.1c0,1.1-1,2.4-2.9,2.4c-2.2,0-3.1-1.6-3.1-3.6v-0.3
		c0-2,1-3.6,3.1-3.6s3,1.6,3,3.6v0.5L182.2,444.3L182.2,444.3z M182.2,443.4h4.2c-0.1-1.6-0.7-2.6-2.1-2.6S182.3,441.9,182.2,443.4z
		"/>
	<path d="M193.5,447.5v-4.9c0-1.1-0.6-1.6-1.6-1.6c-1.2,0-1.7,0.6-2,1.1v5.4h-1v-5.2l-0.1-2.1h0.8l0.1,1c0.4-0.6,1.2-1.2,2.5-1.2
		c1.4,0,2.2,1,2.2,2.3v5.1L193.5,447.5L193.5,447.5z"/>
	<path d="M199.9,440.2v0.9h-2.3v4.2c0,1.2,0.5,1.4,1.4,1.4c0.3,0,0.7-0.1,0.8-0.1v0.8c-0.1,0.1-0.4,0.1-1,0.1
		c-1.2,0-2.1-0.6-2.1-2.2V441h-1.2v-0.9h1.2v-2.1h1v2.1L199.9,440.2L199.9,440.2z"/>
	<path d="M205.9,446.4c-0.5,0.6-1.3,1.2-2.5,1.2c-1.3,0-2.1-0.8-2.1-2v-0.1c0-1.6,1.2-2.1,2.4-2.2l2.2-0.3v-0.2
		c0-1.2-0.4-1.9-1.7-1.9c-1.4,0-1.7,0.8-1.7,1.7h-0.9v-0.1c0-1.1,0.5-2.4,2.6-2.4c2,0,2.6,1.1,2.6,2.7v2.7l0.1,2.1h-0.8L205.9,446.4
		z M205.7,445.6v-2l-2.1,0.3c-1,0.1-1.5,0.6-1.5,1.4v0.1c0,0.6,0.4,1.2,1.4,1.2C204.8,446.8,205.4,446,205.7,445.6z"/>
	<path d="M213,446.1c-0.4,0.5-1,1-2.1,1c-2,0-2.8-1.5-2.8-3.4v-0.3c0-1.8,0.8-3.4,2.8-3.4c1.1,0,1.8,0.5,2.2,1.1l0.1-1h0.8l-0.1,2.1
		v5.3c0,1.6-0.8,2.8-2.9,2.8c-2.1,0-2.8-1.2-2.8-2.7v-0.2h0.9c0,1.4,0.5,2.1,1.8,2.1c1.4,0,1.9-0.7,1.9-2.1V446.1z M211.2,440.9
		c-1.4,0-2,1-2,2.5v0.3c0,1.5,0.7,2.5,2,2.5c1,0,1.6-0.6,1.8-1.1v-3.1C212.8,441.6,212.2,440.9,211.2,440.9z"/>
	<path d="M218.8,440.1v0.9h-0.2c-1.1,0-1.6,0.6-1.9,1.1v5.4h-1v-5.2l-0.1-2.1h0.8l0.1,1c0.4-0.6,1-1.1,2.1-1.1
		C218.8,440.1,218.8,440.1,218.8,440.1z"/>
	<path d="M224.4,446.4c-0.5,0.6-1.3,1.2-2.5,1.2c-1.3,0-2.1-0.8-2.1-2v-0.1c0-1.6,1.2-2.1,2.4-2.2l2.2-0.3v-0.2
		c0-1.2-0.4-1.9-1.7-1.9c-1.4,0-1.7,0.8-1.7,1.7H220v-0.1c0-1.1,0.5-2.4,2.6-2.4c2,0,2.6,1.1,2.6,2.7v2.7l0.1,2.1h-0.8L224.4,446.4z
		 M224.3,445.6v-2l-2.1,0.3c-1,0.1-1.5,0.6-1.5,1.4v0.1c0,0.6,0.4,1.2,1.4,1.2C223.4,446.8,224,446,224.3,445.6z"/>
	<path d="M235.3,447.5v-5.1c0-1.1-0.5-1.4-1.4-1.4c-1,0-1.5,0.6-1.8,1.1v5.5h-1v-5.1c0-1.1-0.5-1.4-1.4-1.4c-1,0-1.5,0.6-1.8,1.1
		v5.5h-1v-5.2l-0.1-2.1h0.8l0.1,1c0.4-0.6,1.1-1.2,2.3-1.2c1,0,1.6,0.4,1.8,1.2c0.4-0.7,1.1-1.2,2.3-1.2c1.3,0,2.1,0.8,2.1,2.1v5.3
		L235.3,447.5L235.3,447.5z"/>
	<path d="M246.3,447.5v-5.1c0-1.1-0.5-1.4-1.4-1.4c-1,0-1.5,0.6-1.8,1.1v5.5h-1v-5.1c0-1.1-0.5-1.4-1.4-1.4c-1,0-1.5,0.6-1.8,1.1
		v5.5h-1v-5.2l-0.1-2.1h0.8l0.1,1c0.4-0.6,1.1-1.2,2.3-1.2c1,0,1.6,0.4,1.8,1.2c0.4-0.7,1.1-1.2,2.3-1.2c1.3,0,2.1,0.8,2.1,2.1v5.3
		L246.3,447.5L246.3,447.5z"/>
	<path d="M253.5,445.5c0-1-0.5-1.2-2-1.4c-2-0.1-2.5-0.8-2.5-1.9v-0.1c0-1.2,1-2.1,2.7-2.1c2,0,2.7,1,2.7,2.5v0.1h-1
		c0-1-0.4-1.7-1.8-1.7c-1.1,0-1.7,0.5-1.7,1.2s0.3,1.2,1.9,1.3c1.8,0.1,2.6,0.7,2.6,2v0.1c0,1.2-1,2.1-2.8,2.1
		c-2.1,0-2.8-1.2-2.8-2.3v-0.1h1c0,0.8,0.4,1.6,1.8,1.6C252.9,446.8,253.5,446.3,253.5,445.5z"/>
	<path d="M265,436.8v0.9h-5v3.9h4.3v0.9H260v4.1h5v0.9h-6v-10.7H265z"/>
	<path d="M271,441v-4.5h1v8.9l0.1,2.1h-0.8l-0.1-1c-0.3,0.6-1,1.1-2.1,1.1c-2,0-2.8-1.6-2.8-3.6v-0.3c0-2,0.8-3.6,2.8-3.6
		C270,440.1,270.7,440.5,271,441z M271,445.6v-3.6c-0.3-0.5-0.9-1.1-1.8-1.1c-1.4,0-2,1.1-2,2.7v0.3c0,1.7,0.6,2.7,2,2.7
		C270.2,446.7,270.8,446.1,271,445.6z"/>
	<path d="M278.4,441v-4.5h1v8.9l0.1,2.1h-0.8l-0.1-1c-0.3,0.6-1,1.1-2.1,1.1c-2,0-2.8-1.6-2.8-3.6v-0.3c0-2,0.8-3.6,2.8-3.6
		C277.4,440.1,278.1,440.5,278.4,441z M278.4,445.6v-3.6c-0.3-0.5-0.9-1.1-1.8-1.1c-1.4,0-2,1.1-2,2.7v0.3c0,1.7,0.6,2.7,2,2.7
		C277.6,446.7,278.2,446.1,278.4,445.6z"/>
	<path d="M282.4,438.5h-1.2v-1.2h1.2V438.5z M281.3,440.2h1v7.3h-1V440.2z"/>
	<path d="M284.9,444.3c0.1,1.6,0.7,2.6,2.2,2.6c1.4,0,2.1-0.9,2.1-1.6h0.9v0.1c0,1.1-1,2.4-2.9,2.4c-2.2,0-3.1-1.6-3.1-3.6v-0.3
		c0-2,1-3.6,3.1-3.6c2.1,0,3,1.6,3,3.6v0.5L284.9,444.3L284.9,444.3z M284.9,443.4h4.2c-0.1-1.6-0.7-2.6-2.1-2.6
		C285.6,440.8,284.9,441.9,284.9,443.4z"/>
	<path d="M294.2,442.4v-0.5c0-3.7,1.2-5.2,3.6-5.2c2.5,0,3.7,1.5,3.7,5.2v0.5c0,3.7-1.2,5.2-3.7,5.2
		C295.5,447.6,294.2,446.1,294.2,442.4z M297.9,446.7c1.8,0,2.6-1.3,2.6-4.3v-0.5c0-3-0.8-4.3-2.6-4.3h-0.1c-1.8,0-2.6,1.3-2.6,4.3
		v0.5C295.3,445.4,296.1,446.7,297.9,446.7L297.9,446.7z"/>
	<path d="M304.2,446.6v3.6h-1v-7.9l-0.1-2.1h0.8l0.1,1c0.4-0.6,1-1.2,2.2-1.2c2,0,2.8,1.6,2.8,3.6v0.3c0,2-0.8,3.6-2.8,3.6
		C305.2,447.6,304.6,447.2,304.2,446.6z M304.2,445.6c0.3,0.5,0.8,1.1,1.8,1.1c1.4,0,2-1.1,2-2.7v-0.3c0-1.7-0.6-2.7-2-2.7
		c-1,0-1.6,0.6-1.8,1.1V445.6z"/>
	<path d="M315,446.4c-0.5,0.6-1.3,1.2-2.5,1.2c-1.3,0-2.1-0.8-2.1-2v-0.1c0-1.6,1.2-2.1,2.4-2.2l2.2-0.3v-0.2c0-1.2-0.4-1.9-1.7-1.9
		c-1.4,0-1.7,0.8-1.7,1.7h-0.9v-0.1c0-1.1,0.5-2.4,2.6-2.4c2,0,2.6,1.1,2.6,2.7v2.7l0.1,2.1H315L315,446.4z M314.8,445.6v-2
		l-2.1,0.3c-1,0.1-1.5,0.6-1.5,1.4v0.1c0,0.6,0.4,1.2,1.4,1.2C314,446.8,314.6,446,314.8,445.6z"/>
	<path d="M320.6,440.1v0.9h-0.2c-1.1,0-1.6,0.6-1.9,1.1v5.4h-1v-5.2l-0.1-2.1h0.8l0.1,1c0.4-0.6,1-1.1,2.1-1.1
		C320.6,440.1,320.6,440.1,320.6,440.1z"/>
	<path d="M326.2,446.4c-0.5,0.6-1.3,1.2-2.5,1.2c-1.3,0-2.1-0.8-2.1-2v-0.1c0-1.6,1.2-2.1,2.4-2.2l2.2-0.3v-0.2
		c0-1.2-0.4-1.9-1.7-1.9c-1.4,0-1.7,0.8-1.7,1.7h-0.9v-0.1c0-1.1,0.5-2.4,2.6-2.4c2,0,2.6,1.1,2.6,2.7v2.7l0.1,2.1h-0.8L326.2,446.4
		z M326.1,445.6v-2L324,444c-1,0.1-1.5,0.6-1.5,1.4v0.1c0,0.6,0.4,1.2,1.4,1.2C325.2,446.8,325.8,446,326.1,445.6z"/>
	<path d="M330,447.2c0,1.2-0.5,1.8-1.6,1.8v-0.5c0.5,0,0.9-0.3,1-1h-0.6v-1.2h1.2V447.2z"/>
	<path d="M40.5,460.2v-4.5h1v8.9l0.1,2.1h-0.8l-0.1-1c-0.3,0.6-1,1.1-2.1,1.1c-2,0-2.8-1.6-2.8-3.6v-0.3c0-2,0.8-3.6,2.8-3.6
		C39.4,459.2,40.1,459.6,40.5,460.2z M40.5,464.8v-3.6c-0.3-0.5-0.9-1.1-1.8-1.1c-1.4,0-2,1.1-2,2.7v0.3c0,1.7,0.6,2.7,2,2.7
		C39.6,465.9,40.1,465.3,40.5,464.8z"/>
	<path d="M44,463.4c0.1,1.6,0.7,2.6,2.2,2.6c1.4,0,2.1-0.9,2.1-1.6h0.9v0.1c0,1.1-1,2.4-2.9,2.4c-2.2,0-3.1-1.6-3.1-3.6v-0.3
		c0-2,1-3.6,3.1-3.6s3,1.6,3,3.6v0.5L44,463.4L44,463.4z M44,462.6h4.2c-0.1-1.6-0.7-2.6-2.1-2.6C44.6,460,44,461,44,462.6z"/>
	<path d="M53.7,459.2v0.9h-0.2c-1.1,0-1.6,0.6-1.9,1.1v5.4h-1v-5.2l-0.1-2.1h0.8l0.1,1c0.4-0.6,1-1.1,2.1-1.1
		C53.6,459.2,53.7,459.2,53.7,459.2z"/>
	<path d="M62.4,460.2v-4.5h1v8.9l0.1,2.1h-0.8l-0.1-1c-0.3,0.6-1,1.1-2.1,1.1c-2,0-2.8-1.6-2.8-3.6v-0.3c0-2,0.8-3.6,2.8-3.6
		C61.4,459.2,62,459.6,62.4,460.2z M62.4,464.8v-3.6c-0.3-0.5-0.9-1.1-1.8-1.1c-1.4,0-2,1.1-2,2.7v0.3c0,1.7,0.6,2.7,2,2.7
		C61.6,465.9,62.1,465.3,62.4,464.8z"/>
	<path d="M69.5,465.6c-0.5,0.6-1.3,1.2-2.5,1.2c-1.3,0-2.1-0.8-2.1-2v-0.1c0-1.6,1.2-2.1,2.4-2.2l2.2-0.3v-0.2
		c0-1.2-0.4-1.9-1.7-1.9c-1.4,0-1.7,0.8-1.7,1.7h-0.9v-0.1c0-1.1,0.5-2.4,2.6-2.4c2,0,2.6,1.1,2.6,2.7v2.7l0.1,2.1h-0.7L69.5,465.6z
		 M69.5,464.8v-2l-2.1,0.3c-1,0.1-1.5,0.6-1.5,1.4v0.1c0,0.6,0.4,1.2,1.4,1.2C68.6,465.9,69.2,465.2,69.5,464.8z"/>
	<path d="M76.6,464.6c0-1-0.5-1.2-2-1.4c-2-0.1-2.5-0.8-2.5-1.9v-0.1c0-1.2,1-2.1,2.7-2.1c2,0,2.7,1,2.7,2.5v0.1h-1
		c0-1-0.4-1.7-1.8-1.7c-1.1,0-1.7,0.5-1.7,1.2c0,0.8,0.3,1.2,1.9,1.3c1.8,0.1,2.6,0.7,2.6,2v0.1c0,1.2-1,2.1-2.8,2.1
		c-2.1,0-2.8-1.2-2.8-2.3v-0.1h1c0,0.8,0.4,1.6,1.8,1.6C76,465.9,76.6,465.5,76.6,464.6z"/>
	<path d="M84.9,455.9c1.8,0,3.2,0.8,3.2,2.7v0.3c0,1.2-0.7,1.8-1.6,2.2c1.1,0.3,1.8,1,1.8,2.4v0.3c0,2.1-1.5,2.8-3.3,2.8h-2.9v-10.7
		L84.9,455.9L84.9,455.9z M83.1,456.8v3.8h1.8c1.2,0,2.2-0.5,2.2-1.8v-0.2c0-1.3-1-1.8-2.2-1.8L83.1,456.8L83.1,456.8z M83.1,461.6
		v4.2h2c1.2,0,2.2-0.5,2.2-2v-0.2c0-1.4-1-2-2.2-2L83.1,461.6L83.1,461.6z"/>
	<path d="M93.2,459.2v0.9H93c-1.1,0-1.6,0.6-1.9,1.1v5.4h-1v-5.2l-0.1-2.1h0.8l0.1,1c0.4-0.6,1-1.1,2.1-1.1
		C93.1,459.2,93.1,459.2,93.2,459.2z"/>
	<path d="M98.7,465.6c-0.5,0.6-1.3,1.2-2.5,1.2c-1.3,0-2.1-0.8-2.1-2v-0.1c0-1.6,1.2-2.1,2.4-2.2l2.2-0.3v-0.2
		c0-1.2-0.4-1.9-1.7-1.9c-1.4,0-1.7,0.8-1.7,1.7h-0.9v-0.1c0-1.1,0.5-2.4,2.6-2.4c2,0,2.6,1.1,2.6,2.7v2.7l0.1,2.1h-0.8L98.7,465.6z
		 M98.6,464.8v-2l-2.1,0.3c-1,0.1-1.5,0.6-1.5,1.4v0.1c0,0.6,0.4,1.2,1.4,1.2C97.7,465.9,98.3,465.2,98.6,464.8z"/>
	<path d="M105.9,466.6v-4.9c0-1.1-0.6-1.6-1.6-1.6c-1.2,0-1.7,0.6-2,1.1v5.4h-1v-5.2l-0.1-2.1h0.8l0.1,1c0.4-0.6,1.2-1.2,2.5-1.2
		c1.4,0,2.2,1,2.2,2.3v5.1L105.9,466.6L105.9,466.6z"/>
	<path d="M113.2,460.2v-4.5h1v8.9l0.1,2.1h-0.8l-0.1-1c-0.3,0.6-1,1.1-2.1,1.1c-2,0-2.8-1.6-2.8-3.6v-0.3c0-2,0.8-3.6,2.8-3.6
		C112.1,459.2,112.8,459.6,113.2,460.2z M113.2,464.8v-3.6c-0.3-0.5-0.9-1.1-1.8-1.1c-1.4,0-2,1.1-2,2.7v0.3c0,1.7,0.6,2.7,2,2.7
		C112.3,465.9,112.9,465.3,113.2,464.8z"/>
	<path d="M117.1,457.7h-1.2v-1.2h1.2V457.7z M116,459.4h1v7.3h-1V459.4z"/>
	<path d="M123.4,466.6v-4.9c0-1.1-0.6-1.6-1.6-1.6c-1.2,0-1.7,0.6-2,1.1v5.4h-1v-5.2l-0.1-2.1h0.8l0.1,1c0.4-0.6,1.2-1.2,2.5-1.2
		c1.4,0,2.2,1,2.2,2.3v5.1L123.4,466.6L123.4,466.6z"/>
	<path d="M130.7,465.3c-0.4,0.5-1,1-2.1,1c-2,0-2.8-1.5-2.8-3.4v-0.3c0-1.8,0.8-3.4,2.8-3.4c1.1,0,1.8,0.5,2.2,1.1l0.1-1h0.8
		l-0.1,2.1v5.3c0,1.6-0.8,2.8-2.9,2.8c-2.1,0-2.8-1.2-2.8-2.7v-0.2h0.9c0,1.4,0.5,2.1,1.8,2.1c1.4,0,1.9-0.7,1.9-2.1L130.7,465.3
		L130.7,465.3z M128.8,460.1c-1.4,0-2,1-2,2.5v0.3c0,1.5,0.7,2.5,2,2.5c1,0,1.6-0.6,1.8-1.1v-3.1
		C130.4,460.7,129.9,460.1,128.8,460.1z"/>
	<path d="M136.9,463.4c0.1,1.6,0.7,2.6,2.2,2.6c1.4,0,2.1-0.9,2.1-1.6h0.9v0.1c0,1.1-1,2.4-2.9,2.4c-2.2,0-3.1-1.6-3.1-3.6v-0.3
		c0-2,1-3.6,3.1-3.6c2.1,0,3,1.6,3,3.6v0.5L136.9,463.4L136.9,463.4z M136.9,462.6h4.2c-0.1-1.6-0.7-2.6-2.1-2.6
		S137,461,136.9,462.6z"/>
	<path d="M148.2,466.6v-4.9c0-1.1-0.6-1.6-1.6-1.6c-1.2,0-1.7,0.6-2,1.1v5.4h-1v-5.2l-0.1-2.1h0.8l0.1,1c0.4-0.6,1.2-1.2,2.5-1.2
		c1.4,0,2.2,1,2.2,2.3v5.1L148.2,466.6L148.2,466.6z"/>
	<path d="M154.6,459.4v0.9h-2.3v4.2c0,1.2,0.5,1.4,1.4,1.4c0.3,0,0.7-0.1,0.8-0.1v0.8c-0.1,0.1-0.4,0.1-1,0.1
		c-1.2,0-2.1-0.6-2.1-2.2v-4.4h-1.2v-0.9h1.2v-2.1h1v2.1L154.6,459.4L154.6,459.4z"/>
	<path d="M158.5,466.6h-1.2l-1.6-7.3h1l1.2,6.2l1.7-6.2h1.2l1.7,6.2l1.2-6.2h1l-1.6,7.3h-1.3l-1.6-6.2L158.5,466.6z"/>
	<path d="M167.1,457.7h-1.2v-1.2h1.2V457.7z M166,459.4h1v7.3h-1V459.4z"/>
	<path d="M171.7,465.9c1.4,0,1.8-0.9,1.8-1.8h0.9v0.2c0,1.2-0.8,2.5-2.8,2.5c-2.1,0-3-1.6-3-3.6v-0.3c0-2,0.9-3.6,3-3.6
		c2,0,2.8,1.4,2.8,2.5v0.3h-0.9c0-1.1-0.5-1.9-1.8-1.9c-1.4,0-2.1,1.1-2.1,2.7v0.3C169.7,464.8,170.3,465.9,171.7,465.9z"/>
	<path d="M176,455.7h1v7.5l3.4-3.8h1.2l-2.5,2.7l2.5,4.5h-1.1l-2.1-3.8l-1.5,1.6v2.1h-1L176,455.7L176,455.7z"/>
	<path d="M183.2,463.4c0.1,1.6,0.7,2.6,2.2,2.6c1.4,0,2.1-0.9,2.1-1.6h0.9v0.1c0,1.1-1,2.4-2.9,2.4c-2.2,0-3.1-1.6-3.1-3.6v-0.3
		c0-2,1-3.6,3.1-3.6s3,1.6,3,3.6v0.5L183.2,463.4L183.2,463.4z M183.2,462.6h4.2c-0.1-1.6-0.7-2.6-2.1-2.6S183.3,461,183.2,462.6z"
		/>
	<path d="M190.1,455.7h1v10.9h-1V455.7z"/>
	<path d="M196.8,459.4v0.9h-2.3v4.2c0,1.2,0.5,1.4,1.4,1.4c0.3,0,0.7-0.1,0.8-0.1v0.8c-0.1,0.1-0.4,0.1-1,0.1
		c-1.2,0-2.1-0.6-2.1-2.2v-4.4h-1.2v-0.9h1.2v-2.1h1v2.1L196.8,459.4L196.8,459.4z"/>
	<path d="M199.1,463.4c0.1,1.6,0.7,2.6,2.2,2.6c1.5,0,2.1-0.9,2.1-1.6h0.9v0.1c0,1.1-1,2.4-2.9,2.4c-2.2,0-3.1-1.6-3.1-3.6v-0.3
		c0-2,1-3.6,3.1-3.6s3,1.6,3,3.6v0.5L199.1,463.4L199.1,463.4z M199.1,462.6h4.2c-0.1-1.6-0.7-2.6-2.1-2.6S199.1,461,199.1,462.6z"
		/>
	<path d="M209.4,459.4v4.9c0,1.1,0.6,1.6,1.6,1.6c1.2,0,1.7-0.6,2-1.1v-5.4h1v5.2l0.1,2.1h-0.8l-0.1-1c-0.4,0.6-1.2,1.2-2.4,1.2
		c-1.4,0-2.2-1-2.2-2.3v-5.1L209.4,459.4L209.4,459.4z"/>
	<path d="M220.3,466.6v-4.9c0-1.1-0.6-1.6-1.6-1.6c-1.2,0-1.7,0.6-2,1.1v5.4h-1v-5.2l-0.1-2.1h0.8l0.1,1c0.4-0.6,1.2-1.2,2.5-1.2
		c1.4,0,2.2,1,2.2,2.3v5.1L220.3,466.6L220.3,466.6z"/>
	<path d="M227.6,460.2v-4.5h1v8.9l0.1,2.1h-0.8l-0.1-1c-0.3,0.6-1,1.1-2.1,1.1c-2,0-2.8-1.6-2.8-3.6v-0.3c0-2,0.8-3.6,2.8-3.6
		C226.6,459.2,227.2,459.6,227.6,460.2z M227.6,464.8v-3.6c-0.3-0.5-0.9-1.1-1.8-1.1c-1.4,0-2,1.1-2,2.7v0.3c0,1.7,0.6,2.7,2,2.7
		C226.8,465.9,227.3,465.3,227.6,464.8z"/>
	<path d="M236.6,465.9L236.6,465.9c1.6,0,2.3-1,2.3-2.7h1v0.1c0,2.3-1.1,3.5-3.4,3.5c-2.5,0-3.6-1.5-3.6-5.2V461
		c0-3.7,1.2-5.2,3.6-5.2c2.3,0,3.4,1.2,3.4,3.6v0.4h-1c0-2.2-0.7-3.1-2.3-3.1h-0.1c-1.8,0-2.6,1.3-2.6,4.3v0.5
		C234,464.6,234.8,465.9,236.6,465.9z"/>
	<path d="M242.5,460.3c0.4-0.5,1.2-1,2.3-1c1.4,0,2.2,1,2.2,2.3v5.1h-1v-4.9c0-1.1-0.6-1.6-1.6-1.6c-1.2,0-1.7,0.6-2,1.1v5.4h-1
		v-10.9h1L242.5,460.3L242.5,460.3z"/>
	<path d="M249.6,463.4c0.1,1.6,0.7,2.6,2.2,2.6c1.4,0,2.1-0.9,2.1-1.6h0.9v0.1c0,1.1-1,2.4-2.9,2.4c-2.2,0-3.1-1.6-3.1-3.6v-0.3
		c0-2,1-3.6,3.1-3.6c2.1,0,3,1.6,3,3.6v0.5L249.6,463.4L249.6,463.4z M249.6,462.6h4.2c-0.1-1.6-0.7-2.6-2.1-2.6
		C250.2,460,249.6,461,249.6,462.6z"/>
	<path d="M260.7,464.6c0-1-0.5-1.2-2-1.4c-2-0.1-2.5-0.8-2.5-1.9v-0.1c0-1.2,1-2.1,2.7-2.1c2,0,2.7,1,2.7,2.5v0.1h-1
		c0-1-0.4-1.7-1.8-1.7c-1.1,0-1.7,0.5-1.7,1.2c0,0.8,0.3,1.2,1.9,1.3c1.8,0.1,2.6,0.7,2.6,2v0.1c0,1.2-1,2.1-2.8,2.1
		c-2.1,0-2.8-1.2-2.8-2.3v-0.1h1c0,0.8,0.4,1.6,1.8,1.6C260.1,465.9,260.7,465.5,260.7,464.6z"/>
	<path d="M267.1,459.4v0.9h-2.3v4.2c0,1.2,0.5,1.4,1.4,1.4c0.3,0,0.7-0.1,0.8-0.1v0.8c-0.1,0.1-0.4,0.1-1,0.1
		c-1.2,0-2.1-0.6-2.1-2.2v-4.4h-1.2v-0.9h1.2v-2.1h1v2.1L267.1,459.4L267.1,459.4z"/>
	<path d="M269.4,463.4c0.1,1.6,0.7,2.6,2.2,2.6c1.4,0,2.1-0.9,2.1-1.6h0.9v0.1c0,1.1-1,2.4-2.9,2.4c-2.2,0-3.1-1.6-3.1-3.6v-0.3
		c0-2,1-3.6,3.1-3.6s3,1.6,3,3.6v0.5L269.4,463.4L269.4,463.4z M269.4,462.6h4.2c-0.1-1.6-0.7-2.6-2.1-2.6S269.5,461,269.4,462.6z"
		/>
	<path d="M279.2,459.2v0.9H279c-1.1,0-1.6,0.6-1.9,1.1v5.4h-1v-5.2l-0.1-2.1h0.8l0.1,1c0.4-0.6,1-1.1,2.1-1.1
		C279.1,459.2,279.2,459.2,279.2,459.2z"/>
	<path d="M288.1,455.9v7.4c0,2.1-0.8,3.4-2.7,3.4c-2.1,0-2.7-1.2-2.7-3.4v-0.2h1c0,1.9,0.5,2.7,1.8,2.7c1.2,0,1.8-0.8,1.8-2.7v-7.3
		L288.1,455.9L288.1,455.9z"/>
	<path d="M290.6,463.4c0.1,1.6,0.7,2.6,2.2,2.6c1.4,0,2.1-0.9,2.1-1.6h0.9v0.1c0,1.1-1,2.4-2.9,2.4c-2.2,0-3.1-1.6-3.1-3.6v-0.3
		c0-2,1-3.6,3.1-3.6c2.1,0,3,1.6,3,3.6v0.5L290.6,463.4L290.6,463.4z M290.6,462.6h4.2c-0.1-1.6-0.7-2.6-2.1-2.6
		C291.4,460,290.7,461,290.6,462.6z"/>
	<path d="M301.9,466.6v-4.9c0-1.1-0.6-1.6-1.6-1.6c-1.2,0-1.7,0.6-2,1.1v5.4h-1v-5.2l-0.1-2.1h0.8l0.1,1c0.4-0.6,1.2-1.2,2.5-1.2
		c1.4,0,2.2,1,2.2,2.3v5.1L301.9,466.6L301.9,466.6z"/>
	<path d="M304.6,455.7h1v7.5l3.4-3.8h1.2l-2.5,2.7l2.5,4.5H309l-2.1-3.8l-1.5,1.6v2.1h-1L304.6,455.7L304.6,455.7z"/>
	<path d="M312.6,457.7h-1.2v-1.2h1.2V457.7z M311.5,459.4h1v7.3h-1V459.4z"/>
	<path d="M318.9,466.6v-4.9c0-1.1-0.6-1.6-1.6-1.6c-1.2,0-1.7,0.6-2,1.1v5.4h-1v-5.2l-0.1-2.1h0.8l0.1,1c0.4-0.6,1.2-1.2,2.5-1.2
		c1.4,0,2.2,1,2.2,2.3v5.1L318.9,466.6L318.9,466.6z"/>
	<path d="M326,464.6c0-1-0.5-1.2-2-1.4c-2-0.1-2.5-0.8-2.5-1.9v-0.1c0-1.2,1-2.1,2.7-2.1c2,0,2.7,1,2.7,2.5v0.1h-1
		c0-1-0.4-1.7-1.8-1.7c-1.1,0-1.7,0.5-1.7,1.2c0,0.8,0.3,1.2,1.9,1.3c1.8,0.1,2.6,0.7,2.6,2v0.1c0,1.2-1,2.1-2.8,2.1
		c-2.1,0-2.8-1.2-2.8-2.3v-0.1h1c0,0.8,0.4,1.6,1.8,1.6C325.4,465.9,326,465.5,326,464.6z"/>
	<path d="M35.3,478.5h1l2.1,6.4l2.1-6.4h1l-2.5,7.3h-1.2L35.3,478.5z"/>
	<path d="M42.4,482.3v-0.3c0-2,0.9-3.6,3.1-3.6c2.1,0,3.1,1.6,3.1,3.6v0.3c0,2-0.9,3.6-3.1,3.6C43.3,485.9,42.4,484.3,42.4,482.3z
		 M47.6,482.3v-0.3c0-1.6-0.6-2.7-2.1-2.7s-2.1,1.1-2.1,2.7v0.3c0,1.6,0.6,2.7,2.1,2.7S47.6,483.9,47.6,482.3z"/>
	<path d="M54.6,485.8v-4.9c0-1.1-0.6-1.6-1.6-1.6c-1.2,0-1.7,0.6-2,1.1v5.4h-1v-5.2l-0.1-2.1h0.8l0.1,1c0.4-0.6,1.2-1.2,2.5-1.2
		c1.4,0,2.2,1,2.2,2.3v5.1L54.6,485.8L54.6,485.8z"/>
	<path d="M62.4,485.8L59.3,475h1.1l2.7,9.7l2.7-9.7H67l-3.1,10.8H62.4z"/>
	<path d="M69.4,476.8h-1.2v-1.2h1.2V476.8z M68.3,478.5h1v7.3h-1V478.5z"/>
	<path d="M71.2,474.8h1v10.9h-1V474.8z"/>
	<path d="M74.2,474.8h1v10.9h-1V474.8z"/>
	<path d="M81.4,484.7c-0.5,0.6-1.3,1.2-2.5,1.2c-1.3,0-2.1-0.8-2.1-2v-0.1c0-1.6,1.2-2.1,2.4-2.2l2.2-0.3v-0.2
		c0-1.2-0.4-1.9-1.7-1.9c-1.4,0-1.7,0.8-1.7,1.7h-0.9v-0.1c0-1.1,0.5-2.4,2.6-2.4c2,0,2.6,1.1,2.6,2.7v2.7l0.1,2.1h-0.8L81.4,484.7z
		 M81.3,483.9v-2l-2.1,0.3c-1,0.1-1.5,0.6-1.5,1.4v0.1c0,0.6,0.4,1.2,1.4,1.2C80.5,485.1,81.1,484.3,81.3,483.9z"/>
	<path d="M88.7,484.4c-0.4,0.5-1,1-2.1,1c-2,0-2.8-1.5-2.8-3.4v-0.3c0-1.8,0.8-3.4,2.8-3.4c1.1,0,1.8,0.5,2.2,1.1l0.1-1h0.8
		l-0.1,2.1v5.3c0,1.6-0.8,2.8-2.9,2.8c-2.1,0-2.8-1.2-2.8-2.7v-0.2h0.9c0,1.4,0.5,2.1,1.8,2.1c1.4,0,1.9-0.7,1.9-2.1L88.7,484.4
		L88.7,484.4z M86.8,479.2c-1.4,0-2,1-2,2.5v0.3c0,1.5,0.7,2.5,2,2.5c1,0,1.6-0.6,1.8-1.1v-3.1C88.3,479.9,87.8,479.2,86.8,479.2z"
		/>
	<path d="M92.2,482.6c0.1,1.6,0.7,2.6,2.2,2.6c1.4,0,2.1-0.9,2.1-1.6h0.9v0.1c0,1.1-1,2.4-2.9,2.4c-2.2,0-3.1-1.6-3.1-3.6v-0.3
		c0-2,1-3.6,3.1-3.6c2.1,0,3,1.6,3,3.6v0.5L92.2,482.6L92.2,482.6z M92.2,481.7h4.2c-0.1-1.6-0.7-2.6-2.1-2.6
		C92.9,479.1,92.2,480.2,92.2,481.7z"/>
	<path d="M100,485.5c0,1.2-0.5,1.8-1.6,1.8v-0.5c0.5,0,0.9-0.3,1-1h-0.6v-1.2h1.2V485.5z"/>
	<path d="M109.1,479.3v-4.5h1v8.9l0.1,2.1h-0.8l-0.1-1c-0.3,0.6-1,1.1-2.1,1.1c-2,0-2.8-1.6-2.8-3.6v-0.3c0-2,0.8-3.6,2.8-3.6
		C108.1,478.4,108.8,478.8,109.1,479.3z M109.1,483.9v-3.6c-0.3-0.5-0.9-1.1-1.8-1.1c-1.4,0-2,1.1-2,2.7v0.3c0,1.7,0.6,2.7,2,2.7
		C108.3,485,108.9,484.4,109.1,483.9z"/>
	<path d="M112.6,482.6c0.1,1.6,0.7,2.6,2.2,2.6c1.4,0,2.1-0.9,2.1-1.6h0.9v0.1c0,1.1-1,2.4-2.9,2.4c-2.2,0-3.1-1.6-3.1-3.6v-0.3
		c0-2,1-3.6,3.1-3.6c2.1,0,3,1.6,3,3.6v0.5L112.6,482.6L112.6,482.6z M112.6,481.7h4.2c-0.1-1.6-0.7-2.6-2.1-2.6
		C113.4,479.1,112.7,480.2,112.6,481.7z"/>
	<path d="M122.4,478.4v0.9h-0.2c-1.1,0-1.6,0.6-1.9,1.1v5.4h-1v-5.2l-0.1-2.1h0.8l0.1,1c0.4-0.6,1-1.1,2.1-1.1
		C122.3,478.4,122.4,478.4,122.4,478.4z"/>
	<path d="M131.2,479.3v-4.5h1v8.9l0.1,2.1h-0.8l-0.1-1c-0.3,0.6-1,1.1-2.1,1.1c-2,0-2.8-1.6-2.8-3.6v-0.3c0-2,0.8-3.6,2.8-3.6
		C130.1,478.4,130.7,478.8,131.2,479.3z M131.2,483.9v-3.6c-0.3-0.5-0.9-1.1-1.8-1.1c-1.4,0-2,1.1-2,2.7v0.3c0,1.7,0.6,2.7,2,2.7
		C130.3,485,130.8,484.4,131.2,483.9z"/>
	<path d="M135.1,476.8h-1.2v-1.2h1.2V476.8z M134,478.5h1v7.3h-1V478.5z"/>
	<path d="M137.6,482.6c0.1,1.6,0.7,2.6,2.2,2.6c1.4,0,2.1-0.9,2.1-1.6h0.9v0.1c0,1.1-1,2.4-2.9,2.4c-2.2,0-3.1-1.6-3.1-3.6v-0.3
		c0-2,1-3.6,3.1-3.6s3,1.6,3,3.6v0.5L137.6,482.6L137.6,482.6z M137.6,481.7h4.2c-0.1-1.6-0.7-2.6-2.1-2.6
		C138.3,479.1,137.7,480.2,137.6,481.7z"/>
	<path d="M146.9,477.9v-0.1c0-1.8,1.3-2.9,3.4-2.9c2.4,0,3.4,1.2,3.4,3.4v0.3h-1c0-2.1-0.7-2.9-2.3-2.9h-0.1c-1.3,0-2.3,0.7-2.3,1.8
		v0.1c0,1.2,0.6,1.8,2.5,2.1c2.3,0.3,3.3,1.2,3.3,2.9v0.1c0,1.9-1.4,3-3.5,3c-2.3,0-3.5-1.3-3.5-3.5v-0.1h1c0,1.8,1,2.7,2.5,2.7h0.1
		c1.4,0,2.4-0.8,2.4-2.1v-0.1c0-1.2-0.8-1.9-2.7-2.1C147.7,480.4,146.9,479.3,146.9,477.9z"/>
	<path d="M158,485c1.4,0,1.8-0.9,1.8-1.8h0.9v0.2c0,1.2-0.8,2.5-2.8,2.5c-2.1,0-3-1.6-3-3.6v-0.3c0-2,0.9-3.6,3-3.6
		c2,0,2.8,1.4,2.8,2.5v0.3h-0.9c0-1.1-0.5-1.9-1.8-1.9c-1.4,0-2.1,1.1-2.1,2.7v0.3C156,483.9,156.6,485,158,485z"/>
	<path d="M163.4,479.4c0.4-0.5,1.2-1,2.3-1c1.4,0,2.2,1,2.2,2.3v5.1h-1v-4.9c0-1.1-0.6-1.6-1.6-1.6c-1.2,0-1.7,0.6-2,1.1v5.4h-1
		v-10.9h1L163.4,479.4L163.4,479.4z"/>
	<path d="M172.7,478.4v0.9h-0.2c-1.1,0-1.6,0.6-1.9,1.1v5.4h-1v-5.2l-0.1-2.1h0.8l0.1,1c0.4-0.6,1-1.1,2.1-1.1
		C172.6,478.4,172.7,478.4,172.7,478.4z"/>
	<path d="M175.3,476.8h-1.2v-1.2h1.2V476.8z M174.3,478.5h1v7.3h-1V478.5z"/>
	<path d="M178.8,478.5h2.1v0.9h-2.1v6.4h-1v-6.4h-1.2v-0.9h1.2v-1.7c0-1.6,0.9-2.2,2.1-2.2c0.5,0,0.9,0.1,1,0.1v0.8
		c-0.1-0.1-0.5-0.1-0.8-0.1c-0.9,0-1.4,0.3-1.4,1.4L178.8,478.5L178.8,478.5z"/>
	<path d="M186.3,478.5v0.9H184v4.2c0,1.2,0.5,1.4,1.4,1.4c0.3,0,0.7-0.1,0.8-0.1v0.8c-0.1,0.1-0.4,0.1-1,0.1c-1.2,0-2.1-0.6-2.1-2.2
		v-4.4h-1.2v-0.9h1.2v-2.1h1v2.1L186.3,478.5L186.3,478.5z"/>
	<path d="M194.1,479.3h-1.6h-2.3v-0.9h5.1v0.7l-4,5.7h1.6h2.5v0.9h-5.3v-0.7L194.1,479.3z"/>
	<path d="M197.4,482.6c0.1,1.6,0.7,2.6,2.2,2.6c1.5,0,2.1-0.9,2.1-1.6h0.9v0.1c0,1.1-1,2.4-2.9,2.4c-2.2,0-3.1-1.6-3.1-3.6v-0.3
		c0-2,1-3.6,3.1-3.6s3,1.6,3,3.6v0.5L197.4,482.6L197.4,482.6z M197.4,481.7h4.2c-0.1-1.6-0.7-2.6-2.1-2.6
		C198.1,479.1,197.5,480.2,197.4,481.7z"/>
	<path d="M205.3,476.8h-1.2v-1.2h1.2V476.8z M204.2,478.5h1v7.3h-1V478.5z"/>
	<path d="M209.9,485c1.4,0,1.8-0.9,1.8-1.8h0.9v0.2c0,1.2-0.8,2.5-2.8,2.5c-2.1,0-3-1.6-3-3.6v-0.3c0-2,0.9-3.6,3-3.6
		c2,0,2.8,1.4,2.8,2.5v0.3h-0.9c0-1.1-0.5-1.9-1.8-1.9c-1.4,0-2.1,1.1-2.1,2.7v0.3C207.8,483.9,208.5,485,209.9,485z"/>
	<path d="M215.2,479.4c0.4-0.5,1.2-1,2.3-1c1.4,0,2.2,1,2.2,2.3v5.1h-1v-4.9c0-1.1-0.6-1.6-1.6-1.6c-1.2,0-1.7,0.6-2,1.1v5.4h-1
		v-10.9h1L215.2,479.4L215.2,479.4z"/>
	<path d="M226,485.8v-4.9c0-1.1-0.6-1.6-1.6-1.6c-1.2,0-1.7,0.6-2,1.1v5.4h-1v-5.2l-0.1-2.1h0.8l0.1,1c0.4-0.6,1.2-1.2,2.5-1.2
		c1.4,0,2.2,1,2.2,2.3v5.1L226,485.8L226,485.8z"/>
	<path d="M229.5,482.6c0.1,1.6,0.7,2.6,2.2,2.6s2.1-0.9,2.1-1.6h0.9v0.1c0,1.1-1,2.4-2.9,2.4c-2.2,0-3.1-1.6-3.1-3.6v-0.3
		c0-2,1-3.6,3.1-3.6c2.1,0,3,1.6,3,3.6v0.5L229.5,482.6L229.5,482.6z M229.5,481.7h4.2c-0.1-1.6-0.7-2.6-2.1-2.6
		C230.1,479.1,229.5,480.2,229.5,481.7z"/>
	<path d="M239.9,478.5v0.9h-2.3v4.2c0,1.2,0.5,1.4,1.4,1.4c0.3,0,0.7-0.1,0.8-0.1v0.8c-0.1,0.1-0.4,0.1-1,0.1
		c-1.2,0-2.1-0.6-2.1-2.2v-4.4h-1.2v-0.9h1.2v-2.1h1v2.1L239.9,478.5L239.9,478.5z"/>
	<path d="M242.2,482.6c0.1,1.6,0.7,2.6,2.2,2.6c1.4,0,2.1-0.9,2.1-1.6h0.9v0.1c0,1.1-1,2.4-2.9,2.4c-2.2,0-3.1-1.6-3.1-3.6v-0.3
		c0-2,1-3.6,3.1-3.6c2.1,0,3,1.6,3,3.6v0.5L242.2,482.6L242.2,482.6z M242.2,481.7h4.2c-0.1-1.6-0.7-2.6-2.1-2.6
		C242.9,479.1,242.2,480.2,242.2,481.7z"/>
	<path d="M250,485.8h-1.2v-1.2h1.2V485.8z"/>
	<path d="M257.5,485.8h-2.8v-10.7h2.8c2.6,0,4.1,1.4,4.1,5.1v0.5C261.6,484.4,260.1,485.8,257.5,485.8z M257.4,484.9
		c2.1,0,3.2-1.2,3.2-4.2v-0.5c0-3-1.2-4.2-3.2-4.2h-1.8v8.9L257.4,484.9L257.4,484.9z"/>
	<path d="M264.1,482.6c0.1,1.6,0.7,2.6,2.2,2.6c1.4,0,2.1-0.9,2.1-1.6h0.9v0.1c0,1.1-1,2.4-2.9,2.4c-2.2,0-3.1-1.6-3.1-3.6v-0.3
		c0-2,1-3.6,3.1-3.6c2.1,0,3,1.6,3,3.6v0.5L264.1,482.6L264.1,482.6z M264.1,481.7h4.2c-0.1-1.6-0.7-2.6-2.1-2.6
		C264.7,479.1,264.1,480.2,264.1,481.7z"/>
	<path d="M273.8,478.4v0.9h-0.2c-1.1,0-1.6,0.6-1.9,1.1v5.4h-1v-5.2l-0.1-2.1h0.8l0.1,1c0.4-0.6,1-1.1,2.1-1.1
		C273.7,478.4,273.8,478.4,273.8,478.4z"/>
	<path d="M277.7,477.9v-0.1c0-1.8,1.3-2.9,3.4-2.9c2.4,0,3.4,1.2,3.4,3.4v0.3h-1c0-2.1-0.7-2.9-2.3-2.9h-0.1c-1.3,0-2.3,0.7-2.3,1.8
		v0.1c0,1.2,0.6,1.8,2.5,2.1c2.3,0.3,3.3,1.2,3.3,2.9v0.1c0,1.9-1.4,3-3.5,3c-2.3,0-3.5-1.3-3.5-3.5v-0.1h1c0,1.8,1,2.7,2.5,2.7h0.1
		c1.4,0,2.4-0.8,2.4-2.1v-0.1c0-1.2-0.8-1.9-2.7-2.1C278.6,480.4,277.7,479.3,277.7,477.9z"/>
	<path d="M289,485c1.4,0,1.8-0.9,1.8-1.8h0.9v0.2c0,1.2-0.8,2.5-2.8,2.5c-2.1,0-3-1.6-3-3.6v-0.3c0-2,0.9-3.6,3-3.6
		c2,0,2.8,1.4,2.8,2.5v0.3h-0.9c0-1.1-0.5-1.9-1.8-1.9c-1.4,0-2.1,1.1-2.1,2.7v0.3C286.8,483.9,287.5,485,289,485z"/>
	<path d="M294.2,479.4c0.4-0.5,1.2-1,2.3-1c1.4,0,2.2,1,2.2,2.3v5.1h-1v-4.9c0-1.1-0.6-1.6-1.6-1.6c-1.2,0-1.7,0.6-2,1.1v5.4h-1
		v-10.9h1L294.2,479.4L294.2,479.4z"/>
	<path d="M303.6,478.4v0.9h-0.2c-1.1,0-1.6,0.6-1.9,1.1v5.4h-1v-5.2l-0.1-2.1h0.8l0.1,1c0.4-0.6,1-1.1,2.1-1.1
		C303.5,478.4,303.5,478.4,303.6,478.4z"/>
	<path d="M306.3,476.8H305v-1.2h1.2V476.8z M305.2,478.5h1v7.3h-1V478.5z"/>
	<path d="M309.6,478.5h2.1v0.9h-2.1v6.4h-1v-6.4h-1.2v-0.9h1.2v-1.7c0-1.6,0.9-2.2,2.1-2.2c0.5,0,0.9,0.1,1,0.1v0.8
		c-0.1-0.1-0.5-0.1-0.8-0.1c-0.9,0-1.4,0.3-1.4,1.4L309.6,478.5L309.6,478.5z"/>
	<path d="M317.1,478.5v0.9h-2.3v4.2c0,1.2,0.5,1.4,1.4,1.4c0.3,0,0.7-0.1,0.8-0.1v0.8c-0.1,0.1-0.4,0.1-1,0.1
		c-1.2,0-2.1-0.6-2.1-2.2v-4.4h-1.2v-0.9h1.2v-2.1h1v2.1L317.1,478.5L317.1,478.5z"/>
	<path d="M323.2,483.8c0-1-0.5-1.2-2-1.4c-2-0.1-2.5-0.8-2.5-1.9v-0.1c0-1.2,1-2.1,2.7-2.1c2,0,2.7,1,2.7,2.5v0.1h-1
		c0-1-0.4-1.7-1.8-1.7c-1.1,0-1.7,0.5-1.7,1.2c0,0.8,0.3,1.2,1.9,1.3c1.8,0.1,2.6,0.7,2.6,2v0.1c0,1.2-1,2.1-2.8,2.1
		c-2.1,0-2.8-1.2-2.8-2.3v-0.1h1c0,0.8,0.4,1.6,1.8,1.6C322.5,485.1,323.2,484.6,323.2,483.8z"/>
	<path d="M330.2,484.7c-0.5,0.6-1.3,1.2-2.5,1.2c-1.3,0-2.1-0.8-2.1-2v-0.1c0-1.6,1.2-2.1,2.4-2.2l2.2-0.3v-0.2
		c0-1.2-0.4-1.9-1.7-1.9c-1.4,0-1.7,0.8-1.7,1.7h-0.9v-0.1c0-1.1,0.5-2.4,2.6-2.4c2,0,2.6,1.1,2.6,2.7v2.7l0.1,2.1h-0.8L330.2,484.7
		z M330.1,483.9v-2l-2.1,0.3c-1,0.1-1.5,0.6-1.5,1.4v0.1c0,0.6,0.4,1.2,1.4,1.2C329.2,485.1,329.8,484.3,330.1,483.9z"/>
	<path d="M336.6,478.5v0.9h-2.3v4.2c0,1.2,0.5,1.4,1.4,1.4c0.3,0,0.7-0.1,0.8-0.1v0.8c-0.1,0.1-0.4,0.1-1,0.1
		c-1.2,0-2.1-0.6-2.1-2.2v-4.4h-1.2v-0.9h1.2v-2.1h1v2.1L336.6,478.5L336.6,478.5z"/>
	<path d="M341.7,479.3h-1.6h-2.3v-0.9h5.1v0.7l-4,5.7h1.6h2.5v0.9h-5.3v-0.7L341.7,479.3z"/>
	<path d="M38.1,504.9h-1.2l-1.6-7.3h1l1.2,6.2l1.7-6.2h1.2l1.7,6.2l1.2-6.2h1l-1.6,7.3h-1.3l-1.6-6.2L38.1,504.9z"/>
	<path d="M46.5,497.7v4.9c0,1.1,0.6,1.6,1.6,1.6c1.2,0,1.7-0.6,2-1.1v-5.4h1v5.2l0.1,2.1h-0.8l-0.1-1c-0.4,0.6-1.2,1.2-2.4,1.2
		c-1.4,0-2.2-1-2.2-2.3v-5.1L46.5,497.7L46.5,497.7z"/>
	<path d="M55.9,497.5v0.9h-0.2c-1.1,0-1.6,0.6-1.9,1.1v5.4h-1v-5.2l-0.1-2.1h0.8l0.1,1c0.4-0.6,1-1.1,2.1-1.1
		C55.9,497.5,55.9,497.5,55.9,497.5z"/>
	<path d="M62,498.5V494h1v8.9l0.1,2.1h-0.8l-0.1-1c-0.3,0.6-1,1.1-2.1,1.1c-2,0-2.8-1.6-2.8-3.6v-0.3c0-2,0.8-3.6,2.8-3.6
		C61,497.5,61.7,497.9,62,498.5z M62,503.1v-3.6c-0.3-0.5-0.9-1.1-1.8-1.1c-1.4,0-2,1.1-2,2.7v0.3c0,1.7,0.6,2.7,2,2.7
		C61.2,504.2,61.7,503.6,62,503.1z"/>
	<path d="M65.6,501.7c0.1,1.6,0.7,2.6,2.2,2.6c1.4,0,2.1-0.9,2.1-1.6h0.9v0.1c0,1.1-1,2.4-2.9,2.4c-2.2,0-3.1-1.6-3.1-3.6v-0.3
		c0-2,1-3.6,3.1-3.6c2.1,0,3,1.6,3,3.6v0.5L65.6,501.7L65.6,501.7z M65.6,500.9h4.2c-0.1-1.6-0.7-2.6-2.1-2.6
		C66.2,498.3,65.6,499.3,65.6,500.9z"/>
	<path d="M74.9,499.9v-0.5c0-3.7,1.2-5.2,3.6-5.2c2.5,0,3.7,1.5,3.7,5.2v0.5c0,3.7-1.2,5.2-3.7,5.2C76,505.1,74.9,503.6,74.9,499.9z
		 M78.6,504.2c1.8,0,2.6-1.3,2.6-4.3v-0.5c0-3-0.8-4.3-2.6-4.3h-0.1c-1.8,0-2.6,1.3-2.6,4.3v0.5C75.9,502.9,76.7,504.2,78.6,504.2
		L78.6,504.2z"/>
	<path d="M84.8,504.1v3.6h-1v-7.9l-0.1-2.1h0.8l0.1,1c0.4-0.6,1-1.2,2.2-1.2c2,0,2.8,1.6,2.8,3.6v0.3c0,2-0.8,3.6-2.8,3.6
		C85.9,505.1,85.2,504.6,84.8,504.1z M84.8,503.1c0.3,0.5,0.8,1.1,1.8,1.1c1.4,0,2-1.1,2-2.7v-0.3c0-1.7-0.6-2.7-2-2.7
		c-1,0-1.6,0.6-1.8,1.1V503.1z"/>
	<path d="M91.9,501.7c0.1,1.6,0.7,2.6,2.2,2.6s2.1-0.9,2.1-1.6H97v0.1c0,1.1-1,2.4-2.9,2.4c-2.2,0-3.1-1.6-3.1-3.6v-0.3
		c0-2,1-3.6,3.1-3.6c2.1,0,3,1.6,3,3.6v0.5L91.9,501.7L91.9,501.7z M91.9,500.9h4.2c-0.1-1.6-0.7-2.6-2.1-2.6
		C92.7,498.3,92,499.3,91.9,500.9z"/>
	<path d="M103.2,504.9V500c0-1.1-0.6-1.6-1.6-1.6c-1.2,0-1.7,0.6-2,1.1v5.4h-1v-5.2l-0.1-2.1h0.8l0.1,1c0.4-0.6,1.2-1.2,2.5-1.2
		c1.4,0,2.2,1,2.2,2.3v5.1L103.2,504.9L103.2,504.9z"/>
	<path d="M108.5,497.1v-0.1c0-1.8,1.3-2.9,3.4-2.9c2.4,0,3.4,1.2,3.4,3.4v0.3h-1c0-2.1-0.7-2.9-2.3-2.9h-0.1c-1.3,0-2.3,0.7-2.3,1.8
		v0.1c0,1.2,0.6,1.8,2.5,2.1c2.3,0.3,3.3,1.2,3.3,2.9v0.1c0,1.9-1.4,3-3.5,3c-2.3,0-3.5-1.3-3.5-3.5v-0.1h1c0,1.8,1,2.7,2.5,2.7h0.1
		c1.4,0,2.4-0.8,2.4-2.1V502c0-1.2-0.8-1.9-2.7-2.1C109.3,499.5,108.5,498.5,108.5,497.1z"/>
	<path d="M116.6,501.4v-0.3c0-2,0.9-3.6,3.1-3.6c2.1,0,3.1,1.6,3.1,3.6v0.3c0,2-0.9,3.6-3.1,3.6S116.6,503.5,116.6,501.4z
		 M121.7,501.4v-0.3c0-1.6-0.6-2.7-2.1-2.7s-2.1,1.1-2.1,2.7v0.3c0,1.6,0.6,2.7,2.1,2.7S121.7,503.1,121.7,501.4z"/>
	<path d="M125.1,497.7v4.9c0,1.1,0.6,1.6,1.6,1.6c1.2,0,1.7-0.6,2-1.1v-5.4h1v5.2l0.1,2.1h-0.8l-0.1-1c-0.4,0.6-1.2,1.2-2.4,1.2
		c-1.4,0-2.2-1-2.2-2.3v-5.1L125.1,497.7L125.1,497.7z"/>
	<path d="M134.6,497.5v0.9h-0.2c-1.1,0-1.6,0.6-1.9,1.1v5.4h-1v-5.2l-0.1-2.1h0.8l0.1,1c0.4-0.6,1-1.1,2.1-1.1
		C134.4,497.5,134.6,497.5,134.6,497.5z"/>
	<path d="M138.5,504.2c1.4,0,1.8-0.9,1.8-1.8h0.9v0.2c0,1.2-0.8,2.5-2.8,2.5c-2.1,0-3-1.6-3-3.6v-0.3c0-2,0.9-3.6,3-3.6
		c2,0,2.8,1.4,2.8,2.5v0.3h-0.9c0-1.1-0.5-1.9-1.8-1.9c-1.4,0-2.1,1.1-2.1,2.7v0.3C136.4,503.1,137,504.2,138.5,504.2z"/>
	<path d="M143.6,501.7c0.1,1.6,0.7,2.6,2.2,2.6c1.4,0,2.1-0.9,2.1-1.6h0.9v0.1c0,1.1-1,2.4-2.9,2.4c-2.2,0-3.1-1.6-3.1-3.6v-0.3
		c0-2,1-3.6,3.1-3.6c2.1,0,3,1.6,3,3.6v0.5L143.6,501.7L143.6,501.7z M143.6,500.9h4.2c-0.1-1.6-0.7-2.6-2.1-2.6
		C144.3,498.3,143.6,499.3,143.6,500.9z"/>
	<path d="M153.7,501.7c0.1,1.6,0.7,2.6,2.2,2.6c1.4,0,2.1-0.9,2.1-1.6h0.9v0.1c0,1.1-1,2.4-2.9,2.4c-2.2,0-3.1-1.6-3.1-3.6v-0.3
		c0-2,1-3.6,3.1-3.6s3,1.6,3,3.6v0.5L153.7,501.7L153.7,501.7z M153.7,500.9h4.2c-0.1-1.6-0.7-2.6-2.1-2.6S153.8,499.3,153.7,500.9z
		"/>
	<path d="M165,504.9V500c0-1.1-0.6-1.6-1.6-1.6c-1.2,0-1.7,0.6-2,1.1v5.4h-1v-5.2l-0.1-2.1h0.8l0.1,1c0.4-0.6,1.2-1.2,2.5-1.2
		c1.4,0,2.2,1,2.2,2.3v5.1L165,504.9L165,504.9z"/>
	<path d="M171.4,497.7v0.9h-2.3v4.2c0,1.2,0.5,1.4,1.4,1.4c0.3,0,0.7-0.1,0.8-0.1v0.8c-0.1,0.1-0.4,0.1-1,0.1
		c-1.2,0-2.1-0.6-2.1-2.2v-4.4h-1.2v-0.9h1.2v-2.1h1v2.1L171.4,497.7L171.4,497.7z"/>
	<path d="M175.3,504.9h-1.2l-1.6-7.3h1l1.2,6.2l1.7-6.2h1.2l1.7,6.2l1.2-6.2h1l-1.6,7.3h-1.3l-1.6-6.2L175.3,504.9z"/>
	<path d="M184,496h-1.2v-1.2h1.2V496z M182.9,497.7h1v7.3h-1V497.7z"/>
	<path d="M188.5,504.2c1.4,0,1.8-0.9,1.8-1.8h0.9v0.2c0,1.2-0.8,2.5-2.8,2.5c-2.1,0-3-1.6-3-3.6v-0.3c0-2,0.9-3.6,3-3.6
		c2,0,2.8,1.4,2.8,2.5v0.3h-0.9c0-1.1-0.5-1.9-1.8-1.9c-1.4,0-2.1,1.1-2.1,2.7v0.3C186.5,503.1,187.1,504.2,188.5,504.2z"/>
	<path d="M192.9,494h1v7.5l3.4-3.8h1.2l-2.5,2.7l2.5,4.5h-1.1l-2.1-3.8l-1.5,1.6v2.1h-1L192.9,494L192.9,494z"/>
	<path d="M200.1,501.7c0.1,1.6,0.7,2.6,2.2,2.6c1.4,0,2.1-0.9,2.1-1.6h0.9v0.1c0,1.1-1,2.4-2.9,2.4c-2.2,0-3.1-1.6-3.1-3.6v-0.3
		c0-2,1-3.6,3.1-3.6s3,1.6,3,3.6v0.5L200.1,501.7L200.1,501.7z M200.1,500.9h4.2c-0.1-1.6-0.7-2.6-2.1-2.6
		C200.8,498.3,200.1,499.3,200.1,500.9z"/>
	<path d="M206.9,494h1v10.9h-1V494z"/>
	<path d="M213.7,497.7v0.9h-2.3v4.2c0,1.2,0.5,1.4,1.4,1.4c0.3,0,0.7-0.1,0.8-0.1v0.8c-0.1,0.1-0.4,0.1-1,0.1
		c-1.2,0-2.1-0.6-2.1-2.2v-4.4h-1.2v-0.9h1.2v-2.1h1v2.1L213.7,497.7L213.7,497.7z"/>
	<path d="M216.4,504.6c0,1.2-0.5,1.8-1.6,1.8v-0.5c0.5,0,0.9-0.3,1-1h-0.6v-1.2h1.2V504.6z"/>
	<path d="M221.8,497.7v4.9c0,1.1,0.6,1.6,1.6,1.6c1.2,0,1.7-0.6,2-1.1v-5.4h1v5.2l0.1,2.1h-0.8l-0.1-1c-0.4,0.6-1.2,1.2-2.4,1.2
		c-1.4,0-2.2-1-2.2-2.3v-5.1L221.8,497.7L221.8,497.7z"/>
	<path d="M236.4,504.9v-5.1c0-1.1-0.5-1.4-1.4-1.4c-1,0-1.5,0.6-1.8,1.1v5.5h-1v-5.1c0-1.1-0.5-1.4-1.4-1.4c-1,0-1.5,0.6-1.8,1.1
		v5.5h-1v-5.2l-0.1-2.1h0.8l0.1,1c0.4-0.6,1.1-1.2,2.3-1.2c1,0,1.6,0.4,1.8,1.2c0.4-0.7,1.1-1.2,2.3-1.2c1.3,0,2.1,0.8,2.1,2.1v5.3
		L236.4,504.9L236.4,504.9z"/>
	<path d="M246.5,498.5V494h1v8.9l0.1,2.1h-0.8l-0.1-1c-0.3,0.6-1,1.1-2.1,1.1c-2,0-2.8-1.6-2.8-3.6v-0.3c0-2,0.8-3.6,2.8-3.6
		C245.5,497.5,246.1,497.9,246.5,498.5z M246.5,503.1v-3.6c-0.3-0.5-0.9-1.1-1.8-1.1c-1.4,0-2,1.1-2,2.7v0.3c0,1.7,0.6,2.7,2,2.7
		C245.7,504.2,246.2,503.6,246.5,503.1z"/>
	<path d="M250.4,496h-1.2v-1.2h1.2V496z M249.4,497.7h1v7.3h-1V497.7z"/>
	<path d="M253,501.7c0.1,1.6,0.7,2.6,2.2,2.6c1.4,0,2.1-0.9,2.1-1.6h0.9v0.1c0,1.1-1,2.4-2.9,2.4c-2.2,0-3.1-1.6-3.1-3.6v-0.3
		c0-2,1-3.6,3.1-3.6c2.1,0,3,1.6,3,3.6v0.5L253,501.7L253,501.7z M253,500.9h4.2c-0.1-1.6-0.7-2.6-2.1-2.6
		C253.7,498.3,253,499.3,253,500.9z"/>
	<path d="M263.6,504.9h-1v-10.7h1V504.9z"/>
	<path d="M270.1,498.5V494h1v8.9l0.1,2.1h-0.8l-0.1-1c-0.3,0.6-1,1.1-2.1,1.1c-2,0-2.8-1.6-2.8-3.6v-0.3c0-2,0.8-3.6,2.8-3.6
		C269.1,497.5,269.7,497.9,270.1,498.5z M270.1,503.1v-3.6c-0.3-0.5-0.9-1.1-1.8-1.1c-1.4,0-2,1.1-2,2.7v0.3c0,1.7,0.6,2.7,2,2.7
		C269.3,504.2,269.9,503.6,270.1,503.1z"/>
	<path d="M273.6,501.7c0.1,1.6,0.7,2.6,2.2,2.6c1.4,0,2.1-0.9,2.1-1.6h0.9v0.1c0,1.1-1,2.4-2.9,2.4c-2.2,0-3.1-1.6-3.1-3.6v-0.3
		c0-2,1-3.6,3.1-3.6c2.1,0,3,1.6,3,3.6v0.5L273.6,501.7L273.6,501.7z M273.6,500.9h4.2c-0.1-1.6-0.7-2.6-2.1-2.6
		C274.4,498.3,273.7,499.3,273.6,500.9z"/>
	<path d="M284.9,504.9V500c0-1.1-0.6-1.6-1.6-1.6c-1.2,0-1.7,0.6-2,1.1v5.4h-1v-5.2l-0.1-2.1h0.8l0.1,1c0.4-0.6,1.2-1.2,2.5-1.2
		c1.4,0,2.2,1,2.2,2.3v5.1L284.9,504.9L284.9,504.9z"/>
	<path d="M291.4,497.7v0.9H289v4.2c0,1.2,0.5,1.4,1.4,1.4c0.3,0,0.7-0.1,0.8-0.1v0.8c-0.1,0.1-0.4,0.1-1,0.1c-1.2,0-2.1-0.6-2.1-2.2
		v-4.4h-1.2v-0.9h1.2v-2.1h1v2.1L291.4,497.7L291.4,497.7z"/>
	<path d="M294.1,496h-1.2v-1.2h1.2V496z M293,497.7h1v7.3h-1V497.7z"/>
	<path d="M299.8,497.7v0.9h-2.3v4.2c0,1.2,0.5,1.4,1.4,1.4c0.3,0,0.7-0.1,0.8-0.1v0.8c-0.1,0.1-0.4,0.1-1,0.1
		c-1.2,0-2.1-0.6-2.1-2.2v-4.4h-1.2v-0.9h1.2v-2.1h1v2.1L299.8,497.7L299.8,497.7z"/>
	<path d="M305.7,503.9c-0.5,0.6-1.3,1.2-2.5,1.2c-1.3,0-2.1-0.8-2.1-2v-0.1c0-1.6,1.2-2.1,2.4-2.2l2.2-0.3v-0.2
		c0-1.2-0.4-1.9-1.7-1.9c-1.4,0-1.7,0.8-1.7,1.7h-0.9v-0.1c0-1.1,0.5-2.4,2.6-2.4c2,0,2.6,1.1,2.6,2.7v2.7l0.1,2.1h-0.8L305.7,503.9
		z M305.6,503.1v-2l-2.1,0.3c-1,0.1-1.5,0.6-1.5,1.4v0.1c0,0.6,0.4,1.2,1.4,1.2C304.7,504.2,305.3,503.5,305.6,503.1z M303.4,495.9
		h-1.2v-1.2h1.2V495.9z M305.6,495.9h-1.2v-1.2h1.2V495.9z"/>
	<path d="M312.1,497.7v0.9h-2.3v4.2c0,1.2,0.5,1.4,1.4,1.4c0.3,0,0.7-0.1,0.8-0.1v0.8c-0.1,0.1-0.4,0.1-1,0.1
		c-1.2,0-2.1-0.6-2.1-2.2v-4.4h-1.2v-0.9h1.2v-2.1h1v2.1L312.1,497.7L312.1,497.7z"/>
	<path d="M321,498.5V494h1v8.9l0.1,2.1h-0.8l-0.1-1c-0.3,0.6-1,1.1-2.1,1.1c-2,0-2.8-1.6-2.8-3.6v-0.3c0-2,0.8-3.6,2.8-3.6
		C319.9,497.5,320.6,497.9,321,498.5z M321,503.1v-3.6c-0.3-0.5-0.9-1.1-1.8-1.1c-1.4,0-2,1.1-2,2.7v0.3c0,1.7,0.6,2.7,2,2.7
		C320.1,504.2,320.7,503.6,321,503.1z"/>
	<path d="M324.5,501.7c0.1,1.6,0.7,2.6,2.2,2.6c1.4,0,2.1-0.9,2.1-1.6h0.9v0.1c0,1.1-1,2.4-2.9,2.4c-2.2,0-3.1-1.6-3.1-3.6v-0.3
		c0-2,1-3.6,3.1-3.6s3,1.6,3,3.6v0.5L324.5,501.7L324.5,501.7z M324.5,500.9h4.2c-0.1-1.6-0.7-2.6-2.1-2.6
		C325.2,498.3,324.5,499.3,324.5,500.9z"/>
	<path d="M335.7,502.9c0-1-0.5-1.2-2-1.4c-2-0.1-2.5-0.8-2.5-1.9v-0.1c0-1.2,1-2.1,2.7-2.1c2,0,2.7,1,2.7,2.5v0.1h-1
		c0-1-0.4-1.7-1.8-1.7c-1.1,0-1.7,0.5-1.7,1.2s0.3,1.2,1.9,1.3c1.8,0.1,2.6,0.7,2.6,2v0.1c0,1.2-1,2.1-2.8,2.1
		c-2.1,0-2.8-1.2-2.8-2.3v-0.1h1c0,0.8,0.4,1.6,1.8,1.6C335.1,504.2,335.7,503.8,335.7,502.9z"/>
	<path d="M38.6,513.4c1.8,0,3.2,0.8,3.2,2.7v0.3c0,1.2-0.7,1.8-1.6,2.2c1.1,0.3,1.8,1,1.8,2.4v0.3c0,2.1-1.5,2.8-3.3,2.8h-2.9v-10.7
		L38.6,513.4L38.6,513.4z M36.9,514.3v3.8h1.8c1.2,0,2.2-0.5,2.2-1.8v-0.2c0-1.3-1-1.8-2.2-1.8L36.9,514.3L36.9,514.3z M36.9,519
		v4.2h2c1.2,0,2.2-0.5,2.2-2V521c0-1.4-1-2-2.2-2L36.9,519L36.9,519z"/>
	<path d="M46.9,516.7v0.9h-0.2c-1.1,0-1.6,0.6-1.9,1.1v5.4h-1v-5.2l-0.1-2.1h0.8l0.1,1c0.4-0.6,1-1.1,2.1-1.1
		C46.8,516.7,46.9,516.7,46.9,516.7z"/>
	<path d="M52.4,523c-0.5,0.6-1.3,1.2-2.5,1.2c-1.3,0-2.1-0.8-2.1-2v-0.1c0-1.6,1.2-2.1,2.4-2.2l2.2-0.3v-0.2c0-1.2-0.4-1.9-1.7-1.9
		c-1.4,0-1.7,0.8-1.7,1.7h-0.9V519c0-1.1,0.5-2.4,2.6-2.4c2,0,2.6,1.1,2.6,2.7v2.7l0.1,2.1h-0.8L52.4,523z M52.4,522.2v-2l-2.1,0.3
		c-1,0.1-1.5,0.6-1.5,1.4v0.1c0,0.6,0.4,1.2,1.4,1.2C51.5,523.4,52.1,522.6,52.4,522.2z"/>
	<path d="M59.6,524.1v-4.9c0-1.1-0.6-1.6-1.6-1.6c-1.2,0-1.7,0.6-2,1.1v5.4h-1v-5.2l-0.1-2.1h0.8l0.1,1c0.4-0.6,1.2-1.2,2.5-1.2
		c1.4,0,2.2,1,2.2,2.3v5.1L59.6,524.1L59.6,524.1z"/>
	<path d="M66.9,517.6v-4.5h1v8.9l0.1,2.1h-0.8l-0.1-1c-0.3,0.6-1,1.1-2.1,1.1c-2,0-2.8-1.6-2.8-3.6v-0.3c0-2,0.8-3.6,2.8-3.6
		C65.9,516.7,66.5,517.1,66.9,517.6z M66.9,522.2v-3.6c-0.3-0.5-0.9-1.1-1.8-1.1c-1.4,0-2,1.1-2,2.7v0.3c0,1.7,0.6,2.7,2,2.7
		C66,523.3,66.6,522.7,66.9,522.2z"/>
	<path d="M74.2,522.1c0-1-0.5-1.2-2-1.4c-2-0.1-2.5-0.8-2.5-1.9v-0.1c0-1.2,1-2.1,2.7-2.1c2,0,2.7,1,2.7,2.5v0.1h-1
		c0-1-0.4-1.7-1.8-1.7c-1.1,0-1.7,0.5-1.7,1.2s0.3,1.2,1.9,1.3c1.8,0.1,2.6,0.7,2.6,2v0.1c0,1.2-1,2.1-2.8,2.1
		c-2.1,0-2.8-1.2-2.8-2.3v-0.1h1c0,0.8,0.4,1.6,1.8,1.6C73.5,523.4,74.2,522.9,74.2,522.1z"/>
	<path d="M82.1,517.9l-2.1,1.6l2.1,1.6v1l-2.8-2.1V519l2.8-2.1V517.9z M85.1,517.9l-2.1,1.6l2.1,1.6v1l-2.8-2.1V519l2.8-2.1V517.9z"
		/>
	<path d="M90.1,523.3L90.1,523.3c1.6,0,2.3-1,2.3-2.7h1v0.1c0,2.3-1.1,3.5-3.4,3.5c-2.5,0-3.6-1.5-3.6-5.2v-0.5
		c0-3.7,1.2-5.2,3.6-5.2c2.3,0,3.4,1.2,3.4,3.6v0.4h-1c0-2.2-0.7-3.1-2.3-3.1h-0.1c-1.8,0-2.6,1.3-2.6,4.3v0.5
		C87.5,522,88.3,523.3,90.1,523.3z"/>
	<path d="M94.8,520.6v-0.3c0-2,0.9-3.6,3.1-3.6c2.1,0,3.1,1.6,3.1,3.6v0.3c0,2-0.9,3.6-3.1,3.6C95.7,524.2,94.8,522.6,94.8,520.6z
		 M100,520.6v-0.3c0-1.6-0.6-2.7-2.1-2.7c-1.4,0-2.1,1.1-2.1,2.7v0.3c0,1.6,0.6,2.7,2.1,2.7C99.4,523.3,100,522.2,100,520.6z"/>
	<path d="M102.3,520.6v-0.3c0-2,0.9-3.6,3.1-3.6c2.2,0,3.1,1.6,3.1,3.6v0.3c0,2-0.9,3.6-3.1,3.6
		C103.2,524.2,102.3,522.6,102.3,520.6z M107.4,520.6v-0.3c0-1.6-0.6-2.7-2.1-2.7c-1.4,0-2.1,1.1-2.1,2.7v0.3c0,1.6,0.6,2.7,2.1,2.7
		C106.8,523.3,107.4,522.2,107.4,520.6z"/>
	<path d="M110.9,523.3v3.6h-1v-7.9l-0.1-2.1h0.8l0.1,1c0.4-0.6,1-1.2,2.2-1.2c2,0,2.8,1.6,2.8,3.6v0.3c0,2-0.8,3.6-2.8,3.6
		C111.9,524.2,111.3,523.8,110.9,523.3z M110.9,522.2c0.3,0.5,0.8,1.1,1.8,1.1c1.4,0,2-1.1,2-2.7v-0.3c0-1.7-0.6-2.7-2-2.7
		c-1,0-1.6,0.6-1.8,1.1V522.2z"/>
	<path d="M118,520.9c0.1,1.6,0.7,2.6,2.2,2.6c1.4,0,2.1-0.9,2.1-1.6h0.9v0.1c0,1.1-1,2.4-2.9,2.4c-2.2,0-3.1-1.6-3.1-3.6v-0.3
		c0-2,1-3.6,3.1-3.6c2.1,0,3,1.6,3,3.6v0.5L118,520.9L118,520.9z M118,520h4.2c-0.1-1.6-0.7-2.6-2.1-2.6
		C118.8,517.4,118.1,518.5,118,520z"/>
	<path d="M127.8,516.7v0.9h-0.2c-1.1,0-1.6,0.6-1.9,1.1v5.4h-1v-5.2l-0.1-2.1h0.8l0.1,1c0.4-0.6,1-1.1,2.1-1.1
		C127.7,516.7,127.8,516.7,127.8,516.7z"/>
	<path d="M138.8,513.4v10.7h-1v-5h-4.7v5H132v-10.7h1v4.8h4.7v-4.8H138.8z"/>
	<path d="M141.4,520.9c0.1,1.6,0.7,2.6,2.2,2.6c1.4,0,2.1-0.9,2.1-1.6h0.9v0.1c0,1.1-1,2.4-2.9,2.4c-2.2,0-3.1-1.6-3.1-3.6v-0.3
		c0-2,1-3.6,3.1-3.6s3,1.6,3,3.6v0.5L141.4,520.9L141.4,520.9z M141.4,520h4.2c-0.1-1.6-0.7-2.6-2.1-2.6
		C142.1,517.4,141.4,518.5,141.4,520z"/>
	<path d="M150.2,524.1H149l-1.6-7.3h1l1.2,6.2l1.7-6.2h1.2l1.7,6.2l1.2-6.2h1l-1.6,7.3h-1.3l-1.6-6.2L150.2,524.1z"/>
	<path d="M158.9,515.1h-1.2v-1.2h1.2V515.1z M157.8,516.8h1v7.3h-1V516.8z"/>
	<path d="M164.6,516.8v0.9h-2.3v4.2c0,1.2,0.5,1.4,1.4,1.4c0.3,0,0.7-0.1,0.8-0.1v0.8c-0.1,0.1-0.4,0.1-1,0.1
		c-1.2,0-2.1-0.6-2.1-2.2v-4.4h-1.2v-0.9h1.2v-2.1h1v2.1L164.6,516.8L164.6,516.8z"/>
	<path d="M170.1,516.8v0.9h-2.3v4.2c0,1.2,0.5,1.4,1.4,1.4c0.3,0,0.7-0.1,0.8-0.1v0.8c-0.1,0.1-0.4,0.1-1,0.1
		c-1.2,0-2.1-0.6-2.1-2.2v-4.4h-1.2v-0.9h1.2v-2.1h1v2.1L170.1,516.8L170.1,516.8z"/>
	<path d="M171.4,516.9l2.8,2.1v0.8l-2.8,2.1v-1l2.1-1.6l-2.1-1.6V516.9z M174.3,516.9l2.8,2.1v0.8l-2.8,2.1v-1l2.1-1.6l-2.1-1.6
		V516.9z"/>
	<path d="M185,517.6h-1.6h-2.3v-0.9h5.1v0.7l-4,5.7h1.6h2.5v0.9H181v-0.7L185,517.6z"/>
	<path d="M188.6,516.8v4.9c0,1.1,0.6,1.6,1.6,1.6c1.2,0,1.7-0.6,2-1.1v-5.4h1v5.2l0.1,2.1h-0.8l-0.1-1c-0.4,0.6-1.2,1.2-2.4,1.2
		c-1.4,0-2.2-1-2.2-2.3v-5.1L188.6,516.8L188.6,516.8z"/>
	<path d="M198.6,516.8v4.9c0,1.1,0.6,1.6,1.6,1.6c1.2,0,1.7-0.6,2-1.1v-5.4h1v5.2l0.1,2.1h-0.8l-0.1-1c-0.4,0.6-1.2,1.2-2.4,1.2
		c-1.4,0-2.2-1-2.2-2.3v-5.1L198.6,516.8L198.6,516.8z"/>
	<path d="M209.5,524.1v-4.9c0-1.1-0.6-1.6-1.6-1.6c-1.2,0-1.7,0.6-2,1.1v5.4h-1v-5.2l-0.1-2.1h0.8l0.1,1c0.4-0.6,1.2-1.2,2.5-1.2
		c1.4,0,2.2,1,2.2,2.3v5.1L209.5,524.1L209.5,524.1z"/>
	<path d="M216,516.8v0.9h-2.3v4.2c0,1.2,0.5,1.4,1.4,1.4c0.3,0,0.7-0.1,0.8-0.1v0.8c-0.1,0.1-0.4,0.1-1,0.1c-1.2,0-2.1-0.6-2.1-2.2
		v-4.4h-1.2v-0.9h1.2v-2.1h1v2.1L216,516.8L216,516.8z"/>
	<path d="M218.2,520.9c0.1,1.6,0.7,2.6,2.2,2.6c1.4,0,2.1-0.9,2.1-1.6h0.9v0.1c0,1.1-1,2.4-2.9,2.4c-2.2,0-3.1-1.6-3.1-3.6v-0.3
		c0-2,1-3.6,3.1-3.6s3,1.6,3,3.6v0.5L218.2,520.9L218.2,520.9z M218.2,520h4.2c-0.1-1.6-0.7-2.6-2.1-2.6
		C218.9,517.4,218.2,518.5,218.2,520z"/>
	<path d="M228,516.7v0.9h-0.2c-1.1,0-1.6,0.6-1.9,1.1v5.4h-1v-5.2l-0.1-2.1h0.8l0.1,1c0.4-0.6,1-1.1,2.1-1.1
		C227.9,516.7,228,516.7,228,516.7z"/>
	<path d="M233.6,522.1c0-1-0.5-1.2-2-1.4c-2-0.1-2.5-0.8-2.5-1.9v-0.1c0-1.2,1-2.1,2.7-2.1c2,0,2.7,1,2.7,2.5v0.1h-1
		c0-1-0.4-1.7-1.8-1.7c-1.1,0-1.7,0.5-1.7,1.2s0.3,1.2,1.9,1.3c1.8,0.1,2.6,0.7,2.6,2v0.1c0,1.2-1,2.1-2.8,2.1
		c-2.1,0-2.8-1.2-2.8-2.3v-0.1h1c0,0.8,0.4,1.6,1.8,1.6C233,523.4,233.6,522.9,233.6,522.1z"/>
	<path d="M240.1,516.8v0.9h-2.3v4.2c0,1.2,0.5,1.4,1.4,1.4c0.3,0,0.7-0.1,0.8-0.1v0.8c-0.1,0.1-0.4,0.1-1,0.1
		c-1.2,0-2.1-0.6-2.1-2.2v-4.4h-1.2v-0.9h1.2v-2.1h1v2.1L240.1,516.8L240.1,516.8z"/>
	<path d="M244.7,516.7v0.9h-0.2c-1.1,0-1.6,0.6-1.9,1.1v5.4h-1v-5.2l-0.1-2.1h0.8l0.1,1c0.4-0.6,1-1.1,2.1-1.1
		C244.6,516.7,244.7,516.7,244.7,516.7z"/>
	<path d="M246.6,520.9c0.1,1.6,0.7,2.6,2.2,2.6c1.4,0,2.1-0.9,2.1-1.6h0.9v0.1c0,1.1-1,2.4-2.9,2.4c-2.2,0-3.1-1.6-3.1-3.6v-0.3
		c0-2,1-3.6,3.1-3.6c2.1,0,3,1.6,3,3.6v0.5L246.6,520.9L246.6,520.9z M246.6,520h4.2c-0.1-1.6-0.7-2.6-2.1-2.6
		S246.6,518.5,246.6,520z"/>
	<path d="M254.5,515.1h-1.2v-1.2h1.2V515.1z M253.4,516.8h1v7.3h-1V516.8z"/>
	<path d="M259,523.3c1.4,0,1.8-0.9,1.8-1.8h0.9v0.2c0,1.2-0.8,2.5-2.8,2.5c-2.1,0-3-1.6-3-3.6v-0.3c0-2,0.9-3.6,3-3.6
		c2,0,2.8,1.4,2.8,2.5v0.3h-0.9c0-1.1-0.5-1.9-1.8-1.9c-1.4,0-2.1,1.1-2.1,2.7v0.3C256.9,522.2,257.6,523.3,259,523.3z"/>
	<path d="M264.3,517.7c0.4-0.5,1.2-1,2.3-1c1.4,0,2.2,1,2.2,2.3v5.1h-1v-4.9c0-1.1-0.6-1.6-1.6-1.6c-1.2,0-1.7,0.6-2,1.1v5.4h-1
		v-10.9h1L264.3,517.7L264.3,517.7z"/>
	<path d="M271.3,520.9c0.1,1.6,0.7,2.6,2.2,2.6c1.4,0,2.1-0.9,2.1-1.6h0.9v0.1c0,1.1-1,2.4-2.9,2.4c-2.2,0-3.1-1.6-3.1-3.6v-0.3
		c0-2,1-3.6,3.1-3.6c2.1,0,3,1.6,3,3.6v0.5L271.3,520.9L271.3,520.9z M271.3,520h4.2c-0.1-1.6-0.7-2.6-2.1-2.6
		C272.1,517.4,271.4,518.5,271.3,520z"/>
	<path d="M282.5,524.1v-4.9c0-1.1-0.6-1.6-1.6-1.6c-1.2,0-1.7,0.6-2,1.1v5.4h-1v-5.2l-0.1-2.1h0.8l0.1,1c0.4-0.6,1.2-1.2,2.5-1.2
		c1.4,0,2.2,1,2.2,2.3v5.1L282.5,524.1L282.5,524.1z"/>
	<path d="M286.4,524.1h-1.2v-1.2h1.2V524.1z"/>
</g>
</svg>
