<svg xmlns="http://www.w3.org/2000/svg" viewBox="0 0 1540 1080"><defs><style>.cls-1{fill:#fff;}</style></defs><title>Zeichenfläche 2</title><g id="Ebene_1" data-name="Ebene 1"><path class="cls-1" d="M390.7,453.12c0,.59.47,1.11,1.4,1.58q35,16.8,35,57.4,0,33.25-22.22,50.57T347,580h-86.8q-5.59,0-5.6-5.6V340.6q0-5.6,5.6-5.6h84q38.14,0,58.8,16.45t20.65,49.7q0,36-31.5,50.75C391.17,452.13,390.7,452.54,390.7,453.12Zm-95.55-81v64a1.86,1.86,0,0,0,2.1,2.1h46.9q18.54,0,29.23-8.93t10.67-24.67q0-16.09-10.67-25.38T344.15,370h-46.9A1.86,1.86,0,0,0,295.15,372.1Zm80.68,162.75q10.67-9.79,10.67-26.6,0-17.14-10.85-26.78t-29.4-9.62h-49a1.86,1.86,0,0,0-2.1,2.1v68.6a1.86,1.86,0,0,0,2.1,2.1H347Q365.15,544.65,375.83,534.85Z"/><path class="cls-1" d="M574.27,406.05q17,7.69,26.08,21.17a53.54,53.54,0,0,1,9.1,30.63V574.4q0,5.6-5.6,5.6h-29.4c-3.74,0-5.6-1.87-5.6-5.6v-8.75c0-.93-.24-1.46-.7-1.58a2.32,2.32,0,0,0-1.75.53q-18.9,18.2-50.4,18.2-25.9,0-42.53-13.3T456.85,530q0-27.3,19.07-42.53t53.73-15.22h37.1a1.86,1.86,0,0,0,2.1-2.1v-8.05q0-13.65-8.23-21.18t-24.32-7.52q-12.25,0-20.3,4.37a22.24,22.24,0,0,0-10.85,12.08c-.94,3.27-3,4.78-6.3,4.55l-31.5-3.85a7.67,7.67,0,0,1-4.2-1.58,2.91,2.91,0,0,1-1-3q3.15-21,23.27-34.3t49.88-13.3Q557.3,398.35,574.27,406.05ZM556.6,541.5q12.24-9.11,12.25-23.1V502.3a1.86,1.86,0,0,0-2.1-2.1h-29q-18.56,0-29.4,7t-10.85,19.95q0,11.21,8.4,17.32t21.35,6.13Q544.35,550.6,556.6,541.5Z"/><path class="cls-1" d="M751.54,402.9q4.2,2.1,3.15,7L749.09,439c-.23,1.87-.87,3-1.92,3.5a7.9,7.9,0,0,1-4.73,0,36.51,36.51,0,0,0-11.2-1.4,50,50,0,0,0-6.65.35q-14.7.71-24.5,10.32t-9.8,25V574.4q0,5.6-5.6,5.6h-29.4q-5.6,0-5.6-5.6V406.75q0-5.6,5.6-5.6h29.4q5.59,0,5.6,5.6V420.4c0,.93.23,1.52.7,1.75s.93-.12,1.4-1Q707.09,399,733,399.05A43.93,43.93,0,0,1,751.54,402.9Z"/><path class="cls-1" d="M781.64,574.4V340.6q0-5.6,5.6-5.6h29.4q5.6,0,5.6,5.6V574.4q0,5.6-5.6,5.6h-29.4Q781.65,580,781.64,574.4Z"/><path class="cls-1" d="M895,568.8q-19.95-14-27.65-38.85-6-17.15-5.95-39.9,0-22.4,5.6-39.9,8-24.5,28-38.15t48-13.65q26.6,0,46,13.65t27.48,37.8q6.3,16.8,6.3,39.9,0,22.05-5.95,39.9-8.05,24.85-27.65,39T942.64,582.8Q915,582.8,895,568.8Zm69.82-28.35q9.27-7.35,13.13-20.65,3.84-11.2,3.85-29.4,0-17.14-3.5-29.4-3.86-13.31-13.48-20.48t-22.92-7.17q-13.31,0-22.75,7.17T905.89,461q-3.51,12.25-3.5,29.4t3.5,29.4q3.84,13.31,13.47,20.65t23.28,7.35Q955.59,547.8,964.86,540.45Z"/><path class="cls-1" d="M1089.64,575.45l-49.35-168a3.82,3.82,0,0,1-.35-1.75,4.19,4.19,0,0,1,1.4-3.33,5.66,5.66,0,0,1,3.85-1.22h30.45c3.26,0,5.25,1.63,5.95,4.9l28.7,114.8c.23.93.7,1.4,1.4,1.4s1.16-.47,1.4-1.4l29.75-114.8q1-4.91,6.3-4.9h26.95q5.25,0,6.3,4.9l30.8,115.15c.23.93.7,1.4,1.4,1.4s1.16-.47,1.4-1.4l30.1-115.15q1-4.91,6.3-4.9l30.1.35a4.67,4.67,0,0,1,4.9,6.3l-49.7,167.65a6,6,0,0,1-6.3,4.55h-31.15q-4.9,0-6.3-4.55l-30.1-104.65c-.24-.93-.7-1.4-1.4-1.4s-1.17.47-1.4,1.4l-27.65,104.3q-1,4.9-6.3,4.9h-31.15Q1091,580,1089.64,575.45Z"/><path class="cls-1" d="M947.17,720.29l-1.12-3.41c0-.08-.09-.12-.14-.12h-8.35s-.1,0-.14.12l-1.09,3.41a.38.38,0,0,1-.39.31h-1.35a.35.35,0,0,1-.28-.11.36.36,0,0,1,0-.31l6.16-18.87a.36.36,0,0,1,.39-.31h1.79a.36.36,0,0,1,.39.31l6.19,18.87a.29.29,0,0,1,0,.14.26.26,0,0,1-.1.2.38.38,0,0,1-.24.08h-1.34A.36.36,0,0,1,947.17,720.29Zm-9-5.15h7.2c.11,0,.15-.06.11-.17l-3.64-11.45c0-.07-.05-.11-.09-.11s-.06,0-.08.11L938,715C938,715.08,938.06,715.14,938.15,715.14Z"/><path class="cls-1" d="M964.08,708.08H961a.12.12,0,0,0-.14.14v8.18a2.46,2.46,0,0,0,.6,1.89,2.77,2.77,0,0,0,1.89.55H964a.32.32,0,0,1,.37.36v1a.35.35,0,0,1-.37.39h-1a5.18,5.18,0,0,1-3-.75,3.28,3.28,0,0,1-1-2.8v-8.8a.12.12,0,0,0-.14-.14h-1.59a.33.33,0,0,1-.37-.36v-.92a.33.33,0,0,1,.37-.37h1.59c.1,0,.14,0,.14-.14v-3.13a.33.33,0,0,1,.37-.37h1.2a.33.33,0,0,1,.37.37v3.13c0,.1,0,.14.14.14h3.05a.32.32,0,0,1,.36.37v.92A.32.32,0,0,1,964.08,708.08Z"/><path class="cls-1" d="M975.53,706.63c.19.07.25.22.2.45l-.28,1.23c-.06.22-.21.3-.45.22a4.21,4.21,0,0,0-1.37-.14,3.35,3.35,0,0,0-2.41,1.08,3.63,3.63,0,0,0-1,2.59v8.18a.33.33,0,0,1-.37.36h-1.26a.32.32,0,0,1-.36-.36V706.8a.32.32,0,0,1,.36-.37h1.26a.33.33,0,0,1,.37.37v1.56c0,.08,0,.12,0,.13s.06,0,.1-.07a4.5,4.5,0,0,1,1.49-1.57,4,4,0,0,1,2.09-.56A3.11,3.11,0,0,1,975.53,706.63Z"/><path class="cls-1" d="M978.58,703.48a1.39,1.39,0,0,1-.42-1.05,1.36,1.36,0,0,1,.42-1,1.73,1.73,0,0,1,2.19,0,1.36,1.36,0,0,1,.42,1,1.39,1.39,0,0,1-.42,1.05,1.7,1.7,0,0,1-2.19,0Zm.11,16.76V706.8a.32.32,0,0,1,.37-.37h1.26a.32.32,0,0,1,.36.37v13.44a.32.32,0,0,1-.36.36h-1.26A.32.32,0,0,1,978.69,720.24Z"/><path class="cls-1" d="M996.56,713.52a12.56,12.56,0,0,1-.39,3.55,5.17,5.17,0,0,1-1.84,2.75,5.28,5.28,0,0,1-3.29,1,4.65,4.65,0,0,1-2-.44,4.3,4.3,0,0,1-1.52-1.26.13.13,0,0,0-.12,0,.1.1,0,0,0,0,.1v1.07a.32.32,0,0,1-.37.36h-1.26a.32.32,0,0,1-.36-.36V701.36a.32.32,0,0,1,.36-.36H987a.32.32,0,0,1,.37.36v6.47c0,.06,0,.1,0,.11s.08,0,.12-.05a4.08,4.08,0,0,1,1.54-1.25,4.62,4.62,0,0,1,2-.43,5.32,5.32,0,0,1,3.33,1,5.13,5.13,0,0,1,1.85,2.81A13.08,13.08,0,0,1,996.56,713.52Zm-2.1,2.05a15.29,15.29,0,0,0,.11-2.05,11.93,11.93,0,0,0-.15-2.15,5.23,5.23,0,0,0-.49-1.38,3.27,3.27,0,0,0-1.18-1.49,3.35,3.35,0,0,0-1.93-.56,3,3,0,0,0-1.84.58,3.15,3.15,0,0,0-1.1,1.52,4.6,4.6,0,0,0-.39,1.36,14.59,14.59,0,0,0-.12,2.12,14.28,14.28,0,0,0,.12,2.1,4.71,4.71,0,0,0,.36,1.31A3.43,3.43,0,0,0,989,718.5a3,3,0,0,0,1.88.59,3.52,3.52,0,0,0,2-.59,3.06,3.06,0,0,0,1.19-1.6A5.06,5.06,0,0,0,994.46,715.57Z"/><path class="cls-1" d="M1009.44,706.43h1.26a.32.32,0,0,1,.36.37v13.44a.32.32,0,0,1-.36.36h-1.26a.33.33,0,0,1-.37-.36v-1.07a.13.13,0,0,0-.05-.11s-.08,0-.11.06a4.26,4.26,0,0,1-3.7,1.68,5.7,5.7,0,0,1-2.48-.55,4.28,4.28,0,0,1-1.79-1.58,4.53,4.53,0,0,1-.66-2.49V706.8a.32.32,0,0,1,.37-.37h1.26a.32.32,0,0,1,.36.37v8.79a3.49,3.49,0,0,0,.9,2.53,3.16,3.16,0,0,0,2.43.94,3.42,3.42,0,0,0,2.54-.95,3.47,3.47,0,0,0,.93-2.52V706.8A.33.33,0,0,1,1009.44,706.43Z"/><path class="cls-1" d="M1021.51,708.08h-3.06a.13.13,0,0,0-.14.14v8.18a2.42,2.42,0,0,0,.61,1.89,2.77,2.77,0,0,0,1.89.55h.61a.33.33,0,0,1,.37.36v1a.36.36,0,0,1-.37.39h-.95a5.16,5.16,0,0,1-3.05-.75,3.28,3.28,0,0,1-1-2.8v-8.8a.13.13,0,0,0-.14-.14h-1.59a.32.32,0,0,1-.37-.36v-.92a.32.32,0,0,1,.37-.37h1.59a.12.12,0,0,0,.14-.14v-3.13a.32.32,0,0,1,.37-.37h1.2a.32.32,0,0,1,.36.37v3.13a.12.12,0,0,0,.14.14h3.06a.32.32,0,0,1,.36.37v.92A.32.32,0,0,1,1021.51,708.08Z"/><path class="cls-1" d="M1033,718.54a3.64,3.64,0,0,0,1.41-1.52.36.36,0,0,1,.2-.2.28.28,0,0,1,.28,0l.81.45c.23.13.28.29.17.47a5.22,5.22,0,0,1-2,2.23,6,6,0,0,1-3.2.82,5.67,5.67,0,0,1-3.3-.92,5.06,5.06,0,0,1-1.93-2.58,11.08,11.08,0,0,1-.53-3.86c0-.8,0-1.44,0-1.92a6.85,6.85,0,0,1,.21-1.33,5.12,5.12,0,0,1,1.92-2.91,5.58,5.58,0,0,1,3.48-1.09,5.45,5.45,0,0,1,3.82,1.26,5.94,5.94,0,0,1,1.78,3.55,16.92,16.92,0,0,1,.17,2.8.32.32,0,0,1-.36.37h-9c-.09,0-.13,0-.13.14a9.11,9.11,0,0,0,.16,2,3.44,3.44,0,0,0,1.3,2,4.07,4.07,0,0,0,2.51.75A4.27,4.27,0,0,0,1033,718.54Zm-4.74-9.88a3.31,3.31,0,0,0-1.18,1.92,8.36,8.36,0,0,0-.22,1.9c0,.09,0,.14.13.14h7.2a.13.13,0,0,0,.14-.14,12.65,12.65,0,0,0-.17-1.79,3.51,3.51,0,0,0-1.24-2,3.69,3.69,0,0,0-2.37-.75A3.53,3.53,0,0,0,1028.23,708.66Z"/><path class="cls-1" d="M1049.34,703.42a3.72,3.72,0,0,0-.56,2.34v.53c0,.1,0,.14.14.14h3a.32.32,0,0,1,.36.37v1.09a.32.32,0,0,1-.36.36h-3a.12.12,0,0,0-.14.14v11.85a.32.32,0,0,1-.37.36h-1.23a.32.32,0,0,1-.36-.36V708.39a.13.13,0,0,0-.14-.14h-1.77a.32.32,0,0,1-.36-.36V706.8a.32.32,0,0,1,.36-.37h1.77a.12.12,0,0,0,.14-.14v-.64a7.67,7.67,0,0,1,.39-2.73,2.63,2.63,0,0,1,1.36-1.46,6.34,6.34,0,0,1,2.7-.46h.73a.32.32,0,0,1,.36.36v1a.32.32,0,0,1-.36.37h-.56A2.59,2.59,0,0,0,1049.34,703.42Z"/><path class="cls-1" d="M1063.06,706.63a.33.33,0,0,1,.19.45l-.28,1.23c0,.22-.2.3-.44.22a4.27,4.27,0,0,0-1.38-.14,3.33,3.33,0,0,0-2.4,1.08,3.64,3.64,0,0,0-1,2.59v8.18a.32.32,0,0,1-.36.36h-1.26a.33.33,0,0,1-.37-.36V706.8a.33.33,0,0,1,.37-.37h1.26a.32.32,0,0,1,.36.37v1.56c0,.08,0,.12,0,.13s.07,0,.1-.07a4.44,4.44,0,0,1,1.5-1.57,3.94,3.94,0,0,1,2.09-.56A3.13,3.13,0,0,1,1063.06,706.63Z"/><path class="cls-1" d="M1067.8,719.79a5.3,5.3,0,0,1-2-2.86,12.23,12.23,0,0,1-.39-3.44,13.14,13.14,0,0,1,.36-3.42,5.39,5.39,0,0,1,2-2.83,5.85,5.85,0,0,1,3.51-1,5.78,5.78,0,0,1,3.46,1,5.22,5.22,0,0,1,2,2.8,12.71,12.71,0,0,1,.39,3.45,12.23,12.23,0,0,1-.39,3.44,5.3,5.3,0,0,1-2,2.86,5.73,5.73,0,0,1-3.43,1A5.83,5.83,0,0,1,1067.8,719.79Zm5.78-1.44a3.64,3.64,0,0,0,1.29-2,12.6,12.6,0,0,0,.23-2.82,12,12,0,0,0-.23-2.83,3.45,3.45,0,0,0-1.27-2,3.73,3.73,0,0,0-2.37-.75,3.58,3.58,0,0,0-3.58,2.75,18.25,18.25,0,0,0,0,5.65,3.51,3.51,0,0,0,1.27,2,3.83,3.83,0,0,0,2.37.74A3.61,3.61,0,0,0,1073.58,718.35Z"/><path class="cls-1" d="M1098.8,707.5a4.74,4.74,0,0,1,1.22,3.44v9.3a.33.33,0,0,1-.37.36h-1.23a.32.32,0,0,1-.36-.36v-8.91a3.38,3.38,0,0,0-.89-2.45,3.06,3.06,0,0,0-2.3-.91,3.28,3.28,0,0,0-2.4.9,3.22,3.22,0,0,0-.91,2.41v9a.32.32,0,0,1-.36.36h-1.26a.32.32,0,0,1-.37-.36v-8.91a3.45,3.45,0,0,0-.86-2.45,3.1,3.1,0,0,0-2.33-.91,3.17,3.17,0,0,0-2.37.9,3.32,3.32,0,0,0-.88,2.41v9a.32.32,0,0,1-.36.36h-1.26a.33.33,0,0,1-.37-.36V706.8a.33.33,0,0,1,.37-.37h1.26a.32.32,0,0,1,.36.37v1a.11.11,0,0,0,.06.11s.07,0,.11-.06a3.66,3.66,0,0,1,1.57-1.2,5.54,5.54,0,0,1,2.13-.39,4.92,4.92,0,0,1,2.46.58,3.93,3.93,0,0,1,1.57,1.66c0,.11.11.12.17,0a3.94,3.94,0,0,1,1.73-1.7,5.56,5.56,0,0,1,2.55-.56A4.4,4.4,0,0,1,1098.8,707.5Z"/><path class="cls-1" d="M1111.51,720.1a5.45,5.45,0,0,1-2.24-2.06,5.88,5.88,0,0,1-.8-3.07v-1.29a.32.32,0,0,1,.37-.36h1.26a.32.32,0,0,1,.36.36V715a3.88,3.88,0,0,0,1.22,3,5,5,0,0,0,6.38,0,3.85,3.85,0,0,0,1.22-3V701.36a.32.32,0,0,1,.36-.36h1.26a.32.32,0,0,1,.37.36V715a5.88,5.88,0,0,1-.8,3.07,5.41,5.41,0,0,1-2.25,2.06,8.18,8.18,0,0,1-6.71,0Z"/><path class="cls-1" d="M1133.83,718.54a3.77,3.77,0,0,0,1.41-1.52.33.33,0,0,1,.2-.2.29.29,0,0,1,.28,0l.81.45c.22.13.28.29.17.47a5.18,5.18,0,0,1-2,2.23,6,6,0,0,1-3.19.82,5.68,5.68,0,0,1-3.31-.92,5.11,5.11,0,0,1-1.93-2.58,11.32,11.32,0,0,1-.53-3.86c0-.8,0-1.44,0-1.92a6.85,6.85,0,0,1,.21-1.33,5.22,5.22,0,0,1,1.92-2.91,5.59,5.59,0,0,1,3.49-1.09,5.48,5.48,0,0,1,3.82,1.26A6.05,6.05,0,0,1,1137,711a17.18,17.18,0,0,1,.16,2.8.32.32,0,0,1-.36.37h-9a.12.12,0,0,0-.14.14,9,9,0,0,0,.17,2,3.4,3.4,0,0,0,1.3,2,4,4,0,0,0,2.51.75A4.3,4.3,0,0,0,1133.83,718.54Zm-4.75-9.88a3.31,3.31,0,0,0-1.18,1.92,9,9,0,0,0-.22,1.9.13.13,0,0,0,.14.14h7.2a.13.13,0,0,0,.14-.14,14.38,14.38,0,0,0-.17-1.79,3.52,3.52,0,0,0-1.25-2,3.65,3.65,0,0,0-2.36-.75A3.55,3.55,0,0,0,1129.08,708.66Z"/><path class="cls-1" d="M1148.34,706.63a.33.33,0,0,1,.2.45l-.28,1.23c0,.22-.21.3-.45.22a4.18,4.18,0,0,0-1.37-.14,3.37,3.37,0,0,0-2.41,1.08,3.68,3.68,0,0,0-1,2.59v8.18a.32.32,0,0,1-.36.36h-1.26a.32.32,0,0,1-.37-.36V706.8a.32.32,0,0,1,.37-.37h1.26a.32.32,0,0,1,.36.37v1.56c0,.08,0,.12,0,.13s.06,0,.1-.07a4.44,4.44,0,0,1,1.5-1.57,3.9,3.9,0,0,1,2.08-.56A3.11,3.11,0,0,1,1148.34,706.63Z"/><path class="cls-1" d="M1158.83,718.54a3.64,3.64,0,0,0,1.41-1.52.36.36,0,0,1,.2-.2.28.28,0,0,1,.28,0l.81.45c.23.13.28.29.17.47a5.18,5.18,0,0,1-2,2.23,6,6,0,0,1-3.19.82,5.65,5.65,0,0,1-3.3-.92,5.06,5.06,0,0,1-1.93-2.58,11,11,0,0,1-.54-3.86c0-.8,0-1.44,0-1.92a6.17,6.17,0,0,1,.21-1.33,5.16,5.16,0,0,1,1.91-2.91,5.63,5.63,0,0,1,3.49-1.09,5.47,5.47,0,0,1,3.82,1.26A5.94,5.94,0,0,1,1162,711a16.92,16.92,0,0,1,.17,2.8.32.32,0,0,1-.36.37h-9a.12.12,0,0,0-.14.14,9,9,0,0,0,.17,2,3.44,3.44,0,0,0,1.3,2,4.07,4.07,0,0,0,2.51.75A4.3,4.3,0,0,0,1158.83,718.54Zm-4.75-9.88a3.34,3.34,0,0,0-1.17,1.92,8.82,8.82,0,0,0-.23,1.9.13.13,0,0,0,.14.14h7.2a.13.13,0,0,0,.14-.14,12.65,12.65,0,0,0-.17-1.79,3.51,3.51,0,0,0-1.24-2,3.69,3.69,0,0,0-2.37-.75A3.57,3.57,0,0,0,1154.08,708.66Z"/><path class="cls-1" d="M1183.75,707.5a4.74,4.74,0,0,1,1.22,3.44v9.3a.32.32,0,0,1-.37.36h-1.23a.32.32,0,0,1-.36-.36v-8.91a3.42,3.42,0,0,0-.88-2.45,3.1,3.1,0,0,0-2.31-.91,3.11,3.11,0,0,0-3.31,3.31v9a.32.32,0,0,1-.36.36h-1.26a.33.33,0,0,1-.37-.36v-8.91a3.45,3.45,0,0,0-.86-2.45,3.1,3.1,0,0,0-2.33-.91,3.13,3.13,0,0,0-2.36.9,3.29,3.29,0,0,0-.89,2.41v9a.32.32,0,0,1-.36.36h-1.26a.32.32,0,0,1-.36-.36V706.8a.32.32,0,0,1,.36-.37h1.26a.32.32,0,0,1,.36.37v1a.11.11,0,0,0,.06.11s.07,0,.11-.06a3.72,3.72,0,0,1,1.57-1.2,5.57,5.57,0,0,1,2.13-.39,4.92,4.92,0,0,1,2.46.58,3.93,3.93,0,0,1,1.57,1.66c.06.11.11.12.17,0a3.94,3.94,0,0,1,1.73-1.7,5.56,5.56,0,0,1,2.55-.56A4.4,4.4,0,0,1,1183.75,707.5Z"/><path class="cls-1" d="M1188.41,725.84v-1c0-.25.07-.37.2-.37h.19a3.74,3.74,0,0,0,1.7-.31,2.54,2.54,0,0,0,1-1.09,12.84,12.84,0,0,0,.94-2.41.21.21,0,0,0,0-.16l-4.7-13.67a.29.29,0,0,1,0-.14.23.23,0,0,1,.1-.19.32.32,0,0,1,.24-.09h1.31a.39.39,0,0,1,.42.31l3.61,11c0,.07,0,.11.09.11s.06,0,.08-.11l3.53-11a.39.39,0,0,1,.39-.31h1.35a.35.35,0,0,1,.28.11.36.36,0,0,1,0,.31l-5.15,15a13.82,13.82,0,0,1-1.26,2.77,3.09,3.09,0,0,1-1.47,1.25,7,7,0,0,1-2.48.35h-.19C1188.48,726.2,1188.41,726.08,1188.41,725.84Z"/><path class="cls-1" d="M1220.25,701.36v1a.32.32,0,0,1-.37.36h-5.37a.12.12,0,0,0-.14.14v17.34a.32.32,0,0,1-.37.36h-1.26a.32.32,0,0,1-.36-.36V702.9a.13.13,0,0,0-.14-.14h-5.15a.33.33,0,0,1-.37-.36v-1a.33.33,0,0,1,.37-.36h12.79A.32.32,0,0,1,1220.25,701.36Z"/><path class="cls-1" d="M1229.46,706.63c.19.07.25.22.2.45l-.28,1.23c-.06.22-.21.3-.45.22a4.21,4.21,0,0,0-1.37-.14,3.33,3.33,0,0,0-2.41,1.08,3.63,3.63,0,0,0-1,2.59v8.18a.33.33,0,0,1-.37.36h-1.26a.32.32,0,0,1-.36-.36V706.8a.32.32,0,0,1,.36-.37h1.26a.33.33,0,0,1,.37.37v1.56c0,.08,0,.12,0,.13s.06,0,.1-.07a4.5,4.5,0,0,1,1.49-1.57,4,4,0,0,1,2.09-.56A3.11,3.11,0,0,1,1229.46,706.63Z"/><path class="cls-1" d="M1232.51,703.48a1.39,1.39,0,0,1-.42-1.05,1.36,1.36,0,0,1,.42-1,1.73,1.73,0,0,1,2.19,0,1.36,1.36,0,0,1,.42,1,1.39,1.39,0,0,1-.42,1.05,1.7,1.7,0,0,1-2.19,0Zm.11,16.76V706.8a.32.32,0,0,1,.37-.37h1.26a.32.32,0,0,1,.36.37v13.44a.32.32,0,0,1-.36.36H1233A.32.32,0,0,1,1232.62,720.24Z"/><path class="cls-1" d="M1250.49,713.52a12.56,12.56,0,0,1-.39,3.55,5.17,5.17,0,0,1-1.84,2.75,5.28,5.28,0,0,1-3.29,1,4.65,4.65,0,0,1-2-.44,4.22,4.22,0,0,1-1.52-1.26.13.13,0,0,0-.12,0,.1.1,0,0,0,0,.1v1.07a.32.32,0,0,1-.37.36h-1.26a.32.32,0,0,1-.36-.36V701.36a.32.32,0,0,1,.36-.36h1.26a.32.32,0,0,1,.37.36v6.47c0,.06,0,.1,0,.11s.08,0,.12-.05a4.08,4.08,0,0,1,1.54-1.25,4.62,4.62,0,0,1,2-.43,5.32,5.32,0,0,1,3.33,1,5.13,5.13,0,0,1,1.85,2.81A13.08,13.08,0,0,1,1250.49,713.52Zm-2.1,2.05a15.29,15.29,0,0,0,.11-2.05,11.93,11.93,0,0,0-.15-2.15,5.23,5.23,0,0,0-.49-1.38,3.27,3.27,0,0,0-1.18-1.49,3.35,3.35,0,0,0-1.93-.56,3,3,0,0,0-1.84.58,3.15,3.15,0,0,0-1.1,1.52,4.6,4.6,0,0,0-.39,1.36,14.59,14.59,0,0,0-.12,2.12,14.28,14.28,0,0,0,.12,2.1,4.71,4.71,0,0,0,.36,1.31,3.43,3.43,0,0,0,1.12,1.57,3,3,0,0,0,1.88.59,3.52,3.52,0,0,0,2-.59,3.06,3.06,0,0,0,1.19-1.6A5.06,5.06,0,0,0,1248.39,715.57Z"/><path class="cls-1" d="M1265.63,713.52a12.56,12.56,0,0,1-.39,3.55,5.1,5.1,0,0,1-1.83,2.75,5.3,5.3,0,0,1-3.29,1,4.65,4.65,0,0,1-2-.44,4.25,4.25,0,0,1-1.53-1.26.11.11,0,0,0-.11,0s0,0,0,.1v1.07a.33.33,0,0,1-.37.36h-1.26a.32.32,0,0,1-.36-.36V701.36a.32.32,0,0,1,.36-.36H1256a.33.33,0,0,1,.37.36v6.47c0,.06,0,.1,0,.11s.08,0,.11-.05a4.16,4.16,0,0,1,1.54-1.25,4.69,4.69,0,0,1,2-.43,5.32,5.32,0,0,1,3.33,1,5.18,5.18,0,0,1,1.85,2.81A13.61,13.61,0,0,1,1265.63,713.52Zm-2.09,2.05a15.29,15.29,0,0,0,.11-2.05,10.94,10.94,0,0,0-.16-2.15A4.61,4.61,0,0,0,1263,710a3.19,3.19,0,0,0-1.17-1.49,3.35,3.35,0,0,0-1.93-.56,3,3,0,0,0-1.84.58A3.15,3.15,0,0,0,1257,710a4.92,4.92,0,0,0-.4,1.36,16.49,16.49,0,0,0-.11,2.12,16.14,16.14,0,0,0,.11,2.1,5.07,5.07,0,0,0,.37,1.31,3.36,3.36,0,0,0,1.12,1.57,3,3,0,0,0,1.87.59,3.49,3.49,0,0,0,2-.59,3,3,0,0,0,1.19-1.6A4.71,4.71,0,0,0,1263.54,715.57Z"/><path class="cls-1" d="M1268.49,725.84v-1c0-.25.07-.37.2-.37h.19a3.74,3.74,0,0,0,1.7-.31,2.54,2.54,0,0,0,1-1.09,12.84,12.84,0,0,0,.94-2.41.21.21,0,0,0,0-.16l-4.7-13.67a.29.29,0,0,1,0-.14.23.23,0,0,1,.1-.19.32.32,0,0,1,.24-.09h1.31a.39.39,0,0,1,.42.31l3.61,11c0,.07,0,.11.09.11s.06,0,.08-.11l3.53-11a.39.39,0,0,1,.39-.31h1.35a.35.35,0,0,1,.28.11.36.36,0,0,1,0,.31l-5.15,15a13.82,13.82,0,0,1-1.26,2.77,3.09,3.09,0,0,1-1.47,1.25,7,7,0,0,1-2.48.35h-.19C1268.56,726.2,1268.49,726.08,1268.49,725.84Z"/><path class="cls-1" d="M1036.26,738.08h-3a.13.13,0,0,0-.14.14v8.18a2.46,2.46,0,0,0,.6,1.89,2.77,2.77,0,0,0,1.89.55h.62a.32.32,0,0,1,.36.36v1a.35.35,0,0,1-.36.39h-1a5.21,5.21,0,0,1-3.06-.75,3.27,3.27,0,0,1-1-2.8v-8.8a.13.13,0,0,0-.14-.14h-1.6a.32.32,0,0,1-.36-.36v-.92a.32.32,0,0,1,.36-.37h1.6a.12.12,0,0,0,.14-.14v-3.13a.32.32,0,0,1,.36-.37h1.21a.32.32,0,0,1,.36.37v3.13a.12.12,0,0,0,.14.14h3a.32.32,0,0,1,.37.37v.92A.32.32,0,0,1,1036.26,738.08Z"/><path class="cls-1" d="M1042,749.79a5.3,5.3,0,0,1-2-2.86,11.83,11.83,0,0,1-.4-3.44,13.08,13.08,0,0,1,.37-3.42,5.38,5.38,0,0,1,2-2.83,5.85,5.85,0,0,1,3.51-1,5.76,5.76,0,0,1,3.46,1,5.29,5.29,0,0,1,2,2.8,12.71,12.71,0,0,1,.39,3.45,12.23,12.23,0,0,1-.39,3.44,5.32,5.32,0,0,1-2,2.86,5.71,5.71,0,0,1-3.43,1A5.8,5.8,0,0,1,1042,749.79Zm5.78-1.44a3.69,3.69,0,0,0,1.29-2,12.74,12.74,0,0,0,.22-2.82,12.13,12.13,0,0,0-.22-2.83,3.5,3.5,0,0,0-1.27-2,3.77,3.77,0,0,0-2.37-.75,3.61,3.61,0,0,0-2.3.75,3.69,3.69,0,0,0-1.29,2,18.25,18.25,0,0,0,0,5.65,3.52,3.52,0,0,0,1.28,2,3.78,3.78,0,0,0,2.36.74A3.64,3.64,0,0,0,1047.77,748.35Z"/><path class="cls-1" d="M1062.54,750.1a5.45,5.45,0,0,1-2.24-2.06,5.88,5.88,0,0,1-.8-3.07v-1.29a.32.32,0,0,1,.37-.36h1.26a.32.32,0,0,1,.36.36V745a3.88,3.88,0,0,0,1.22,3,5,5,0,0,0,6.38,0,3.88,3.88,0,0,0,1.22-3V731.36a.32.32,0,0,1,.36-.36h1.26a.32.32,0,0,1,.37.36V745a5.88,5.88,0,0,1-.8,3.07,5.41,5.41,0,0,1-2.25,2.06,8.18,8.18,0,0,1-6.71,0Z"/><path class="cls-1" d="M1079.12,749.79a5.32,5.32,0,0,1-2-2.86,12.23,12.23,0,0,1-.39-3.44,12.66,12.66,0,0,1,.37-3.42,5.38,5.38,0,0,1,2-2.83,5.85,5.85,0,0,1,3.51-1,5.76,5.76,0,0,1,3.46,1,5.22,5.22,0,0,1,2,2.8,12.66,12.66,0,0,1,.4,3.45,12.18,12.18,0,0,1-.4,3.44,5.3,5.3,0,0,1-2,2.86,5.71,5.71,0,0,1-3.43,1A5.8,5.8,0,0,1,1079.12,749.79Zm5.78-1.44a3.75,3.75,0,0,0,1.29-2,12.74,12.74,0,0,0,.22-2.82,12.13,12.13,0,0,0-.22-2.83,3.46,3.46,0,0,0-1.28-2,3.72,3.72,0,0,0-2.36-.75,3.59,3.59,0,0,0-2.3.75,3.69,3.69,0,0,0-1.29,2,18.25,18.25,0,0,0,0,5.65,3.52,3.52,0,0,0,1.28,2,3.78,3.78,0,0,0,2.36.74A3.66,3.66,0,0,0,1084.9,748.35Z"/><path class="cls-1" d="M1101.88,737.55a4.74,4.74,0,0,1,1.33,3.53v9.16a.32.32,0,0,1-.36.36h-1.26a.32.32,0,0,1-.37-.36v-8.77a3.53,3.53,0,0,0-.92-2.53,3.17,3.17,0,0,0-2.41-1,3.51,3.51,0,0,0-2.37.81,3.18,3.18,0,0,0-1.07,2.13v9.33a.33.33,0,0,1-.37.36h-1.26a.32.32,0,0,1-.36-.36V731.36a.32.32,0,0,1,.36-.36h1.26a.33.33,0,0,1,.37.36v6.47a.14.14,0,0,0,0,.13s.07,0,.09,0a4.34,4.34,0,0,1,3.75-1.68A4.81,4.81,0,0,1,1101.88,737.55Z"/><path class="cls-1" d="M1117,737.55a4.74,4.74,0,0,1,1.33,3.53v9.16a.32.32,0,0,1-.36.36h-1.26a.32.32,0,0,1-.37-.36v-8.77a3.49,3.49,0,0,0-.92-2.53,3.17,3.17,0,0,0-2.41-1,3.47,3.47,0,0,0-2.36.81,3.15,3.15,0,0,0-1.08,2.13v9.33a.32.32,0,0,1-.37.36h-1.26a.32.32,0,0,1-.36-.36V736.8a.32.32,0,0,1,.36-.37h1.26a.32.32,0,0,1,.37.37v1a.17.17,0,0,0,0,.13s.07,0,.09,0a4.34,4.34,0,0,1,3.75-1.68A4.81,4.81,0,0,1,1117,737.55Z"/><path class="cls-1" d="M1140,732.48a5.42,5.42,0,0,1,1.5,4,5.25,5.25,0,0,1-1.52,3.92,5.52,5.52,0,0,1-4,1.48h-5.43a.12.12,0,0,0-.14.14v8.24a.33.33,0,0,1-.37.36h-1.26a.32.32,0,0,1-.36-.36v-18.9a.32.32,0,0,1,.36-.37h7.28A5.36,5.36,0,0,1,1140,732.48Zm-1.5,6.71a3.59,3.59,0,0,0,1-2.7,3.7,3.7,0,0,0-1-2.75,3.62,3.62,0,0,0-2.68-1h-5.29c-.1,0-.14,0-.14.14v7.22c0,.1,0,.14.14.14h5.29A3.65,3.65,0,0,0,1138.54,739.19Z"/><path class="cls-1" d="M1152,748.54a3.64,3.64,0,0,0,1.41-1.52.36.36,0,0,1,.2-.2.29.29,0,0,1,.28,0l.81.45c.23.13.28.29.17.47a5.18,5.18,0,0,1-2,2.23,6,6,0,0,1-3.19.82,5.63,5.63,0,0,1-3.3-.92,5.06,5.06,0,0,1-1.93-2.58,11,11,0,0,1-.54-3.86c0-.8,0-1.44,0-1.92a6.17,6.17,0,0,1,.2-1.33,5.22,5.22,0,0,1,1.92-2.91,5.61,5.61,0,0,1,3.49-1.09,5.47,5.47,0,0,1,3.82,1.26,6,6,0,0,1,1.78,3.55,16.92,16.92,0,0,1,.17,2.8.32.32,0,0,1-.37.37h-9a.12.12,0,0,0-.14.14,9,9,0,0,0,.17,2,3.44,3.44,0,0,0,1.3,2,4.07,4.07,0,0,0,2.51.75A4.3,4.3,0,0,0,1152,748.54Zm-4.75-9.88a3.29,3.29,0,0,0-1.17,1.92,8.21,8.21,0,0,0-.23,1.9.13.13,0,0,0,.14.14h7.2a.13.13,0,0,0,.14-.14,12.65,12.65,0,0,0-.17-1.79,3.51,3.51,0,0,0-1.24-2,3.69,3.69,0,0,0-2.37-.75A3.57,3.57,0,0,0,1147.25,738.66Z"/><path class="cls-1" d="M1166.52,736.63a.33.33,0,0,1,.19.45l-.28,1.23c0,.22-.2.3-.44.22a4.27,4.27,0,0,0-1.38-.14,3.33,3.33,0,0,0-2.4,1.08,3.64,3.64,0,0,0-1,2.59v8.18a.32.32,0,0,1-.36.36h-1.26a.32.32,0,0,1-.36-.36V736.8a.32.32,0,0,1,.36-.37h1.26a.32.32,0,0,1,.36.37v1.56c0,.08,0,.12,0,.13s.07,0,.1-.07a4.62,4.62,0,0,1,1.5-1.57,3.94,3.94,0,0,1,2.09-.56A3.13,3.13,0,0,1,1166.52,736.63Z"/><path class="cls-1" d="M1176.71,736.63c.19.07.25.22.2.45l-.29,1.23c0,.22-.2.3-.44.22a4.24,4.24,0,0,0-1.38-.14,3.33,3.33,0,0,0-2.4,1.08,3.63,3.63,0,0,0-1,2.59v8.18a.33.33,0,0,1-.37.36h-1.26a.32.32,0,0,1-.36-.36V736.8a.32.32,0,0,1,.36-.37h1.26a.33.33,0,0,1,.37.37v1.56c0,.08,0,.12,0,.13s.06,0,.1-.07a4.5,4.5,0,0,1,1.49-1.57,3.94,3.94,0,0,1,2.09-.56A3.11,3.11,0,0,1,1176.71,736.63Z"/><path class="cls-1" d="M1179.59,755.84v-1c0-.25.07-.37.2-.37h.2a3.72,3.72,0,0,0,1.69-.31,2.49,2.49,0,0,0,1-1.09,12.84,12.84,0,0,0,.94-2.41.21.21,0,0,0,0-.16l-4.7-13.67a.29.29,0,0,1,0-.14.23.23,0,0,1,.1-.19.32.32,0,0,1,.24-.09h1.31a.39.39,0,0,1,.42.31l3.62,11c0,.07,0,.11.08.11s.06,0,.08-.11l3.53-11a.39.39,0,0,1,.39-.31H1190a.35.35,0,0,1,.28.11.4.4,0,0,1,0,.31l-5.16,15a12.78,12.78,0,0,1-1.26,2.77,3.09,3.09,0,0,1-1.47,1.25,7,7,0,0,1-2.47.35h-.2C1179.66,756.2,1179.59,756.08,1179.59,755.84Z"/><path class="cls-1" d="M1209.22,740.55a4.72,4.72,0,0,1,2.25,1.82,5.3,5.3,0,0,1,.77,2.91,4.89,4.89,0,0,1-1.61,3.92,6.25,6.25,0,0,1-4.24,1.4h-6.69a.33.33,0,0,1-.37-.36V731.36a.33.33,0,0,1,.37-.36h6.49a6.33,6.33,0,0,1,4.27,1.34,4.73,4.73,0,0,1,1.56,3.78,4.32,4.32,0,0,1-2.8,4.26C1209.11,740.44,1209.11,740.49,1209.22,740.55Zm-7.9-7.67v6.66a.13.13,0,0,0,.14.14h4.73a4.14,4.14,0,0,0,2.82-.92,3.13,3.13,0,0,0,1-2.47,3.36,3.36,0,0,0-1-2.59,4,4,0,0,0-2.82-1h-4.73A.12.12,0,0,0,1201.32,732.88Zm7.88,15a4,4,0,0,0,0-5.45,4.06,4.06,0,0,0-2.9-1h-4.82a.13.13,0,0,0-.14.14v7.2a.13.13,0,0,0,.14.14h4.93A3.89,3.89,0,0,0,1209.2,747.83Z"/><path class="cls-1" d="M1225.14,737.5a4.44,4.44,0,0,1,1.38,3.41v9.33a.32.32,0,0,1-.36.36h-1.26a.33.33,0,0,1-.37-.36v-1c0-.06,0-.1,0-.11s-.08,0-.11,0a4.92,4.92,0,0,1-1.89,1.23,7.13,7.13,0,0,1-2.48.42,5.28,5.28,0,0,1-3.29-1,3.62,3.62,0,0,1-1.33-3.08,4,4,0,0,1,1.52-3.32,6.66,6.66,0,0,1,4.25-1.22h3.24a.12.12,0,0,0,.14-.14v-1a3.1,3.1,0,0,0-.79-2.25,3.33,3.33,0,0,0-2.48-.83,4.11,4.11,0,0,0-2.16.51,2.19,2.19,0,0,0-1.06,1.4.34.34,0,0,1-.42.28l-1.37-.17c-.25,0-.36-.14-.34-.31a3.71,3.71,0,0,1,1.72-2.49,6.43,6.43,0,0,1,3.6-.95A5.54,5.54,0,0,1,1225.14,737.5Zm-1.82,10.79a2.56,2.56,0,0,0,1.21-2.23v-2.15c0-.1,0-.14-.14-.14h-2.94a5.21,5.21,0,0,0-3,.75,2.4,2.4,0,0,0-1.12,2.1,2.17,2.17,0,0,0,.86,1.87,3.69,3.69,0,0,0,2.22.63A5,5,0,0,0,1223.32,748.29Z"/><path class="cls-1" d="M1237.89,736.63c.19.07.25.22.2.45l-.28,1.23c-.06.22-.21.3-.45.22a4.24,4.24,0,0,0-1.37-.14,3.33,3.33,0,0,0-2.41,1.08,3.64,3.64,0,0,0-1,2.59v8.18a.32.32,0,0,1-.36.36H1231a.32.32,0,0,1-.36-.36V736.8a.32.32,0,0,1,.36-.37h1.26a.32.32,0,0,1,.36.37v1.56c0,.08,0,.12.05.13s.06,0,.1-.07a4.5,4.5,0,0,1,1.49-1.57,4,4,0,0,1,2.09-.56A3.13,3.13,0,0,1,1237.89,736.63Z"/><path class="cls-1" d="M1240.83,750.24V731.36a.32.32,0,0,1,.36-.36h1.26a.32.32,0,0,1,.37.36v18.88a.32.32,0,0,1-.37.36h-1.26A.32.32,0,0,1,1240.83,750.24Z"/><path class="cls-1" d="M1249.27,749.79a5.3,5.3,0,0,1-2-2.86,12.23,12.23,0,0,1-.39-3.44,13.14,13.14,0,0,1,.36-3.42,5.38,5.38,0,0,1,2-2.83,5.88,5.88,0,0,1,3.52-1,5.75,5.75,0,0,1,3.45,1,5.24,5.24,0,0,1,2,2.8,12.71,12.71,0,0,1,.39,3.45,12.23,12.23,0,0,1-.39,3.44,5.3,5.3,0,0,1-2,2.86,5.75,5.75,0,0,1-3.43,1A5.81,5.81,0,0,1,1249.27,749.79Zm5.78-1.44a3.64,3.64,0,0,0,1.29-2,12.74,12.74,0,0,0,.22-2.82,12.13,12.13,0,0,0-.22-2.83,3.5,3.5,0,0,0-1.27-2,3.77,3.77,0,0,0-2.37-.75,3.56,3.56,0,0,0-3.58,2.75,17.46,17.46,0,0,0,0,5.65,3.51,3.51,0,0,0,1.27,2,3.81,3.81,0,0,0,2.37.74A3.63,3.63,0,0,0,1255.05,748.35Z"/><path class="cls-1" d="M1264.66,750.29l-3.92-13.44a.29.29,0,0,1,0-.14.23.23,0,0,1,.1-.19.32.32,0,0,1,.23-.09h1.32a.37.37,0,0,1,.39.31l2.92,10.92c0,.06,0,.08.08.08s.06,0,.08-.08l3-10.92a.38.38,0,0,1,.39-.31h1.23a.39.39,0,0,1,.4.31l3.05,10.92c0,.06,0,.08.08.08s.07,0,.08-.08l3-10.92a.4.4,0,0,1,.42-.31l1.29,0a.35.35,0,0,1,.28.11.36.36,0,0,1,0,.31l-4,13.41a.38.38,0,0,1-.39.31h-1.37a.36.36,0,0,1-.39-.31l-3-10.33c0-.06-.05-.08-.08-.08s-.07,0-.09.08l-2.91,10.33a.37.37,0,0,1-.39.31h-1.4A.36.36,0,0,1,1264.66,750.29Z"/><path class="cls-1" d="M279.82,747.85l-2.4-7.32q-.12-.24-.3-.24H259.24q-.18,0-.3.24l-2.34,7.32a.8.8,0,0,1-.84.66h-2.88a.7.7,0,0,1-.6-.24.73.73,0,0,1-.06-.66l13.2-40.44a.8.8,0,0,1,.84-.66h3.84a.8.8,0,0,1,.84.66l13.26,40.44a.67.67,0,0,1,.06.3.54.54,0,0,1-.21.42.76.76,0,0,1-.51.18h-2.88A.8.8,0,0,1,279.82,747.85Zm-19.32-11h15.42q.36,0,.24-.36l-7.8-24.54q-.06-.24-.18-.24t-.18.24l-7.74,24.54Q260.2,736.81,260.5,736.81Z"/><path class="cls-1" d="M316.06,721.69h-6.54a.27.27,0,0,0-.3.3v17.52q0,2.88,1.29,4a5.9,5.9,0,0,0,4.05,1.17h1.32a.69.69,0,0,1,.78.78v2.1a.75.75,0,0,1-.78.84h-2q-4.32,0-6.54-1.62t-2.22-6V722a.27.27,0,0,0-.3-.3h-3.42a.69.69,0,0,1-.78-.78v-2a.69.69,0,0,1,.78-.78h3.42a.27.27,0,0,0,.3-.3v-6.72a.69.69,0,0,1,.78-.78h2.58a.69.69,0,0,1,.78.78v6.72a.27.27,0,0,0,.3.3h6.54a.69.69,0,0,1,.78.78v2A.69.69,0,0,1,316.06,721.69Z"/><path class="cls-1" d="M328.33,746.77a11.43,11.43,0,0,1-4.29-6.12,26.16,26.16,0,0,1-.84-7.38A27.79,27.79,0,0,1,324,726a11.43,11.43,0,0,1,4.29-6.06,12.56,12.56,0,0,1,7.53-2.22,12.36,12.36,0,0,1,7.41,2.22,11.12,11.12,0,0,1,4.23,6,27,27,0,0,1,.84,7.38,26.16,26.16,0,0,1-.84,7.38,11.43,11.43,0,0,1-4.29,6.12A12.26,12.26,0,0,1,335.8,749,12.46,12.46,0,0,1,328.33,746.77Zm12.39-3.09a7.82,7.82,0,0,0,2.76-4.29,27.44,27.44,0,0,0,.48-6.06,26,26,0,0,0-.48-6.06,7.46,7.46,0,0,0-2.73-4.29,8.08,8.08,0,0,0-5.07-1.59,7.63,7.63,0,0,0-7.68,5.88,38.49,38.49,0,0,0,0,12.12,7.46,7.46,0,0,0,2.73,4.29,8.08,8.08,0,0,0,5.07,1.59A7.76,7.76,0,0,0,340.72,743.68Z"/><path class="cls-1" d="M376.06,718.15h2.7a.69.69,0,0,1,.78.78v28.8a.69.69,0,0,1-.78.78h-2.7a.69.69,0,0,1-.78-.78v-2.28a.24.24,0,0,0-.12-.24q-.12-.06-.24.12-2.58,3.6-7.92,3.6a12.08,12.08,0,0,1-5.31-1.17,9.15,9.15,0,0,1-3.84-3.39,9.75,9.75,0,0,1-1.41-5.34v-20.1a.69.69,0,0,1,.78-.78h2.7a.69.69,0,0,1,.78.78v18.84a7.53,7.53,0,0,0,1.92,5.43,6.88,6.88,0,0,0,5.22,2,7.28,7.28,0,0,0,5.43-2,7.36,7.36,0,0,0,2-5.4V718.93A.69.69,0,0,1,376.06,718.15Z"/><path class="cls-1" d="M393.13,746.74a11.27,11.27,0,0,1-4.23-6.09,27.55,27.55,0,0,1-.78-7.44,29.51,29.51,0,0,1,.78-7.32,10.91,10.91,0,0,1,4.2-6,12.38,12.38,0,0,1,7.44-2.25,13,13,0,0,1,7.59,2.22,10.08,10.08,0,0,1,4.17,5.52,13.23,13.23,0,0,1,.36,1.62v.12a.74.74,0,0,1-.72.78l-2.64.3h-.18q-.54,0-.72-.66a3.28,3.28,0,0,0-.12-.72,6.74,6.74,0,0,0-2.64-3.87,8.2,8.2,0,0,0-5.1-1.59,7.82,7.82,0,0,0-5,1.59,7.27,7.27,0,0,0-2.61,4.23,27.28,27.28,0,0,0-.54,6.06,26.66,26.66,0,0,0,.54,6.12,7.3,7.3,0,0,0,2.61,4.29,7.82,7.82,0,0,0,5,1.59,8.46,8.46,0,0,0,5.07-1.53,6.21,6.21,0,0,0,2.61-3.87.67.67,0,0,0,.06-.3l.06-.06q.06-.78.9-.66l2.58.42a.76.76,0,0,1,.72.9l-.24,1a9.5,9.5,0,0,1-4.14,5.64,13.41,13.41,0,0,1-7.62,2.16A12.25,12.25,0,0,1,393.13,746.74Z"/><path class="cls-1" d="M440.47,720.55a10.16,10.16,0,0,1,2.85,7.56v19.62a.69.69,0,0,1-.78.78h-2.7a.69.69,0,0,1-.78-.78V729a7.53,7.53,0,0,0-2-5.43,6.82,6.82,0,0,0-5.16-2.07,7.47,7.47,0,0,0-5.07,1.74,6.74,6.74,0,0,0-2.31,4.56v20a.69.69,0,0,1-.78.78h-2.7a.69.69,0,0,1-.78-.78V707.29a.69.69,0,0,1,.78-.78h2.7a.69.69,0,0,1,.78.78v13.86a.32.32,0,0,0,.12.27q.12.09.18-.09,2.64-3.6,8-3.6A10.32,10.32,0,0,1,440.47,720.55Z"/><path class="cls-1" d="M468.79,746.77a11.43,11.43,0,0,1-4.29-6.12,26.16,26.16,0,0,1-.84-7.38,27.79,27.79,0,0,1,.78-7.32,11.43,11.43,0,0,1,4.29-6.06,12.56,12.56,0,0,1,7.53-2.22,12.36,12.36,0,0,1,7.41,2.22,11.12,11.12,0,0,1,4.23,6,27,27,0,0,1,.84,7.38,26.16,26.16,0,0,1-.84,7.38,11.43,11.43,0,0,1-4.29,6.12,12.26,12.26,0,0,1-7.35,2.22A12.46,12.46,0,0,1,468.79,746.77Zm12.39-3.09a7.82,7.82,0,0,0,2.76-4.29,27.44,27.44,0,0,0,.48-6.06,26,26,0,0,0-.48-6.06,7.46,7.46,0,0,0-2.73-4.29,8.08,8.08,0,0,0-5.07-1.59,7.63,7.63,0,0,0-7.68,5.88,38.49,38.49,0,0,0,0,12.12,7.46,7.46,0,0,0,2.73,4.29,8.08,8.08,0,0,0,5.07,1.59A7.76,7.76,0,0,0,481.18,743.68Z"/><path class="cls-1" d="M504.52,711.7q-1.2,1.47-1.2,5v1.14a.27.27,0,0,0,.3.3h6.48a.69.69,0,0,1,.78.78v2.34a.69.69,0,0,1-.78.78h-6.48a.27.27,0,0,0-.3.3v25.38a.69.69,0,0,1-.78.78H499.9a.69.69,0,0,1-.78-.78V722.35a.27.27,0,0,0-.3-.3H495a.69.69,0,0,1-.78-.78v-2.34a.69.69,0,0,1,.78-.78h3.78a.27.27,0,0,0,.3-.3v-1.38a16.4,16.4,0,0,1,.84-5.85,5.64,5.64,0,0,1,2.91-3.12,13.71,13.71,0,0,1,5.79-1h1.56a.69.69,0,0,1,.78.78v2.16a.69.69,0,0,1-.78.78H509Q505.72,710.23,504.52,711.7Z"/><path class="cls-1" d="M534.43,746.74a11.27,11.27,0,0,1-4.23-6.09,27.55,27.55,0,0,1-.78-7.44,29.51,29.51,0,0,1,.78-7.32,10.91,10.91,0,0,1,4.2-6,12.38,12.38,0,0,1,7.44-2.25,13,13,0,0,1,7.59,2.22,10.08,10.08,0,0,1,4.17,5.52A13.23,13.23,0,0,1,554,727v.12a.74.74,0,0,1-.72.78l-2.64.3h-.18q-.54,0-.72-.66a3.28,3.28,0,0,0-.12-.72,6.74,6.74,0,0,0-2.64-3.87,8.2,8.2,0,0,0-5.1-1.59,7.82,7.82,0,0,0-5,1.59,7.27,7.27,0,0,0-2.61,4.23,27.28,27.28,0,0,0-.54,6.06,26.66,26.66,0,0,0,.54,6.12,7.3,7.3,0,0,0,2.61,4.29,7.82,7.82,0,0,0,5,1.59,8.48,8.48,0,0,0,5.07-1.53,6.21,6.21,0,0,0,2.61-3.87.67.67,0,0,0,.06-.3l.06-.06q.06-.78.9-.66l2.58.42a.76.76,0,0,1,.72.9l-.24,1a9.5,9.5,0,0,1-4.14,5.64,13.41,13.41,0,0,1-7.62,2.16A12.25,12.25,0,0,1,534.43,746.74Z"/><path class="cls-1" d="M580.45,720.43a9.52,9.52,0,0,1,3,7.32v20a.7.7,0,0,1-.79.78h-2.69a.69.69,0,0,1-.78-.78v-2.16a.24.24,0,0,0-.12-.24c-.08,0-.16,0-.25.12a10.3,10.3,0,0,1-4,2.64,15.22,15.22,0,0,1-5.31.9,11.36,11.36,0,0,1-7.06-2.16c-1.9-1.44-2.84-3.64-2.84-6.6a8.6,8.6,0,0,1,3.26-7.11c2.18-1.74,5.22-2.61,9.1-2.61h7a.27.27,0,0,0,.3-.3V728a6.66,6.66,0,0,0-1.71-4.83c-1.15-1.18-2.91-1.77-5.32-1.77a8.81,8.81,0,0,0-4.61,1.08,4.71,4.71,0,0,0-2.28,3,.71.71,0,0,1-.9.6l-2.94-.36c-.52-.08-.77-.3-.72-.66a7.89,7.89,0,0,1,3.69-5.34,13.68,13.68,0,0,1,7.71-2C575.68,717.67,578.46,718.59,580.45,720.43Zm-3.91,23.13a5.48,5.48,0,0,0,2.62-4.77v-4.62a.27.27,0,0,0-.3-.3h-6.31a11.15,11.15,0,0,0-6.35,1.62,5.15,5.15,0,0,0-2.41,4.5,4.62,4.62,0,0,0,1.87,4,7.85,7.85,0,0,0,4.74,1.35A10.68,10.68,0,0,0,576.54,743.56Z"/><path class="cls-1" d="M592.23,747.73V707.29a.69.69,0,0,1,.78-.78h2.7a.69.69,0,0,1,.78.78v40.44a.69.69,0,0,1-.78.78H593A.69.69,0,0,1,592.23,747.73Z"/><path class="cls-1" d="M606.39,711.82a3,3,0,0,1-.9-2.25,2.89,2.89,0,0,1,.9-2.22,3.68,3.68,0,0,1,4.68,0,2.89,2.89,0,0,1,.9,2.22,3,3,0,0,1-.9,2.25,3.58,3.58,0,0,1-4.68,0Zm.24,35.91v-28.8a.69.69,0,0,1,.78-.78h2.7a.69.69,0,0,1,.78.78v28.8a.69.69,0,0,1-.78.78h-2.7A.69.69,0,0,1,606.63,747.73Z"/><path class="cls-1" d="M628.35,711.7q-1.2,1.47-1.2,5v1.14a.27.27,0,0,0,.3.3h6.48a.69.69,0,0,1,.78.78v2.34a.69.69,0,0,1-.78.78h-6.48a.27.27,0,0,0-.3.3v25.38a.69.69,0,0,1-.78.78h-2.64a.69.69,0,0,1-.78-.78V722.35a.27.27,0,0,0-.3-.3h-3.78a.69.69,0,0,1-.78-.78v-2.34a.69.69,0,0,1,.78-.78h3.78a.27.27,0,0,0,.3-.3v-1.38a16.4,16.4,0,0,1,.84-5.85,5.64,5.64,0,0,1,2.91-3.12,13.71,13.71,0,0,1,5.79-1h1.56a.69.69,0,0,1,.78.78v2.16a.69.69,0,0,1-.78.78h-1.2Q629.55,710.23,628.35,711.7Z"/><path class="cls-1" d="M643.56,746.77a11.43,11.43,0,0,1-4.29-6.12,26.16,26.16,0,0,1-.84-7.38,27.79,27.79,0,0,1,.78-7.32,11.43,11.43,0,0,1,4.29-6.06,12.56,12.56,0,0,1,7.53-2.22,12.36,12.36,0,0,1,7.41,2.22,11.12,11.12,0,0,1,4.23,6,27,27,0,0,1,.84,7.38,26.16,26.16,0,0,1-.84,7.38,11.43,11.43,0,0,1-4.29,6.12A12.26,12.26,0,0,1,651,749,12.46,12.46,0,0,1,643.56,746.77ZM656,743.68a7.82,7.82,0,0,0,2.76-4.29,27.44,27.44,0,0,0,.48-6.06,26,26,0,0,0-.48-6.06A7.46,7.46,0,0,0,656,723a8.08,8.08,0,0,0-5.07-1.59,7.63,7.63,0,0,0-7.68,5.88,38.49,38.49,0,0,0,0,12.12,7.46,7.46,0,0,0,2.73,4.29,8.08,8.08,0,0,0,5.07,1.59A7.76,7.76,0,0,0,656,743.68Z"/><path class="cls-1" d="M687.69,718.57a.72.72,0,0,1,.42,1l-.6,2.64q-.18.72-1,.48a9,9,0,0,0-2.94-.3,7.15,7.15,0,0,0-5.16,2.31,7.82,7.82,0,0,0-2,5.55v17.52a.69.69,0,0,1-.78.78h-2.7a.69.69,0,0,1-.78-.78v-28.8a.69.69,0,0,1,.78-.78h2.7a.69.69,0,0,1,.78.78v3.36q0,.24.09.27t.21-.15a9.43,9.43,0,0,1,3.21-3.36,8.35,8.35,0,0,1,4.47-1.2A6.83,6.83,0,0,1,687.69,718.57Z"/><path class="cls-1" d="M714.18,720.55a10.16,10.16,0,0,1,2.85,7.56v19.62a.69.69,0,0,1-.78.78h-2.7a.69.69,0,0,1-.78-.78V729a7.53,7.53,0,0,0-2-5.43,6.82,6.82,0,0,0-5.16-2.07,7.47,7.47,0,0,0-5.07,1.74,6.74,6.74,0,0,0-2.31,4.56v20a.69.69,0,0,1-.78.78h-2.7a.69.69,0,0,1-.78-.78v-28.8a.69.69,0,0,1,.78-.78h2.7a.69.69,0,0,1,.78.78v2.22a.32.32,0,0,0,.12.27q.12.09.18-.09,2.64-3.6,8-3.6A10.32,10.32,0,0,1,714.18,720.55Z"/><path class="cls-1" d="M726.57,711.82a3,3,0,0,1-.9-2.25,2.89,2.89,0,0,1,.9-2.22,3.68,3.68,0,0,1,4.68,0,2.89,2.89,0,0,1,.9,2.22,3,3,0,0,1-.9,2.25,3.58,3.58,0,0,1-4.68,0Zm.24,35.91v-28.8a.69.69,0,0,1,.78-.78h2.7a.69.69,0,0,1,.78.78v28.8a.69.69,0,0,1-.78.78h-2.7A.69.69,0,0,1,726.81,747.73Z"/><path class="cls-1" d="M759.9,720.43a9.52,9.52,0,0,1,3,7.32v20a.69.69,0,0,1-.78.78h-2.7a.69.69,0,0,1-.78-.78v-2.16a.24.24,0,0,0-.12-.24q-.12-.06-.24.12a10.34,10.34,0,0,1-4,2.64,15.18,15.18,0,0,1-5.31.9,11.33,11.33,0,0,1-7-2.16q-2.85-2.16-2.85-6.6a8.61,8.61,0,0,1,3.27-7.11q3.27-2.61,9.09-2.61h7a.27.27,0,0,0,.3-.3V728a6.66,6.66,0,0,0-1.71-4.83q-1.71-1.77-5.31-1.77a8.88,8.88,0,0,0-4.62,1.08,4.75,4.75,0,0,0-2.28,3,.71.71,0,0,1-.9.6l-2.94-.36q-.78-.12-.72-.66a8,8,0,0,1,3.69-5.34,13.7,13.7,0,0,1,7.71-2Q756.93,717.67,759.9,720.43ZM756,743.56a5.49,5.49,0,0,0,2.61-4.77v-4.62a.27.27,0,0,0-.3-.3H752a11.19,11.19,0,0,0-6.36,1.62,5.14,5.14,0,0,0-2.4,4.5,4.62,4.62,0,0,0,1.86,4,7.87,7.87,0,0,0,4.74,1.35A10.69,10.69,0,0,0,756,743.56Z"/></g></svg>