<svg id="Ebene_1" data-name="Ebene 1" xmlns="http://www.w3.org/2000/svg" viewBox="0 0 595.28 255.12"><defs><style>.cls-1{fill:#00ebb6;}.cls-2{fill:#00685e;}.cls-3{fill:#fff;}</style></defs><title>Zeichenfläche 1 Kopie 4</title><rect class="cls-1" x="-0.05" y="0.5" width="594.55" height="254"/><path class="cls-1" d="M594,1V254H.45V1H594m1-1H-.55V255H595V0Z"/><path class="cls-2" d="M58.28,33.76H59a.36.36,0,0,1,.4.4v34.2a.35.35,0,0,1-.4.4h-.7a.35.35,0,0,1-.4-.4V52.06a.13.13,0,0,0-.15-.15H38.88a.13.13,0,0,0-.15.15v16.3a.35.35,0,0,1-.4.4h-.7a.35.35,0,0,1-.4-.4V34.16a.35.35,0,0,1,.4-.4h.7a.36.36,0,0,1,.4.4v16.2a.13.13,0,0,0,.15.15H57.73a.13.13,0,0,0,.15-.15V34.16A.35.35,0,0,1,58.28,33.76Z"/><path class="cls-2" d="M69.7,37.46a1.58,1.58,0,0,1-.52-1.2,1.46,1.46,0,0,1,.52-1.12A1.83,1.83,0,0,1,71,34.66a1.81,1.81,0,0,1,1.25.45,1.5,1.5,0,0,1,.5,1.15,1.64,1.64,0,0,1-.5,1.2A1.68,1.68,0,0,1,71,38,1.76,1.76,0,0,1,69.7,37.46Zm.53,30.9V44.11a.35.35,0,0,1,.4-.4h.7a.36.36,0,0,1,.4.4V68.36a.35.35,0,0,1-.4.4h-.7A.35.35,0,0,1,70.23,68.36Z"/><path class="cls-2" d="M97.68,43.71h.7a.36.36,0,0,1,.4.4v24.5q0,5.2-3,7.78t-9,2.37a.35.35,0,0,1-.4-.4l0-.65a.35.35,0,0,1,.4-.4q5.4.15,8-2t2.55-6.65v-3.5c0-.06,0-.1-.08-.1a.17.17,0,0,0-.12,0,7.69,7.69,0,0,1-2.9,3,8.5,8.5,0,0,1-4.35,1.07,9,9,0,0,1-5.63-1.77,8.36,8.36,0,0,1-3.07-4.78,25.48,25.48,0,0,1-.55-6.25,26.76,26.76,0,0,1,.55-6.45,8.6,8.6,0,0,1,3.05-4.72,8.71,8.71,0,0,1,5.6-1.83,8.8,8.8,0,0,1,4.37,1,7.49,7.49,0,0,1,2.93,3,.13.13,0,0,0,.12,0s.08,0,.08-.1V44.11A.35.35,0,0,1,97.68,43.71Zm-.45,16.2c0-.76,0-2,0-3.65s0-2.88,0-3.65-.09-1.43-.15-2a6.88,6.88,0,0,0-7.1-5.9,7.29,7.29,0,0,0-4.83,1.65,7.84,7.84,0,0,0-2.62,4.25,24.91,24.91,0,0,0-.45,5.55,24.17,24.17,0,0,0,.45,5.7A7.38,7.38,0,0,0,90,67.76a6.88,6.88,0,0,0,4.82-1.7,7,7,0,0,0,2.28-4.2Q97.17,61.07,97.23,59.91Z"/><path class="cls-2" d="M123.08,45.69a8.18,8.18,0,0,1,2.35,6.07v16.6a.35.35,0,0,1-.4.4h-.7a.35.35,0,0,1-.4-.4V52a7.13,7.13,0,0,0-2-5.22,6.94,6.94,0,0,0-5.15-2,7.42,7.42,0,0,0-5.4,2,6.85,6.85,0,0,0-2,5.17V68.36a.35.35,0,0,1-.4.4h-.7a.35.35,0,0,1-.4-.4V34.16a.35.35,0,0,1,.4-.4h.7a.36.36,0,0,1,.4.4v13a.17.17,0,0,0,0,.15s.06,0,.1,0a7.47,7.47,0,0,1,3-2.85,9.67,9.67,0,0,1,4.48-1A8.31,8.31,0,0,1,123.08,45.69Z"/><path class="cls-2" d="M138.63,68.41l-7-24.25v-.1c0-.23.1-.35.3-.35h.7a.44.44,0,0,1,.45.35l6.3,22.45a.11.11,0,0,0,.1,0,.14.14,0,0,0,.1,0L146,44.06a.43.43,0,0,1,.45-.35h.75a.44.44,0,0,1,.45.35l6.4,22.4a.11.11,0,0,0,.1.05.14.14,0,0,0,.1-.05l6.35-22.4a.43.43,0,0,1,.45-.35h.7a.3.3,0,0,1,.27.13.42.42,0,0,1,0,.32L155,68.41a.43.43,0,0,1-.45.35h-.75a.42.42,0,0,1-.45-.35l-6.45-21.85a.19.19,0,0,0-.1-.05.14.14,0,0,0-.1.05l-6.35,21.85a.43.43,0,0,1-.45.35h-.8A.42.42,0,0,1,138.63,68.41Z"/><path class="cls-2" d="M182.8,45.54a8.57,8.57,0,0,1,2.08,6.07V68.36a.35.35,0,0,1-.4.4h-.7a.35.35,0,0,1-.4-.4V65.61c0-.06,0-.1-.08-.1a.17.17,0,0,0-.12,0,7.93,7.93,0,0,1-3.48,2.68,12.5,12.5,0,0,1-4.87.92,9.6,9.6,0,0,1-5.75-1.67,6,6,0,0,1-2.35-5.23,6.72,6.72,0,0,1,2.72-5.67A12.2,12.2,0,0,1,177,54.51h6.25a.13.13,0,0,0,.15-.15V51.51a7.07,7.07,0,0,0-1.7-4.95q-1.71-1.85-5.35-1.85a8.53,8.53,0,0,0-4.65,1.18,4.74,4.74,0,0,0-2.25,3.22c-.07.27-.22.39-.45.35l-.75-.15c-.27-.06-.39-.18-.35-.35a6.25,6.25,0,0,1,2.8-4.1,10.16,10.16,0,0,1,5.8-1.55C179.31,43.31,181.42,44.06,182.8,45.54Zm-2,20.62a5.26,5.26,0,0,0,2.53-4.65V56a.13.13,0,0,0-.15-.15h-6.3a10.77,10.77,0,0,0-6.3,1.68,5.38,5.38,0,0,0-2.4,4.67,4.92,4.92,0,0,0,1.87,4.18,7.76,7.76,0,0,0,4.83,1.42A10.58,10.58,0,0,0,180.85,66.16Z"/><path class="cls-2" d="M191.53,78.36v-.55c0-.26.11-.4.35-.4h.35a5.65,5.65,0,0,0,2.92-.7,5.16,5.16,0,0,0,1.78-2.32c.5-1.12,1.16-3,2-5.53a.08.08,0,0,0,0-.1.16.16,0,0,1,0-.1l-8.7-24.5,0-.15a.29.29,0,0,1,.1-.2.41.41,0,0,1,.3-.1h.7q.39,0,.45.3l7.9,22.55a.11.11,0,0,0,.1,0,.14.14,0,0,0,.1,0L207.58,44a.42.42,0,0,1,.45-.3h.7a.44.44,0,0,1,.32.13.26.26,0,0,1,0,.32l-9.7,27.55a24.65,24.65,0,0,1-2,4.58,4.89,4.89,0,0,1-2,2,7.58,7.58,0,0,1-3.07.5h-.35C191.64,78.76,191.53,78.63,191.53,78.36Z"/><path class="cls-2" d="M248,68.3l-1.4-4.65a.28.28,0,0,0-.3-.25H234a.27.27,0,0,0-.3.25l-1.4,4.65a1,1,0,0,1-1,.7h-5.8a.75.75,0,0,1-.65-.27.68.68,0,0,1-.05-.68L235.53,34.7a.93.93,0,0,1,.95-.7h7.35a1,1,0,0,1,.95.7l10.65,33.35a.78.78,0,0,1,0,.3.63.63,0,0,1-.2.48.86.86,0,0,1-.55.17h-5.8A.93.93,0,0,1,248,68.3ZM235.73,58h8.85c.2,0,.28-.12.25-.35l-4.5-15.25c0-.13-.1-.2-.18-.2s-.16.07-.22.2L235.48,57.6C235.44,57.83,235.53,58,235.73,58Z"/><path class="cls-2" d="M275.38,43.3h5.35a.75.75,0,0,1,.85.85v24a.75.75,0,0,1-.85.85h-5.35a.75.75,0,0,1-.85-.85V66.8c0-.13,0-.21-.13-.22a.2.2,0,0,0-.22.12q-1.95,2.65-6.15,2.65a8.77,8.77,0,0,1-6.25-2.3,8.38,8.38,0,0,1-2.45-6.45V44.15a.75.75,0,0,1,.85-.85h5.3a.75.75,0,0,1,.85.85v14.7a4.79,4.79,0,0,0,1.07,3.25,3.74,3.74,0,0,0,3,1.25,4,4,0,0,0,2.8-1,4.51,4.51,0,0,0,1.35-2.68V44.15A.75.75,0,0,1,275.38,43.3Z"/><path class="cls-2" d="M300.68,49h-4.5a.27.27,0,0,0-.3.3V59.6a3.65,3.65,0,0,0,.67,2.43,2.78,2.78,0,0,0,2.18.77h1.4a.75.75,0,0,1,.85.85V68a.84.84,0,0,1-.85.9c-1.27.07-2.19.1-2.75.1q-4.15,0-6.2-1.4c-1.37-.93-2.07-2.67-2.1-5.2V49.25a.27.27,0,0,0-.3-.3h-2.55a.75.75,0,0,1-.85-.85v-4a.75.75,0,0,1,.85-.85h2.55a.27.27,0,0,0,.3-.3V37.35a.75.75,0,0,1,.85-.85H295a.75.75,0,0,1,.85.85V43a.27.27,0,0,0,.3.3h4.5a.75.75,0,0,1,.85.85v4A.75.75,0,0,1,300.68,49Z"/><path class="cls-2" d="M309.58,67.2a11,11,0,0,1-4.1-6,17.71,17.71,0,0,1-.7-5.1,16.82,16.82,0,0,1,.75-5.3,10.75,10.75,0,0,1,4.12-5.8,12.2,12.2,0,0,1,7.23-2.1,11.72,11.72,0,0,1,7,2.1A10.92,10.92,0,0,1,328,50.75a16.89,16.89,0,0,1,.75,5.25,19.76,19.76,0,0,1-.65,5,11.23,11.23,0,0,1-11.25,8.35A11.89,11.89,0,0,1,309.58,67.2Zm10-4.85a5.66,5.66,0,0,0,1.65-2.75,13,13,0,0,0,.39-3.5,13.88,13.88,0,0,0-.39-3.55,5.34,5.34,0,0,0-1.65-2.65,4.36,4.36,0,0,0-2.85-.95,4.24,4.24,0,0,0-2.8.95,5.2,5.2,0,0,0-1.65,2.65,13.41,13.41,0,0,0-.4,3.55,13.17,13.17,0,0,0,.4,3.5A5.47,5.47,0,0,0,314,62.35a4.26,4.26,0,0,0,2.88,1A4.05,4.05,0,0,0,319.58,62.35Z"/><path class="cls-2" d="M357,56.05a18.08,18.08,0,0,1-.85,6,10.29,10.29,0,0,1-3.62,5.33,9.6,9.6,0,0,1-6,2,6.76,6.76,0,0,1-5.7-2.7.2.2,0,0,0-.22-.12c-.08,0-.13.09-.13.22v1.35a.75.75,0,0,1-.85.85h-5.35a.75.75,0,0,1-.84-.85V34.85a.75.75,0,0,1,.84-.85h5.35a.75.75,0,0,1,.85.85v10.3a.24.24,0,0,0,.13.25.18.18,0,0,0,.22-.1,7,7,0,0,1,5.7-2.45,9.56,9.56,0,0,1,5.93,1.9,10.48,10.48,0,0,1,3.62,5.1A17.42,17.42,0,0,1,357,56.05Zm-7.4.15A10.2,10.2,0,0,0,348.38,51a3.9,3.9,0,0,0-3.5-1.9,3.83,3.83,0,0,0-3.36,2,10.5,10.5,0,0,0-1,5.15,10.5,10.5,0,0,0,1,5,3.75,3.75,0,0,0,3.41,2.15,3.91,3.91,0,0,0,3.64-2.15A10.25,10.25,0,0,0,349.57,56.2Z"/><path class="cls-2" d="M377.22,44a9.58,9.58,0,0,1,4,3.07,7.19,7.19,0,0,1,1.42,4.35v16.7a.75.75,0,0,1-.85.85h-5.35a.75.75,0,0,1-.85-.85V67c0-.13,0-.21-.1-.22s-.15,0-.25.12q-2.3,2.55-6.85,2.55a9.56,9.56,0,0,1-6.2-1.9,6.8,6.8,0,0,1-2.35-5.6,7.18,7.18,0,0,1,2.7-6q2.7-2.12,7.7-2.12h5a.27.27,0,0,0,.3-.3v-1a3.28,3.28,0,0,0-1-2.57,4.29,4.29,0,0,0-3-.93,5.43,5.43,0,0,0-2.47.5,2.66,2.66,0,0,0-1.33,1.4.94.94,0,0,1-1,.65l-5.55-.7a1.3,1.3,0,0,1-.62-.22.48.48,0,0,1-.18-.48,6.71,6.71,0,0,1,1.73-3.7,9.68,9.68,0,0,1,3.9-2.57,14.91,14.91,0,0,1,5.37-.93A14.22,14.22,0,0,1,377.22,44Zm-3.15,19a3.56,3.56,0,0,0,1.5-3V58.3a.27.27,0,0,0-.3-.3h-3.55a6.41,6.41,0,0,0-3.55.85,2.73,2.73,0,0,0-1.3,2.4,2.58,2.58,0,0,0,1,2.13,4.05,4.05,0,0,0,2.57.77A5.79,5.79,0,0,0,374.07,63Z"/><path class="cls-2" d="M407.37,45.35A9,9,0,0,1,409.82,52V68.15A.75.75,0,0,1,409,69h-5.35a.75.75,0,0,1-.85-.85V53.45a4.71,4.71,0,0,0-1.1-3.25A3.73,3.73,0,0,0,398.72,49a3.91,3.91,0,0,0-3,1.25,4.64,4.64,0,0,0-1.15,3.25v14.7a.75.75,0,0,1-.85.85h-5.35a.75.75,0,0,1-.85-.85V34.85a.75.75,0,0,1,.85-.85h5.35a.75.75,0,0,1,.85.85v10.7c0,.13,0,.22.1.25s.14,0,.2-.1a7,7,0,0,1,6.05-2.8A8.72,8.72,0,0,1,407.37,45.35Z"/><path class="cls-2" d="M434.72,45.35A9,9,0,0,1,437.17,52V68.15a.75.75,0,0,1-.85.85H431a.75.75,0,0,1-.85-.85V53.45A4.71,4.71,0,0,0,429,50.2,3.73,3.73,0,0,0,426.07,49a3.91,3.91,0,0,0-3,1.25,4.64,4.64,0,0,0-1.15,3.25v14.7a.75.75,0,0,1-.85.85h-5.35a.75.75,0,0,1-.85-.85v-24a.75.75,0,0,1,.85-.85h5.35a.75.75,0,0,1,.85.85v1.4c0,.13,0,.22.1.25s.14,0,.2-.1a7,7,0,0,1,6-2.8A8.72,8.72,0,0,1,434.72,45.35Z"/><path class="cls-2" d="M57.18,144,55,137.45a.2.2,0,0,0-.2-.15H39.23a.19.19,0,0,0-.2.15L36.93,144a.63.63,0,0,1-.65.5h-1.6a.58.58,0,0,1-.45-.17.55.55,0,0,1,0-.53L45.28,110a.63.63,0,0,1,.65-.5h2.15a.63.63,0,0,1,.65.5l11.15,33.8a.62.62,0,0,1,0,.25c0,.3-.19.45-.55.45H57.83A.63.63,0,0,1,57.18,144Zm-17.33-9a.24.24,0,0,0,.18.07H54a.23.23,0,0,0,.17-.07.15.15,0,0,0,0-.18L47.13,113a.17.17,0,0,0-.15-.1.15.15,0,0,0-.15.1l-7,21.9A.14.14,0,0,0,39.85,135Z"/><path class="cls-2" d="M81.75,119.48a.58.58,0,0,1,.43-.18h1.4a.58.58,0,0,1,.42.18.54.54,0,0,1,.18.42v24a.58.58,0,0,1-.18.43.61.61,0,0,1-.42.17h-1.4a.61.61,0,0,1-.43-.17.57.57,0,0,1-.17-.43v-2.35c0-.1,0-.16-.1-.17s-.12,0-.15.12A6.78,6.78,0,0,1,78.5,144a9.49,9.49,0,0,1-4.17.85,8.83,8.83,0,0,1-6.15-2.2,7.7,7.7,0,0,1-2.45-6.05V119.9a.54.54,0,0,1,.17-.42.58.58,0,0,1,.43-.18h1.4a.58.58,0,0,1,.42.18.54.54,0,0,1,.18.42v16a6.55,6.55,0,0,0,1.77,4.8,6.34,6.34,0,0,0,4.73,1.8,6.68,6.68,0,0,0,4.9-1.83,6.4,6.4,0,0,0,1.85-4.77v-16A.54.54,0,0,1,81.75,119.48Z"/><path class="cls-2" d="M103.2,121.38a.61.61,0,0,1-.42.17H97a.18.18,0,0,0-.2.2V137.5A4.63,4.63,0,0,0,98,141.08a5.49,5.49,0,0,0,3.7,1h1a.58.58,0,0,1,.42.18.54.54,0,0,1,.18.42v1.15a.53.53,0,0,1-.6.6l-1.4.05a8.65,8.65,0,0,1-5.25-1.35q-1.8-1.35-1.85-5V121.75a.18.18,0,0,0-.2-.2h-2.9a.61.61,0,0,1-.43-.17.57.57,0,0,1-.17-.43v-1a.54.54,0,0,1,.17-.42.58.58,0,0,1,.43-.18H94a.18.18,0,0,0,.2-.2v-5.6a.54.54,0,0,1,.17-.42.58.58,0,0,1,.43-.18h1.4a.58.58,0,0,1,.42.18.54.54,0,0,1,.18.42v5.6a.18.18,0,0,0,.2.2h5.75a.58.58,0,0,1,.42.18.54.54,0,0,1,.18.42v1A.58.58,0,0,1,103.2,121.38Z"/><path class="cls-2" d="M113.1,143.05a9.17,9.17,0,0,1-3.37-5,23.64,23.64,0,0,1-.6-6.25,26.77,26.77,0,0,1,.55-6.2,9,9,0,0,1,3.4-4.92,10.82,10.82,0,0,1,12.07,0,8.89,8.89,0,0,1,3.38,4.9,25.75,25.75,0,0,1,.55,6.2,26.05,26.05,0,0,1-.55,6.25,8.87,8.87,0,0,1-3.38,5,9.92,9.92,0,0,1-6,1.85A9.81,9.81,0,0,1,113.1,143.05Zm10.55-2a6.63,6.63,0,0,0,2.43-3.9,30.26,30.26,0,0,0,.3-5.3,29.25,29.25,0,0,0-.3-5.3,6.63,6.63,0,0,0-2.43-3.9,7.22,7.22,0,0,0-4.57-1.45,7.12,7.12,0,0,0-4.55,1.45,6.59,6.59,0,0,0-2.4,3.9,29.25,29.25,0,0,0-.3,5.3,29.25,29.25,0,0,0,.3,5.3,6.59,6.59,0,0,0,2.4,3.9,7.89,7.89,0,0,0,9.12,0Z"/><path class="cls-2" d="M140,143.88a7.77,7.77,0,0,1-3.22-2.38,5.29,5.29,0,0,1-1.16-3.3v-.55a.54.54,0,0,1,.18-.42.58.58,0,0,1,.43-.18h1.39a.64.64,0,0,1,.43.15.45.45,0,0,1,.18.35v.55a3.87,3.87,0,0,0,1.82,3.15,7.68,7.68,0,0,0,4.68,1.35,7.34,7.34,0,0,0,4.57-1.35,4.09,4.09,0,0,0,1.78-3.35,3.12,3.12,0,0,0-.9-2.3,6,6,0,0,0-2.15-1.37c-.84-.32-2.07-.73-3.7-1.23a41.29,41.29,0,0,1-4.5-1.6,7.94,7.94,0,0,1-2.88-2.12,5.19,5.19,0,0,1-1.17-3.48,5.8,5.8,0,0,1,2.42-4.88,10.38,10.38,0,0,1,6.38-1.82,11.58,11.58,0,0,1,4.67.88,7.56,7.56,0,0,1,3.15,2.37,5.52,5.52,0,0,1,1.13,3.4v0a.58.58,0,0,1-.18.43.61.61,0,0,1-.42.17h-1.35a.83.83,0,0,1-.43-.1.28.28,0,0,1-.17-.25v-.3a3.78,3.78,0,0,0-1.78-3.17,7.82,7.82,0,0,0-4.67-1.28,7.71,7.71,0,0,0-4.5,1.18,3.65,3.65,0,0,0-1.7,3.17,3.1,3.1,0,0,0,1.57,2.85,22.88,22.88,0,0,0,4.93,1.95A43.47,43.47,0,0,1,149.5,132a8.26,8.26,0,0,1,3,2.12,5.21,5.21,0,0,1,1.25,3.6,6.17,6.17,0,0,1-2.45,5.08,10.26,10.26,0,0,1-6.5,1.92A12.28,12.28,0,0,1,140,143.88Z"/><path class="cls-2" d="M171.15,121.38a.61.61,0,0,1-.42.17H165a.18.18,0,0,0-.21.2V137.5a4.63,4.63,0,0,0,1.16,3.58,5.48,5.48,0,0,0,3.69,1h1.06a.58.58,0,0,1,.42.18.54.54,0,0,1,.17.42v1.15a.52.52,0,0,1-.59.6l-1.41.05a8.7,8.7,0,0,1-5.25-1.35c-1.19-.9-1.81-2.55-1.84-5V121.75a.18.18,0,0,0-.2-.2h-2.9a.61.61,0,0,1-.43-.17.57.57,0,0,1-.17-.43v-1a.54.54,0,0,1,.17-.42.58.58,0,0,1,.43-.18H162a.18.18,0,0,0,.2-.2v-5.6a.54.54,0,0,1,.17-.42.58.58,0,0,1,.42-.18h1.41a.58.58,0,0,1,.42.18.54.54,0,0,1,.17.42v5.6a.18.18,0,0,0,.21.2h5.75a.58.58,0,0,1,.42.18.54.54,0,0,1,.18.42v1A.58.58,0,0,1,171.15,121.38Z"/><path class="cls-2" d="M191.12,119.65a.56.56,0,0,1,.3.75l-.4,1.45c-.1.4-.35.52-.75.35a7.1,7.1,0,0,0-2.39-.3,6,6,0,0,0-4.63,2.13,7.38,7.38,0,0,0-1.83,5.07v14.8a.57.57,0,0,1-.17.43.61.61,0,0,1-.43.17h-1.44a.61.61,0,0,1-.43-.17.58.58,0,0,1-.18-.43v-24a.54.54,0,0,1,.18-.42.58.58,0,0,1,.43-.18h1.44a.58.58,0,0,1,.43.18.54.54,0,0,1,.17.42v3.3c0,.1,0,.16.08.18s.09,0,.12-.13a8.18,8.18,0,0,1,2.73-3,7,7,0,0,1,3.92-1.1A7.14,7.14,0,0,1,191.12,119.65Z"/><path class="cls-2" d="M211.73,121.17a8.25,8.25,0,0,1,2.3,6.13v16.6a.58.58,0,0,1-.18.43.61.61,0,0,1-.42.17H212a.61.61,0,0,1-.43-.17.57.57,0,0,1-.17-.43v-2.15a.16.16,0,0,0-.08-.15c-.05,0-.11,0-.18.05a8,8,0,0,1-3.44,2.43,12.77,12.77,0,0,1-4.6.82,9.53,9.53,0,0,1-5.85-1.73,6.2,6.2,0,0,1-2.35-5.37,7,7,0,0,1,2.74-5.85,12,12,0,0,1,7.56-2.15h6a.18.18,0,0,0,.2-.2v-2.25a6.21,6.21,0,0,0-1.55-4.47c-1-1.09-2.65-1.63-4.85-1.63a7.78,7.78,0,0,0-4.2,1,4.27,4.27,0,0,0-2.05,2.77c-.11.4-.34.57-.7.5l-1.55-.2c-.44-.07-.62-.25-.55-.55a6.38,6.38,0,0,1,2.95-4.27A10.83,10.83,0,0,1,205,118.9Q209.43,118.9,211.73,121.17Zm-2.68,19.88a4.9,4.9,0,0,0,2.33-4.3V132.2a.18.18,0,0,0-.2-.2h-5.7a10,10,0,0,0-5.78,1.5,4.76,4.76,0,0,0-2.17,4.15,4.28,4.28,0,0,0,1.7,3.7,7.16,7.16,0,0,0,4.35,1.25A9.65,9.65,0,0,0,209.05,141.05Z"/><path class="cls-2" d="M237.7,109.67a.61.61,0,0,1,.42-.17h1.46a.61.61,0,0,1,.42.17.57.57,0,0,1,.17.43v33.8a.57.57,0,0,1-.17.43.61.61,0,0,1-.42.17h-1.46a.61.61,0,0,1-.42-.17.58.58,0,0,1-.18-.43v-2.35c0-.1,0-.16-.07-.17s-.11,0-.18.07a7.51,7.51,0,0,1-2.82,2.55,8.37,8.37,0,0,1-3.93.9,9.2,9.2,0,0,1-5.75-1.8,8.94,8.94,0,0,1-3.19-4.85A26.47,26.47,0,0,1,221,132c0-1.5,0-2.73.1-3.7a15.47,15.47,0,0,1,.4-2.6,8.78,8.78,0,0,1,3.18-4.92,9.26,9.26,0,0,1,5.82-1.83,8.49,8.49,0,0,1,3.93.88,7.27,7.27,0,0,1,2.82,2.52.1.1,0,0,0,.15,0,.15.15,0,0,0,.1-.15V110.1A.58.58,0,0,1,237.7,109.67Zm-.35,26c.08-.8.13-2,.13-3.75a38,38,0,0,0-.15-3.87,10.92,10.92,0,0,0-.5-2.23,5.94,5.94,0,0,0-6-4.6,6.54,6.54,0,0,0-4.06,1.28,6.25,6.25,0,0,0-2.29,3.27,8.71,8.71,0,0,0-.63,2.25,29,29,0,0,0-.18,3.85,31.73,31.73,0,0,0,.16,3.68,11.48,11.48,0,0,0,.5,2.27,6,6,0,0,0,2.29,3.4,6.85,6.85,0,0,0,4.21,1.3,5.94,5.94,0,0,0,3.92-1.3,6.42,6.42,0,0,0,2.13-3.4A8.85,8.85,0,0,0,237.35,135.7Z"/><path class="cls-2" d="M263.92,121.17a8.22,8.22,0,0,1,2.31,6.13v16.6a.58.58,0,0,1-.18.43.61.61,0,0,1-.43.17h-1.45a.61.61,0,0,1-.42-.17.58.58,0,0,1-.18-.43v-2.15a.16.16,0,0,0-.07-.15c-.05,0-.11,0-.18.05a8,8,0,0,1-3.44,2.43,12.78,12.78,0,0,1-4.61.82,9.57,9.57,0,0,1-5.85-1.73,6.22,6.22,0,0,1-2.35-5.37,7,7,0,0,1,2.75-5.85,12,12,0,0,1,7.56-2.15h6c.13,0,.19-.07.19-.2v-2.25a6.17,6.17,0,0,0-1.55-4.47c-1-1.09-2.64-1.63-4.85-1.63a7.74,7.74,0,0,0-4.19,1,4.32,4.32,0,0,0-2.06,2.77c-.1.4-.33.57-.69.5l-1.56-.2c-.43-.07-.61-.25-.55-.55a6.45,6.45,0,0,1,2.95-4.27,10.89,10.89,0,0,1,6.16-1.63Q261.63,118.9,263.92,121.17Zm-2.67,19.88a4.89,4.89,0,0,0,2.32-4.3V132.2c0-.13-.06-.2-.19-.2h-5.71a10,10,0,0,0-5.77,1.5,4.76,4.76,0,0,0-2.17,4.15,4.3,4.3,0,0,0,1.69,3.7,7.2,7.2,0,0,0,4.35,1.25A9.66,9.66,0,0,0,261.25,141.05Z"/><path class="cls-2" d="M274.35,144.33a.58.58,0,0,1-.18-.43V110.1a.58.58,0,0,1,.18-.43.61.61,0,0,1,.42-.17h1.45a.61.61,0,0,1,.43.17.57.57,0,0,1,.17.43v33.8a.57.57,0,0,1-.17.43.61.61,0,0,1-.43.17h-1.45A.61.61,0,0,1,274.35,144.33Z"/><path class="cls-2" d="M299,141.48a6.5,6.5,0,0,0,2.6-3,.6.6,0,0,1,.8-.3l.9.35c.4.17.52.43.35.8a8.83,8.83,0,0,1-3.45,4.05,10.16,10.16,0,0,1-5.6,1.5,9.75,9.75,0,0,1-5.82-1.7,8.93,8.93,0,0,1-3.33-4.65,24.64,24.64,0,0,1-.7-6.7c0-1.63,0-2.87.08-3.7a14.17,14.17,0,0,1,.32-2.3,9,9,0,0,1,3.28-5,10.8,10.8,0,0,1,12.52.2,9.43,9.43,0,0,1,3.1,5.75,15.33,15.33,0,0,1,.28,2.08c.05.71.07,1.8.07,3.27,0,.43-.2.65-.6.65H287.52a.18.18,0,0,0-.2.2,24.78,24.78,0,0,0,.25,4.3,6.71,6.71,0,0,0,2.45,3.88,7.54,7.54,0,0,0,4.75,1.47A8.19,8.19,0,0,0,299,141.48ZM287.32,130.4a.18.18,0,0,0,.2.2h14a.18.18,0,0,0,.2-.2,20.76,20.76,0,0,0-.25-3.8,6.63,6.63,0,0,0-2.4-3.87,7.79,7.79,0,0,0-9-.06,6.4,6.4,0,0,0-2.3,3.78A23.3,23.3,0,0,0,287.32,130.4Z"/><path class="cls-2" d="M348.08,143.7l-1-3.6a.44.44,0,0,0-.45-.35h-10.4a.43.43,0,0,0-.45.35l-1,3.6a1,1,0,0,1-1,.8h-8.1a.85.85,0,0,1-.73-.3.87.87,0,0,1-.07-.8l10.4-33.1a1,1,0,0,1,1-.8h10.3a1,1,0,0,1,1.05.8L358,143.4a1.23,1.23,0,0,1,.05.35c0,.5-.29.75-.85.75h-8.1A1,1,0,0,1,348.08,143.7ZM338,132.2a.31.31,0,0,0,.35.35h6.2a.35.35,0,0,0,.3-.13.38.38,0,0,0,.05-.32l-3.2-11.55c0-.17-.11-.25-.23-.25s-.21.08-.27.25L338,132.1Z"/><path class="cls-2" d="M376.78,118.5h7.5a.84.84,0,0,1,1,1v24.1a.84.84,0,0,1-1,.95h-7.5a.84.84,0,0,1-.95-.95v-1.2q0-.25-.15-.3t-.3.15q-2,2.7-6.25,2.7a7.73,7.73,0,0,1-6.05-2.48,9.82,9.82,0,0,1-2.25-6.87v-16.1a.84.84,0,0,1,.95-1h7.5a.84.84,0,0,1,1,1v14a3.6,3.6,0,0,0,.77,2.42,2.52,2.52,0,0,0,2,.93,2.56,2.56,0,0,0,1.77-.65,3.29,3.29,0,0,0,1-1.75,2.27,2.27,0,0,0,.05-.5v-14.5A.84.84,0,0,1,376.78,118.5Z"/><path class="cls-2" d="M404.58,126h-3.8a.35.35,0,0,0-.4.4v7.4c0,1.67.6,2.5,1.8,2.5h1.65a.84.84,0,0,1,.95.95v6.05a.88.88,0,0,1-.9.95q-2,.15-3.6.15-4.56,0-6.7-1.4t-2.2-5.3V126.4a.35.35,0,0,0-.4-.4h-2.35a.84.84,0,0,1-.95-1v-5.6a.84.84,0,0,1,.95-1H391a.35.35,0,0,0,.4-.4v-5.65a.84.84,0,0,1,.95-1h7.1a.84.84,0,0,1,.95,1v5.65a.35.35,0,0,0,.4.4h3.8a.84.84,0,0,1,.95,1v5.6A.84.84,0,0,1,404.58,126Z"/><path class="cls-2" d="M412.25,142.35a12,12,0,0,1-4.33-6.9,15,15,0,0,1-.5-4A15.45,15.45,0,0,1,408,127a11.93,11.93,0,0,1,4.43-6.52,12.86,12.86,0,0,1,7.87-2.38,12.68,12.68,0,0,1,7.83,2.38,12,12,0,0,1,4.37,6.42,16.11,16.11,0,0,1,.6,4.45,18.17,18.17,0,0,1-.4,3.8,12.07,12.07,0,0,1-12.45,9.75A12.66,12.66,0,0,1,412.25,142.35ZM422.37,136a4.78,4.78,0,0,0,1.1-2.33,11.63,11.63,0,0,0-.05-4.55q-.75-3-3.15-2.95t-3.15,2.95a8.72,8.72,0,0,0-.25,2.3,11.25,11.25,0,0,0,.2,2.25q.75,3.19,3.2,3.2A2.71,2.71,0,0,0,422.37,136Z"/><path class="cls-2" d="M462.07,131.6A17.28,17.28,0,0,1,461,138a11.35,11.35,0,0,1-3.75,5,9.84,9.84,0,0,1-6.1,1.92,6.37,6.37,0,0,1-5.25-2.1c-.13-.13-.24-.17-.32-.13a.38.38,0,0,0-.13.33v9.55a.84.84,0,0,1-.95.95H437a.84.84,0,0,1-1-.95v-33.1a.84.84,0,0,1,1-1h7.5a.84.84,0,0,1,.95,1v1q0,.25.15.3c.1,0,.2,0,.3-.2a6.74,6.74,0,0,1,5.65-2.5,9.42,9.42,0,0,1,6,2.13,11.28,11.28,0,0,1,3.77,5.77A19.46,19.46,0,0,1,462.07,131.6Zm-9.85-.15a7.71,7.71,0,0,0-.75-3.65,2.93,2.93,0,0,0-5.3,0,7.57,7.57,0,0,0-.75,3.6,8,8,0,0,0,.8,3.85,2.86,2.86,0,0,0,2.6,1.55,2.79,2.79,0,0,0,2.65-1.65A8.17,8.17,0,0,0,452.22,131.45Z"/><path class="cls-2" d="M465.42,116a5.56,5.56,0,0,1,0-7.6,6,6,0,0,1,7.83,0,5.65,5.65,0,0,1,0,7.6,6,6,0,0,1-7.83,0Zm-.8,27.55v-24.1a.84.84,0,0,1,.95-1h7.5a.84.84,0,0,1,.95,1v24.1a.84.84,0,0,1-.95.95h-7.5A.84.84,0,0,1,464.62,143.55Z"/><path class="cls-2" d="M480.45,142.7a6.74,6.74,0,0,1-3.28-5.85v-.25a.84.84,0,0,1,.95-.95h7.1c.64,0,.95.08.95.25v.3a1.47,1.47,0,0,0,.88,1.3,4.57,4.57,0,0,0,2.27.5,4.07,4.07,0,0,0,1.78-.33,1,1,0,0,0-.13-1.89,19.09,19.09,0,0,0-2.85-.63c-1.26-.17-2.4-.37-3.4-.6a12.93,12.93,0,0,1-2.9-1.05,6.94,6.94,0,0,1-4.3-6.6,7.61,7.61,0,0,1,3.15-6.42,13.4,13.4,0,0,1,8.3-2.38,15.45,15.45,0,0,1,6.13,1.13,9.27,9.27,0,0,1,4.07,3.17,8,8,0,0,1,1.45,4.75c0,.37-.31.55-.95.55h-6.85a1.89,1.89,0,0,1-.7-.1c-.16-.07-.25-.13-.25-.2v-.25a1.47,1.47,0,0,0-.75-1.32,3.65,3.65,0,0,0-2-.48,4.06,4.06,0,0,0-1.87.38,1.13,1.13,0,0,0-.73,1c0,.53.32.9,1,1.1a21.27,21.27,0,0,0,3,.6l1.93.3a17.24,17.24,0,0,1,3.22.8,9.38,9.38,0,0,1,4.13,2.62,6.54,6.54,0,0,1,1.42,4.38,7,7,0,0,1-3.2,6.23q-3.19,2.11-8.65,2.12C485.61,144.9,482.63,144.17,480.45,142.7Z"/><path class="cls-2" d="M519.57,126h-3.8a.35.35,0,0,0-.4.4v7.4c0,1.67.6,2.5,1.8,2.5h1.65a.84.84,0,0,1,.95.95v6.05a.88.88,0,0,1-.9.95q-1.95.15-3.6.15-4.54,0-6.7-1.4t-2.2-5.3V126.4a.35.35,0,0,0-.4-.4h-2.35a.84.84,0,0,1-.95-1v-5.6a.84.84,0,0,1,.95-1H506a.35.35,0,0,0,.4-.4v-5.65a.84.84,0,0,1,.95-1h7.1a.84.84,0,0,1,1,1v5.65a.35.35,0,0,0,.4.4h3.8a.84.84,0,0,1,.95,1v5.6A.84.84,0,0,1,519.57,126Z"/><path class="cls-2" d="M540.62,119.25a11.11,11.11,0,0,1,4.5,3.15,6.68,6.68,0,0,1,1.65,4.35v16.8a.84.84,0,0,1-.95.95h-7.5a.84.84,0,0,1-1-.95v-.9q0-.26-.12-.3c-.09,0-.19,0-.33.15a5,5,0,0,1-2.35,1.83,10.64,10.64,0,0,1-3.75.57,10.08,10.08,0,0,1-6.45-1.87,6.62,6.62,0,0,1-2.35-5.48,6.93,6.93,0,0,1,2.68-5.85q2.67-2.05,7.77-2H537a.35.35,0,0,0,.4-.4v-.75a2.12,2.12,0,0,0-.77-1.7,3.16,3.16,0,0,0-2.08-.65,4.07,4.07,0,0,0-1.52.27,2.13,2.13,0,0,0-1,.73,2.57,2.57,0,0,1-.5.55.83.83,0,0,1-.6.1l-7.7-1c-.6-.07-.88-.32-.85-.75a6.84,6.84,0,0,1,1.83-4,11.2,11.2,0,0,1,4.27-2.85,15.93,15.93,0,0,1,5.9-1.05A16.48,16.48,0,0,1,540.62,119.25Zm-4.27,18.3a2.84,2.84,0,0,0,1-2.3v-.5a.35.35,0,0,0-.4-.4h-2.35c-2.1,0-3.15.68-3.15,2.05a1.9,1.9,0,0,0,.58,1.45,2.3,2.3,0,0,0,1.67.55A4,4,0,0,0,536.35,137.55Z"/><path class="cls-3" d="M41.59,84.93v.48c0,.12-.05.17-.17.17H38.93s-.07,0-.07.07v8c0,.12,0,.17-.17.17h-.58c-.12,0-.17,0-.17-.17v-8c0-.05,0-.07-.07-.07H35.48a.15.15,0,0,1-.17-.17v-.48a.15.15,0,0,1,.17-.17h5.94A.15.15,0,0,1,41.59,84.93Z"/><path class="cls-3" d="M47.56,87.81a2.15,2.15,0,0,1,.62,1.63v4.25c0,.12,0,.17-.17.17h-.58a.15.15,0,0,1-.17-.17V89.63a1.62,1.62,0,0,0-.43-1.18A1.48,1.48,0,0,0,45.71,88a1.63,1.63,0,0,0-1.1.38,1.48,1.48,0,0,0-.5,1v4.32c0,.12,0,.17-.17.17h-.58a.15.15,0,0,1-.17-.17V84.93a.15.15,0,0,1,.17-.17h.58a.15.15,0,0,1,.17.17v3a.05.05,0,0,0,0,0s0,0,0,0a2,2,0,0,1,1.74-.78A2.22,2.22,0,0,1,47.56,87.81Z"/><path class="cls-3" d="M50.25,85.91a.68.68,0,0,1,0-1,.69.69,0,0,1,.51-.19.68.68,0,0,1,.5.19.68.68,0,0,1,0,1,.68.68,0,0,1-.5.19A.69.69,0,0,1,50.25,85.91Zm0,7.78V87.45c0-.11.06-.16.17-.16h.59a.14.14,0,0,1,.16.16v6.24c0,.12,0,.17-.16.17h-.59A.15.15,0,0,1,50.3,93.69Z"/><path class="cls-3" d="M57.76,87.81a2.18,2.18,0,0,1,.61,1.63v4.25c0,.12,0,.17-.16.17h-.59a.15.15,0,0,1-.17-.17V89.63A1.62,1.62,0,0,0,57,88.45,1.47,1.47,0,0,0,55.9,88a1.61,1.61,0,0,0-1.09.38,1.44,1.44,0,0,0-.5,1v4.32a.15.15,0,0,1-.17.17h-.59a.15.15,0,0,1-.17-.17V87.45c0-.11.06-.16.17-.16h.59c.11,0,.17,0,.17.16v.49s0,0,0,0,0,0,0,0a2,2,0,0,1,1.74-.78A2.23,2.23,0,0,1,57.76,87.81Z"/><path class="cls-3" d="M35.64,169.69v-8.76a.15.15,0,0,1,.17-.17h.59c.11,0,.16.06.16.17V169a.06.06,0,0,0,.07.07h4.54a.15.15,0,0,1,.17.17v.46a.15.15,0,0,1-.17.17H35.81A.15.15,0,0,1,35.64,169.69Z"/><path class="cls-3" d="M42.9,161.91a.68.68,0,0,1,0-1,.66.66,0,0,1,.5-.19.69.69,0,0,1,.51.19.7.7,0,0,1,0,1,.69.69,0,0,1-.51.19A.66.66,0,0,1,42.9,161.91Zm.05,7.78v-6.24c0-.11,0-.16.17-.16h.58c.11,0,.17.05.17.16v6.24a.15.15,0,0,1-.17.17h-.58C43,169.86,43,169.81,43,169.69Z"/><path class="cls-3" d="M50.25,163.29h.59c.11,0,.17.05.17.16v6.19a2.58,2.58,0,0,1-.85,2.14,3.58,3.58,0,0,1-2.3.67h-.41a.16.16,0,0,1-.17-.18l0-.52c0-.13.06-.18.17-.16a3.14,3.14,0,0,0,2-.4,1.86,1.86,0,0,0,.61-1.56v-.46s0,0,0,0,0,0-.05,0a2,2,0,0,1-1.69.76,2.56,2.56,0,0,1-1.5-.45,2.16,2.16,0,0,1-.88-1.29,5.72,5.72,0,0,1-.16-1.59q0-.57,0-1a3.47,3.47,0,0,1,.14-.7,2.41,2.41,0,0,1,.85-1.25,2.27,2.27,0,0,1,1.46-.48,2.15,2.15,0,0,1,1.75.74s0,0,.05,0,0,0,0,0v-.45C50.08,163.34,50.14,163.29,50.25,163.29Zm-.18,4.1c0-.19,0-.46,0-.83s0-.74,0-.89a2.65,2.65,0,0,0-.06-.42A1.53,1.53,0,0,0,48.46,164a1.57,1.57,0,0,0-1,.35,1.85,1.85,0,0,0-.6.91,5,5,0,0,0-.13,1.3,4.69,4.69,0,0,0,.13,1.31,1.61,1.61,0,0,0,1.63,1.26,1.55,1.55,0,0,0,1-.35,1.52,1.52,0,0,0,.51-.89A3.23,3.23,0,0,0,50.07,167.39Z"/><path class="cls-3" d="M57.36,163.81a2.19,2.19,0,0,1,.62,1.63v4.25a.15.15,0,0,1-.17.17h-.59a.15.15,0,0,1-.17-.17v-4.06a1.62,1.62,0,0,0-.43-1.18,1.45,1.45,0,0,0-1.11-.45,1.62,1.62,0,0,0-1.1.38,1.44,1.44,0,0,0-.5,1v4.32a.15.15,0,0,1-.17.17h-.59a.15.15,0,0,1-.17-.17v-8.76a.15.15,0,0,1,.17-.17h.59a.15.15,0,0,1,.17.17v3a.08.08,0,0,0,0,.05s0,0,0,0a2,2,0,0,1,1.74-.78A2.23,2.23,0,0,1,57.36,163.81Z"/><path class="cls-3" d="M62.77,164.05H61.36s-.07,0-.07.07v3.79a1.13,1.13,0,0,0,.28.88,1.28,1.28,0,0,0,.88.26h.28c.12,0,.17,0,.17.16v.46a.16.16,0,0,1-.17.18h-.44a2.46,2.46,0,0,1-1.42-.35,1.51,1.51,0,0,1-.48-1.3v-4.08c0-.05,0-.07-.06-.07h-.74a.15.15,0,0,1-.17-.17v-.43c0-.11.06-.16.17-.16h.74s.06,0,.06-.07v-1.46c0-.11.06-.16.17-.16h.56c.11,0,.17.05.17.16v1.46a.06.06,0,0,0,.07.07h1.41c.12,0,.17.05.17.16v.43C62.94,164,62.89,164.05,62.77,164.05Z"/><path class="cls-3" d="M330.77,165.43a2.24,2.24,0,0,1,1.05.85,2.51,2.51,0,0,1,.35,1.35,2.3,2.3,0,0,1-.74,1.82,2.92,2.92,0,0,1-2,.65h-3.11a.15.15,0,0,1-.17-.17v-8.76a.15.15,0,0,1,.17-.17h3a3,3,0,0,1,2,.62,2.22,2.22,0,0,1,.72,1.76,2.12,2.12,0,0,1-.33,1.21,2.23,2.23,0,0,1-1,.77S330.72,165.41,330.77,165.43Zm-3.67-3.56V165s0,.06.07.06h2.2a1.87,1.87,0,0,0,1.3-.43,1.43,1.43,0,0,0,.49-1.14,1.55,1.55,0,0,0-.49-1.21,1.88,1.88,0,0,0-1.3-.44h-2.2S327.1,161.83,327.1,161.87Zm3.66,6.94a1.64,1.64,0,0,0,.49-1.26,1.69,1.69,0,0,0-.5-1.27,1.9,1.9,0,0,0-1.35-.47h-2.23a.06.06,0,0,0-.07.07v3.34s0,.06.07.06h2.29A1.76,1.76,0,0,0,330.76,168.81Z"/><path class="cls-3" d="M334.15,169.93v-8.76a.15.15,0,0,1,.17-.17h.58a.15.15,0,0,1,.17.17v8.76a.15.15,0,0,1-.17.17h-.58A.15.15,0,0,1,334.15,169.93Z"/><path class="cls-3" d="M341.25,164a2.05,2.05,0,0,1,.65,1.58v4.33a.15.15,0,0,1-.17.17h-.59c-.11,0-.16-.06-.16-.17v-.47a.05.05,0,0,0,0-.05s0,0-.05,0a2.31,2.31,0,0,1-.88.57,3.27,3.27,0,0,1-1.15.19,2.46,2.46,0,0,1-1.53-.46,1.7,1.7,0,0,1-.62-1.43,1.86,1.86,0,0,1,.71-1.54,3.06,3.06,0,0,1,2-.57h1.51s.07,0,.07-.06v-.49a1.41,1.41,0,0,0-.38-1,1.51,1.51,0,0,0-1.15-.39,1.9,1.9,0,0,0-1,.24,1,1,0,0,0-.49.65.16.16,0,0,1-.2.13l-.63-.08c-.12,0-.17-.06-.16-.14a1.71,1.71,0,0,1,.8-1.16,3,3,0,0,1,1.67-.44A2.53,2.53,0,0,1,341.25,164Zm-.84,5a1.2,1.2,0,0,0,.57-1v-1s0-.06-.07-.06h-1.37a2.42,2.42,0,0,0-1.37.35,1.1,1.1,0,0,0-.52,1,1,1,0,0,0,.4.87,1.74,1.74,0,0,0,1,.29A2.36,2.36,0,0,0,340.41,169Z"/><path class="cls-3" d="M344.69,169.72a2.44,2.44,0,0,1-.92-1.32,6.07,6.07,0,0,1-.17-1.61,6.5,6.5,0,0,1,.17-1.59,2.35,2.35,0,0,1,.91-1.29,2.65,2.65,0,0,1,1.61-.49,2.86,2.86,0,0,1,1.65.48,2.19,2.19,0,0,1,.9,1.2c0,.12.06.23.08.35v0c0,.1-.05.15-.16.17l-.57.07h0c-.08,0-.13-.05-.16-.15a.5.5,0,0,0,0-.15,1.49,1.49,0,0,0-.57-.84,1.81,1.81,0,0,0-1.11-.35,1.69,1.69,0,0,0-1.08.35,1.59,1.59,0,0,0-.57.91,5.81,5.81,0,0,0-.12,1.32,5.58,5.58,0,0,0,.12,1.32,1.61,1.61,0,0,0,.57.93,1.69,1.69,0,0,0,1.08.35,1.84,1.84,0,0,0,1.1-.33,1.34,1.34,0,0,0,.57-.84s0,0,0-.07h0c0-.11.08-.16.2-.14l.56.09a.16.16,0,0,1,.15.19l-.05.22a2.07,2.07,0,0,1-.9,1.23,2.92,2.92,0,0,1-1.65.46A2.66,2.66,0,0,1,344.69,169.72Z"/><path class="cls-3" d="M350.57,169.93v-8.76a.15.15,0,0,1,.17-.17h.58a.15.15,0,0,1,.17.17v5.25a.06.06,0,0,0,0,.06s0,0,.05,0l2.72-2.85a.25.25,0,0,1,.2-.09h.69c.1,0,.15,0,.15.11a.34.34,0,0,1,0,.1l-1.61,1.78a.08.08,0,0,0,0,.09l1.95,4.31a.17.17,0,0,1,0,.07c0,.08-.05.12-.16.12h-.61a.19.19,0,0,1-.19-.13L353,166.21l0,0a.07.07,0,0,0-.06,0l-1.41,1.48a.23.23,0,0,0,0,.09v2.16a.15.15,0,0,1-.17.17h-.58A.15.15,0,0,1,350.57,169.93Z"/><path class="cls-3" d="M224.8,93.91a2.49,2.49,0,0,1-1.09-.86,2.2,2.2,0,0,1-.38-1.28v-.36a.15.15,0,0,1,.17-.17h.56a.15.15,0,0,1,.17.17v.31a1.42,1.42,0,0,0,.62,1.21,2.77,2.77,0,0,0,1.68.47,2.39,2.39,0,0,0,1.52-.42,1.39,1.39,0,0,0,.52-1.13,1.29,1.29,0,0,0-.24-.78,2.34,2.34,0,0,0-.74-.61,12.34,12.34,0,0,0-1.41-.66,14,14,0,0,1-1.52-.69,2.45,2.45,0,0,1-.87-.75,1.94,1.94,0,0,1-.33-1.16,2,2,0,0,1,.76-1.7,3.32,3.32,0,0,1,2.1-.6,3.48,3.48,0,0,1,2.26.67,2.18,2.18,0,0,1,.83,1.8v.24c0,.12,0,.17-.17.17h-.57a.15.15,0,0,1-.17-.17v-.19a1.53,1.53,0,0,0-.58-1.24,2.53,2.53,0,0,0-1.65-.48,2.26,2.26,0,0,0-1.41.38,1.28,1.28,0,0,0-.49,1.09,1.2,1.2,0,0,0,.24.77,1.93,1.93,0,0,0,.69.54c.3.15.75.35,1.37.59a12.44,12.44,0,0,1,1.53.73,2.9,2.9,0,0,1,.94.82,2,2,0,0,1,.35,1.19,2.13,2.13,0,0,1-.8,1.74,3.39,3.39,0,0,1-2.23.65A4.47,4.47,0,0,1,224.8,93.91Z"/><path class="cls-3" d="M234.81,93.14a1.6,1.6,0,0,0,.66-.7.13.13,0,0,1,.09-.09.12.12,0,0,1,.13,0l.38.21c.1.06.13.13.08.22a2.4,2.4,0,0,1-.94,1,2.72,2.72,0,0,1-1.48.38,2.65,2.65,0,0,1-1.53-.42,2.38,2.38,0,0,1-.9-1.2,5,5,0,0,1-.25-1.79c0-.38,0-.67,0-.9a2.88,2.88,0,0,1,.1-.61,2.35,2.35,0,0,1,.89-1.35,2.59,2.59,0,0,1,1.62-.51,2.53,2.53,0,0,1,1.77.58,2.77,2.77,0,0,1,.83,1.65,8,8,0,0,1,.08,1.3.15.15,0,0,1-.17.17H232a.06.06,0,0,0-.07.07,4.26,4.26,0,0,0,.08,1,1.6,1.6,0,0,0,.6.93,1.91,1.91,0,0,0,1.17.34A2,2,0,0,0,234.81,93.14Zm-2.2-4.58a1.47,1.47,0,0,0-.54.89,3.57,3.57,0,0,0-.11.88.06.06,0,0,0,.07.07h3.34s.06,0,.06-.07a4.49,4.49,0,0,0-.08-.83,1.61,1.61,0,0,0-.57-.93,1.72,1.72,0,0,0-1.1-.35A1.62,1.62,0,0,0,232.61,88.56Z"/><path class="cls-3" d="M246.38,88a2.19,2.19,0,0,1,.57,1.6v4.31a.15.15,0,0,1-.17.17h-.57a.15.15,0,0,1-.17-.17V89.8a1.58,1.58,0,0,0-.41-1.14,1.42,1.42,0,0,0-1.07-.42,1.53,1.53,0,0,0-1.11.41,1.51,1.51,0,0,0-.43,1.12v4.16c0,.11-.05.17-.16.17h-.59a.15.15,0,0,1-.17-.17V89.8a1.57,1.57,0,0,0-.4-1.14,1.43,1.43,0,0,0-1.08-.42,1.49,1.49,0,0,0-1.1.41,1.54,1.54,0,0,0-.41,1.12v4.16a.15.15,0,0,1-.17.17h-.58a.15.15,0,0,1-.17-.17V87.69a.15.15,0,0,1,.17-.17h.58a.15.15,0,0,1,.17.17v.46a.05.05,0,0,0,0,0s0,0,.05,0a1.69,1.69,0,0,1,.73-.56,2.57,2.57,0,0,1,1-.18,2.29,2.29,0,0,1,1.14.27,1.87,1.87,0,0,1,.73.77s.05.06.08,0a1.8,1.8,0,0,1,.8-.79,2.66,2.66,0,0,1,1.18-.26A2,2,0,0,1,246.38,88Z"/><path class="cls-3" d="M249,86.15a.64.64,0,0,1-.19-.49.62.62,0,0,1,.19-.48.81.81,0,0,1,1,0,.62.62,0,0,1,.19.48.64.64,0,0,1-.19.49.78.78,0,0,1-1,0Zm0,7.78V87.69a.15.15,0,0,1,.17-.17h.59a.15.15,0,0,1,.17.17v6.24a.15.15,0,0,1-.17.17h-.59A.15.15,0,0,1,249,93.93Z"/><path class="cls-3" d="M251.59,90.29v-.47a.15.15,0,0,1,.17-.17h3.77a.15.15,0,0,1,.17.17v.47a.15.15,0,0,1-.17.17h-3.77A.15.15,0,0,1,251.59,90.29Z"/><path class="cls-3" d="M262.46,90.81a5.88,5.88,0,0,1-.18,1.65,2.45,2.45,0,0,1-.85,1.28,2.5,2.5,0,0,1-1.53.46A2.2,2.2,0,0,1,259,94a1.94,1.94,0,0,1-.71-.59.06.06,0,0,0-.05,0,0,0,0,0,0,0,0v.49a.15.15,0,0,1-.17.17h-.58a.15.15,0,0,1-.17-.17V85.17a.15.15,0,0,1,.17-.17H258a.15.15,0,0,1,.17.17v3s0,0,0,0,0,0,.05,0a1.9,1.9,0,0,1,.71-.58,2.26,2.26,0,0,1,.94-.2,2.55,2.55,0,0,1,1.55.47,2.39,2.39,0,0,1,.85,1.31A5.84,5.84,0,0,1,262.46,90.81Zm-1,1a5.92,5.92,0,0,0,.06-1,5,5,0,0,0-.08-1,2.17,2.17,0,0,0-.22-.65,1.61,1.61,0,0,0-.55-.69,1.56,1.56,0,0,0-.9-.26,1.37,1.37,0,0,0-.85.27,1.42,1.42,0,0,0-.51.71,1.94,1.94,0,0,0-.18.63,6.5,6.5,0,0,0-.05,1,6.42,6.42,0,0,0,.05,1,2.18,2.18,0,0,0,.17.61,1.61,1.61,0,0,0,.52.73,1.37,1.37,0,0,0,.87.27,1.62,1.62,0,0,0,.94-.27,1.44,1.44,0,0,0,.55-.75A1.89,1.89,0,0,0,261.48,91.77Z"/><path class="cls-3" d="M265.2,93.72a2.44,2.44,0,0,1-.93-1.32,5.68,5.68,0,0,1-.19-1.6,6.16,6.16,0,0,1,.17-1.59,2.56,2.56,0,0,1,.93-1.31,2.73,2.73,0,0,1,1.63-.48,2.69,2.69,0,0,1,1.61.48,2.41,2.41,0,0,1,.92,1.3,5.93,5.93,0,0,1,.18,1.6,5.73,5.73,0,0,1-.18,1.6,2.54,2.54,0,0,1-.93,1.32,2.92,2.92,0,0,1-3.21,0Zm2.68-.67a1.76,1.76,0,0,0,.6-.93,5.87,5.87,0,0,0,.1-1.31,5.64,5.64,0,0,0-.1-1.31,1.64,1.64,0,0,0-.59-.93,1.76,1.76,0,0,0-1.1-.35,1.7,1.7,0,0,0-1.07.35,1.76,1.76,0,0,0-.6.93,6.27,6.27,0,0,0-.1,1.31,6.21,6.21,0,0,0,.1,1.31,1.65,1.65,0,0,0,.6.93,1.74,1.74,0,0,0,1.09.35A1.68,1.68,0,0,0,267.88,93.05Z"/><path class="cls-3" d="M271.39,93.93V85.17a.15.15,0,0,1,.17-.17h.58a.15.15,0,0,1,.17.17v8.76a.15.15,0,0,1-.17.17h-.58A.15.15,0,0,1,271.39,93.93Z"/><path class="cls-3" d="M278.62,85h.58a.15.15,0,0,1,.17.17v8.76a.15.15,0,0,1-.17.17h-.58a.15.15,0,0,1-.17-.17v-.49a0,0,0,0,0,0,0,.06.06,0,0,0-.05,0,2,2,0,0,1-.71.59,2.2,2.2,0,0,1-.94.2,2.31,2.31,0,0,1-2.38-1.74,7.9,7.9,0,0,1,0-3.26,2.39,2.39,0,0,1,.85-1.31,2.53,2.53,0,0,1,1.55-.47,2.26,2.26,0,0,1,.94.2,1.9,1.9,0,0,1,.71.58s0,0,.05,0,0,0,0,0v-3A.15.15,0,0,1,278.62,85Zm-.25,6.79a6.42,6.42,0,0,0,.05-1,6.5,6.5,0,0,0-.05-1,1.94,1.94,0,0,0-.18-.63,1.48,1.48,0,0,0-.51-.71,1.4,1.4,0,0,0-.86-.27,1.5,1.5,0,0,0-1.44,1,2.49,2.49,0,0,0-.23.65,6.14,6.14,0,0,0-.07,1,7.69,7.69,0,0,0,.05,1,2.18,2.18,0,0,0,.19.61,1.39,1.39,0,0,0,.55.75,1.62,1.62,0,0,0,.94.27,1.37,1.37,0,0,0,.87-.27,1.61,1.61,0,0,0,.52-.73A2.18,2.18,0,0,0,278.37,91.79Z"/></svg>