<svg xmlns="http://www.w3.org/2000/svg" viewBox="0 0 375 600"><defs><style>.cls-1{fill:#fff;}</style></defs><title>Zeichenfläche 1</title><g id="Ebene_1" data-name="Ebene 1"><path class="cls-1" d="M96,172c0,.15.11.28.34.39q8.59,4.13,8.6,14.11,0,8.16-5.46,12.42T85.25,203.2H63.92a1.22,1.22,0,0,1-1.38-1.38V144.38A1.22,1.22,0,0,1,63.92,143H84.56q9.38,0,14.45,4t5.07,12.21q0,8.87-7.74,12.47C96.11,171.78,96,171.88,96,172Zm-23.48-19.9v15.73a.46.46,0,0,0,.52.52H84.56a10.86,10.86,0,0,0,7.18-2.19,7.49,7.49,0,0,0,2.62-6.07,7.82,7.82,0,0,0-2.62-6.23,10.57,10.57,0,0,0-7.18-2.28H73A.46.46,0,0,0,72.52,152.12Zm19.82,40A8.45,8.45,0,0,0,95,185.57,8.34,8.34,0,0,0,92.3,179a10.48,10.48,0,0,0-7.22-2.36H73a.45.45,0,0,0-.52.51V194a.45.45,0,0,0,.52.51H85.25A10.1,10.1,0,0,0,92.34,192.11Z"/><path class="cls-1" d="M141.1,160.46a14.86,14.86,0,0,1,6.41,5.2,13.16,13.16,0,0,1,2.24,7.53v28.63a1.22,1.22,0,0,1-1.38,1.38h-7.22a1.22,1.22,0,0,1-1.38-1.38v-2.15c0-.22-.06-.35-.17-.38a.53.53,0,0,0-.43.13q-4.65,4.47-12.38,4.47a16.18,16.18,0,0,1-10.45-3.27q-4.09-3.27-4.09-9.72,0-6.71,4.69-10.45t13.2-3.74h9.12a.45.45,0,0,0,.51-.51v-2a6.71,6.71,0,0,0-2-5.21q-2-1.84-6-1.84a10.29,10.29,0,0,0-5,1.07,5.5,5.5,0,0,0-2.67,3,1.38,1.38,0,0,1-1.55,1.12l-7.74-1a1.92,1.92,0,0,1-1-.39.72.72,0,0,1-.26-.73,12.05,12.05,0,0,1,5.72-8.43,21.83,21.83,0,0,1,12.26-3.26A23,23,0,0,1,141.1,160.46Zm-4.34,33.28a6.79,6.79,0,0,0,3-5.68v-3.95a.45.45,0,0,0-.51-.52h-7.14a13.29,13.29,0,0,0-7.23,1.72,5.51,5.51,0,0,0-2.66,4.9,5,5,0,0,0,2.06,4.26,8.72,8.72,0,0,0,5.25,1.51A11.77,11.77,0,0,0,136.76,193.74Z"/><path class="cls-1" d="M184.66,159.68a1.41,1.41,0,0,1,.78,1.72l-1.38,7.14c-.06.46-.21.75-.47.86a1.87,1.87,0,0,1-1.16,0,9,9,0,0,0-2.75-.34,13.8,13.8,0,0,0-1.64.08,8.9,8.9,0,0,0-6,2.54,8.27,8.27,0,0,0-2.41,6.15v24a1.22,1.22,0,0,1-1.37,1.38H161a1.22,1.22,0,0,1-1.37-1.38V160.63a1.22,1.22,0,0,1,1.37-1.38h7.23a1.22,1.22,0,0,1,1.37,1.38V164c0,.23.06.38.18.43s.22,0,.34-.25a11.35,11.35,0,0,1,10-5.42A10.78,10.78,0,0,1,184.66,159.68Z"/><path class="cls-1" d="M192.06,201.82V144.38a1.22,1.22,0,0,1,1.37-1.38h7.23a1.22,1.22,0,0,1,1.38,1.38v57.44a1.22,1.22,0,0,1-1.38,1.38h-7.23A1.22,1.22,0,0,1,192.06,201.82Z"/><path class="cls-1" d="M219.92,200.45a17.64,17.64,0,0,1-6.79-9.55,29.73,29.73,0,0,1-1.46-9.8,32.12,32.12,0,0,1,1.37-9.81,17.68,17.68,0,0,1,6.88-9.37,20.34,20.34,0,0,1,11.78-3.35A19.13,19.13,0,0,1,243,161.92a17.88,17.88,0,0,1,6.75,9.29,27.73,27.73,0,0,1,1.55,9.8,31.1,31.1,0,0,1-1.46,9.81,18.47,18.47,0,0,1-6.79,9.58,19,19,0,0,1-11.44,3.49A19.88,19.88,0,0,1,219.92,200.45Zm17.16-7a9.64,9.64,0,0,0,3.22-5.07,22.76,22.76,0,0,0,.95-7.23,26.7,26.7,0,0,0-.86-7.22,8.86,8.86,0,0,0-8.94-6.79,8.93,8.93,0,0,0-5.59,1.76,9.31,9.31,0,0,0-3.27,5,30.78,30.78,0,0,0,0,14.45,9.42,9.42,0,0,0,3.31,5.07,9.09,9.09,0,0,0,5.72,1.81A8.49,8.49,0,0,0,237.08,193.48Z"/><path class="cls-1" d="M267.74,202.08,255.61,160.8a.92.92,0,0,1-.08-.43,1.05,1.05,0,0,1,.34-.82,1.39,1.39,0,0,1,.95-.3h7.48a1.37,1.37,0,0,1,1.46,1.21l7.05,28.21c.06.23.17.34.35.34s.28-.11.34-.34l7.31-28.21a1.42,1.42,0,0,1,1.55-1.21H289a1.42,1.42,0,0,1,1.55,1.21l7.57,28.29c0,.23.17.35.34.35s.29-.12.34-.35l7.4-28.29a1.42,1.42,0,0,1,1.55-1.21l7.39.09a1.25,1.25,0,0,1,1,.43,1.28,1.28,0,0,1,.17,1.12l-12.21,41.19a1.47,1.47,0,0,1-1.55,1.12h-7.66a1.45,1.45,0,0,1-1.54-1.12L286,176.37c-.06-.23-.17-.35-.34-.35s-.29.12-.35.35L278.49,202a1.41,1.41,0,0,1-1.55,1.2h-7.65A1.46,1.46,0,0,1,267.74,202.08Z"/><path class="cls-1" d="M85.49,306.76l-.72-2.2a.11.11,0,0,0-.09-.07H79.32a.11.11,0,0,0-.09.07l-.71,2.2a.24.24,0,0,1-.25.2h-.86a.21.21,0,0,1-.18-.08.2.2,0,0,1,0-.19l4-12.13a.24.24,0,0,1,.25-.2h1.15a.24.24,0,0,1,.26.2l4,12.13s0,.05,0,.09a.14.14,0,0,1-.06.12.2.2,0,0,1-.15.06h-.87A.25.25,0,0,1,85.49,306.76Zm-5.8-3.31h4.63c.07,0,.1,0,.07-.11L82.05,296c0-.05,0-.07,0-.07s0,0-.06.07l-2.32,7.36C79.61,303.41,79.63,303.45,79.69,303.45Z"/><path class="cls-1" d="M96.36,298.91h-2a.08.08,0,0,0-.09.09v5.26a1.57,1.57,0,0,0,.39,1.21,1.73,1.73,0,0,0,1.21.35h.4a.21.21,0,0,1,.23.24v.63a.23.23,0,0,1-.23.25H95.7a3.29,3.29,0,0,1-2-.49,2.1,2.1,0,0,1-.66-1.8V299a.08.08,0,0,0-.09-.09H92a.21.21,0,0,1-.23-.23v-.6a.21.21,0,0,1,.23-.23h1a.08.08,0,0,0,.09-.09v-2a.21.21,0,0,1,.23-.23h.78a.21.21,0,0,1,.23.23v2a.08.08,0,0,0,.09.09h2a.21.21,0,0,1,.24.23v.6A.21.21,0,0,1,96.36,298.91Z"/><path class="cls-1" d="M103.72,298a.2.2,0,0,1,.13.28l-.18.8c0,.14-.13.19-.29.14a2.8,2.8,0,0,0-.88-.09,2.13,2.13,0,0,0-1.55.69,2.34,2.34,0,0,0-.61,1.67v5.25a.21.21,0,0,1-.23.24H99.3a.21.21,0,0,1-.24-.24v-8.64a.21.21,0,0,1,.24-.23h.81a.21.21,0,0,1,.23.23v1c0,.05,0,.08,0,.08s0,0,.06,0a2.75,2.75,0,0,1,1-1,2.51,2.51,0,0,1,1.34-.36A2,2,0,0,1,103.72,298Z"/><path class="cls-1" d="M105.69,296a.9.9,0,0,1-.27-.68.87.87,0,0,1,.27-.66,1.11,1.11,0,0,1,1.4,0,.87.87,0,0,1,.27.66.9.9,0,0,1-.27.68,1.07,1.07,0,0,1-1.4,0Zm.07,10.77v-8.64a.21.21,0,0,1,.23-.23h.81a.21.21,0,0,1,.24.23v8.64a.21.21,0,0,1-.24.24H106A.21.21,0,0,1,105.76,306.72Z"/><path class="cls-1" d="M117.24,302.4a8,8,0,0,1-.25,2.29,3.32,3.32,0,0,1-1.18,1.76,3.4,3.4,0,0,1-2.11.65,3,3,0,0,1-1.31-.29,2.65,2.65,0,0,1-1-.81.07.07,0,0,0-.07,0s0,0,0,.06v.68a.21.21,0,0,1-.23.24h-.81a.21.21,0,0,1-.24-.24V294.59a.21.21,0,0,1,.24-.23h.81a.21.21,0,0,1,.23.23v4.16s0,.06,0,.07a.06.06,0,0,0,.07,0,2.61,2.61,0,0,1,1-.81,3.12,3.12,0,0,1,1.3-.27,3.43,3.43,0,0,1,2.14.65,3.39,3.39,0,0,1,1.19,1.81A8.78,8.78,0,0,1,117.24,302.4Zm-1.35,1.33a9.21,9.21,0,0,0,.07-1.33,7,7,0,0,0-.1-1.37,3,3,0,0,0-.31-.89,2.06,2.06,0,0,0-.76-1,2.11,2.11,0,0,0-1.24-.36,1.91,1.91,0,0,0-1.18.37,2.08,2.08,0,0,0-.71,1,3.07,3.07,0,0,0-.25.87,9.77,9.77,0,0,0-.07,1.36,9.43,9.43,0,0,0,.07,1.35,3.6,3.6,0,0,0,.23.85,2.28,2.28,0,0,0,.72,1,1.94,1.94,0,0,0,1.21.37,2.29,2.29,0,0,0,1.31-.37,2,2,0,0,0,.76-1A3.12,3.12,0,0,0,115.89,303.73Z"/><path class="cls-1" d="M125.52,297.85h.81a.21.21,0,0,1,.24.23v8.64a.21.21,0,0,1-.24.24h-.81a.21.21,0,0,1-.23-.24V306s0-.06,0-.07a.06.06,0,0,0-.07,0,2.74,2.74,0,0,1-2.38,1.08,3.56,3.56,0,0,1-1.59-.35,2.65,2.65,0,0,1-1.15-1,2.91,2.91,0,0,1-.42-1.6v-6a.2.2,0,0,1,.23-.23h.81a.2.2,0,0,1,.23.23v5.65a2.27,2.27,0,0,0,.58,1.63,2,2,0,0,0,1.57.61,2.09,2.09,0,0,0,2.23-2.24v-5.65A.21.21,0,0,1,125.52,297.85Z"/><path class="cls-1" d="M133.28,298.91h-2a.08.08,0,0,0-.09.09v5.26a1.61,1.61,0,0,0,.38,1.21,1.76,1.76,0,0,0,1.22.35h.4a.21.21,0,0,1,.23.24v.63a.23.23,0,0,1-.23.25h-.62a3.28,3.28,0,0,1-2-.49,2.1,2.1,0,0,1-.66-1.8V299a.08.08,0,0,0-.09-.09h-1a.2.2,0,0,1-.23-.23v-.6a.2.2,0,0,1,.23-.23h1a.08.08,0,0,0,.09-.09v-2a.2.2,0,0,1,.23-.23H131a.21.21,0,0,1,.24.23v2a.08.08,0,0,0,.09.09h2a.2.2,0,0,1,.23.23v.6A.2.2,0,0,1,133.28,298.91Z"/><path class="cls-1" d="M140.65,305.63a2.4,2.4,0,0,0,.91-1,.2.2,0,0,1,.13-.12.19.19,0,0,1,.18,0l.52.29c.14.09.18.19.11.31a3.32,3.32,0,0,1-1.3,1.43,3.89,3.89,0,0,1-2,.53,3.73,3.73,0,0,1-2.13-.59,3.32,3.32,0,0,1-1.24-1.66,7.17,7.17,0,0,1-.34-2.48c0-.52,0-.93,0-1.24a3.78,3.78,0,0,1,.13-.85,3.4,3.4,0,0,1,1.23-1.87,3.61,3.61,0,0,1,2.25-.7,3.5,3.5,0,0,1,2.45.81,3.83,3.83,0,0,1,1.15,2.28,11.3,11.3,0,0,1,.1,1.8c0,.16-.07.23-.23.23h-5.76a.08.08,0,0,0-.09.09,5.84,5.84,0,0,0,.11,1.32,2.23,2.23,0,0,0,.83,1.29,2.92,2.92,0,0,0,3,.1Zm-3.05-6.35a2.2,2.2,0,0,0-.76,1.23,5.58,5.58,0,0,0-.14,1.23.08.08,0,0,0,.09.09h4.63a.08.08,0,0,0,.09-.09,9.46,9.46,0,0,0-.11-1.16,2.26,2.26,0,0,0-.8-1.28,2.38,2.38,0,0,0-1.52-.48A2.28,2.28,0,0,0,137.6,299.28Z"/><path class="cls-1" d="M151.17,295.91a2.44,2.44,0,0,0-.36,1.51v.34a.08.08,0,0,0,.09.09h1.95a.21.21,0,0,1,.23.23v.71a.21.21,0,0,1-.23.23H150.9a.08.08,0,0,0-.09.09v7.61a.21.21,0,0,1-.23.24h-.79a.21.21,0,0,1-.24-.24v-7.61a.08.08,0,0,0-.09-.09h-1.13a.21.21,0,0,1-.24-.23v-.71a.21.21,0,0,1,.24-.23h1.13a.08.08,0,0,0,.09-.09v-.41a5.14,5.14,0,0,1,.25-1.76,1.69,1.69,0,0,1,.88-.94,4.22,4.22,0,0,1,1.73-.29h.47a.21.21,0,0,1,.24.23v.65c0,.16-.08.23-.24.23h-.36A1.69,1.69,0,0,0,151.17,295.91Z"/><path class="cls-1" d="M160,298c.12,0,.16.14.13.28l-.18.8c0,.14-.13.19-.29.14a2.8,2.8,0,0,0-.88-.09,2.12,2.12,0,0,0-1.55.69,2.34,2.34,0,0,0-.61,1.67v5.25a.21.21,0,0,1-.24.24h-.81a.21.21,0,0,1-.23-.24v-8.64a.21.21,0,0,1,.23-.23h.81a.21.21,0,0,1,.24.23v1c0,.05,0,.08,0,.08s0,0,.07,0a2.75,2.75,0,0,1,1-1,2.51,2.51,0,0,1,1.34-.36A2,2,0,0,1,160,298Z"/><path class="cls-1" d="M163,306.44a3.51,3.51,0,0,1-1.29-1.84,8.17,8.17,0,0,1-.25-2.22,8.09,8.09,0,0,1,.24-2.19,3.44,3.44,0,0,1,1.28-1.82,3.82,3.82,0,0,1,2.26-.66,3.75,3.75,0,0,1,2.23.66,3.33,3.33,0,0,1,1.26,1.8,8,8,0,0,1,.26,2.21,7.75,7.75,0,0,1-.26,2.22,3.44,3.44,0,0,1-1.28,1.84,3.73,3.73,0,0,1-2.21.66A3.78,3.78,0,0,1,163,306.44Zm3.72-.93a2.38,2.38,0,0,0,.83-1.29,8.67,8.67,0,0,0,.14-1.82,8.28,8.28,0,0,0-.14-1.82,2.24,2.24,0,0,0-.82-1.28,2.42,2.42,0,0,0-1.52-.48,2.33,2.33,0,0,0-1.48.48,2.36,2.36,0,0,0-.83,1.28,11.9,11.9,0,0,0,0,3.64,2.32,2.32,0,0,0,.82,1.29,2.42,2.42,0,0,0,1.52.47A2.32,2.32,0,0,0,166.76,305.51Z"/><path class="cls-1" d="M183,298.53a3.07,3.07,0,0,1,.78,2.22v6a.21.21,0,0,1-.23.24h-.8a.21.21,0,0,1-.23-.24V301a2.17,2.17,0,0,0-.57-1.58,2,2,0,0,0-1.48-.58,2.07,2.07,0,0,0-1.54.58,2,2,0,0,0-.59,1.54v5.76c0,.16-.07.24-.23.24h-.81c-.16,0-.23-.08-.23-.24V301a2.21,2.21,0,0,0-.56-1.58,2,2,0,0,0-1.5-.58,2,2,0,0,0-1.52.58,2.11,2.11,0,0,0-.56,1.54v5.76a.21.21,0,0,1-.24.24h-.81a.21.21,0,0,1-.23-.24v-8.64a.21.21,0,0,1,.23-.23h.81a.21.21,0,0,1,.24.23v.63a.1.1,0,0,0,0,.08s0,0,.07,0a2.32,2.32,0,0,1,1-.77,3.56,3.56,0,0,1,1.37-.26,3.16,3.16,0,0,1,1.58.38,2.46,2.46,0,0,1,1,1.06c0,.07.07.08.11,0a2.53,2.53,0,0,1,1.12-1.1,3.59,3.59,0,0,1,1.63-.36A2.84,2.84,0,0,1,183,298.53Z"/><path class="cls-1" d="M191.14,306.63a3.41,3.41,0,0,1-1.44-1.32,3.78,3.78,0,0,1-.51-2v-.83a.2.2,0,0,1,.23-.23h.81a.2.2,0,0,1,.23.23v.83a2.52,2.52,0,0,0,.79,1.92,2.89,2.89,0,0,0,2,.72,2.92,2.92,0,0,0,2.06-.72,2.52,2.52,0,0,0,.78-1.92v-8.75a.21.21,0,0,1,.24-.23h.81a.21.21,0,0,1,.23.23v8.75a3.78,3.78,0,0,1-.51,2,3.44,3.44,0,0,1-1.45,1.32,5.18,5.18,0,0,1-4.31,0Z"/><path class="cls-1" d="M205.49,305.63a2.31,2.31,0,0,0,.9-1,.22.22,0,0,1,.13-.12.19.19,0,0,1,.18,0l.52.29c.15.09.18.19.11.31a3.36,3.36,0,0,1-1.29,1.43,3.92,3.92,0,0,1-2.06.53,3.68,3.68,0,0,1-2.12-.59,3.26,3.26,0,0,1-1.24-1.66,7.14,7.14,0,0,1-.35-2.48c0-.52,0-.93,0-1.24a3.77,3.77,0,0,1,.14-.85,3.3,3.3,0,0,1,1.23-1.87,3.58,3.58,0,0,1,2.24-.7,3.53,3.53,0,0,1,2.46.81,3.88,3.88,0,0,1,1.14,2.28,11,11,0,0,1,.11,1.8c0,.16-.08.23-.24.23h-5.76c-.06,0-.08,0-.08.09a6,6,0,0,0,.1,1.32,2.2,2.2,0,0,0,.84,1.29,2.67,2.67,0,0,0,1.61.47A2.72,2.72,0,0,0,205.49,305.63Zm-3.06-6.35a2.18,2.18,0,0,0-.75,1.23,5.58,5.58,0,0,0-.14,1.23c0,.06,0,.09.08.09h4.63a.08.08,0,0,0,.09-.09,7.8,7.8,0,0,0-.11-1.16,2.26,2.26,0,0,0-.8-1.28,2.36,2.36,0,0,0-1.52-.48A2.3,2.3,0,0,0,202.43,299.28Z"/><path class="cls-1" d="M214.82,298c.12,0,.16.14.12.28l-.18.8c0,.14-.13.19-.28.14a2.87,2.87,0,0,0-.89-.09,2.09,2.09,0,0,0-1.54.69,2.35,2.35,0,0,0-.62,1.67v5.25c0,.16-.07.24-.23.24h-.81c-.16,0-.23-.08-.23-.24v-8.64a.2.2,0,0,1,.23-.23h.81a.2.2,0,0,1,.23.23v1c0,.05,0,.08,0,.08s0,0,.06,0a2.86,2.86,0,0,1,1-1,2.49,2.49,0,0,1,1.34-.36A2,2,0,0,1,214.82,298Z"/><path class="cls-1" d="M221.56,305.63a2.4,2.4,0,0,0,.91-1,.18.18,0,0,1,.12-.12.19.19,0,0,1,.18,0l.53.29c.14.09.18.19.1.31a3.3,3.3,0,0,1-1.29,1.43,3.89,3.89,0,0,1-2.05.53,3.73,3.73,0,0,1-2.13-.59,3.32,3.32,0,0,1-1.24-1.66,7.17,7.17,0,0,1-.34-2.48c0-.52,0-.93,0-1.24a3.78,3.78,0,0,1,.13-.85,3.3,3.3,0,0,1,1.23-1.87,3.6,3.6,0,0,1,2.24-.7,3.51,3.51,0,0,1,2.46.81,3.77,3.77,0,0,1,1.14,2.28,10,10,0,0,1,.11,1.8.2.2,0,0,1-.23.23H217.7a.08.08,0,0,0-.09.09,5.3,5.3,0,0,0,.11,1.32,2.23,2.23,0,0,0,.83,1.29,2.69,2.69,0,0,0,1.61.47A2.72,2.72,0,0,0,221.56,305.63Zm-3.05-6.35a2.14,2.14,0,0,0-.76,1.23,5.58,5.58,0,0,0-.14,1.23.08.08,0,0,0,.09.09h4.62a.08.08,0,0,0,.09-.09,10,10,0,0,0-.1-1.16,2.32,2.32,0,0,0-.8-1.28,2.39,2.39,0,0,0-1.53-.48A2.25,2.25,0,0,0,218.51,299.28Z"/><path class="cls-1" d="M237.58,298.53a3.07,3.07,0,0,1,.78,2.22v6a.21.21,0,0,1-.23.24h-.79a.21.21,0,0,1-.24-.24V301a2.21,2.21,0,0,0-.56-1.58,2,2,0,0,0-1.49-.58,2.07,2.07,0,0,0-1.54.58,2,2,0,0,0-.58,1.54v5.76a.21.21,0,0,1-.24.24h-.81a.21.21,0,0,1-.23-.24V301a2.21,2.21,0,0,0-.56-1.58,2,2,0,0,0-1.49-.58,2,2,0,0,0-1.52.58,2.08,2.08,0,0,0-.57,1.54v5.76a.21.21,0,0,1-.24.24h-.81a.21.21,0,0,1-.23-.24v-8.64a.21.21,0,0,1,.23-.23h.81a.21.21,0,0,1,.24.23v.63a.1.1,0,0,0,0,.08s.05,0,.08,0a2.29,2.29,0,0,1,1-.77,3.56,3.56,0,0,1,1.37-.26,3.22,3.22,0,0,1,1.59.38,2.44,2.44,0,0,1,1,1.06c0,.07.08.08.11,0a2.58,2.58,0,0,1,1.12-1.1,3.6,3.6,0,0,1,1.64-.36A2.82,2.82,0,0,1,237.58,298.53Z"/><path class="cls-1" d="M240.58,310.32v-.63c0-.15,0-.23.12-.23h.13a2.46,2.46,0,0,0,1.09-.2,1.67,1.67,0,0,0,.66-.7,8.7,8.7,0,0,0,.61-1.55.2.2,0,0,0,0-.11l-3-8.78a.24.24,0,0,1,0-.09.16.16,0,0,1,.07-.13.25.25,0,0,1,.15,0h.85a.26.26,0,0,1,.27.2l2.32,7.05s0,.07,0,.07,0,0,.06-.07l2.26-7.05a.25.25,0,0,1,.26-.2h.86a.21.21,0,0,1,.18.07.23.23,0,0,1,0,.2l-3.31,9.63a9.08,9.08,0,0,1-.81,1.78,2,2,0,0,1-1,.8,4.46,4.46,0,0,1-1.59.23h-.13Q240.58,310.56,240.58,310.32Z"/><path class="cls-1" d="M261,294.59v.67a.21.21,0,0,1-.23.23h-3.46a.08.08,0,0,0-.09.09v11.14a.21.21,0,0,1-.23.24h-.81a.21.21,0,0,1-.24-.24V295.58a.08.08,0,0,0-.09-.09h-3.31a.21.21,0,0,1-.23-.23v-.67a.21.21,0,0,1,.23-.23h8.23A.21.21,0,0,1,261,294.59Z"/><path class="cls-1" d="M267,298a.2.2,0,0,1,.13.28l-.18.8c0,.14-.13.19-.29.14a2.8,2.8,0,0,0-.88-.09,2.13,2.13,0,0,0-1.55.69,2.34,2.34,0,0,0-.61,1.67v5.25a.21.21,0,0,1-.23.24h-.81a.21.21,0,0,1-.24-.24v-8.64a.21.21,0,0,1,.24-.23h.81a.21.21,0,0,1,.23.23v1c0,.05,0,.08,0,.08s0,0,.06,0a2.75,2.75,0,0,1,1-1,2.51,2.51,0,0,1,1.34-.36A2,2,0,0,1,267,298Z"/><path class="cls-1" d="M268.93,296a.9.9,0,0,1-.27-.68.87.87,0,0,1,.27-.66,1.11,1.11,0,0,1,1.4,0,.87.87,0,0,1,.27.66.9.9,0,0,1-.27.68,1.07,1.07,0,0,1-1.4,0Zm.07,10.77v-8.64a.21.21,0,0,1,.23-.23H270a.21.21,0,0,1,.24.23v8.64a.21.21,0,0,1-.24.24h-.81A.21.21,0,0,1,269,306.72Z"/><path class="cls-1" d="M280.48,302.4a8,8,0,0,1-.25,2.29,3.32,3.32,0,0,1-1.18,1.76,3.4,3.4,0,0,1-2.11.65,3,3,0,0,1-1.31-.29,2.65,2.65,0,0,1-1-.81s0,0-.07,0,0,0,0,.06v.68a.21.21,0,0,1-.23.24h-.81a.21.21,0,0,1-.24-.24V294.59a.21.21,0,0,1,.24-.23h.81a.21.21,0,0,1,.23.23v4.16s0,.06,0,.07,0,0,.07,0a2.61,2.61,0,0,1,1-.81,3.12,3.12,0,0,1,1.3-.27,3.43,3.43,0,0,1,2.14.65,3.39,3.39,0,0,1,1.19,1.81A8.78,8.78,0,0,1,280.48,302.4Zm-1.35,1.33a9.21,9.21,0,0,0,.07-1.33,7,7,0,0,0-.1-1.37,3,3,0,0,0-.31-.89,2.06,2.06,0,0,0-.76-1,2.11,2.11,0,0,0-1.24-.36,1.89,1.89,0,0,0-1.18.37,2,2,0,0,0-.71,1,3.07,3.07,0,0,0-.25.87,9.77,9.77,0,0,0-.07,1.36,9.43,9.43,0,0,0,.07,1.35,3.6,3.6,0,0,0,.23.85,2.28,2.28,0,0,0,.72,1,1.94,1.94,0,0,0,1.21.37,2.23,2.23,0,0,0,1.3-.37,1.94,1.94,0,0,0,.77-1A3.12,3.12,0,0,0,279.13,303.73Z"/><path class="cls-1" d="M290.22,302.4a8.38,8.38,0,0,1-.25,2.29,3.32,3.32,0,0,1-1.18,1.76,3.43,3.43,0,0,1-2.12.65,2.92,2.92,0,0,1-1.3-.29,2.65,2.65,0,0,1-1-.81.08.08,0,0,0-.08,0s0,0,0,.06v.68a.21.21,0,0,1-.24.24h-.81a.21.21,0,0,1-.23-.24V294.59a.21.21,0,0,1,.23-.23H284a.21.21,0,0,1,.24.23v4.16s0,.06,0,.07.05,0,.08,0a2.61,2.61,0,0,1,1-.81,3.07,3.07,0,0,1,1.29-.27,3.39,3.39,0,0,1,2.14.65,3.28,3.28,0,0,1,1.19,1.81A8.26,8.26,0,0,1,290.22,302.4Zm-1.35,1.33a9.21,9.21,0,0,0,.07-1.33,7,7,0,0,0-.1-1.37,3,3,0,0,0-.31-.89,2.06,2.06,0,0,0-.76-1,2.13,2.13,0,0,0-1.24-.36,1.89,1.89,0,0,0-1.18.37,2,2,0,0,0-.71,1,3.07,3.07,0,0,0-.25.87,9.51,9.51,0,0,0-.08,1.36,9.16,9.16,0,0,0,.08,1.35,3.18,3.18,0,0,0,.23.85,2.28,2.28,0,0,0,.72,1,1.94,1.94,0,0,0,1.21.37,2.23,2.23,0,0,0,1.3-.37,2,2,0,0,0,.77-1A3.12,3.12,0,0,0,288.87,303.73Z"/><path class="cls-1" d="M292.05,310.32v-.63c0-.15.05-.23.13-.23h.13a2.46,2.46,0,0,0,1.09-.2,1.67,1.67,0,0,0,.66-.7,8.7,8.7,0,0,0,.61-1.55.2.2,0,0,0,0-.11l-3-8.78a.24.24,0,0,1,0-.09.16.16,0,0,1,.07-.13.25.25,0,0,1,.15,0h.85a.26.26,0,0,1,.27.2l2.32,7.05s0,.07.05.07,0,0,.05-.07l2.27-7.05a.25.25,0,0,1,.26-.2h.86a.21.21,0,0,1,.18.07.23.23,0,0,1,0,.2l-3.31,9.63a9.08,9.08,0,0,1-.81,1.78,2,2,0,0,1-1,.8,4.46,4.46,0,0,1-1.59.23h-.13C292.1,310.56,292.05,310.48,292.05,310.32Z"/><path class="cls-1" d="M112.3,318.91h-2a.08.08,0,0,0-.09.09v5.26a1.57,1.57,0,0,0,.39,1.21,1.72,1.72,0,0,0,1.21.35h.4a.21.21,0,0,1,.23.24v.63a.23.23,0,0,1-.23.25h-.61a3.29,3.29,0,0,1-2-.49,2.1,2.1,0,0,1-.66-1.8V319a.08.08,0,0,0-.09-.09h-1a.21.21,0,0,1-.23-.23v-.6a.21.21,0,0,1,.23-.23h1a.08.08,0,0,0,.09-.09v-2a.21.21,0,0,1,.23-.23H110a.21.21,0,0,1,.23.23v2a.08.08,0,0,0,.09.09h2a.21.21,0,0,1,.24.23v.6A.21.21,0,0,1,112.3,318.91Z"/><path class="cls-1" d="M116,326.44a3.44,3.44,0,0,1-1.28-1.84,7.75,7.75,0,0,1-.26-2.22,8.09,8.09,0,0,1,.24-2.19,3.44,3.44,0,0,1,1.28-1.82,3.82,3.82,0,0,1,2.26-.66,3.75,3.75,0,0,1,2.23.66,3.4,3.4,0,0,1,1.27,1.8,8.41,8.41,0,0,1,.25,2.21,8.17,8.17,0,0,1-.25,2.22,3.46,3.46,0,0,1-1.29,1.84,3.7,3.7,0,0,1-2.21.66A3.78,3.78,0,0,1,116,326.44Zm3.72-.93a2.38,2.38,0,0,0,.83-1.29,8.67,8.67,0,0,0,.14-1.82,8.28,8.28,0,0,0-.14-1.82,2.24,2.24,0,0,0-.82-1.28,2.42,2.42,0,0,0-1.52-.48,2.33,2.33,0,0,0-1.48.48,2.36,2.36,0,0,0-.83,1.28,11.9,11.9,0,0,0,0,3.64,2.32,2.32,0,0,0,.82,1.29,2.42,2.42,0,0,0,1.52.47A2.32,2.32,0,0,0,119.7,325.51Z"/><path class="cls-1" d="M129.19,326.63a3.53,3.53,0,0,1-1.44-1.32,3.78,3.78,0,0,1-.51-2v-.83a.21.21,0,0,1,.24-.23h.81a.21.21,0,0,1,.23.23v.83a2.52,2.52,0,0,0,.78,1.92,3.29,3.29,0,0,0,4.11,0,2.52,2.52,0,0,0,.78-1.92v-8.75a.21.21,0,0,1,.23-.23h.81a.21.21,0,0,1,.24.23v8.75a3.69,3.69,0,0,1-.52,2,3.41,3.41,0,0,1-1.44,1.32,4.7,4.7,0,0,1-2.16.47A4.64,4.64,0,0,1,129.19,326.63Z"/><path class="cls-1" d="M139.85,326.44a3.46,3.46,0,0,1-1.29-1.84,8.17,8.17,0,0,1-.25-2.22,8.09,8.09,0,0,1,.24-2.19,3.39,3.39,0,0,1,1.28-1.82,3.8,3.8,0,0,1,2.26-.66,3.69,3.69,0,0,1,2.22.66,3.35,3.35,0,0,1,1.27,1.8,8,8,0,0,1,.25,2.21,7.79,7.79,0,0,1-.25,2.22,3.49,3.49,0,0,1-1.28,1.84,4.08,4.08,0,0,1-4.45,0Zm3.72-.93a2.38,2.38,0,0,0,.83-1.29,8.67,8.67,0,0,0,.14-1.82,8.28,8.28,0,0,0-.14-1.82,2.29,2.29,0,0,0-.82-1.28,2.42,2.42,0,0,0-1.52-.48,2.33,2.33,0,0,0-1.48.48,2.36,2.36,0,0,0-.83,1.28,11.9,11.9,0,0,0,0,3.64,2.26,2.26,0,0,0,.82,1.29,2.4,2.4,0,0,0,1.52.47A2.32,2.32,0,0,0,143.57,325.51Z"/><path class="cls-1" d="M154.48,318.57a3,3,0,0,1,.86,2.27v5.88a.21.21,0,0,1-.24.24h-.81a.21.21,0,0,1-.23-.24v-5.63a2.28,2.28,0,0,0-.59-1.63,2.08,2.08,0,0,0-1.55-.62,2.23,2.23,0,0,0-1.52.52,2.05,2.05,0,0,0-.7,1.37v6c0,.16-.07.24-.23.24h-.81c-.16,0-.23-.08-.23-.24V314.59a.2.2,0,0,1,.23-.23h.81a.2.2,0,0,1,.23.23v4.16a.1.1,0,0,0,0,.08s0,0,0,0a2.81,2.81,0,0,1,2.42-1.08A3.07,3.07,0,0,1,154.48,318.57Z"/><path class="cls-1" d="M164.19,318.57a3,3,0,0,1,.85,2.27v5.88a.21.21,0,0,1-.23.24H164a.21.21,0,0,1-.24-.24v-5.63a2.28,2.28,0,0,0-.59-1.63,2.06,2.06,0,0,0-1.55-.62,2.23,2.23,0,0,0-1.52.52,2,2,0,0,0-.69,1.37v6a.21.21,0,0,1-.24.24h-.81a.21.21,0,0,1-.23-.24v-8.64a.21.21,0,0,1,.23-.23h.81a.21.21,0,0,1,.24.23v.67a.1.1,0,0,0,0,.08s0,0,.06,0a2.78,2.78,0,0,1,2.41-1.08A3.08,3.08,0,0,1,164.19,318.57Z"/><path class="cls-1" d="M179,315.31a3.49,3.49,0,0,1,1,2.56,3.38,3.38,0,0,1-1,2.52,3.57,3.57,0,0,1-2.58.95h-3.5a.08.08,0,0,0-.09.09v5.29c0,.16-.07.24-.23.24h-.81c-.16,0-.23-.08-.23-.24V314.57a.2.2,0,0,1,.23-.23h4.68A3.41,3.41,0,0,1,179,315.31Zm-1,4.31a2.31,2.31,0,0,0,.67-1.74,2.28,2.28,0,0,0-2.39-2.42h-3.41c-.06,0-.09,0-.09.08v4.65a.08.08,0,0,0,.09.09h3.41A2.34,2.34,0,0,0,178.05,319.62Z"/><path class="cls-1" d="M186.7,325.63a2.33,2.33,0,0,0,.91-1,.22.22,0,0,1,.13-.12.19.19,0,0,1,.18,0l.52.29c.14.09.18.19.11.31a3.32,3.32,0,0,1-1.3,1.43,3.86,3.86,0,0,1-2.05.53,3.68,3.68,0,0,1-2.12-.59,3.34,3.34,0,0,1-1.25-1.66,7.42,7.42,0,0,1-.34-2.48c0-.52,0-.93,0-1.24a4.45,4.45,0,0,1,.13-.85,3.37,3.37,0,0,1,1.24-1.87,3.58,3.58,0,0,1,2.24-.7,3.5,3.5,0,0,1,2.46.81,3.85,3.85,0,0,1,1.14,2.28,11,11,0,0,1,.11,1.8c0,.16-.08.23-.24.23h-5.76a.08.08,0,0,0-.09.09,5.84,5.84,0,0,0,.11,1.32,2.2,2.2,0,0,0,.84,1.29,2.65,2.65,0,0,0,1.61.47A2.69,2.69,0,0,0,186.7,325.63Zm-3-6.35a2.18,2.18,0,0,0-.75,1.23,5.43,5.43,0,0,0-.15,1.23.08.08,0,0,0,.09.09h4.63a.08.08,0,0,0,.09-.09,9.46,9.46,0,0,0-.11-1.16,2.26,2.26,0,0,0-.8-1.28,2.36,2.36,0,0,0-1.52-.48A2.3,2.3,0,0,0,183.65,319.28Z"/><path class="cls-1" d="M196,318a.21.21,0,0,1,.12.29l-.18.79c0,.15-.13.2-.29.15a2.76,2.76,0,0,0-.88-.09,2.13,2.13,0,0,0-1.55.69,2.38,2.38,0,0,0-.61,1.67v5.25a.21.21,0,0,1-.23.24h-.81a.21.21,0,0,1-.24-.24v-8.64a.21.21,0,0,1,.24-.23h.81a.21.21,0,0,1,.23.23v1c0,.05,0,.08,0,.08s0,0,.06,0a2.77,2.77,0,0,1,1-1,2.46,2.46,0,0,1,1.34-.36A2.13,2.13,0,0,1,196,318Z"/><path class="cls-1" d="M202.59,318a.21.21,0,0,1,.12.29l-.18.79c0,.15-.13.2-.28.15a2.87,2.87,0,0,0-.89-.09,2.09,2.09,0,0,0-1.54.69,2.35,2.35,0,0,0-.62,1.67v5.25a.21.21,0,0,1-.23.24h-.81c-.16,0-.23-.08-.23-.24v-8.64a.2.2,0,0,1,.23-.23H199a.21.21,0,0,1,.23.23v1c0,.05,0,.08,0,.08s0,0,.06,0a2.94,2.94,0,0,1,1-1,2.49,2.49,0,0,1,1.34-.36A2.13,2.13,0,0,1,202.59,318Z"/><path class="cls-1" d="M204.44,330.32v-.63c0-.15,0-.23.13-.23h.12a2.46,2.46,0,0,0,1.09-.2,1.68,1.68,0,0,0,.67-.7,8.83,8.83,0,0,0,.6-1.55.2.2,0,0,0,0-.11l-3-8.78a.24.24,0,0,1,0-.09.18.18,0,0,1,.06-.13.28.28,0,0,1,.16,0h.84a.25.25,0,0,1,.27.2l2.32,7.05s0,.07.06.07,0,0,.05-.07l2.27-7.05a.25.25,0,0,1,.25-.2h.87a.21.21,0,0,1,.18.07.23.23,0,0,1,0,.2L208,327.75a9.08,9.08,0,0,1-.81,1.78,2,2,0,0,1-.94.8,4.48,4.48,0,0,1-1.6.23h-.12C204.48,330.56,204.44,330.48,204.44,330.32Z"/><path class="cls-1" d="M223.49,320.5a3,3,0,0,1,1.44,1.17,3.36,3.36,0,0,1,.5,1.87,3.16,3.16,0,0,1-1,2.52,4,4,0,0,1-2.72.9h-4.3a.21.21,0,0,1-.24-.24V314.59a.21.21,0,0,1,.24-.23h4.17a4,4,0,0,1,2.75.86,3.07,3.07,0,0,1,1,2.43,3,3,0,0,1-.46,1.68,3.13,3.13,0,0,1-1.34,1.06C223.41,320.42,223.41,320.46,223.49,320.5Zm-5.08-4.94v4.29a.08.08,0,0,0,.09.09h3a2.62,2.62,0,0,0,1.81-.6,2,2,0,0,0,.68-1.58,2.17,2.17,0,0,0-.68-1.67,2.58,2.58,0,0,0-1.81-.62h-3A.08.08,0,0,0,218.41,315.56Zm5.07,9.61a2.29,2.29,0,0,0,.67-1.74,2.33,2.33,0,0,0-.69-1.76,2.62,2.62,0,0,0-1.86-.65h-3.1a.08.08,0,0,0-.09.09v4.62a.08.08,0,0,0,.09.09h3.17A2.48,2.48,0,0,0,223.48,325.17Z"/><path class="cls-1" d="M233.72,318.53a2.88,2.88,0,0,1,.89,2.2v6a.21.21,0,0,1-.23.24h-.81a.21.21,0,0,1-.24-.24v-.64a.1.1,0,0,0,0-.08s-.05,0-.08,0a3.07,3.07,0,0,1-1.21.79,4.58,4.58,0,0,1-1.59.27,3.43,3.43,0,0,1-2.12-.65,2.32,2.32,0,0,1-.85-2,2.56,2.56,0,0,1,1-2.13,4.25,4.25,0,0,1,2.72-.78h2.09a.08.08,0,0,0,.09-.09v-.67a2,2,0,0,0-.51-1.45,2.13,2.13,0,0,0-1.59-.53,2.72,2.72,0,0,0-1.39.32,1.42,1.42,0,0,0-.68.9.21.21,0,0,1-.27.18l-.89-.1c-.15,0-.22-.09-.21-.2a2.38,2.38,0,0,1,1.1-1.6,4.11,4.11,0,0,1,2.32-.61A3.56,3.56,0,0,1,233.72,318.53Zm-1.17,6.94a1.64,1.64,0,0,0,.78-1.43v-1.38c0-.06,0-.1-.09-.1h-1.89a3.4,3.4,0,0,0-1.91.49,1.56,1.56,0,0,0-.72,1.35,1.39,1.39,0,0,0,.56,1.2,2.36,2.36,0,0,0,1.42.4A3.17,3.17,0,0,0,232.55,325.47Z"/><path class="cls-1" d="M241.92,318a.21.21,0,0,1,.12.29l-.18.79c0,.15-.13.2-.28.15a2.87,2.87,0,0,0-.89-.09,2.09,2.09,0,0,0-1.54.69,2.35,2.35,0,0,0-.62,1.67v5.25c0,.16-.07.24-.23.24h-.81c-.16,0-.23-.08-.23-.24v-8.64a.2.2,0,0,1,.23-.23h.81a.2.2,0,0,1,.23.23v1c0,.05,0,.08,0,.08s0,0,.06,0a2.94,2.94,0,0,1,1-1,2.49,2.49,0,0,1,1.34-.36A2.13,2.13,0,0,1,241.92,318Z"/><path class="cls-1" d="M243.81,326.72V314.59a.2.2,0,0,1,.23-.23h.81a.2.2,0,0,1,.23.23v12.13c0,.16-.07.24-.23.24H244C243.88,327,243.81,326.88,243.81,326.72Z"/><path class="cls-1" d="M249.23,326.44A3.49,3.49,0,0,1,248,324.6a7.79,7.79,0,0,1-.25-2.22,8.14,8.14,0,0,1,.23-2.19,3.41,3.41,0,0,1,1.29-1.82,4.13,4.13,0,0,1,4.48,0,3.35,3.35,0,0,1,1.27,1.8,8.41,8.41,0,0,1,.25,2.21,8.17,8.17,0,0,1-.25,2.22,3.46,3.46,0,0,1-1.29,1.84,3.7,3.7,0,0,1-2.21.66A3.78,3.78,0,0,1,249.23,326.44Zm3.72-.93a2.38,2.38,0,0,0,.83-1.29,8,8,0,0,0,.14-1.82,7.69,7.69,0,0,0-.14-1.82,2.24,2.24,0,0,0-.82-1.28,2.4,2.4,0,0,0-1.52-.48,2.33,2.33,0,0,0-1.48.48,2.36,2.36,0,0,0-.83,1.28,11.9,11.9,0,0,0,0,3.64,2.32,2.32,0,0,0,.82,1.29,2.43,2.43,0,0,0,1.52.47A2.32,2.32,0,0,0,253,325.51Z"/><path class="cls-1" d="M259.12,326.76l-2.51-8.64a.13.13,0,0,1,0-.09.18.18,0,0,1,.06-.13.25.25,0,0,1,.15,0h.85a.24.24,0,0,1,.25.2l1.87,7s0,.05.06.05,0,0,.05-.05l1.93-7a.24.24,0,0,1,.25-.2h.79a.24.24,0,0,1,.25.2l2,7s0,.05.06.05,0,0,.05-.05l1.93-7a.25.25,0,0,1,.27-.2l.83,0a.21.21,0,0,1,.18.07.22.22,0,0,1,0,.2l-2.55,8.62a.25.25,0,0,1-.25.2h-.88a.25.25,0,0,1-.26-.2l-1.94-6.64s0-.06-.05-.06,0,0-.06.06l-1.87,6.64a.25.25,0,0,1-.25.2h-.9A.25.25,0,0,1,259.12,326.76Z"/><path class="cls-1" d="M58,258.94l-1.36-4.15c-.05-.09-.11-.14-.17-.14H46.28c-.06,0-.12,0-.17.14l-1.32,4.15a.46.46,0,0,1-.48.37H42.68a.38.38,0,0,1-.34-.14.39.39,0,0,1,0-.37l7.48-22.91a.45.45,0,0,1,.47-.38h2.18a.45.45,0,0,1,.47.38l7.52,22.91a.43.43,0,0,1,0,.17.31.31,0,0,1-.12.24.41.41,0,0,1-.29.1H58.42A.44.44,0,0,1,58,258.94Zm-11-6.26h8.74c.13,0,.18-.07.13-.2l-4.42-13.91c0-.09-.05-.13-.1-.13s-.08,0-.1.13l-4.39,13.91C46.84,252.61,46.88,252.68,47,252.68Z"/><path class="cls-1" d="M78.48,244.11h-3.7a.15.15,0,0,0-.17.17v9.93a3,3,0,0,0,.73,2.3,3.33,3.33,0,0,0,2.29.66h.75a.39.39,0,0,1,.44.44v1.19a.43.43,0,0,1-.44.48H77.22a6.25,6.25,0,0,1-3.7-.92c-.84-.61-1.26-1.75-1.26-3.4V244.28a.15.15,0,0,0-.17-.17H70.15a.39.39,0,0,1-.44-.44v-1.12a.39.39,0,0,1,.44-.44h1.94a.15.15,0,0,0,.17-.17v-3.81a.39.39,0,0,1,.44-.44h1.46c.3,0,.45.14.45.44v3.81a.15.15,0,0,0,.17.17h3.7a.38.38,0,0,1,.44.44v1.12A.38.38,0,0,1,78.48,244.11Z"/><path class="cls-1" d="M85.43,258.33A6.57,6.57,0,0,1,83,254.86a15.21,15.21,0,0,1-.47-4.19,15.47,15.47,0,0,1,.44-4.14,6.47,6.47,0,0,1,2.43-3.44,7.12,7.12,0,0,1,4.27-1.26,7,7,0,0,1,4.2,1.26,6.32,6.32,0,0,1,2.39,3.4,15.2,15.2,0,0,1,.48,4.18,14.78,14.78,0,0,1-.48,4.19,6.47,6.47,0,0,1-2.43,3.47,7,7,0,0,1-4.16,1.25A7.13,7.13,0,0,1,85.43,258.33Zm7-1.76A4.41,4.41,0,0,0,94,254.14a15.61,15.61,0,0,0,.27-3.43,14.93,14.93,0,0,0-.27-3.44,4.24,4.24,0,0,0-1.55-2.43,4.57,4.57,0,0,0-2.87-.9,4.31,4.31,0,0,0-4.35,3.33,14.93,14.93,0,0,0-.27,3.44,14.77,14.77,0,0,0,.27,3.43,4.23,4.23,0,0,0,1.54,2.43,4.61,4.61,0,0,0,2.88.91A4.43,4.43,0,0,0,92.46,256.57Z"/><path class="cls-1" d="M112.48,242.11H114a.38.38,0,0,1,.44.44v16.32a.39.39,0,0,1-.44.44h-1.53a.39.39,0,0,1-.44-.44v-1.29c0-.07,0-.12-.07-.14s-.09,0-.14.07a5.14,5.14,0,0,1-4.48,2,6.87,6.87,0,0,1-3-.66,5.24,5.24,0,0,1-2.18-1.93,5.51,5.51,0,0,1-.8-3V242.55c0-.3.15-.44.45-.44h1.52c.3,0,.45.14.45.44v10.68a4.24,4.24,0,0,0,1.09,3.07,3.88,3.88,0,0,0,2.95,1.14,4.12,4.12,0,0,0,3.08-1.15,4.2,4.2,0,0,0,1.14-3.06V242.55A.39.39,0,0,1,112.48,242.11Z"/><path class="cls-1" d="M122.15,258.31a6.41,6.41,0,0,1-2.39-3.45,15.41,15.41,0,0,1-.45-4.22,16.5,16.5,0,0,1,.45-4.15,6.15,6.15,0,0,1,2.38-3.38,7,7,0,0,1,4.21-1.28,7.34,7.34,0,0,1,4.3,1.26,5.72,5.72,0,0,1,2.37,3.13,8.48,8.48,0,0,1,.2.92v.07c0,.25-.14.39-.41.44l-1.49.17h-.11c-.2,0-.34-.13-.4-.38a2.23,2.23,0,0,0-.07-.4,3.84,3.84,0,0,0-1.5-2.2,4.63,4.63,0,0,0-2.89-.9,4.45,4.45,0,0,0-2.84.9,4.13,4.13,0,0,0-1.48,2.4,15.76,15.76,0,0,0-.3,3.43,15.36,15.36,0,0,0,.3,3.47,4.14,4.14,0,0,0,1.48,2.43,4.45,4.45,0,0,0,2.84.91,4.82,4.82,0,0,0,2.88-.87,3.53,3.53,0,0,0,1.47-2.19.33.33,0,0,0,0-.17l0,0c0-.29.19-.42.51-.37l1.46.24a.42.42,0,0,1,.41.5l-.13.58a5.41,5.41,0,0,1-2.35,3.2,7.63,7.63,0,0,1-4.32,1.22A7,7,0,0,1,122.15,258.31Z"/><path class="cls-1" d="M149,243.47a5.72,5.72,0,0,1,1.61,4.28v11.12a.39.39,0,0,1-.44.44h-1.53a.39.39,0,0,1-.44-.44V248.23a4.26,4.26,0,0,0-1.12-3.08,3.87,3.87,0,0,0-2.93-1.17,4.27,4.27,0,0,0-2.87,1,3.85,3.85,0,0,0-1.31,2.59v11.32a.39.39,0,0,1-.44.44H138a.39.39,0,0,1-.44-.44V236a.39.39,0,0,1,.44-.44h1.53a.39.39,0,0,1,.44.44v7.86a.16.16,0,0,0,.07.15s.08,0,.1-.05a5.29,5.29,0,0,1,4.56-2A5.83,5.83,0,0,1,149,243.47Z"/><path class="cls-1" d="M165,258.33a6.47,6.47,0,0,1-2.43-3.47,14.78,14.78,0,0,1-.48-4.19,15.89,15.89,0,0,1,.44-4.14,6.57,6.57,0,0,1,2.43-3.44,7.12,7.12,0,0,1,4.27-1.26,7,7,0,0,1,4.2,1.26,6.34,6.34,0,0,1,2.4,3.4,15.64,15.64,0,0,1,.47,4.18,15.21,15.21,0,0,1-.47,4.19,6.53,6.53,0,0,1-2.44,3.47,7,7,0,0,1-4.16,1.25A7.08,7.08,0,0,1,165,258.33Zm7-1.76a4.41,4.41,0,0,0,1.56-2.43,15.61,15.61,0,0,0,.27-3.43,14.93,14.93,0,0,0-.27-3.44,4.19,4.19,0,0,0-1.55-2.43,4.55,4.55,0,0,0-2.87-.9,4.31,4.31,0,0,0-4.35,3.33,14.93,14.93,0,0,0-.27,3.44,14.77,14.77,0,0,0,.27,3.43,4.19,4.19,0,0,0,1.55,2.43,4.58,4.58,0,0,0,2.87.91A4.41,4.41,0,0,0,172.05,256.57Z"/><path class="cls-1" d="M185.27,238.45a4.58,4.58,0,0,0-.68,2.84v.65a.15.15,0,0,0,.17.17h3.68a.39.39,0,0,1,.44.44v1.33a.39.39,0,0,1-.44.44h-3.68a.15.15,0,0,0-.17.17v14.38a.39.39,0,0,1-.44.44h-1.49a.39.39,0,0,1-.45-.44V244.49c0-.12-.05-.17-.17-.17H179.9a.39.39,0,0,1-.44-.44v-1.33a.39.39,0,0,1,.44-.44H182a.15.15,0,0,0,.17-.17v-.78a9.26,9.26,0,0,1,.48-3.32,3.25,3.25,0,0,1,1.65-1.77,7.81,7.81,0,0,1,3.28-.56h.88a.39.39,0,0,1,.45.44v1.23a.39.39,0,0,1-.45.44h-.68A3.21,3.21,0,0,0,185.27,238.45Z"/><path class="cls-1" d="M202.22,258.31a6.37,6.37,0,0,1-2.4-3.45,15.88,15.88,0,0,1-.44-4.22,17,17,0,0,1,.44-4.15,6.21,6.21,0,0,1,2.39-3.38,7,7,0,0,1,4.21-1.28,7.37,7.37,0,0,1,4.3,1.26,5.7,5.7,0,0,1,2.36,3.13,8.59,8.59,0,0,1,.21.92v.07c0,.25-.14.39-.41.44l-1.5.17h-.1c-.2,0-.34-.13-.4-.38a2.23,2.23,0,0,0-.07-.4,3.89,3.89,0,0,0-1.5-2.2,4.65,4.65,0,0,0-2.89-.9,4.45,4.45,0,0,0-2.84.9,4.13,4.13,0,0,0-1.48,2.4,15.76,15.76,0,0,0-.3,3.43,15.36,15.36,0,0,0,.3,3.47,4.14,4.14,0,0,0,1.48,2.43,4.45,4.45,0,0,0,2.84.91,4.76,4.76,0,0,0,2.87-.87,3.5,3.5,0,0,0,1.48-2.19.47.47,0,0,0,0-.17l0,0c0-.29.19-.42.51-.37l1.46.24a.42.42,0,0,1,.41.5l-.14.58a5.4,5.4,0,0,1-2.34,3.2,7.68,7.68,0,0,1-4.32,1.22A7,7,0,0,1,202.22,258.31Z"/><path class="cls-1" d="M228.3,243.4a5.39,5.39,0,0,1,1.68,4.15v11.32a.39.39,0,0,1-.44.44H228a.39.39,0,0,1-.44-.44v-1.22a.15.15,0,0,0-.07-.14s-.09,0-.14.07a5.88,5.88,0,0,1-2.29,1.49,8.61,8.61,0,0,1-3,.51,6.42,6.42,0,0,1-4-1.22,4.39,4.39,0,0,1-1.62-3.74,4.9,4.9,0,0,1,1.85-4,8.05,8.05,0,0,1,5.15-1.48h4a.15.15,0,0,0,.17-.17v-1.26a3.74,3.74,0,0,0-1-2.73,4,4,0,0,0-3-1,5,5,0,0,0-2.62.62,2.66,2.66,0,0,0-1.29,1.69.41.41,0,0,1-.51.35l-1.67-.21c-.29,0-.43-.17-.4-.37a4.48,4.48,0,0,1,2.09-3,7.75,7.75,0,0,1,4.37-1.16A6.71,6.71,0,0,1,228.3,243.4Zm-2.21,13.11a3.11,3.11,0,0,0,1.48-2.71v-2.61a.15.15,0,0,0-.17-.17h-3.57a6.37,6.37,0,0,0-3.61.91,2.93,2.93,0,0,0-1.36,2.55,2.6,2.6,0,0,0,1.06,2.26,4.45,4.45,0,0,0,2.68.77A6.14,6.14,0,0,0,226.09,256.51Z"/><path class="cls-1" d="M235,258.87V236a.39.39,0,0,1,.44-.44H237a.39.39,0,0,1,.44.44v22.92a.39.39,0,0,1-.44.44h-1.53A.39.39,0,0,1,235,258.87Z"/><path class="cls-1" d="M243,238.52a1.69,1.69,0,0,1-.51-1.27A1.62,1.62,0,0,1,243,236a2.08,2.08,0,0,1,2.66,0,1.62,1.62,0,0,1,.51,1.26,1.69,1.69,0,0,1-.51,1.27,2.05,2.05,0,0,1-2.66,0Zm.14,20.35V242.55a.39.39,0,0,1,.44-.44h1.53a.38.38,0,0,1,.44.44v16.32a.39.39,0,0,1-.44.44h-1.53A.39.39,0,0,1,243.14,258.87Z"/><path class="cls-1" d="M255.45,238.45a4.52,4.52,0,0,0-.68,2.84v.65a.15.15,0,0,0,.17.17h3.67a.39.39,0,0,1,.44.44v1.33a.39.39,0,0,1-.44.44h-3.67c-.12,0-.17.05-.17.17v14.38a.39.39,0,0,1-.44.44h-1.5a.39.39,0,0,1-.44-.44V244.49a.15.15,0,0,0-.17-.17h-2.14a.39.39,0,0,1-.45-.44v-1.33c0-.3.15-.44.45-.44h2.14a.15.15,0,0,0,.17-.17v-.78a9.51,9.51,0,0,1,.47-3.32,3.25,3.25,0,0,1,1.65-1.77,7.84,7.84,0,0,1,3.28-.56h.89a.39.39,0,0,1,.44.44v1.23a.39.39,0,0,1-.44.44H258A3.18,3.18,0,0,0,255.45,238.45Z"/><path class="cls-1" d="M264.07,258.33a6.53,6.53,0,0,1-2.44-3.47,15.21,15.21,0,0,1-.47-4.19,15.89,15.89,0,0,1,.44-4.14,6.52,6.52,0,0,1,2.43-3.44,7.12,7.12,0,0,1,4.27-1.26,7,7,0,0,1,4.2,1.26,6.34,6.34,0,0,1,2.4,3.4,15.64,15.64,0,0,1,.47,4.18,15.21,15.21,0,0,1-.47,4.19,6.53,6.53,0,0,1-2.44,3.47,7,7,0,0,1-4.16,1.25A7.08,7.08,0,0,1,264.07,258.33Zm7-1.76a4.41,4.41,0,0,0,1.56-2.43,15.61,15.61,0,0,0,.27-3.43,14.93,14.93,0,0,0-.27-3.44,4.19,4.19,0,0,0-1.55-2.43,4.55,4.55,0,0,0-2.87-.9,4.31,4.31,0,0,0-4.35,3.33,14.93,14.93,0,0,0-.27,3.44,14.77,14.77,0,0,0,.27,3.43,4.19,4.19,0,0,0,1.55,2.43,4.58,4.58,0,0,0,2.87.91A4.41,4.41,0,0,0,271.09,256.57Z"/><path class="cls-1" d="M289.07,242.35a.4.4,0,0,1,.24.54l-.34,1.5q-.11.41-.54.27a4.82,4.82,0,0,0-1.67-.17,4,4,0,0,0-2.92,1.31,4.41,4.41,0,0,0-1.16,3.14v9.93a.39.39,0,0,1-.44.44h-1.53a.39.39,0,0,1-.44-.44V242.55a.38.38,0,0,1,.44-.44h1.53a.39.39,0,0,1,.44.44v1.9c0,.09,0,.14.05.16s.07,0,.12-.09a5.36,5.36,0,0,1,1.82-1.9,4.68,4.68,0,0,1,2.53-.68A3.78,3.78,0,0,1,289.07,242.35Z"/><path class="cls-1" d="M304.08,243.47a5.73,5.73,0,0,1,1.62,4.28v11.12a.39.39,0,0,1-.44.44h-1.53a.39.39,0,0,1-.44-.44V248.23a4.27,4.27,0,0,0-1.13-3.08,3.85,3.85,0,0,0-2.92-1.17,4.23,4.23,0,0,0-2.87,1,3.81,3.81,0,0,0-1.31,2.59v11.32a.39.39,0,0,1-.44.44h-1.54a.39.39,0,0,1-.44-.44V242.55a.39.39,0,0,1,.44-.44h1.54a.39.39,0,0,1,.44.44v1.26a.18.18,0,0,0,.06.15c.05,0,.08,0,.11-.05a5.26,5.26,0,0,1,4.55-2A5.82,5.82,0,0,1,304.08,243.47Z"/><path class="cls-1" d="M311.1,238.52a1.69,1.69,0,0,1-.51-1.27,1.62,1.62,0,0,1,.51-1.26,2.08,2.08,0,0,1,2.66,0,1.62,1.62,0,0,1,.51,1.26,1.69,1.69,0,0,1-.51,1.27,2,2,0,0,1-2.66,0Zm.14,20.35V242.55a.39.39,0,0,1,.44-.44h1.53a.38.38,0,0,1,.44.44v16.32a.39.39,0,0,1-.44.44h-1.53A.39.39,0,0,1,311.24,258.87Z"/><path class="cls-1" d="M330,243.4a5.39,5.39,0,0,1,1.68,4.15v11.32a.39.39,0,0,1-.44.44H329.7a.39.39,0,0,1-.44-.44v-1.22c0-.07,0-.12-.07-.14s-.09,0-.13.07a6,6,0,0,1-2.3,1.49,8.61,8.61,0,0,1-3,.51,6.44,6.44,0,0,1-4-1.22,4.39,4.39,0,0,1-1.62-3.74,4.88,4.88,0,0,1,1.86-4,8,8,0,0,1,5.15-1.48h3.94a.15.15,0,0,0,.17-.17v-1.26a3.74,3.74,0,0,0-1-2.73,4,4,0,0,0-3-1,5,5,0,0,0-2.62.62,2.66,2.66,0,0,0-1.29,1.69.41.41,0,0,1-.51.35l-1.66-.21c-.3,0-.43-.17-.41-.37a4.48,4.48,0,0,1,2.09-3,7.77,7.77,0,0,1,4.37-1.16A6.71,6.71,0,0,1,330,243.4Zm-2.21,13.11a3.11,3.11,0,0,0,1.48-2.71v-2.61a.15.15,0,0,0-.17-.17h-3.57a6.32,6.32,0,0,0-3.6.91,2.91,2.91,0,0,0-1.36,2.55,2.61,2.61,0,0,0,1.05,2.26,4.46,4.46,0,0,0,2.69.77A6.13,6.13,0,0,0,327.78,256.51Z"/></g></svg>