<?xml version="1.0" encoding="utf-8"?>
<!-- Generator: Adobe Illustrator 22.0.1, SVG Export Plug-In . SVG Version: 6.00 Build 0)  -->
<svg version="1.1" id="Ebene_1" xmlns="http://www.w3.org/2000/svg" xmlns:xlink="http://www.w3.org/1999/xlink" x="0px" y="0px"
	 viewBox="0 0 375 600" style="enable-background:new 0 0 375 600;" xml:space="preserve">
<g>
	<path d="M58.7,454.6L77,480.1l9.9-6.1l-15.7-21.4c1.9-0.7,3.6-1.7,5-2.8c4.2-3.1,6.3-8.2,6.3-15.3c0-5.8-1.9-10.3-5.6-13.6
		c-2.1-2-4.6-3.3-7.4-4.1c-2.8-0.8-6.5-1.2-11.2-1.2H40.4v61.5h13.2v-22.4H56C57.3,454.7,58.2,454.6,58.7,454.6L58.7,454.6
		L58.7,454.6z M54.7,444.9h-1v-19.5h2.4c5.5,0,9.2,0.8,10.9,2.5s2.6,4.2,2.6,7.7s-1.1,5.9-3.2,7.4C64.7,444.3,60.8,444.9,54.7,444.9
		L54.7,444.9L54.7,444.9z M133.7,467.9c-1.5,0.4-2.6,0.6-3.4,0.6c-1.5,0-2.3-0.9-2.3-2.6v-19.3c0-6.4-1.3-11-4-13.7s-7.1-4-13.4-4
		c-2.3,0-5.1,0.4-8.4,1.1s-6.1,1.7-8.3,3.1l2.7,8.1c3.9-1.3,7.3-1.9,10.4-1.9s5.3,0.5,6.6,1.4s1.9,3,1.9,6.2v4.5
		c-2.2-0.2-5.1-0.3-8.8-0.3c-3.7,0-7.2,0.8-10.5,2.4c-1.8,0.9-3.3,2.4-4.5,4.3c-1.2,2-1.7,4.3-1.7,7.1c0,4.2,1.2,7.5,3.7,9.9
		s6.1,3.6,10.9,3.6s9-1.5,12.5-4.4c1.8,2.8,4.5,4.2,8.2,4.2s7.1-0.9,10.3-2.6L133.7,467.9L133.7,467.9z M101.9,463.4
		c0-3.9,3-5.9,9.1-5.9c1.3,0,2.8,0.1,4.5,0.2v9.7c-2.5,1.6-5,2.4-7.5,2.4C103.9,469.7,101.9,467.6,101.9,463.4L101.9,463.4
		L101.9,463.4z M151.5,435.1l-1.1-5.2h-10.6v47.2h12.9V443c2.4-2.3,5.3-3.4,8.7-3.4c1.3,0,2.4,0.2,3.2,0.6c1.7,0.7,2.5,3.1,2.5,7v30
		H180V445c0-0.9,0-1.5-0.1-1.9c2.4-2.3,5.3-3.4,8.7-3.4c1.3,0,2.4,0.2,3.2,0.6c1.7,0.7,2.5,3.1,2.5,7v30h12.9V445
		c0-5-0.9-8.9-2.8-11.6c-1.9-2.7-5.4-4.1-10.7-4.1c-2.9,0-5.8,0.6-8.6,1.9c-2.9,1.3-5.1,2.7-6.8,4.5c-1-2.1-2.4-3.7-4.1-4.8
		c-1.7-1-4.1-1.6-7.3-1.6c-3.1,0-6.1,0.6-8.9,1.8C155.3,432.1,153.1,433.6,151.5,435.1L151.5,435.1L151.5,435.1z M216.6,412.6v62.5
		c1.9,0.9,4.8,1.6,8.6,2.3c3.9,0.6,7.5,1,10.9,1c7.8,0,13.6-2.3,17.1-6.9c3.6-4.6,5.3-11.3,5.3-20.1c0-7.1-1.6-12.6-4.9-16.4
		c-3.3-3.8-7.4-5.8-12.4-5.8c-2.2,0-4.4,0.4-6.6,1.1c-2.2,0.8-3.9,1.7-5.2,2.7v-20.3h-12.8V412.6z M229.5,467.4V442
		c2.7-1.7,5.4-2.5,8.1-2.5c2.7,0,4.7,1,6,2.9c1.3,2,2,5.4,2,10.3s-0.8,8.6-2.5,11.2s-4.6,3.9-8.8,3.9
		C232.7,467.9,231.1,467.7,229.5,467.4L229.5,467.4L229.5,467.4z M286.6,467.3c-1.7,0.4-3.4,0.6-5,0.6s-2.7-0.4-3.2-1.1
		s-0.8-2-0.8-3.8v-50.3h-13v49.6c0,2,0,3.6,0.1,4.7s0.4,2.5,0.9,4.2s1.2,2.9,2.2,3.8c0.9,0.9,2.4,1.6,4.3,2.3c1.9,0.7,4.3,1,7.3,1
		c2.9,0,6-0.7,9.1-2L286.6,467.3L286.6,467.3z M335.7,467.9c-1.5,0.4-2.6,0.6-3.4,0.6c-1.5,0-2.3-0.9-2.3-2.6v-19.3
		c0-6.4-1.3-11-4-13.7s-7.1-4-13.4-4c-2.3,0-5.1,0.4-8.4,1.1s-6.1,1.7-8.3,3.1l2.7,8.1c3.9-1.3,7.3-1.9,10.4-1.9s5.3,0.5,6.6,1.4
		c1.3,0.9,1.9,3,1.9,6.2v4.5c-2.2-0.2-5.1-0.3-8.8-0.3c-3.6,0-7.2,0.8-10.5,2.4c-1.8,0.9-3.3,2.4-4.5,4.3c-1.2,2-1.7,4.3-1.7,7.1
		c0,4.2,1.2,7.5,3.7,9.9s6.1,3.6,10.9,3.6s9-1.5,12.5-4.4c1.8,2.8,4.5,4.2,8.2,4.2s7.1-0.9,10.3-2.6L335.7,467.9L335.7,467.9z
		 M303.9,463.4c0-3.9,3-5.9,9.1-5.9c1.3,0,2.8,0.1,4.5,0.2v9.7c-2.5,1.6-5,2.4-7.5,2.4C305.9,469.7,303.9,467.6,303.9,463.4
		L303.9,463.4L303.9,463.4z"/>
	<path d="M92.5,387.8l-0.3-1.3c-0.4,0.1-0.8,0.2-1.2,0.2c-0.4,0-0.7-0.1-0.8-0.2c-0.1-0.1-0.2-0.2-0.2-0.4c0-0.1,0-0.3,0-0.6v-6.1
		h2.7l0.2-1.4H90v-2.6l-1.6,0.3l-0.2,2.3l-1.8,0.1l-0.2,1.2l1.9,0.1v5.9c0,1,0.2,1.8,0.5,2.2c0.3,0.4,1,0.6,2,0.6
		C91.3,388.2,91.9,388.1,92.5,387.8L92.5,387.8L92.5,387.8z M97.2,378.3c-0.6,0.3-1.1,0.6-1.4,0.9v-5.1l-1.8,0.2v13.6h1.8v-7.3
		c0.3-0.4,0.7-0.7,1.3-0.9c0.5-0.2,1-0.4,1.5-0.4s0.8,0.2,0.9,0.5c0.2,0.3,0.2,0.8,0.2,1.4v6.7h1.8v-6.8c0-1-0.2-1.8-0.6-2.4
		s-1.1-0.9-2-0.9C98.4,377.9,97.8,378,97.2,378.3L97.2,378.3z M110.6,387.4l-0.4-1.2c-0.8,0.4-1.7,0.5-2.6,0.5s-1.6-0.3-2-1
		c-0.5-0.7-0.7-1.6-0.7-2.7h5.7c0.2-0.7,0.3-1.3,0.3-1.8c0-1-0.3-1.8-0.9-2.4s-1.4-0.9-2.5-0.9c-1.3,0-2.3,0.5-3.1,1.4
		c-0.8,0.9-1.1,2.2-1.1,3.7s0.4,2.8,1.1,3.7c0.7,1,1.8,1.5,3.2,1.5C108.7,388.2,109.7,387.9,110.6,387.4L110.6,387.4L110.6,387.4z
		 M109.3,381.7h-4.2c0.1-0.4,0.3-0.9,0.6-1.4c0.2-0.3,0.4-0.5,0.8-0.7c0.3-0.2,0.8-0.3,1.3-0.3s0.9,0.2,1.2,0.6
		c0.3,0.4,0.4,1,0.4,1.7v0.1H109.3z M124,383c0-1.8-0.4-3.1-1.1-3.9s-1.7-1.2-2.9-1.2c-1.2,0-2.2,0.4-3,1.2
		c-0.8,0.8-1.1,2.1-1.1,3.9s0.4,3.1,1.1,3.9s1.7,1.2,2.9,1.2s2.2-0.4,3-1.2C123.6,386.1,124,384.8,124,383L124,383z M121.6,380.1
		c0.4,0.5,0.6,1.5,0.6,2.8s-0.2,2.3-0.7,2.9c-0.4,0.6-1,0.9-1.6,0.9c-1.5,0-2.3-1.2-2.3-3.7s0.8-3.7,2.3-3.7
		C120.7,379.3,121.3,379.6,121.6,380.1L121.6,380.1z M132.8,378.7c-0.4-0.6-1.1-0.9-2-0.9c-0.6,0-1.2,0.1-1.8,0.4s-1.1,0.6-1.5,1
		l-0.2-1.2h-1.5v9.9h1.8v-7.3c0.3-0.4,0.7-0.7,1.3-0.9c0.6-0.3,1.1-0.4,1.5-0.4c0.5,0,0.8,0.2,0.9,0.5c0.2,0.3,0.2,0.8,0.2,1.4v6.7
		h1.8v-6.8C133.4,380.1,133.2,379.3,132.8,378.7L132.8,378.7z M142.5,387.4l-0.4-1.2c-0.8,0.4-1.7,0.5-2.6,0.5c-0.9,0-1.6-0.3-2-1
		c-0.5-0.7-0.7-1.6-0.7-2.7h5.7c0.2-0.7,0.3-1.3,0.3-1.8c0-1-0.3-1.8-0.9-2.4c-0.6-0.6-1.4-0.9-2.5-0.9c-1.3,0-2.3,0.5-3.1,1.4
		s-1.1,2.2-1.1,3.7s0.4,2.8,1.1,3.7c0.7,1,1.8,1.5,3.2,1.5C140.5,388.2,141.5,387.9,142.5,387.4L142.5,387.4L142.5,387.4z
		 M141.1,381.7h-4.2c0.1-0.4,0.3-0.9,0.6-1.4c0.2-0.3,0.4-0.5,0.8-0.7c0.3-0.2,0.8-0.3,1.3-0.3s0.9,0.2,1.2,0.6s0.4,1,0.4,1.7v0.1
		H141.1z M143.9,387.5c0.3,0.2,0.7,0.4,1.2,0.5c0.6,0.1,1.1,0.2,1.6,0.2c1.2,0,2.1-0.3,2.7-0.9c0.6-0.6,1-1.3,1-2.2
		c0-0.6-0.2-1.1-0.5-1.5s-0.7-0.7-1.2-0.9c-0.5-0.2-0.9-0.4-1.4-0.5c-0.5-0.2-0.9-0.4-1.2-0.6c-0.3-0.3-0.5-0.6-0.5-1
		s0.2-0.7,0.5-0.9c0.3-0.2,0.8-0.4,1.4-0.4c0.6,0,1.3,0.1,2.1,0.4l0.4-1.3c-0.6-0.4-1.5-0.6-2.6-0.6s-1.9,0.3-2.5,0.8
		s-0.9,1.2-0.9,2.1c0,0.6,0.2,1.1,0.5,1.5s0.7,0.7,1.2,0.9c0.5,0.2,0.9,0.4,1.4,0.5c0.5,0.2,0.8,0.4,1.2,0.7c0.3,0.3,0.5,0.6,0.5,1
		s-0.2,0.7-0.5,1s-0.9,0.4-1.6,0.4c-0.7,0-1.5-0.2-2.4-0.6L143.9,387.5L143.9,387.5z M160.8,387.8l-0.3-1.3
		c-0.4,0.1-0.8,0.2-1.2,0.2s-0.7-0.1-0.8-0.2s-0.2-0.2-0.2-0.4c0-0.1,0-0.3,0-0.6v-6.1h2.7l0.2-1.4h-2.9v-2.6l-1.6,0.3l-0.2,2.3
		l-1.8,0.1l-0.2,1.2l1.9,0.1v5.9c0,1,0.2,1.8,0.5,2.2c0.3,0.4,1,0.6,2,0.6C159.6,388.2,160.2,388.1,160.8,387.8L160.8,387.8
		L160.8,387.8z M165.9,378.3c-0.6,0.3-1.1,0.6-1.4,0.9v-5.1l-1.8,0.2v13.6h1.8v-7.3c0.3-0.4,0.7-0.7,1.3-0.9c0.5-0.2,1-0.4,1.5-0.4
		s0.8,0.2,0.9,0.5c0.2,0.3,0.2,0.8,0.2,1.4v6.7h1.8v-6.8c0-1-0.2-1.8-0.6-2.4c-0.4-0.6-1.1-0.9-2-0.9
		C167,377.9,166.5,378,165.9,378.3L165.9,378.3z M176.5,387.9c0.5-0.2,0.9-0.4,1.2-0.7c0.3,0.7,0.8,1,1.5,1s1.3-0.1,1.7-0.4
		l-0.3-1.1c-0.4,0.1-0.6,0.2-0.9,0.2c-0.3,0-0.5-0.2-0.5-0.7v-4.7c0-1.3-0.3-2.2-0.8-2.7s-1.4-0.8-2.7-0.8c-0.5,0-1,0.1-1.6,0.2
		s-1.1,0.3-1.5,0.6l0.4,1.2c1-0.4,1.8-0.5,2.6-0.5s1.2,0.1,1.5,0.4s0.4,0.8,0.4,1.5v1.5c-0.6-0.1-1.3-0.1-2.1-0.1
		c-0.7,0-1.5,0.2-2.1,0.5c-0.4,0.2-0.7,0.5-0.9,0.8c-0.2,0.4-0.4,0.8-0.4,1.4c0,0.8,0.2,1.5,0.8,2c0.5,0.5,1.2,0.7,2,0.7
		C175.5,388.2,176,388.1,176.5,387.9L176.5,387.9z M173.8,385.3c0-1,0.8-1.5,2.3-1.5c0.7,0,1.2,0,1.5,0.1v2.3
		c-0.7,0.5-1.5,0.7-2.3,0.7C174.3,386.8,173.8,386.3,173.8,385.3L173.8,385.3L173.8,385.3z M187.5,387.8l-0.3-1.3
		c-0.4,0.1-0.8,0.2-1.2,0.2s-0.7-0.1-0.8-0.2s-0.2-0.2-0.2-0.4c0-0.1,0-0.3,0-0.6v-6.1h2.7l0.2-1.4H185v-2.6l-1.6,0.3l-0.2,2.3
		l-1.8,0.1l-0.2,1.2l1.9,0.1v5.9c0,1,0.2,1.8,0.5,2.2c0.3,0.4,1,0.6,2,0.6C186.3,388.2,186.9,388.1,187.5,387.8L187.5,387.8
		L187.5,387.8z M193.7,374.9v13h1.9v-13H193.7L193.7,374.9z M202.6,386c0,1.5,0.6,2.2,2,2.2c0.8,0,1.4-0.1,2-0.4l-0.3-1.3
		c-0.4,0.1-0.8,0.2-1.2,0.2c-0.5,0-0.7-0.3-0.7-0.8v-11.7h-1.8V386L202.6,386z M209.5,378l-1.8,0.2v9.8h1.8V378L209.5,378z
		 M207.7,376c0.2,0.2,0.5,0.4,0.8,0.4s0.6-0.1,0.8-0.4c0.2-0.2,0.3-0.5,0.3-0.8s-0.1-0.6-0.3-0.8c-0.2-0.2-0.5-0.3-0.8-0.3
		s-0.6,0.1-0.8,0.3c-0.2,0.2-0.4,0.5-0.4,0.8S207.5,375.8,207.7,376L207.7,376z M213.9,382.6l4.3,5.3h2.1c-0.5-0.6-1.2-1.5-2.3-2.7
		s-1.8-2.2-2.3-2.7l4-4.3h-2.2l-3.7,4.3v-8.3l-1.8,0.2V388h1.8L213.9,382.6L213.9,382.6z M228.1,387.4l-0.4-1.2
		c-0.8,0.4-1.7,0.5-2.6,0.5c-0.9,0-1.6-0.3-2-1c-0.5-0.7-0.7-1.6-0.7-2.7h5.7c0.2-0.7,0.3-1.3,0.3-1.8c0-1-0.3-1.8-0.9-2.4
		c-0.6-0.6-1.4-0.9-2.5-0.9c-1.3,0-2.3,0.5-3.1,1.4s-1.1,2.2-1.1,3.7s0.4,2.8,1.1,3.7c0.7,1,1.8,1.5,3.2,1.5
		C226.2,388.2,227.2,387.9,228.1,387.4L228.1,387.4L228.1,387.4z M226.8,381.7h-4.2c0.1-0.4,0.3-0.9,0.6-1.4
		c0.2-0.3,0.4-0.5,0.8-0.7c0.3-0.2,0.8-0.3,1.3-0.3s0.9,0.2,1.2,0.6s0.4,1,0.4,1.7v0.1H226.8z M231,386.8c0.6,0.9,1.4,1.3,2.5,1.3
		s2-0.3,2.9-1l0.3,1h1.4v-13.8h-1.8v4c-0.5-0.3-1.2-0.4-1.9-0.4c-2.8,0-4.3,1.8-4.3,5.3C230.1,384.7,230.4,385.9,231,386.8
		L231,386.8z M236.2,379.7v6.2c-0.6,0.6-1.4,0.9-2.3,0.9c-1.3,0-2-1.2-2-3.5c0-2.6,0.8-3.8,2.4-3.8
		C235,379.3,235.7,379.5,236.2,379.7L236.2,379.7L236.2,379.7z M249.7,387.8l-0.3-1.3c-0.4,0.1-0.8,0.2-1.2,0.2s-0.7-0.1-0.8-0.2
		s-0.2-0.2-0.2-0.4c0-0.1,0-0.3,0-0.6v-6.1h2.7l0.2-1.4h-2.9v-2.6l-1.6,0.3l-0.2,2.3l-1.8,0.1l-0.2,1.2l1.9,0.1v5.9
		c0,1,0.2,1.8,0.5,2.2c0.3,0.4,1,0.6,2,0.6C248.5,388.2,249.1,388.1,249.7,387.8L249.7,387.8L249.7,387.8z M254.8,378.3
		c-0.6,0.3-1.1,0.6-1.4,0.9v-5.1l-1.8,0.2v13.6h1.8v-7.3c0.3-0.4,0.7-0.7,1.3-0.9c0.5-0.2,1-0.4,1.5-0.4s0.8,0.2,0.9,0.5
		c0.2,0.3,0.2,0.8,0.2,1.4v6.7h1.8v-6.8c0-1-0.2-1.8-0.6-2.4s-1.1-0.9-2-0.9C255.9,377.9,255.4,378,254.8,378.3L254.8,378.3z
		 M268.6,387.4l-0.4-1.2c-0.8,0.4-1.7,0.5-2.6,0.5s-1.6-0.3-2-1c-0.5-0.7-0.7-1.6-0.7-2.7h5.7c0.2-0.7,0.3-1.3,0.3-1.8
		c0-1-0.3-1.8-0.9-2.4s-1.4-0.9-2.5-0.9c-1.3,0-2.3,0.5-3.1,1.4c-0.8,0.9-1.1,2.2-1.1,3.7s0.4,2.8,1.1,3.7c0.7,1,1.8,1.5,3.2,1.5
		C266.6,388.2,267.7,387.9,268.6,387.4L268.6,387.4L268.6,387.4z M267.3,381.7h-4.2c0.1-0.4,0.3-0.9,0.6-1.4
		c0.2-0.3,0.4-0.5,0.8-0.7c0.3-0.2,0.8-0.3,1.3-0.3s0.9,0.2,1.2,0.6C267.3,380.3,267.4,380.9,267.3,381.7L267.3,381.7L267.3,381.7z
		 M282.5,380.6c0.4-0.3,0.8-0.6,1.3-0.9c0.5-0.2,1-0.4,1.4-0.4s0.8,0.2,0.9,0.5c0.2,0.3,0.2,0.8,0.2,1.4v6.7h1.8v-6.8
		c0-2.2-0.9-3.3-2.6-3.3c-0.5,0-1.1,0.1-1.8,0.4c-0.6,0.3-1.1,0.6-1.5,1c-0.4-1-1.1-1.4-2.3-1.4c-0.6,0-1.1,0.1-1.7,0.4
		s-1.1,0.6-1.4,1l-0.2-1.2h-1.5v9.9h1.8v-7.3c0.3-0.4,0.7-0.7,1.2-0.9c0.5-0.2,1-0.4,1.5-0.4s0.8,0.2,0.9,0.5
		c0.2,0.3,0.2,0.8,0.2,1.4v6.7h1.8v-6.7C282.5,381,282.5,380.7,282.5,380.6L282.5,380.6L282.5,380.6z M298.4,383
		c0-1.8-0.4-3.1-1.1-3.9s-1.7-1.2-2.9-1.2c-1.2,0-2.2,0.4-3,1.2c-0.8,0.8-1.1,2.1-1.1,3.9s0.4,3.1,1.1,3.9s1.7,1.2,2.9,1.2
		c1.2,0,2.2-0.4,3-1.2C298,386.1,298.4,384.8,298.4,383L298.4,383z M296,380.1c0.4,0.5,0.6,1.5,0.6,2.8s-0.2,2.3-0.7,2.9
		c-0.4,0.6-1,0.9-1.6,0.9c-1.5,0-2.3-1.2-2.3-3.7s0.8-3.7,2.3-3.7C295.1,379.3,295.6,379.6,296,380.1L296,380.1z M300,387.5
		c0.3,0.2,0.7,0.4,1.2,0.5c0.6,0.1,1.1,0.2,1.6,0.2c1.2,0,2.1-0.3,2.7-0.9s1-1.3,1-2.2c0-0.6-0.2-1.1-0.5-1.5s-0.7-0.7-1.2-0.9
		c-0.5-0.2-0.9-0.4-1.4-0.5c-0.5-0.2-0.9-0.4-1.2-0.6c-0.3-0.3-0.5-0.6-0.5-1s0.2-0.7,0.5-0.9c0.3-0.2,0.8-0.4,1.4-0.4
		s1.3,0.1,2.1,0.4l0.4-1.3c-0.7-0.4-1.5-0.6-2.6-0.6s-1.9,0.3-2.5,0.8s-0.9,1.2-0.9,2.1c0,0.6,0.2,1.1,0.5,1.5s0.7,0.7,1.2,0.9
		c0.5,0.2,0.9,0.4,1.4,0.5c0.5,0.2,0.8,0.4,1.2,0.7c0.3,0.3,0.5,0.6,0.5,1s-0.2,0.7-0.5,1s-0.9,0.4-1.6,0.4s-1.5-0.2-2.4-0.6
		L300,387.5L300,387.5z M314,387.8l-0.3-1.3c-0.4,0.1-0.8,0.2-1.2,0.2c-0.4,0-0.7-0.1-0.8-0.2c-0.1-0.1-0.2-0.2-0.2-0.4
		c0-0.1,0-0.3,0-0.6v-6.1h2.7l0.2-1.4h-2.9v-2.6l-1.6,0.3l-0.2,2.3l-1.8,0.1l-0.2,1.2l1.9,0.1v5.9c0,1,0.2,1.8,0.5,2.2
		c0.3,0.4,1,0.6,2,0.6C312.7,388.2,313.3,388.1,314,387.8L314,387.8L314,387.8z M315.5,386.8c0,0.3,0.1,0.6,0.4,0.9
		c0.2,0.2,0.5,0.4,0.8,0.4s0.6-0.1,0.8-0.4c0.2-0.2,0.3-0.5,0.3-0.9c0-0.3-0.1-0.6-0.3-0.8c-0.2-0.2-0.5-0.3-0.8-0.3
		s-0.6,0.1-0.8,0.3C315.6,386.2,315.5,386.5,315.5,386.8L315.5,386.8z"/>
	<path d="M87.4,346.9v13h1.9v-13H87.4L87.4,346.9z M99.9,359.9c0.5-0.2,1-0.5,1.4-0.8l0.2,1.1h1.4v-10h-1.8v7.6
		c-0.3,0.3-0.7,0.5-1.2,0.7s-1,0.2-1.5,0.2s-0.9-0.2-1-0.5c-0.2-0.3-0.3-0.8-0.3-1.4v-6.7h-1.8v6.8c0,1.1,0.2,1.9,0.6,2.5
		s1.2,0.9,2.2,0.9C98.8,360.2,99.3,360.1,99.9,359.9L99.9,359.9z M104.5,359.5c0.3,0.2,0.7,0.4,1.2,0.5c0.6,0.1,1.1,0.2,1.6,0.2
		c1.2,0,2.1-0.3,2.7-0.9s1-1.3,1-2.2c0-0.6-0.2-1.1-0.5-1.5s-0.7-0.7-1.2-0.9c-0.5-0.2-0.9-0.4-1.4-0.5c-0.5-0.2-0.9-0.4-1.2-0.6
		c-0.3-0.3-0.5-0.6-0.5-1s0.2-0.7,0.5-0.9c0.3-0.2,0.8-0.4,1.4-0.4s1.3,0.1,2.1,0.4l0.4-1.3c-0.7-0.4-1.5-0.6-2.6-0.6
		s-1.9,0.3-2.5,0.8s-0.9,1.2-0.9,2.1c0,0.6,0.2,1.1,0.5,1.5s0.7,0.7,1.2,0.9c0.5,0.2,0.9,0.4,1.4,0.5c0.5,0.2,0.8,0.4,1.2,0.7
		c0.3,0.3,0.5,0.6,0.5,1s-0.2,0.7-0.5,1s-0.9,0.4-1.6,0.4s-1.5-0.2-2.4-0.6L104.5,359.5L104.5,359.5z M119.6,359.4l-0.4-1.2
		c-0.8,0.4-1.7,0.5-2.6,0.5s-1.6-0.3-2-1c-0.5-0.7-0.7-1.6-0.7-2.7h5.7c0.2-0.7,0.3-1.3,0.3-1.8c0-1-0.3-1.8-0.9-2.4
		s-1.4-0.9-2.5-0.9c-1.3,0-2.3,0.5-3.1,1.4c-0.8,0.9-1.1,2.2-1.1,3.7s0.4,2.7,1.1,3.7s1.8,1.5,3.2,1.5
		C117.7,360.2,118.7,359.9,119.6,359.4L119.6,359.4L119.6,359.4z M118.3,353.7h-4.2c0.1-0.4,0.3-0.9,0.6-1.4
		c0.2-0.3,0.4-0.5,0.8-0.7c0.3-0.2,0.8-0.3,1.3-0.3s0.9,0.2,1.2,0.6c0.3,0.4,0.4,1,0.4,1.7v0.1H118.3z M122.1,358.8
		c0.6,0.9,1.4,1.3,2.5,1.3s2-0.3,2.9-1l0.3,1h1.4v-13.8h-1.8v4c-0.5-0.3-1.2-0.4-1.9-0.4c-2.8,0-4.3,1.8-4.3,5.3
		C121.2,356.7,121.5,357.9,122.1,358.8L122.1,358.8z M127.3,351.7v6.2c-0.6,0.6-1.4,0.9-2.3,0.9c-1.3,0-2-1.2-2-3.5
		c0-2.6,0.8-3.8,2.4-3.8C126.2,351.3,126.8,351.5,127.3,351.7L127.3,351.7L127.3,351.7z M140.1,359.8l-0.3-1.3
		c-0.4,0.1-0.8,0.2-1.2,0.2s-0.7-0.1-0.8-0.2s-0.2-0.2-0.2-0.4c0-0.1,0-0.3,0-0.6v-6.1h2.7l0.2-1.4h-2.9v-2.6l-1.6,0.3l-0.2,2.3
		l-1.8,0.1l-0.2,1.2l1.9,0.1v5.9c0,1,0.2,1.8,0.5,2.2c0.3,0.4,1,0.6,2,0.6C138.8,360.2,139.5,360.1,140.1,359.8L140.1,359.8
		L140.1,359.8z M144.8,350.3c-0.6,0.3-1.1,0.6-1.4,0.9v-5l-1.8,0.2V360h1.8v-7.3c0.3-0.4,0.7-0.7,1.3-0.9c0.5-0.2,1-0.4,1.5-0.4
		s0.8,0.2,0.9,0.5c0.2,0.3,0.2,0.8,0.2,1.4v6.7h1.8v-6.8c0-1-0.2-1.8-0.6-2.4c-0.4-0.6-1.1-0.9-2-0.9
		C145.9,349.9,145.3,350,144.8,350.3L144.8,350.3z M158.2,359.4l-0.4-1.2c-0.8,0.4-1.7,0.5-2.6,0.5c-0.9,0-1.6-0.3-2-1
		c-0.5-0.7-0.7-1.6-0.7-2.7h5.7c0.2-0.7,0.3-1.3,0.3-1.8c0-1-0.3-1.8-0.9-2.4c-0.6-0.6-1.4-0.9-2.5-0.9c-1.3,0-2.3,0.5-3.1,1.4
		s-1.1,2.2-1.1,3.7s0.4,2.7,1.1,3.7c0.7,1,1.8,1.5,3.2,1.5C156.2,360.2,157.2,359.9,158.2,359.4L158.2,359.4L158.2,359.4z
		 M156.8,353.7h-4.2c0.1-0.4,0.3-0.9,0.6-1.4c0.2-0.3,0.4-0.5,0.8-0.7c0.3-0.2,0.8-0.3,1.3-0.3s0.9,0.2,1.2,0.6s0.4,1,0.4,1.7v0.1
		H156.8z M171.3,352.6c0.4-0.3,0.8-0.6,1.3-0.9c0.5-0.2,1-0.4,1.4-0.4c0.5,0,0.8,0.2,0.9,0.5c0.2,0.3,0.2,0.8,0.2,1.4v6.7h1.8v-6.8
		c0-2.2-0.9-3.3-2.6-3.3c-0.5,0-1.1,0.1-1.8,0.4c-0.6,0.3-1.1,0.6-1.5,1c-0.4-1-1.1-1.4-2.3-1.4c-0.6,0-1.1,0.1-1.7,0.4
		c-0.6,0.3-1.1,0.6-1.4,1l-0.2-1.2h-1.5v9.9h1.8v-7.3c0.3-0.4,0.7-0.7,1.2-0.9c0.5-0.2,1-0.4,1.5-0.4s0.8,0.2,0.9,0.5
		c0.2,0.3,0.2,0.8,0.2,1.4v6.7h1.8v-6.7C171.3,353,171.3,352.7,171.3,352.6L171.3,352.6L171.3,352.6z M186.8,355
		c0-1.8-0.4-3.1-1.1-3.9c-0.7-0.8-1.7-1.2-2.9-1.2s-2.2,0.4-3,1.2c-0.8,0.8-1.1,2.1-1.1,3.9s0.4,3.1,1.1,3.9
		c0.7,0.8,1.7,1.2,2.9,1.2s2.2-0.4,3-1.2S186.8,356.8,186.8,355L186.8,355z M184.4,352.1c0.4,0.5,0.6,1.5,0.6,2.8
		c0,1.4-0.2,2.3-0.7,2.9c-0.4,0.6-1,0.9-1.6,0.9c-1.5,0-2.3-1.2-2.3-3.7s0.8-3.7,2.3-3.7C183.5,351.3,184,351.6,184.4,352.1
		L184.4,352.1z M188,359.5c0.3,0.2,0.7,0.4,1.2,0.5c0.6,0.1,1.1,0.2,1.6,0.2c1.2,0,2.1-0.3,2.7-0.9c0.6-0.6,1-1.3,1-2.2
		c0-0.6-0.2-1.1-0.5-1.5s-0.7-0.7-1.2-0.9c-0.5-0.2-0.9-0.4-1.4-0.5c-0.5-0.2-0.9-0.4-1.2-0.6c-0.3-0.3-0.5-0.6-0.5-1
		s0.2-0.7,0.5-0.9c0.3-0.2,0.8-0.4,1.4-0.4s1.3,0.1,2.1,0.4l0.4-1.3c-0.7-0.4-1.5-0.6-2.6-0.6s-1.9,0.3-2.5,0.8s-0.9,1.2-0.9,2.1
		c0,0.6,0.2,1.1,0.5,1.5s0.7,0.7,1.2,0.9c0.5,0.2,0.9,0.4,1.4,0.5c0.5,0.2,0.8,0.4,1.2,0.7c0.3,0.3,0.5,0.6,0.5,1s-0.2,0.7-0.5,1
		s-0.9,0.4-1.6,0.4c-0.7,0-1.5-0.2-2.4-0.6L188,359.5L188,359.5z M201.6,359.8l-0.3-1.3c-0.4,0.1-0.8,0.2-1.2,0.2s-0.7-0.1-0.8-0.2
		s-0.2-0.2-0.2-0.4c0-0.1,0-0.3,0-0.6v-6.1h2.7l0.2-1.4h-3v-2.6l-1.6,0.3l-0.2,2.3l-1.8,0.1l-0.2,1.2l1.9,0.1v5.9
		c0,1,0.2,1.8,0.5,2.2c0.3,0.4,1,0.6,2,0.6C200.3,360.2,201,360.1,201.6,359.8L201.6,359.8L201.6,359.8z M214.5,355
		c0-1.8-0.4-3.1-1.1-3.9c-0.7-0.8-1.7-1.2-2.9-1.2s-2.2,0.4-3,1.2c-0.8,0.8-1.1,2.1-1.1,3.9s0.4,3.1,1.1,3.9s1.7,1.2,2.9,1.2
		s2.2-0.4,3-1.2S214.5,356.8,214.5,355L214.5,355z M212.1,352.1c0.4,0.5,0.6,1.5,0.6,2.8c0,1.4-0.2,2.3-0.7,2.9
		c-0.4,0.6-1,0.9-1.6,0.9c-1.5,0-2.3-1.2-2.3-3.7s0.8-3.7,2.3-3.7C211.1,351.3,211.7,351.6,212.1,352.1L212.1,352.1z M217,350.1
		l-1.6,0.1l-0.2,1.2l1.8,0.1v11.9l1.8,0.2v-12.1h2.5l0.2-1.4h-2.7v-0.8c0-0.7,0.1-1.2,0.4-1.5c0.2-0.3,0.7-0.4,1.5-0.4
		s1.4,0.1,1.9,0.2l0.4-1.4c-0.8-0.2-1.6-0.4-2.3-0.4c-1.3,0-2.3,0.3-2.8,0.8s-0.8,1.4-0.8,2.7L217,350.1L217,350.1z M228,359.8
		l-0.3-1.3c-0.4,0.1-0.8,0.2-1.2,0.2s-0.7-0.1-0.8-0.2s-0.2-0.2-0.2-0.4c0-0.1,0-0.3,0-0.6v-6.1h2.7l0.2-1.4h-2.9v-2.6l-1.6,0.3
		l-0.2,2.3l-1.8,0.1l-0.2,1.2l1.9,0.1v5.9c0,1,0.2,1.8,0.5,2.2c0.3,0.4,1,0.6,2,0.6C226.8,360.2,227.4,360.1,228,359.8L228,359.8
		L228,359.8z M236.3,359.4l-0.4-1.2c-0.8,0.4-1.7,0.5-2.6,0.5c-0.9,0-1.6-0.3-2-1c-0.5-0.7-0.7-1.6-0.7-2.7h5.7
		c0.2-0.7,0.3-1.3,0.3-1.8c0-1-0.3-1.8-0.9-2.4c-0.6-0.6-1.4-0.9-2.5-0.9c-1.3,0-2.3,0.5-3.1,1.4s-1.1,2.2-1.1,3.7s0.4,2.7,1.1,3.7
		c0.7,1,1.8,1.5,3.2,1.5C234.3,360.2,235.4,359.9,236.3,359.4L236.3,359.4L236.3,359.4z M234.9,353.7h-4.2c0.1-0.4,0.3-0.9,0.6-1.4
		c0.2-0.3,0.4-0.5,0.8-0.7c0.3-0.2,0.8-0.3,1.3-0.3s0.9,0.2,1.2,0.6s0.4,1,0.4,1.7v0.1H234.9z M245.2,350.7c-0.4-0.6-1.1-0.9-2-0.9
		c-0.6,0-1.2,0.1-1.8,0.4s-1.1,0.6-1.5,1l-0.2-1.2h-1.5v9.9h1.8v-7.3c0.3-0.4,0.7-0.7,1.3-0.9c0.6-0.3,1.1-0.4,1.5-0.4
		c0.5,0,0.8,0.2,0.9,0.5c0.2,0.3,0.2,0.8,0.2,1.4v6.7h1.8v-6.8C245.8,352.1,245.6,351.3,245.2,350.7L245.2,350.7z M249.6,357.7h-1.9
		c0.2,0.5,0.3,1,0.3,1.4c0,1-0.5,2.1-1.6,3.4h1.6c1.2-1.1,1.7-2.3,1.7-3.6C249.9,358.4,249.8,358,249.6,357.7L249.6,357.7
		L249.6,357.7z M259.4,359.9c0.5-0.2,0.9-0.4,1.2-0.7c0.3,0.7,0.8,1,1.5,1s1.3-0.1,1.7-0.4l-0.3-1.1c-0.4,0.1-0.6,0.2-0.9,0.2
		s-0.5-0.2-0.5-0.7v-4.7c0-1.3-0.3-2.2-0.8-2.7s-1.4-0.8-2.7-0.8c-0.5,0-1,0.1-1.6,0.2s-1.1,0.3-1.5,0.6l0.4,1.2
		c1-0.4,1.8-0.5,2.6-0.5s1.2,0.1,1.5,0.4s0.4,0.8,0.4,1.6v1.5c-0.6-0.1-1.3-0.1-2.1-0.1s-1.4,0.2-2.1,0.5c-0.4,0.2-0.7,0.5-0.9,0.8
		c-0.2,0.4-0.4,0.8-0.4,1.4c0,0.8,0.2,1.5,0.8,2c0.5,0.5,1.2,0.7,2,0.7C258.3,360.2,258.8,360.1,259.4,359.9L259.4,359.9z
		 M256.6,357.3c0-1,0.8-1.5,2.3-1.5c0.7,0,1.2,0,1.5,0.1v2.3c-0.7,0.5-1.5,0.7-2.3,0.7C257.1,358.8,256.6,358.3,256.6,357.3
		L256.6,357.3L256.6,357.3z M264.1,359.5c0.3,0.2,0.7,0.4,1.2,0.5c0.6,0.1,1.1,0.2,1.6,0.2c1.2,0,2.1-0.3,2.7-0.9s1-1.3,1-2.2
		c0-0.6-0.2-1.1-0.5-1.5s-0.7-0.7-1.2-0.9c-0.5-0.2-0.9-0.4-1.4-0.5c-0.5-0.2-0.9-0.4-1.2-0.6c-0.3-0.3-0.5-0.6-0.5-1
		s0.2-0.7,0.5-0.9c0.3-0.2,0.8-0.4,1.4-0.4s1.3,0.1,2.1,0.4l0.4-1.3c-0.7-0.4-1.5-0.6-2.6-0.6s-1.9,0.3-2.5,0.8s-0.9,1.2-0.9,2.1
		c0,0.6,0.2,1.1,0.5,1.5s0.7,0.7,1.2,0.9c0.5,0.2,0.9,0.4,1.4,0.5c0.5,0.2,0.8,0.4,1.2,0.7s0.5,0.6,0.5,1s-0.2,0.7-0.5,1
		s-0.9,0.4-1.6,0.4s-1.5-0.2-2.4-0.6L264.1,359.5L264.1,359.5z M283,359.9h1.8l2.6-9.9h-1.8l-1.8,7.9l-2-7.9l-1.6,0.1l-1.9,7.8
		l-1.8-7.9h-1.8l2.6,9.9h1.8l1.9-7.7L283,359.9L283,359.9z M295.5,359.4l-0.4-1.2c-0.8,0.4-1.7,0.5-2.6,0.5s-1.6-0.3-2-1
		c-0.5-0.7-0.7-1.6-0.7-2.7h5.7c0.2-0.7,0.3-1.3,0.3-1.8c0-1-0.3-1.8-0.9-2.4s-1.4-0.9-2.5-0.9c-1.3,0-2.3,0.5-3.1,1.4
		c-0.8,0.9-1.1,2.2-1.1,3.7s0.4,2.7,1.1,3.7s1.8,1.5,3.2,1.5C293.6,360.2,294.6,359.9,295.5,359.4L295.5,359.4L295.5,359.4z
		 M294.2,353.7H290c0.1-0.4,0.3-0.9,0.6-1.4c0.2-0.3,0.4-0.5,0.8-0.7c0.3-0.2,0.8-0.3,1.3-0.3s0.9,0.2,1.2,0.6
		C294.2,352.3,294.3,352.9,294.2,353.7L294.2,353.7L294.2,353.7z M297.5,358c0,1.5,0.6,2.2,2,2.2c0.8,0,1.4-0.1,2-0.4l-0.3-1.3
		c-0.4,0.1-0.8,0.2-1.2,0.2c-0.5,0-0.7-0.3-0.7-0.8v-11.7h-1.8V358L297.5,358z M302.3,358c0,1.5,0.7,2.2,2,2.2c0.8,0,1.4-0.1,2-0.4
		l-0.3-1.3c-0.4,0.1-0.8,0.2-1.2,0.2c-0.5,0-0.7-0.3-0.7-0.8v-11.7h-1.8V358L302.3,358z M314.6,359.9c0.5-0.2,0.9-0.4,1.2-0.7
		c0.3,0.7,0.8,1,1.5,1s1.3-0.1,1.7-0.4l-0.3-1.1c-0.4,0.1-0.6,0.2-0.9,0.2s-0.5-0.2-0.5-0.7v-4.7c0-1.3-0.3-2.2-0.8-2.7
		s-1.4-0.8-2.7-0.8c-0.5,0-1,0.1-1.6,0.2s-1.1,0.3-1.5,0.6l0.4,1.2c1-0.4,1.8-0.5,2.6-0.5s1.2,0.1,1.5,0.4s0.4,0.8,0.4,1.6v1.5
		c-0.6-0.1-1.3-0.1-2.1-0.1c-0.7,0-1.4,0.2-2.1,0.5c-0.4,0.2-0.7,0.5-0.9,0.8c-0.2,0.4-0.4,0.8-0.4,1.4c0,0.8,0.2,1.5,0.8,2
		c0.5,0.5,1.2,0.7,2,0.7C313.5,360.2,314,360.1,314.6,359.9L314.6,359.9z M311.8,357.3c0-1,0.8-1.5,2.3-1.5c0.7,0,1.2,0,1.5,0.1v2.3
		c-0.7,0.5-1.5,0.7-2.3,0.7C312.3,358.8,311.8,358.3,311.8,357.3L311.8,357.3L311.8,357.3z M319.3,359.5c0.3,0.2,0.7,0.4,1.2,0.5
		c0.6,0.1,1.1,0.2,1.6,0.2c1.2,0,2.1-0.3,2.7-0.9s1-1.3,1-2.2c0-0.6-0.2-1.1-0.5-1.5s-0.7-0.7-1.2-0.9c-0.5-0.2-0.9-0.4-1.4-0.5
		c-0.5-0.2-0.9-0.4-1.2-0.6c-0.3-0.3-0.5-0.6-0.5-1s0.2-0.7,0.5-0.9c0.3-0.2,0.8-0.4,1.4-0.4s1.3,0.1,2.1,0.4l0.4-1.3
		c-0.7-0.4-1.5-0.6-2.6-0.6s-1.9,0.3-2.5,0.8s-0.9,1.2-0.9,2.1c0,0.6,0.2,1.1,0.5,1.5s0.7,0.7,1.2,0.9c0.5,0.2,0.9,0.4,1.4,0.5
		c0.5,0.2,0.8,0.4,1.2,0.7c0.3,0.3,0.5,0.6,0.5,1s-0.2,0.7-0.5,1s-0.9,0.4-1.6,0.4s-1.5-0.2-2.4-0.6L319.3,359.5L319.3,359.5z"/>
	<path d="M89,324.9c0.5-1,1.5-1.5,2.9-1.5c0.2,0,0.4,0,0.5,0l0.4-1.4c-0.2-0.1-0.5-0.1-0.9-0.1c-0.7,0-1.3,0.2-1.8,0.5
		c-0.5,0.4-0.9,0.7-1.2,1.1l-0.2-1.5h-1.5v9.9H89V324.9L89,324.9z M100.7,331.4l-0.4-1.2c-0.8,0.4-1.7,0.5-2.6,0.5s-1.6-0.3-2-1
		c-0.5-0.7-0.7-1.6-0.7-2.7h5.7c0.2-0.7,0.3-1.3,0.3-1.8c0-1-0.3-1.8-0.9-2.4c-0.6-0.6-1.4-0.9-2.5-0.9c-1.3,0-2.3,0.5-3.1,1.4
		c-0.8,0.9-1.1,2.2-1.1,3.7s0.4,2.8,1.1,3.7c0.7,1,1.8,1.5,3.2,1.5C98.7,332.2,99.8,331.9,100.7,331.4L100.7,331.4L100.7,331.4z
		 M99.3,325.7h-4.2c0.1-0.4,0.3-0.9,0.6-1.4c0.2-0.3,0.4-0.5,0.8-0.7c0.3-0.2,0.8-0.3,1.3-0.3s0.9,0.2,1.2,0.6
		c0.3,0.4,0.4,1,0.4,1.7v0.1H99.3z M104,322.1l-1.6,0.1l-0.2,1.2l1.8,0.1v11.9l1.8,0.2v-12.1h2.5l0.2-1.4h-2.7v-0.8
		c0-0.7,0.1-1.2,0.4-1.5c0.2-0.3,0.7-0.4,1.5-0.4s1.4,0.1,1.9,0.2l0.4-1.4c-0.8-0.2-1.6-0.4-2.3-0.4c-1.3,0-2.3,0.3-2.8,0.8
		s-0.8,1.4-0.8,2.7v0.8H104z M116.6,331.4l-0.4-1.2c-0.8,0.4-1.7,0.5-2.6,0.5s-1.6-0.3-2-1s-0.7-1.6-0.7-2.7h5.7
		c0.2-0.7,0.3-1.3,0.3-1.8c0-1-0.3-1.8-0.9-2.4c-0.6-0.6-1.4-0.9-2.5-0.9c-1.3,0-2.3,0.5-3.1,1.4c-0.8,0.9-1.1,2.2-1.1,3.7
		s0.4,2.8,1.1,3.7c0.7,1,1.8,1.5,3.2,1.5C114.6,332.2,115.7,331.9,116.6,331.4L116.6,331.4L116.6,331.4z M115.3,325.7h-4.2
		c0.1-0.4,0.3-0.9,0.6-1.4c0.2-0.3,0.4-0.5,0.8-0.7c0.3-0.2,0.8-0.3,1.3-0.3s0.9,0.2,1.2,0.6c0.3,0.4,0.4,1,0.4,1.7v0.1H115.3z
		 M120.7,324.9c0.5-1,1.5-1.5,2.9-1.5c0.2,0,0.4,0,0.5,0l0.4-1.4c-0.2-0.1-0.5-0.1-0.9-0.1c-0.7,0-1.3,0.2-1.8,0.5
		c-0.5,0.4-0.9,0.7-1.2,1.1l-0.2-1.5H119v9.9h1.8v-7H120.7z M132.5,331.4l-0.4-1.2c-0.8,0.4-1.7,0.5-2.6,0.5c-0.9,0-1.6-0.3-2-1
		s-0.7-1.6-0.7-2.7h5.7c0.2-0.7,0.3-1.3,0.3-1.8c0-1-0.3-1.8-0.9-2.4c-0.6-0.6-1.4-0.9-2.5-0.9c-1.3,0-2.3,0.5-3.1,1.4
		c-0.8,0.9-1.1,2.2-1.1,3.7s0.4,2.8,1.1,3.7c0.7,1,1.8,1.5,3.2,1.5C130.5,332.2,131.5,331.9,132.5,331.4L132.5,331.4L132.5,331.4z
		 M131.1,325.7h-4.2c0.1-0.4,0.3-0.9,0.6-1.4c0.2-0.3,0.4-0.5,0.8-0.7c0.3-0.2,0.8-0.3,1.3-0.3s0.9,0.2,1.2,0.6
		c0.3,0.4,0.4,1,0.4,1.7L131.1,325.7L131.1,325.7z M141.8,322.7c-0.4-0.6-1.1-0.9-2-0.9c-0.6,0-1.2,0.1-1.8,0.4s-1.1,0.6-1.5,1
		l-0.2-1.2h-1.5v9.9h1.8v-7.3c0.3-0.4,0.7-0.7,1.3-0.9c0.6-0.3,1.1-0.4,1.5-0.4c0.5,0,0.8,0.2,0.9,0.5c0.2,0.3,0.2,0.8,0.2,1.4v6.7
		h1.8v-6.8C142.4,324.1,142.2,323.3,141.8,322.7L141.8,322.7z M151.4,331.8l-0.3-1.3c-0.6,0.2-1.2,0.3-1.8,0.3c-2,0-3-1.2-3-3.7
		c0-1.3,0.3-2.2,0.8-2.8c0.5-0.6,1.2-0.9,1.9-0.9c0.5,0,1.2,0.1,1.9,0.3l0.5-1.2c-0.7-0.4-1.5-0.6-2.4-0.6c-1.2,0-2.3,0.4-3.2,1.3
		s-1.3,2.2-1.3,3.9s0.4,3,1.3,3.9c0.9,0.9,1.9,1.3,3.3,1.3C149.8,332.2,150.6,332.1,151.4,331.8L151.4,331.8L151.4,331.8z
		 M160,331.4l-0.4-1.2c-0.8,0.4-1.7,0.5-2.6,0.5c-0.9,0-1.6-0.3-2-1c-0.5-0.7-0.7-1.6-0.7-2.7h5.7c0.2-0.7,0.3-1.3,0.3-1.8
		c0-1-0.3-1.8-0.9-2.4c-0.6-0.6-1.4-0.9-2.5-0.9c-1.3,0-2.3,0.5-3.1,1.4c-0.8,0.9-1.1,2.2-1.1,3.7s0.4,2.8,1.1,3.7
		c0.7,1,1.8,1.5,3.2,1.5C158.1,332.2,159.1,331.9,160,331.4L160,331.4L160,331.4z M158.7,325.7h-4.2c0.1-0.4,0.3-0.9,0.6-1.4
		c0.2-0.3,0.4-0.5,0.8-0.7c0.3-0.2,0.8-0.3,1.3-0.3s0.9,0.2,1.2,0.6c0.3,0.4,0.4,1,0.4,1.7v0.1H158.7z M164,329.7h-1.9
		c0.2,0.5,0.3,1,0.3,1.4c0,1-0.5,2.1-1.6,3.4h1.6c1.2-1.1,1.7-2.3,1.7-3.6C164.2,330.4,164.2,330,164,329.7L164,329.7L164,329.7z
		 M171,318.9v13h1.9v-13H171L171,318.9z M184.8,331.8l-0.3-1.3c-0.4,0.1-0.8,0.2-1.2,0.2s-0.7-0.1-0.8-0.2s-0.2-0.2-0.2-0.4
		c0-0.1,0-0.3,0-0.6v-6.1h2.7l0.2-1.4h-2.9v-2.6l-1.6,0.3l-0.2,2.3l-1.8,0.1l-0.2,1.2l1.9,0.1v5.9c0,1,0.2,1.8,0.5,2.2
		c0.3,0.4,1,0.6,2,0.6C183.6,332.2,184.2,332.1,184.8,331.8L184.8,331.8L184.8,331.8z M194.3,327c0-1.8-0.4-3.1-1.1-3.9
		c-0.7-0.8-1.7-1.2-2.9-1.2s-2.2,0.4-3,1.2s-1.1,2.1-1.1,3.9s0.4,3.1,1.1,3.9s1.7,1.2,2.9,1.2s2.2-0.4,3-1.2
		C194,330.1,194.3,328.8,194.3,327L194.3,327z M192,324.1c0.4,0.5,0.6,1.5,0.6,2.8c0,1.4-0.2,2.3-0.7,2.9c-0.4,0.6-1,0.9-1.6,0.9
		c-1.5,0-2.3-1.2-2.3-3.7s0.8-3.7,2.3-3.7C191,323.3,191.6,323.6,192,324.1L192,324.1z M204.2,327c0-1.8-0.4-3.1-1.1-3.9
		c-0.7-0.8-1.7-1.2-2.9-1.2s-2.2,0.4-3,1.2s-1.1,2.1-1.1,3.9s0.4,3.1,1.1,3.9c0.7,0.8,1.7,1.2,2.9,1.2s2.2-0.4,3-1.2
		C203.9,330.1,204.2,328.8,204.2,327L204.2,327z M201.9,324.1c0.4,0.5,0.6,1.5,0.6,2.8c0,1.4-0.2,2.3-0.7,2.9s-1,0.9-1.6,0.9
		c-1.5,0-2.3-1.2-2.3-3.7s0.8-3.7,2.3-3.7C200.9,323.3,201.5,323.6,201.9,324.1L201.9,324.1z M208.2,326.6l4.3,5.3h2.1
		c-0.5-0.6-1.2-1.5-2.3-2.7s-1.8-2.2-2.3-2.7l4-4.3h-2.2l-3.7,4.3v-8.3l-1.8,0.2v13.7h1.8L208.2,326.6L208.2,326.6z M225.3,331.8
		l-0.3-1.3c-0.4,0.1-0.8,0.2-1.2,0.2s-0.7-0.1-0.8-0.2s-0.2-0.2-0.2-0.4c0-0.1,0-0.3,0-0.6v-6.1h2.7l0.2-1.4h-2.9v-2.6l-1.6,0.3
		L221,322l-1.8,0.1l-0.2,1.2l1.9,0.1v5.9c0,1,0.2,1.8,0.5,2.2c0.3,0.4,1,0.6,2,0.6C224.1,332.2,224.7,332.1,225.3,331.8L225.3,331.8
		L225.3,331.8z M230.4,322.3c-0.6,0.3-1.1,0.6-1.4,0.9v-5.1l-1.8,0.2v13.6h1.8v-7.3c0.3-0.4,0.7-0.7,1.3-0.9c0.5-0.2,1-0.4,1.5-0.4
		s0.8,0.2,0.9,0.5c0.2,0.3,0.2,0.8,0.2,1.4v6.7h1.8v-6.8c0-1-0.2-1.8-0.6-2.4c-0.4-0.6-1.1-0.9-2-0.9
		C231.5,321.9,231,322,230.4,322.3L230.4,322.3z M244.2,331.4l-0.4-1.2c-0.8,0.4-1.7,0.5-2.6,0.5c-0.9,0-1.6-0.3-2-1
		c-0.5-0.7-0.7-1.6-0.7-2.7h5.7c0.2-0.7,0.3-1.3,0.3-1.8c0-1-0.3-1.8-0.9-2.4c-0.6-0.6-1.4-0.9-2.5-0.9c-1.3,0-2.3,0.5-3.1,1.4
		c-0.8,0.9-1.1,2.2-1.1,3.7s0.4,2.8,1.1,3.7c0.7,1,1.8,1.5,3.2,1.5C242.2,332.2,243.3,331.9,244.2,331.4L244.2,331.4L244.2,331.4z
		 M242.8,325.7h-4.2c0.1-0.4,0.3-0.9,0.6-1.4c0.2-0.3,0.4-0.5,0.8-0.7c0.3-0.2,0.8-0.3,1.3-0.3s0.9,0.2,1.2,0.6
		c0.3,0.4,0.4,1,0.4,1.7v0.1H242.8z M251.2,322.1l-1.6,0.1l-0.2,1.2l1.8,0.1v11.9l1.8,0.2v-12.1h2.5l0.2-1.4H253v-0.8
		c0-0.7,0.1-1.2,0.4-1.5c0.2-0.3,0.7-0.4,1.5-0.4s1.4,0.1,1.9,0.2l0.4-1.4c-0.8-0.2-1.6-0.4-2.3-0.4c-1.3,0-2.3,0.3-2.8,0.8
		s-0.8,1.4-0.8,2.7L251.2,322.1L251.2,322.1z M264.7,327c0-1.8-0.4-3.1-1.1-3.9c-0.7-0.8-1.7-1.2-2.9-1.2c-1.2,0-2.2,0.4-3,1.2
		s-1.1,2.1-1.1,3.9s0.4,3.1,1.1,3.9s1.7,1.2,2.9,1.2c1.2,0,2.2-0.4,3-1.2C264.3,330.1,264.7,328.8,264.7,327L264.7,327z
		 M262.3,324.1c0.4,0.5,0.6,1.5,0.6,2.8c0,1.4-0.2,2.3-0.7,2.9c-0.4,0.6-1,0.9-1.6,0.9c-1.5,0-2.3-1.2-2.3-3.7s0.8-3.7,2.3-3.7
		C261.4,323.3,262,323.6,262.3,324.1L262.3,324.1z M273.9,322.7c-0.4-0.6-1.1-0.9-2-0.9c-0.6,0-1.2,0.1-1.8,0.4
		c-0.6,0.3-1.1,0.6-1.5,1l-0.2-1.2h-1.5v9.9h1.8v-7.3c0.3-0.4,0.7-0.7,1.3-0.9c0.6-0.3,1.1-0.4,1.5-0.4c0.5,0,0.8,0.2,0.9,0.5
		c0.2,0.3,0.2,0.8,0.2,1.4v6.7h1.8v-6.8C274.5,324.1,274.3,323.3,273.9,322.7L273.9,322.7z M282.4,331.8l-0.3-1.3
		c-0.4,0.1-0.8,0.2-1.2,0.2c-0.4,0-0.7-0.1-0.8-0.2c-0.1-0.1-0.2-0.2-0.2-0.4c0-0.1,0-0.3,0-0.6v-6.1h2.7l0.2-1.4h-2.9v-2.6
		l-1.6,0.3l-0.2,2.3l-1.8,0.1l-0.2,1.2l1.9,0.1v5.9c0,1,0.2,1.8,0.5,2.2c0.3,0.4,1,0.6,2,0.6C281.1,332.2,281.8,332.1,282.4,331.8
		L282.4,331.8L282.4,331.8z M283.7,331.5c0.3,0.2,0.7,0.4,1.2,0.5c0.6,0.1,1.1,0.2,1.6,0.2c1.2,0,2.1-0.3,2.7-0.9s1-1.3,1-2.2
		c0-0.6-0.2-1.1-0.5-1.5s-0.7-0.7-1.2-0.9c-0.5-0.2-0.9-0.4-1.4-0.5c-0.5-0.2-0.9-0.4-1.2-0.6c-0.3-0.3-0.5-0.6-0.5-1
		s0.2-0.7,0.5-0.9s0.8-0.4,1.4-0.4s1.3,0.1,2.1,0.4l0.4-1.3c-0.7-0.4-1.5-0.6-2.6-0.6s-1.9,0.3-2.5,0.8s-0.9,1.2-0.9,2.1
		c0,0.6,0.2,1.1,0.5,1.5s0.7,0.7,1.2,0.9c0.5,0.2,0.9,0.4,1.4,0.5c0.5,0.2,0.8,0.4,1.2,0.7c0.3,0.3,0.5,0.6,0.5,1s-0.2,0.7-0.5,1
		s-0.9,0.4-1.6,0.4s-1.5-0.2-2.4-0.6L283.7,331.5L283.7,331.5z M301.4,331.8l-0.3-1.3c-0.4,0.1-0.8,0.2-1.2,0.2
		c-0.4,0-0.7-0.1-0.8-0.2c-0.1-0.1-0.2-0.2-0.2-0.4c0-0.1,0-0.3,0-0.6v-6.1h2.7l0.2-1.4h-2.9v-2.6l-1.6,0.3l-0.2,2.3l-1.8,0.1
		l-0.2,1.2l1.9,0.1v5.9c0,1,0.2,1.8,0.5,2.2c0.3,0.4,1,0.6,2,0.6C300.1,332.2,300.8,332.1,301.4,331.8L301.4,331.8L301.4,331.8z
		 M306.5,322.3c-0.6,0.3-1.1,0.6-1.4,0.9v-5.1l-1.8,0.2v13.6h1.8v-7.3c0.3-0.4,0.7-0.7,1.3-0.9c0.5-0.2,1-0.4,1.5-0.4
		s0.8,0.2,0.9,0.5c0.2,0.3,0.2,0.8,0.2,1.4v6.7h1.8v-6.8c0-1-0.2-1.8-0.6-2.4c-0.4-0.6-1.1-0.9-2-0.9
		C307.6,321.9,307,322,306.5,322.3L306.5,322.3z M317.1,331.9c0.5-0.2,0.9-0.4,1.2-0.7c0.3,0.7,0.8,1,1.5,1s1.3-0.1,1.7-0.4
		l-0.3-1.1c-0.4,0.1-0.6,0.2-0.9,0.2s-0.5-0.2-0.5-0.7v-4.7c0-1.3-0.3-2.2-0.8-2.7s-1.4-0.8-2.7-0.8c-0.5,0-1,0.1-1.6,0.2
		s-1.1,0.3-1.5,0.6l0.4,1.2c1-0.4,1.8-0.5,2.6-0.5s1.2,0.1,1.5,0.4c0.3,0.3,0.4,0.8,0.4,1.5v1.5c-0.6-0.1-1.3-0.1-2.1-0.1
		c-0.7,0-1.4,0.2-2.1,0.5c-0.4,0.2-0.7,0.5-0.9,0.8c-0.2,0.4-0.4,0.8-0.4,1.4c0,0.8,0.2,1.5,0.8,2c0.5,0.5,1.2,0.7,2,0.7
		C316,332.2,316.6,332.1,317.1,331.9L317.1,331.9z M314.3,329.3c0-1,0.8-1.5,2.3-1.5c0.7,0,1.2,0,1.5,0.1v2.3
		c-0.7,0.5-1.5,0.7-2.3,0.7C314.8,330.8,314.3,330.3,314.3,329.3L314.3,329.3L314.3,329.3z M328.1,331.8l-0.3-1.3
		c-0.4,0.1-0.8,0.2-1.2,0.2c-0.4,0-0.7-0.1-0.8-0.2c-0.1-0.1-0.2-0.2-0.2-0.4c0-0.1,0-0.3,0-0.6v-6.1h2.7l0.2-1.4h-2.9v-2.6
		l-1.6,0.3l-0.2,2.3l-1.8,0.1l-0.2,1.2l1.9,0.1v5.9c0,1,0.2,1.8,0.5,2.2c0.3,0.4,1,0.6,2,0.6C326.9,332.2,327.5,332.1,328.1,331.8
		L328.1,331.8L328.1,331.8z"/>
	<path d="M88.1,294.1l-1.6,0.1l-0.2,1.2l1.8,0.1v11.9l1.8,0.2v-12.1h2.5l0.2-1.4h-2.7v-0.8c0-0.7,0.1-1.2,0.4-1.5
		c0.2-0.3,0.7-0.4,1.5-0.4s1.4,0.1,1.9,0.2l0.4-1.4c-0.8-0.2-1.6-0.4-2.3-0.4c-1.3,0-2.3,0.3-2.8,0.8s-0.8,1.4-0.8,2.7v0.8H88.1z
		 M101.5,299c0-1.8-0.4-3.1-1.1-3.9c-0.7-0.8-1.7-1.2-2.9-1.2c-1.2,0-2.2,0.4-3,1.2s-1.1,2.1-1.1,3.9s0.4,3.1,1.1,3.9
		c0.7,0.8,1.7,1.2,2.9,1.2c1.2,0,2.2-0.4,3-1.2C101.2,302.1,101.5,300.8,101.5,299L101.5,299z M99.2,296.1c0.4,0.5,0.6,1.5,0.6,2.8
		c0,1.4-0.2,2.3-0.7,2.9c-0.4,0.6-1,0.9-1.6,0.9c-1.5,0-2.3-1.2-2.3-3.7s0.8-3.7,2.3-3.7C98.2,295.3,98.8,295.6,99.2,296.1
		L99.2,296.1z M110.7,294.7c-0.4-0.6-1.1-0.9-2-0.9c-0.6,0-1.2,0.1-1.8,0.4c-0.6,0.3-1.1,0.6-1.5,1l-0.2-1.2h-1.5v9.9h1.8v-7.3
		c0.3-0.4,0.7-0.7,1.3-0.9c0.6-0.3,1.1-0.4,1.5-0.4c0.5,0,0.8,0.2,0.9,0.5c0.2,0.3,0.2,0.8,0.2,1.4v6.7h1.8v-6.8
		C111.3,296.1,111.1,295.3,110.7,294.7L110.7,294.7z M119.2,303.8l-0.3-1.3c-0.4,0.1-0.8,0.2-1.2,0.2s-0.7-0.1-0.8-0.2
		c-0.1-0.1-0.2-0.2-0.2-0.4c0-0.1,0-0.3,0-0.6v-6.1h2.7l0.2-1.4h-2.9v-2.6l-1.6,0.3l-0.2,2.3l-1.8,0.1l-0.2,1.2l1.9,0.1v5.9
		c0,1,0.2,1.8,0.5,2.2s1,0.6,2,0.6C118,304.2,118.6,304.1,119.2,303.8L119.2,303.8L119.2,303.8z M125.8,294.1l-1.6,0.1l-0.2,1.2
		l1.8,0.1v11.9l1.8,0.2v-12.1h2.5l0.2-1.4h-2.7v-0.8c0-0.7,0.1-1.2,0.4-1.5c0.2-0.3,0.7-0.4,1.5-0.4s1.4,0.1,1.9,0.2l0.4-1.4
		c-0.8-0.2-1.6-0.4-2.3-0.4c-1.3,0-2.3,0.3-2.8,0.8s-0.8,1.4-0.8,2.7L125.8,294.1L125.8,294.1z M135.5,303.9
		c0.5-0.2,0.9-0.4,1.2-0.7c0.3,0.7,0.8,1,1.5,1s1.3-0.1,1.7-0.4l-0.3-1.1c-0.4,0.1-0.7,0.2-0.9,0.2c-0.3,0-0.5-0.2-0.5-0.7v-4.7
		c0-1.3-0.3-2.2-0.8-2.7s-1.4-0.8-2.7-0.8c-0.5,0-1,0.1-1.6,0.2c-0.6,0.1-1.1,0.3-1.5,0.6l0.4,1.2c1-0.4,1.8-0.5,2.6-0.5
		c0.7,0,1.2,0.1,1.5,0.4c0.3,0.3,0.4,0.8,0.4,1.5v1.5c-0.6-0.1-1.3-0.1-2.1-0.1s-1.4,0.2-2.1,0.5c-0.4,0.2-0.7,0.5-0.9,0.8
		c-0.2,0.4-0.4,0.8-0.4,1.4c0,0.8,0.2,1.5,0.8,2c0.5,0.5,1.2,0.7,2,0.7C134.4,304.2,135,304.1,135.5,303.9L135.5,303.9z
		 M132.7,301.3c0-1,0.8-1.5,2.3-1.5c0.7,0,1.2,0,1.5,0.1v2.3c-0.7,0.5-1.5,0.7-2.3,0.7C133.2,302.8,132.7,302.3,132.7,301.3
		L132.7,301.3L132.7,301.3z M148.6,296.6c0.4-0.3,0.8-0.6,1.3-0.9c0.5-0.2,1-0.4,1.4-0.4c0.5,0,0.8,0.2,0.9,0.5
		c0.2,0.3,0.2,0.8,0.2,1.4v6.7h1.8v-6.8c0-2.2-0.9-3.3-2.6-3.3c-0.5,0-1.1,0.1-1.8,0.4c-0.6,0.3-1.1,0.6-1.5,1
		c-0.4-1-1.1-1.4-2.3-1.4c-0.6,0-1.1,0.1-1.7,0.4c-0.6,0.3-1.1,0.6-1.4,1l-0.2-1.2h-1.5v9.9h1.8v-7.3c0.3-0.4,0.7-0.7,1.2-0.9
		c0.5-0.2,1-0.4,1.5-0.4s0.8,0.2,0.9,0.5c0.2,0.3,0.2,0.8,0.2,1.4v6.7h1.8v-6.7C148.7,297,148.7,296.7,148.6,296.6L148.6,296.6
		L148.6,296.6z M158.6,294l-1.8,0.2v9.8h1.8V294L158.6,294z M156.9,292c0.2,0.2,0.5,0.4,0.8,0.4s0.6-0.1,0.8-0.4
		c0.2-0.2,0.3-0.5,0.3-0.8c0-0.3-0.1-0.6-0.3-0.8s-0.5-0.3-0.8-0.3s-0.6,0.1-0.8,0.3s-0.4,0.5-0.4,0.8
		C156.5,291.5,156.6,291.8,156.9,292L156.9,292z M161.3,302c0,1.5,0.6,2.2,1.9,2.2c0.8,0,1.4-0.1,2-0.4l-0.3-1.3
		c-0.4,0.1-0.8,0.2-1.2,0.2c-0.5,0-0.7-0.3-0.7-0.8v-11.7h-1.8V302H161.3z M165.1,306.7l-0.2,1.2c0.5,0.1,0.9,0.1,1.3,0.1
		c1.1,0,1.9-0.3,2.6-1c0.7-0.7,1.3-1.8,1.8-3.3l3.2-9.7H172l-2.3,8l-2.6-8l-1.9,0.1l3.6,9.8c-0.3,1-0.7,1.7-1.2,2.1
		c-0.4,0.4-1,0.6-1.7,0.6C165.6,306.7,165.3,306.7,165.1,306.7L165.1,306.7L165.1,306.7z M179.5,290.9v13h1.9v-13H179.5L179.5,290.9
		z M190,302.4v-6.2c0.8-0.6,1.6-0.9,2.3-0.9c1.3,0,2,1.2,2,3.5c0,2.6-0.8,3.9-2.4,3.9C191.3,302.7,190.7,302.6,190,302.4L190,302.4
		L190,302.4z M189.8,294.1h-1.5v14.3l1.8-0.2v-4.3c0.6,0.3,1.2,0.4,1.9,0.4c2.9,0,4.3-1.8,4.3-5.4c0-1.5-0.3-2.7-0.9-3.6
		c-0.6-0.9-1.4-1.3-2.5-1.3s-2,0.3-2.9,1L189.8,294.1L189.8,294.1z M202.8,303.9c0.5-0.2,1-0.5,1.4-0.8l0.2,1.1h1.4v-10H204v7.6
		c-0.3,0.3-0.7,0.5-1.2,0.7s-1,0.2-1.5,0.2s-0.9-0.2-1-0.5c-0.2-0.3-0.3-0.8-0.3-1.4v-6.7h-1.8v6.8c0,1.1,0.2,1.9,0.6,2.5
		c0.4,0.6,1.2,0.9,2.2,0.9C201.7,304.2,202.2,304.1,202.8,303.9L202.8,303.9z M214.5,298.9c0,2.5-0.8,3.8-2.5,3.8
		c-0.7,0-1.4-0.1-1.9-0.3v-6.2c0.8-0.5,1.6-0.8,2.4-0.8C213.8,295.4,214.5,296.5,214.5,298.9L214.5,298.9L214.5,298.9z M208.4,290.3
		v13c1,0.6,2.2,0.9,3.6,0.9c2.9,0,4.3-1.9,4.3-5.7c0-1.5-0.3-2.6-1-3.4c-0.7-0.8-1.5-1.2-2.5-1.2c-0.5,0-1,0.1-1.5,0.3
		s-0.9,0.4-1.1,0.6v-4.5L208.4,290.3L208.4,290.3z M218.5,302c0,1.5,0.6,2.2,1.9,2.2c0.8,0,1.4-0.1,2-0.4l-0.3-1.3
		c-0.4,0.1-0.8,0.2-1.2,0.2c-0.5,0-0.7-0.3-0.7-0.8v-11.7h-1.8V302H218.5z M225.4,294l-1.8,0.2v9.8h1.8V294L225.4,294z M223.7,292
		c0.2,0.2,0.5,0.4,0.8,0.4s0.6-0.1,0.8-0.4c0.2-0.2,0.3-0.5,0.3-0.8c0-0.3-0.1-0.6-0.3-0.8s-0.5-0.3-0.8-0.3s-0.6,0.1-0.8,0.3
		s-0.4,0.5-0.4,0.8C223.3,291.5,223.4,291.8,223.7,292L223.7,292z M227.5,303.5c0.3,0.2,0.7,0.4,1.2,0.5c0.6,0.1,1.1,0.2,1.6,0.2
		c1.2,0,2.1-0.3,2.7-0.9c0.6-0.6,1-1.3,1-2.2c0-0.6-0.2-1.1-0.5-1.5s-0.7-0.7-1.2-0.9s-0.9-0.4-1.4-0.5c-0.5-0.2-0.9-0.4-1.2-0.6
		c-0.3-0.3-0.5-0.6-0.5-1s0.2-0.7,0.5-0.9s0.8-0.4,1.4-0.4c0.6,0,1.3,0.1,2.1,0.4l0.4-1.3c-0.6-0.4-1.5-0.6-2.6-0.6
		s-1.9,0.3-2.5,0.8s-0.9,1.2-0.9,2.1c0,0.6,0.2,1.1,0.5,1.5s0.7,0.7,1.2,0.9s0.9,0.4,1.4,0.5c0.5,0.2,0.8,0.4,1.2,0.7
		c0.3,0.3,0.5,0.6,0.5,1c0,0.4-0.2,0.7-0.5,1c-0.3,0.3-0.9,0.4-1.6,0.4c-0.7,0-1.5-0.2-2.4-0.6L227.5,303.5L227.5,303.5z
		 M239.3,294.3c-0.6,0.3-1.1,0.6-1.4,0.9v-5.1l-1.8,0.2v13.6h1.8v-7.3c0.3-0.4,0.7-0.7,1.3-0.9c0.5-0.2,1-0.4,1.5-0.4
		s0.8,0.2,0.9,0.5c0.2,0.3,0.2,0.8,0.2,1.4v6.7h1.8v-6.8c0-1-0.2-1.8-0.6-2.4c-0.4-0.6-1.1-0.9-2-0.9
		C240.4,293.9,239.9,294,239.3,294.3L239.3,294.3z M253.1,303.4l-0.4-1.2c-0.8,0.4-1.7,0.5-2.6,0.5c-0.9,0-1.6-0.3-2-1
		c-0.4-0.7-0.7-1.6-0.7-2.7h5.7c0.2-0.7,0.3-1.3,0.3-1.8c0-1-0.3-1.8-0.9-2.4c-0.6-0.6-1.4-0.9-2.5-0.9c-1.3,0-2.3,0.5-3.1,1.4
		c-0.8,0.9-1.1,2.2-1.1,3.7s0.4,2.8,1.1,3.7c0.7,1,1.8,1.5,3.2,1.5C251.1,304.2,252.1,303.9,253.1,303.4L253.1,303.4L253.1,303.4z
		 M251.7,297.7h-4.2c0.1-0.4,0.3-0.9,0.6-1.4c0.2-0.3,0.4-0.5,0.8-0.7c0.3-0.2,0.8-0.3,1.3-0.3s0.9,0.2,1.2,0.6
		c0.3,0.4,0.4,1,0.4,1.7v0.1H251.7z M255.9,302.8c0.6,0.9,1.4,1.3,2.5,1.3s2-0.3,2.9-1l0.3,1h1.4v-13.8h-1.8v4
		c-0.5-0.3-1.2-0.4-1.9-0.4c-2.8,0-4.3,1.8-4.3,5.3C255,300.7,255.3,301.9,255.9,302.8L255.9,302.8z M261.2,295.7v6.2
		c-0.6,0.6-1.4,0.9-2.3,0.9c-1.3,0-2-1.2-2-3.5c0-2.6,0.8-3.8,2.4-3.8C260,295.3,260.6,295.5,261.2,295.7L261.2,295.7L261.2,295.7z
		 M265.2,302.8c0,0.3,0.1,0.6,0.4,0.9c0.2,0.2,0.5,0.4,0.8,0.4s0.6-0.1,0.8-0.4c0.2-0.2,0.4-0.5,0.4-0.9c0-0.3-0.1-0.6-0.4-0.8
		c-0.2-0.2-0.5-0.3-0.8-0.3s-0.6,0.1-0.8,0.3C265.4,302.2,265.2,302.5,265.2,302.8L265.2,302.8z M281.2,303.9h1.9l-4.3-13h-2.1
		l-4.3,13h1.9l1.1-3.4h4.6L281.2,303.9L281.2,303.9z M275.9,299.1l1.9-6.4l1.9,6.4H275.9L275.9,299.1z M283.9,303.5
		c0.3,0.2,0.7,0.4,1.2,0.5c0.6,0.1,1.1,0.2,1.6,0.2c1.2,0,2.1-0.3,2.7-0.9c0.6-0.6,1-1.3,1-2.2c0-0.6-0.2-1.1-0.5-1.5
		s-0.7-0.7-1.2-0.9s-0.9-0.4-1.4-0.5c-0.5-0.2-0.9-0.4-1.2-0.6c-0.3-0.3-0.5-0.6-0.5-1s0.2-0.7,0.5-0.9s0.8-0.4,1.4-0.4
		s1.3,0.1,2.1,0.4l0.4-1.3c-0.7-0.4-1.5-0.6-2.6-0.6s-1.9,0.3-2.5,0.8s-0.9,1.2-0.9,2.1c0,0.6,0.2,1.1,0.5,1.5s0.7,0.7,1.2,0.9
		s0.9,0.4,1.4,0.5c0.5,0.2,0.8,0.4,1.2,0.7c0.3,0.3,0.5,0.6,0.5,1c0,0.4-0.2,0.7-0.5,1c-0.3,0.3-0.9,0.4-1.6,0.4s-1.5-0.2-2.4-0.6
		L283.9,303.5L283.9,303.5z M300.4,303.9c0.5-0.2,0.9-0.4,1.2-0.7c0.3,0.7,0.8,1,1.5,1s1.3-0.1,1.7-0.4l-0.3-1.1
		c-0.4,0.1-0.7,0.2-0.9,0.2c-0.3,0-0.5-0.2-0.5-0.7v-4.7c0-1.3-0.3-2.2-0.8-2.7s-1.4-0.8-2.7-0.8c-0.5,0-1,0.1-1.6,0.2
		c-0.6,0.1-1.1,0.3-1.5,0.6l0.4,1.2c1-0.4,1.8-0.5,2.6-0.5c0.7,0,1.2,0.1,1.5,0.4c0.3,0.3,0.4,0.8,0.4,1.5v1.5
		c-0.6-0.1-1.3-0.1-2.1-0.1c-0.7,0-1.5,0.2-2.1,0.5c-0.4,0.2-0.7,0.5-0.9,0.8c-0.2,0.4-0.4,0.8-0.4,1.4c0,0.8,0.3,1.5,0.8,2
		s1.2,0.7,2,0.7C299.3,304.2,299.9,304.1,300.4,303.9L300.4,303.9z M297.6,301.3c0-1,0.8-1.5,2.3-1.5c0.7,0,1.2,0,1.5,0.1v2.3
		c-0.7,0.5-1.5,0.7-2.3,0.7C298.1,302.8,297.6,302.3,297.6,301.3L297.6,301.3L297.6,301.3z"/>
	<path d="M87.7,274.8c0.6,0.9,1.4,1.3,2.5,1.3s2-0.3,2.9-1l0.3,1h1.4v-13.8H93v4c-0.5-0.3-1.2-0.4-1.9-0.4c-2.8,0-4.3,1.8-4.3,5.3
		C86.8,272.7,87.1,273.9,87.7,274.8L87.7,274.8z M92.9,267.7v6.2c-0.6,0.6-1.4,0.9-2.3,0.9c-1.3,0-2-1.2-2-3.5
		c0-2.6,0.8-3.8,2.4-3.8C91.7,267.3,92.4,267.5,92.9,267.7L92.9,267.7L92.9,267.7z M104.2,275.4l-0.4-1.2c-0.8,0.4-1.7,0.5-2.6,0.5
		s-1.6-0.3-2-1c-0.5-0.7-0.7-1.6-0.7-2.7h5.7c0.2-0.7,0.3-1.3,0.3-1.8c0-1-0.3-1.8-0.9-2.4c-0.6-0.6-1.4-0.9-2.5-0.9
		c-1.3,0-2.3,0.5-3.1,1.4c-0.8,0.9-1.1,2.2-1.1,3.7s0.4,2.8,1.1,3.7c0.7,1,1.8,1.5,3.2,1.5C102.3,276.2,103.3,275.9,104.2,275.4
		L104.2,275.4L104.2,275.4z M102.9,269.7h-4.2c0.1-0.4,0.3-0.9,0.6-1.4c0.2-0.3,0.4-0.5,0.8-0.7c0.3-0.2,0.8-0.3,1.3-0.3
		s0.9,0.2,1.2,0.6c0.3,0.4,0.4,1,0.4,1.7v0.1H102.9z M106,275.5c0.3,0.2,0.7,0.4,1.2,0.5c0.6,0.1,1.1,0.2,1.6,0.2
		c1.2,0,2.1-0.3,2.7-0.9c0.6-0.6,1-1.3,1-2.2c0-0.6-0.2-1.1-0.5-1.5s-0.7-0.7-1.2-0.9s-0.9-0.4-1.4-0.5c-0.5-0.2-0.9-0.4-1.2-0.6
		c-0.3-0.3-0.5-0.6-0.5-1s0.2-0.7,0.5-0.9s0.8-0.4,1.4-0.4s1.3,0.1,2.1,0.4l0.4-1.3c-0.6-0.4-1.5-0.6-2.6-0.6s-1.9,0.3-2.5,0.8
		s-0.9,1.2-0.9,2.1c0,0.6,0.2,1.1,0.5,1.5s0.7,0.7,1.2,0.9s0.9,0.4,1.4,0.5c0.5,0.2,0.8,0.4,1.2,0.7c0.3,0.3,0.5,0.6,0.5,1
		c0,0.4-0.2,0.7-0.5,1c-0.3,0.3-0.9,0.4-1.6,0.4s-1.5-0.2-2.4-0.6L106,275.5L106,275.5z M116.4,266l-1.8,0.2v9.8h1.8V266L116.4,266z
		 M114.6,264c0.2,0.2,0.5,0.4,0.8,0.4s0.6-0.1,0.8-0.4c0.2-0.2,0.3-0.5,0.3-0.8c0-0.3-0.1-0.6-0.3-0.8c-0.2-0.2-0.5-0.3-0.8-0.3
		s-0.6,0.1-0.8,0.3c-0.2,0.2-0.4,0.5-0.4,0.8C114.2,263.5,114.4,263.8,114.6,264L114.6,264z M119.5,266.9c-0.6,0.7-0.9,1.5-0.9,2.6
		c0,0.7,0.1,1.3,0.4,1.9s0.7,1,1.2,1.3c-0.5,0.7-0.8,1.2-0.8,1.8c0,0.5,0.2,0.9,0.5,1.2c-1.2,0.6-1.8,1.4-1.8,2.5
		c0,0.8,0.3,1.4,1,1.9c0.7,0.4,1.7,0.7,3,0.7s2.4-0.3,3.2-1c0.8-0.6,1.3-1.5,1.3-2.5c0-0.7-0.3-1.3-0.8-1.7
		c-0.5-0.4-1.2-0.6-2.2-0.6h-1.8c-0.7,0-1-0.2-1-0.7c0-0.3,0.1-0.7,0.3-1.1c0.3,0.1,0.7,0.1,1,0.1c1.1,0,2-0.3,2.6-1
		s0.9-1.5,0.9-2.5s-0.2-1.8-0.7-2.4c0.9-0.1,1.6-0.2,2-0.3l-0.2-1.1c-1,0.2-2,0.3-3,0.3l-1.6-0.1C121,265.9,120.1,266.2,119.5,266.9
		L119.5,266.9z M123.6,267.8c0.3,0.4,0.4,0.9,0.4,1.7c0,1.4-0.6,2.2-1.9,2.2s-1.9-0.7-1.9-2.2s0.6-2.2,1.9-2.2
		C122.8,267.2,123.3,267.4,123.6,267.8L123.6,267.8z M124.7,276.4c0.2,0.2,0.4,0.4,0.4,0.8c0,0.6-0.2,1.1-0.7,1.4
		c-0.5,0.3-1.1,0.5-1.9,0.5s-1.4-0.1-1.9-0.3c-0.4-0.2-0.7-0.6-0.7-1c0-0.7,0.4-1.3,1.1-1.6h2.4C124,276.2,124.4,276.3,124.7,276.4
		L124.7,276.4z M135.4,266.7c-0.4-0.6-1.1-0.9-2-0.9c-0.6,0-1.2,0.1-1.8,0.4s-1.1,0.6-1.5,1l-0.2-1.2h-1.5v9.9h1.8v-7.3
		c0.3-0.4,0.7-0.7,1.3-0.9c0.6-0.3,1.1-0.4,1.5-0.4c0.5,0,0.8,0.2,0.9,0.5c0.2,0.3,0.2,0.8,0.2,1.4v6.7h1.8v-6.8
		C136,268.1,135.8,267.3,135.4,266.7L135.4,266.7z M144.4,266l-1.8,0.2v9.8h1.8V266L144.4,266z M142.6,264c0.2,0.2,0.5,0.4,0.8,0.4
		s0.6-0.1,0.8-0.4c0.2-0.2,0.3-0.5,0.3-0.8c0-0.3-0.1-0.6-0.3-0.8s-0.5-0.3-0.8-0.3s-0.6,0.1-0.8,0.3s-0.4,0.5-0.4,0.8
		C142.2,263.5,142.4,263.8,142.6,264L142.6,264z M154,266.7c-0.4-0.6-1.1-0.9-2-0.9c-0.6,0-1.2,0.1-1.8,0.4s-1.1,0.6-1.5,1l-0.2-1.2
		H147v9.9h1.8v-7.3c0.3-0.4,0.7-0.7,1.3-0.9c0.6-0.3,1.1-0.4,1.5-0.4c0.5,0,0.8,0.2,0.9,0.5c0.2,0.3,0.2,0.8,0.2,1.4v6.7h1.8v-6.8
		C154.6,268.1,154.4,267.3,154,266.7L154,266.7z M160.3,274.2l-2.2-8.1h-1.9l3.1,9.9h2l3.2-9.8h-1.8L160.3,274.2L160.3,274.2z
		 M173.6,271c0-1.8-0.4-3.1-1.1-3.9c-0.7-0.8-1.7-1.2-2.9-1.2s-2.2,0.4-3,1.2s-1.1,2.1-1.1,3.9s0.4,3.1,1.1,3.9
		c0.7,0.8,1.7,1.2,2.9,1.2s2.2-0.4,3-1.2C173.2,274.1,173.6,272.8,173.6,271L173.6,271z M171.2,268.1c0.4,0.5,0.6,1.5,0.6,2.8
		c0,1.4-0.2,2.3-0.7,2.9c-0.5,0.6-1,0.9-1.6,0.9c-1.5,0-2.3-1.2-2.3-3.7s0.8-3.7,2.3-3.7C170.3,267.3,170.8,267.6,171.2,268.1
		L171.2,268.1z M175.8,274c0,1.5,0.6,2.2,1.9,2.2c0.8,0,1.4-0.1,2-0.4l-0.3-1.3c-0.4,0.1-0.8,0.2-1.2,0.2c-0.5,0-0.7-0.3-0.7-0.8
		v-11.7h-1.8V274H175.8z M184.1,274.2l-2.2-8.1H180l3.1,9.9h2l3.2-9.8h-1.8L184.1,274.2L184.1,274.2z M196.6,275.4l-0.4-1.2
		c-0.8,0.4-1.7,0.5-2.6,0.5c-0.9,0-1.6-0.3-2-1c-0.5-0.7-0.7-1.6-0.7-2.7h5.7c0.2-0.7,0.3-1.3,0.3-1.8c0-1-0.3-1.8-0.9-2.4
		c-0.6-0.6-1.4-0.9-2.5-0.9c-1.3,0-2.3,0.5-3.1,1.4c-0.8,0.9-1.1,2.2-1.1,3.7s0.4,2.8,1.1,3.7c0.7,1,1.8,1.5,3.2,1.5
		C194.6,276.2,195.7,275.9,196.6,275.4L196.6,275.4L196.6,275.4z M195.2,269.7H191c0.1-0.4,0.3-0.9,0.6-1.4c0.2-0.3,0.4-0.5,0.8-0.7
		c0.3-0.2,0.8-0.3,1.3-0.3s0.9,0.2,1.2,0.6c0.3,0.4,0.4,1,0.4,1.7v0.1H195.2z M198.4,275.5c0.3,0.2,0.7,0.4,1.2,0.5
		c0.6,0.1,1.1,0.2,1.6,0.2c1.2,0,2.1-0.3,2.7-0.9c0.6-0.6,1-1.3,1-2.2c0-0.6-0.2-1.1-0.5-1.5s-0.7-0.7-1.2-0.9s-0.9-0.4-1.4-0.5
		c-0.5-0.2-0.9-0.4-1.2-0.6c-0.3-0.3-0.5-0.6-0.5-1s0.2-0.7,0.5-0.9s0.8-0.4,1.4-0.4c0.6,0,1.3,0.1,2.1,0.4l0.4-1.3
		c-0.7-0.4-1.5-0.6-2.6-0.6s-1.9,0.3-2.5,0.8s-0.9,1.2-0.9,2.1c0,0.6,0.2,1.1,0.5,1.5s0.7,0.7,1.2,0.9s0.9,0.4,1.4,0.5
		c0.5,0.2,0.8,0.4,1.2,0.7c0.3,0.3,0.5,0.6,0.5,1c0,0.4-0.2,0.7-0.5,1c-0.3,0.3-0.9,0.4-1.6,0.4c-0.7,0-1.5-0.2-2.4-0.6L198.4,275.5
		L198.4,275.5z M206.9,269c0,0.3,0.1,0.6,0.4,0.9c0.2,0.2,0.5,0.4,0.8,0.4s0.6-0.1,0.8-0.4c0.2-0.2,0.4-0.5,0.4-0.9
		c0-0.3-0.1-0.6-0.4-0.8c-0.2-0.2-0.5-0.3-0.8-0.3s-0.6,0.1-0.8,0.3C207,268.4,206.9,268.7,206.9,269L206.9,269z M209,273.7h-1.9
		c0.2,0.5,0.3,1,0.3,1.4c0,1-0.5,2.1-1.6,3.4h1.6c1.2-1.1,1.7-2.3,1.7-3.6C209.2,274.4,209.1,274,209,273.7L209,273.7L209,273.7z
		 M217.7,266l-1.8,0.2v9.8h1.8V266L217.7,266z M216,264c0.2,0.2,0.5,0.4,0.8,0.4s0.6-0.1,0.8-0.4c0.2-0.2,0.3-0.5,0.3-0.8
		c0-0.3-0.1-0.6-0.3-0.8s-0.5-0.3-0.8-0.3s-0.6,0.1-0.8,0.3s-0.4,0.5-0.4,0.8C215.6,263.5,215.7,263.8,216,264L216,264z
		 M225.7,275.8l-0.3-1.3c-0.4,0.1-0.8,0.2-1.2,0.2s-0.7-0.1-0.8-0.2c-0.1-0.1-0.2-0.2-0.2-0.4c0-0.1,0-0.3,0-0.6v-6.1h2.7l0.2-1.4
		h-2.9v-2.6l-1.6,0.3l-0.2,2.3l-1.8,0.1l-0.2,1.2l1.9,0.1v5.9c0,1,0.2,1.8,0.5,2.2s1,0.6,2,0.6C224.5,276.2,225.1,276.1,225.7,275.8
		L225.7,275.8L225.7,275.8z M238.7,275.9h1.8l2.6-9.9h-1.8l-1.8,7.9l-2-7.9l-1.6,0.1L234,274l-1.8-7.9h-1.8l2.6,9.9h1.8l1.9-7.7
		L238.7,275.9L238.7,275.9z M248.4,275.9c0.5-0.2,0.9-0.4,1.2-0.7c0.3,0.7,0.8,1,1.5,1s1.3-0.1,1.7-0.4l-0.3-1.1
		c-0.4,0.1-0.6,0.2-0.9,0.2c-0.3,0-0.5-0.2-0.5-0.7v-4.7c0-1.3-0.3-2.2-0.8-2.7s-1.4-0.8-2.7-0.8c-0.5,0-1,0.1-1.6,0.2
		c-0.6,0.1-1.1,0.3-1.5,0.6l0.4,1.2c1-0.4,1.8-0.5,2.6-0.5c0.7,0,1.2,0.1,1.5,0.4c0.3,0.3,0.4,0.8,0.4,1.5v1.5
		c-0.6-0.1-1.3-0.1-2.1-0.1c-0.7,0-1.4,0.2-2.1,0.5c-0.4,0.2-0.7,0.5-0.9,0.8c-0.2,0.4-0.4,0.8-0.4,1.4c0,0.8,0.3,1.5,0.8,2
		s1.2,0.7,2,0.7C247.4,276.2,247.9,276.1,248.4,275.9L248.4,275.9z M245.7,273.3c0-1,0.8-1.5,2.3-1.5c0.7,0,1.2,0,1.5,0.1v2.3
		c-0.7,0.5-1.5,0.7-2.3,0.7C246.2,274.8,245.7,274.3,245.7,273.3L245.7,273.3L245.7,273.3z M253.6,275.5c0.3,0.2,0.7,0.4,1.2,0.5
		c0.6,0.1,1.1,0.2,1.6,0.2c1.2,0,2.1-0.3,2.7-0.9c0.6-0.6,1-1.3,1-2.2c0-0.6-0.2-1.1-0.5-1.5s-0.7-0.7-1.2-0.9s-0.9-0.4-1.4-0.5
		c-0.5-0.2-0.9-0.4-1.2-0.6c-0.3-0.3-0.5-0.6-0.5-1s0.2-0.7,0.5-0.9s0.8-0.4,1.4-0.4s1.3,0.1,2.1,0.4l0.4-1.3
		c-0.6-0.4-1.5-0.6-2.6-0.6s-1.9,0.3-2.5,0.8s-0.9,1.2-0.9,2.1c0,0.6,0.2,1.1,0.5,1.5s0.7,0.7,1.2,0.9s0.9,0.4,1.4,0.5
		c0.5,0.2,0.8,0.4,1.2,0.7c0.3,0.3,0.5,0.6,0.5,1c0,0.4-0.2,0.7-0.5,1c-0.3,0.3-0.9,0.4-1.6,0.4c-0.7,0-1.5-0.2-2.4-0.6L253.6,275.5
		L253.6,275.5z M271.3,275.8l-0.3-1.3c-0.4,0.1-0.8,0.2-1.2,0.2c-0.4,0-0.7-0.1-0.8-0.2c-0.1-0.1-0.2-0.2-0.2-0.4c0-0.1,0-0.3,0-0.6
		v-6.1h2.7l0.2-1.4h-2.9v-2.6l-1.6,0.3L267,266l-1.8,0.1l-0.2,1.2l1.9,0.1v5.9c0,1,0.2,1.8,0.5,2.2s1,0.6,2,0.6
		C270.1,276.2,270.7,276.1,271.3,275.8L271.3,275.8L271.3,275.8z M276.4,266.3c-0.6,0.3-1.1,0.6-1.4,0.9v-5.1l-1.8,0.2v13.6h1.8
		v-7.3c0.3-0.4,0.7-0.7,1.3-0.9c0.5-0.2,1-0.4,1.5-0.4s0.8,0.2,0.9,0.5c0.2,0.3,0.2,0.8,0.2,1.4v6.7h1.8v-6.8c0-1-0.2-1.8-0.6-2.4
		c-0.4-0.6-1.1-0.9-2-0.9C277.5,265.9,277,266,276.4,266.3L276.4,266.3z M290.2,275.4l-0.4-1.2c-0.8,0.4-1.7,0.5-2.6,0.5
		s-1.6-0.3-2-1c-0.5-0.7-0.7-1.6-0.7-2.7h5.7c0.2-0.7,0.3-1.3,0.3-1.8c0-1-0.3-1.8-0.9-2.4c-0.6-0.6-1.4-0.9-2.5-0.9
		c-1.3,0-2.3,0.5-3.1,1.4c-0.8,0.9-1.1,2.2-1.1,3.7s0.4,2.8,1.1,3.7c0.7,1,1.8,1.5,3.2,1.5C288.2,276.2,289.3,275.9,290.2,275.4
		L290.2,275.4L290.2,275.4z M288.8,269.7h-4.2c0.1-0.4,0.3-0.9,0.6-1.4c0.2-0.3,0.4-0.5,0.8-0.7c0.3-0.2,0.8-0.3,1.3-0.3
		s0.9,0.2,1.2,0.6c0.3,0.4,0.4,1,0.4,1.7L288.8,269.7L288.8,269.7z M303.3,275.9h1.8v-10l-1.8,0.1h-4v-0.8c0-0.7,0.2-1.2,0.5-1.5
		c0.3-0.3,0.8-0.4,1.4-0.4s1.4,0.1,2.3,0.2l0.4-1.4c-0.9-0.2-1.8-0.3-2.7-0.3c-2.4,0-3.6,1.2-3.6,3.5v0.7l-1.6,0.1l-0.2,1.2l1.8,0.1
		v11.9l1.8,0.2v-12.1h4L303.3,275.9L303.3,275.9z M309.5,268.9c0.5-1,1.5-1.5,2.9-1.5c0.2,0,0.4,0,0.5,0l0.4-1.4
		c-0.2-0.1-0.5-0.1-0.9-0.1c-0.7,0-1.3,0.2-1.8,0.5c-0.5,0.4-0.9,0.7-1.2,1.1l-0.2-1.5h-1.5v9.9h1.8L309.5,268.9L309.5,268.9z
		 M314.1,275.5c0.3,0.2,0.7,0.4,1.2,0.5c0.6,0.1,1.1,0.2,1.6,0.2c1.2,0,2.1-0.3,2.7-0.9c0.6-0.6,1-1.3,1-2.2c0-0.6-0.2-1.1-0.5-1.5
		s-0.7-0.7-1.2-0.9s-0.9-0.4-1.4-0.5c-0.5-0.2-0.9-0.4-1.2-0.6c-0.3-0.3-0.5-0.6-0.5-1s0.2-0.7,0.5-0.9s0.8-0.4,1.4-0.4
		s1.3,0.1,2.1,0.4l0.4-1.3c-0.6-0.4-1.5-0.6-2.6-0.6s-1.9,0.3-2.5,0.8s-0.9,1.2-0.9,2.1c0,0.6,0.2,1.1,0.5,1.5s0.7,0.7,1.2,0.9
		s0.9,0.4,1.4,0.5c0.5,0.2,0.8,0.4,1.2,0.7c0.3,0.3,0.5,0.6,0.5,1c0,0.4-0.2,0.7-0.5,1c-0.3,0.3-0.9,0.4-1.6,0.4s-1.5-0.2-2.4-0.6
		L314.1,275.5L314.1,275.5z M328,275.8l-0.3-1.3c-0.4,0.1-0.8,0.2-1.2,0.2s-0.7-0.1-0.8-0.2c-0.1-0.1-0.2-0.2-0.2-0.4
		c0-0.1,0-0.3,0-0.6v-6.1h2.7l0.2-1.4h-2.9v-2.6l-1.6,0.3l-0.2,2.3l-1.8,0.1l-0.2,1.2l1.9,0.1v5.9c0,1,0.2,1.8,0.5,2.2s1,0.6,2,0.6
		C326.8,276.2,327.4,276.1,328,275.8L328,275.8L328,275.8z"/>
	<path d="M94.1,247.4l-0.4-1.2c-0.8,0.4-1.7,0.5-2.6,0.5s-1.6-0.3-2-1c-0.5-0.7-0.7-1.6-0.7-2.7h5.7c0.2-0.7,0.3-1.3,0.3-1.8
		c0-1-0.3-1.8-0.9-2.4c-0.6-0.6-1.4-0.9-2.5-0.9c-1.3,0-2.3,0.5-3.1,1.4c-0.8,0.9-1.1,2.2-1.1,3.7s0.4,2.8,1.1,3.7
		c0.7,1,1.8,1.5,3.2,1.5C92.1,248.2,93.2,247.9,94.1,247.4L94.1,247.4L94.1,247.4z M92.8,241.7h-4.2c0.1-0.4,0.3-0.9,0.6-1.4
		c0.2-0.3,0.4-0.5,0.8-0.7c0.3-0.2,0.8-0.3,1.3-0.3s0.9,0.2,1.2,0.6c0.3,0.4,0.4,1,0.4,1.7v0.1H92.8z M101.8,238.1l-2.1,3.4l-2-3.4
		h-2l3.1,4.6l-3.5,5.2h2l2.4-3.9l2.3,3.9h2l-3.4-5.2l3.1-4.7L101.8,238.1L101.8,238.1z M112.2,247.4l-0.4-1.2
		c-0.8,0.4-1.7,0.5-2.6,0.5s-1.6-0.3-2-1c-0.5-0.7-0.7-1.6-0.7-2.7h5.7c0.2-0.7,0.3-1.3,0.3-1.8c0-1-0.3-1.8-0.9-2.4
		c-0.6-0.6-1.4-0.9-2.5-0.9c-1.3,0-2.3,0.5-3.1,1.4c-0.8,0.9-1.1,2.2-1.1,3.7s0.4,2.8,1.1,3.7c0.7,1,1.8,1.5,3.2,1.5
		C110.2,248.2,111.3,247.9,112.2,247.4L112.2,247.4L112.2,247.4z M110.9,241.7h-4.2c0.1-0.4,0.3-0.9,0.6-1.4
		c0.2-0.3,0.4-0.5,0.8-0.7c0.3-0.2,0.8-0.3,1.3-0.3s0.9,0.2,1.2,0.6c0.3,0.4,0.4,1,0.4,1.7v0.1H110.9z M116.3,240.9
		c0.5-1,1.5-1.5,2.9-1.5c0.2,0,0.4,0,0.5,0l0.4-1.4c-0.2-0.1-0.5-0.1-0.9-0.1c-0.7,0-1.3,0.2-1.8,0.5c-0.5,0.4-0.9,0.7-1.2,1.1
		L116,238h-1.5v9.9h1.8L116.3,240.9L116.3,240.9z M127.6,247.8l-0.3-1.3c-0.6,0.2-1.2,0.3-1.8,0.3c-2,0-3-1.2-3-3.7
		c0-1.3,0.3-2.2,0.8-2.8s1.2-0.9,1.9-0.9c0.5,0,1.2,0.1,1.9,0.3l0.5-1.2c-0.7-0.4-1.5-0.6-2.4-0.6c-1.2,0-2.3,0.4-3.2,1.3
		c-0.9,0.9-1.3,2.2-1.3,3.9s0.4,3,1.3,3.9s1.9,1.3,3.3,1.3C126,248.2,126.7,248.1,127.6,247.8L127.6,247.8L127.6,247.8z M131.3,238
		l-1.8,0.2v9.8h1.8V238L131.3,238z M129.6,236c0.2,0.2,0.5,0.4,0.8,0.4s0.6-0.1,0.8-0.4c0.2-0.2,0.3-0.5,0.3-0.8s-0.1-0.6-0.3-0.8
		s-0.5-0.3-0.8-0.3s-0.6,0.1-0.8,0.3s-0.4,0.5-0.4,0.8S129.3,235.8,129.6,236L129.6,236z M133.4,247.5c0.3,0.2,0.7,0.4,1.2,0.5
		c0.6,0.1,1.1,0.2,1.6,0.2c1.2,0,2.1-0.3,2.7-0.9c0.6-0.6,1-1.3,1-2.2c0-0.6-0.2-1.1-0.5-1.5s-0.7-0.7-1.2-0.9s-0.9-0.4-1.4-0.5
		c-0.5-0.2-0.9-0.4-1.2-0.6s-0.5-0.6-0.5-1s0.2-0.7,0.5-0.9s0.8-0.4,1.4-0.4s1.3,0.1,2.1,0.4l0.4-1.3c-0.6-0.4-1.5-0.6-2.6-0.6
		s-1.9,0.3-2.5,0.8s-0.9,1.2-0.9,2.1c0,0.6,0.2,1.1,0.5,1.5s0.7,0.7,1.2,0.9s0.9,0.4,1.4,0.5c0.5,0.2,0.8,0.4,1.2,0.7
		c0.3,0.3,0.5,0.6,0.5,1s-0.2,0.7-0.5,1s-0.9,0.4-1.6,0.4c-0.7,0-1.5-0.2-2.4-0.6L133.4,247.5L133.4,247.5z M148.9,247.4l-0.4-1.2
		c-0.8,0.4-1.7,0.5-2.6,0.5c-0.9,0-1.6-0.3-2-1s-0.7-1.6-0.7-2.7h5.7c0.2-0.7,0.3-1.3,0.3-1.8c0-1-0.3-1.8-0.9-2.4
		c-0.6-0.6-1.4-0.9-2.5-0.9c-1.3,0-2.3,0.5-3.1,1.4s-1.1,2.2-1.1,3.7s0.4,2.8,1.1,3.7c0.7,1,1.8,1.5,3.2,1.5
		C146.9,248.2,148,247.9,148.9,247.4L148.9,247.4L148.9,247.4z M147.5,241.7h-4.2c0.1-0.4,0.3-0.9,0.6-1.4c0.2-0.3,0.4-0.5,0.8-0.7
		c0.3-0.2,0.8-0.3,1.3-0.3s0.9,0.2,1.2,0.6c0.3,0.4,0.4,1,0.4,1.7v0.1H147.5z M157.1,238l-1.8,0.2v9.8h1.8V238L157.1,238z
		 M155.3,236c0.2,0.2,0.5,0.4,0.8,0.4s0.6-0.1,0.8-0.4c0.2-0.2,0.3-0.5,0.3-0.8s-0.1-0.6-0.3-0.8s-0.5-0.3-0.8-0.3s-0.6,0.1-0.8,0.3
		s-0.4,0.5-0.4,0.8S155.1,235.8,155.3,236L155.3,236z M166.7,238.7c-0.4-0.6-1.1-0.9-2-0.9c-0.6,0-1.2,0.1-1.8,0.4
		c-0.6,0.3-1.1,0.6-1.5,1l-0.2-1.2h-1.5v9.9h1.8v-7.3c0.3-0.4,0.7-0.7,1.3-0.9c0.6-0.3,1.1-0.4,1.5-0.4c0.5,0,0.8,0.2,0.9,0.5
		c0.2,0.3,0.2,0.8,0.2,1.4v6.7h1.8v-6.8C167.3,240.1,167.1,239.3,166.7,238.7L166.7,238.7z M180.9,247.4l-0.4-1.2
		c-0.8,0.4-1.7,0.5-2.6,0.5c-0.9,0-1.6-0.3-2-1s-0.7-1.6-0.7-2.7h5.7c0.2-0.7,0.3-1.3,0.3-1.8c0-1-0.3-1.8-0.9-2.4
		c-0.6-0.6-1.4-0.9-2.5-0.9c-1.3,0-2.3,0.5-3.1,1.4s-1.1,2.2-1.1,3.7s0.4,2.8,1.1,3.7c0.7,1,1.8,1.5,3.2,1.5
		C178.9,248.2,179.9,247.9,180.9,247.4L180.9,247.4L180.9,247.4z M179.5,241.7h-4.2c0.1-0.4,0.3-0.9,0.6-1.4
		c0.2-0.3,0.4-0.5,0.8-0.7c0.3-0.2,0.8-0.3,1.3-0.3s0.9,0.2,1.2,0.6c0.3,0.4,0.4,1,0.4,1.7v0.1H179.5z M186.4,246.2l-2.2-8.1h-1.9
		l3.1,9.9h2l3.2-9.8h-1.8L186.4,246.2L186.4,246.2z M198.9,247.4l-0.4-1.2c-0.8,0.4-1.7,0.5-2.6,0.5c-0.9,0-1.6-0.3-2-1
		c-0.5-0.7-0.7-1.6-0.7-2.7h5.7c0.2-0.7,0.3-1.3,0.3-1.8c0-1-0.3-1.8-0.9-2.4c-0.6-0.6-1.4-0.9-2.5-0.9c-1.3,0-2.3,0.5-3.1,1.4
		s-1.1,2.2-1.1,3.7s0.4,2.8,1.1,3.7c0.7,1,1.8,1.5,3.2,1.5C196.9,248.2,198,247.9,198.9,247.4L198.9,247.4L198.9,247.4z
		 M197.5,241.7h-4.2c0.1-0.4,0.3-0.9,0.6-1.4c0.2-0.3,0.4-0.5,0.8-0.7c0.3-0.2,0.8-0.3,1.3-0.3s0.9,0.2,1.2,0.6
		c0.3,0.4,0.4,1,0.4,1.7v0.1H197.5z M203,240.9c0.5-1,1.5-1.5,2.9-1.5c0.2,0,0.4,0,0.5,0l0.4-1.4c-0.2-0.1-0.5-0.1-0.9-0.1
		c-0.7,0-1.3,0.2-1.8,0.5c-0.5,0.4-0.9,0.7-1.2,1.1l-0.2-1.5h-1.5v9.9h1.8V240.9L203,240.9z M207.1,250.7l-0.2,1.2
		c0.5,0.1,0.9,0.1,1.3,0.1c1.1,0,1.9-0.3,2.6-1c0.7-0.7,1.3-1.8,1.8-3.3l3.2-9.7H214l-2.3,8l-2.6-8l-1.9,0.1l3.6,9.8
		c-0.3,1-0.7,1.7-1.2,2.1c-0.4,0.4-1,0.6-1.7,0.6C207.6,250.7,207.3,250.7,207.1,250.7L207.1,250.7L207.1,250.7z M222.9,247.8
		l-0.3-1.3c-0.4,0.1-0.8,0.2-1.2,0.2s-0.7-0.1-0.8-0.2c-0.1-0.1-0.2-0.2-0.2-0.4c0-0.1,0-0.3,0-0.6v-6.1h2.7l0.2-1.4h-2.9v-2.6
		l-1.6,0.3l-0.2,2.3l-1.8,0.1l-0.2,1.2l1.9,0.1v5.9c0,1,0.2,1.8,0.5,2.2s1,0.6,2,0.6C221.6,248.2,222.3,248.1,222.9,247.8
		L222.9,247.8L222.9,247.8z M228,238.3c-0.6,0.3-1.1,0.6-1.4,0.9v-5.1l-1.8,0.2v13.6h1.8v-7.3c0.3-0.4,0.7-0.7,1.3-0.9
		c0.5-0.2,1-0.4,1.5-0.4s0.8,0.2,0.9,0.5c0.2,0.3,0.2,0.8,0.2,1.4v6.7h1.8v-6.8c0-1-0.2-1.8-0.6-2.4c-0.4-0.6-1.1-0.9-2-0.9
		C229.1,237.9,228.5,238,228,238.3L228,238.3z M236.6,238l-1.8,0.2v9.8h1.8V238L236.6,238z M234.8,236c0.2,0.2,0.5,0.4,0.8,0.4
		s0.6-0.1,0.8-0.4c0.2-0.2,0.3-0.5,0.3-0.8s-0.1-0.6-0.3-0.8s-0.5-0.3-0.8-0.3s-0.6,0.1-0.8,0.3s-0.4,0.5-0.4,0.8
		S234.6,235.8,234.8,236L234.8,236z M246.2,238.7c-0.4-0.6-1.1-0.9-2-0.9c-0.6,0-1.2,0.1-1.8,0.4c-0.6,0.3-1.1,0.6-1.5,1l-0.2-1.2
		h-1.5v9.9h1.8v-7.3c0.3-0.4,0.7-0.7,1.3-0.9c0.6-0.3,1.1-0.4,1.5-0.4c0.5,0,0.8,0.2,0.9,0.5c0.2,0.3,0.2,0.8,0.2,1.4v6.7h1.8v-6.8
		C246.8,240.1,246.6,239.3,246.2,238.7L246.2,238.7z M249.9,238.9c-0.6,0.7-0.9,1.5-0.9,2.6c0,0.7,0.1,1.3,0.4,1.9
		c0.3,0.6,0.7,1,1.2,1.3c-0.5,0.7-0.8,1.2-0.8,1.8c0,0.5,0.2,0.9,0.5,1.2c-1.2,0.6-1.8,1.4-1.8,2.5c0,0.8,0.3,1.4,1,1.9
		c0.7,0.4,1.7,0.7,3,0.7s2.4-0.3,3.2-1c0.8-0.6,1.3-1.5,1.3-2.5c0-0.7-0.3-1.3-0.8-1.7S255,247,254,247h-1.8c-0.7,0-1-0.2-1-0.7
		c0-0.3,0.1-0.7,0.3-1.1c0.3,0.1,0.7,0.1,1,0.1c1.1,0,2-0.3,2.6-1s0.9-1.5,0.9-2.5s-0.2-1.8-0.7-2.4c0.9-0.1,1.6-0.2,2-0.3l-0.2-1.1
		c-1,0.2-2,0.3-3,0.3l-1.6-0.1C251.3,237.9,250.4,238.2,249.9,238.9L249.9,238.9z M254,239.8c0.3,0.4,0.4,0.9,0.4,1.7
		c0,1.4-0.6,2.2-1.9,2.2c-1.3,0-1.9-0.7-1.9-2.2s0.6-2.2,1.9-2.2C253.2,239.2,253.7,239.4,254,239.8L254,239.8z M255,248.4
		c0.2,0.2,0.4,0.4,0.4,0.8c0,0.6-0.2,1.1-0.7,1.4c-0.5,0.3-1.1,0.5-1.9,0.5c-0.8,0-1.4-0.1-1.9-0.3c-0.4-0.2-0.7-0.6-0.7-1
		c0-0.7,0.4-1.3,1.1-1.6h2.4C254.3,248.2,254.8,248.3,255,248.4L255,248.4z M267.9,247.8l-0.3-1.3c-0.4,0.1-0.8,0.2-1.2,0.2
		c-0.4,0-0.7-0.1-0.8-0.2c-0.1-0.1-0.2-0.2-0.2-0.4c0-0.1,0-0.3,0-0.6v-6.1h2.7l0.2-1.4h-2.9v-2.6l-1.6,0.3l-0.2,2.3l-1.8,0.1
		l-0.2,1.2l1.9,0.1v5.9c0,1,0.2,1.8,0.5,2.2s1,0.6,2,0.6C266.7,248.2,267.3,248.1,267.9,247.8L267.9,247.8L267.9,247.8z M273,238.3
		c-0.6,0.3-1.1,0.6-1.4,0.9v-5.1l-1.8,0.2v13.6h1.8v-7.3c0.3-0.4,0.7-0.7,1.3-0.9c0.5-0.2,1-0.4,1.5-0.4s0.8,0.2,0.9,0.5
		c0.2,0.3,0.2,0.8,0.2,1.4v6.7h1.8v-6.8c0-1-0.2-1.8-0.6-2.4c-0.4-0.6-1.1-0.9-2-0.9C274.1,237.9,273.6,238,273,238.3L273,238.3z
		 M283.6,247.9c0.5-0.2,0.9-0.4,1.2-0.7c0.3,0.7,0.8,1,1.5,1s1.3-0.1,1.7-0.4l-0.3-1.1c-0.4,0.1-0.7,0.2-0.9,0.2
		c-0.3,0-0.5-0.2-0.5-0.7v-4.7c0-1.3-0.3-2.2-0.8-2.7s-1.4-0.8-2.7-0.8c-0.5,0-1,0.1-1.6,0.2c-0.6,0.1-1.1,0.3-1.5,0.6l0.4,1.2
		c1-0.4,1.8-0.5,2.6-0.5c0.7,0,1.2,0.1,1.5,0.4c0.3,0.3,0.4,0.8,0.4,1.5v1.5c-0.6-0.1-1.3-0.1-2.1-0.1c-0.7,0-1.5,0.2-2.1,0.5
		c-0.4,0.2-0.7,0.5-0.9,0.8c-0.2,0.4-0.4,0.8-0.4,1.4c0,0.8,0.2,1.5,0.8,2c0.5,0.5,1.2,0.7,2,0.7
		C282.6,248.2,283.1,248.1,283.6,247.9L283.6,247.9z M280.8,245.3c0-1,0.8-1.5,2.3-1.5c0.7,0,1.2,0,1.5,0.1v2.3
		c-0.7,0.5-1.5,0.7-2.3,0.7C281.3,246.8,280.8,246.3,280.8,245.3L280.8,245.3L280.8,245.3z M294.6,247.8l-0.3-1.3
		c-0.4,0.1-0.8,0.2-1.2,0.2c-0.4,0-0.7-0.1-0.8-0.2c-0.1-0.1-0.2-0.2-0.2-0.4c0-0.1,0-0.3,0-0.6v-6.1h2.7l0.2-1.4h-3v-2.6l-1.6,0.3
		l-0.2,2.3l-1.8,0.1l-0.2,1.2l1.9,0.1v5.9c0,1,0.2,1.8,0.5,2.2s1,0.6,2,0.6C293.4,248.2,294,248.1,294.6,247.8L294.6,247.8
		L294.6,247.8z M305.6,247.8l-0.3-1.3c-0.4,0.1-0.8,0.2-1.2,0.2c-0.4,0-0.7-0.1-0.8-0.2c-0.1-0.1-0.2-0.2-0.2-0.4c0-0.1,0-0.3,0-0.6
		v-6.1h2.7l0.2-1.4h-3v-2.6l-1.6,0.3l-0.2,2.3l-1.8,0.1l-0.2,1.2l1.9,0.1v5.9c0,1,0.2,1.8,0.5,2.2s1,0.6,2,0.6
		C304.4,248.2,305,248.1,305.6,247.8L305.6,247.8L305.6,247.8z M306.3,250.7l-0.2,1.2c0.5,0.1,0.9,0.1,1.3,0.1c1.1,0,1.9-0.3,2.6-1
		s1.3-1.8,1.8-3.3l3.2-9.7h-1.8l-2.3,8l-2.6-8l-1.9,0.1l3.6,9.8c-0.3,1-0.7,1.7-1.2,2.1c-0.4,0.4-1,0.6-1.7,0.6
		C306.8,250.7,306.5,250.7,306.3,250.7L306.3,250.7L306.3,250.7z M318.5,246.4v-6.2c0.8-0.6,1.6-0.9,2.3-0.9c1.3,0,2,1.2,2,3.5
		c0,2.6-0.8,3.9-2.4,3.9C319.7,246.7,319.1,246.6,318.5,246.4L318.5,246.4L318.5,246.4z M318.2,238.1h-1.5v14.3l1.8-0.2v-4.3
		c0.6,0.3,1.2,0.4,1.9,0.4c2.9,0,4.3-1.8,4.3-5.4c0-1.5-0.3-2.7-0.9-3.6c-0.6-0.9-1.4-1.3-2.5-1.3s-2,0.3-2.9,1L318.2,238.1
		L318.2,238.1z M333.7,247.4l-0.4-1.2c-0.8,0.4-1.7,0.5-2.6,0.5s-1.6-0.3-2-1c-0.5-0.7-0.7-1.6-0.7-2.7h5.7c0.2-0.7,0.3-1.3,0.3-1.8
		c0-1-0.3-1.8-0.9-2.4c-0.6-0.6-1.4-0.9-2.5-0.9c-1.3,0-2.3,0.5-3.1,1.4c-0.8,0.9-1.1,2.2-1.1,3.7s0.4,2.8,1.1,3.7
		c0.7,1,1.8,1.5,3.2,1.5C331.8,248.2,332.8,247.9,333.7,247.4L333.7,247.4L333.7,247.4z M332.4,241.7h-4.2c0.1-0.4,0.3-0.9,0.6-1.4
		c0.2-0.3,0.4-0.5,0.8-0.7c0.3-0.2,0.8-0.3,1.3-0.3s0.9,0.2,1.2,0.6C332.4,240.3,332.5,240.9,332.4,241.7L332.4,241.7L332.4,241.7z"
		/>
	<path d="M94.4,208c-0.4-0.4-1-0.7-1.5-0.8c-0.6-0.2-1.4-0.2-2.4-0.2h-3.1v13h1.9v-5.1H90c0.4,0,0.8,0,1,0l4,5.4l1.4-1l-3.6-4.7
		c0.5-0.1,1-0.4,1.5-0.7c0.8-0.6,1.2-1.7,1.2-3.1C95.5,209.6,95.2,208.7,94.4,208L94.4,208L94.4,208z M90,213.3h-0.7v-5h1.1
		c1.3,0,2.2,0.2,2.7,0.7c0.4,0.4,0.7,1.1,0.7,1.9s-0.3,1.5-0.8,1.9C92.4,213.2,91.5,213.3,90,213.3L90,213.3L90,213.3z M101.9,219.9
		c0.5-0.2,0.9-0.4,1.2-0.7c0.3,0.7,0.8,1,1.5,1s1.3-0.1,1.7-0.4l-0.3-1.1c-0.4,0.1-0.7,0.2-0.9,0.2c-0.3,0-0.5-0.2-0.5-0.7v-4.7
		c0-1.3-0.3-2.2-0.8-2.7s-1.4-0.8-2.7-0.8c-0.5,0-1,0.1-1.6,0.2c-0.6,0.1-1.1,0.3-1.5,0.6l0.4,1.2c1-0.4,1.8-0.5,2.6-0.5
		c0.7,0,1.2,0.1,1.5,0.4c0.3,0.3,0.4,0.8,0.4,1.5v1.5c-0.6-0.1-1.3-0.1-2.1-0.1s-1.4,0.2-2.1,0.5c-0.4,0.2-0.7,0.5-0.9,0.8
		c-0.2,0.4-0.4,0.8-0.4,1.4c0,0.8,0.3,1.5,0.8,2s1.2,0.7,2,0.7C100.9,220.2,101.4,220.1,101.9,219.9L101.9,219.9z M99.2,217.3
		c0-1,0.8-1.5,2.3-1.5c0.7,0,1.2,0,1.5,0.1v2.3c-0.7,0.5-1.5,0.7-2.3,0.7C99.7,218.8,99.2,218.3,99.2,217.3L99.2,217.3L99.2,217.3z
		 M115.1,212.6c0.4-0.3,0.8-0.6,1.3-0.9c0.5-0.2,1-0.4,1.4-0.4c0.5,0,0.8,0.2,0.9,0.5c0.2,0.3,0.2,0.8,0.2,1.4v6.7h1.8v-6.8
		c0-2.2-0.9-3.3-2.6-3.3c-0.5,0-1.1,0.1-1.8,0.4c-0.6,0.3-1.1,0.6-1.5,1c-0.4-1-1.1-1.4-2.3-1.4c-0.6,0-1.1,0.1-1.7,0.4
		c-0.6,0.3-1.1,0.6-1.4,1l-0.2-1.2h-1.5v9.9h1.8v-7.3c0.3-0.4,0.7-0.7,1.2-0.9s1-0.4,1.5-0.4s0.8,0.2,0.9,0.5
		c0.2,0.3,0.2,0.8,0.2,1.4v6.7h1.8v-6.7C115.1,213,115.1,212.7,115.1,212.6L115.1,212.6L115.1,212.6z M129.4,214.9
		c0,2.5-0.8,3.8-2.5,3.8c-0.7,0-1.4-0.1-1.9-0.3v-6.2c0.8-0.5,1.6-0.8,2.4-0.8C128.7,211.4,129.4,212.5,129.4,214.9L129.4,214.9
		L129.4,214.9z M123.3,206.3v13c1,0.6,2.2,0.9,3.6,0.9c2.9,0,4.3-1.9,4.3-5.7c0-1.5-0.3-2.6-1-3.4c-0.7-0.8-1.5-1.2-2.5-1.2
		c-0.5,0-1,0.1-1.5,0.3s-0.9,0.4-1.1,0.6v-4.5L123.3,206.3L123.3,206.3z M133.4,218c0,1.5,0.6,2.2,1.9,2.2c0.8,0,1.4-0.1,2-0.4
		l-0.3-1.3c-0.4,0.1-0.8,0.2-1.2,0.2c-0.5,0-0.7-0.3-0.7-0.8v-11.7h-1.8V218H133.4z M142.3,219.9c0.5-0.2,0.9-0.4,1.2-0.7
		c0.3,0.7,0.8,1,1.5,1s1.3-0.1,1.7-0.4l-0.3-1.1c-0.4,0.1-0.6,0.2-0.9,0.2c-0.3,0-0.5-0.2-0.5-0.7v-4.7c0-1.3-0.3-2.2-0.8-2.7
		s-1.4-0.8-2.7-0.8c-0.5,0-1,0.1-1.6,0.2c-0.6,0.1-1.1,0.3-1.5,0.6l0.4,1.2c1-0.4,1.8-0.5,2.6-0.5s1.2,0.1,1.5,0.4
		c0.3,0.3,0.4,0.8,0.4,1.5v1.5c-0.6-0.1-1.3-0.1-2.1-0.1c-0.7,0-1.4,0.2-2.1,0.5c-0.4,0.2-0.7,0.5-0.9,0.8c-0.2,0.4-0.4,0.8-0.4,1.4
		c0,0.8,0.3,1.5,0.8,2s1.2,0.7,2,0.7C141.3,220.2,141.8,220.1,142.3,219.9L142.3,219.9z M139.6,217.3c0-1,0.8-1.5,2.3-1.5
		c0.7,0,1.2,0,1.5,0.1v2.3c-0.7,0.5-1.5,0.7-2.3,0.7C140.1,218.8,139.6,218.3,139.6,217.3L139.6,217.3L139.6,217.3z M158.2,214.9
		c0,2.5-0.8,3.8-2.5,3.8c-0.7,0-1.4-0.1-1.9-0.3v-6.2c0.8-0.5,1.6-0.8,2.4-0.8C157.6,211.4,158.2,212.5,158.2,214.9L158.2,214.9
		L158.2,214.9z M152.1,206.3v13c1,0.6,2.2,0.9,3.6,0.9c2.9,0,4.3-1.9,4.3-5.7c0-1.5-0.3-2.6-1-3.4c-0.7-0.8-1.5-1.2-2.5-1.2
		c-0.5,0-1,0.1-1.5,0.3s-0.9,0.4-1.1,0.6v-4.5L152.1,206.3L152.1,206.3z M169.1,219.4l-0.4-1.2c-0.8,0.4-1.7,0.5-2.6,0.5
		c-0.9,0-1.6-0.3-2-1c-0.5-0.7-0.7-1.6-0.7-2.7h5.7c0.2-0.7,0.3-1.3,0.3-1.8c0-1-0.3-1.8-0.9-2.4c-0.6-0.6-1.4-0.9-2.5-0.9
		c-1.3,0-2.3,0.5-3.1,1.4s-1.1,2.2-1.1,3.7s0.4,2.8,1.1,3.7c0.7,1,1.8,1.5,3.2,1.5C167.2,220.2,168.2,219.9,169.1,219.4L169.1,219.4
		L169.1,219.4z M167.8,213.7h-4.2c0.1-0.4,0.3-0.9,0.6-1.4c0.2-0.3,0.4-0.5,0.8-0.7c0.3-0.2,0.8-0.3,1.3-0.3s0.9,0.2,1.2,0.6
		c0.3,0.4,0.4,1,0.4,1.7v0.1H167.8z M172,210.9c-0.6,0.7-0.9,1.5-0.9,2.6c0,0.7,0.1,1.3,0.4,1.9c0.3,0.6,0.7,1,1.2,1.3
		c-0.5,0.6-0.8,1.2-0.8,1.8c0,0.5,0.2,0.9,0.5,1.2c-1.2,0.6-1.8,1.4-1.8,2.5c0,0.8,0.3,1.4,1,1.9c0.7,0.4,1.7,0.7,3,0.7
		s2.4-0.3,3.2-1c0.8-0.6,1.3-1.5,1.3-2.5c0-0.7-0.3-1.3-0.8-1.7s-1.2-0.6-2.2-0.6h-1.8c-0.7,0-1-0.2-1-0.7c0-0.3,0.1-0.7,0.3-1.1
		c0.3,0.1,0.7,0.1,1,0.1c1.1,0,2-0.3,2.6-1s0.9-1.5,0.9-2.5s-0.2-1.8-0.7-2.4c0.9-0.1,1.6-0.2,2-0.3l-0.2-1.1c-1,0.2-2,0.3-3,0.3
		l-1.6-0.1C173.5,209.9,172.6,210.2,172,210.9L172,210.9z M176.1,211.8c0.3,0.4,0.4,0.9,0.4,1.7c0,1.4-0.6,2.2-1.9,2.2
		c-1.3,0-1.9-0.7-1.9-2.2s0.6-2.2,1.9-2.2C175.3,211.2,175.8,211.4,176.1,211.8L176.1,211.8z M177.2,220.4c0.2,0.2,0.4,0.4,0.4,0.8
		c0,0.6-0.2,1.1-0.7,1.4c-0.5,0.3-1.1,0.5-1.9,0.5c-0.8,0-1.4-0.1-1.9-0.3c-0.4-0.2-0.7-0.6-0.7-1c0-0.7,0.4-1.3,1.1-1.6h2.4
		C176.5,220.2,176.9,220.3,177.2,220.4L177.2,220.4z M184.7,219.9c0.5-0.2,0.9-0.4,1.2-0.7c0.3,0.7,0.8,1,1.5,1s1.3-0.1,1.7-0.4
		l-0.3-1.1c-0.4,0.1-0.6,0.2-0.9,0.2c-0.3,0-0.5-0.2-0.5-0.7v-4.7c0-1.3-0.3-2.2-0.8-2.7s-1.4-0.8-2.7-0.8c-0.5,0-1,0.1-1.6,0.2
		c-0.6,0.1-1.1,0.3-1.5,0.6l0.4,1.2c1-0.4,1.8-0.5,2.6-0.5s1.2,0.1,1.5,0.4c0.3,0.3,0.4,0.8,0.4,1.5v1.5c-0.6-0.1-1.3-0.1-2.1-0.1
		c-0.7,0-1.4,0.2-2.1,0.5c-0.4,0.2-0.7,0.5-0.9,0.8c-0.2,0.4-0.4,0.8-0.4,1.4c0,0.8,0.3,1.5,0.8,2s1.2,0.7,2,0.7
		C183.6,220.2,184.2,220.1,184.7,219.9L184.7,219.9z M181.9,217.3c0-1,0.8-1.5,2.3-1.5c0.7,0,1.2,0,1.5,0.1v2.3
		c-0.7,0.5-1.5,0.7-2.3,0.7C182.4,218.8,181.9,218.3,181.9,217.3L181.9,217.3L181.9,217.3z M197.4,210.7c-0.4-0.6-1.1-0.9-2-0.9
		c-0.6,0-1.2,0.1-1.8,0.4c-0.6,0.3-1.1,0.6-1.5,1l-0.2-1.2h-1.5v9.9h1.8v-7.3c0.3-0.4,0.7-0.7,1.3-0.9c0.6-0.3,1.1-0.4,1.5-0.4
		c0.5,0,0.8,0.2,0.9,0.5c0.2,0.3,0.2,0.8,0.2,1.4v6.7h1.8v-6.8C198,212.1,197.8,211.3,197.4,210.7L197.4,210.7z M208.4,219.9
		c0.5-0.2,0.9-0.4,1.2-0.7c0.3,0.7,0.8,1,1.5,1s1.3-0.1,1.7-0.4l-0.3-1.1c-0.4,0.1-0.6,0.2-0.9,0.2c-0.3,0-0.5-0.2-0.5-0.7v-4.7
		c0-1.3-0.3-2.2-0.8-2.7s-1.4-0.8-2.7-0.8c-0.5,0-1,0.1-1.6,0.2c-0.6,0.1-1.1,0.3-1.5,0.6l0.4,1.2c1-0.4,1.8-0.5,2.6-0.5
		s1.2,0.1,1.5,0.4c0.3,0.3,0.4,0.8,0.4,1.5v1.5c-0.6-0.1-1.3-0.1-2.1-0.1c-0.7,0-1.4,0.2-2.1,0.5c-0.4,0.2-0.7,0.5-0.9,0.8
		c-0.2,0.4-0.4,0.8-0.4,1.4c0,0.8,0.2,1.5,0.8,2c0.5,0.5,1.2,0.7,2,0.7C207.3,220.2,207.9,220.1,208.4,219.9L208.4,219.9z
		 M205.6,217.3c0-1,0.8-1.5,2.3-1.5c0.7,0,1.2,0,1.5,0.1v2.3c-0.7,0.5-1.5,0.7-2.3,0.7C206.1,218.8,205.6,218.3,205.6,217.3
		L205.6,217.3L205.6,217.3z M213.6,219.5c0.3,0.2,0.7,0.4,1.2,0.5c0.6,0.1,1.1,0.2,1.6,0.2c1.2,0,2.1-0.3,2.7-0.9
		c0.6-0.6,1-1.3,1-2.2c0-0.6-0.2-1.1-0.5-1.5s-0.7-0.7-1.2-0.9s-0.9-0.4-1.4-0.5c-0.5-0.2-0.9-0.4-1.2-0.6c-0.3-0.3-0.5-0.6-0.5-1
		s0.2-0.7,0.5-0.9s0.8-0.4,1.4-0.4c0.6,0,1.3,0.1,2.1,0.4l0.4-1.3c-0.7-0.4-1.5-0.6-2.6-0.6s-1.9,0.3-2.5,0.8s-0.9,1.2-0.9,2.1
		c0,0.6,0.2,1.1,0.5,1.5s0.7,0.7,1.2,0.9s0.9,0.4,1.4,0.5c0.5,0.2,0.8,0.4,1.2,0.7c0.3,0.3,0.5,0.6,0.5,1s-0.2,0.7-0.5,1
		s-0.9,0.4-1.6,0.4c-0.7,0-1.5-0.2-2.4-0.6L213.6,219.5L213.6,219.5z M230,219.9c0.5-0.2,0.9-0.4,1.2-0.7c0.3,0.7,0.8,1,1.5,1
		s1.3-0.1,1.7-0.4l-0.3-1.1c-0.4,0.1-0.7,0.2-0.9,0.2c-0.3,0-0.5-0.2-0.5-0.7v-4.7c0-1.3-0.3-2.2-0.8-2.7s-1.4-0.8-2.7-0.8
		c-0.5,0-1,0.1-1.6,0.2c-0.6,0.1-1.1,0.3-1.5,0.6l0.4,1.2c1-0.4,1.8-0.5,2.6-0.5s1.2,0.1,1.5,0.4c0.3,0.3,0.4,0.8,0.4,1.5v1.5
		c-0.6-0.1-1.3-0.1-2.1-0.1c-0.7,0-1.4,0.2-2.1,0.5c-0.4,0.2-0.7,0.5-0.9,0.8c-0.2,0.4-0.4,0.8-0.4,1.4c0,0.8,0.2,1.5,0.8,2
		c0.5,0.5,1.2,0.7,2,0.7C228.9,220.2,229.5,220.1,230,219.9L230,219.9z M227.2,217.3c0-1,0.8-1.5,2.3-1.5c0.7,0,1.2,0,1.5,0.1v2.3
		c-0.7,0.5-1.5,0.7-2.3,0.7C227.7,218.8,227.2,218.3,227.2,217.3L227.2,217.3L227.2,217.3z M239.9,218c0,1.5,0.7,2.2,2,2.2
		c0.8,0,1.4-0.1,2-0.4l-0.3-1.3c-0.4,0.1-0.8,0.2-1.2,0.2c-0.5,0-0.7-0.3-0.7-0.8v-11.7h-1.8V218L239.9,218z M252,219.4l-0.4-1.2
		c-0.8,0.4-1.7,0.5-2.6,0.5c-0.9,0-1.6-0.3-2-1s-0.7-1.6-0.7-2.7h5.7c0.2-0.7,0.3-1.3,0.3-1.8c0-1-0.3-1.8-0.9-2.4
		c-0.6-0.6-1.4-0.9-2.5-0.9c-1.3,0-2.3,0.5-3.1,1.4s-1.1,2.2-1.1,3.7s0.4,2.8,1.1,3.7c0.7,1,1.8,1.5,3.2,1.5
		C250,220.2,251,219.9,252,219.4L252,219.4L252,219.4z M250.6,213.7h-4.2c0.1-0.4,0.3-0.9,0.6-1.4c0.2-0.3,0.4-0.5,0.8-0.7
		c0.3-0.2,0.8-0.3,1.3-0.3s0.9,0.2,1.2,0.6s0.4,1,0.4,1.7v0.1H250.6z M258,219.9c0.5-0.2,0.9-0.4,1.2-0.7c0.3,0.7,0.8,1,1.5,1
		s1.3-0.1,1.7-0.4l-0.3-1.1c-0.4,0.1-0.7,0.2-0.9,0.2c-0.3,0-0.5-0.2-0.5-0.7v-4.7c0-1.3-0.3-2.2-0.8-2.7s-1.4-0.8-2.7-0.8
		c-0.5,0-1,0.1-1.6,0.2c-0.6,0.1-1.1,0.3-1.5,0.6l0.4,1.2c1-0.4,1.8-0.5,2.6-0.5c0.7,0,1.2,0.1,1.5,0.4c0.3,0.3,0.4,0.8,0.4,1.5v1.5
		c-0.6-0.1-1.3-0.1-2.1-0.1c-0.7,0-1.5,0.2-2.1,0.5c-0.4,0.2-0.7,0.5-0.9,0.8c-0.2,0.4-0.4,0.8-0.4,1.4c0,0.8,0.2,1.5,0.8,2
		c0.5,0.5,1.2,0.7,2,0.7C256.9,220.2,257.5,220.1,258,219.9L258,219.9z M255.2,217.3c0-1,0.8-1.5,2.3-1.5c0.7,0,1.2,0,1.5,0.1v2.3
		c-0.7,0.5-1.5,0.7-2.3,0.7C255.7,218.8,255.2,218.3,255.2,217.3L255.2,217.3L255.2,217.3z M265.5,212.9c0.5-1,1.5-1.5,2.9-1.5
		c0.2,0,0.4,0,0.5,0l0.4-1.4c-0.2-0.1-0.5-0.1-0.9-0.1c-0.7,0-1.3,0.2-1.8,0.5c-0.5,0.4-0.9,0.7-1.2,1.1l-0.2-1.5h-1.5v9.9h1.8
		L265.5,212.9L265.5,212.9z M277.8,210.7c-0.4-0.6-1.1-0.9-2-0.9c-0.6,0-1.2,0.1-1.8,0.4c-0.6,0.3-1.1,0.6-1.5,1l-0.2-1.2h-1.5v9.9
		h1.8v-7.3c0.3-0.4,0.7-0.7,1.3-0.9c0.6-0.3,1.1-0.4,1.5-0.4c0.5,0,0.8,0.2,0.9,0.5c0.2,0.3,0.2,0.8,0.2,1.4v6.7h1.8v-6.8
		C278.3,212.1,278.1,211.3,277.8,210.7L277.8,210.7z M282.7,210l-1.8,0.2v9.8h1.8V210L282.7,210z M280.9,208
		c0.2,0.2,0.5,0.4,0.8,0.4s0.6-0.1,0.8-0.4c0.2-0.2,0.3-0.5,0.3-0.8s-0.1-0.6-0.3-0.8c-0.2-0.2-0.5-0.3-0.8-0.3s-0.6,0.1-0.8,0.3
		c-0.2,0.2-0.4,0.5-0.4,0.8S280.7,207.8,280.9,208L280.9,208z M292.3,210.7c-0.4-0.6-1.1-0.9-2-0.9c-0.6,0-1.2,0.1-1.8,0.4
		c-0.6,0.3-1.1,0.6-1.5,1l-0.2-1.2h-1.5v9.9h1.8v-7.3c0.3-0.4,0.7-0.7,1.3-0.9c0.6-0.3,1.1-0.4,1.5-0.4c0.5,0,0.8,0.2,0.9,0.5
		c0.2,0.3,0.2,0.8,0.2,1.4v6.7h1.8v-6.8C292.8,212.1,292.6,211.3,292.3,210.7L292.3,210.7z M295.9,210.9c-0.6,0.7-0.9,1.5-0.9,2.6
		c0,0.7,0.1,1.3,0.4,1.9c0.3,0.6,0.7,1,1.2,1.3c-0.5,0.6-0.8,1.2-0.8,1.8c0,0.5,0.2,0.9,0.5,1.2c-1.2,0.6-1.8,1.4-1.8,2.5
		c0,0.8,0.3,1.4,1,1.9c0.7,0.4,1.7,0.7,3,0.7s2.4-0.3,3.2-1c0.8-0.6,1.3-1.5,1.3-2.5c0-0.7-0.3-1.3-0.8-1.7S301,219,300,219h-1.8
		c-0.7,0-1-0.2-1-0.7c0-0.3,0.1-0.7,0.3-1.1c0.3,0.1,0.7,0.1,1,0.1c1.1,0,2-0.3,2.6-1s0.9-1.5,0.9-2.5s-0.2-1.8-0.7-2.4
		c0.9-0.1,1.6-0.2,2-0.3l-0.2-1.1c-1,0.2-2,0.3-3,0.3l-1.6-0.1C297.4,209.9,296.5,210.2,295.9,210.9L295.9,210.9z M300,211.8
		c0.3,0.4,0.4,0.9,0.4,1.7c0,1.4-0.6,2.2-1.9,2.2s-1.9-0.7-1.9-2.2s0.6-2.2,1.9-2.2C299.3,211.2,299.8,211.4,300,211.8L300,211.8z
		 M301.1,220.4c0.2,0.2,0.4,0.4,0.4,0.8c0,0.6-0.2,1.1-0.7,1.4c-0.5,0.3-1.1,0.5-1.9,0.5s-1.4-0.1-1.9-0.3c-0.4-0.2-0.7-0.6-0.7-1
		c0-0.7,0.4-1.3,1.1-1.6h2.4C300.4,220.2,300.9,220.3,301.1,220.4L301.1,220.4z"/>
	<path d="M81.8,208.7l-4.8,5v1.3l4.8,5l1.6-1.4l-4.1-4.3l4.1-4.3L81.8,208.7L81.8,208.7z M75.9,208.7l-4.8,5v1.3l4.8,5l1.6-1.4
		l-4.2-4.3l4.2-4.3L75.9,208.7L75.9,208.7z"/>
	<path d="M320.7,387.1l1.6,1.4l4.8-5v-1.3l-4.8-5l-1.6,1.4l4.1,4.3L320.7,387.1L320.7,387.1z M326.6,387.1l1.6,1.4l4.8-5v-1.3
		l-4.8-5l-1.6,1.4l4.2,4.3L326.6,387.1L326.6,387.1z"/>
	<path d="M58.6,509.2l0.6,17.1h3.2l-1.1-24h-4L50.7,520l-6.6-17.8h-4l-1.1,24h3.2l0.6-17.1c0-0.5,0-1,0-1.5s0-1,0-1.5l6.6,17.5H52
		l6.6-17.5c0,0.5,0,1,0,1.5S58.6,508.7,58.6,509.2L58.6,509.2L58.6,509.2z M74.7,526.2c0.9-0.3,1.7-0.8,2.2-1.3
		c0.6,1.2,1.5,1.8,2.8,1.8s2.4-0.3,3.2-0.8l-0.5-2c-0.7,0.2-1.2,0.3-1.6,0.3c-0.6,0-0.9-0.4-0.9-1.3v-8.7c0-2.4-0.5-4.1-1.4-5.1
		c-1-1-2.6-1.5-4.9-1.5c-0.8,0-1.8,0.1-3,0.4c-1.1,0.3-2.1,0.6-2.8,1l0.8,2.3c1.8-0.6,3.4-1,4.7-1c1.3,0,2.2,0.3,2.7,0.8
		s0.7,1.5,0.7,2.9v2.8c-1.2-0.1-2.4-0.2-3.8-0.2s-2.7,0.3-3.9,0.9c-0.7,0.3-1.3,0.9-1.7,1.5c-0.4,0.7-0.6,1.5-0.6,2.6
		c0,1.5,0.5,2.8,1.4,3.7s2.2,1.4,3.7,1.4C72.8,526.7,73.8,526.5,74.7,526.2L74.7,526.2z M69.6,521.4c0-1.9,1.4-2.8,4.2-2.8
		c1.3,0,2.2,0,2.8,0.1v4.2c-1.3,0.9-2.8,1.3-4.3,1.3C70.6,524.2,69.6,523.2,69.6,521.4L69.6,521.4L69.6,521.4z M89.3,513.3
		c1-1.9,2.7-2.8,5.4-2.8c0.4,0,0.7,0,0.9,0l0.6-2.6c-0.4-0.1-0.9-0.2-1.6-0.2c-1.3,0-2.4,0.3-3.4,1s-1.7,1.4-2.1,2.1l-0.4-2.7H86
		v18.2h3.2L89.3,513.3L89.3,513.3z M109.7,526l-0.6-2.4c-0.8,0.3-1.5,0.4-2.3,0.4s-1.3-0.1-1.5-0.3s-0.4-0.4-0.4-0.7
		c0-0.3-0.1-0.6-0.1-1.1v-11.3h5l0.3-2.6h-5.3v-4.9l-2.9,0.5l-0.3,4.3l-3.3,0.3l-0.3,2.1l3.6,0.2v10.9c0,1.9,0.3,3.2,0.9,4
		c0.6,0.8,1.8,1.2,3.7,1.2C107.4,526.7,108.5,526.5,109.7,526L109.7,526L109.7,526z M117.1,507.9l-3.3,0.3v18.1h3.3V507.9
		L117.1,507.9z M119,499.1l-5.8,4.4l1.3,2l6.2-3.7L119,499.1L119,499.1z M135.5,509.3c-0.7-1.1-2-1.6-3.8-1.6
		c-1.1,0-2.2,0.3-3.3,0.8c-1.1,0.5-2,1.1-2.7,1.8l-0.4-2.2h-2.7v18.2h3.2v-13.4c0.6-0.7,1.4-1.2,2.4-1.7s2-0.7,2.8-0.7
		c0.9,0,1.5,0.3,1.7,0.9c0.3,0.6,0.4,1.5,0.4,2.6v12.3h3.2v-12.5C136.6,511.8,136.2,510.3,135.5,509.3L135.5,509.3z M162.1,515.2
		c-0.7-0.6-1.3-1.1-1.9-1.5c-0.6-0.4-1.5-0.9-2.8-1.6c-1.2-0.7-2.3-1.3-3-1.9c-0.8-0.6-1.2-1.4-1.2-2.3s0.3-1.6,1-2.2
		s1.7-0.8,3.1-0.8c1.4,0,3,0.3,4.8,1l0.9-2.9c-2.1-0.8-4.1-1.2-6.1-1.2s-3.7,0.6-5,1.7c-1.4,1.1-2.1,2.6-2.1,4.6
		c0,1.9,0.6,3.4,1.8,4.5c0.6,0.6,1.2,1,1.7,1.3s1.4,0.8,2.8,1.5c1.4,0.7,2.5,1.4,3.4,2.1c0.9,0.7,1.3,1.6,1.3,2.7
		c0,1.1-0.4,1.9-1.2,2.6s-2,1-3.5,1c-1.6,0-3.5-0.5-5.9-1.4l-0.9,3.1c0.8,0.4,1.9,0.7,3.3,1c1.4,0.3,2.7,0.4,3.9,0.4
		c2.3,0,4.1-0.6,5.5-1.9s2.1-2.9,2.1-4.8C164.1,518,163.5,516.4,162.1,515.2L162.1,515.2L162.1,515.2z M182.9,517.2
		c0-3.3-0.7-5.7-2-7.2s-3.1-2.3-5.4-2.3c-2.3,0-4.1,0.8-5.5,2.3s-2.1,4-2.1,7.3s0.7,5.7,2,7.2s3.1,2.3,5.4,2.3s4.1-0.8,5.5-2.3
		C182.2,522.9,182.9,520.5,182.9,517.2L182.9,517.2z M178.5,511.8c0.7,1,1.1,2.7,1.1,5.2s-0.4,4.3-1.2,5.4c-0.8,1.1-1.8,1.6-3,1.6
		c-2.8,0-4.2-2.3-4.2-6.9c0-4.6,1.4-6.9,4.2-6.9C176.8,510.3,177.8,510.8,178.5,511.8L178.5,511.8z M201.4,512.7
		c0.6-0.6,1.4-1.1,2.4-1.6c0.9-0.5,1.8-0.7,2.7-0.7c0.8,0,1.4,0.3,1.7,0.9s0.4,1.5,0.4,2.6v12.3h3.2v-12.5c0-4.1-1.6-6.1-4.8-6.1
		c-1,0-2.1,0.3-3.2,0.8c-1.2,0.6-2.1,1.2-2.8,1.8c-0.7-1.8-2.1-2.7-4.3-2.7c-1,0-2.1,0.3-3.2,0.8c-1.1,0.5-2,1.1-2.6,1.8l-0.4-2.2
		h-2.7v18.2h3.2v-13.4c0.6-0.7,1.3-1.3,2.3-1.7c1-0.5,1.9-0.7,2.8-0.7c0.9,0,1.5,0.3,1.7,0.9c0.3,0.6,0.4,1.5,0.4,2.6v12.3h3.2
		v-12.3C201.4,513.4,201.4,513,201.4,512.7L201.4,512.7L201.4,512.7z M230.9,512.7c0.6-0.6,1.4-1.1,2.4-1.6c0.9-0.5,1.8-0.7,2.7-0.7
		c0.8,0,1.4,0.3,1.7,0.9s0.4,1.5,0.4,2.6v12.3h3.2v-12.5c0-4.1-1.6-6.1-4.8-6.1c-1,0-2.1,0.3-3.2,0.8c-1.2,0.6-2.1,1.2-2.8,1.8
		c-0.7-1.8-2.1-2.7-4.3-2.7c-1,0-2.1,0.3-3.2,0.8c-1.1,0.5-2,1.1-2.6,1.8L220,508h-2.7v18.2h3.2v-13.4c0.6-0.7,1.3-1.3,2.3-1.7
		c1-0.5,1.9-0.7,2.8-0.7c0.9,0,1.5,0.3,1.7,0.9c0.3,0.6,0.4,1.5,0.4,2.6v12.3h3.2v-12.3C231,513.4,231,513,230.9,512.7L230.9,512.7
		L230.9,512.7z M253.7,526.2c0.9-0.3,1.7-0.8,2.2-1.3c0.6,1.2,1.5,1.8,2.8,1.8s2.4-0.3,3.2-0.8l-0.5-2c-0.7,0.2-1.2,0.3-1.6,0.3
		c-0.6,0-0.9-0.4-0.9-1.3v-8.7c0-2.4-0.5-4.1-1.4-5.1c-1-1-2.6-1.5-4.9-1.5c-0.8,0-1.8,0.1-3,0.4s-2.1,0.6-2.8,1l0.8,2.3
		c1.8-0.6,3.4-1,4.7-1s2.2,0.3,2.7,0.8s0.7,1.5,0.7,2.9v2.8c-1.2-0.1-2.4-0.2-3.8-0.2c-1.4,0-2.7,0.3-3.9,0.9
		c-0.7,0.3-1.3,0.9-1.7,1.5c-0.4,0.7-0.6,1.5-0.6,2.6c0,1.5,0.5,2.8,1.4,3.7s2.2,1.4,3.7,1.4C251.8,526.7,252.8,526.5,253.7,526.2
		L253.7,526.2z M248.6,521.4c0-1.9,1.4-2.8,4.2-2.8c1.3,0,2.2,0,2.8,0.1v4.2c-1.3,0.9-2.8,1.3-4.3,1.3
		C249.5,524.2,248.6,523.2,248.6,521.4L248.6,521.4L248.6,521.4z M268.3,513.3c1-1.9,2.7-2.8,5.4-2.8c0.4,0,0.7,0,0.9,0l0.6-2.6
		c-0.4-0.1-0.9-0.2-1.6-0.2c-1.3,0-2.4,0.3-3.4,1s-1.7,1.4-2.1,2.1l-0.4-2.7H265v18.2h3.2v-13H268.3z M286.9,526.1
		c1-0.4,1.9-0.9,2.6-1.5l0.4,1.9h2.6v-18.4h-3.2v14.1c-0.6,0.5-1.3,0.9-2.2,1.2c-0.9,0.3-1.8,0.5-2.8,0.5c-0.9,0-1.6-0.3-1.9-0.8
		c-0.3-0.6-0.5-1.4-0.5-2.6V508h-3.2v12.5c0,2,0.4,3.5,1.2,4.6c0.8,1.1,2.1,1.6,4.1,1.6C284.9,526.7,285.9,526.5,286.9,526.1
		L286.9,526.1z M299,509.5c-1.1,1.2-1.6,2.8-1.6,4.7c0,1.3,0.3,2.4,0.8,3.4s1.3,1.8,2.3,2.4c-0.9,1.2-1.4,2.3-1.4,3.3
		s0.3,1.7,0.9,2.2c-2.2,1.2-3.3,2.7-3.3,4.5c0,1.5,0.6,2.6,1.9,3.5s3.1,1.2,5.5,1.2s4.4-0.6,5.9-1.8c1.5-1.2,2.3-2.7,2.3-4.7
		c0-1.4-0.5-2.4-1.4-3.2c-1-0.8-2.3-1.2-4-1.2h-3.3c-1.3,0-1.9-0.4-1.9-1.2c0-0.6,0.2-1.2,0.6-2.1c0.6,0.1,1.2,0.2,1.8,0.2
		c2.1,0,3.7-0.6,4.8-1.9c1.1-1.2,1.7-2.7,1.7-4.6c0-1.8-0.5-3.3-1.4-4.4c1.6-0.2,2.9-0.4,3.8-0.6l-0.4-2c-1.9,0.3-3.8,0.5-5.6,0.5
		l-3-0.2C301.7,507.7,300.1,508.3,299,509.5L299,509.5z M306.6,511.1c0.5,0.7,0.8,1.7,0.8,3.1c0,2.7-1.2,4-3.5,4s-3.5-1.3-3.5-4
		s1.2-4,3.5-4C305.1,510.2,306,510.5,306.6,511.1L306.6,511.1z M308.5,527.2c0.5,0.3,0.7,0.8,0.7,1.4c0,1.1-0.4,2-1.3,2.6
		s-2.1,1-3.6,1s-2.7-0.2-3.5-0.6c-0.8-0.4-1.2-1.1-1.2-1.9c0-1.4,0.7-2.3,2-2.9h4.4C307.2,526.7,308.1,526.9,308.5,527.2
		L308.5,527.2z M323.1,526.2c0.9-0.3,1.7-0.8,2.2-1.3c0.6,1.2,1.5,1.8,2.8,1.8s2.4-0.3,3.2-0.8l-0.5-2c-0.7,0.2-1.2,0.3-1.6,0.3
		c-0.6,0-0.9-0.4-0.9-1.3v-8.7c0-2.4-0.5-4.1-1.4-5.1c-1-1-2.6-1.5-4.9-1.5c-0.8,0-1.8,0.1-3,0.4c-1.1,0.3-2.1,0.6-2.8,1l0.8,2.3
		c1.8-0.6,3.4-1,4.7-1s2.2,0.3,2.7,0.8s0.7,1.5,0.7,2.9v2.8c-1.2-0.1-2.4-0.2-3.8-0.2s-2.7,0.3-3.9,0.9c-0.7,0.3-1.3,0.9-1.7,1.5
		c-0.4,0.7-0.6,1.5-0.6,2.6c0,1.5,0.5,2.8,1.4,3.7s2.2,1.4,3.7,1.4C321.1,526.7,322.1,526.5,323.1,526.2L323.1,526.2z M318,521.4
		c0-1.9,1.4-2.8,4.2-2.8c1.3,0,2.2,0,2.8,0.1v4.2c-1.3,0.9-2.8,1.3-4.3,1.3C318.9,524.2,318,523.2,318,521.4L318,521.4L318,521.4z"
		/>
</g>
</svg>
