<?xml version="1.0" encoding="utf-8"?>
<!-- Generator: Adobe Illustrator 22.0.1, SVG Export Plug-In . SVG Version: 6.00 Build 0)  -->
<svg version="1.1" id="Ebene_1" xmlns="http://www.w3.org/2000/svg" xmlns:xlink="http://www.w3.org/1999/xlink" x="0px" y="0px"
	 viewBox="0 0 375 600" style="enable-background:new 0 0 375 600;" xml:space="preserve">
<g>
	<path d="M58.7,384.6L77,410.1l9.9-6.1l-15.7-21.4c1.9-0.7,3.6-1.7,5-2.8c4.2-3.1,6.3-8.2,6.3-15.3c0-5.8-1.9-10.3-5.6-13.6
		c-2.1-2-4.6-3.3-7.4-4.1c-2.8-0.8-6.5-1.2-11.2-1.2H40.4v61.5h13.2v-22.4H56C57.3,384.7,58.2,384.6,58.7,384.6L58.7,384.6
		L58.7,384.6z M54.7,374.9h-1v-19.5h2.4c5.5,0,9.2,0.8,10.9,2.5c1.7,1.7,2.6,4.2,2.6,7.7c0,3.5-1.1,5.9-3.2,7.4
		C64.7,374.3,60.8,374.9,54.7,374.9L54.7,374.9L54.7,374.9z M133.7,397.9c-1.5,0.4-2.6,0.6-3.4,0.6c-1.5,0-2.3-0.9-2.3-2.6v-19.3
		c0-6.4-1.3-11-4-13.7c-2.7-2.7-7.1-4-13.4-4c-2.3,0-5.1,0.4-8.4,1.1c-3.3,0.7-6.1,1.7-8.3,3.1l2.7,8.1c3.9-1.3,7.3-1.9,10.4-1.9
		c3.1,0,5.3,0.5,6.6,1.4s1.9,3,1.9,6.2v4.5c-2.2-0.2-5.1-0.3-8.8-0.3c-3.7,0-7.2,0.8-10.5,2.4c-1.8,0.9-3.3,2.4-4.5,4.3
		c-1.2,2-1.7,4.3-1.7,7.1c0,4.2,1.2,7.5,3.7,9.9c2.5,2.4,6.1,3.6,10.9,3.6c4.8,0,9-1.5,12.5-4.4c1.8,2.8,4.5,4.2,8.2,4.2
		c3.7,0,7.1-0.9,10.3-2.6L133.7,397.9L133.7,397.9z M101.9,393.4c0-3.9,3-5.9,9.1-5.9c1.3,0,2.8,0.1,4.5,0.2v9.7
		c-2.5,1.6-5,2.4-7.5,2.4C103.9,399.7,101.9,397.6,101.9,393.4L101.9,393.4L101.9,393.4z M151.5,365.1l-1.1-5.2h-10.6v47.2h12.9V373
		c2.4-2.3,5.3-3.4,8.7-3.4c1.3,0,2.4,0.2,3.2,0.6c1.7,0.7,2.5,3.1,2.5,7v30H180v-32.2c0-0.9,0-1.5-0.1-1.9c2.4-2.3,5.3-3.4,8.7-3.4
		c1.3,0,2.4,0.2,3.2,0.6c1.7,0.7,2.5,3.1,2.5,7v30h12.9v-32.3c0-5-0.9-8.9-2.8-11.6c-1.9-2.7-5.4-4.1-10.7-4.1
		c-2.9,0-5.8,0.6-8.6,1.9c-2.9,1.3-5.1,2.7-6.8,4.5c-1-2.1-2.4-3.7-4.1-4.8c-1.7-1-4.1-1.6-7.3-1.6c-3.1,0-6.1,0.6-8.9,1.8
		C155.3,362.1,153.1,363.6,151.5,365.1L151.5,365.1L151.5,365.1z M216.6,342.6v62.5c1.9,0.9,4.8,1.6,8.6,2.3c3.9,0.6,7.5,1,10.9,1
		c7.8,0,13.6-2.3,17.1-6.9c3.6-4.6,5.3-11.3,5.3-20.1c0-7.1-1.6-12.6-4.9-16.4c-3.3-3.8-7.4-5.8-12.4-5.8c-2.2,0-4.4,0.4-6.6,1.1
		c-2.2,0.8-3.9,1.7-5.2,2.7v-20.3H216.6L216.6,342.6z M229.5,397.4V372c2.7-1.7,5.4-2.5,8.1-2.5c2.7,0,4.7,1,6,2.9
		c1.3,2,2,5.4,2,10.3c0,4.9-0.8,8.6-2.5,11.2c-1.7,2.6-4.6,3.9-8.8,3.9C232.7,397.9,231.1,397.7,229.5,397.4L229.5,397.4
		L229.5,397.4z M286.6,397.3c-1.7,0.4-3.4,0.6-5,0.6c-1.6,0-2.7-0.4-3.2-1.1c-0.5-0.7-0.8-2-0.8-3.8v-50.3h-13v49.6
		c0,2,0,3.6,0.1,4.7c0.1,1.1,0.4,2.5,0.9,4.2c0.5,1.7,1.2,2.9,2.2,3.8c0.9,0.9,2.4,1.6,4.3,2.3c1.9,0.7,4.3,1,7.3,1
		c2.9,0,6-0.7,9.1-2L286.6,397.3L286.6,397.3z M335.7,397.9c-1.5,0.4-2.6,0.6-3.4,0.6c-1.5,0-2.3-0.9-2.3-2.6v-19.3
		c0-6.4-1.3-11-4-13.7c-2.7-2.7-7.1-4-13.4-4c-2.3,0-5.1,0.4-8.4,1.1c-3.3,0.7-6.1,1.7-8.3,3.1l2.7,8.1c3.9-1.3,7.3-1.9,10.4-1.9
		c3.1,0,5.3,0.5,6.6,1.4c1.3,0.9,1.9,3,1.9,6.2v4.5c-2.2-0.2-5.1-0.3-8.8-0.3c-3.6,0-7.2,0.8-10.5,2.4c-1.8,0.9-3.3,2.4-4.5,4.3
		c-1.2,2-1.7,4.3-1.7,7.1c0,4.2,1.2,7.5,3.7,9.9c2.5,2.4,6.1,3.6,10.9,3.6c4.8,0,9-1.5,12.5-4.4c1.8,2.8,4.5,4.2,8.2,4.2
		c3.7,0,7.1-0.9,10.3-2.6L335.7,397.9L335.7,397.9z M303.9,393.4c0-3.9,3-5.9,9.1-5.9c1.3,0,2.8,0.1,4.5,0.2v9.7
		c-2.5,1.6-5,2.4-7.5,2.4C305.9,399.7,303.9,397.6,303.9,393.4L303.9,393.4L303.9,393.4z"/>
	<path d="M92.5,317.8l-0.3-1.3c-0.4,0.1-0.8,0.2-1.2,0.2c-0.4,0-0.7-0.1-0.8-0.2c-0.1-0.1-0.2-0.2-0.2-0.4c0-0.1,0-0.3,0-0.6v-6.1
		h2.7l0.2-1.4h-2.9v-2.6l-1.6,0.3l-0.2,2.3l-1.8,0.1l-0.2,1.2l1.9,0.1v5.9c0,1,0.2,1.8,0.5,2.2c0.3,0.4,1,0.6,2,0.6
		C91.3,318.2,91.9,318.1,92.5,317.8L92.5,317.8L92.5,317.8z M97.2,308.3c-0.6,0.3-1.1,0.6-1.4,0.9v-5.1l-1.8,0.2v13.6h1.8v-7.3
		c0.3-0.4,0.7-0.7,1.3-0.9c0.5-0.2,1-0.4,1.5-0.4c0.5,0,0.8,0.2,0.9,0.5c0.2,0.3,0.2,0.8,0.2,1.4v6.7h1.8v-6.8c0-1-0.2-1.8-0.6-2.4
		c-0.4-0.6-1.1-0.9-2-0.9C98.4,307.9,97.8,308,97.2,308.3L97.2,308.3z M110.6,317.4l-0.4-1.2c-0.8,0.4-1.7,0.5-2.6,0.5
		c-0.9,0-1.6-0.3-2-1c-0.5-0.7-0.7-1.6-0.7-2.7h5.7c0.2-0.7,0.3-1.3,0.3-1.8c0-1-0.3-1.8-0.9-2.4c-0.6-0.6-1.4-0.9-2.5-0.9
		c-1.3,0-2.3,0.5-3.1,1.4c-0.8,0.9-1.1,2.2-1.1,3.7c0,1.5,0.4,2.8,1.1,3.7c0.7,1,1.8,1.5,3.2,1.5
		C108.7,318.2,109.7,317.9,110.6,317.4L110.6,317.4L110.6,317.4z M109.3,311.7l-4.2,0c0.1-0.4,0.3-0.9,0.6-1.4
		c0.2-0.3,0.4-0.5,0.8-0.7c0.3-0.2,0.8-0.3,1.3-0.3c0.5,0,0.9,0.2,1.2,0.6c0.3,0.4,0.4,1,0.4,1.7V311.7L109.3,311.7z M124,313
		c0-1.8-0.4-3.1-1.1-3.9c-0.7-0.8-1.7-1.2-2.9-1.2c-1.2,0-2.2,0.4-3,1.2c-0.8,0.8-1.1,2.1-1.1,3.9c0,1.8,0.4,3.1,1.1,3.9
		c0.7,0.8,1.7,1.2,2.9,1.2s2.2-0.4,3-1.2C123.6,316.1,124,314.8,124,313L124,313z M121.6,310.1c0.4,0.5,0.6,1.5,0.6,2.8
		s-0.2,2.3-0.7,2.9c-0.4,0.6-1,0.9-1.6,0.9c-1.5,0-2.3-1.2-2.3-3.7c0-2.5,0.8-3.7,2.3-3.7C120.7,309.3,121.3,309.6,121.6,310.1
		L121.6,310.1z M132.8,308.7c-0.4-0.6-1.1-0.9-2-0.9c-0.6,0-1.2,0.1-1.8,0.4c-0.6,0.3-1.1,0.6-1.5,1l-0.2-1.2h-1.5v9.9h1.8v-7.3
		c0.3-0.4,0.7-0.7,1.3-0.9c0.6-0.3,1.1-0.4,1.5-0.4c0.5,0,0.8,0.2,0.9,0.5c0.2,0.3,0.2,0.8,0.2,1.4v6.7h1.8v-6.8
		C133.4,310.1,133.2,309.3,132.8,308.7L132.8,308.7z M142.5,317.4l-0.4-1.2c-0.8,0.4-1.7,0.5-2.6,0.5c-0.9,0-1.6-0.3-2-1
		c-0.5-0.7-0.7-1.6-0.7-2.7h5.7c0.2-0.7,0.3-1.3,0.3-1.8c0-1-0.3-1.8-0.9-2.4c-0.6-0.6-1.4-0.9-2.5-0.9c-1.3,0-2.3,0.5-3.1,1.4
		c-0.8,0.9-1.1,2.2-1.1,3.7c0,1.5,0.4,2.8,1.1,3.7c0.7,1,1.8,1.5,3.2,1.5C140.5,318.2,141.5,317.9,142.5,317.4L142.5,317.4
		L142.5,317.4z M141.1,311.7l-4.2,0c0.1-0.4,0.3-0.9,0.6-1.4c0.2-0.3,0.4-0.5,0.8-0.7c0.3-0.2,0.8-0.3,1.3-0.3
		c0.5,0,0.9,0.2,1.2,0.6c0.3,0.4,0.4,1,0.4,1.7V311.7L141.1,311.7z M143.9,317.5c0.3,0.2,0.7,0.4,1.2,0.5c0.6,0.1,1.1,0.2,1.6,0.2
		c1.2,0,2.1-0.3,2.7-0.9c0.6-0.6,1-1.3,1-2.2c0-0.6-0.2-1.1-0.5-1.5c-0.3-0.4-0.7-0.7-1.2-0.9c-0.5-0.2-0.9-0.4-1.4-0.5
		c-0.5-0.2-0.9-0.4-1.2-0.6c-0.3-0.3-0.5-0.6-0.5-1c0-0.4,0.2-0.7,0.5-0.9c0.3-0.2,0.8-0.4,1.4-0.4c0.6,0,1.3,0.1,2.1,0.4l0.4-1.3
		c-0.6-0.4-1.5-0.6-2.6-0.6c-1.1,0-1.9,0.3-2.5,0.8c-0.6,0.5-0.9,1.2-0.9,2.1c0,0.6,0.2,1.1,0.5,1.5c0.3,0.4,0.7,0.7,1.2,0.9
		c0.5,0.2,0.9,0.4,1.4,0.5c0.5,0.2,0.8,0.4,1.2,0.7c0.3,0.3,0.5,0.6,0.5,1c0,0.4-0.2,0.7-0.5,1c-0.3,0.3-0.9,0.4-1.6,0.4
		c-0.7,0-1.5-0.2-2.4-0.6L143.9,317.5L143.9,317.5z M160.8,317.8l-0.3-1.3c-0.4,0.1-0.8,0.2-1.2,0.2c-0.4,0-0.7-0.1-0.8-0.2
		c-0.1-0.1-0.2-0.2-0.2-0.4c0-0.1,0-0.3,0-0.6v-6.1h2.7l0.2-1.4h-2.9v-2.6l-1.6,0.3l-0.2,2.3l-1.8,0.1l-0.2,1.2l1.9,0.1v5.9
		c0,1,0.2,1.8,0.5,2.2c0.3,0.4,1,0.6,2,0.6C159.6,318.2,160.2,318.1,160.8,317.8L160.8,317.8L160.8,317.8z M165.9,308.3
		c-0.6,0.3-1.1,0.6-1.4,0.9v-5.1l-1.8,0.2v13.6h1.8v-7.3c0.3-0.4,0.7-0.7,1.3-0.9c0.5-0.2,1-0.4,1.5-0.4c0.5,0,0.8,0.2,0.9,0.5
		c0.2,0.3,0.2,0.8,0.2,1.4v6.7h1.8v-6.8c0-1-0.2-1.8-0.6-2.4c-0.4-0.6-1.1-0.9-2-0.9C167,307.9,166.5,308,165.9,308.3L165.9,308.3z
		 M176.5,317.9c0.5-0.2,0.9-0.4,1.2-0.7c0.3,0.7,0.8,1,1.5,1c0.7,0,1.3-0.1,1.7-0.4l-0.3-1.1c-0.4,0.1-0.6,0.2-0.9,0.2
		c-0.3,0-0.5-0.2-0.5-0.7v-4.7c0-1.3-0.3-2.2-0.8-2.7c-0.5-0.5-1.4-0.8-2.7-0.8c-0.5,0-1,0.1-1.6,0.2c-0.6,0.1-1.1,0.3-1.5,0.6
		l0.4,1.2c1-0.4,1.8-0.5,2.6-0.5s1.2,0.1,1.5,0.4c0.3,0.3,0.4,0.8,0.4,1.5v1.5c-0.6-0.1-1.3-0.1-2.1-0.1c-0.7,0-1.5,0.2-2.1,0.5
		c-0.4,0.2-0.7,0.5-0.9,0.8c-0.2,0.4-0.4,0.8-0.4,1.4c0,0.8,0.2,1.5,0.8,2c0.5,0.5,1.2,0.7,2,0.7C175.5,318.2,176,318.1,176.5,317.9
		L176.5,317.9z M173.8,315.3c0-1,0.8-1.5,2.3-1.5c0.7,0,1.2,0,1.5,0.1v2.3c-0.7,0.5-1.5,0.7-2.3,0.7
		C174.3,316.8,173.8,316.3,173.8,315.3L173.8,315.3L173.8,315.3z M187.5,317.8l-0.3-1.3c-0.4,0.1-0.8,0.2-1.2,0.2s-0.7-0.1-0.8-0.2
		c-0.1-0.1-0.2-0.2-0.2-0.4c0-0.1,0-0.3,0-0.6v-6.1h2.7l0.2-1.4h-2.9v-2.6l-1.6,0.3l-0.2,2.3l-1.8,0.1l-0.2,1.2l1.9,0.1v5.9
		c0,1,0.2,1.8,0.5,2.2c0.3,0.4,1,0.6,2,0.6C186.3,318.2,186.9,318.1,187.5,317.8L187.5,317.8L187.5,317.8z M193.7,304.9v13h1.9v-13
		H193.7L193.7,304.9z M202.6,316c0,1.5,0.6,2.2,2,2.2c0.8,0,1.4-0.1,2-0.4l-0.3-1.3c-0.4,0.1-0.8,0.2-1.2,0.2
		c-0.5,0-0.7-0.3-0.7-0.8v-11.7h-1.8V316L202.6,316z M209.5,308l-1.8,0.2v9.8h1.8V308L209.5,308z M207.7,306
		c0.2,0.2,0.5,0.4,0.8,0.4c0.3,0,0.6-0.1,0.8-0.4c0.2-0.2,0.3-0.5,0.3-0.8s-0.1-0.6-0.3-0.8c-0.2-0.2-0.5-0.3-0.8-0.3
		c-0.3,0-0.6,0.1-0.8,0.3c-0.2,0.2-0.4,0.5-0.4,0.8S207.5,305.8,207.7,306L207.7,306z M213.9,312.6l4.3,5.3h2.1
		c-0.5-0.6-1.2-1.5-2.3-2.7c-1.1-1.2-1.8-2.2-2.3-2.7l4-4.3h-2.2l-3.7,4.3v-8.3l-1.8,0.2v13.6h1.8V312.6L213.9,312.6z M228.1,317.4
		l-0.4-1.2c-0.8,0.4-1.7,0.5-2.6,0.5c-0.9,0-1.6-0.3-2-1c-0.5-0.7-0.7-1.6-0.7-2.7h5.7c0.2-0.7,0.3-1.3,0.3-1.8c0-1-0.3-1.8-0.9-2.4
		c-0.6-0.6-1.4-0.9-2.5-0.9c-1.3,0-2.3,0.5-3.1,1.4c-0.8,0.9-1.1,2.2-1.1,3.7c0,1.5,0.4,2.8,1.1,3.7c0.7,1,1.8,1.5,3.2,1.5
		C226.2,318.2,227.2,317.9,228.1,317.4L228.1,317.4L228.1,317.4z M226.8,311.7l-4.2,0c0.1-0.4,0.3-0.9,0.6-1.4
		c0.2-0.3,0.4-0.5,0.8-0.7c0.3-0.2,0.8-0.3,1.3-0.3c0.5,0,0.9,0.2,1.2,0.6c0.3,0.4,0.4,1,0.4,1.7V311.7L226.8,311.7z M231,316.8
		c0.6,0.9,1.4,1.3,2.5,1.3c1.1,0,2-0.3,2.9-1l0.3,1h1.4v-13.8h-1.8v4c-0.5-0.3-1.2-0.4-1.9-0.4c-2.8,0-4.3,1.8-4.3,5.3
		C230.1,314.7,230.4,315.9,231,316.8L231,316.8z M236.2,309.7v6.2c-0.6,0.6-1.4,0.9-2.3,0.9c-1.3,0-2-1.2-2-3.5
		c0-2.6,0.8-3.8,2.4-3.8C235,309.3,235.7,309.5,236.2,309.7L236.2,309.7L236.2,309.7z M249.7,317.8l-0.3-1.3
		c-0.4,0.1-0.8,0.2-1.2,0.2c-0.4,0-0.7-0.1-0.8-0.2c-0.1-0.1-0.2-0.2-0.2-0.4c0-0.1,0-0.3,0-0.6v-6.1h2.7l0.2-1.4h-2.9v-2.6
		l-1.6,0.3l-0.2,2.3l-1.8,0.1l-0.2,1.2l1.9,0.1v5.9c0,1,0.2,1.8,0.5,2.2c0.3,0.4,1,0.6,2,0.6C248.5,318.2,249.1,318.1,249.7,317.8
		L249.7,317.8L249.7,317.8z M254.8,308.3c-0.6,0.3-1.1,0.6-1.4,0.9v-5.1l-1.8,0.2v13.6h1.8v-7.3c0.3-0.4,0.7-0.7,1.3-0.9
		c0.5-0.2,1-0.4,1.5-0.4c0.5,0,0.8,0.2,0.9,0.5c0.2,0.3,0.2,0.8,0.2,1.4v6.7h1.8v-6.8c0-1-0.2-1.8-0.6-2.4c-0.4-0.6-1.1-0.9-2-0.9
		C255.9,307.9,255.4,308,254.8,308.3L254.8,308.3z M268.6,317.4l-0.4-1.2c-0.8,0.4-1.7,0.5-2.6,0.5c-0.9,0-1.6-0.3-2-1
		c-0.5-0.7-0.7-1.6-0.7-2.7h5.7c0.2-0.7,0.3-1.3,0.3-1.8c0-1-0.3-1.8-0.9-2.4c-0.6-0.6-1.4-0.9-2.5-0.9c-1.3,0-2.3,0.5-3.1,1.4
		c-0.8,0.9-1.1,2.2-1.1,3.7c0,1.5,0.4,2.8,1.1,3.7c0.7,1,1.8,1.5,3.2,1.5C266.6,318.2,267.7,317.9,268.6,317.4L268.6,317.4
		L268.6,317.4z M267.3,311.7l-4.2,0c0.1-0.4,0.3-0.9,0.6-1.4c0.2-0.3,0.4-0.5,0.8-0.7c0.3-0.2,0.8-0.3,1.3-0.3
		c0.5,0,0.9,0.2,1.2,0.6c0.3,0.4,0.4,1,0.4,1.7V311.7L267.3,311.7z M282.5,310.6c0.4-0.3,0.8-0.6,1.3-0.9c0.5-0.2,1-0.4,1.4-0.4
		s0.8,0.2,0.9,0.5c0.2,0.3,0.2,0.8,0.2,1.4v6.7h1.8v-6.8c0-2.2-0.9-3.3-2.6-3.3c-0.5,0-1.1,0.1-1.8,0.4c-0.6,0.3-1.1,0.6-1.5,1
		c-0.4-1-1.1-1.4-2.3-1.4c-0.6,0-1.1,0.1-1.7,0.4c-0.6,0.3-1.1,0.6-1.4,1l-0.2-1.2h-1.5v9.9h1.8v-7.3c0.3-0.4,0.7-0.7,1.2-0.9
		c0.5-0.2,1-0.4,1.5-0.4s0.8,0.2,0.9,0.5c0.2,0.3,0.2,0.8,0.2,1.4v6.7h1.8v-6.7C282.5,311,282.5,310.7,282.5,310.6L282.5,310.6
		L282.5,310.6z M298.4,313c0-1.8-0.4-3.1-1.1-3.9c-0.7-0.8-1.7-1.2-2.9-1.2c-1.2,0-2.2,0.4-3,1.2c-0.8,0.8-1.1,2.1-1.1,3.9
		c0,1.8,0.4,3.1,1.1,3.9c0.7,0.8,1.7,1.2,2.9,1.2c1.2,0,2.2-0.4,3-1.2C298,316.1,298.4,314.8,298.4,313L298.4,313z M296,310.1
		c0.4,0.5,0.6,1.5,0.6,2.8s-0.2,2.3-0.7,2.9c-0.4,0.6-1,0.9-1.6,0.9c-1.5,0-2.3-1.2-2.3-3.7c0-2.5,0.8-3.7,2.3-3.7
		C295.1,309.3,295.6,309.6,296,310.1L296,310.1z M300,317.5c0.3,0.2,0.7,0.4,1.2,0.5c0.6,0.1,1.1,0.2,1.6,0.2c1.2,0,2.1-0.3,2.7-0.9
		c0.6-0.6,1-1.3,1-2.2c0-0.6-0.2-1.1-0.5-1.5c-0.3-0.4-0.7-0.7-1.2-0.9c-0.5-0.2-0.9-0.4-1.4-0.5c-0.5-0.2-0.9-0.4-1.2-0.6
		c-0.3-0.3-0.5-0.6-0.5-1c0-0.4,0.2-0.7,0.5-0.9c0.3-0.2,0.8-0.4,1.4-0.4c0.6,0,1.3,0.1,2.1,0.4l0.4-1.3c-0.7-0.4-1.5-0.6-2.6-0.6
		c-1.1,0-1.9,0.3-2.5,0.8c-0.6,0.5-0.9,1.2-0.9,2.1c0,0.6,0.2,1.1,0.5,1.5c0.3,0.4,0.7,0.7,1.2,0.9c0.5,0.2,0.9,0.4,1.4,0.5
		c0.5,0.2,0.8,0.4,1.2,0.7c0.3,0.3,0.5,0.6,0.5,1c0,0.4-0.2,0.7-0.5,1c-0.3,0.3-0.9,0.4-1.6,0.4s-1.5-0.2-2.4-0.6L300,317.5
		L300,317.5z M314,317.8l-0.3-1.3c-0.4,0.1-0.8,0.2-1.2,0.2c-0.4,0-0.7-0.1-0.8-0.2c-0.1-0.1-0.2-0.2-0.2-0.4c0-0.1,0-0.3,0-0.6
		v-6.1h2.7l0.2-1.4h-2.9v-2.6l-1.6,0.3l-0.2,2.3l-1.8,0.1l-0.2,1.2l1.9,0.1v5.9c0,1,0.2,1.8,0.5,2.2c0.3,0.4,1,0.6,2,0.6
		C312.7,318.2,313.3,318.1,314,317.8L314,317.8L314,317.8z M315.5,316.8c0,0.3,0.1,0.6,0.4,0.9c0.2,0.2,0.5,0.4,0.8,0.4
		c0.3,0,0.6-0.1,0.8-0.4c0.2-0.2,0.3-0.5,0.3-0.9c0-0.3-0.1-0.6-0.3-0.8c-0.2-0.2-0.5-0.3-0.8-0.3c-0.3,0-0.6,0.1-0.8,0.3
		C315.6,316.2,315.5,316.5,315.5,316.8L315.5,316.8z"/>
	<path d="M87.4,276.9v13h1.9v-13H87.4L87.4,276.9z M99.9,289.9c0.5-0.2,1-0.5,1.4-0.8l0.2,1.1h1.4v-10h-1.8v7.6
		c-0.3,0.3-0.7,0.5-1.2,0.7c-0.5,0.2-1,0.2-1.5,0.2c-0.5,0-0.9-0.2-1-0.5c-0.2-0.3-0.3-0.8-0.3-1.4v-6.7h-1.8v6.8
		c0,1.1,0.2,1.9,0.6,2.5c0.4,0.6,1.2,0.9,2.2,0.9C98.8,290.2,99.3,290.1,99.9,289.9L99.9,289.9z M104.5,289.5
		c0.3,0.2,0.7,0.4,1.2,0.5c0.6,0.1,1.1,0.2,1.6,0.2c1.2,0,2.1-0.3,2.7-0.9c0.6-0.6,1-1.3,1-2.2c0-0.6-0.2-1.1-0.5-1.5
		c-0.3-0.4-0.7-0.7-1.2-0.9c-0.5-0.2-0.9-0.4-1.4-0.5c-0.5-0.2-0.9-0.4-1.2-0.6c-0.3-0.3-0.5-0.6-0.5-1c0-0.4,0.2-0.7,0.5-0.9
		c0.3-0.2,0.8-0.4,1.4-0.4s1.3,0.1,2.1,0.4l0.4-1.3c-0.7-0.4-1.5-0.6-2.6-0.6s-1.9,0.3-2.5,0.8c-0.6,0.5-0.9,1.2-0.9,2.1
		c0,0.6,0.2,1.1,0.5,1.5c0.3,0.4,0.7,0.7,1.2,0.9c0.5,0.2,0.9,0.4,1.4,0.5c0.5,0.2,0.8,0.4,1.2,0.7c0.3,0.3,0.5,0.6,0.5,1
		c0,0.4-0.2,0.7-0.5,1c-0.3,0.3-0.9,0.4-1.6,0.4c-0.7,0-1.5-0.2-2.4-0.6L104.5,289.5L104.5,289.5z M119.6,289.4l-0.4-1.2
		c-0.8,0.4-1.7,0.5-2.6,0.5c-0.9,0-1.6-0.3-2-1c-0.5-0.7-0.7-1.6-0.7-2.7h5.7c0.2-0.7,0.3-1.3,0.3-1.8c0-1-0.3-1.8-0.9-2.4
		c-0.6-0.6-1.4-0.9-2.5-0.9c-1.3,0-2.3,0.5-3.1,1.4c-0.8,0.9-1.1,2.2-1.1,3.7c0,1.5,0.4,2.7,1.1,3.7c0.7,1,1.8,1.5,3.2,1.5
		C117.7,290.2,118.7,289.9,119.6,289.4L119.6,289.4L119.6,289.4z M118.3,283.7l-4.2,0c0.1-0.4,0.3-0.9,0.6-1.4
		c0.2-0.3,0.4-0.5,0.8-0.7c0.3-0.2,0.8-0.3,1.3-0.3c0.5,0,0.9,0.2,1.2,0.6c0.3,0.4,0.4,1,0.4,1.7V283.7L118.3,283.7z M122.1,288.8
		c0.6,0.9,1.4,1.3,2.5,1.3c1.1,0,2-0.3,2.9-1l0.3,1h1.4v-13.8h-1.8v4c-0.5-0.3-1.2-0.4-1.9-0.4c-2.8,0-4.3,1.8-4.3,5.3
		C121.2,286.7,121.5,287.9,122.1,288.8L122.1,288.8z M127.3,281.7v6.2c-0.6,0.6-1.4,0.9-2.3,0.9c-1.3,0-2-1.2-2-3.5
		c0-2.6,0.8-3.8,2.4-3.8C126.2,281.3,126.8,281.5,127.3,281.7L127.3,281.7L127.3,281.7z M140.1,289.8l-0.3-1.3
		c-0.4,0.1-0.8,0.2-1.2,0.2c-0.4,0-0.7-0.1-0.8-0.2c-0.1-0.1-0.2-0.2-0.2-0.4c0-0.1,0-0.3,0-0.6v-6.1h2.7l0.2-1.4h-2.9v-2.6
		l-1.6,0.3l-0.2,2.3l-1.8,0.1l-0.2,1.2l1.9,0.1v5.9c0,1,0.2,1.8,0.5,2.2c0.3,0.4,1,0.6,2,0.6C138.8,290.2,139.5,290.1,140.1,289.8
		L140.1,289.8L140.1,289.8z M144.8,280.3c-0.6,0.3-1.1,0.6-1.4,0.9v-5l-1.8,0.2v13.6h1.8v-7.3c0.3-0.4,0.7-0.7,1.3-0.9
		c0.5-0.2,1-0.4,1.5-0.4c0.5,0,0.8,0.2,0.9,0.5c0.2,0.3,0.2,0.8,0.2,1.4v6.7h1.8v-6.8c0-1-0.2-1.8-0.6-2.4c-0.4-0.6-1.1-0.9-2-0.9
		C145.9,279.9,145.3,280,144.8,280.3L144.8,280.3z M158.2,289.4l-0.4-1.2c-0.8,0.4-1.7,0.5-2.6,0.5c-0.9,0-1.6-0.3-2-1
		c-0.5-0.7-0.7-1.6-0.7-2.7h5.7c0.2-0.7,0.3-1.3,0.3-1.8c0-1-0.3-1.8-0.9-2.4c-0.6-0.6-1.4-0.9-2.5-0.9c-1.3,0-2.3,0.5-3.1,1.4
		c-0.8,0.9-1.1,2.2-1.1,3.7c0,1.5,0.4,2.7,1.1,3.7c0.7,1,1.8,1.5,3.2,1.5C156.2,290.2,157.2,289.9,158.2,289.4L158.2,289.4
		L158.2,289.4z M156.8,283.7l-4.2,0c0.1-0.4,0.3-0.9,0.6-1.4c0.2-0.3,0.4-0.5,0.8-0.7c0.3-0.2,0.8-0.3,1.3-0.3
		c0.5,0,0.9,0.2,1.2,0.6c0.3,0.4,0.4,1,0.4,1.7V283.7L156.8,283.7z M171.3,282.6c0.4-0.3,0.8-0.6,1.3-0.9c0.5-0.2,1-0.4,1.4-0.4
		c0.5,0,0.8,0.2,0.9,0.5c0.2,0.3,0.2,0.8,0.2,1.4v6.7h1.8v-6.8c0-2.2-0.9-3.3-2.6-3.3c-0.5,0-1.1,0.1-1.8,0.4
		c-0.6,0.3-1.1,0.6-1.5,1c-0.4-1-1.1-1.4-2.3-1.4c-0.6,0-1.1,0.1-1.7,0.4c-0.6,0.3-1.1,0.6-1.4,1l-0.2-1.2h-1.5v9.9h1.8v-7.3
		c0.3-0.4,0.7-0.7,1.2-0.9c0.5-0.2,1-0.4,1.5-0.4c0.5,0,0.8,0.2,0.9,0.5c0.2,0.3,0.2,0.8,0.2,1.4v6.7h1.8v-6.7
		C171.3,283,171.3,282.7,171.3,282.6L171.3,282.6L171.3,282.6z M186.8,285c0-1.8-0.4-3.1-1.1-3.9c-0.7-0.8-1.7-1.2-2.9-1.2
		c-1.2,0-2.2,0.4-3,1.2c-0.8,0.8-1.1,2.1-1.1,3.9c0,1.8,0.4,3.1,1.1,3.9c0.7,0.8,1.7,1.2,2.9,1.2c1.2,0,2.2-0.4,3-1.2
		S186.8,286.8,186.8,285L186.8,285z M184.4,282.1c0.4,0.5,0.6,1.5,0.6,2.8c0,1.4-0.2,2.3-0.7,2.9c-0.4,0.6-1,0.9-1.6,0.9
		c-1.5,0-2.3-1.2-2.3-3.7c0-2.5,0.8-3.7,2.3-3.7C183.5,281.3,184,281.6,184.4,282.1L184.4,282.1z M188,289.5
		c0.3,0.2,0.7,0.4,1.2,0.5c0.6,0.1,1.1,0.2,1.6,0.2c1.2,0,2.1-0.3,2.7-0.9c0.6-0.6,1-1.3,1-2.2c0-0.6-0.2-1.1-0.5-1.5
		c-0.3-0.4-0.7-0.7-1.2-0.9c-0.5-0.2-0.9-0.4-1.4-0.5c-0.5-0.2-0.9-0.4-1.2-0.6c-0.3-0.3-0.5-0.6-0.5-1c0-0.4,0.2-0.7,0.5-0.9
		c0.3-0.2,0.8-0.4,1.4-0.4s1.3,0.1,2.1,0.4l0.4-1.3c-0.7-0.4-1.5-0.6-2.6-0.6c-1.1,0-1.9,0.3-2.5,0.8c-0.6,0.5-0.9,1.2-0.9,2.1
		c0,0.6,0.2,1.1,0.5,1.5c0.3,0.4,0.7,0.7,1.2,0.9c0.5,0.2,0.9,0.4,1.4,0.5c0.5,0.2,0.8,0.4,1.2,0.7c0.3,0.3,0.5,0.6,0.5,1
		c0,0.4-0.2,0.7-0.5,1c-0.3,0.3-0.9,0.4-1.6,0.4c-0.7,0-1.5-0.2-2.4-0.6L188,289.5L188,289.5z M201.6,289.8l-0.3-1.3
		c-0.4,0.1-0.8,0.2-1.2,0.2c-0.4,0-0.7-0.1-0.8-0.2c-0.1-0.1-0.2-0.2-0.2-0.4c0-0.1,0-0.3,0-0.6v-6.1h2.7l0.2-1.4H199v-2.6l-1.6,0.3
		l-0.2,2.3l-1.8,0.1l-0.2,1.2l1.9,0.1v5.9c0,1,0.2,1.8,0.5,2.2c0.3,0.4,1,0.6,2,0.6C200.3,290.2,201,290.1,201.6,289.8L201.6,289.8
		L201.6,289.8z M214.5,285c0-1.8-0.4-3.1-1.1-3.9c-0.7-0.8-1.7-1.2-2.9-1.2c-1.2,0-2.2,0.4-3,1.2c-0.8,0.8-1.1,2.1-1.1,3.9
		c0,1.8,0.4,3.1,1.1,3.9s1.7,1.2,2.9,1.2s2.2-0.4,3-1.2S214.5,286.8,214.5,285L214.5,285z M212.1,282.1c0.4,0.5,0.6,1.5,0.6,2.8
		c0,1.4-0.2,2.3-0.7,2.9c-0.4,0.6-1,0.9-1.6,0.9c-1.5,0-2.3-1.2-2.3-3.7c0-2.5,0.8-3.7,2.3-3.7C211.1,281.3,211.7,281.6,212.1,282.1
		L212.1,282.1z M217,280.1l-1.6,0.1l-0.2,1.2l1.8,0.1v11.9l1.8,0.2v-12.1h2.5l0.2-1.4h-2.7v-0.8c0-0.7,0.1-1.2,0.4-1.5
		c0.2-0.3,0.7-0.4,1.5-0.4c0.8,0,1.4,0.1,1.9,0.2l0.4-1.4c-0.8-0.2-1.6-0.4-2.3-0.4c-1.3,0-2.3,0.3-2.8,0.8
		c-0.5,0.5-0.8,1.4-0.8,2.7V280.1L217,280.1z M228,289.8l-0.3-1.3c-0.4,0.1-0.8,0.2-1.2,0.2s-0.7-0.1-0.8-0.2
		c-0.1-0.1-0.2-0.2-0.2-0.4c0-0.1,0-0.3,0-0.6v-6.1h2.7l0.2-1.4h-2.9v-2.6l-1.6,0.3l-0.2,2.3l-1.8,0.1l-0.2,1.2l1.9,0.1v5.9
		c0,1,0.2,1.8,0.5,2.2c0.3,0.4,1,0.6,2,0.6C226.8,290.2,227.4,290.1,228,289.8L228,289.8L228,289.8z M236.3,289.4l-0.4-1.2
		c-0.8,0.4-1.7,0.5-2.6,0.5c-0.9,0-1.6-0.3-2-1c-0.5-0.7-0.7-1.6-0.7-2.7h5.7c0.2-0.7,0.3-1.3,0.3-1.8c0-1-0.3-1.8-0.9-2.4
		c-0.6-0.6-1.4-0.9-2.5-0.9c-1.3,0-2.3,0.5-3.1,1.4c-0.8,0.9-1.1,2.2-1.1,3.7c0,1.5,0.4,2.7,1.1,3.7c0.7,1,1.8,1.5,3.2,1.5
		C234.3,290.2,235.4,289.9,236.3,289.4L236.3,289.4L236.3,289.4z M234.9,283.7l-4.2,0c0.1-0.4,0.3-0.9,0.6-1.4
		c0.2-0.3,0.4-0.5,0.8-0.7c0.3-0.2,0.8-0.3,1.3-0.3s0.9,0.2,1.2,0.6c0.3,0.4,0.4,1,0.4,1.7V283.7L234.9,283.7z M245.2,280.7
		c-0.4-0.6-1.1-0.9-2-0.9c-0.6,0-1.2,0.1-1.8,0.4c-0.6,0.3-1.1,0.6-1.5,1l-0.2-1.2h-1.5v9.9h1.8v-7.3c0.3-0.4,0.7-0.7,1.3-0.9
		c0.6-0.3,1.1-0.4,1.5-0.4c0.5,0,0.8,0.2,0.9,0.5c0.2,0.3,0.2,0.8,0.2,1.4v6.7h1.8v-6.8C245.8,282.1,245.6,281.3,245.2,280.7
		L245.2,280.7z M249.6,287.7h-1.9c0.2,0.5,0.3,1,0.3,1.4c0,1-0.5,2.1-1.6,3.4h1.6c1.2-1.1,1.7-2.3,1.7-3.6
		C249.9,288.4,249.8,288,249.6,287.7L249.6,287.7L249.6,287.7z M259.4,289.9c0.5-0.2,0.9-0.4,1.2-0.7c0.3,0.7,0.8,1,1.5,1
		c0.7,0,1.3-0.1,1.7-0.4l-0.3-1.1c-0.4,0.1-0.6,0.2-0.9,0.2c-0.3,0-0.5-0.2-0.5-0.7v-4.7c0-1.3-0.3-2.2-0.8-2.7
		c-0.5-0.5-1.4-0.8-2.7-0.8c-0.5,0-1,0.1-1.6,0.2c-0.6,0.1-1.1,0.3-1.5,0.6l0.4,1.2c1-0.4,1.8-0.5,2.6-0.5s1.2,0.1,1.5,0.4
		c0.3,0.3,0.4,0.8,0.4,1.6v1.5c-0.6-0.1-1.3-0.1-2.1-0.1s-1.4,0.2-2.1,0.5c-0.4,0.2-0.7,0.5-0.9,0.8c-0.2,0.4-0.4,0.8-0.4,1.4
		c0,0.8,0.2,1.5,0.8,2c0.5,0.5,1.2,0.7,2,0.7C258.3,290.2,258.8,290.1,259.4,289.9L259.4,289.9z M256.6,287.3c0-1,0.8-1.5,2.3-1.5
		c0.7,0,1.2,0,1.5,0.1v2.3c-0.7,0.5-1.5,0.7-2.3,0.7C257.1,288.8,256.6,288.3,256.6,287.3L256.6,287.3L256.6,287.3z M264.1,289.5
		c0.3,0.2,0.7,0.4,1.2,0.5c0.6,0.1,1.1,0.2,1.6,0.2c1.2,0,2.1-0.3,2.7-0.9c0.6-0.6,1-1.3,1-2.2c0-0.6-0.2-1.1-0.5-1.5
		c-0.3-0.4-0.7-0.7-1.2-0.9c-0.5-0.2-0.9-0.4-1.4-0.5c-0.5-0.2-0.9-0.4-1.2-0.6c-0.3-0.3-0.5-0.6-0.5-1c0-0.4,0.2-0.7,0.5-0.9
		c0.3-0.2,0.8-0.4,1.4-0.4s1.3,0.1,2.1,0.4l0.4-1.3c-0.7-0.4-1.5-0.6-2.6-0.6c-1.1,0-1.9,0.3-2.5,0.8c-0.6,0.5-0.9,1.2-0.9,2.1
		c0,0.6,0.2,1.1,0.5,1.5c0.3,0.4,0.7,0.7,1.2,0.9c0.5,0.2,0.9,0.4,1.4,0.5c0.5,0.2,0.8,0.4,1.2,0.7s0.5,0.6,0.5,1
		c0,0.4-0.2,0.7-0.5,1c-0.3,0.3-0.9,0.4-1.6,0.4c-0.7,0-1.5-0.2-2.4-0.6L264.1,289.5L264.1,289.5z M283,289.9h1.8l2.6-9.9h-1.8
		l-1.8,7.9l-2-7.9l-1.6,0.1l-1.9,7.8l-1.8-7.9h-1.8l2.6,9.9h1.8l1.9-7.7L283,289.9L283,289.9z M295.5,289.4l-0.4-1.2
		c-0.8,0.4-1.7,0.5-2.6,0.5c-0.9,0-1.6-0.3-2-1c-0.5-0.7-0.7-1.6-0.7-2.7h5.7c0.2-0.7,0.3-1.3,0.3-1.8c0-1-0.3-1.8-0.9-2.4
		c-0.6-0.6-1.4-0.9-2.5-0.9c-1.3,0-2.3,0.5-3.1,1.4c-0.8,0.9-1.1,2.2-1.1,3.7c0,1.5,0.4,2.7,1.1,3.7c0.7,1,1.8,1.5,3.2,1.5
		C293.6,290.2,294.6,289.9,295.5,289.4L295.5,289.4L295.5,289.4z M294.2,283.7l-4.2,0c0.1-0.4,0.3-0.9,0.6-1.4
		c0.2-0.3,0.4-0.5,0.8-0.7c0.3-0.2,0.8-0.3,1.3-0.3s0.9,0.2,1.2,0.6c0.3,0.4,0.4,1,0.4,1.7V283.7L294.2,283.7z M297.5,288
		c0,1.5,0.6,2.2,2,2.2c0.8,0,1.4-0.1,2-0.4l-0.3-1.3c-0.4,0.1-0.8,0.2-1.2,0.2c-0.5,0-0.7-0.3-0.7-0.8v-11.7h-1.8V288L297.5,288z
		 M302.3,288c0,1.5,0.7,2.2,2,2.2c0.8,0,1.4-0.1,2-0.4l-0.3-1.3c-0.4,0.1-0.8,0.2-1.2,0.2c-0.5,0-0.7-0.3-0.7-0.8v-11.7h-1.8V288
		L302.3,288z M314.6,289.9c0.5-0.2,0.9-0.4,1.2-0.7c0.3,0.7,0.8,1,1.5,1c0.7,0,1.3-0.1,1.7-0.4l-0.3-1.1c-0.4,0.1-0.6,0.2-0.9,0.2
		c-0.3,0-0.5-0.2-0.5-0.7v-4.7c0-1.3-0.3-2.2-0.8-2.7c-0.5-0.5-1.4-0.8-2.7-0.8c-0.5,0-1,0.1-1.6,0.2c-0.6,0.1-1.1,0.3-1.5,0.6
		l0.4,1.2c1-0.4,1.8-0.5,2.6-0.5s1.2,0.1,1.5,0.4c0.3,0.3,0.4,0.8,0.4,1.6v1.5c-0.6-0.1-1.3-0.1-2.1-0.1c-0.7,0-1.4,0.2-2.1,0.5
		c-0.4,0.2-0.7,0.5-0.9,0.8c-0.2,0.4-0.4,0.8-0.4,1.4c0,0.8,0.2,1.5,0.8,2c0.5,0.5,1.2,0.7,2,0.7C313.5,290.2,314,290.1,314.6,289.9
		L314.6,289.9z M311.8,287.3c0-1,0.8-1.5,2.3-1.5c0.7,0,1.2,0,1.5,0.1v2.3c-0.7,0.5-1.5,0.7-2.3,0.7
		C312.3,288.8,311.8,288.3,311.8,287.3L311.8,287.3L311.8,287.3z M319.3,289.5c0.3,0.2,0.7,0.4,1.2,0.5c0.6,0.1,1.1,0.2,1.6,0.2
		c1.2,0,2.1-0.3,2.7-0.9c0.6-0.6,1-1.3,1-2.2c0-0.6-0.2-1.1-0.5-1.5c-0.3-0.4-0.7-0.7-1.2-0.9c-0.5-0.2-0.9-0.4-1.4-0.5
		c-0.5-0.2-0.9-0.4-1.2-0.6c-0.3-0.3-0.5-0.6-0.5-1c0-0.4,0.2-0.7,0.5-0.9c0.3-0.2,0.8-0.4,1.4-0.4c0.6,0,1.3,0.1,2.1,0.4l0.4-1.3
		c-0.7-0.4-1.5-0.6-2.6-0.6c-1.1,0-1.9,0.3-2.5,0.8c-0.6,0.5-0.9,1.2-0.9,2.1c0,0.6,0.2,1.1,0.5,1.5c0.3,0.4,0.7,0.7,1.2,0.9
		c0.5,0.2,0.9,0.4,1.4,0.5c0.5,0.2,0.8,0.4,1.2,0.7c0.3,0.3,0.5,0.6,0.5,1c0,0.4-0.2,0.7-0.5,1c-0.3,0.3-0.9,0.4-1.6,0.4
		s-1.5-0.2-2.4-0.6L319.3,289.5L319.3,289.5z"/>
	<path d="M89,254.9c0.5-1,1.5-1.5,2.9-1.5c0.2,0,0.4,0,0.5,0l0.4-1.4c-0.2-0.1-0.5-0.1-0.9-0.1c-0.7,0-1.3,0.2-1.8,0.5
		c-0.5,0.4-0.9,0.7-1.2,1.1l-0.2-1.5h-1.5v9.9H89V254.9L89,254.9z M100.7,261.4l-0.4-1.2c-0.8,0.4-1.7,0.5-2.6,0.5
		c-0.9,0-1.6-0.3-2-1c-0.5-0.7-0.7-1.6-0.7-2.7h5.7c0.2-0.7,0.3-1.3,0.3-1.8c0-1-0.3-1.8-0.9-2.4c-0.6-0.6-1.4-0.9-2.5-0.9
		c-1.3,0-2.3,0.5-3.1,1.4c-0.8,0.9-1.1,2.2-1.1,3.7c0,1.5,0.4,2.8,1.1,3.7c0.7,1,1.8,1.5,3.2,1.5C98.7,262.2,99.8,261.9,100.7,261.4
		L100.7,261.4L100.7,261.4z M99.3,255.7l-4.2,0c0.1-0.4,0.3-0.9,0.6-1.4c0.2-0.3,0.4-0.5,0.8-0.7c0.3-0.2,0.8-0.3,1.3-0.3
		c0.5,0,0.9,0.2,1.2,0.6c0.3,0.4,0.4,1,0.4,1.7V255.7L99.3,255.7z M104,252.1l-1.6,0.1l-0.2,1.2l1.8,0.1v11.9l1.8,0.2v-12.1h2.5
		l0.2-1.4h-2.7v-0.8c0-0.7,0.1-1.2,0.4-1.5c0.2-0.3,0.7-0.4,1.5-0.4c0.8,0,1.4,0.1,1.9,0.2l0.4-1.4c-0.8-0.2-1.6-0.4-2.3-0.4
		c-1.3,0-2.3,0.3-2.8,0.8c-0.5,0.5-0.8,1.4-0.8,2.7V252.1L104,252.1z M116.6,261.4l-0.4-1.2c-0.8,0.4-1.7,0.5-2.6,0.5
		c-0.9,0-1.6-0.3-2-1s-0.7-1.6-0.7-2.7h5.7c0.2-0.7,0.3-1.3,0.3-1.8c0-1-0.3-1.8-0.9-2.4c-0.6-0.6-1.4-0.9-2.5-0.9
		c-1.3,0-2.3,0.5-3.1,1.4c-0.8,0.9-1.1,2.2-1.1,3.7c0,1.5,0.4,2.8,1.1,3.7c0.7,1,1.8,1.5,3.2,1.5
		C114.6,262.2,115.7,261.9,116.6,261.4L116.6,261.4L116.6,261.4z M115.3,255.7l-4.2,0c0.1-0.4,0.3-0.9,0.6-1.4
		c0.2-0.3,0.4-0.5,0.8-0.7c0.3-0.2,0.8-0.3,1.3-0.3s0.9,0.2,1.2,0.6c0.3,0.4,0.4,1,0.4,1.7V255.7L115.3,255.7z M120.7,254.9
		c0.5-1,1.5-1.5,2.9-1.5c0.2,0,0.4,0,0.5,0l0.4-1.4c-0.2-0.1-0.5-0.1-0.9-0.1c-0.7,0-1.3,0.2-1.8,0.5c-0.5,0.4-0.9,0.7-1.2,1.1
		l-0.2-1.5H119v9.9h1.8V254.9L120.7,254.9z M132.5,261.4l-0.4-1.2c-0.8,0.4-1.7,0.5-2.6,0.5c-0.9,0-1.6-0.3-2-1s-0.7-1.6-0.7-2.7
		h5.7c0.2-0.7,0.3-1.3,0.3-1.8c0-1-0.3-1.8-0.9-2.4c-0.6-0.6-1.4-0.9-2.5-0.9c-1.3,0-2.3,0.5-3.1,1.4c-0.8,0.9-1.1,2.2-1.1,3.7
		c0,1.5,0.4,2.8,1.1,3.7c0.7,1,1.8,1.5,3.2,1.5C130.5,262.2,131.5,261.9,132.5,261.4L132.5,261.4L132.5,261.4z M131.1,255.7l-4.2,0
		c0.1-0.4,0.3-0.9,0.6-1.4c0.2-0.3,0.4-0.5,0.8-0.7c0.3-0.2,0.8-0.3,1.3-0.3c0.5,0,0.9,0.2,1.2,0.6c0.3,0.4,0.4,1,0.4,1.7V255.7
		L131.1,255.7z M141.8,252.7c-0.4-0.6-1.1-0.9-2-0.9c-0.6,0-1.2,0.1-1.8,0.4c-0.6,0.3-1.1,0.6-1.5,1l-0.2-1.2h-1.5v9.9h1.8v-7.3
		c0.3-0.4,0.7-0.7,1.3-0.9c0.6-0.3,1.1-0.4,1.5-0.4c0.5,0,0.8,0.2,0.9,0.5c0.2,0.3,0.2,0.8,0.2,1.4v6.7h1.8v-6.8
		C142.4,254.1,142.2,253.3,141.8,252.7L141.8,252.7z M151.4,261.8l-0.3-1.3c-0.6,0.2-1.2,0.3-1.8,0.3c-2,0-3-1.2-3-3.7
		c0-1.3,0.3-2.2,0.8-2.8c0.5-0.6,1.2-0.9,1.9-0.9c0.5,0,1.2,0.1,1.9,0.3l0.5-1.2c-0.7-0.4-1.5-0.6-2.4-0.6c-1.2,0-2.3,0.4-3.2,1.3
		c-0.9,0.9-1.3,2.2-1.3,3.9c0,1.7,0.4,3,1.3,3.9c0.9,0.9,1.9,1.3,3.3,1.3C149.8,262.2,150.6,262.1,151.4,261.8L151.4,261.8
		L151.4,261.8z M160,261.4l-0.4-1.2c-0.8,0.4-1.7,0.5-2.6,0.5c-0.9,0-1.6-0.3-2-1c-0.5-0.7-0.7-1.6-0.7-2.7h5.7
		c0.2-0.7,0.3-1.3,0.3-1.8c0-1-0.3-1.8-0.9-2.4c-0.6-0.6-1.4-0.9-2.5-0.9c-1.3,0-2.3,0.5-3.1,1.4c-0.8,0.9-1.1,2.2-1.1,3.7
		c0,1.5,0.4,2.8,1.1,3.7c0.7,1,1.8,1.5,3.2,1.5C158.1,262.2,159.1,261.9,160,261.4L160,261.4L160,261.4z M158.7,255.7l-4.2,0
		c0.1-0.4,0.3-0.9,0.6-1.4c0.2-0.3,0.4-0.5,0.8-0.7c0.3-0.2,0.8-0.3,1.3-0.3c0.5,0,0.9,0.2,1.2,0.6c0.3,0.4,0.4,1,0.4,1.7V255.7
		L158.7,255.7z M164,259.7h-1.9c0.2,0.5,0.3,1,0.3,1.4c0,1-0.5,2.1-1.6,3.4h1.6c1.2-1.1,1.7-2.3,1.7-3.6
		C164.2,260.4,164.2,260,164,259.7L164,259.7L164,259.7z M171,248.9v13h1.9v-13H171L171,248.9z M184.8,261.8l-0.3-1.3
		c-0.4,0.1-0.8,0.2-1.2,0.2c-0.4,0-0.7-0.1-0.8-0.2c-0.1-0.1-0.2-0.2-0.2-0.4c0-0.1,0-0.3,0-0.6v-6.1h2.7l0.2-1.4h-2.9v-2.6
		l-1.6,0.3l-0.2,2.3l-1.8,0.1l-0.2,1.2l1.9,0.1v5.9c0,1,0.2,1.8,0.5,2.2c0.3,0.4,1,0.6,2,0.6C183.6,262.2,184.2,262.1,184.8,261.8
		L184.8,261.8L184.8,261.8z M194.3,257c0-1.8-0.4-3.1-1.1-3.9c-0.7-0.8-1.7-1.2-2.9-1.2c-1.2,0-2.2,0.4-3,1.2
		c-0.8,0.8-1.1,2.1-1.1,3.9c0,1.8,0.4,3.1,1.1,3.9s1.7,1.2,2.9,1.2s2.2-0.4,3-1.2C194,260.1,194.3,258.8,194.3,257L194.3,257z
		 M192,254.1c0.4,0.5,0.6,1.5,0.6,2.8c0,1.4-0.2,2.3-0.7,2.9c-0.4,0.6-1,0.9-1.6,0.9c-1.5,0-2.3-1.2-2.3-3.7c0-2.5,0.8-3.7,2.3-3.7
		C191,253.3,191.6,253.6,192,254.1L192,254.1z M204.2,257c0-1.8-0.4-3.1-1.1-3.9c-0.7-0.8-1.7-1.2-2.9-1.2c-1.2,0-2.2,0.4-3,1.2
		c-0.8,0.8-1.1,2.1-1.1,3.9c0,1.8,0.4,3.1,1.1,3.9c0.7,0.8,1.7,1.2,2.9,1.2s2.2-0.4,3-1.2C203.9,260.1,204.2,258.8,204.2,257
		L204.2,257z M201.9,254.1c0.4,0.5,0.6,1.5,0.6,2.8c0,1.4-0.2,2.3-0.7,2.9s-1,0.9-1.6,0.9c-1.5,0-2.3-1.2-2.3-3.7
		c0-2.5,0.8-3.7,2.3-3.7C200.9,253.3,201.5,253.6,201.9,254.1L201.9,254.1z M208.2,256.6l4.3,5.3h2.1c-0.5-0.6-1.2-1.5-2.3-2.7
		s-1.8-2.2-2.3-2.7l4-4.3h-2.2l-3.7,4.3v-8.3l-1.8,0.2v13.7h1.8V256.6L208.2,256.6z M225.3,261.8l-0.3-1.3c-0.4,0.1-0.8,0.2-1.2,0.2
		s-0.7-0.1-0.8-0.2c-0.1-0.1-0.2-0.2-0.2-0.4c0-0.1,0-0.3,0-0.6v-6.1h2.7l0.2-1.4h-2.9v-2.6l-1.6,0.3l-0.2,2.3l-1.8,0.1l-0.2,1.2
		l1.9,0.1v5.9c0,1,0.2,1.8,0.5,2.2c0.3,0.4,1,0.6,2,0.6C224.1,262.2,224.7,262.1,225.3,261.8L225.3,261.8L225.3,261.8z M230.4,252.3
		c-0.6,0.3-1.1,0.6-1.4,0.9v-5.1l-1.8,0.2v13.6h1.8v-7.3c0.3-0.4,0.7-0.7,1.3-0.9c0.5-0.2,1-0.4,1.5-0.4c0.5,0,0.8,0.2,0.9,0.5
		c0.2,0.3,0.2,0.8,0.2,1.4v6.7h1.8v-6.8c0-1-0.2-1.8-0.6-2.4c-0.4-0.6-1.1-0.9-2-0.9C231.5,251.9,231,252,230.4,252.3L230.4,252.3z
		 M244.2,261.4l-0.4-1.2c-0.8,0.4-1.7,0.5-2.6,0.5c-0.9,0-1.6-0.3-2-1c-0.5-0.7-0.7-1.6-0.7-2.7h5.7c0.2-0.7,0.3-1.3,0.3-1.8
		c0-1-0.3-1.8-0.9-2.4c-0.6-0.6-1.4-0.9-2.5-0.9c-1.3,0-2.3,0.5-3.1,1.4c-0.8,0.9-1.1,2.2-1.1,3.7c0,1.5,0.4,2.8,1.1,3.7
		c0.7,1,1.8,1.5,3.2,1.5C242.2,262.2,243.3,261.9,244.2,261.4L244.2,261.4L244.2,261.4z M242.8,255.7l-4.2,0
		c0.1-0.4,0.3-0.9,0.6-1.4c0.2-0.3,0.4-0.5,0.8-0.7c0.3-0.2,0.8-0.3,1.3-0.3c0.5,0,0.9,0.2,1.2,0.6c0.3,0.4,0.4,1,0.4,1.7V255.7
		L242.8,255.7z M251.2,252.1l-1.6,0.1l-0.2,1.2l1.8,0.1v11.9l1.8,0.2v-12.1h2.5l0.2-1.4H253v-0.8c0-0.7,0.1-1.2,0.4-1.5
		c0.2-0.3,0.7-0.4,1.5-0.4c0.8,0,1.4,0.1,1.9,0.2l0.4-1.4c-0.8-0.2-1.6-0.4-2.3-0.4c-1.3,0-2.3,0.3-2.8,0.8
		c-0.5,0.5-0.8,1.4-0.8,2.7V252.1L251.2,252.1z M264.7,257c0-1.8-0.4-3.1-1.1-3.9c-0.7-0.8-1.7-1.2-2.9-1.2c-1.2,0-2.2,0.4-3,1.2
		c-0.8,0.8-1.1,2.1-1.1,3.9c0,1.8,0.4,3.1,1.1,3.9c0.7,0.8,1.7,1.2,2.9,1.2c1.2,0,2.2-0.4,3-1.2C264.3,260.1,264.7,258.8,264.7,257
		L264.7,257z M262.3,254.1c0.4,0.5,0.6,1.5,0.6,2.8c0,1.4-0.2,2.3-0.7,2.9c-0.4,0.6-1,0.9-1.6,0.9c-1.5,0-2.3-1.2-2.3-3.7
		c0-2.5,0.8-3.7,2.3-3.7C261.4,253.3,262,253.6,262.3,254.1L262.3,254.1z M273.9,252.7c-0.4-0.6-1.1-0.9-2-0.9
		c-0.6,0-1.2,0.1-1.8,0.4c-0.6,0.3-1.1,0.6-1.5,1l-0.2-1.2h-1.5v9.9h1.8v-7.3c0.3-0.4,0.7-0.7,1.3-0.9c0.6-0.3,1.1-0.4,1.5-0.4
		c0.5,0,0.8,0.2,0.9,0.5c0.2,0.3,0.2,0.8,0.2,1.4v6.7h1.8v-6.8C274.5,254.1,274.3,253.3,273.9,252.7L273.9,252.7z M282.4,261.8
		l-0.3-1.3c-0.4,0.1-0.8,0.2-1.2,0.2c-0.4,0-0.7-0.1-0.8-0.2c-0.1-0.1-0.2-0.2-0.2-0.4c0-0.1,0-0.3,0-0.6v-6.1h2.7l0.2-1.4h-2.9
		v-2.6l-1.6,0.3l-0.2,2.3l-1.8,0.1l-0.2,1.2l1.9,0.1v5.9c0,1,0.2,1.8,0.5,2.2c0.3,0.4,1,0.6,2,0.6
		C281.1,262.2,281.8,262.1,282.4,261.8L282.4,261.8L282.4,261.8z M283.7,261.5c0.3,0.2,0.7,0.4,1.2,0.5c0.6,0.1,1.1,0.2,1.6,0.2
		c1.2,0,2.1-0.3,2.7-0.9c0.6-0.6,1-1.3,1-2.2c0-0.6-0.2-1.1-0.5-1.5c-0.3-0.4-0.7-0.7-1.2-0.9c-0.5-0.2-0.9-0.4-1.4-0.5
		c-0.5-0.2-0.9-0.4-1.2-0.6c-0.3-0.3-0.5-0.6-0.5-1c0-0.4,0.2-0.7,0.5-0.9c0.3-0.2,0.8-0.4,1.4-0.4c0.6,0,1.3,0.1,2.1,0.4l0.4-1.3
		c-0.7-0.4-1.5-0.6-2.6-0.6c-1.1,0-1.9,0.3-2.5,0.8c-0.6,0.5-0.9,1.2-0.9,2.1c0,0.6,0.2,1.1,0.5,1.5c0.3,0.4,0.7,0.7,1.2,0.9
		c0.5,0.2,0.9,0.4,1.4,0.5c0.5,0.2,0.8,0.4,1.2,0.7c0.3,0.3,0.5,0.6,0.5,1c0,0.4-0.2,0.7-0.5,1c-0.3,0.3-0.9,0.4-1.6,0.4
		c-0.7,0-1.5-0.2-2.4-0.6L283.7,261.5L283.7,261.5z M301.4,261.8l-0.3-1.3c-0.4,0.1-0.8,0.2-1.2,0.2c-0.4,0-0.7-0.1-0.8-0.2
		c-0.1-0.1-0.2-0.2-0.2-0.4c0-0.1,0-0.3,0-0.6v-6.1h2.7l0.2-1.4h-2.9v-2.6l-1.6,0.3l-0.2,2.3l-1.8,0.1l-0.2,1.2l1.9,0.1v5.9
		c0,1,0.2,1.8,0.5,2.2c0.3,0.4,1,0.6,2,0.6C300.1,262.2,300.8,262.1,301.4,261.8L301.4,261.8L301.4,261.8z M306.5,252.3
		c-0.6,0.3-1.1,0.6-1.4,0.9v-5.1l-1.8,0.2v13.6h1.8v-7.3c0.3-0.4,0.7-0.7,1.3-0.9c0.5-0.2,1-0.4,1.5-0.4c0.5,0,0.8,0.2,0.9,0.5
		c0.2,0.3,0.2,0.8,0.2,1.4v6.7h1.8v-6.8c0-1-0.2-1.8-0.6-2.4c-0.4-0.6-1.1-0.9-2-0.9C307.6,251.9,307,252,306.5,252.3L306.5,252.3z
		 M317.1,261.9c0.5-0.2,0.9-0.4,1.2-0.7c0.3,0.7,0.8,1,1.5,1c0.7,0,1.3-0.1,1.7-0.4l-0.3-1.1c-0.4,0.1-0.6,0.2-0.9,0.2
		c-0.3,0-0.5-0.2-0.5-0.7v-4.7c0-1.3-0.3-2.2-0.8-2.7c-0.5-0.5-1.4-0.8-2.7-0.8c-0.5,0-1,0.1-1.6,0.2c-0.6,0.1-1.1,0.3-1.5,0.6
		l0.4,1.2c1-0.4,1.8-0.5,2.6-0.5s1.2,0.1,1.5,0.4c0.3,0.3,0.4,0.8,0.4,1.5v1.5c-0.6-0.1-1.3-0.1-2.1-0.1c-0.7,0-1.4,0.2-2.1,0.5
		c-0.4,0.2-0.7,0.5-0.9,0.8c-0.2,0.4-0.4,0.8-0.4,1.4c0,0.8,0.2,1.5,0.8,2c0.5,0.5,1.2,0.7,2,0.7C316,262.2,316.6,262.1,317.1,261.9
		L317.1,261.9z M314.3,259.3c0-1,0.8-1.5,2.3-1.5c0.7,0,1.2,0,1.5,0.1v2.3c-0.7,0.5-1.5,0.7-2.3,0.7
		C314.8,260.8,314.3,260.3,314.3,259.3L314.3,259.3L314.3,259.3z M328.1,261.8l-0.3-1.3c-0.4,0.1-0.8,0.2-1.2,0.2
		c-0.4,0-0.7-0.1-0.8-0.2c-0.1-0.1-0.2-0.2-0.2-0.4c0-0.1,0-0.3,0-0.6v-6.1h2.7l0.2-1.4h-2.9v-2.6l-1.6,0.3l-0.2,2.3l-1.8,0.1
		l-0.2,1.2l1.9,0.1v5.9c0,1,0.2,1.8,0.5,2.2c0.3,0.4,1,0.6,2,0.6C326.9,262.2,327.5,262.1,328.1,261.8L328.1,261.8L328.1,261.8z"/>
	<path d="M88.1,224.1l-1.6,0.1l-0.2,1.2l1.8,0.1v11.9l1.8,0.2v-12.1h2.5l0.2-1.4h-2.7v-0.8c0-0.7,0.1-1.2,0.4-1.5
		c0.2-0.3,0.7-0.4,1.5-0.4c0.8,0,1.4,0.1,1.9,0.2l0.4-1.4c-0.8-0.2-1.6-0.4-2.3-0.4c-1.3,0-2.3,0.3-2.8,0.8
		c-0.5,0.5-0.8,1.4-0.8,2.7V224.1L88.1,224.1z M101.5,229c0-1.8-0.4-3.1-1.1-3.9c-0.7-0.8-1.7-1.2-2.9-1.2c-1.2,0-2.2,0.4-3,1.2
		c-0.8,0.8-1.1,2.1-1.1,3.9c0,1.8,0.4,3.1,1.1,3.9c0.7,0.8,1.7,1.2,2.9,1.2c1.2,0,2.2-0.4,3-1.2C101.2,232.1,101.5,230.8,101.5,229
		L101.5,229z M99.2,226.1c0.4,0.5,0.6,1.5,0.6,2.8c0,1.4-0.2,2.3-0.7,2.9c-0.4,0.6-1,0.9-1.6,0.9c-1.5,0-2.3-1.2-2.3-3.7
		c0-2.5,0.8-3.7,2.3-3.7C98.2,225.3,98.8,225.6,99.2,226.1L99.2,226.1z M110.7,224.7c-0.4-0.6-1.1-0.9-2-0.9c-0.6,0-1.2,0.1-1.8,0.4
		c-0.6,0.3-1.1,0.6-1.5,1l-0.2-1.2h-1.5v9.9h1.8v-7.3c0.3-0.4,0.7-0.7,1.3-0.9c0.6-0.3,1.1-0.4,1.5-0.4c0.5,0,0.8,0.2,0.9,0.5
		c0.2,0.3,0.2,0.8,0.2,1.4v6.7h1.8v-6.8C111.3,226.1,111.1,225.3,110.7,224.7L110.7,224.7z M119.2,233.8l-0.3-1.3
		c-0.4,0.1-0.8,0.2-1.2,0.2s-0.7-0.1-0.8-0.2c-0.1-0.1-0.2-0.2-0.2-0.4c0-0.1,0-0.3,0-0.6v-6.1h2.7l0.2-1.4h-2.9v-2.6l-1.6,0.3
		l-0.2,2.3l-1.8,0.1l-0.2,1.2l1.9,0.1v5.9c0,1,0.2,1.8,0.5,2.2c0.3,0.4,1,0.6,2,0.6C118,234.2,118.6,234.1,119.2,233.8L119.2,233.8
		L119.2,233.8z M125.8,224.1l-1.6,0.1l-0.2,1.2l1.8,0.1v11.9l1.8,0.2v-12.1h2.5l0.2-1.4h-2.7v-0.8c0-0.7,0.1-1.2,0.4-1.5
		c0.2-0.3,0.7-0.4,1.5-0.4c0.8,0,1.4,0.1,1.9,0.2l0.4-1.4c-0.8-0.2-1.6-0.4-2.3-0.4c-1.3,0-2.3,0.3-2.8,0.8
		c-0.5,0.5-0.8,1.4-0.8,2.7V224.1L125.8,224.1z M135.5,233.9c0.5-0.2,0.9-0.4,1.2-0.7c0.3,0.7,0.8,1,1.5,1c0.7,0,1.3-0.1,1.7-0.4
		l-0.3-1.1c-0.4,0.1-0.7,0.2-0.9,0.2c-0.3,0-0.5-0.2-0.5-0.7v-4.7c0-1.3-0.3-2.2-0.8-2.7c-0.5-0.5-1.4-0.8-2.7-0.8
		c-0.5,0-1,0.1-1.6,0.2c-0.6,0.1-1.1,0.3-1.5,0.6l0.4,1.2c1-0.4,1.8-0.5,2.6-0.5c0.7,0,1.2,0.1,1.5,0.4c0.3,0.3,0.4,0.8,0.4,1.5v1.5
		c-0.6-0.1-1.3-0.1-2.1-0.1s-1.4,0.2-2.1,0.5c-0.4,0.2-0.7,0.5-0.9,0.8c-0.2,0.4-0.4,0.8-0.4,1.4c0,0.8,0.2,1.5,0.8,2
		c0.5,0.5,1.2,0.7,2,0.7C134.4,234.2,135,234.1,135.5,233.9L135.5,233.9z M132.7,231.3c0-1,0.8-1.5,2.3-1.5c0.7,0,1.2,0,1.5,0.1v2.3
		c-0.7,0.5-1.5,0.7-2.3,0.7C133.2,232.8,132.7,232.3,132.7,231.3L132.7,231.3L132.7,231.3z M148.6,226.6c0.4-0.3,0.8-0.6,1.3-0.9
		c0.5-0.2,1-0.4,1.4-0.4c0.5,0,0.8,0.2,0.9,0.5c0.2,0.3,0.2,0.8,0.2,1.4v6.7h1.8v-6.8c0-2.2-0.9-3.3-2.6-3.3c-0.5,0-1.1,0.1-1.8,0.4
		c-0.6,0.3-1.1,0.6-1.5,1c-0.4-1-1.1-1.4-2.3-1.4c-0.6,0-1.1,0.1-1.7,0.4c-0.6,0.3-1.1,0.6-1.4,1l-0.2-1.2h-1.5v9.9h1.8v-7.3
		c0.3-0.4,0.7-0.7,1.2-0.9c0.5-0.2,1-0.4,1.5-0.4c0.5,0,0.8,0.2,0.9,0.5c0.2,0.3,0.2,0.8,0.2,1.4v6.7h1.8v-6.7
		C148.7,227,148.7,226.7,148.6,226.6L148.6,226.6L148.6,226.6z M158.6,224l-1.8,0.2v9.8h1.8V224L158.6,224z M156.9,222
		c0.2,0.2,0.5,0.4,0.8,0.4c0.3,0,0.6-0.1,0.8-0.4c0.2-0.2,0.3-0.5,0.3-0.8s-0.1-0.6-0.3-0.8c-0.2-0.2-0.5-0.3-0.8-0.3
		c-0.3,0-0.6,0.1-0.8,0.3c-0.2,0.2-0.4,0.5-0.4,0.8S156.6,221.8,156.9,222L156.9,222z M161.3,232c0,1.5,0.6,2.2,1.9,2.2
		c0.8,0,1.4-0.1,2-0.4l-0.3-1.3c-0.4,0.1-0.8,0.2-1.2,0.2c-0.5,0-0.7-0.3-0.7-0.8v-11.7h-1.8V232L161.3,232z M165.1,236.7l-0.2,1.2
		c0.5,0.1,0.9,0.1,1.3,0.1c1.1,0,1.9-0.3,2.6-1c0.7-0.7,1.3-1.8,1.8-3.3l3.2-9.7h-1.8l-2.3,8l-2.6-8l-1.9,0.1l3.6,9.8
		c-0.3,1-0.7,1.7-1.2,2.1c-0.4,0.4-1,0.6-1.7,0.6C165.6,236.7,165.3,236.7,165.1,236.7L165.1,236.7L165.1,236.7z M179.5,220.9v13
		h1.9v-13H179.5L179.5,220.9z M190,232.4v-6.2c0.8-0.6,1.6-0.9,2.3-0.9c1.3,0,2,1.2,2,3.5c0,2.6-0.8,3.9-2.4,3.9
		C191.3,232.7,190.7,232.6,190,232.4L190,232.4L190,232.4z M189.8,224.1h-1.5v14.3l1.8-0.2v-4.3c0.6,0.3,1.2,0.4,1.9,0.4
		c2.9,0,4.3-1.8,4.3-5.4c0-1.5-0.3-2.7-0.9-3.6c-0.6-0.9-1.4-1.3-2.5-1.3s-2,0.3-2.9,1L189.8,224.1L189.8,224.1z M202.8,233.9
		c0.5-0.2,1-0.5,1.4-0.8l0.2,1.1h1.4v-10H204v7.6c-0.3,0.3-0.7,0.5-1.2,0.7c-0.5,0.2-1,0.2-1.5,0.2c-0.5,0-0.9-0.2-1-0.5
		c-0.2-0.3-0.3-0.8-0.3-1.4v-6.7h-1.8v6.8c0,1.1,0.2,1.9,0.6,2.5c0.4,0.6,1.2,0.9,2.2,0.9C201.7,234.2,202.2,234.1,202.8,233.9
		L202.8,233.9z M214.5,228.9c0,2.5-0.8,3.8-2.5,3.8c-0.7,0-1.4-0.1-1.9-0.3v-6.2c0.8-0.5,1.6-0.8,2.4-0.8
		C213.8,225.4,214.5,226.5,214.5,228.9L214.5,228.9L214.5,228.9z M208.4,220.3v13c1,0.6,2.2,0.9,3.6,0.9c2.9,0,4.3-1.9,4.3-5.7
		c0-1.5-0.3-2.6-1-3.4c-0.7-0.8-1.5-1.2-2.5-1.2c-0.5,0-1,0.1-1.5,0.3c-0.5,0.2-0.9,0.4-1.1,0.6v-4.5H208.4L208.4,220.3z M218.5,232
		c0,1.5,0.6,2.2,1.9,2.2c0.8,0,1.4-0.1,2-0.4l-0.3-1.3c-0.4,0.1-0.8,0.2-1.2,0.2c-0.5,0-0.7-0.3-0.7-0.8v-11.7h-1.8V232L218.5,232z
		 M225.4,224l-1.8,0.2v9.8h1.8V224L225.4,224z M223.7,222c0.2,0.2,0.5,0.4,0.8,0.4c0.3,0,0.6-0.1,0.8-0.4c0.2-0.2,0.3-0.5,0.3-0.8
		s-0.1-0.6-0.3-0.8c-0.2-0.2-0.5-0.3-0.8-0.3c-0.3,0-0.6,0.1-0.8,0.3c-0.2,0.2-0.4,0.5-0.4,0.8S223.4,221.8,223.7,222L223.7,222z
		 M227.5,233.5c0.3,0.2,0.7,0.4,1.2,0.5c0.6,0.1,1.1,0.2,1.6,0.2c1.2,0,2.1-0.3,2.7-0.9c0.6-0.6,1-1.3,1-2.2c0-0.6-0.2-1.1-0.5-1.5
		c-0.3-0.4-0.7-0.7-1.2-0.9c-0.5-0.2-0.9-0.4-1.4-0.5c-0.5-0.2-0.9-0.4-1.2-0.6c-0.3-0.3-0.5-0.6-0.5-1c0-0.4,0.2-0.7,0.5-0.9
		c0.3-0.2,0.8-0.4,1.4-0.4c0.6,0,1.3,0.1,2.1,0.4l0.4-1.3c-0.6-0.4-1.5-0.6-2.6-0.6c-1.1,0-1.9,0.3-2.5,0.8
		c-0.6,0.5-0.9,1.2-0.9,2.1c0,0.6,0.2,1.1,0.5,1.5c0.3,0.4,0.7,0.7,1.2,0.9c0.5,0.2,0.9,0.4,1.4,0.5c0.5,0.2,0.8,0.4,1.2,0.7
		c0.3,0.3,0.5,0.6,0.5,1c0,0.4-0.2,0.7-0.5,1c-0.3,0.3-0.9,0.4-1.6,0.4c-0.7,0-1.5-0.2-2.4-0.6L227.5,233.5L227.5,233.5z
		 M239.3,224.3c-0.6,0.3-1.1,0.6-1.4,0.9v-5.1l-1.8,0.2v13.6h1.8v-7.3c0.3-0.4,0.7-0.7,1.3-0.9c0.5-0.2,1-0.4,1.5-0.4
		c0.5,0,0.8,0.2,0.9,0.5c0.2,0.3,0.2,0.8,0.2,1.4v6.7h1.8v-6.8c0-1-0.2-1.8-0.6-2.4c-0.4-0.6-1.1-0.9-2-0.9
		C240.4,223.9,239.9,224,239.3,224.3L239.3,224.3z M253.1,233.4l-0.4-1.2c-0.8,0.4-1.7,0.5-2.6,0.5c-0.9,0-1.6-0.3-2-1
		s-0.7-1.6-0.7-2.7h5.7c0.2-0.7,0.3-1.3,0.3-1.8c0-1-0.3-1.8-0.9-2.4c-0.6-0.6-1.4-0.9-2.5-0.9c-1.3,0-2.3,0.5-3.1,1.4
		c-0.8,0.9-1.1,2.2-1.1,3.7c0,1.5,0.4,2.8,1.1,3.7c0.7,1,1.8,1.5,3.2,1.5C251.1,234.2,252.1,233.9,253.1,233.4L253.1,233.4
		L253.1,233.4z M251.7,227.7l-4.2,0c0.1-0.4,0.3-0.9,0.6-1.4c0.2-0.3,0.4-0.5,0.8-0.7c0.3-0.2,0.8-0.3,1.3-0.3
		c0.5,0,0.9,0.2,1.2,0.6c0.3,0.4,0.4,1,0.4,1.7V227.7L251.7,227.7z M255.9,232.8c0.6,0.9,1.4,1.3,2.5,1.3c1.1,0,2-0.3,2.9-1l0.3,1
		h1.4v-13.8h-1.8v4c-0.5-0.3-1.2-0.4-1.9-0.4c-2.8,0-4.3,1.8-4.3,5.3C255,230.7,255.3,231.9,255.9,232.8L255.9,232.8z M261.2,225.7
		v6.2c-0.6,0.6-1.4,0.9-2.3,0.9c-1.3,0-2-1.2-2-3.5c0-2.6,0.8-3.8,2.4-3.8C260,225.3,260.6,225.5,261.2,225.7L261.2,225.7
		L261.2,225.7z M265.2,232.8c0,0.3,0.1,0.6,0.4,0.9c0.2,0.2,0.5,0.4,0.8,0.4s0.6-0.1,0.8-0.4c0.2-0.2,0.4-0.5,0.4-0.9
		c0-0.3-0.1-0.6-0.4-0.8c-0.2-0.2-0.5-0.3-0.8-0.3s-0.6,0.1-0.8,0.3C265.4,232.2,265.2,232.5,265.2,232.8L265.2,232.8z M281.2,233.9
		h1.9l-4.3-13h-2.1l-4.3,13h1.9l1.1-3.4h4.6L281.2,233.9L281.2,233.9z M275.9,229.1l1.9-6.4l1.9,6.4H275.9L275.9,229.1z
		 M283.9,233.5c0.3,0.2,0.7,0.4,1.2,0.5c0.6,0.1,1.1,0.2,1.6,0.2c1.2,0,2.1-0.3,2.7-0.9c0.6-0.6,1-1.3,1-2.2c0-0.6-0.2-1.1-0.5-1.5
		c-0.3-0.4-0.7-0.7-1.2-0.9c-0.5-0.2-0.9-0.4-1.4-0.5c-0.5-0.2-0.9-0.4-1.2-0.6c-0.3-0.3-0.5-0.6-0.5-1c0-0.4,0.2-0.7,0.5-0.9
		c0.3-0.2,0.8-0.4,1.4-0.4c0.6,0,1.3,0.1,2.1,0.4l0.4-1.3c-0.7-0.4-1.5-0.6-2.6-0.6c-1.1,0-1.9,0.3-2.5,0.8
		c-0.6,0.5-0.9,1.2-0.9,2.1c0,0.6,0.2,1.1,0.5,1.5c0.3,0.4,0.7,0.7,1.2,0.9c0.5,0.2,0.9,0.4,1.4,0.5c0.5,0.2,0.8,0.4,1.2,0.7
		c0.3,0.3,0.5,0.6,0.5,1c0,0.4-0.2,0.7-0.5,1c-0.3,0.3-0.9,0.4-1.6,0.4c-0.7,0-1.5-0.2-2.4-0.6L283.9,233.5L283.9,233.5z
		 M300.4,233.9c0.5-0.2,0.9-0.4,1.2-0.7c0.3,0.7,0.8,1,1.5,1c0.7,0,1.3-0.1,1.7-0.4l-0.3-1.1c-0.4,0.1-0.7,0.2-0.9,0.2
		c-0.3,0-0.5-0.2-0.5-0.7v-4.7c0-1.3-0.3-2.2-0.8-2.7c-0.5-0.5-1.4-0.8-2.7-0.8c-0.5,0-1,0.1-1.6,0.2c-0.6,0.1-1.1,0.3-1.5,0.6
		l0.4,1.2c1-0.4,1.8-0.5,2.6-0.5c0.7,0,1.2,0.1,1.5,0.4c0.3,0.3,0.4,0.8,0.4,1.5v1.5c-0.6-0.1-1.3-0.1-2.1-0.1
		c-0.7,0-1.5,0.2-2.1,0.5c-0.4,0.2-0.7,0.5-0.9,0.8c-0.2,0.4-0.4,0.8-0.4,1.4c0,0.8,0.3,1.5,0.8,2c0.5,0.5,1.2,0.7,2,0.7
		C299.3,234.2,299.9,234.1,300.4,233.9L300.4,233.9z M297.6,231.3c0-1,0.8-1.5,2.3-1.5c0.7,0,1.2,0,1.5,0.1v2.3
		c-0.7,0.5-1.5,0.7-2.3,0.7C298.1,232.8,297.6,232.3,297.6,231.3L297.6,231.3L297.6,231.3z"/>
	<path d="M87.7,204.8c0.6,0.9,1.4,1.3,2.5,1.3c1.1,0,2-0.3,2.9-1l0.3,1h1.4v-13.8h-1.8v4c-0.5-0.3-1.2-0.4-1.9-0.4
		c-2.8,0-4.3,1.8-4.3,5.3C86.8,202.7,87.1,203.9,87.7,204.8L87.7,204.8z M92.9,197.7v6.2c-0.6,0.6-1.4,0.9-2.3,0.9
		c-1.3,0-2-1.2-2-3.5c0-2.6,0.8-3.8,2.4-3.8C91.7,197.3,92.4,197.5,92.9,197.7L92.9,197.7L92.9,197.7z M104.2,205.4l-0.4-1.2
		c-0.8,0.4-1.7,0.5-2.6,0.5c-0.9,0-1.6-0.3-2-1c-0.5-0.7-0.7-1.6-0.7-2.7h5.7c0.2-0.7,0.3-1.3,0.3-1.8c0-1-0.3-1.8-0.9-2.4
		c-0.6-0.6-1.4-0.9-2.5-0.9c-1.3,0-2.3,0.5-3.1,1.4c-0.8,0.9-1.1,2.2-1.1,3.7c0,1.5,0.4,2.8,1.1,3.7c0.7,1,1.8,1.5,3.2,1.5
		C102.3,206.2,103.3,205.9,104.2,205.4L104.2,205.4L104.2,205.4z M102.9,199.7l-4.2,0c0.1-0.4,0.3-0.9,0.6-1.4
		c0.2-0.3,0.4-0.5,0.8-0.7c0.3-0.2,0.8-0.3,1.3-0.3s0.9,0.2,1.2,0.6c0.3,0.4,0.4,1,0.4,1.7V199.7L102.9,199.7z M106,205.5
		c0.3,0.2,0.7,0.4,1.2,0.5c0.6,0.1,1.1,0.2,1.6,0.2c1.2,0,2.1-0.3,2.7-0.9c0.6-0.6,1-1.3,1-2.2c0-0.6-0.2-1.1-0.5-1.5
		c-0.3-0.4-0.7-0.7-1.2-0.9c-0.5-0.2-0.9-0.4-1.4-0.5c-0.5-0.2-0.9-0.4-1.2-0.6c-0.3-0.3-0.5-0.6-0.5-1c0-0.4,0.2-0.7,0.5-0.9
		c0.3-0.2,0.8-0.4,1.4-0.4c0.6,0,1.3,0.1,2.1,0.4l0.4-1.3c-0.6-0.4-1.5-0.6-2.6-0.6s-1.9,0.3-2.5,0.8c-0.6,0.5-0.9,1.2-0.9,2.1
		c0,0.6,0.2,1.1,0.5,1.5c0.3,0.4,0.7,0.7,1.2,0.9c0.5,0.2,0.9,0.4,1.4,0.5c0.5,0.2,0.8,0.4,1.2,0.7c0.3,0.3,0.5,0.6,0.5,1
		c0,0.4-0.2,0.7-0.5,1c-0.3,0.3-0.9,0.4-1.6,0.4s-1.5-0.2-2.4-0.6L106,205.5L106,205.5z M116.4,196l-1.8,0.2v9.8h1.8V196L116.4,196z
		 M114.6,194c0.2,0.2,0.5,0.4,0.8,0.4c0.3,0,0.6-0.1,0.8-0.4c0.2-0.2,0.3-0.5,0.3-0.8s-0.1-0.6-0.3-0.8c-0.2-0.2-0.5-0.3-0.8-0.3
		c-0.3,0-0.6,0.1-0.8,0.3c-0.2,0.2-0.4,0.5-0.4,0.8S114.4,193.8,114.6,194L114.6,194z M119.5,196.9c-0.6,0.7-0.9,1.5-0.9,2.6
		c0,0.7,0.1,1.3,0.4,1.9c0.3,0.6,0.7,1,1.2,1.3c-0.5,0.7-0.8,1.2-0.8,1.8c0,0.5,0.2,0.9,0.5,1.2c-1.2,0.6-1.8,1.4-1.8,2.5
		c0,0.8,0.3,1.4,1,1.9c0.7,0.4,1.7,0.7,3,0.7c1.3,0,2.4-0.3,3.2-1c0.8-0.6,1.3-1.5,1.3-2.5c0-0.7-0.3-1.3-0.8-1.7
		c-0.5-0.4-1.2-0.6-2.2-0.6h-1.8c-0.7,0-1-0.2-1-0.7c0-0.3,0.1-0.7,0.3-1.1c0.3,0.1,0.7,0.1,1,0.1c1.1,0,2-0.3,2.6-1
		c0.6-0.7,0.9-1.5,0.9-2.5c0-1-0.2-1.8-0.7-2.4c0.9-0.1,1.6-0.2,2-0.3l-0.2-1.1c-1,0.2-2,0.3-3,0.3l-1.6-0.1
		C121,195.9,120.1,196.2,119.5,196.9L119.5,196.9z M123.6,197.8c0.3,0.4,0.4,0.9,0.4,1.7c0,1.4-0.6,2.2-1.9,2.2
		c-1.3,0-1.9-0.7-1.9-2.2s0.6-2.2,1.9-2.2C122.8,197.2,123.3,197.4,123.6,197.8L123.6,197.8z M124.7,206.4c0.2,0.2,0.4,0.4,0.4,0.8
		c0,0.6-0.2,1.1-0.7,1.4c-0.5,0.3-1.1,0.5-1.9,0.5c-0.8,0-1.4-0.1-1.9-0.3c-0.4-0.2-0.7-0.6-0.7-1c0-0.7,0.4-1.3,1.1-1.6h2.4
		C124,206.2,124.4,206.3,124.7,206.4L124.7,206.4z M135.4,196.7c-0.4-0.6-1.1-0.9-2-0.9c-0.6,0-1.2,0.1-1.8,0.4
		c-0.6,0.3-1.1,0.6-1.5,1l-0.2-1.2h-1.5v9.9h1.8v-7.3c0.3-0.4,0.7-0.7,1.3-0.9c0.6-0.3,1.1-0.4,1.5-0.4c0.5,0,0.8,0.2,0.9,0.5
		c0.2,0.3,0.2,0.8,0.2,1.4v6.7h1.8v-6.8C136,198.1,135.8,197.3,135.4,196.7L135.4,196.7z M144.4,196l-1.8,0.2v9.8h1.8V196L144.4,196
		z M142.6,194c0.2,0.2,0.5,0.4,0.8,0.4s0.6-0.1,0.8-0.4c0.2-0.2,0.3-0.5,0.3-0.8s-0.1-0.6-0.3-0.8c-0.2-0.2-0.5-0.3-0.8-0.3
		s-0.6,0.1-0.8,0.3c-0.2,0.2-0.4,0.5-0.4,0.8S142.4,193.8,142.6,194L142.6,194z M154,196.7c-0.4-0.6-1.1-0.9-2-0.9
		c-0.6,0-1.2,0.1-1.8,0.4c-0.6,0.3-1.1,0.6-1.5,1l-0.2-1.2H147v9.9h1.8v-7.3c0.3-0.4,0.7-0.7,1.3-0.9c0.6-0.3,1.1-0.4,1.5-0.4
		c0.5,0,0.8,0.2,0.9,0.5c0.2,0.3,0.2,0.8,0.2,1.4v6.7h1.8v-6.8C154.6,198.1,154.4,197.3,154,196.7L154,196.7z M160.3,204.2l-2.2-8.1
		h-1.9l3.1,9.9h2l3.2-9.8h-1.8L160.3,204.2L160.3,204.2z M173.6,201c0-1.8-0.4-3.1-1.1-3.9c-0.7-0.8-1.7-1.2-2.9-1.2
		c-1.2,0-2.2,0.4-3,1.2c-0.8,0.8-1.1,2.1-1.1,3.9c0,1.8,0.4,3.1,1.1,3.9c0.7,0.8,1.7,1.2,2.9,1.2s2.2-0.4,3-1.2
		C173.2,204.1,173.6,202.8,173.6,201L173.6,201z M171.2,198.1c0.4,0.5,0.6,1.5,0.6,2.8c0,1.4-0.2,2.3-0.7,2.9s-1,0.9-1.6,0.9
		c-1.5,0-2.3-1.2-2.3-3.7c0-2.5,0.8-3.7,2.3-3.7C170.3,197.3,170.8,197.6,171.2,198.1L171.2,198.1z M175.8,204
		c0,1.5,0.6,2.2,1.9,2.2c0.8,0,1.4-0.1,2-0.4l-0.3-1.3c-0.4,0.1-0.8,0.2-1.2,0.2c-0.5,0-0.7-0.3-0.7-0.8v-11.7h-1.8V204L175.8,204z
		 M184.1,204.2l-2.2-8.1h-1.9l3.1,9.9h2l3.2-9.8h-1.8L184.1,204.2L184.1,204.2z M196.6,205.4l-0.4-1.2c-0.8,0.4-1.7,0.5-2.6,0.5
		c-0.9,0-1.6-0.3-2-1c-0.5-0.7-0.7-1.6-0.7-2.7h5.7c0.2-0.7,0.3-1.3,0.3-1.8c0-1-0.3-1.8-0.9-2.4c-0.6-0.6-1.4-0.9-2.5-0.9
		c-1.3,0-2.3,0.5-3.1,1.4c-0.8,0.9-1.1,2.2-1.1,3.7c0,1.5,0.4,2.8,1.1,3.7c0.7,1,1.8,1.5,3.2,1.5
		C194.6,206.2,195.7,205.9,196.6,205.4L196.6,205.4L196.6,205.4z M195.2,199.7l-4.2,0c0.1-0.4,0.3-0.9,0.6-1.4
		c0.2-0.3,0.4-0.5,0.8-0.7c0.3-0.2,0.8-0.3,1.3-0.3c0.5,0,0.9,0.2,1.2,0.6c0.3,0.4,0.4,1,0.4,1.7V199.7L195.2,199.7z M198.4,205.5
		c0.3,0.2,0.7,0.4,1.2,0.5c0.6,0.1,1.1,0.2,1.6,0.2c1.2,0,2.1-0.3,2.7-0.9c0.6-0.6,1-1.3,1-2.2c0-0.6-0.2-1.1-0.5-1.5
		c-0.3-0.4-0.7-0.7-1.2-0.9c-0.5-0.2-0.9-0.4-1.4-0.5c-0.5-0.2-0.9-0.4-1.2-0.6c-0.3-0.3-0.5-0.6-0.5-1c0-0.4,0.2-0.7,0.5-0.9
		c0.3-0.2,0.8-0.4,1.4-0.4c0.6,0,1.3,0.1,2.1,0.4l0.4-1.3c-0.7-0.4-1.5-0.6-2.6-0.6c-1.1,0-1.9,0.3-2.5,0.8
		c-0.6,0.5-0.9,1.2-0.9,2.1c0,0.6,0.2,1.1,0.5,1.5c0.3,0.4,0.7,0.7,1.2,0.9c0.5,0.2,0.9,0.4,1.4,0.5c0.5,0.2,0.8,0.4,1.2,0.7
		c0.3,0.3,0.5,0.6,0.5,1c0,0.4-0.2,0.7-0.5,1c-0.3,0.3-0.9,0.4-1.6,0.4c-0.7,0-1.5-0.2-2.4-0.6L198.4,205.5L198.4,205.5z M206.9,199
		c0,0.3,0.1,0.6,0.4,0.9c0.2,0.2,0.5,0.4,0.8,0.4c0.3,0,0.6-0.1,0.8-0.4c0.2-0.2,0.4-0.5,0.4-0.9c0-0.3-0.1-0.6-0.4-0.8
		c-0.2-0.2-0.5-0.3-0.8-0.3c-0.3,0-0.6,0.1-0.8,0.3C207,198.4,206.9,198.7,206.9,199L206.9,199z M209,203.7h-1.9
		c0.2,0.5,0.3,1,0.3,1.4c0,1-0.5,2.1-1.6,3.4h1.6c1.2-1.1,1.7-2.3,1.7-3.6C209.2,204.4,209.1,204,209,203.7L209,203.7L209,203.7z
		 M217.7,196l-1.8,0.2v9.8h1.8V196L217.7,196z M216,194c0.2,0.2,0.5,0.4,0.8,0.4s0.6-0.1,0.8-0.4c0.2-0.2,0.3-0.5,0.3-0.8
		s-0.1-0.6-0.3-0.8c-0.2-0.2-0.5-0.3-0.8-0.3s-0.6,0.1-0.8,0.3c-0.2,0.2-0.4,0.5-0.4,0.8S215.7,193.8,216,194L216,194z M225.7,205.8
		l-0.3-1.3c-0.4,0.1-0.8,0.2-1.2,0.2c-0.4,0-0.7-0.1-0.8-0.2c-0.1-0.1-0.2-0.2-0.2-0.4c0-0.1,0-0.3,0-0.6v-6.1h2.7l0.2-1.4h-2.9
		v-2.6l-1.6,0.3l-0.2,2.3l-1.8,0.1l-0.2,1.2l1.9,0.1v5.9c0,1,0.2,1.8,0.5,2.2c0.3,0.4,1,0.6,2,0.6
		C224.5,206.2,225.1,206.1,225.7,205.8L225.7,205.8L225.7,205.8z M238.7,205.9h1.8l2.6-9.9h-1.8l-1.8,7.9l-2-7.9l-1.6,0.1L234,204
		l-1.8-7.9h-1.8l2.6,9.9h1.8l1.9-7.7L238.7,205.9L238.7,205.9z M248.4,205.9c0.5-0.2,0.9-0.4,1.2-0.7c0.3,0.7,0.8,1,1.5,1
		c0.7,0,1.3-0.1,1.7-0.4l-0.3-1.1c-0.4,0.1-0.6,0.2-0.9,0.2c-0.3,0-0.5-0.2-0.5-0.7v-4.7c0-1.3-0.3-2.2-0.8-2.7
		c-0.5-0.5-1.4-0.8-2.7-0.8c-0.5,0-1,0.1-1.6,0.2c-0.6,0.1-1.1,0.3-1.5,0.6l0.4,1.2c1-0.4,1.8-0.5,2.6-0.5c0.7,0,1.2,0.1,1.5,0.4
		c0.3,0.3,0.4,0.8,0.4,1.5v1.5c-0.6-0.1-1.3-0.1-2.1-0.1c-0.7,0-1.4,0.2-2.1,0.5c-0.4,0.2-0.7,0.5-0.9,0.8c-0.2,0.4-0.4,0.8-0.4,1.4
		c0,0.8,0.3,1.5,0.8,2c0.5,0.5,1.2,0.7,2,0.7C247.4,206.2,247.9,206.1,248.4,205.9L248.4,205.9z M245.7,203.3c0-1,0.8-1.5,2.3-1.5
		c0.7,0,1.2,0,1.5,0.1v2.3c-0.7,0.5-1.5,0.7-2.3,0.7C246.2,204.8,245.7,204.3,245.7,203.3L245.7,203.3L245.7,203.3z M253.6,205.5
		c0.3,0.2,0.7,0.4,1.2,0.5c0.6,0.1,1.1,0.2,1.6,0.2c1.2,0,2.1-0.3,2.7-0.9c0.6-0.6,1-1.3,1-2.2c0-0.6-0.2-1.1-0.5-1.5
		c-0.3-0.4-0.7-0.7-1.2-0.9c-0.5-0.2-0.9-0.4-1.4-0.5c-0.5-0.2-0.9-0.4-1.2-0.6c-0.3-0.3-0.5-0.6-0.5-1c0-0.4,0.2-0.7,0.5-0.9
		c0.3-0.2,0.8-0.4,1.4-0.4c0.6,0,1.3,0.1,2.1,0.4l0.4-1.3c-0.6-0.4-1.5-0.6-2.6-0.6s-1.9,0.3-2.5,0.8c-0.6,0.5-0.9,1.2-0.9,2.1
		c0,0.6,0.2,1.1,0.5,1.5c0.3,0.4,0.7,0.7,1.2,0.9c0.5,0.2,0.9,0.4,1.4,0.5c0.5,0.2,0.8,0.4,1.2,0.7c0.3,0.3,0.5,0.6,0.5,1
		c0,0.4-0.2,0.7-0.5,1c-0.3,0.3-0.9,0.4-1.6,0.4c-0.7,0-1.5-0.2-2.4-0.6L253.6,205.5L253.6,205.5z M271.3,205.8l-0.3-1.3
		c-0.4,0.1-0.8,0.2-1.2,0.2c-0.4,0-0.7-0.1-0.8-0.2c-0.1-0.1-0.2-0.2-0.2-0.4c0-0.1,0-0.3,0-0.6v-6.1h2.7l0.2-1.4h-2.9v-2.6
		l-1.6,0.3l-0.2,2.3l-1.8,0.1l-0.2,1.2l1.9,0.1v5.9c0,1,0.2,1.8,0.5,2.2c0.3,0.4,1,0.6,2,0.6C270.1,206.2,270.7,206.1,271.3,205.8
		L271.3,205.8L271.3,205.8z M276.4,196.3c-0.6,0.3-1.1,0.6-1.4,0.9v-5.1l-1.8,0.2v13.6h1.8v-7.3c0.3-0.4,0.7-0.7,1.3-0.9
		c0.5-0.2,1-0.4,1.5-0.4c0.5,0,0.8,0.2,0.9,0.5c0.2,0.3,0.2,0.8,0.2,1.4v6.7h1.8v-6.8c0-1-0.2-1.8-0.6-2.4c-0.4-0.6-1.1-0.9-2-0.9
		C277.5,195.9,277,196,276.4,196.3L276.4,196.3z M290.2,205.4l-0.4-1.2c-0.8,0.4-1.7,0.5-2.6,0.5c-0.9,0-1.6-0.3-2-1
		c-0.5-0.7-0.7-1.6-0.7-2.7h5.7c0.2-0.7,0.3-1.3,0.3-1.8c0-1-0.3-1.8-0.9-2.4c-0.6-0.6-1.4-0.9-2.5-0.9c-1.3,0-2.3,0.5-3.1,1.4
		c-0.8,0.9-1.1,2.2-1.1,3.7c0,1.5,0.4,2.8,1.1,3.7c0.7,1,1.8,1.5,3.2,1.5C288.2,206.2,289.3,205.9,290.2,205.4L290.2,205.4
		L290.2,205.4z M288.8,199.7l-4.2,0c0.1-0.4,0.3-0.9,0.6-1.4c0.2-0.3,0.4-0.5,0.8-0.7c0.3-0.2,0.8-0.3,1.3-0.3
		c0.5,0,0.9,0.2,1.2,0.6c0.3,0.4,0.4,1,0.4,1.7V199.7L288.8,199.7z M303.3,205.9h1.8v-10l-1.8,0.1h-4v-0.8c0-0.7,0.2-1.2,0.5-1.5
		c0.3-0.3,0.8-0.4,1.4-0.4c0.6,0,1.4,0.1,2.3,0.2l0.4-1.4c-0.9-0.2-1.8-0.3-2.7-0.3c-2.4,0-3.6,1.2-3.6,3.5v0.7l-1.6,0.1l-0.2,1.2
		l1.8,0.1v11.9l1.8,0.2v-12.1h4V205.9L303.3,205.9z M309.5,198.9c0.5-1,1.5-1.5,2.9-1.5c0.2,0,0.4,0,0.5,0l0.4-1.4
		c-0.2-0.1-0.5-0.1-0.9-0.1c-0.7,0-1.3,0.2-1.8,0.5c-0.5,0.4-0.9,0.7-1.2,1.1l-0.2-1.5h-1.5v9.9h1.8V198.9L309.5,198.9z
		 M314.1,205.5c0.3,0.2,0.7,0.4,1.2,0.5c0.6,0.1,1.1,0.2,1.6,0.2c1.2,0,2.1-0.3,2.7-0.9c0.6-0.6,1-1.3,1-2.2c0-0.6-0.2-1.1-0.5-1.5
		c-0.3-0.4-0.7-0.7-1.2-0.9c-0.5-0.2-0.9-0.4-1.4-0.5c-0.5-0.2-0.9-0.4-1.2-0.6c-0.3-0.3-0.5-0.6-0.5-1c0-0.4,0.2-0.7,0.5-0.9
		c0.3-0.2,0.8-0.4,1.4-0.4c0.6,0,1.3,0.1,2.1,0.4l0.4-1.3c-0.6-0.4-1.5-0.6-2.6-0.6c-1.1,0-1.9,0.3-2.5,0.8
		c-0.6,0.5-0.9,1.2-0.9,2.1c0,0.6,0.2,1.1,0.5,1.5c0.3,0.4,0.7,0.7,1.2,0.9c0.5,0.2,0.9,0.4,1.4,0.5c0.5,0.2,0.8,0.4,1.2,0.7
		c0.3,0.3,0.5,0.6,0.5,1c0,0.4-0.2,0.7-0.5,1c-0.3,0.3-0.9,0.4-1.6,0.4c-0.7,0-1.5-0.2-2.4-0.6L314.1,205.5L314.1,205.5z M328,205.8
		l-0.3-1.3c-0.4,0.1-0.8,0.2-1.2,0.2s-0.7-0.1-0.8-0.2c-0.1-0.1-0.2-0.2-0.2-0.4c0-0.1,0-0.3,0-0.6v-6.1h2.7l0.2-1.4h-2.9v-2.6
		l-1.6,0.3l-0.2,2.3l-1.8,0.1l-0.2,1.2l1.9,0.1v5.9c0,1,0.2,1.8,0.5,2.2c0.3,0.4,1,0.6,2,0.6C326.8,206.2,327.4,206.1,328,205.8
		L328,205.8L328,205.8z"/>
	<path d="M94.1,177.4l-0.4-1.2c-0.8,0.4-1.7,0.5-2.6,0.5c-0.9,0-1.6-0.3-2-1c-0.5-0.7-0.7-1.6-0.7-2.7h5.7c0.2-0.7,0.3-1.3,0.3-1.8
		c0-1-0.3-1.8-0.9-2.4c-0.6-0.6-1.4-0.9-2.5-0.9c-1.3,0-2.3,0.5-3.1,1.4c-0.8,0.9-1.1,2.2-1.1,3.7c0,1.5,0.4,2.8,1.1,3.7
		c0.7,1,1.8,1.5,3.2,1.5C92.1,178.2,93.2,177.9,94.1,177.4L94.1,177.4L94.1,177.4z M92.8,171.7l-4.2,0c0.1-0.4,0.3-0.9,0.6-1.4
		c0.2-0.3,0.4-0.5,0.8-0.7c0.3-0.2,0.8-0.3,1.3-0.3c0.5,0,0.9,0.2,1.2,0.6c0.3,0.4,0.4,1,0.4,1.7V171.7L92.8,171.7z M101.8,168.1
		l-2.1,3.4l-2-3.4h-2l3.1,4.6l-3.5,5.2h2l2.4-3.9l2.3,3.9h2l-3.4-5.2l3.1-4.7H101.8L101.8,168.1z M112.2,177.4l-0.4-1.2
		c-0.8,0.4-1.7,0.5-2.6,0.5c-0.9,0-1.6-0.3-2-1c-0.5-0.7-0.7-1.6-0.7-2.7h5.7c0.2-0.7,0.3-1.3,0.3-1.8c0-1-0.3-1.8-0.9-2.4
		c-0.6-0.6-1.4-0.9-2.5-0.9c-1.3,0-2.3,0.5-3.1,1.4c-0.8,0.9-1.1,2.2-1.1,3.7c0,1.5,0.4,2.8,1.1,3.7c0.7,1,1.8,1.5,3.2,1.5
		C110.2,178.2,111.3,177.9,112.2,177.4L112.2,177.4L112.2,177.4z M110.9,171.7l-4.2,0c0.1-0.4,0.3-0.9,0.6-1.4
		c0.2-0.3,0.4-0.5,0.8-0.7c0.3-0.2,0.8-0.3,1.3-0.3c0.5,0,0.9,0.2,1.2,0.6c0.3,0.4,0.4,1,0.4,1.7V171.7L110.9,171.7z M116.3,170.9
		c0.5-1,1.5-1.5,2.9-1.5c0.2,0,0.4,0,0.5,0l0.4-1.4c-0.2-0.1-0.5-0.1-0.9-0.1c-0.7,0-1.3,0.2-1.8,0.5c-0.5,0.4-0.9,0.7-1.2,1.1
		l-0.2-1.5h-1.5v9.9h1.8V170.9L116.3,170.9z M127.6,177.8l-0.3-1.3c-0.6,0.2-1.2,0.3-1.8,0.3c-2,0-3-1.2-3-3.7
		c0-1.3,0.3-2.2,0.8-2.8c0.5-0.6,1.2-0.9,1.9-0.9c0.5,0,1.2,0.1,1.9,0.3l0.5-1.2c-0.7-0.4-1.5-0.6-2.4-0.6c-1.2,0-2.3,0.4-3.2,1.3
		c-0.9,0.9-1.3,2.2-1.3,3.9c0,1.7,0.4,3,1.3,3.9c0.9,0.9,1.9,1.3,3.3,1.3C126,178.2,126.7,178.1,127.6,177.8L127.6,177.8
		L127.6,177.8z M131.3,168l-1.8,0.2v9.8h1.8V168L131.3,168z M129.6,166c0.2,0.2,0.5,0.4,0.8,0.4c0.3,0,0.6-0.1,0.8-0.4
		c0.2-0.2,0.3-0.5,0.3-0.8s-0.1-0.6-0.3-0.8c-0.2-0.2-0.5-0.3-0.8-0.3c-0.3,0-0.6,0.1-0.8,0.3c-0.2,0.2-0.4,0.5-0.4,0.8
		S129.3,165.8,129.6,166L129.6,166z M133.4,177.5c0.3,0.2,0.7,0.4,1.2,0.5c0.6,0.1,1.1,0.2,1.6,0.2c1.2,0,2.1-0.3,2.7-0.9
		c0.6-0.6,1-1.3,1-2.2c0-0.6-0.2-1.1-0.5-1.5c-0.3-0.4-0.7-0.7-1.2-0.9c-0.5-0.2-0.9-0.4-1.4-0.5c-0.5-0.2-0.9-0.4-1.2-0.6
		s-0.5-0.6-0.5-1c0-0.4,0.2-0.7,0.5-0.9c0.3-0.2,0.8-0.4,1.4-0.4s1.3,0.1,2.1,0.4l0.4-1.3c-0.6-0.4-1.5-0.6-2.6-0.6
		c-1.1,0-1.9,0.3-2.5,0.8c-0.6,0.5-0.9,1.2-0.9,2.1c0,0.6,0.2,1.1,0.5,1.5c0.3,0.4,0.7,0.7,1.2,0.9c0.5,0.2,0.9,0.4,1.4,0.5
		c0.5,0.2,0.8,0.4,1.2,0.7c0.3,0.3,0.5,0.6,0.5,1c0,0.4-0.2,0.7-0.5,1c-0.3,0.3-0.9,0.4-1.6,0.4c-0.7,0-1.5-0.2-2.4-0.6L133.4,177.5
		L133.4,177.5z M148.9,177.4l-0.4-1.2c-0.8,0.4-1.7,0.5-2.6,0.5c-0.9,0-1.6-0.3-2-1s-0.7-1.6-0.7-2.7h5.7c0.2-0.7,0.3-1.3,0.3-1.8
		c0-1-0.3-1.8-0.9-2.4c-0.6-0.6-1.4-0.9-2.5-0.9c-1.3,0-2.3,0.5-3.1,1.4c-0.8,0.9-1.1,2.2-1.1,3.7c0,1.5,0.4,2.8,1.1,3.7
		c0.7,1,1.8,1.5,3.2,1.5C146.9,178.2,148,177.9,148.9,177.4L148.9,177.4L148.9,177.4z M147.5,171.7l-4.2,0c0.1-0.4,0.3-0.9,0.6-1.4
		c0.2-0.3,0.4-0.5,0.8-0.7c0.3-0.2,0.8-0.3,1.3-0.3c0.5,0,0.9,0.2,1.2,0.6c0.3,0.4,0.4,1,0.4,1.7V171.7L147.5,171.7z M157.1,168
		l-1.8,0.2v9.8h1.8V168L157.1,168z M155.3,166c0.2,0.2,0.5,0.4,0.8,0.4c0.3,0,0.6-0.1,0.8-0.4c0.2-0.2,0.3-0.5,0.3-0.8
		s-0.1-0.6-0.3-0.8c-0.2-0.2-0.5-0.3-0.8-0.3c-0.3,0-0.6,0.1-0.8,0.3c-0.2,0.2-0.4,0.5-0.4,0.8S155.1,165.8,155.3,166L155.3,166z
		 M166.7,168.7c-0.4-0.6-1.1-0.9-2-0.9c-0.6,0-1.2,0.1-1.8,0.4c-0.6,0.3-1.1,0.6-1.5,1l-0.2-1.2h-1.5v9.9h1.8v-7.3
		c0.3-0.4,0.7-0.7,1.3-0.9c0.6-0.3,1.1-0.4,1.5-0.4c0.5,0,0.8,0.2,0.9,0.5c0.2,0.3,0.2,0.8,0.2,1.4v6.7h1.8v-6.8
		C167.3,170.1,167.1,169.3,166.7,168.7L166.7,168.7z M180.9,177.4l-0.4-1.2c-0.8,0.4-1.7,0.5-2.6,0.5c-0.9,0-1.6-0.3-2-1
		s-0.7-1.6-0.7-2.7h5.7c0.2-0.7,0.3-1.3,0.3-1.8c0-1-0.3-1.8-0.9-2.4c-0.6-0.6-1.4-0.9-2.5-0.9c-1.3,0-2.3,0.5-3.1,1.4
		c-0.8,0.9-1.1,2.2-1.1,3.7c0,1.5,0.4,2.8,1.1,3.7c0.7,1,1.8,1.5,3.2,1.5C178.9,178.2,179.9,177.9,180.9,177.4L180.9,177.4
		L180.9,177.4z M179.5,171.7l-4.2,0c0.1-0.4,0.3-0.9,0.6-1.4c0.2-0.3,0.4-0.5,0.8-0.7c0.3-0.2,0.8-0.3,1.3-0.3
		c0.5,0,0.9,0.2,1.2,0.6c0.3,0.4,0.4,1,0.4,1.7V171.7L179.5,171.7z M186.4,176.2l-2.2-8.1h-1.9l3.1,9.9h2l3.2-9.8h-1.8L186.4,176.2
		L186.4,176.2z M198.9,177.4l-0.4-1.2c-0.8,0.4-1.7,0.5-2.6,0.5c-0.9,0-1.6-0.3-2-1c-0.5-0.7-0.7-1.6-0.7-2.7h5.7
		c0.2-0.7,0.3-1.3,0.3-1.8c0-1-0.3-1.8-0.9-2.4c-0.6-0.6-1.4-0.9-2.5-0.9c-1.3,0-2.3,0.5-3.1,1.4c-0.8,0.9-1.1,2.2-1.1,3.7
		c0,1.5,0.4,2.8,1.1,3.7c0.7,1,1.8,1.5,3.2,1.5C196.9,178.2,198,177.9,198.9,177.4L198.9,177.4L198.9,177.4z M197.5,171.7l-4.2,0
		c0.1-0.4,0.3-0.9,0.6-1.4c0.2-0.3,0.4-0.5,0.8-0.7c0.3-0.2,0.8-0.3,1.3-0.3c0.5,0,0.9,0.2,1.2,0.6c0.3,0.4,0.4,1,0.4,1.7V171.7
		L197.5,171.7z M203,170.9c0.5-1,1.5-1.5,2.9-1.5c0.2,0,0.4,0,0.5,0l0.4-1.4c-0.2-0.1-0.5-0.1-0.9-0.1c-0.7,0-1.3,0.2-1.8,0.5
		c-0.5,0.4-0.9,0.7-1.2,1.1l-0.2-1.5h-1.5v9.9h1.8V170.9L203,170.9z M207.1,180.7l-0.2,1.2c0.5,0.1,0.9,0.1,1.3,0.1
		c1.1,0,1.9-0.3,2.6-1c0.7-0.7,1.3-1.8,1.8-3.3l3.2-9.7H214l-2.3,8l-2.6-8l-1.9,0.1l3.6,9.8c-0.3,1-0.7,1.7-1.2,2.1
		c-0.4,0.4-1,0.6-1.7,0.6C207.6,180.7,207.3,180.7,207.1,180.7L207.1,180.7L207.1,180.7z M222.9,177.8l-0.3-1.3
		c-0.4,0.1-0.8,0.2-1.2,0.2c-0.4,0-0.7-0.1-0.8-0.2c-0.1-0.1-0.2-0.2-0.2-0.4c0-0.1,0-0.3,0-0.6v-6.1h2.7l0.2-1.4h-2.9v-2.6
		l-1.6,0.3l-0.2,2.3l-1.8,0.1l-0.2,1.2l1.9,0.1v5.9c0,1,0.2,1.8,0.5,2.2c0.3,0.4,1,0.6,2,0.6C221.6,178.2,222.3,178.1,222.9,177.8
		L222.9,177.8L222.9,177.8z M228,168.3c-0.6,0.3-1.1,0.6-1.4,0.9v-5.1l-1.8,0.2v13.6h1.8v-7.3c0.3-0.4,0.7-0.7,1.3-0.9
		c0.5-0.2,1-0.4,1.5-0.4c0.5,0,0.8,0.2,0.9,0.5c0.2,0.3,0.2,0.8,0.2,1.4v6.7h1.8v-6.8c0-1-0.2-1.8-0.6-2.4c-0.4-0.6-1.1-0.9-2-0.9
		C229.1,167.9,228.5,168,228,168.3L228,168.3z M236.6,168l-1.8,0.2v9.8h1.8V168L236.6,168z M234.8,166c0.2,0.2,0.5,0.4,0.8,0.4
		s0.6-0.1,0.8-0.4c0.2-0.2,0.3-0.5,0.3-0.8s-0.1-0.6-0.3-0.8c-0.2-0.2-0.5-0.3-0.8-0.3s-0.6,0.1-0.8,0.3c-0.2,0.2-0.4,0.5-0.4,0.8
		S234.6,165.8,234.8,166L234.8,166z M246.2,168.7c-0.4-0.6-1.1-0.9-2-0.9c-0.6,0-1.2,0.1-1.8,0.4c-0.6,0.3-1.1,0.6-1.5,1l-0.2-1.2
		h-1.5v9.9h1.8v-7.3c0.3-0.4,0.7-0.7,1.3-0.9c0.6-0.3,1.1-0.4,1.5-0.4c0.5,0,0.8,0.2,0.9,0.5c0.2,0.3,0.2,0.8,0.2,1.4v6.7h1.8v-6.8
		C246.8,170.1,246.6,169.3,246.2,168.7L246.2,168.7z M249.9,168.9c-0.6,0.7-0.9,1.5-0.9,2.6c0,0.7,0.1,1.3,0.4,1.9
		c0.3,0.6,0.7,1,1.2,1.3c-0.5,0.7-0.8,1.2-0.8,1.8c0,0.5,0.2,0.9,0.5,1.2c-1.2,0.6-1.8,1.4-1.8,2.5c0,0.8,0.3,1.4,1,1.9
		c0.7,0.4,1.7,0.7,3,0.7c1.3,0,2.4-0.3,3.2-1c0.8-0.6,1.3-1.5,1.3-2.5c0-0.7-0.3-1.3-0.8-1.7c-0.5-0.4-1.2-0.6-2.2-0.6h-1.8
		c-0.7,0-1-0.2-1-0.7c0-0.3,0.1-0.7,0.3-1.1c0.3,0.1,0.7,0.1,1,0.1c1.1,0,2-0.3,2.6-1c0.6-0.7,0.9-1.5,0.9-2.5c0-1-0.2-1.8-0.7-2.4
		c0.9-0.1,1.6-0.2,2-0.3l-0.2-1.1c-1,0.2-2,0.3-3,0.3l-1.6-0.1C251.3,167.9,250.4,168.2,249.9,168.9L249.9,168.9z M254,169.8
		c0.3,0.4,0.4,0.9,0.4,1.7c0,1.4-0.6,2.2-1.9,2.2c-1.3,0-1.9-0.7-1.9-2.2s0.6-2.2,1.9-2.2C253.2,169.2,253.7,169.4,254,169.8
		L254,169.8z M255,178.4c0.2,0.2,0.4,0.4,0.4,0.8c0,0.6-0.2,1.1-0.7,1.4c-0.5,0.3-1.1,0.5-1.9,0.5c-0.8,0-1.4-0.1-1.9-0.3
		c-0.4-0.2-0.7-0.6-0.7-1c0-0.7,0.4-1.3,1.1-1.6h2.4C254.3,178.2,254.8,178.3,255,178.4L255,178.4z M267.9,177.8l-0.3-1.3
		c-0.4,0.1-0.8,0.2-1.2,0.2c-0.4,0-0.7-0.1-0.8-0.2c-0.1-0.1-0.2-0.2-0.2-0.4c0-0.1,0-0.3,0-0.6v-6.1h2.7l0.2-1.4h-2.9v-2.6
		l-1.6,0.3l-0.2,2.3l-1.8,0.1l-0.2,1.2l1.9,0.1v5.9c0,1,0.2,1.8,0.5,2.2c0.3,0.4,1,0.6,2,0.6C266.7,178.2,267.3,178.1,267.9,177.8
		L267.9,177.8L267.9,177.8z M273,168.3c-0.6,0.3-1.1,0.6-1.4,0.9v-5.1l-1.8,0.2v13.6h1.8v-7.3c0.3-0.4,0.7-0.7,1.3-0.9
		c0.5-0.2,1-0.4,1.5-0.4c0.5,0,0.8,0.2,0.9,0.5c0.2,0.3,0.2,0.8,0.2,1.4v6.7h1.8v-6.8c0-1-0.2-1.8-0.6-2.4c-0.4-0.6-1.1-0.9-2-0.9
		C274.1,167.9,273.6,168,273,168.3L273,168.3z M283.6,177.9c0.5-0.2,0.9-0.4,1.2-0.7c0.3,0.7,0.8,1,1.5,1c0.7,0,1.3-0.1,1.7-0.4
		l-0.3-1.1c-0.4,0.1-0.7,0.2-0.9,0.2c-0.3,0-0.5-0.2-0.5-0.7v-4.7c0-1.3-0.3-2.2-0.8-2.7c-0.5-0.5-1.4-0.8-2.7-0.8
		c-0.5,0-1,0.1-1.6,0.2c-0.6,0.1-1.1,0.3-1.5,0.6l0.4,1.2c1-0.4,1.8-0.5,2.6-0.5c0.7,0,1.2,0.1,1.5,0.4c0.3,0.3,0.4,0.8,0.4,1.5v1.5
		c-0.6-0.1-1.3-0.1-2.1-0.1c-0.7,0-1.5,0.2-2.1,0.5c-0.4,0.2-0.7,0.5-0.9,0.8c-0.2,0.4-0.4,0.8-0.4,1.4c0,0.8,0.2,1.5,0.8,2
		c0.5,0.5,1.2,0.7,2,0.7C282.6,178.2,283.1,178.1,283.6,177.9L283.6,177.9z M280.8,175.3c0-1,0.8-1.5,2.3-1.5c0.7,0,1.2,0,1.5,0.1
		v2.3c-0.7,0.5-1.5,0.7-2.3,0.7C281.3,176.8,280.8,176.3,280.8,175.3L280.8,175.3L280.8,175.3z M294.6,177.8l-0.3-1.3
		c-0.4,0.1-0.8,0.2-1.2,0.2c-0.4,0-0.7-0.1-0.8-0.2c-0.1-0.1-0.2-0.2-0.2-0.4c0-0.1,0-0.3,0-0.6v-6.1h2.7l0.2-1.4H292v-2.6l-1.6,0.3
		l-0.2,2.3l-1.8,0.1l-0.2,1.2l1.9,0.1v5.9c0,1,0.2,1.8,0.5,2.2c0.3,0.4,1,0.6,2,0.6C293.4,178.2,294,178.1,294.6,177.8L294.6,177.8
		L294.6,177.8z M305.6,177.8l-0.3-1.3c-0.4,0.1-0.8,0.2-1.2,0.2c-0.4,0-0.7-0.1-0.8-0.2c-0.1-0.1-0.2-0.2-0.2-0.4c0-0.1,0-0.3,0-0.6
		v-6.1h2.7l0.2-1.4H303v-2.6l-1.6,0.3l-0.2,2.3l-1.8,0.1l-0.2,1.2l1.9,0.1v5.9c0,1,0.2,1.8,0.5,2.2c0.3,0.4,1,0.6,2,0.6
		C304.4,178.2,305,178.1,305.6,177.8L305.6,177.8L305.6,177.8z M306.3,180.7l-0.2,1.2c0.5,0.1,0.9,0.1,1.3,0.1c1.1,0,1.9-0.3,2.6-1
		c0.7-0.7,1.3-1.8,1.8-3.3l3.2-9.7h-1.8l-2.3,8l-2.6-8l-1.9,0.1l3.6,9.8c-0.3,1-0.7,1.7-1.2,2.1c-0.4,0.4-1,0.6-1.7,0.6
		C306.8,180.7,306.5,180.7,306.3,180.7L306.3,180.7L306.3,180.7z M318.5,176.4v-6.2c0.8-0.6,1.6-0.9,2.3-0.9c1.3,0,2,1.2,2,3.5
		c0,2.6-0.8,3.9-2.4,3.9C319.7,176.7,319.1,176.6,318.5,176.4L318.5,176.4L318.5,176.4z M318.2,168.1h-1.5v14.3l1.8-0.2v-4.3
		c0.6,0.3,1.2,0.4,1.9,0.4c2.9,0,4.3-1.8,4.3-5.4c0-1.5-0.3-2.7-0.9-3.6c-0.6-0.9-1.4-1.3-2.5-1.3c-1.1,0-2,0.3-2.9,1L318.2,168.1
		L318.2,168.1z M333.7,177.4l-0.4-1.2c-0.8,0.4-1.7,0.5-2.6,0.5c-0.9,0-1.6-0.3-2-1c-0.5-0.7-0.7-1.6-0.7-2.7h5.7
		c0.2-0.7,0.3-1.3,0.3-1.8c0-1-0.3-1.8-0.9-2.4c-0.6-0.6-1.4-0.9-2.5-0.9c-1.3,0-2.3,0.5-3.1,1.4c-0.8,0.9-1.1,2.2-1.1,3.7
		c0,1.5,0.4,2.8,1.1,3.7c0.7,1,1.8,1.5,3.2,1.5C331.8,178.2,332.8,177.9,333.7,177.4L333.7,177.4L333.7,177.4z M332.4,171.7l-4.2,0
		c0.1-0.4,0.3-0.9,0.6-1.4c0.2-0.3,0.4-0.5,0.8-0.7c0.3-0.2,0.8-0.3,1.3-0.3c0.5,0,0.9,0.2,1.2,0.6c0.3,0.4,0.4,1,0.4,1.7V171.7
		L332.4,171.7z"/>
	<path d="M94.4,138c-0.4-0.4-1-0.7-1.5-0.8c-0.6-0.2-1.4-0.2-2.4-0.2h-3.1v13h1.9v-5.1H90c0.4,0,0.8,0,1,0l4,5.4l1.4-1l-3.6-4.7
		c0.5-0.1,1-0.4,1.5-0.7c0.8-0.6,1.2-1.7,1.2-3.1C95.5,139.6,95.2,138.7,94.4,138L94.4,138L94.4,138z M90,143.3h-0.7v-5h1.1
		c1.3,0,2.2,0.2,2.7,0.7c0.4,0.4,0.7,1.1,0.7,1.9s-0.3,1.5-0.8,1.9C92.4,143.2,91.5,143.3,90,143.3L90,143.3L90,143.3z M101.9,149.9
		c0.5-0.2,0.9-0.4,1.2-0.7c0.3,0.7,0.8,1,1.5,1c0.7,0,1.3-0.1,1.7-0.4l-0.3-1.1c-0.4,0.1-0.7,0.2-0.9,0.2c-0.3,0-0.5-0.2-0.5-0.7
		v-4.7c0-1.3-0.3-2.2-0.8-2.7c-0.5-0.5-1.4-0.8-2.7-0.8c-0.5,0-1,0.1-1.6,0.2c-0.6,0.1-1.1,0.3-1.5,0.6l0.4,1.2
		c1-0.4,1.8-0.5,2.6-0.5c0.7,0,1.2,0.1,1.5,0.4c0.3,0.3,0.4,0.8,0.4,1.5v1.5c-0.6-0.1-1.3-0.1-2.1-0.1s-1.4,0.2-2.1,0.5
		c-0.4,0.2-0.7,0.5-0.9,0.8c-0.2,0.4-0.4,0.8-0.4,1.4c0,0.8,0.3,1.5,0.8,2c0.5,0.5,1.2,0.7,2,0.7
		C100.9,150.2,101.4,150.1,101.9,149.9L101.9,149.9z M99.2,147.3c0-1,0.8-1.5,2.3-1.5c0.7,0,1.2,0,1.5,0.1v2.3
		c-0.7,0.5-1.5,0.7-2.3,0.7C99.7,148.8,99.2,148.3,99.2,147.3L99.2,147.3L99.2,147.3z M115.1,142.6c0.4-0.3,0.8-0.6,1.3-0.9
		c0.5-0.2,1-0.4,1.4-0.4c0.5,0,0.8,0.2,0.9,0.5c0.2,0.3,0.2,0.8,0.2,1.4v6.7h1.8v-6.8c0-2.2-0.9-3.3-2.6-3.3c-0.5,0-1.1,0.1-1.8,0.4
		c-0.6,0.3-1.1,0.6-1.5,1c-0.4-1-1.1-1.4-2.3-1.4c-0.6,0-1.1,0.1-1.7,0.4c-0.6,0.3-1.1,0.6-1.4,1l-0.2-1.2h-1.5v9.9h1.8v-7.3
		c0.3-0.4,0.7-0.7,1.2-0.9c0.5-0.2,1-0.4,1.5-0.4c0.5,0,0.8,0.2,0.9,0.5c0.2,0.3,0.2,0.8,0.2,1.4v6.7h1.8v-6.7
		C115.1,143,115.1,142.7,115.1,142.6L115.1,142.6L115.1,142.6z M129.4,144.9c0,2.5-0.8,3.8-2.5,3.8c-0.7,0-1.4-0.1-1.9-0.3v-6.2
		c0.8-0.5,1.6-0.8,2.4-0.8C128.7,141.4,129.4,142.5,129.4,144.9L129.4,144.9L129.4,144.9z M123.3,136.3v13c1,0.6,2.2,0.9,3.6,0.9
		c2.9,0,4.3-1.9,4.3-5.7c0-1.5-0.3-2.6-1-3.4c-0.7-0.8-1.5-1.2-2.5-1.2c-0.5,0-1,0.1-1.5,0.3c-0.5,0.2-0.9,0.4-1.1,0.6v-4.5H123.3
		L123.3,136.3z M133.4,148c0,1.5,0.6,2.2,1.9,2.2c0.8,0,1.4-0.1,2-0.4l-0.3-1.3c-0.4,0.1-0.8,0.2-1.2,0.2c-0.5,0-0.7-0.3-0.7-0.8
		v-11.7h-1.8V148L133.4,148z M142.3,149.9c0.5-0.2,0.9-0.4,1.2-0.7c0.3,0.7,0.8,1,1.5,1c0.7,0,1.3-0.1,1.7-0.4l-0.3-1.1
		c-0.4,0.1-0.6,0.2-0.9,0.2c-0.3,0-0.5-0.2-0.5-0.7v-4.7c0-1.3-0.3-2.2-0.8-2.7c-0.5-0.5-1.4-0.8-2.7-0.8c-0.5,0-1,0.1-1.6,0.2
		c-0.6,0.1-1.1,0.3-1.5,0.6l0.4,1.2c1-0.4,1.8-0.5,2.6-0.5s1.2,0.1,1.5,0.4c0.3,0.3,0.4,0.8,0.4,1.5v1.5c-0.6-0.1-1.3-0.1-2.1-0.1
		c-0.7,0-1.4,0.2-2.1,0.5c-0.4,0.2-0.7,0.5-0.9,0.8c-0.2,0.4-0.4,0.8-0.4,1.4c0,0.8,0.3,1.5,0.8,2s1.2,0.7,2,0.7
		C141.3,150.2,141.8,150.1,142.3,149.9L142.3,149.9z M139.6,147.3c0-1,0.8-1.5,2.3-1.5c0.7,0,1.2,0,1.5,0.1v2.3
		c-0.7,0.5-1.5,0.7-2.3,0.7C140.1,148.8,139.6,148.3,139.6,147.3L139.6,147.3L139.6,147.3z M158.2,144.9c0,2.5-0.8,3.8-2.5,3.8
		c-0.7,0-1.4-0.1-1.9-0.3v-6.2c0.8-0.5,1.6-0.8,2.4-0.8C157.6,141.4,158.2,142.5,158.2,144.9L158.2,144.9L158.2,144.9z M152.1,136.3
		v13c1,0.6,2.2,0.9,3.6,0.9c2.9,0,4.3-1.9,4.3-5.7c0-1.5-0.3-2.6-1-3.4c-0.7-0.8-1.5-1.2-2.5-1.2c-0.5,0-1,0.1-1.5,0.3
		c-0.5,0.2-0.9,0.4-1.1,0.6v-4.5H152.1L152.1,136.3z M169.1,149.4l-0.4-1.2c-0.8,0.4-1.7,0.5-2.6,0.5c-0.9,0-1.6-0.3-2-1
		c-0.5-0.7-0.7-1.6-0.7-2.7h5.7c0.2-0.7,0.3-1.3,0.3-1.8c0-1-0.3-1.8-0.9-2.4c-0.6-0.6-1.4-0.9-2.5-0.9c-1.3,0-2.3,0.5-3.1,1.4
		c-0.8,0.9-1.1,2.2-1.1,3.7c0,1.5,0.4,2.8,1.1,3.7c0.7,1,1.8,1.5,3.2,1.5C167.2,150.2,168.2,149.9,169.1,149.4L169.1,149.4
		L169.1,149.4z M167.8,143.7l-4.2,0c0.1-0.4,0.3-0.9,0.6-1.4c0.2-0.3,0.4-0.5,0.8-0.7c0.3-0.2,0.8-0.3,1.3-0.3
		c0.5,0,0.9,0.2,1.2,0.6c0.3,0.4,0.4,1,0.4,1.7V143.7L167.8,143.7z M172,140.9c-0.6,0.7-0.9,1.5-0.9,2.6c0,0.7,0.1,1.3,0.4,1.9
		c0.3,0.6,0.7,1,1.2,1.3c-0.5,0.6-0.8,1.2-0.8,1.8c0,0.5,0.2,0.9,0.5,1.2c-1.2,0.6-1.8,1.4-1.8,2.5c0,0.8,0.3,1.4,1,1.9
		c0.7,0.4,1.7,0.7,3,0.7c1.3,0,2.4-0.3,3.2-1c0.8-0.6,1.3-1.5,1.3-2.5c0-0.7-0.3-1.3-0.8-1.7c-0.5-0.4-1.2-0.6-2.2-0.6h-1.8
		c-0.7,0-1-0.2-1-0.7c0-0.3,0.1-0.7,0.3-1.1c0.3,0.1,0.7,0.1,1,0.1c1.1,0,2-0.3,2.6-1c0.6-0.7,0.9-1.5,0.9-2.5c0-1-0.2-1.8-0.7-2.4
		c0.9-0.1,1.6-0.2,2-0.3l-0.2-1.1c-1,0.2-2,0.3-3,0.3l-1.6-0.1C173.5,139.9,172.6,140.2,172,140.9L172,140.9z M176.1,141.8
		c0.3,0.4,0.4,0.9,0.4,1.7c0,1.4-0.6,2.2-1.9,2.2c-1.3,0-1.9-0.7-1.9-2.2s0.6-2.2,1.9-2.2C175.3,141.2,175.8,141.4,176.1,141.8
		L176.1,141.8z M177.2,150.4c0.2,0.2,0.4,0.4,0.4,0.8c0,0.6-0.2,1.1-0.7,1.4c-0.5,0.3-1.1,0.5-1.9,0.5c-0.8,0-1.4-0.1-1.9-0.3
		c-0.4-0.2-0.7-0.6-0.7-1c0-0.7,0.4-1.3,1.1-1.6h2.4C176.5,150.2,176.9,150.3,177.2,150.4L177.2,150.4z M184.7,149.9
		c0.5-0.2,0.9-0.4,1.2-0.7c0.3,0.7,0.8,1,1.5,1c0.7,0,1.3-0.1,1.7-0.4l-0.3-1.1c-0.4,0.1-0.6,0.2-0.9,0.2c-0.3,0-0.5-0.2-0.5-0.7
		v-4.7c0-1.3-0.3-2.2-0.8-2.7s-1.4-0.8-2.7-0.8c-0.5,0-1,0.1-1.6,0.2c-0.6,0.1-1.1,0.3-1.5,0.6l0.4,1.2c1-0.4,1.8-0.5,2.6-0.5
		s1.2,0.1,1.5,0.4c0.3,0.3,0.4,0.8,0.4,1.5v1.5c-0.6-0.1-1.3-0.1-2.1-0.1c-0.7,0-1.4,0.2-2.1,0.5c-0.4,0.2-0.7,0.5-0.9,0.8
		c-0.2,0.4-0.4,0.8-0.4,1.4c0,0.8,0.3,1.5,0.8,2c0.5,0.5,1.2,0.7,2,0.7C183.6,150.2,184.2,150.1,184.7,149.9L184.7,149.9z
		 M181.9,147.3c0-1,0.8-1.5,2.3-1.5c0.7,0,1.2,0,1.5,0.1v2.3c-0.7,0.5-1.5,0.7-2.3,0.7C182.4,148.8,181.9,148.3,181.9,147.3
		L181.9,147.3L181.9,147.3z M197.4,140.7c-0.4-0.6-1.1-0.9-2-0.9c-0.6,0-1.2,0.1-1.8,0.4c-0.6,0.3-1.1,0.6-1.5,1l-0.2-1.2h-1.5v9.9
		h1.8v-7.3c0.3-0.4,0.7-0.7,1.3-0.9c0.6-0.3,1.1-0.4,1.5-0.4c0.5,0,0.8,0.2,0.9,0.5c0.2,0.3,0.2,0.8,0.2,1.4v6.7h1.8v-6.8
		C198,142.1,197.8,141.3,197.4,140.7L197.4,140.7z M208.4,149.9c0.5-0.2,0.9-0.4,1.2-0.7c0.3,0.7,0.8,1,1.5,1s1.3-0.1,1.7-0.4
		l-0.3-1.1c-0.4,0.1-0.6,0.2-0.9,0.2c-0.3,0-0.5-0.2-0.5-0.7v-4.7c0-1.3-0.3-2.2-0.8-2.7s-1.4-0.8-2.7-0.8c-0.5,0-1,0.1-1.6,0.2
		c-0.6,0.1-1.1,0.3-1.5,0.6l0.4,1.2c1-0.4,1.8-0.5,2.6-0.5s1.2,0.1,1.5,0.4c0.3,0.3,0.4,0.8,0.4,1.5v1.5c-0.6-0.1-1.3-0.1-2.1-0.1
		c-0.7,0-1.4,0.2-2.1,0.5c-0.4,0.2-0.7,0.5-0.9,0.8c-0.2,0.4-0.4,0.8-0.4,1.4c0,0.8,0.2,1.5,0.8,2c0.5,0.5,1.2,0.7,2,0.7
		C207.3,150.2,207.9,150.1,208.4,149.9L208.4,149.9z M205.6,147.3c0-1,0.8-1.5,2.3-1.5c0.7,0,1.2,0,1.5,0.1v2.3
		c-0.7,0.5-1.5,0.7-2.3,0.7C206.1,148.8,205.6,148.3,205.6,147.3L205.6,147.3L205.6,147.3z M213.6,149.5c0.3,0.2,0.7,0.4,1.2,0.5
		c0.6,0.1,1.1,0.2,1.6,0.2c1.2,0,2.1-0.3,2.7-0.9c0.6-0.6,1-1.3,1-2.2c0-0.6-0.2-1.1-0.5-1.5c-0.3-0.4-0.7-0.7-1.2-0.9
		c-0.5-0.2-0.9-0.4-1.4-0.5c-0.5-0.2-0.9-0.4-1.2-0.6c-0.3-0.3-0.5-0.6-0.5-1c0-0.4,0.2-0.7,0.5-0.9s0.8-0.4,1.4-0.4
		c0.6,0,1.3,0.1,2.1,0.4l0.4-1.3c-0.7-0.4-1.5-0.6-2.6-0.6c-1.1,0-1.9,0.3-2.5,0.8c-0.6,0.5-0.9,1.2-0.9,2.1c0,0.6,0.2,1.1,0.5,1.5
		c0.3,0.4,0.7,0.7,1.2,0.9c0.5,0.2,0.9,0.4,1.4,0.5c0.5,0.2,0.8,0.4,1.2,0.7c0.3,0.3,0.5,0.6,0.5,1c0,0.4-0.2,0.7-0.5,1
		c-0.3,0.3-0.9,0.4-1.6,0.4c-0.7,0-1.5-0.2-2.4-0.6L213.6,149.5L213.6,149.5z M230,149.9c0.5-0.2,0.9-0.4,1.2-0.7
		c0.3,0.7,0.8,1,1.5,1c0.7,0,1.3-0.1,1.7-0.4l-0.3-1.1c-0.4,0.1-0.7,0.2-0.9,0.2c-0.3,0-0.5-0.2-0.5-0.7v-4.7c0-1.3-0.3-2.2-0.8-2.7
		s-1.4-0.8-2.7-0.8c-0.5,0-1,0.1-1.6,0.2c-0.6,0.1-1.1,0.3-1.5,0.6l0.4,1.2c1-0.4,1.8-0.5,2.6-0.5s1.2,0.1,1.5,0.4
		c0.3,0.3,0.4,0.8,0.4,1.5v1.5c-0.6-0.1-1.3-0.1-2.1-0.1c-0.7,0-1.4,0.2-2.1,0.5c-0.4,0.2-0.7,0.5-0.9,0.8c-0.2,0.4-0.4,0.8-0.4,1.4
		c0,0.8,0.2,1.5,0.8,2c0.5,0.5,1.2,0.7,2,0.7C228.9,150.2,229.5,150.1,230,149.9L230,149.9z M227.2,147.3c0-1,0.8-1.5,2.3-1.5
		c0.7,0,1.2,0,1.5,0.1v2.3c-0.7,0.5-1.5,0.7-2.3,0.7C227.7,148.8,227.2,148.3,227.2,147.3L227.2,147.3L227.2,147.3z M239.9,148
		c0,1.5,0.7,2.2,2,2.2c0.8,0,1.4-0.1,2-0.4l-0.3-1.3c-0.4,0.1-0.8,0.2-1.2,0.2c-0.5,0-0.7-0.3-0.7-0.8v-11.7h-1.8V148L239.9,148z
		 M252,149.4l-0.4-1.2c-0.8,0.4-1.7,0.5-2.6,0.5c-0.9,0-1.6-0.3-2-1s-0.7-1.6-0.7-2.7h5.7c0.2-0.7,0.3-1.3,0.3-1.8
		c0-1-0.3-1.8-0.9-2.4c-0.6-0.6-1.4-0.9-2.5-0.9c-1.3,0-2.3,0.5-3.1,1.4c-0.8,0.9-1.1,2.2-1.1,3.7c0,1.5,0.4,2.8,1.1,3.7
		c0.7,1,1.8,1.5,3.2,1.5C250,150.2,251,149.9,252,149.4L252,149.4L252,149.4z M250.6,143.7l-4.2,0c0.1-0.4,0.3-0.9,0.6-1.4
		c0.2-0.3,0.4-0.5,0.8-0.7c0.3-0.2,0.8-0.3,1.3-0.3c0.5,0,0.9,0.2,1.2,0.6s0.4,1,0.4,1.7V143.7L250.6,143.7z M258,149.9
		c0.5-0.2,0.9-0.4,1.2-0.7c0.3,0.7,0.8,1,1.5,1s1.3-0.1,1.7-0.4l-0.3-1.1c-0.4,0.1-0.7,0.2-0.9,0.2c-0.3,0-0.5-0.2-0.5-0.7v-4.7
		c0-1.3-0.3-2.2-0.8-2.7c-0.5-0.5-1.4-0.8-2.7-0.8c-0.5,0-1,0.1-1.6,0.2c-0.6,0.1-1.1,0.3-1.5,0.6l0.4,1.2c1-0.4,1.8-0.5,2.6-0.5
		c0.7,0,1.2,0.1,1.5,0.4c0.3,0.3,0.4,0.8,0.4,1.5v1.5c-0.6-0.1-1.3-0.1-2.1-0.1c-0.7,0-1.5,0.2-2.1,0.5c-0.4,0.2-0.7,0.5-0.9,0.8
		c-0.2,0.4-0.4,0.8-0.4,1.4c0,0.8,0.2,1.5,0.8,2c0.5,0.5,1.2,0.7,2,0.7C256.9,150.2,257.5,150.1,258,149.9L258,149.9z M255.2,147.3
		c0-1,0.8-1.5,2.3-1.5c0.7,0,1.2,0,1.5,0.1v2.3c-0.7,0.5-1.5,0.7-2.3,0.7C255.7,148.8,255.2,148.3,255.2,147.3L255.2,147.3
		L255.2,147.3z M265.5,142.9c0.5-1,1.5-1.5,2.9-1.5c0.2,0,0.4,0,0.5,0l0.4-1.4c-0.2-0.1-0.5-0.1-0.9-0.1c-0.7,0-1.3,0.2-1.8,0.5
		c-0.5,0.4-0.9,0.7-1.2,1.1l-0.2-1.5h-1.5v9.9h1.8V142.9L265.5,142.9z M277.8,140.7c-0.4-0.6-1.1-0.9-2-0.9c-0.6,0-1.2,0.1-1.8,0.4
		c-0.6,0.3-1.1,0.6-1.5,1l-0.2-1.2h-1.5v9.9h1.8v-7.3c0.3-0.4,0.7-0.7,1.3-0.9c0.6-0.3,1.1-0.4,1.5-0.4c0.5,0,0.8,0.2,0.9,0.5
		c0.2,0.3,0.2,0.8,0.2,1.4v6.7h1.8v-6.8C278.3,142.1,278.1,141.3,277.8,140.7L277.8,140.7z M282.7,140l-1.8,0.2v9.8h1.8V140
		L282.7,140z M280.9,138c0.2,0.2,0.5,0.4,0.8,0.4c0.3,0,0.6-0.1,0.8-0.4c0.2-0.2,0.3-0.5,0.3-0.8s-0.1-0.6-0.3-0.8
		c-0.2-0.2-0.5-0.3-0.8-0.3c-0.3,0-0.6,0.1-0.8,0.3c-0.2,0.2-0.4,0.5-0.4,0.8S280.7,137.8,280.9,138L280.9,138z M292.3,140.7
		c-0.4-0.6-1.1-0.9-2-0.9c-0.6,0-1.2,0.1-1.8,0.4c-0.6,0.3-1.1,0.6-1.5,1l-0.2-1.2h-1.5v9.9h1.8v-7.3c0.3-0.4,0.7-0.7,1.3-0.9
		c0.6-0.3,1.1-0.4,1.5-0.4c0.5,0,0.8,0.2,0.9,0.5c0.2,0.3,0.2,0.8,0.2,1.4v6.7h1.8v-6.8C292.8,142.1,292.6,141.3,292.3,140.7
		L292.3,140.7z M295.9,140.9c-0.6,0.7-0.9,1.5-0.9,2.6c0,0.7,0.1,1.3,0.4,1.9c0.3,0.6,0.7,1,1.2,1.3c-0.5,0.6-0.8,1.2-0.8,1.8
		c0,0.5,0.2,0.9,0.5,1.2c-1.2,0.6-1.8,1.4-1.8,2.5c0,0.8,0.3,1.4,1,1.9c0.7,0.4,1.7,0.7,3,0.7c1.3,0,2.4-0.3,3.2-1
		c0.8-0.6,1.3-1.5,1.3-2.5c0-0.7-0.3-1.3-0.8-1.7c-0.5-0.4-1.2-0.6-2.2-0.6h-1.8c-0.7,0-1-0.2-1-0.7c0-0.3,0.1-0.7,0.3-1.1
		c0.3,0.1,0.7,0.1,1,0.1c1.1,0,2-0.3,2.6-1c0.6-0.7,0.9-1.5,0.9-2.5c0-1-0.2-1.8-0.7-2.4c0.9-0.1,1.6-0.2,2-0.3l-0.2-1.1
		c-1,0.2-2,0.3-3,0.3l-1.6-0.1C297.4,139.9,296.5,140.2,295.9,140.9L295.9,140.9z M300,141.8c0.3,0.4,0.4,0.9,0.4,1.7
		c0,1.4-0.6,2.2-1.9,2.2c-1.3,0-1.9-0.7-1.9-2.2s0.6-2.2,1.9-2.2C299.3,141.2,299.8,141.4,300,141.8L300,141.8z M301.1,150.4
		c0.2,0.2,0.4,0.4,0.4,0.8c0,0.6-0.2,1.1-0.7,1.4c-0.5,0.3-1.1,0.5-1.9,0.5c-0.8,0-1.4-0.1-1.9-0.3c-0.4-0.2-0.7-0.6-0.7-1
		c0-0.7,0.4-1.3,1.1-1.6h2.4C300.4,150.2,300.9,150.3,301.1,150.4L301.1,150.4z"/>
	<path d="M81.8,138.7l-4.8,5v1.3l4.8,5l1.6-1.4l-4.1-4.3l4.1-4.3L81.8,138.7L81.8,138.7z M75.9,138.7l-4.8,5v1.3l4.8,5l1.6-1.4
		l-4.2-4.3l4.2-4.3L75.9,138.7L75.9,138.7z"/>
	<path d="M320.7,317.1l1.6,1.4l4.8-5v-1.3l-4.8-5l-1.6,1.4l4.1,4.3L320.7,317.1L320.7,317.1z M326.6,317.1l1.6,1.4l4.8-5v-1.3
		l-4.8-5l-1.6,1.4l4.2,4.3L326.6,317.1L326.6,317.1z"/>
	<path d="M58.6,439.2l0.6,17.1h3.2l-1.1-24h-4L50.7,450l-6.6-17.8h-4l-1.1,24h3.2l0.6-17.1c0-0.5,0-1,0-1.5s0-1,0-1.5l6.6,17.5H52
		l6.6-17.5c0,0.5,0,1,0,1.5S58.6,438.7,58.6,439.2L58.6,439.2L58.6,439.2z M74.7,456.2c0.9-0.3,1.7-0.8,2.2-1.3
		c0.6,1.2,1.5,1.8,2.8,1.8s2.4-0.3,3.2-0.8l-0.5-2c-0.7,0.2-1.2,0.3-1.6,0.3c-0.6,0-0.9-0.4-0.9-1.3v-8.7c0-2.4-0.5-4.1-1.4-5.1
		c-1-1-2.6-1.5-4.9-1.5c-0.8,0-1.8,0.1-3,0.4c-1.1,0.3-2.1,0.6-2.8,1l0.8,2.3c1.8-0.6,3.4-1,4.7-1c1.3,0,2.2,0.3,2.7,0.8
		c0.5,0.5,0.7,1.5,0.7,2.9v2.8c-1.2-0.1-2.4-0.2-3.8-0.2c-1.4,0-2.7,0.3-3.9,0.9c-0.7,0.3-1.3,0.9-1.7,1.5c-0.4,0.7-0.6,1.5-0.6,2.6
		c0,1.5,0.5,2.8,1.4,3.7c0.9,0.9,2.2,1.4,3.7,1.4C72.8,456.7,73.8,456.5,74.7,456.2L74.7,456.2z M69.6,451.4c0-1.9,1.4-2.8,4.2-2.8
		c1.3,0,2.2,0,2.8,0.1v4.2c-1.3,0.9-2.8,1.3-4.3,1.3C70.6,454.2,69.6,453.2,69.6,451.4L69.6,451.4L69.6,451.4z M89.3,443.3
		c1-1.9,2.7-2.8,5.4-2.8c0.4,0,0.7,0,0.9,0l0.6-2.6c-0.4-0.1-0.9-0.2-1.6-0.2c-1.3,0-2.4,0.3-3.4,1c-1,0.7-1.7,1.4-2.1,2.1l-0.4-2.7
		h-2.7v18.2h3.2V443.3L89.3,443.3z M109.7,456l-0.6-2.4c-0.8,0.3-1.5,0.4-2.3,0.4s-1.3-0.1-1.5-0.3c-0.2-0.2-0.4-0.4-0.4-0.7
		c0-0.3-0.1-0.6-0.1-1.1v-11.3h5l0.3-2.6h-5.3v-4.9l-2.9,0.5l-0.3,4.3l-3.3,0.3l-0.3,2.1l3.6,0.2v10.9c0,1.9,0.3,3.2,0.9,4
		c0.6,0.8,1.8,1.2,3.7,1.2C107.4,456.7,108.5,456.5,109.7,456L109.7,456L109.7,456z M117.1,437.9l-3.3,0.3v18.1h3.3V437.9
		L117.1,437.9z M119,429.1l-5.8,4.4l1.3,2l6.2-3.7L119,429.1L119,429.1z M135.5,439.3c-0.7-1.1-2-1.6-3.8-1.6
		c-1.1,0-2.2,0.3-3.3,0.8c-1.1,0.5-2,1.1-2.7,1.8l-0.4-2.2h-2.7v18.2h3.2v-13.4c0.6-0.7,1.4-1.2,2.4-1.7c1-0.5,2-0.7,2.8-0.7
		c0.9,0,1.5,0.3,1.7,0.9c0.3,0.6,0.4,1.5,0.4,2.6v12.3h3.2v-12.5C136.6,441.8,136.2,440.3,135.5,439.3L135.5,439.3z M162.1,445.2
		c-0.7-0.6-1.3-1.1-1.9-1.5c-0.6-0.4-1.5-0.9-2.8-1.6c-1.2-0.7-2.3-1.3-3-1.9c-0.8-0.6-1.2-1.4-1.2-2.3s0.3-1.6,1-2.2
		c0.7-0.6,1.7-0.8,3.1-0.8c1.4,0,3,0.3,4.8,1l0.9-2.9c-2.1-0.8-4.1-1.2-6.1-1.2c-2,0-3.7,0.6-5,1.7c-1.4,1.1-2.1,2.6-2.1,4.6
		c0,1.9,0.6,3.4,1.8,4.5c0.6,0.6,1.2,1,1.7,1.3c0.5,0.3,1.4,0.8,2.8,1.5c1.4,0.7,2.5,1.4,3.4,2.1c0.9,0.7,1.3,1.6,1.3,2.7
		c0,1.1-0.4,1.9-1.2,2.6c-0.8,0.7-2,1-3.5,1c-1.6,0-3.5-0.5-5.9-1.4l-0.9,3.1c0.8,0.4,1.9,0.7,3.3,1c1.4,0.3,2.7,0.4,3.9,0.4
		c2.3,0,4.1-0.6,5.5-1.9c1.4-1.3,2.1-2.9,2.1-4.8C164.1,448,163.5,446.4,162.1,445.2L162.1,445.2L162.1,445.2z M182.9,447.2
		c0-3.3-0.7-5.7-2-7.2c-1.3-1.5-3.1-2.3-5.4-2.3c-2.3,0-4.1,0.8-5.5,2.3c-1.4,1.5-2.1,4-2.1,7.3c0,3.3,0.7,5.7,2,7.2
		c1.3,1.5,3.1,2.3,5.4,2.3s4.1-0.8,5.5-2.3C182.2,452.9,182.9,450.5,182.9,447.2L182.9,447.2z M178.5,441.8c0.7,1,1.1,2.7,1.1,5.2
		c0,2.5-0.4,4.3-1.2,5.4c-0.8,1.1-1.8,1.6-3,1.6c-2.8,0-4.2-2.3-4.2-6.9c0-4.6,1.4-6.9,4.2-6.9C176.8,440.3,177.8,440.8,178.5,441.8
		L178.5,441.8z M201.4,442.7c0.6-0.6,1.4-1.1,2.4-1.6c0.9-0.5,1.8-0.7,2.7-0.7c0.8,0,1.4,0.3,1.7,0.9c0.3,0.6,0.4,1.5,0.4,2.6v12.3
		h3.2v-12.5c0-4.1-1.6-6.1-4.8-6.1c-1,0-2.1,0.3-3.2,0.8c-1.2,0.6-2.1,1.2-2.8,1.8c-0.7-1.8-2.1-2.7-4.3-2.7c-1,0-2.1,0.3-3.2,0.8
		c-1.1,0.5-2,1.1-2.6,1.8l-0.4-2.2h-2.7v18.2h3.2v-13.4c0.6-0.7,1.3-1.3,2.3-1.7c1-0.5,1.9-0.7,2.8-0.7c0.9,0,1.5,0.3,1.7,0.9
		c0.3,0.6,0.4,1.5,0.4,2.6v12.3h3.2v-12.3C201.4,443.4,201.4,443,201.4,442.7L201.4,442.7L201.4,442.7z M230.9,442.7
		c0.6-0.6,1.4-1.1,2.4-1.6c0.9-0.5,1.8-0.7,2.7-0.7c0.8,0,1.4,0.3,1.7,0.9c0.3,0.6,0.4,1.5,0.4,2.6v12.3h3.2v-12.5
		c0-4.1-1.6-6.1-4.8-6.1c-1,0-2.1,0.3-3.2,0.8c-1.2,0.6-2.1,1.2-2.8,1.8c-0.7-1.8-2.1-2.7-4.3-2.7c-1,0-2.1,0.3-3.2,0.8
		c-1.1,0.5-2,1.1-2.6,1.8L220,438h-2.7v18.2h3.2v-13.4c0.6-0.7,1.3-1.3,2.3-1.7c1-0.5,1.9-0.7,2.8-0.7c0.9,0,1.5,0.3,1.7,0.9
		c0.3,0.6,0.4,1.5,0.4,2.6v12.3h3.2v-12.3C231,443.4,231,443,230.9,442.7L230.9,442.7L230.9,442.7z M253.7,456.2
		c0.9-0.3,1.7-0.8,2.2-1.3c0.6,1.2,1.5,1.8,2.8,1.8c1.3,0,2.4-0.3,3.2-0.8l-0.5-2c-0.7,0.2-1.2,0.3-1.6,0.3c-0.6,0-0.9-0.4-0.9-1.3
		v-8.7c0-2.4-0.5-4.1-1.4-5.1c-1-1-2.6-1.5-4.9-1.5c-0.8,0-1.8,0.1-3,0.4s-2.1,0.6-2.8,1l0.8,2.3c1.8-0.6,3.4-1,4.7-1
		c1.3,0,2.2,0.3,2.7,0.8c0.5,0.5,0.7,1.5,0.7,2.9v2.8c-1.2-0.1-2.4-0.2-3.8-0.2c-1.4,0-2.7,0.3-3.9,0.9c-0.7,0.3-1.3,0.9-1.7,1.5
		c-0.4,0.7-0.6,1.5-0.6,2.6c0,1.5,0.5,2.8,1.4,3.7c0.9,0.9,2.2,1.4,3.7,1.4C251.8,456.7,252.8,456.5,253.7,456.2L253.7,456.2z
		 M248.6,451.4c0-1.9,1.4-2.8,4.2-2.8c1.3,0,2.2,0,2.8,0.1v4.2c-1.3,0.9-2.8,1.3-4.3,1.3C249.5,454.2,248.6,453.2,248.6,451.4
		L248.6,451.4L248.6,451.4z M268.3,443.3c1-1.9,2.7-2.8,5.4-2.8c0.4,0,0.7,0,0.9,0l0.6-2.6c-0.4-0.1-0.9-0.2-1.6-0.2
		c-1.3,0-2.4,0.3-3.4,1c-1,0.7-1.7,1.4-2.1,2.1l-0.4-2.7h-2.7v18.2h3.2V443.3L268.3,443.3z M286.9,456.1c1-0.4,1.9-0.9,2.6-1.5
		l0.4,1.9h2.6v-18.4h-3.2v14.1c-0.6,0.5-1.3,0.9-2.2,1.2c-0.9,0.3-1.8,0.5-2.8,0.5c-0.9,0-1.6-0.3-1.9-0.8c-0.3-0.6-0.5-1.4-0.5-2.6
		V438h-3.2v12.5c0,2,0.4,3.5,1.2,4.6c0.8,1.1,2.1,1.6,4.1,1.6C284.9,456.7,285.9,456.5,286.9,456.1L286.9,456.1z M299,439.5
		c-1.1,1.2-1.6,2.8-1.6,4.7c0,1.3,0.3,2.4,0.8,3.4s1.3,1.8,2.3,2.4c-0.9,1.2-1.4,2.3-1.4,3.3s0.3,1.7,0.9,2.2
		c-2.2,1.2-3.3,2.7-3.3,4.5c0,1.5,0.6,2.6,1.9,3.5s3.1,1.2,5.5,1.2c2.4,0,4.4-0.6,5.9-1.8c1.5-1.2,2.3-2.7,2.3-4.7
		c0-1.4-0.5-2.4-1.4-3.2c-1-0.8-2.3-1.2-4-1.2h-3.3c-1.3,0-1.9-0.4-1.9-1.2c0-0.6,0.2-1.2,0.6-2.1c0.6,0.1,1.2,0.2,1.8,0.2
		c2.1,0,3.7-0.6,4.8-1.9c1.1-1.2,1.7-2.7,1.7-4.6c0-1.8-0.5-3.3-1.4-4.4c1.6-0.2,2.9-0.4,3.8-0.6l-0.4-2c-1.9,0.3-3.8,0.5-5.6,0.5
		l-3-0.2C301.7,437.7,300.1,438.3,299,439.5L299,439.5z M306.6,441.1c0.5,0.7,0.8,1.7,0.8,3.1c0,2.7-1.2,4-3.5,4s-3.5-1.3-3.5-4
		c0-2.7,1.2-4,3.5-4C305.1,440.2,306,440.5,306.6,441.1L306.6,441.1z M308.5,457.2c0.5,0.3,0.7,0.8,0.7,1.4c0,1.1-0.4,2-1.3,2.6
		c-0.9,0.6-2.1,1-3.6,1s-2.7-0.2-3.5-0.6c-0.8-0.4-1.2-1.1-1.2-1.9c0-1.4,0.7-2.3,2-2.9h4.4C307.2,456.7,308.1,456.9,308.5,457.2
		L308.5,457.2z M323.1,456.2c0.9-0.3,1.7-0.8,2.2-1.3c0.6,1.2,1.5,1.8,2.8,1.8c1.3,0,2.4-0.3,3.2-0.8l-0.5-2
		c-0.7,0.2-1.2,0.3-1.6,0.3c-0.6,0-0.9-0.4-0.9-1.3v-8.7c0-2.4-0.5-4.1-1.4-5.1c-1-1-2.6-1.5-4.9-1.5c-0.8,0-1.8,0.1-3,0.4
		c-1.1,0.3-2.1,0.6-2.8,1l0.8,2.3c1.8-0.6,3.4-1,4.7-1s2.2,0.3,2.7,0.8c0.5,0.5,0.7,1.5,0.7,2.9v2.8c-1.2-0.1-2.4-0.2-3.8-0.2
		c-1.4,0-2.7,0.3-3.9,0.9c-0.7,0.3-1.3,0.9-1.7,1.5c-0.4,0.7-0.6,1.5-0.6,2.6c0,1.5,0.5,2.8,1.4,3.7c0.9,0.9,2.2,1.4,3.7,1.4
		C321.1,456.7,322.1,456.5,323.1,456.2L323.1,456.2z M318,451.4c0-1.9,1.4-2.8,4.2-2.8c1.3,0,2.2,0,2.8,0.1v4.2
		c-1.3,0.9-2.8,1.3-4.3,1.3C318.9,454.2,318,453.2,318,451.4L318,451.4L318,451.4z"/>
</g>
</svg>
