<svg id="Ebene_3_Kopie" data-name="Ebene 3 Kopie" xmlns="http://www.w3.org/2000/svg" viewBox="0 0 375 600"><defs><style>.cls-1{fill:#fff;}</style></defs><title>Zeichenfläche 1</title><path class="cls-1" d="M22.82,125h18.4l6.58,21.4q.68,1.93,1.41,4.5t1.45,5.33q.72,2.76,1.35,5.56T53,167h.48q.39-2.61,1.12-5.66c.48-2,1-4,1.45-5.91s1-3.66,1.4-5.28.81-2.87,1.07-3.77L64.94,125h18.4l4.35,61H73.94l-1.06-20.62c-.13-1.94-.23-4-.29-6.35s-.11-4.63-.15-7,0-4.74,0-7.06v-6.39h-.29q-.69,3.19-1.51,6.58c-.54,2.26-1.11,4.5-1.69,6.73s-1.16,4.39-1.74,6.49-1.16,4-1.75,5.76L58.65,186h-11l-7.07-21.79c-.58-1.8-1.16-3.76-1.74-5.85s-1.15-4.26-1.7-6.49-1.08-4.47-1.59-6.73-1-4.45-1.36-6.58h-.29q.09,3.09,0,6.73c0,2.42-.08,4.84-.15,7.26s-.14,4.74-.24,7-.18,4.18-.24,5.86L32.21,186H18.66Z"/><path class="cls-1" d="M125.91,139.52h14.33V186H129.69l-1.46-5h-.38a25.29,25.29,0,0,1-2.33,2,17.61,17.61,0,0,1-3.24,2,20.35,20.35,0,0,1-4.31,1.5,23.56,23.56,0,0,1-5.52.58q-7.55,0-11.81-4.16t-4.26-12.3V139.52h14.33v29.92c0,2.39.59,4.15,1.79,5.28a6.42,6.42,0,0,0,4.6,1.69,10.09,10.09,0,0,0,5.57-1.4,11.22,11.22,0,0,0,3.24-2.95Z"/><path class="cls-1" d="M163.48,170.9V186H149.24V116.77h14.24v40.38L178,139.52h17.33l-17.52,19.56L196.11,186H179.26L167,167.31Z"/><path class="cls-1" d="M230.68,149.79H218.77v19.65c0,2.13.47,3.62,1.41,4.46a5.65,5.65,0,0,0,3.92,1.26,19.54,19.54,0,0,0,3.87-.39,8.79,8.79,0,0,0,3-1.07l2.13,9.78a23.2,23.2,0,0,1-5,1.7A29.64,29.64,0,0,1,221,186q-9,0-12.73-3.49T204.54,172V149.79h-7.26V139.52h7.26V125.39h14.23v14.13h11.91Z"/><path class="cls-1" d="M238.53,143.59a38.2,38.2,0,0,1,9-3.73,37.73,37.73,0,0,1,10.22-1.4q8.61,0,13.84,4.16t5.23,13.27V186H265.84l-1.26-4.65h-.39a14.15,14.15,0,0,1-5.37,4.12,19.11,19.11,0,0,1-8.09,1.59,18.75,18.75,0,0,1-6.92-1.16,13.9,13.9,0,0,1-4.89-3.1,12.85,12.85,0,0,1-2.95-4.59,15.75,15.75,0,0,1-1-5.67,13.07,13.07,0,0,1,1.79-7,14.17,14.17,0,0,1,4.84-4.74,23.17,23.17,0,0,1,7.17-2.72,42.24,42.24,0,0,1,8.76-.87h4.84v-2.51a4.73,4.73,0,0,0-1.84-4,8.43,8.43,0,0,0-5.23-1.41,19.2,19.2,0,0,0-5.71.87,32,32,0,0,0-6.19,2.81ZM262.45,166l-3.2.09a21.8,21.8,0,0,0-4.55.58,10.23,10.23,0,0,0-2.95,1.22,4.27,4.27,0,0,0-1.6,1.74,4.83,4.83,0,0,0-.48,2.08c0,2,.59,3.37,1.79,4.12a7.65,7.65,0,0,0,4.11,1.11,7,7,0,0,0,4.22-1.36,8,8,0,0,0,2.66-3Z"/><path class="cls-1" d="M33.67,212l8,25.47q1.45,4.64,3.1,10.4t2.91,11.57H48c.83-3.87,1.79-7.71,2.85-11.52S53,240.6,54,237.37L61.94,212H77L56,273H39.67L18.08,212Z"/><path class="cls-1" d="M78.18,230.59a38.38,38.38,0,0,1,9-3.73,37.73,37.73,0,0,1,10.22-1.4q8.61,0,13.84,4.16t5.23,13.27V273H105.49l-1.26-4.65h-.39a14.15,14.15,0,0,1-5.37,4.12,19.11,19.11,0,0,1-8.09,1.59,18.75,18.75,0,0,1-6.92-1.16,13.9,13.9,0,0,1-4.89-3.1,13,13,0,0,1-2.95-4.59,15.75,15.75,0,0,1-1-5.67,13.07,13.07,0,0,1,1.79-7,14.17,14.17,0,0,1,4.84-4.74,23.27,23.27,0,0,1,7.17-2.72,42.24,42.24,0,0,1,8.76-.87H102v-2.51a4.73,4.73,0,0,0-1.84-4,8.42,8.42,0,0,0-5.22-1.41,19.22,19.22,0,0,0-5.72.87A32,32,0,0,0,83,240ZM102.1,253l-3.19.09a21.82,21.82,0,0,0-4.56.58,10.23,10.23,0,0,0-2.95,1.22,4.34,4.34,0,0,0-1.6,1.74,4.83,4.83,0,0,0-.48,2.08c0,2,.6,3.37,1.79,4.12a7.66,7.66,0,0,0,4.12,1.11,7,7,0,0,0,4.21-1.36,7.9,7.9,0,0,0,2.66-3Z"/><path class="cls-1" d="M125.38,230.59a38.78,38.78,0,0,1,19.17-5.13q8.61,0,13.84,4.16t5.23,13.27V273H152.68l-1.26-4.65H151a14.27,14.27,0,0,1-5.38,4.12,19.06,19.06,0,0,1-8.08,1.59,18.77,18.77,0,0,1-6.93-1.16,13.9,13.9,0,0,1-4.89-3.1,13,13,0,0,1-3-4.59,15.75,15.75,0,0,1-1-5.67,13,13,0,0,1,1.8-7,14,14,0,0,1,4.84-4.74,23.11,23.11,0,0,1,7.16-2.72,42.31,42.31,0,0,1,8.76-.87h4.85v-2.51a4.76,4.76,0,0,0-1.84-4,8.45,8.45,0,0,0-5.23-1.41,19.15,19.15,0,0,0-5.71.87,32.06,32.06,0,0,0-6.2,2.81ZM149.29,253l-3.19.09a21.62,21.62,0,0,0-4.55.58,10.19,10.19,0,0,0-3,1.22,4.24,4.24,0,0,0-1.59,1.74,4.7,4.7,0,0,0-.49,2.08c0,2,.6,3.37,1.79,4.12a7.68,7.68,0,0,0,4.12,1.11,7,7,0,0,0,4.21-1.36,7.82,7.82,0,0,0,2.66-3Z"/><path class="cls-1" d="M186.38,273H172.05V226.52h11.13l1.65,5.81a24,24,0,0,1,7-5,19.32,19.32,0,0,1,8.42-1.84q7.84,0,12,4.26t4.16,12.49V273H202.06V243.66a8.28,8.28,0,0,0-1.6-5.37,5.67,5.67,0,0,0-4.69-2,10.54,10.54,0,0,0-4.89,1.36,15.54,15.54,0,0,0-4.5,3.58Z"/><path class="cls-1" d="M232.82,217.42a7.28,7.28,0,0,1-5.61-2.08,7.32,7.32,0,0,1,0-10,8.58,8.58,0,0,1,11.14-.05,6.92,6.92,0,0,1,2,5,7,7,0,0,1-1.94,5A7.42,7.42,0,0,1,232.82,217.42ZM225.66,273V226.52H240V273Z"/><path class="cls-1" d="M25,345.32l3.16,10c.38,1.22.78,2.58,1.22,4.09s.81,3,1.14,4.56h.11c.33-1.53.71-3,1.13-4.54s.83-2.88,1.24-4.15l3.12-10H42l-8.26,24H27.34l-8.5-24Z"/><path class="cls-1" d="M47,347.45a2.87,2.87,0,0,1-2.21-.82,2.88,2.88,0,0,1,0-3.92,3.37,3.37,0,0,1,4.38,0,2.93,2.93,0,0,1,0,4A2.88,2.88,0,0,1,47,347.45ZM44.2,369.32V351h5.64v18.28Z"/><path class="cls-1" d="M70.32,361.82H58.51V362A3,3,0,0,0,60,364.75a7.28,7.28,0,0,0,3.73.87,11.15,11.15,0,0,0,2.74-.3,9,9,0,0,0,2-.72l1,3.88a12.75,12.75,0,0,1-2.61.88,16.94,16.94,0,0,1-3.86.38,13.84,13.84,0,0,1-3.91-.55,9.29,9.29,0,0,1-3.24-1.7,8.22,8.22,0,0,1-2.21-2.89,9.94,9.94,0,0,1-.82-4.19,11.5,11.5,0,0,1,.67-4,9,9,0,0,1,1.89-3.11,8.36,8.36,0,0,1,2.91-2,9.67,9.67,0,0,1,3.75-.7,8.07,8.07,0,0,1,6,2.28,8.92,8.92,0,0,1,2.25,6.52ZM64.57,358a5.3,5.3,0,0,0-.15-1.26,3.72,3.72,0,0,0-.48-1.09,2.56,2.56,0,0,0-.84-.76,2.5,2.5,0,0,0-1.24-.28,2.91,2.91,0,0,0-2.21.93,4.23,4.23,0,0,0-1,2.53Z"/><path class="cls-1" d="M73.39,369.32V342.08H79v27.24Z"/><path class="cls-1" d="M94.29,355.72a11.43,11.43,0,0,0-2.17-.78,9.13,9.13,0,0,0-2.21-.29,3.22,3.22,0,0,0-1.6.35,1,1,0,0,0-.61.95,1.34,1.34,0,0,0,.59,1.09,8.07,8.07,0,0,0,2.34.93l1.14.34a7.38,7.38,0,0,1,3.47,2,4.85,4.85,0,0,1,1.18,3.37,5.44,5.44,0,0,1-.57,2.5,5.52,5.52,0,0,1-1.62,1.92,7.53,7.53,0,0,1-2.51,1.22,11.86,11.86,0,0,1-3.26.42A16.25,16.25,0,0,1,85,369.4a12.72,12.72,0,0,1-2.8-1l1.22-4.08a13.6,13.6,0,0,0,2.31.93,8.5,8.5,0,0,0,2.45.36,3.66,3.66,0,0,0,2-.41,1.19,1.19,0,0,0,.59-1,1.26,1.26,0,0,0-.13-.6,1.44,1.44,0,0,0-.48-.47,4.27,4.27,0,0,0-1-.44l-1.62-.51-1.18-.35a6.59,6.59,0,0,1-3.27-2,6,6,0,0,1-.54-5.75,5.36,5.36,0,0,1,1.43-1.83,6.84,6.84,0,0,1,2.29-1.22,10.1,10.1,0,0,1,3.1-.43,15.21,15.21,0,0,1,3.26.32,13,13,0,0,1,2.72.89Z"/><path class="cls-1" d="M115.7,361.82H103.89V362a3,3,0,0,0,1.48,2.78,7.34,7.34,0,0,0,3.74.87,11.2,11.2,0,0,0,2.74-.3,9,9,0,0,0,2-.72l1,3.88a13.19,13.19,0,0,1-2.61.88,17,17,0,0,1-3.87.38,13.82,13.82,0,0,1-3.9-.55,9.29,9.29,0,0,1-3.24-1.7A8.11,8.11,0,0,1,99,364.6a9.94,9.94,0,0,1-.82-4.19,11.27,11.27,0,0,1,.67-4,8.81,8.81,0,0,1,1.89-3.11,8.36,8.36,0,0,1,2.91-2,9.67,9.67,0,0,1,3.75-.7,8.07,8.07,0,0,1,6,2.28,8.92,8.92,0,0,1,2.25,6.52ZM110,358a4.84,4.84,0,0,0-.16-1.26,3.46,3.46,0,0,0-.47-1.09,2.56,2.56,0,0,0-.84-.76,2.52,2.52,0,0,0-1.24-.28,2.91,2.91,0,0,0-2.21.93,4.17,4.17,0,0,0-1,2.53Z"/><path class="cls-1" d="M121.66,347.45a2.87,2.87,0,0,1-2.21-.82,2.8,2.8,0,0,1-.76-2,2.75,2.75,0,0,1,.78-2,3.37,3.37,0,0,1,4.38,0,2.93,2.93,0,0,1,0,4A2.88,2.88,0,0,1,121.66,347.45Zm-2.82,21.87V351h5.64v18.28Z"/><path class="cls-1" d="M139.72,355.07H135v7.74a2.28,2.28,0,0,0,.55,1.75,2.25,2.25,0,0,0,1.55.49,7.91,7.91,0,0,0,1.52-.15,3.41,3.41,0,0,0,1.18-.42l.84,3.85a9.24,9.24,0,0,1-2,.67,12,12,0,0,1-2.8.32q-3.54,0-5-1.37a5.41,5.41,0,0,1-1.47-4.15v-8.73h-2.86v-4h2.86v-5.57H135V351h4.69Z"/><path class="cls-1" d="M145.72,347.45a2.87,2.87,0,0,1-2.21-.82,2.8,2.8,0,0,1-.76-2,2.75,2.75,0,0,1,.78-2,3.37,3.37,0,0,1,4.38,0,2.93,2.93,0,0,1,0,4A2.88,2.88,0,0,1,145.72,347.45Zm-2.82,21.87V351h5.64v18.28Z"/><path class="cls-1" d="M152.09,357.32a6,6,0,0,1,.61-2.72,6.37,6.37,0,0,1,1.69-2.14,8,8,0,0,1,2.56-1.37,10.27,10.27,0,0,1,3.22-.47,10.43,10.43,0,0,1,1.48.11,11.79,11.79,0,0,1,1.53.31H171v3.46h-1.76l-2.13-.34a5,5,0,0,1,.71,1.45,5.57,5.57,0,0,1,.28,1.75,6.44,6.44,0,0,1-.53,2.63A6,6,0,0,1,166,362a7.25,7.25,0,0,1-2.52,1.36,11.2,11.2,0,0,1-3.35.47,6.8,6.8,0,0,1-.8,0,6.63,6.63,0,0,1-.76-.11,1.78,1.78,0,0,0-.5.42,1,1,0,0,0-.23.69,1,1,0,0,0,.37.79,2.36,2.36,0,0,0,1.46.31h3.85a11.8,11.8,0,0,1,2.74.3,5.82,5.82,0,0,1,2.16,1,4.54,4.54,0,0,1,1.39,1.77,6.24,6.24,0,0,1,.49,2.61,5.42,5.42,0,0,1-.72,2.74,6.77,6.77,0,0,1-2,2.17,10.25,10.25,0,0,1-3.2,1.43,16,16,0,0,1-4.17.51,12.89,12.89,0,0,1-6.71-1.48,4.7,4.7,0,0,1-2.44-4.23,3.19,3.19,0,0,1,.82-2.15,5.45,5.45,0,0,1,2.31-1.47,4.45,4.45,0,0,1-1-1.05,2.94,2.94,0,0,1-.57-1.85,3.34,3.34,0,0,1,.78-2.22,5.69,5.69,0,0,1,2-1.51,6,6,0,0,1-1.05-.74,6.69,6.69,0,0,1-1.81-2.59A5.36,5.36,0,0,1,152.09,357.32Zm5.14,12.8a2.26,2.26,0,0,0-.8.69,1.82,1.82,0,0,0-.34,1.14,2,2,0,0,0,.89,1.64,5.79,5.79,0,0,0,3.3.68,5.91,5.91,0,0,0,3.33-.74,2.09,2.09,0,0,0,1.09-1.73,1.41,1.41,0,0,0-.61-1.28,3.9,3.9,0,0,0-2.06-.4Zm5.34-12.88a2.76,2.76,0,0,0-.71-2,2.59,2.59,0,0,0-3.56,0,3.31,3.31,0,0,0,0,4.07,2.59,2.59,0,0,0,3.56,0A2.8,2.8,0,0,0,162.57,357.24Z"/><path class="cls-1" d="M21.91,403.17h2.48l2.72,8.29.4,1.17c.12.38.24.76.35,1.14h0c.11-.38.22-.75.34-1.11s.25-.76.4-1.2l2.66-8.29h2.48l1.13,13H33l-.54-6.9q-.09-1-.12-2c0-.67-.06-1.34-.09-2h0c-.19.67-.39,1.35-.59,2s-.41,1.35-.63,2l-2.29,6.9H27l-2.29-6.92c-.23-.7-.45-1.37-.64-2s-.39-1.31-.58-2h0c0,.67-.06,1.35-.11,2s-.1,1.35-.16,2l-.49,6.9H20.82Z"/><path class="cls-1" d="M43.88,406.47H45.7v9.7H44.28L44,415H44a4.65,4.65,0,0,1-1.33,1,4,4,0,0,1-1.85.4,3.5,3.5,0,0,1-2.45-.85,3.38,3.38,0,0,1-.94-2.59v-6.44H39.2v6.21a3.24,3.24,0,0,0,.15,1.05,1.93,1.93,0,0,0,.42.69,1.42,1.42,0,0,0,.61.37,2.29,2.29,0,0,0,.76.12,3.18,3.18,0,0,0,1.49-.35,5.28,5.28,0,0,0,1.25-1Z"/><path class="cls-1" d="M50.12,412.62v3.55H48.33V401.52h1.79v9.12l3.9-4.17h2.25l-4,4.08,4.17,5.62H54.31l-3.22-4.52Z"/><path class="cls-1" d="M63.47,407.83H60.62v5.63a1.1,1.1,0,0,0,.36,1,1.6,1.6,0,0,0,.94.25,5.09,5.09,0,0,0,.91-.09,6.86,6.86,0,0,0,.87-.22l.28,1.38a5.49,5.49,0,0,1-1,.29,7.17,7.17,0,0,1-1.34.13,3,3,0,0,1-2.1-.63,2.41,2.41,0,0,1-.66-1.83v-5.88H57.38v-1.36h1.45v-3.1h1.79v3.1h2.85Z"/><path class="cls-1" d="M66,407.33l.93-.44a6.11,6.11,0,0,1,.87-.32,8.24,8.24,0,0,1,.89-.19,7.52,7.52,0,0,1,1-.06,5.69,5.69,0,0,1,1.47.18,2.9,2.9,0,0,1,1.16.59,2.68,2.68,0,0,1,.75,1.08,4.55,4.55,0,0,1,.27,1.68v6.32H71.79l-.22-1.08h0a3.59,3.59,0,0,1-1.4,1,4.79,4.79,0,0,1-1.69.29,4.06,4.06,0,0,1-1.29-.19,3.15,3.15,0,0,1-1-.56,2.43,2.43,0,0,1-.67-.88,2.69,2.69,0,0,1-.24-1.15,2.61,2.61,0,0,1,1.21-2.33,5.69,5.69,0,0,1,3.19-.79h1.85v-.83a1.67,1.67,0,0,0-.53-1.43,2.49,2.49,0,0,0-1.45-.38,5.39,5.39,0,0,0-1.23.17,6.89,6.89,0,0,0-1.57.68Zm5.51,4.36-1.52,0a3.8,3.8,0,0,0-2.2.55,1.5,1.5,0,0,0-.65,1.22,1.81,1.81,0,0,0,.14.74,1.25,1.25,0,0,0,.38.46,1.67,1.67,0,0,0,.56.24,2.93,2.93,0,0,0,.67.07,3.39,3.39,0,0,0,1.39-.32,3.19,3.19,0,0,0,1.23-1Z"/><path class="cls-1" d="M81.08,403.17l2.7,7.34.63,1.68c.23.62.44,1.18.63,1.71h0l1.24-3.39,2.74-7.34h2l-5.11,13H84.09l-5-13Z"/><path class="cls-1" d="M91.82,407.33l.93-.44a6.11,6.11,0,0,1,.87-.32,8.06,8.06,0,0,1,.88-.19,7.74,7.74,0,0,1,1-.06,5.72,5.72,0,0,1,1.48.18,2.8,2.8,0,0,1,1.15.59,2.61,2.61,0,0,1,.76,1.08,4.55,4.55,0,0,1,.27,1.68v6.32H97.64l-.23-1.08h0a3.66,3.66,0,0,1-1.4,1,4.79,4.79,0,0,1-1.69.29,4.06,4.06,0,0,1-1.29-.19,3.1,3.1,0,0,1-1-.56,2.55,2.55,0,0,1-.67-.88,2.84,2.84,0,0,1-.23-1.15,2.62,2.62,0,0,1,1.2-2.33,5.73,5.73,0,0,1,3.19-.79h1.86v-.83a1.65,1.65,0,0,0-.54-1.43,2.46,2.46,0,0,0-1.44-.38,5.39,5.39,0,0,0-1.23.17,6.94,6.94,0,0,0-1.58.68Zm5.51,4.36-1.53,0a3.78,3.78,0,0,0-2.19.55A1.47,1.47,0,0,0,93,413.5a1.66,1.66,0,0,0,.14.74,1.16,1.16,0,0,0,.38.46,1.67,1.67,0,0,0,.56.24,2.93,2.93,0,0,0,.67.07,3.38,3.38,0,0,0,1.38-.32,3.22,3.22,0,0,0,1.24-1Z"/><path class="cls-1" d="M101.71,407.33l.93-.44a6.11,6.11,0,0,1,.87-.32,8.24,8.24,0,0,1,.89-.19,7.52,7.52,0,0,1,1-.06,5.69,5.69,0,0,1,1.47.18,2.9,2.9,0,0,1,1.16.59,2.68,2.68,0,0,1,.75,1.08,4.55,4.55,0,0,1,.27,1.68v6.32h-1.51l-.23-1.08h0a3.59,3.59,0,0,1-1.4,1,4.79,4.79,0,0,1-1.69.29,4.06,4.06,0,0,1-1.29-.19,3.15,3.15,0,0,1-1-.56,2.32,2.32,0,0,1-.67-.88,2.69,2.69,0,0,1-.24-1.15,2.61,2.61,0,0,1,1.21-2.33,5.67,5.67,0,0,1,3.18-.79h1.86v-.83a1.65,1.65,0,0,0-.54-1.43,2.44,2.44,0,0,0-1.44-.38A5.39,5.39,0,0,0,104,408a7.14,7.14,0,0,0-1.58.68Zm5.51,4.36-1.53,0a3.78,3.78,0,0,0-2.19.55,1.47,1.47,0,0,0-.65,1.22,1.81,1.81,0,0,0,.14.74,1.25,1.25,0,0,0,.38.46,1.67,1.67,0,0,0,.56.24,2.93,2.93,0,0,0,.67.07,3.31,3.31,0,0,0,1.38-.32,3.22,3.22,0,0,0,1.24-1Z"/><path class="cls-1" d="M113.38,416.17h-1.81v-9.7H113l.27,1.34a5.47,5.47,0,0,1,1.52-1.1,4.06,4.06,0,0,1,1.82-.39,3.15,3.15,0,0,1,2.33.84,3.1,3.1,0,0,1,.85,2.32v6.69H118v-6.42a2.09,2.09,0,0,0-.46-1.42,1.78,1.78,0,0,0-1.41-.52,3.73,3.73,0,0,0-2.71,1.3Z"/><path class="cls-1" d="M123.42,404a1.17,1.17,0,0,1-.81-.32,1,1,0,0,1-.34-.79,1.07,1.07,0,0,1,.34-.81,1.16,1.16,0,0,1,1.62,0,1.08,1.08,0,0,1,.35.81,1,1,0,0,1-.35.79A1.17,1.17,0,0,1,123.42,404Zm-.9,12.2v-9.7h1.81v9.7Z"/><path class="cls-1" d="M133.72,416.17H131.9V401.52h1.82v6.19a6.71,6.71,0,0,1,1.51-1,4.17,4.17,0,0,1,1.81-.39,3.78,3.78,0,0,1,1.41.24,2.73,2.73,0,0,1,1,.66,2.9,2.9,0,0,1,.57,1,4,4,0,0,1,.2,1.26v6.69h-1.82v-6.24a2.41,2.41,0,0,0-.45-1.62,1.78,1.78,0,0,0-1.38-.5,3.27,3.27,0,0,0-1.42.35,6.06,6.06,0,0,0-1.41,1Z"/><path class="cls-1" d="M142.89,407.33l.93-.44a6,6,0,0,1,.86-.32,8.79,8.79,0,0,1,.89-.19,7.52,7.52,0,0,1,1-.06,5.72,5.72,0,0,1,1.48.18,2.86,2.86,0,0,1,1.15.59,2.61,2.61,0,0,1,.76,1.08,4.78,4.78,0,0,1,.26,1.68v6.32h-1.5l-.23-1.08h0a3.74,3.74,0,0,1-1.4,1,4.85,4.85,0,0,1-1.7.29,4.15,4.15,0,0,1-1.29-.19,3.15,3.15,0,0,1-1-.56,2.43,2.43,0,0,1-.67-.88,2.69,2.69,0,0,1-.24-1.15,2.63,2.63,0,0,1,1.21-2.33,5.73,5.73,0,0,1,3.19-.79h1.86v-.83a1.65,1.65,0,0,0-.54-1.43,2.48,2.48,0,0,0-1.44-.38,5.39,5.39,0,0,0-1.23.17,6.94,6.94,0,0,0-1.58.68Zm5.51,4.36-1.53,0a3.85,3.85,0,0,0-2.2.55,1.5,1.5,0,0,0-.65,1.22,1.65,1.65,0,0,0,.15.74,1.09,1.09,0,0,0,.38.46,1.58,1.58,0,0,0,.56.24,2.87,2.87,0,0,0,.67.07,3.38,3.38,0,0,0,1.38-.32,3.22,3.22,0,0,0,1.24-1Z"/><path class="cls-1" d="M157.74,407.83h-2.85v5.63a1.1,1.1,0,0,0,.36,1,1.6,1.6,0,0,0,.94.25,5.09,5.09,0,0,0,.91-.09,6.86,6.86,0,0,0,.87-.22l.29,1.38a5.84,5.84,0,0,1-1.06.29,7.17,7.17,0,0,1-1.34.13,3,3,0,0,1-2.1-.63,2.41,2.41,0,0,1-.66-1.83v-5.88h-1.45v-1.36h1.45v-3.1h1.79v3.1h2.85Z"/><path class="cls-1" d="M165.93,404a1.15,1.15,0,0,1-.81-.32,1,1,0,0,1-.34-.79,1.07,1.07,0,0,1,.34-.81,1.12,1.12,0,0,1,.81-.33,1.17,1.17,0,0,1,.81.33,1.08,1.08,0,0,1,.35.81,1,1,0,0,1-.35.79A1.2,1.2,0,0,1,165.93,404Zm-.91,12.2v-9.7h1.82v9.7Z"/><path class="cls-1" d="M171.36,416.17h-1.81V401.52h1.81v6.19a7,7,0,0,1,1.51-1,4.18,4.18,0,0,1,1.82-.39,3.77,3.77,0,0,1,1.4.24,2.65,2.65,0,0,1,1,.66,2.92,2.92,0,0,1,.58,1,4,4,0,0,1,.19,1.26v6.69H176v-6.24a2.36,2.36,0,0,0-.46-1.62,1.78,1.78,0,0,0-1.38-.5,3.19,3.19,0,0,0-1.41.35,5.9,5.9,0,0,0-1.42,1Z"/><path class="cls-1" d="M180.44,416.17v-9.7h1.36l.31,1.94a3.27,3.27,0,0,1,1.16-1.51,3.11,3.11,0,0,1,1.85-.58,3.64,3.64,0,0,1,.89.09,3.44,3.44,0,0,1,.64.2l-.35,1.59a3.51,3.51,0,0,0-.55-.21,2.9,2.9,0,0,0-.71-.08,2.8,2.8,0,0,0-1.1.21,2.47,2.47,0,0,0-.89.62,3,3,0,0,0-.6,1,4.27,4.27,0,0,0-.21,1.39v5Z"/><path class="cls-1" d="M196.2,411.52h-6.95v.09a3.34,3.34,0,0,0,.87,2.47,3.25,3.25,0,0,0,2.39.87,7.27,7.27,0,0,0,1.39-.12,9.08,9.08,0,0,0,1.33-.42l.37,1.34a6.7,6.7,0,0,1-1.41.44,8.9,8.9,0,0,1-1.75.16,6.61,6.61,0,0,1-2-.29,4.58,4.58,0,0,1-1.62-.89,4.36,4.36,0,0,1-1.1-1.56,5.79,5.79,0,0,1-.4-2.27,5.91,5.91,0,0,1,.34-2.07,4.32,4.32,0,0,1,1-1.57,4.21,4.21,0,0,1,1.49-1,5.16,5.16,0,0,1,2-.36,4.49,4.49,0,0,1,1.68.31,3.67,3.67,0,0,1,1.29.87,3.75,3.75,0,0,1,.83,1.34,5,5,0,0,1,.29,1.73Zm-1.88-1.3a3.61,3.61,0,0,0-.13-1,2.23,2.23,0,0,0-.42-.81,1.89,1.89,0,0,0-.71-.56,2.4,2.4,0,0,0-1.05-.21,2.46,2.46,0,0,0-1.85.73,3.27,3.27,0,0,0-.87,1.89Z"/><path class="cls-1" d="M203.17,416.17v-13h1.9v5.46h6.17v-5.46h1.9v13h-1.9v-5.93h-6.17v5.93Z"/><path class="cls-1" d="M224.34,411.52h-7v.09a3.3,3.3,0,0,0,.88,2.47,3.21,3.21,0,0,0,2.38.87,7.2,7.2,0,0,0,1.39-.12,8.72,8.72,0,0,0,1.33-.42l.37,1.34a6.52,6.52,0,0,1-1.41.44,8.72,8.72,0,0,1-1.74.16,6.61,6.61,0,0,1-2-.29,4.41,4.41,0,0,1-1.62-.89,4.26,4.26,0,0,1-1.11-1.56,5.79,5.79,0,0,1-.4-2.27,5.91,5.91,0,0,1,.34-2.07,4.61,4.61,0,0,1,1-1.57,4.16,4.16,0,0,1,1.5-1,5.12,5.12,0,0,1,2-.36,4.49,4.49,0,0,1,1.68.31,3.86,3.86,0,0,1,1.29.87,3.72,3.72,0,0,1,.82,1.34,4.8,4.8,0,0,1,.29,1.73Zm-1.88-1.3a3.61,3.61,0,0,0-.13-1,2.38,2.38,0,0,0-.41-.81,2,2,0,0,0-.71-.56,2.41,2.41,0,0,0-1.06-.21,2.44,2.44,0,0,0-1.84.73,3.22,3.22,0,0,0-.88,1.89Z"/><path class="cls-1" d="M226.35,416.17v-9.7h1.36l.31,1.94a3.25,3.25,0,0,1,1.15-1.51,3.16,3.16,0,0,1,1.86-.58,3.88,3.88,0,0,1,1.53.29l-.35,1.59a3.93,3.93,0,0,0-.55-.21,3,3,0,0,0-.71-.08,2.89,2.89,0,0,0-1.11.21,2.44,2.44,0,0,0-.88.62,2.71,2.71,0,0,0-.6,1,4,4,0,0,0-.22,1.39v5Z"/><path class="cls-1" d="M235.87,412.62v3.55h-1.8V401.52h1.8v9.12l3.9-4.17H242l-4,4.08,4.17,5.62h-2.14l-3.22-4.52Z"/><path class="cls-1" d="M250.11,406.47h1.82v9.7H250.5l-.24-1.22h-.09a4.39,4.39,0,0,1-1.33,1,4,4,0,0,1-1.84.4,3.5,3.5,0,0,1-2.45-.85,3.34,3.34,0,0,1-.94-2.59v-6.44h1.82v6.21a3.24,3.24,0,0,0,.15,1.05,1.8,1.8,0,0,0,.42.69,1.44,1.44,0,0,0,.6.37,2.39,2.39,0,0,0,.77.12,3.14,3.14,0,0,0,1.48-.35,5.32,5.32,0,0,0,1.26-1Z"/><path class="cls-1" d="M256.36,416.17h-1.81v-9.7H256l.27,1.34a5.44,5.44,0,0,1,1.51-1.1,4.1,4.1,0,0,1,1.83-.39,3.15,3.15,0,0,1,2.33.84,3.1,3.1,0,0,1,.85,2.32v6.69h-1.82v-6.42a2.09,2.09,0,0,0-.46-1.42,1.78,1.78,0,0,0-1.41-.52,3.73,3.73,0,0,0-2.71,1.3Z"/><path class="cls-1" d="M269,401.41a4.77,4.77,0,0,1,1.21.17,6.09,6.09,0,0,1,1.12.41l-.37,1.26a5.48,5.48,0,0,0-.78-.26,3.33,3.33,0,0,0-.78-.09,1.65,1.65,0,0,0-1.42.56,3.22,3.22,0,0,0-.42,1.89v1.12h3v1.36h-3v8.34h-1.8v-8.34H264.3v-1.36h1.42v-1.72a3.41,3.41,0,0,1,.84-2.47A3.18,3.18,0,0,1,269,401.41Z"/><path class="cls-1" d="M277.68,407.83h-2.85v5.63a1.1,1.1,0,0,0,.36,1,1.58,1.58,0,0,0,.94.25,5.18,5.18,0,0,0,.91-.09,6.28,6.28,0,0,0,.86-.22l.29,1.38a5.49,5.49,0,0,1-1.05.29,7.25,7.25,0,0,1-1.34.13,3,3,0,0,1-2.11-.63,2.41,2.41,0,0,1-.66-1.83v-5.88h-1.44v-1.36H273v-3.1h1.8v3.1h2.85Z"/><path class="cls-1" d="M285.87,404a1.17,1.17,0,0,1-.82-.32,1.07,1.07,0,0,1-.34-.79,1.11,1.11,0,0,1,.34-.81,1.14,1.14,0,0,1,.82-.33,1.13,1.13,0,0,1,.8.33,1,1,0,0,1,.35.81,1,1,0,0,1-.35.79A1.16,1.16,0,0,1,285.87,404Zm-.91,12.2v-9.7h1.82v9.7Z"/><path class="cls-1" d="M291.29,416.17h-1.82v-9.7h1.43l.26,1.34a5.62,5.62,0,0,1,1.52-1.1,4.1,4.1,0,0,1,1.83-.39,3.17,3.17,0,0,1,2.33.84,3.13,3.13,0,0,1,.84,2.32v6.69h-1.81v-6.42a2.1,2.1,0,0,0-.47-1.42,1.78,1.78,0,0,0-1.41-.52,3.72,3.72,0,0,0-2.7,1.3Z"/><path class="cls-1" d="M23.05,427.93v13h-1.9v-13Z"/><path class="cls-1" d="M27.75,440.93H25.93v-9.7h1.42l.27,1.34a5.47,5.47,0,0,1,1.52-1.1,4.09,4.09,0,0,1,1.82-.39,3.18,3.18,0,0,1,2.34.84,3.13,3.13,0,0,1,.84,2.32v6.69H32.33v-6.42a2.05,2.05,0,0,0-.47-1.41,1.79,1.79,0,0,0-1.41-.53,3.71,3.71,0,0,0-2.7,1.3Z"/><path class="cls-1" d="M43.27,426.28h1.81v14.65H43.56l-.23-1.08h-.06a4.31,4.31,0,0,1-1.29,1,3.94,3.94,0,0,1-1.64.3,3.79,3.79,0,0,1-1.52-.31,3.67,3.67,0,0,1-1.31-.93,4.48,4.48,0,0,1-.93-1.55,6.47,6.47,0,0,1-.35-2.22,6.61,6.61,0,0,1,.3-2.06,4.51,4.51,0,0,1,.86-1.59,3.59,3.59,0,0,1,1.36-1,4.71,4.71,0,0,1,3.29-.12,3.77,3.77,0,0,1,1.23.71Zm0,7.28A3,3,0,0,0,41,432.47a3.09,3.09,0,0,0-1.09.19,2.4,2.4,0,0,0-.93.63,3.44,3.44,0,0,0-.65,1.12,4.87,4.87,0,0,0-.24,1.63,5.48,5.48,0,0,0,.22,1.68,3.45,3.45,0,0,0,.61,1.13,2.31,2.31,0,0,0,.87.65,2.43,2.43,0,0,0,1,.21,3,3,0,0,0,2.52-1.34Z"/><path class="cls-1" d="M48.77,428.73a1.11,1.11,0,0,1-.81-.32,1,1,0,0,1-.34-.79,1.07,1.07,0,0,1,.34-.81,1.12,1.12,0,0,1,.81-.33,1.17,1.17,0,0,1,.81.33,1.08,1.08,0,0,1,.35.81,1,1,0,0,1-.35.79A1.16,1.16,0,0,1,48.77,428.73Zm-.91,12.2v-9.7h1.82v9.7Z"/><path class="cls-1" d="M60.64,436.29h-7v.08a3.29,3.29,0,0,0,.88,2.47,3.21,3.21,0,0,0,2.38.87,7.2,7.2,0,0,0,1.39-.12,7.73,7.73,0,0,0,1.33-.42l.37,1.34a6.52,6.52,0,0,1-1.41.44,8.72,8.72,0,0,1-1.74.16,6.3,6.3,0,0,1-2-.29,4.41,4.41,0,0,1-1.62-.89,4.26,4.26,0,0,1-1.11-1.56,5.76,5.76,0,0,1-.4-2.27,5.82,5.82,0,0,1,.34-2.06,4.56,4.56,0,0,1,1-1.58,4.14,4.14,0,0,1,1.5-1,5.12,5.12,0,0,1,2-.37,4.49,4.49,0,0,1,1.68.31,3.86,3.86,0,0,1,1.29.87,3.72,3.72,0,0,1,.82,1.34,4.81,4.81,0,0,1,.29,1.74ZM58.77,435a3.62,3.62,0,0,0-.14-1,2.38,2.38,0,0,0-.41-.81,2.08,2.08,0,0,0-.71-.56,2.42,2.42,0,0,0-1.06-.2,2.47,2.47,0,0,0-1.84.72,3.22,3.22,0,0,0-.88,1.9Z"/><path class="cls-1" d="M64.48,440.93H62.67v-9.7h1.42l.27,1.34a5.47,5.47,0,0,1,1.52-1.1,4.06,4.06,0,0,1,1.82-.39,3.15,3.15,0,0,1,2.33.84,3.1,3.1,0,0,1,.85,2.32v6.69H69.06v-6.42a2,2,0,0,0-.46-1.41,1.79,1.79,0,0,0-1.41-.53,3.73,3.73,0,0,0-2.71,1.3Z"/><path class="cls-1" d="M84.77,431.23h1.81v9.7H85.16l-.25-1.22h-.08a4.51,4.51,0,0,1-1.33,1,4,4,0,0,1-1.85.4,3.47,3.47,0,0,1-2.44-.85,3.33,3.33,0,0,1-.94-2.59v-6.44h1.81v6.21a3,3,0,0,0,.16,1.05,1.78,1.78,0,0,0,.41.69,1.44,1.44,0,0,0,.61.38,2.63,2.63,0,0,0,.76.11,3.18,3.18,0,0,0,1.49-.35,5.32,5.32,0,0,0,1.26-1Z"/><path class="cls-1" d="M91,440.93H89.2v-9.7h1.42l.27,1.34a5.47,5.47,0,0,1,1.52-1.1,4.1,4.1,0,0,1,1.83-.39,3.17,3.17,0,0,1,2.33.84,3.13,3.13,0,0,1,.84,2.32v6.69H95.6v-6.42a2.05,2.05,0,0,0-.47-1.41,1.79,1.79,0,0,0-1.41-.53,3.72,3.72,0,0,0-2.7,1.3Z"/><path class="cls-1" d="M106.54,426.28h1.81v14.65h-1.52l-.23-1.08h-.06a4.31,4.31,0,0,1-1.29,1,3.91,3.91,0,0,1-1.64.3,3.83,3.83,0,0,1-1.52-.31,3.67,3.67,0,0,1-1.31-.93,4.81,4.81,0,0,1-.93-1.55,6.47,6.47,0,0,1-.35-2.22,6.61,6.61,0,0,1,.3-2.06,4.67,4.67,0,0,1,.86-1.59,3.59,3.59,0,0,1,1.36-1,4.48,4.48,0,0,1,1.84-.36,4.41,4.41,0,0,1,1.45.24,3.77,3.77,0,0,1,1.23.71Zm0,7.28a3,3,0,0,0-2.29-1.09,3.17,3.17,0,0,0-1.09.19,2.3,2.3,0,0,0-.92.63,3.12,3.12,0,0,0-.65,1.12,4.62,4.62,0,0,0-.25,1.63,5.17,5.17,0,0,0,.23,1.68,3.27,3.27,0,0,0,.6,1.13,2.31,2.31,0,0,0,.87.65,2.43,2.43,0,0,0,1,.21,3,3,0,0,0,2.52-1.34Z"/><path class="cls-1" d="M114.56,431.23h1.94l1.66,6.11.37,2.16h.08l.45-2.16,1.67-6.11h2l1.72,6.11.43,2.16h.08l.46-2.16,1.61-6.11h1.85l-3,9.7h-2.06L122.18,435l-.48-2.4-.49,2.4-1.69,5.94h-2Z"/><path class="cls-1" d="M136.89,431.23h1.82v9.7h-1.43l-.25-1.22H137a4.51,4.51,0,0,1-1.33,1,4,4,0,0,1-1.85.4,3.47,3.47,0,0,1-2.44-.85,3.33,3.33,0,0,1-.94-2.59v-6.44h1.82v6.21a3.24,3.24,0,0,0,.15,1.05,1.78,1.78,0,0,0,.41.69,1.5,1.5,0,0,0,.61.38,2.7,2.7,0,0,0,.77.11,3.14,3.14,0,0,0,1.48-.35,5.32,5.32,0,0,0,1.26-1Z"/><path class="cls-1" d="M141.3,440.93v-9.7h1.37l.3,1.94a3.27,3.27,0,0,1,1.16-1.51,3.16,3.16,0,0,1,1.86-.58,3.55,3.55,0,0,1,.88.09,3.44,3.44,0,0,1,.64.2l-.35,1.59a2.63,2.63,0,0,0-.54-.2,2.53,2.53,0,0,0-.72-.09,2.87,2.87,0,0,0-1.1.21,2.47,2.47,0,0,0-.89.62,2.91,2.91,0,0,0-.59,1,4,4,0,0,0-.22,1.39v5Z"/><path class="cls-1" d="M155.29,426.28h1.82v14.65h-1.53l-.23-1.08h-.06a4.08,4.08,0,0,1-1.29,1,3.91,3.91,0,0,1-1.64.3,3.75,3.75,0,0,1-1.51-.31,3.7,3.7,0,0,1-1.32-.93,4.62,4.62,0,0,1-.92-1.55,6.23,6.23,0,0,1-.35-2.22,6.62,6.62,0,0,1,.29-2.06,4.67,4.67,0,0,1,.86-1.59,3.67,3.67,0,0,1,1.36-1,4.48,4.48,0,0,1,1.84-.36,4.37,4.37,0,0,1,1.45.24,3.77,3.77,0,0,1,1.23.71Zm0,7.28a3,3,0,0,0-2.29-1.09,3.07,3.07,0,0,0-1.08.19,2.4,2.4,0,0,0-.93.63,3.12,3.12,0,0,0-.65,1.12,4.62,4.62,0,0,0-.25,1.63,5.45,5.45,0,0,0,.23,1.68,3.12,3.12,0,0,0,.61,1.13,2.21,2.21,0,0,0,.86.65,2.47,2.47,0,0,0,1,.21,3,3,0,0,0,2.52-1.34Z"/><path class="cls-1" d="M168.05,436.29h-7v.08a3.32,3.32,0,0,0,.88,2.47,3.24,3.24,0,0,0,2.38.87,7.31,7.31,0,0,0,1.4-.12,8,8,0,0,0,1.33-.42l.37,1.34A6.7,6.7,0,0,1,166,441a8.9,8.9,0,0,1-1.75.16,6.3,6.3,0,0,1-2-.29,4.58,4.58,0,0,1-1.62-.89,4.24,4.24,0,0,1-1.1-1.56,5.76,5.76,0,0,1-.4-2.27,5.82,5.82,0,0,1,.34-2.06,4.27,4.27,0,0,1,1-1.58,4.19,4.19,0,0,1,1.49-1,5.16,5.16,0,0,1,2-.37,4.49,4.49,0,0,1,1.68.31,3.67,3.67,0,0,1,1.29.87,3.75,3.75,0,0,1,.83,1.34,5,5,0,0,1,.29,1.74Zm-1.88-1.3a3.63,3.63,0,0,0-.13-1,2.23,2.23,0,0,0-.42-.81,2,2,0,0,0-.71-.56,2.4,2.4,0,0,0-1-.2,2.49,2.49,0,0,0-1.85.72,3.27,3.27,0,0,0-.87,1.9Z"/><path class="cls-1" d="M180.74,431.23h1.94l-3.61,9.7h-1.78l-3.65-9.7h2l2.19,6.66.37,1.53h.08l.35-1.5Z"/><path class="cls-1" d="M192.82,436a5.91,5.91,0,0,1-.37,2.17,4.62,4.62,0,0,1-1,1.62,4.19,4.19,0,0,1-1.52,1,5,5,0,0,1-1.87.34,5.14,5.14,0,0,1-1.87-.32,4.09,4.09,0,0,1-1.49-1,4.44,4.44,0,0,1-1-1.54,5.82,5.82,0,0,1-.36-2.12,6.13,6.13,0,0,1,.37-2.17,4.63,4.63,0,0,1,1-1.59,4.26,4.26,0,0,1,1.52-1,5,5,0,0,1,1.88-.35,5.64,5.64,0,0,1,1.87.31,4.13,4.13,0,0,1,1.48.93,4.44,4.44,0,0,1,1,1.54A5.78,5.78,0,0,1,192.82,436Zm-1.89.1a4.94,4.94,0,0,0-.25-1.65,3.28,3.28,0,0,0-.65-1.12,2.57,2.57,0,0,0-.92-.63,3,3,0,0,0-1.05-.19,3.49,3.49,0,0,0-1.06.16,2.18,2.18,0,0,0-.9.58,3.06,3.06,0,0,0-.63,1.1,5.47,5.47,0,0,0-.24,1.75,4.79,4.79,0,0,0,.25,1.66,3,3,0,0,0,.65,1.12,2.4,2.4,0,0,0,.92.64,2.73,2.73,0,0,0,1,.21,3.39,3.39,0,0,0,1.05-.17,2.26,2.26,0,0,0,.91-.6,3.25,3.25,0,0,0,.63-1.12A5.37,5.37,0,0,0,190.93,436.08Z"/><path class="cls-1" d="M196.72,440.93H194.9v-9.7h1.43l.26,1.34a5.62,5.62,0,0,1,1.52-1.1,4.1,4.1,0,0,1,1.83-.39,3.17,3.17,0,0,1,2.33.84,3.13,3.13,0,0,1,.84,2.32v6.69H201.3v-6.42a2.05,2.05,0,0,0-.47-1.41,1.77,1.77,0,0,0-1.41-.53,3.72,3.72,0,0,0-2.7,1.3Z"/><path class="cls-1" d="M210.75,427.93h1.65l5.92,8.23c.22.3.44.61.64.93s.39.63.56.93h0c0-.48-.05-1-.06-1.45s0-1,0-1.44v-7.2h1.85v13h-1.65l-5.86-8.13c-.2-.29-.42-.62-.64-1s-.42-.73-.61-1.09h0c0,.58,0,1.16.07,1.74s0,1.15,0,1.73v6.73h-1.86Z"/><path class="cls-1" d="M233.19,436a6.13,6.13,0,0,1-.37,2.17,4.64,4.64,0,0,1-1,1.62,4.16,4.16,0,0,1-1.51,1,5.06,5.06,0,0,1-1.88.34,5.17,5.17,0,0,1-1.87-.32,4,4,0,0,1-1.48-1,4.44,4.44,0,0,1-1-1.54,5.82,5.82,0,0,1-.36-2.12,5.91,5.91,0,0,1,.37-2.17,4.49,4.49,0,0,1,1-1.59,4.17,4.17,0,0,1,1.52-1,5,5,0,0,1,1.87-.35,5.6,5.6,0,0,1,1.87.31,4.17,4.17,0,0,1,1.49.93,4.44,4.44,0,0,1,1,1.54A5.78,5.78,0,0,1,233.19,436Zm-1.9.1a4.7,4.7,0,0,0-.25-1.65,3.12,3.12,0,0,0-.65-1.12,2.48,2.48,0,0,0-.92-.63,2.91,2.91,0,0,0-1.05-.19,3.39,3.39,0,0,0-1,.16,2.15,2.15,0,0,0-.91.58,3.06,3.06,0,0,0-.63,1.1,5.47,5.47,0,0,0-.24,1.75,5,5,0,0,0,.25,1.66,3.18,3.18,0,0,0,.65,1.12,2.47,2.47,0,0,0,.92.64,2.73,2.73,0,0,0,1.05.21,3.39,3.39,0,0,0,1-.17,2.2,2.2,0,0,0,.91-.6,3.25,3.25,0,0,0,.63-1.12A5.37,5.37,0,0,0,231.29,436.08Z"/><path class="cls-1" d="M244.24,436a5.91,5.91,0,0,1-.38,2.17,4.48,4.48,0,0,1-1,1.62,4.24,4.24,0,0,1-1.51,1,5.06,5.06,0,0,1-1.88.34,5.14,5.14,0,0,1-1.87-.32,4.09,4.09,0,0,1-1.49-1,4.44,4.44,0,0,1-1-1.54,5.82,5.82,0,0,1-.36-2.12,5.91,5.91,0,0,1,.38-2.17,4.35,4.35,0,0,1,1-1.59,4.22,4.22,0,0,1,1.51-1,5.07,5.07,0,0,1,1.88-.35,5.6,5.6,0,0,1,1.87.31,4.13,4.13,0,0,1,1.48.93,4.44,4.44,0,0,1,1,1.54A5.57,5.57,0,0,1,244.24,436Zm-1.9.1a4.94,4.94,0,0,0-.25-1.65,3.28,3.28,0,0,0-.65-1.12,2.48,2.48,0,0,0-.92-.63,2.91,2.91,0,0,0-1.05-.19,3.39,3.39,0,0,0-1.05.16,2.15,2.15,0,0,0-.91.58,3.06,3.06,0,0,0-.63,1.1,5.47,5.47,0,0,0-.24,1.75,4.79,4.79,0,0,0,.25,1.66,3,3,0,0,0,.65,1.12,2.4,2.4,0,0,0,.92.64,2.73,2.73,0,0,0,1,.21,3.39,3.39,0,0,0,1.05-.17,2.2,2.2,0,0,0,.91-.6,3.25,3.25,0,0,0,.63-1.12A5.37,5.37,0,0,0,242.34,436.08Z"/><path class="cls-1" d="M250.38,441.11a4.43,4.43,0,0,1-1.27-.18,3.59,3.59,0,0,1-1-.5v5.24h-1.8V431.08h1.51l.27,1.26a5.68,5.68,0,0,1,1.26-.88,3.41,3.41,0,0,1,1.65-.38,3.91,3.91,0,0,1,3,1.24,5.15,5.15,0,0,1,1.11,3.55,6.18,6.18,0,0,1-.4,2.35,4.54,4.54,0,0,1-1.07,1.63,4.23,4.23,0,0,1-1.53.95A5,5,0,0,1,250.38,441.11Zm.18-8.54a2.66,2.66,0,0,0-1.5.42,4.36,4.36,0,0,0-1,.86V439a3.11,3.11,0,0,0,1,.51,3.32,3.32,0,0,0,1.07.17,3.2,3.2,0,0,0,1.12-.2,2.44,2.44,0,0,0,1-.65,3.5,3.5,0,0,0,.7-1.17,5.09,5.09,0,0,0,.27-1.78,4.11,4.11,0,0,0-.65-2.44A2.34,2.34,0,0,0,250.56,432.57Z"/><path class="cls-1" d="M263.67,431.23h1.82v9.7h-1.43l-.25-1.22h-.08a4.51,4.51,0,0,1-1.33,1,4,4,0,0,1-1.85.4,3.47,3.47,0,0,1-2.44-.85,3.33,3.33,0,0,1-.94-2.59v-6.44H259v6.21a3.24,3.24,0,0,0,.15,1.05,1.78,1.78,0,0,0,.41.69,1.5,1.5,0,0,0,.61.38,2.63,2.63,0,0,0,.76.11,3.18,3.18,0,0,0,1.49-.35,5.32,5.32,0,0,0,1.26-1Z"/><path class="cls-1" d="M268.08,440.93v-9.7h1.36l.31,1.94a3.27,3.27,0,0,1,1.16-1.51,3.16,3.16,0,0,1,1.86-.58,3.61,3.61,0,0,1,.88.09,3.44,3.44,0,0,1,.64.2l-.35,1.59a2.63,2.63,0,0,0-.54-.2,2.53,2.53,0,0,0-.72-.09,2.87,2.87,0,0,0-1.1.21,2.47,2.47,0,0,0-.89.62,3.09,3.09,0,0,0-.6,1,4.27,4.27,0,0,0-.21,1.39v5Z"/><path class="cls-1" d="M25.38,452.69a8.08,8.08,0,0,1,2.56.39,5.6,5.6,0,0,1,2,1.17,5.22,5.22,0,0,1,1.34,1.94,6.9,6.9,0,0,1,.49,2.71,7.76,7.76,0,0,1-.58,3.18,5.41,5.41,0,0,1-1.56,2.1,5.9,5.9,0,0,1-2.27,1.16,10.53,10.53,0,0,1-2.73.35H21.15v-13Zm-2.33,11.43h1.42a8.94,8.94,0,0,0,1.94-.21,4,4,0,0,0,2.87-2.41,6.42,6.42,0,0,0,.45-2.6,5.55,5.55,0,0,0-.33-2,3.83,3.83,0,0,0-.94-1.45,4.07,4.07,0,0,0-1.5-.9,5.78,5.78,0,0,0-1.95-.31h-2Z"/><path class="cls-1" d="M34,456.86c.33-.17.64-.31.93-.44a5.69,5.69,0,0,1,1.75-.51,7.74,7.74,0,0,1,1-.06,6.2,6.2,0,0,1,1.48.17,3,3,0,0,1,1.16.59,2.83,2.83,0,0,1,.75,1.08,4.57,4.57,0,0,1,.27,1.69v6.31H39.78l-.23-1.07h0a3.89,3.89,0,0,1-1.4,1,4.79,4.79,0,0,1-1.69.29,4.06,4.06,0,0,1-1.29-.2,3,3,0,0,1-1-.56,2.51,2.51,0,0,1-.68-.87,2.89,2.89,0,0,1-.23-1.16,2.61,2.61,0,0,1,1.2-2.32,5.73,5.73,0,0,1,3.19-.8h1.86v-.82a1.67,1.67,0,0,0-.54-1.44,2.46,2.46,0,0,0-1.44-.38,4.94,4.94,0,0,0-1.23.18,6.86,6.86,0,0,0-1.58.67Zm5.51,4.35-1.53,0a3.78,3.78,0,0,0-2.19.55A1.5,1.5,0,0,0,35.1,463a1.61,1.61,0,0,0,.14.73,1.2,1.2,0,0,0,.38.47,1.47,1.47,0,0,0,.56.23,2.93,2.93,0,0,0,.67.08,3.36,3.36,0,0,0,2.62-1.35Z"/><path class="cls-1" d="M48.81,457.35H46V463a1.11,1.11,0,0,0,.36,1,1.66,1.66,0,0,0,.94.25,5.15,5.15,0,0,0,.9-.1,7,7,0,0,0,.87-.21l.29,1.38a7,7,0,0,1-1,.29,7.34,7.34,0,0,1-1.34.12,3,3,0,0,1-2.11-.63,2.4,2.4,0,0,1-.66-1.82v-5.89H42.73V456h1.44V452.9H46V456h2.84Z"/><path class="cls-1" d="M50.18,456h1.94l2.06,5.55.7,2.31h0l.7-2.31L57.5,456h1.86l-3.74,10.53a7.73,7.73,0,0,1-1.55,2.74,5.75,5.75,0,0,1-2.24,1.45L51,469.26a5.52,5.52,0,0,0,1.73-1.07,4.57,4.57,0,0,0,1.16-1.94l.19-.56Z"/><path class="cls-1" d="M68.84,461.05h-7v.08a3.32,3.32,0,0,0,.88,2.48,3.26,3.26,0,0,0,2.38.86,7.2,7.2,0,0,0,1.39-.12,7.64,7.64,0,0,0,1.33-.41l.38,1.34a6.64,6.64,0,0,1-1.42.43,8.7,8.7,0,0,1-1.74.17,6.61,6.61,0,0,1-2-.29,4.6,4.6,0,0,1-1.62-.9,4.26,4.26,0,0,1-1.11-1.56,6,6,0,0,1-.4-2.27,6.14,6.14,0,0,1,.34-2.06,4.56,4.56,0,0,1,1-1.58,4.27,4.27,0,0,1,1.5-1,5.12,5.12,0,0,1,2-.36,4.3,4.3,0,0,1,1.68.31,3.7,3.7,0,0,1,1.29.86,3.93,3.93,0,0,1,.83,1.35,5,5,0,0,1,.28,1.73ZM67,459.75a3.55,3.55,0,0,0-.14-1,2.34,2.34,0,0,0-.41-.82,2.08,2.08,0,0,0-.71-.56,2.55,2.55,0,0,0-1-.2,2.48,2.48,0,0,0-1.85.72,3.22,3.22,0,0,0-.88,1.9Z"/><path class="cls-1" d="M82.07,456h1.82v9.7H82.46l-.24-1.22h-.09a4.35,4.35,0,0,1-1.33,1,4,4,0,0,1-1.85.41,3.49,3.49,0,0,1-2.44-.86,3.31,3.31,0,0,1-.94-2.59V456h1.82v6.21a3.26,3.26,0,0,0,.15,1.06A1.86,1.86,0,0,0,78,464a1.67,1.67,0,0,0,.61.37,2.7,2.7,0,0,0,.77.11,3,3,0,0,0,1.48-.35,5.07,5.07,0,0,0,1.26-1Z"/><path class="cls-1" d="M88.32,465.69H86.51V456h1.42l.27,1.34a5.44,5.44,0,0,1,1.51-1.1,4.1,4.1,0,0,1,1.83-.38,3.19,3.19,0,0,1,2.33.83,3.1,3.1,0,0,1,.85,2.32v6.69H92.9v-6.42a2,2,0,0,0-.46-1.41,1.8,1.8,0,0,0-1.42-.53,3.76,3.76,0,0,0-2.7,1.3Z"/><path class="cls-1" d="M103.84,451h1.82v14.65h-1.53l-.23-1.07h-.06a4.24,4.24,0,0,1-1.29,1,4.21,4.21,0,0,1-3.15,0,4,4,0,0,1-1.32-.93,4.57,4.57,0,0,1-.92-1.56,6.23,6.23,0,0,1-.35-2.22,7,7,0,0,1,.29-2.06,4.67,4.67,0,0,1,.86-1.59,3.67,3.67,0,0,1,1.36-1,4.47,4.47,0,0,1,1.84-.35,4.63,4.63,0,0,1,1.45.23,3.53,3.53,0,0,1,1.23.72Zm0,7.28a3,3,0,0,0-2.29-1.09,3.08,3.08,0,0,0-1.08.2,2.4,2.4,0,0,0-.93.63,3.23,3.23,0,0,0-.65,1.11,4.66,4.66,0,0,0-.25,1.63,5.45,5.45,0,0,0,.23,1.68,3.25,3.25,0,0,0,.61,1.14,2.42,2.42,0,0,0,.86.65,2.64,2.64,0,0,0,1,.2,3,3,0,0,0,2.52-1.34Z"/><path class="cls-1" d="M113.29,452.69h4.09a6.18,6.18,0,0,1,1.83.26,4,4,0,0,1,1.43.76,3.47,3.47,0,0,1,.93,1.24,4.06,4.06,0,0,1,.33,1.68,4.26,4.26,0,0,1-.35,1.79,3.57,3.57,0,0,1-1,1.25,4.53,4.53,0,0,1-1.51.74,7.2,7.2,0,0,1-1.92.25h-1.94v5h-1.9Zm1.9,6.42h1.18a9,9,0,0,0,1.42-.11,3.07,3.07,0,0,0,1.13-.37,1.88,1.88,0,0,0,.73-.75,2.49,2.49,0,0,0,.27-1.23,2.21,2.21,0,0,0-.93-1.9,2.71,2.71,0,0,0-.95-.41,5,5,0,0,0-1.1-.12h-1.75Z"/><path class="cls-1" d="M123.73,456.86c.33-.17.64-.31.93-.44a6.18,6.18,0,0,1,.87-.33,6.54,6.54,0,0,1,.88-.18,7.74,7.74,0,0,1,1-.06,6.2,6.2,0,0,1,1.48.17,3,3,0,0,1,1.16.59,2.83,2.83,0,0,1,.75,1.08,4.57,4.57,0,0,1,.27,1.69v6.31h-1.51l-.23-1.07h0a3.81,3.81,0,0,1-1.4,1,4.79,4.79,0,0,1-1.69.29,4.06,4.06,0,0,1-1.29-.2,3.15,3.15,0,0,1-1-.56,2.37,2.37,0,0,1-.67-.87,2.74,2.74,0,0,1-.24-1.16,2.59,2.59,0,0,1,1.21-2.32,5.67,5.67,0,0,1,3.18-.8h1.86v-.82a1.67,1.67,0,0,0-.54-1.44,2.44,2.44,0,0,0-1.44-.38,4.94,4.94,0,0,0-1.23.18,6.86,6.86,0,0,0-1.58.67Zm5.51,4.35-1.53,0a3.78,3.78,0,0,0-2.19.55,1.5,1.5,0,0,0-.65,1.23,1.76,1.76,0,0,0,.14.73,1.2,1.2,0,0,0,.38.47,1.47,1.47,0,0,0,.56.23,2.93,2.93,0,0,0,.67.08,3.36,3.36,0,0,0,2.62-1.35Z"/><path class="cls-1" d="M133.63,465.69V451h1.78v14.65Z"/><path class="cls-1" d="M138.09,465.69V451h1.78v14.65Z"/><path class="cls-1" d="M142.6,456.86c.33-.17.64-.31.93-.44a6.18,6.18,0,0,1,.87-.33,6.37,6.37,0,0,1,.89-.18,7.52,7.52,0,0,1,1-.06,6.18,6.18,0,0,1,1.47.17,3,3,0,0,1,1.16.59,2.83,2.83,0,0,1,.75,1.08,4.57,4.57,0,0,1,.27,1.69v6.31h-1.51l-.23-1.07h0a3.81,3.81,0,0,1-1.4,1,4.79,4.79,0,0,1-1.69.29,4.06,4.06,0,0,1-1.29-.2,3.15,3.15,0,0,1-1-.56,2.37,2.37,0,0,1-.67-.87,2.74,2.74,0,0,1-.24-1.16,2.59,2.59,0,0,1,1.21-2.32,5.67,5.67,0,0,1,3.18-.8h1.86v-.82a1.67,1.67,0,0,0-.54-1.44,2.44,2.44,0,0,0-1.44-.38,4.94,4.94,0,0,0-1.23.18,7,7,0,0,0-1.58.67Zm5.51,4.35-1.53,0a3.78,3.78,0,0,0-2.19.55,1.5,1.5,0,0,0-.65,1.23,1.76,1.76,0,0,0,.14.73,1.29,1.29,0,0,0,.38.47,1.47,1.47,0,0,0,.56.23,2.93,2.93,0,0,0,.67.08,3.17,3.17,0,0,0,1.38-.33,3.22,3.22,0,0,0,1.24-1Z"/><path class="cls-1" d="M158.16,456h1.94l-3.61,9.7h-1.77l-3.66-9.7h2l2.19,6.67.37,1.52h.09l.35-1.5Z"/><path class="cls-1" d="M162.74,453.5a1.17,1.17,0,0,1-.82-.32,1.11,1.11,0,0,1,0-1.6,1.14,1.14,0,0,1,.82-.33,1.13,1.13,0,0,1,.8.33,1.07,1.07,0,0,1,0,1.6A1.16,1.16,0,0,1,162.74,453.5Zm-.91,12.19V456h1.82v9.7Z"/><path class="cls-1" d="M171.45,465.69v-13h1.9v5.88l5.46-5.88h2.36l-5.37,5.76,5.78,7.24h-2.4l-4.74-5.94-1.09,1.17v4.77Z"/><path class="cls-1" d="M183.11,456.86c.33-.17.64-.31.93-.44a5.64,5.64,0,0,1,.86-.33,6.68,6.68,0,0,1,.89-.18,7.52,7.52,0,0,1,1-.06,6.2,6.2,0,0,1,1.48.17,3,3,0,0,1,1.15.59,2.73,2.73,0,0,1,.75,1.08,4.57,4.57,0,0,1,.27,1.69v6.31h-1.5l-.23-1.07h0a3.93,3.93,0,0,1-1.41,1,4.75,4.75,0,0,1-1.69.29,4.1,4.1,0,0,1-1.29-.2,3.15,3.15,0,0,1-1-.56,2.48,2.48,0,0,1-.67-.87,2.74,2.74,0,0,1-.24-1.16,2.61,2.61,0,0,1,1.21-2.32,5.73,5.73,0,0,1,3.19-.8h1.86v-.82a1.67,1.67,0,0,0-.54-1.44,2.49,2.49,0,0,0-1.45-.38,4.93,4.93,0,0,0-1.22.18,6.86,6.86,0,0,0-1.58.67Zm5.51,4.35-1.53,0a3.85,3.85,0,0,0-2.2.55,1.53,1.53,0,0,0-.65,1.23,1.61,1.61,0,0,0,.15.73,1.12,1.12,0,0,0,.38.47,1.41,1.41,0,0,0,.56.23,2.86,2.86,0,0,0,.67.08,3.36,3.36,0,0,0,2.62-1.35Z"/><path class="cls-1" d="M192.94,465.69V456h1.37l.31,1.94a3.17,3.17,0,0,1,3-2.08,3.61,3.61,0,0,1,.88.08,3.81,3.81,0,0,1,.65.21l-.36,1.59a2.17,2.17,0,0,0-.54-.21,2.55,2.55,0,0,0-.72-.08,3.07,3.07,0,0,0-1.1.2,2.6,2.6,0,0,0-.89.62,3,3,0,0,0-.59,1,4,4,0,0,0-.22,1.4v5Z"/><path class="cls-1" d="M200.66,456.86c.33-.17.63-.31.92-.44a6.18,6.18,0,0,1,.87-.33,6.68,6.68,0,0,1,.89-.18,7.52,7.52,0,0,1,1-.06,6.12,6.12,0,0,1,1.47.17,3,3,0,0,1,1.16.59,2.83,2.83,0,0,1,.75,1.08,4.57,4.57,0,0,1,.27,1.69v6.31h-1.51l-.22-1.07h0a3.93,3.93,0,0,1-1.41,1,4.79,4.79,0,0,1-1.69.29,4.06,4.06,0,0,1-1.29-.2,3.15,3.15,0,0,1-1-.56,2.48,2.48,0,0,1-.67-.87,2.74,2.74,0,0,1-.24-1.16,2.59,2.59,0,0,1,1.21-2.32,5.71,5.71,0,0,1,3.19-.8h1.85v-.82a1.69,1.69,0,0,0-.53-1.44,2.49,2.49,0,0,0-1.45-.38,4.86,4.86,0,0,0-1.22.18,6.68,6.68,0,0,0-1.58.67Zm5.5,4.35-1.52,0a3.82,3.82,0,0,0-2.2.55,1.53,1.53,0,0,0-.65,1.23,1.76,1.76,0,0,0,.14.73,1.22,1.22,0,0,0,.39.47,1.37,1.37,0,0,0,.55.23,3,3,0,0,0,.67.08,3.25,3.25,0,0,0,1.39-.33,3.19,3.19,0,0,0,1.23-1Z"/><path class="cls-1" d="M212.33,465.69h-1.82V456h1.4l.27,1.34a6,6,0,0,1,1.47-1.08,4,4,0,0,1,1.87-.4,3.13,3.13,0,0,1,1.7.42,2.58,2.58,0,0,1,1,1.17,5.39,5.39,0,0,1,1.59-1.18,4.42,4.42,0,0,1,1.91-.41,2.87,2.87,0,0,1,2.24.83,3.31,3.31,0,0,1,.76,2.32v6.69h-1.82v-6.36a2.35,2.35,0,0,0-.41-1.48,1.66,1.66,0,0,0-1.36-.52,3.6,3.6,0,0,0-2.62,1.26,1.49,1.49,0,0,1,0,.21v6.89H216.7v-6.36a2.35,2.35,0,0,0-.41-1.48,1.66,1.66,0,0,0-1.36-.52,3.47,3.47,0,0,0-2.6,1.32Z"/><path class="cls-1" d="M236.26,460.84a6,6,0,0,1-.35,2.09,4.9,4.9,0,0,1-.95,1.58,4.11,4.11,0,0,1-1.4,1,4.34,4.34,0,0,1-1.72.35,4.7,4.7,0,0,1-1.66-.27,4.28,4.28,0,0,1-1.33-.83h0l-.19.91h-1.29V451h1.79v6.17a4.19,4.19,0,0,1,3.12-1.36,3.61,3.61,0,0,1,2.94,1.32A5.63,5.63,0,0,1,236.26,460.84Zm-1.9,0a4.39,4.39,0,0,0-.68-2.57,2.21,2.21,0,0,0-1.92-1,2.93,2.93,0,0,0-1.42.35,5,5,0,0,0-1.22,1v4.71a3.67,3.67,0,0,0,1,.79,2.59,2.59,0,0,0,1.27.3,3.31,3.31,0,0,0,1.12-.2,2.52,2.52,0,0,0,1-.65,3.13,3.13,0,0,0,.66-1.13A4.62,4.62,0,0,0,234.36,460.86Z"/><path class="cls-1" d="M246.67,461.05h-7v.08a3.36,3.36,0,0,0,.88,2.48,3.28,3.28,0,0,0,2.38.86,7.31,7.31,0,0,0,1.4-.12,7.91,7.91,0,0,0,1.33-.41l.37,1.34a6.72,6.72,0,0,1-1.41.43,8.88,8.88,0,0,1-1.75.17,6.61,6.61,0,0,1-2-.29,4.6,4.6,0,0,1-1.62-.9,4.24,4.24,0,0,1-1.1-1.56,5.76,5.76,0,0,1-.4-2.27,5.9,5.9,0,0,1,.34-2.06,4.27,4.27,0,0,1,1-1.58,4.32,4.32,0,0,1,1.49-1,5.16,5.16,0,0,1,2-.36,4.3,4.3,0,0,1,1.68.31,3.52,3.52,0,0,1,1.29.86,3.79,3.79,0,0,1,.83,1.35,5,5,0,0,1,.29,1.73Zm-1.88-1.3a3.56,3.56,0,0,0-.13-1,2.36,2.36,0,0,0-.42-.82,2,2,0,0,0-.71-.56,2.55,2.55,0,0,0-1.05-.2,2.49,2.49,0,0,0-1.85.72,3.27,3.27,0,0,0-.87,1.9Z"/><path class="cls-1" d="M248.76,465.69V451h1.77v14.65Z"/><path class="cls-1" d="M255,462.14v3.55h-1.79V451H255v9.12l3.9-4.17h2.25l-4,4.09,4.17,5.61h-2.15L256,461.17Z"/><path class="cls-1" d="M262.78,456.86c.33-.17.64-.31.93-.44a5.69,5.69,0,0,1,1.75-.51,7.52,7.52,0,0,1,1-.06,6.2,6.2,0,0,1,1.48.17,2.92,2.92,0,0,1,1.15.59,2.75,2.75,0,0,1,.76,1.08,4.58,4.58,0,0,1,.26,1.69v6.31h-1.5l-.23-1.07h0a3.89,3.89,0,0,1-1.4,1,4.83,4.83,0,0,1-1.69.29,4.06,4.06,0,0,1-1.29-.2,3.1,3.1,0,0,1-1-.56,2.48,2.48,0,0,1-.67-.87,2.73,2.73,0,0,1-.23-1.16,2.61,2.61,0,0,1,1.2-2.32,5.73,5.73,0,0,1,3.19-.8h1.86v-.82a1.67,1.67,0,0,0-.54-1.44,2.48,2.48,0,0,0-1.44-.38,4.94,4.94,0,0,0-1.23.18,6.86,6.86,0,0,0-1.58.67Zm5.51,4.35-1.53,0a3.85,3.85,0,0,0-2.2.55,1.53,1.53,0,0,0-.65,1.23,1.61,1.61,0,0,0,.15.73,1.2,1.2,0,0,0,.38.47,1.41,1.41,0,0,0,.56.23,2.86,2.86,0,0,0,.67.08,3.36,3.36,0,0,0,2.62-1.35Z"/><path class="cls-1" d="M272.62,465.69V456H274l.31,1.94a3.17,3.17,0,0,1,1.15-1.5,3.09,3.09,0,0,1,1.86-.58,3.75,3.75,0,0,1,.89.08,4,4,0,0,1,.64.21l-.35,1.59a2.41,2.41,0,0,0-.55-.21,2.52,2.52,0,0,0-.71-.08,3.08,3.08,0,0,0-1.11.2,2.56,2.56,0,0,0-.88.62,2.87,2.87,0,0,0-.6,1,4,4,0,0,0-.22,1.4v5Z"/><path class="cls-1" d="M29.16,485.81h-7v.08a3.36,3.36,0,0,0,.88,2.48,3.22,3.22,0,0,0,2.38.86,7.31,7.31,0,0,0,1.4-.12,7.91,7.91,0,0,0,1.33-.41l.37,1.34a6.72,6.72,0,0,1-1.41.43,8.88,8.88,0,0,1-1.75.17,6.61,6.61,0,0,1-2-.29,4.45,4.45,0,0,1-1.62-.9,4.08,4.08,0,0,1-1.1-1.56,5.75,5.75,0,0,1-.41-2.27,5.9,5.9,0,0,1,.35-2.06A4.21,4.21,0,0,1,23.1,481a5.16,5.16,0,0,1,2-.36,4.3,4.3,0,0,1,1.68.31,3.42,3.42,0,0,1,1.29.87,3.66,3.66,0,0,1,.83,1.34,5,5,0,0,1,.29,1.73Zm-1.88-1.3a4,4,0,0,0-.13-1,2.36,2.36,0,0,0-.42-.82,1.86,1.86,0,0,0-.71-.55,2.4,2.4,0,0,0-1.05-.21,2.49,2.49,0,0,0-1.85.72,3.31,3.31,0,0,0-.88,1.9Z"/><path class="cls-1" d="M33,490.45H31.18v-9.7h1.43l.26,1.34a5.69,5.69,0,0,1,1.52-1.1,4.24,4.24,0,0,1,1.83-.38,3.17,3.17,0,0,1,2.33.84,3.11,3.11,0,0,1,.84,2.32v6.68H37.58V484a2.06,2.06,0,0,0-.47-1.42,1.79,1.79,0,0,0-1.41-.53,3.76,3.76,0,0,0-2.7,1.3Z"/><path class="cls-1" d="M47,482.12H44.19v5.63a1.11,1.11,0,0,0,.36,1,1.66,1.66,0,0,0,.94.25,4.34,4.34,0,0,0,.9-.1,7,7,0,0,0,.87-.21l.29,1.38a5.94,5.94,0,0,1-1,.29,7.34,7.34,0,0,1-1.34.12,3,3,0,0,1-2.11-.63,2.4,2.4,0,0,1-.66-1.82v-5.88H41v-1.37h1.44v-3.09h1.8v3.09H47Z"/><path class="cls-1" d="M48.42,480.75h1.94L52,486.86l.37,2.17h.08l.45-2.17,1.68-6.11h2l1.71,6.11.43,2.17h.08l.46-2.17,1.61-6.11H62.7l-3,9.7H57.68L56,484.51l-.47-2.39-.5,2.39-1.69,5.94h-2Z"/><path class="cls-1" d="M72.9,485.5a6,6,0,0,1-.37,2.18,4.76,4.76,0,0,1-1,1.62,4.33,4.33,0,0,1-1.52,1,5.18,5.18,0,0,1-1.87.34,5.36,5.36,0,0,1-1.87-.32,4.22,4.22,0,0,1-1.49-.95,4.48,4.48,0,0,1-1-1.55,5.76,5.76,0,0,1-.36-2.11,5.84,5.84,0,0,1,.37-2.17,4.67,4.67,0,0,1,1-1.6,4.54,4.54,0,0,1,1.52-1,5,5,0,0,1,1.88-.34,5.44,5.44,0,0,1,1.87.31,3.88,3.88,0,0,1,1.48.93,4.31,4.31,0,0,1,1,1.53A5.82,5.82,0,0,1,72.9,485.5Zm-1.9.1a5,5,0,0,0-.24-1.65,3.32,3.32,0,0,0-.65-1.11,2.45,2.45,0,0,0-.92-.63,3,3,0,0,0-1-.2,3.51,3.51,0,0,0-1.06.17,2.16,2.16,0,0,0-.9.57,2.84,2.84,0,0,0-.63,1.11,5.37,5.37,0,0,0-.24,1.74,4.79,4.79,0,0,0,.25,1.66,3.08,3.08,0,0,0,.65,1.13,2.56,2.56,0,0,0,.91.64,2.81,2.81,0,0,0,1.06.2,3.12,3.12,0,0,0,1-.17,2.26,2.26,0,0,0,.91-.6,3.11,3.11,0,0,0,.63-1.11A5.75,5.75,0,0,0,71,485.6Z"/><path class="cls-1" d="M75,490.45v-9.7h1.36l.31,1.94a3.19,3.19,0,0,1,1.16-1.5,3,3,0,0,1,1.85-.58,4.3,4.3,0,0,1,.89.08,4.37,4.37,0,0,1,.64.21l-.35,1.59a2.74,2.74,0,0,0-.55-.21,2.9,2.9,0,0,0-.71-.08,3,3,0,0,0-1.1.2,2.6,2.6,0,0,0-.89.62,3.2,3.2,0,0,0-.6,1,4.34,4.34,0,0,0-.21,1.4v5Z"/><path class="cls-1" d="M86.84,475.7a4.74,4.74,0,0,1,1.21.16,5.44,5.44,0,0,1,1.12.42l-.37,1.26a4.46,4.46,0,0,0-.78-.26,2.9,2.9,0,0,0-.79-.1,1.66,1.66,0,0,0-1.41.56,3.25,3.25,0,0,0-.42,1.9v1.11h2.95v1.37H85.4v8.33H83.6v-8.33H82.18v-1.37H83.6V479a3.43,3.43,0,0,1,.84-2.48A3.22,3.22,0,0,1,86.84,475.7Z"/><path class="cls-1" d="M98,485.81h-7v.08a3.32,3.32,0,0,0,.88,2.48,3.21,3.21,0,0,0,2.38.86,7.2,7.2,0,0,0,1.39-.12,7.64,7.64,0,0,0,1.33-.41l.37,1.34a6.72,6.72,0,0,1-1.41.43,8.7,8.7,0,0,1-1.74.17,6.61,6.61,0,0,1-2-.29,4.29,4.29,0,0,1-1.62-.9,4.1,4.1,0,0,1-1.11-1.56,5.76,5.76,0,0,1-.4-2.27,5.9,5.9,0,0,1,.34-2.06,4.65,4.65,0,0,1,1-1.58,4.27,4.27,0,0,1,1.5-1,5.12,5.12,0,0,1,2-.36,4.3,4.3,0,0,1,1.68.31,3.59,3.59,0,0,1,1.29.87,3.64,3.64,0,0,1,.82,1.34,4.8,4.8,0,0,1,.29,1.73Zm-1.88-1.3a3.56,3.56,0,0,0-.13-1,2.53,2.53,0,0,0-.41-.82,2,2,0,0,0-.71-.55,2.41,2.41,0,0,0-1.06-.21,2.47,2.47,0,0,0-1.84.72,3.25,3.25,0,0,0-.88,1.9Z"/><path class="cls-1" d="M101.88,490.45h-1.81v-9.7h1.42l.27,1.34a5.69,5.69,0,0,1,1.52-1.1,4.17,4.17,0,0,1,1.82-.38,3.15,3.15,0,0,1,2.33.84,3.08,3.08,0,0,1,.85,2.32v6.68h-1.82V484a2.06,2.06,0,0,0-.46-1.42,1.79,1.79,0,0,0-1.41-.53,3.76,3.76,0,0,0-2.71,1.3Z"/><path class="cls-1" d="M110.74,489.34a1.23,1.23,0,0,1,.37-.91,1.2,1.2,0,0,1,.89-.37,1.16,1.16,0,0,1,.87.37,1.26,1.26,0,0,1,.36.91,1.27,1.27,0,0,1-.36,1,1.22,1.22,0,0,1-.87.35,1.26,1.26,0,0,1-.89-.35A1.24,1.24,0,0,1,110.74,489.34Z"/><path class="cls-1" d="M123.86,477.27a11.14,11.14,0,0,1,1.84.15,6.51,6.51,0,0,1,1.75.57l-.45,1.57a8.9,8.9,0,0,0-1.6-.59,6,6,0,0,0-1.46-.18,3,3,0,0,0-1.85.52,1.69,1.69,0,0,0-.69,1.44,1.62,1.62,0,0,0,.51,1.26,4.32,4.32,0,0,0,1.66.83l1.3.41a4.93,4.93,0,0,1,2.51,1.52,3.45,3.45,0,0,1,.73,2.15,3.38,3.38,0,0,1-.34,1.54,3.49,3.49,0,0,1-1,1.18,4.31,4.31,0,0,1-1.43.74,6.16,6.16,0,0,1-1.82.26,11.55,11.55,0,0,1-2-.18,7.49,7.49,0,0,1-2-.65l.45-1.55a8.14,8.14,0,0,0,1.73.64,7.42,7.42,0,0,0,1.78.21,3.36,3.36,0,0,0,1.9-.52,1.7,1.7,0,0,0,.78-1.52,2.17,2.17,0,0,0-.11-.69,1.76,1.76,0,0,0-.39-.61,3.16,3.16,0,0,0-.76-.54,7.56,7.56,0,0,0-1.19-.47l-1.3-.42a5.21,5.21,0,0,1-2.19-1.23,3,3,0,0,1-.77-2.13,3.44,3.44,0,0,1,1.13-2.71A4.76,4.76,0,0,1,123.86,477.27Z"/><path class="cls-1" d="M131.2,478.26a1.13,1.13,0,0,1-.81-.32,1.06,1.06,0,0,1-.35-.8,1.08,1.08,0,0,1,.35-.8,1.1,1.1,0,0,1,.81-.33,1.13,1.13,0,0,1,.8.33,1.05,1.05,0,0,1,.36.8,1,1,0,0,1-.36.8A1.16,1.16,0,0,1,131.2,478.26Zm-.91,12.19v-9.7h1.82v9.7Z"/><path class="cls-1" d="M143.07,485.81h-6.95v.08a3.36,3.36,0,0,0,.87,2.48,3.25,3.25,0,0,0,2.39.86,7.27,7.27,0,0,0,1.39-.12,7.64,7.64,0,0,0,1.33-.41l.37,1.34a6.72,6.72,0,0,1-1.41.43,8.81,8.81,0,0,1-1.75.17,6.66,6.66,0,0,1-2-.29,4.45,4.45,0,0,1-1.62-.9,4.19,4.19,0,0,1-1.1-1.56,5.76,5.76,0,0,1-.4-2.27,5.9,5.9,0,0,1,.34-2.06,4.65,4.65,0,0,1,1-1.58,4.32,4.32,0,0,1,1.49-1,5.2,5.2,0,0,1,2-.36,4.39,4.39,0,0,1,1.69.31,3.59,3.59,0,0,1,1.29.87,3.78,3.78,0,0,1,.82,1.34,5,5,0,0,1,.29,1.73Zm-1.88-1.3a3.56,3.56,0,0,0-.13-1,2.53,2.53,0,0,0-.41-.82,2,2,0,0,0-.72-.55,2.37,2.37,0,0,0-1.05-.21,2.46,2.46,0,0,0-1.84.72,3.25,3.25,0,0,0-.88,1.9Z"/><path class="cls-1" d="M151,478.26a1.17,1.17,0,0,1-.81-.32,1.05,1.05,0,0,1-.34-.8,1.07,1.07,0,0,1,.34-.8A1.13,1.13,0,0,1,151,476a1.15,1.15,0,0,1,.81.33,1.08,1.08,0,0,1,.35.8,1.06,1.06,0,0,1-.35.8A1.19,1.19,0,0,1,151,478.26Zm-.9,12.19v-9.7h1.81v9.7Z"/><path class="cls-1" d="M160,482.57a5.38,5.38,0,0,0-1.24-.45,4.67,4.67,0,0,0-1.11-.13,2.39,2.39,0,0,0-1.46.36,1.14,1.14,0,0,0-.48,1,1,1,0,0,0,.33.76,3.71,3.71,0,0,0,1.38.63l.62.18a5.56,5.56,0,0,1,2.1,1.06,2.3,2.3,0,0,1,.71,1.77,2.61,2.61,0,0,1-1,2.12,4.18,4.18,0,0,1-2.74.81,9.43,9.43,0,0,1-1.78-.17,6.64,6.64,0,0,1-1.48-.45l.44-1.43a6.45,6.45,0,0,0,1.3.47,5.63,5.63,0,0,0,1.42.17,2.87,2.87,0,0,0,1.48-.33,1.17,1.17,0,0,0,.54-1.09,1,1,0,0,0-.47-.94,6.47,6.47,0,0,0-1.36-.54l-.64-.21a4.92,4.92,0,0,1-2-1.08,2.28,2.28,0,0,1-.65-1.69,2.5,2.5,0,0,1,.26-1.13,2.59,2.59,0,0,1,.74-.87,3.53,3.53,0,0,1,1.1-.54,4.47,4.47,0,0,1,1.4-.2,8.69,8.69,0,0,1,1.5.13,6.19,6.19,0,0,1,1.48.45Z"/><path class="cls-1" d="M168.05,482.12H165.2v5.63a1.11,1.11,0,0,0,.36,1,1.68,1.68,0,0,0,.94.25,4.36,4.36,0,0,0,.91-.1,7,7,0,0,0,.87-.21l.28,1.38a5.49,5.49,0,0,1-1.05.29,7.18,7.18,0,0,1-1.34.12,3,3,0,0,1-2.1-.63,2.4,2.4,0,0,1-.66-1.82v-5.88H162v-1.37h1.45v-3.09h1.79v3.09h2.85Z"/><path class="cls-1" d="M183.3,485.81h-7v.08a3.36,3.36,0,0,0,.88,2.48,3.22,3.22,0,0,0,2.38.86,7.31,7.31,0,0,0,1.4-.12,7.91,7.91,0,0,0,1.33-.41l.37,1.34a6.72,6.72,0,0,1-1.41.43,8.88,8.88,0,0,1-1.75.17,6.61,6.61,0,0,1-2-.29,4.45,4.45,0,0,1-1.62-.9,4.08,4.08,0,0,1-1.1-1.56,5.75,5.75,0,0,1-.41-2.27,5.9,5.9,0,0,1,.35-2.06,4.28,4.28,0,0,1,2.45-2.59,5.16,5.16,0,0,1,2-.36,4.3,4.3,0,0,1,1.68.31,3.42,3.42,0,0,1,1.29.87,3.66,3.66,0,0,1,.83,1.34,5,5,0,0,1,.29,1.73Zm-1.88-1.3a4,4,0,0,0-.13-1,2.36,2.36,0,0,0-.42-.82,1.86,1.86,0,0,0-.71-.55,2.4,2.4,0,0,0-1-.21,2.49,2.49,0,0,0-1.85.72,3.31,3.31,0,0,0-.88,1.9Z"/><path class="cls-1" d="M186.35,478.26a1.17,1.17,0,0,1-.82-.32,1.09,1.09,0,0,1-.34-.8,1.1,1.1,0,0,1,.34-.8,1.14,1.14,0,0,1,.82-.33,1.13,1.13,0,0,1,.8.33,1,1,0,0,1,.35.8,1,1,0,0,1-.35.8A1.16,1.16,0,0,1,186.35,478.26Zm-.91,12.19v-9.7h1.81v9.7Z"/><path class="cls-1" d="M191.77,490.45H190v-9.7h1.43l.26,1.34a5.69,5.69,0,0,1,1.52-1.1,4.24,4.24,0,0,1,1.83-.38,3.17,3.17,0,0,1,2.33.84,3.11,3.11,0,0,1,.84,2.32v6.68h-1.81V484a2.06,2.06,0,0,0-.47-1.42,1.77,1.77,0,0,0-1.41-.53,3.76,3.76,0,0,0-2.7,1.3Z"/><path class="cls-1" d="M209.07,485.81h-6.95v.08a3.32,3.32,0,0,0,.88,2.48,3.21,3.21,0,0,0,2.38.86,7.2,7.2,0,0,0,1.39-.12,7.64,7.64,0,0,0,1.33-.41l.37,1.34a6.72,6.72,0,0,1-1.41.43,8.7,8.7,0,0,1-1.74.17,6.61,6.61,0,0,1-2-.29,4.29,4.29,0,0,1-1.62-.9,4.1,4.1,0,0,1-1.11-1.56,5.76,5.76,0,0,1-.4-2.27,5.9,5.9,0,0,1,.34-2.06,4.65,4.65,0,0,1,1-1.58,4.27,4.27,0,0,1,1.5-1,5.12,5.12,0,0,1,2-.36,4.3,4.3,0,0,1,1.68.31,3.59,3.59,0,0,1,1.29.87,3.64,3.64,0,0,1,.82,1.34,4.8,4.8,0,0,1,.29,1.73Zm-1.88-1.3a3.56,3.56,0,0,0-.13-1,2.53,2.53,0,0,0-.41-.82,2,2,0,0,0-.71-.55,2.41,2.41,0,0,0-1.06-.21,2.47,2.47,0,0,0-1.84.72,3.25,3.25,0,0,0-.88,1.9Z"/><path class="cls-1" d="M221.76,480.75h1.94l-3.61,9.7h-1.77l-3.66-9.7h2l2.19,6.67.37,1.53h.08l.36-1.51Z"/><path class="cls-1" d="M226.34,478.26a1.17,1.17,0,0,1-.82-.32,1.09,1.09,0,0,1-.34-.8,1.1,1.1,0,0,1,.34-.8,1.14,1.14,0,0,1,.82-.33,1.13,1.13,0,0,1,.8.33,1,1,0,0,1,.35.8,1,1,0,0,1-.35.8A1.16,1.16,0,0,1,226.34,478.26Zm-.91,12.19v-9.7h1.82v9.7Z"/><path class="cls-1" d="M238.21,485.81h-7v.08a3.36,3.36,0,0,0,.88,2.48,3.25,3.25,0,0,0,2.39.86,7.27,7.27,0,0,0,1.39-.12,7.91,7.91,0,0,0,1.33-.41l.37,1.34a6.72,6.72,0,0,1-1.41.43,8.88,8.88,0,0,1-1.75.17,6.61,6.61,0,0,1-2-.29,4.45,4.45,0,0,1-1.62-.9,4.19,4.19,0,0,1-1.1-1.56,5.76,5.76,0,0,1-.4-2.27,5.9,5.9,0,0,1,.34-2.06,4.28,4.28,0,0,1,2.45-2.59,5.16,5.16,0,0,1,2-.36,4.3,4.3,0,0,1,1.68.31,3.42,3.42,0,0,1,1.29.87,3.66,3.66,0,0,1,.83,1.34,5,5,0,0,1,.29,1.73Zm-1.88-1.3a3.56,3.56,0,0,0-.13-1,2.36,2.36,0,0,0-.42-.82,1.86,1.86,0,0,0-.71-.55,2.4,2.4,0,0,0-1-.21,2.49,2.49,0,0,0-1.85.72,3.3,3.3,0,0,0-.87,1.9Z"/><path class="cls-1" d="M240.3,490.45V475.8h1.77v14.65Z"/><path class="cls-1" d="M250.2,482.57a5.55,5.55,0,0,0-1.24-.45,4.67,4.67,0,0,0-1.11-.13,2.45,2.45,0,0,0-1.47.36,1.16,1.16,0,0,0-.47,1,1,1,0,0,0,.33.76,3.71,3.71,0,0,0,1.38.63l.62.18a5.43,5.43,0,0,1,2.09,1.06,2.27,2.27,0,0,1,.72,1.77,2.61,2.61,0,0,1-1,2.12,4.2,4.2,0,0,1-2.74.81,9.35,9.35,0,0,1-1.78-.17,6.48,6.48,0,0,1-1.48-.45l.43-1.43a6.68,6.68,0,0,0,1.3.47,5.77,5.77,0,0,0,1.43.17,2.81,2.81,0,0,0,1.47-.33,1.16,1.16,0,0,0,.55-1.09,1,1,0,0,0-.47-.94,6.37,6.37,0,0,0-1.37-.54l-.64-.21a5.07,5.07,0,0,1-2-1.08,2.32,2.32,0,0,1-.65-1.69,2.39,2.39,0,0,1,.27-1.13,2.67,2.67,0,0,1,.73-.87,3.59,3.59,0,0,1,1.11-.54,4.43,4.43,0,0,1,1.4-.2,8.78,8.78,0,0,1,1.5.13,6.25,6.25,0,0,1,1.47.45Z"/><path class="cls-1" d="M261.35,485.81h-7v.08a3.36,3.36,0,0,0,.87,2.48,3.25,3.25,0,0,0,2.39.86,7.27,7.27,0,0,0,1.39-.12,7.64,7.64,0,0,0,1.33-.41l.37,1.34a6.72,6.72,0,0,1-1.41.43,8.78,8.78,0,0,1-1.74.17,6.67,6.67,0,0,1-2-.29,4.45,4.45,0,0,1-1.62-.9,4.19,4.19,0,0,1-1.1-1.56,5.76,5.76,0,0,1-.4-2.27,5.9,5.9,0,0,1,.34-2.06,4.65,4.65,0,0,1,1-1.58,4.32,4.32,0,0,1,1.49-1,5.21,5.21,0,0,1,2-.36,4.33,4.33,0,0,1,1.68.31,3.59,3.59,0,0,1,1.29.87,3.78,3.78,0,0,1,.82,1.34,5,5,0,0,1,.29,1.73Zm-1.88-1.3a3.56,3.56,0,0,0-.13-1,2.53,2.53,0,0,0-.41-.82,2,2,0,0,0-.72-.55,2.34,2.34,0,0,0-1-.21,2.47,2.47,0,0,0-1.84.72,3.25,3.25,0,0,0-.88,1.9Z"/><path class="cls-1" d="M264.4,478.26a1.13,1.13,0,0,1-.81-.32,1.05,1.05,0,0,1-.34-.8,1.07,1.07,0,0,1,.34-.8,1.1,1.1,0,0,1,.81-.33,1.17,1.17,0,0,1,.81.33,1.08,1.08,0,0,1,.35.8,1.06,1.06,0,0,1-.35.8A1.2,1.2,0,0,1,264.4,478.26Zm-.91,12.19v-9.7h1.82v9.7Z"/><path class="cls-1" d="M273.14,482.12h-2.85v5.63a1.11,1.11,0,0,0,.36,1,1.66,1.66,0,0,0,.94.25,4.43,4.43,0,0,0,.91-.1,6.38,6.38,0,0,0,.86-.21l.29,1.38a5.49,5.49,0,0,1-1,.29,7.26,7.26,0,0,1-1.34.12,3,3,0,0,1-2.11-.63,2.4,2.4,0,0,1-.66-1.82v-5.88h-1.44v-1.37h1.44v-3.09h1.8v3.09h2.85Z"/><path class="cls-1" d="M276.4,478.26a1.17,1.17,0,0,1-.82-.32,1.09,1.09,0,0,1-.34-.8,1.1,1.1,0,0,1,.34-.8,1.14,1.14,0,0,1,.82-.33,1.17,1.17,0,0,1,.81.33,1.08,1.08,0,0,1,.35.8,1.06,1.06,0,0,1-.35.8A1.2,1.2,0,0,1,276.4,478.26Zm-.91,12.19v-9.7h1.82v9.7Z"/><path class="cls-1" d="M279.71,484a3.45,3.45,0,0,1,.29-1.43,2.84,2.84,0,0,1,.81-1.06,3.46,3.46,0,0,1,1.25-.65,5.27,5.27,0,0,1,1.57-.22,3.86,3.86,0,0,1,.6,0l.58.1H289v1.34h-.64l-1.66-.22a2.72,2.72,0,0,1,.61.95,2.85,2.85,0,0,1,.22,1.13,3.46,3.46,0,0,1-.29,1.44,3,3,0,0,1-.8,1.06,3.58,3.58,0,0,1-1.24.65,5.62,5.62,0,0,1-1.57.22,5.93,5.93,0,0,1-1.11-.09,1.25,1.25,0,0,0-.66.43.87.87,0,0,0-.19.54.65.65,0,0,0,.32.64,1.87,1.87,0,0,0,.86.17h2.55a3.68,3.68,0,0,1,2.47.73,2.49,2.49,0,0,1,.86,2,3,3,0,0,1-.35,1.45,3.34,3.34,0,0,1-1,1.09,5,5,0,0,1-1.58.69,8.39,8.39,0,0,1-2.09.24,6.47,6.47,0,0,1-3.35-.75,2.46,2.46,0,0,1-1.25-2.22,1.77,1.77,0,0,1,.49-1.28,3,3,0,0,1,1.26-.79,2.08,2.08,0,0,1-.61-.61,1.51,1.51,0,0,1-.21-.85,1.69,1.69,0,0,1,.38-1.1,2.68,2.68,0,0,1,1-.72,3,3,0,0,1-1.29-1.08A3.29,3.29,0,0,1,279.71,484Zm2.21,6.48a1.57,1.57,0,0,0-1.06,1.49c0,1.21,1,1.81,2.93,1.81a5.64,5.64,0,0,0,1.47-.16,3.25,3.25,0,0,0,1-.43,1.82,1.82,0,0,0,.55-.6,1.52,1.52,0,0,0,.17-.68,1.14,1.14,0,0,0-.59-1.15,3.35,3.35,0,0,0-1.47-.28Zm3.77-6.44a2.13,2.13,0,0,0-.56-1.61,2.46,2.46,0,0,0-3,0,2,2,0,0,0-.56,1.53,2,2,0,0,0,.56,1.58,2.16,2.16,0,0,0,1.5.51,2.21,2.21,0,0,0,1.5-.5A1.92,1.92,0,0,0,285.69,484Z"/><path class="cls-1" d="M298.85,485.81h-7v.08a3.36,3.36,0,0,0,.87,2.48,3.25,3.25,0,0,0,2.39.86,7.27,7.27,0,0,0,1.39-.12,7.64,7.64,0,0,0,1.33-.41l.37,1.34a6.72,6.72,0,0,1-1.41.43,8.78,8.78,0,0,1-1.74.17,6.56,6.56,0,0,1-2-.29,4.29,4.29,0,0,1-1.62-.9,4.1,4.1,0,0,1-1.11-1.56,5.76,5.76,0,0,1-.4-2.27,5.9,5.9,0,0,1,.34-2.06,4.65,4.65,0,0,1,1-1.58,4.32,4.32,0,0,1,1.49-1,5.21,5.21,0,0,1,2-.36,4.33,4.33,0,0,1,1.68.31,3.59,3.59,0,0,1,1.29.87,3.78,3.78,0,0,1,.82,1.34,5,5,0,0,1,.29,1.73Zm-1.88-1.3a3.56,3.56,0,0,0-.13-1,2.53,2.53,0,0,0-.41-.82,2,2,0,0,0-.72-.55,2.34,2.34,0,0,0-1-.21,2.47,2.47,0,0,0-1.84.72,3.25,3.25,0,0,0-.88,1.9Z"/><path class="cls-1" d="M301.42,490.64a1,1,0,0,1-.8-.46,1.49,1.49,0,0,1-.27-.86,1.31,1.31,0,0,1,.34-.89,1.21,1.21,0,0,1,1-.39,1.89,1.89,0,0,1,.51.07,1,1,0,0,1,.47.29,1.7,1.7,0,0,1,.36.6,2.77,2.77,0,0,1,.15,1,3.57,3.57,0,0,1-.64,2,4.69,4.69,0,0,1-1.63,1.47l-.6-.83a3.66,3.66,0,0,0,1-.77,2.56,2.56,0,0,0,.56-1.21Z"/><path class="cls-1" d="M27.38,506.57l-5.14,7.28h5.25v1.36H20V514.1l5.13-7.22H20.37v-1.36h7Z"/><path class="cls-1" d="M37.29,510.57H30.34v.08a3.34,3.34,0,0,0,.87,2.48,3.25,3.25,0,0,0,2.39.87,6.51,6.51,0,0,0,1.39-.13,7.64,7.64,0,0,0,1.33-.41l.37,1.34a6.72,6.72,0,0,1-1.41.43,8.78,8.78,0,0,1-1.74.17,6.56,6.56,0,0,1-2-.29,4.29,4.29,0,0,1-1.62-.9,4.14,4.14,0,0,1-1.11-1.55,5.79,5.79,0,0,1-.4-2.27,5.91,5.91,0,0,1,.34-2.07,4.65,4.65,0,0,1,1-1.58,4.32,4.32,0,0,1,1.49-1,5.21,5.21,0,0,1,2-.36,4.33,4.33,0,0,1,1.68.31A3.68,3.68,0,0,1,37,507.89a5,5,0,0,1,.29,1.73Zm-1.88-1.3a3.56,3.56,0,0,0-.13-1,2.38,2.38,0,0,0-.41-.81,2,2,0,0,0-.72-.56,2.34,2.34,0,0,0-1-.21,2.47,2.47,0,0,0-1.84.72,3.27,3.27,0,0,0-.88,1.9Z"/><path class="cls-1" d="M40.34,503a1.13,1.13,0,0,1-.81-.32,1,1,0,0,1-.34-.8,1.07,1.07,0,0,1,.34-.8,1.1,1.1,0,0,1,.81-.33,1.17,1.17,0,0,1,.81.33,1.08,1.08,0,0,1,.35.8,1,1,0,0,1-.35.8A1.2,1.2,0,0,1,40.34,503Zm-.91,12.19v-9.69h1.82v9.69Z"/><path class="cls-1" d="M49.08,506.88H46.23v5.63a1.1,1.1,0,0,0,.36,1,1.58,1.58,0,0,0,.94.25,5.18,5.18,0,0,0,.91-.09,8.87,8.87,0,0,0,.86-.22l.29,1.38a5.71,5.71,0,0,1-1.05.29,7.26,7.26,0,0,1-1.34.12,3,3,0,0,1-2.11-.63,2.37,2.37,0,0,1-.66-1.82v-5.88H43v-1.36h1.44v-3.1h1.8v3.1h2.85Z"/><path class="cls-1" d="M51,508.73a3.45,3.45,0,0,1,.29-1.43,2.84,2.84,0,0,1,.82-1.06,3.42,3.42,0,0,1,1.24-.65,5.32,5.32,0,0,1,1.57-.22,3.86,3.86,0,0,1,.6,0c.19,0,.39.06.58.11h4.19v1.34h-.64L58,506.63a3.15,3.15,0,0,1,.61.95,3.1,3.1,0,0,1,.21,1.13,3.31,3.31,0,0,1-.29,1.44,3,3,0,0,1-.8,1.06,3.42,3.42,0,0,1-1.24.65,5.57,5.57,0,0,1-1.57.22,7.12,7.12,0,0,1-1.11-.08,1.3,1.3,0,0,0-.66.42A.87.87,0,0,0,53,513a.65.65,0,0,0,.32.64,1.87,1.87,0,0,0,.86.17h2.56a3.67,3.67,0,0,1,2.46.73,2.49,2.49,0,0,1,.86,2,3,3,0,0,1-.35,1.45,3.34,3.34,0,0,1-1,1.09,5,5,0,0,1-1.58.69A8.34,8.34,0,0,1,55,520a6.47,6.47,0,0,1-3.35-.75A2.46,2.46,0,0,1,50.43,517a1.77,1.77,0,0,1,.49-1.28,3.06,3.06,0,0,1,1.27-.79,2.23,2.23,0,0,1-.62-.6,1.56,1.56,0,0,1-.21-.86,1.64,1.64,0,0,1,.38-1.09,2.64,2.64,0,0,1,1-.73,2.85,2.85,0,0,1-1.29-1.08A3.27,3.27,0,0,1,51,508.73Zm2.21,6.48a1.57,1.57,0,0,0-1.05,1.49c0,1.21,1,1.82,2.93,1.82a5.52,5.52,0,0,0,1.46-.17,3,3,0,0,0,1-.43,1.82,1.82,0,0,0,.55-.6,1.4,1.4,0,0,0,.17-.68,1.14,1.14,0,0,0-.58-1.15,3.58,3.58,0,0,0-1.48-.28ZM57,508.78a2.06,2.06,0,0,0-.57-1.61,2.12,2.12,0,0,0-1.5-.52,2.08,2.08,0,0,0-1.49.52,1.94,1.94,0,0,0-.57,1.52,2,2,0,0,0,.57,1.58,2.12,2.12,0,0,0,1.49.51,2.21,2.21,0,0,0,1.5-.5A1.88,1.88,0,0,0,57,508.78Z"/><path class="cls-1" d="M70.17,510.57h-7v.08a3.31,3.31,0,0,0,.88,2.48,3.23,3.23,0,0,0,2.38.87,6.44,6.44,0,0,0,1.39-.13,7.64,7.64,0,0,0,1.33-.41l.38,1.34a6.64,6.64,0,0,1-1.42.43,8.7,8.7,0,0,1-1.74.17,6.61,6.61,0,0,1-2-.29,4.45,4.45,0,0,1-1.62-.9,4.14,4.14,0,0,1-1.11-1.55,6,6,0,0,1-.4-2.27,6.15,6.15,0,0,1,.34-2.07,4.65,4.65,0,0,1,1-1.58,4.27,4.27,0,0,1,1.5-1,5.12,5.12,0,0,1,2-.36,4.3,4.3,0,0,1,1.68.31,3.73,3.73,0,0,1,2.12,2.21,5,5,0,0,1,.28,1.73Zm-1.87-1.3a3.55,3.55,0,0,0-.14-1,2.21,2.21,0,0,0-.41-.81,2,2,0,0,0-.71-.56,2.4,2.4,0,0,0-1.05-.21,2.48,2.48,0,0,0-1.85.72,3.27,3.27,0,0,0-.88,1.9Z"/><path class="cls-1" d="M74,515.21H72.2v-9.69h1.4l.27,1.34a5.73,5.73,0,0,1,1.46-1.09,4.07,4.07,0,0,1,1.88-.4,3.09,3.09,0,0,1,1.69.42,2.6,2.6,0,0,1,1,1.17,5.48,5.48,0,0,1,1.58-1.18,4.5,4.5,0,0,1,1.92-.41,2.85,2.85,0,0,1,2.24.84,3.34,3.34,0,0,1,.76,2.32v6.68H84.58v-6.35a2.38,2.38,0,0,0-.41-1.49,1.67,1.67,0,0,0-1.37-.51,3.64,3.64,0,0,0-2.62,1.26.64.64,0,0,1,0,.2v6.89H78.39v-6.35a2.38,2.38,0,0,0-.41-1.49,1.67,1.67,0,0,0-1.37-.51,3.5,3.5,0,0,0-2.6,1.32Z"/><path class="cls-1" d="M89.07,506.38l.93-.44a6.11,6.11,0,0,1,.87-.32,6.38,6.38,0,0,1,.89-.19,7.52,7.52,0,0,1,1-.06,5.69,5.69,0,0,1,1.47.18,2.88,2.88,0,0,1,1.16.58,2.79,2.79,0,0,1,.75,1.09,4.55,4.55,0,0,1,.27,1.68v6.31H94.89l-.22-1.07h0a3.7,3.7,0,0,1-1.4,1,4.79,4.79,0,0,1-1.69.29,4.06,4.06,0,0,1-1.29-.2,3.13,3.13,0,0,1-1-.55,2.52,2.52,0,0,1-.67-.88,2.7,2.7,0,0,1-.24-1.16,2.6,2.6,0,0,1,1.21-2.32,5.69,5.69,0,0,1,3.19-.79h1.85v-.83a1.66,1.66,0,0,0-.53-1.43,2.42,2.42,0,0,0-1.45-.38,5.39,5.39,0,0,0-1.23.17,6.81,6.81,0,0,0-1.57.67Zm1.06-4a.94.94,0,0,1,.31-.7,1,1,0,0,1,.72-.31,1,1,0,0,1,.72.31.94.94,0,0,1,.31.7,1,1,0,0,1-.31.73,1,1,0,0,1-.72.32,1,1,0,0,1-.72-.32A1,1,0,0,1,90.13,502.36Zm4.45,8.38-1.52,0a3.81,3.81,0,0,0-2.2.54,1.53,1.53,0,0,0-.65,1.23,1.76,1.76,0,0,0,.14.73,1.29,1.29,0,0,0,.38.47,1.67,1.67,0,0,0,.56.24,3.62,3.62,0,0,0,.67.07,3.39,3.39,0,0,0,1.39-.32,3.29,3.29,0,0,0,1.23-1Zm-1-8.38a.94.94,0,0,1,.31-.7,1,1,0,0,1,1.76.7,1,1,0,0,1-.31.73,1,1,0,0,1-1.76-.73Z"/><path class="cls-1" d="M104.36,507.33a5.38,5.38,0,0,0-1.24-.45,4.67,4.67,0,0,0-1.11-.13,2.45,2.45,0,0,0-1.47.36,1.18,1.18,0,0,0-.47,1,1,1,0,0,0,.33.76,3.71,3.71,0,0,0,1.38.63l.62.18a5.42,5.42,0,0,1,2.1,1.07,2.28,2.28,0,0,1,.71,1.76,2.61,2.61,0,0,1-1,2.12,4.2,4.2,0,0,1-2.74.81,9.35,9.35,0,0,1-1.78-.17,6.64,6.64,0,0,1-1.48-.45l.44-1.42a7.11,7.11,0,0,0,1.3.46,5.64,5.64,0,0,0,1.42.18,2.87,2.87,0,0,0,1.48-.33,1.19,1.19,0,0,0,.54-1.1,1,1,0,0,0-.47-.94,7.06,7.06,0,0,0-1.36-.54l-.64-.21a4.92,4.92,0,0,1-2-1.08,2.27,2.27,0,0,1-.65-1.68,2.39,2.39,0,0,1,.26-1.14,2.69,2.69,0,0,1,.74-.87,3.53,3.53,0,0,1,1.1-.54,4.78,4.78,0,0,1,1.4-.2,9.92,9.92,0,0,1,1.5.13,6,6,0,0,1,1.47.45Z"/><path class="cls-1" d="M112.59,507.33a5.55,5.55,0,0,0-1.24-.45,4.67,4.67,0,0,0-1.11-.13,2.45,2.45,0,0,0-1.47.36,1.18,1.18,0,0,0-.47,1,1,1,0,0,0,.33.76,3.71,3.71,0,0,0,1.38.63l.62.18a5.42,5.42,0,0,1,2.1,1.07,2.28,2.28,0,0,1,.71,1.76,2.61,2.61,0,0,1-1,2.12,4.2,4.2,0,0,1-2.74.81,9.35,9.35,0,0,1-1.78-.17,6.64,6.64,0,0,1-1.48-.45l.44-1.42a6.85,6.85,0,0,0,1.3.46,5.64,5.64,0,0,0,1.42.18,2.87,2.87,0,0,0,1.48-.33,1.19,1.19,0,0,0,.54-1.1,1,1,0,0,0-.47-.94,7.06,7.06,0,0,0-1.36-.54l-.64-.21a5,5,0,0,1-2-1.08,2.31,2.31,0,0,1-.65-1.68,2.4,2.4,0,0,1,.27-1.14,2.69,2.69,0,0,1,.74-.87,3.42,3.42,0,0,1,1.1-.54,4.78,4.78,0,0,1,1.4-.2,9.92,9.92,0,0,1,1.5.13A6.11,6.11,0,0,1,113,506Z"/><path class="cls-1" d="M123.74,510.57h-6.95v.08a3.31,3.31,0,0,0,.88,2.48,3.21,3.21,0,0,0,2.38.87,6.44,6.44,0,0,0,1.39-.13,7.64,7.64,0,0,0,1.33-.41l.37,1.34a6.72,6.72,0,0,1-1.41.43,8.7,8.7,0,0,1-1.74.17,6.61,6.61,0,0,1-2-.29,4.29,4.29,0,0,1-1.62-.9,4.14,4.14,0,0,1-1.11-1.55,5.79,5.79,0,0,1-.4-2.27,5.91,5.91,0,0,1,.34-2.07,4.65,4.65,0,0,1,1-1.58,4.27,4.27,0,0,1,1.5-1,5.12,5.12,0,0,1,2-.36,4.3,4.3,0,0,1,1.68.31,3.86,3.86,0,0,1,1.29.87,3.72,3.72,0,0,1,.82,1.34,4.8,4.8,0,0,1,.29,1.73Zm-1.88-1.3a3.56,3.56,0,0,0-.13-1,2.38,2.38,0,0,0-.41-.81,2.06,2.06,0,0,0-.71-.56,2.41,2.41,0,0,0-1.06-.21,2.47,2.47,0,0,0-1.84.72,3.27,3.27,0,0,0-.88,1.9Z"/><path class="cls-1" d="M126.31,515.4a1.07,1.07,0,0,1-.8-.45,1.52,1.52,0,0,1-.27-.87,1.31,1.31,0,0,1,.34-.89,1.21,1.21,0,0,1,1-.39,1.84,1.84,0,0,1,.51.07,1.12,1.12,0,0,1,.47.29,1.57,1.57,0,0,1,.36.6,2.77,2.77,0,0,1,.15,1,3.57,3.57,0,0,1-.64,2,4.69,4.69,0,0,1-1.63,1.47l-.6-.83a3.5,3.5,0,0,0,1-.77,2.51,2.51,0,0,0,.56-1.21Z"/><path class="cls-1" d="M136.46,515.21h-1.81V500.56h1.81v6.19a6.56,6.56,0,0,1,1.51-1,4.22,4.22,0,0,1,1.82-.39,3.77,3.77,0,0,1,1.4.24,2.57,2.57,0,0,1,1,.66,2.83,2.83,0,0,1,.58,1,3.87,3.87,0,0,1,.19,1.26v6.68h-1.81V509a2.36,2.36,0,0,0-.46-1.62,1.78,1.78,0,0,0-1.38-.5,3.06,3.06,0,0,0-1.41.35,5.9,5.9,0,0,0-1.42,1Z"/><path class="cls-1" d="M152,505.52h1.82v9.69h-1.43l-.24-1.21h-.09a4.39,4.39,0,0,1-1.33,1,4,4,0,0,1-1.84.4,3.5,3.5,0,0,1-2.45-.86,3.31,3.31,0,0,1-.94-2.59v-6.43h1.82v6.21a3.24,3.24,0,0,0,.15,1,1.91,1.91,0,0,0,.41.69,1.54,1.54,0,0,0,.61.37,2.39,2.39,0,0,0,.77.12,3,3,0,0,0,1.48-.36,4.84,4.84,0,0,0,1.26-1Z"/><path class="cls-1" d="M158.27,515.21h-1.81v-9.69h1.4l.27,1.34a5.73,5.73,0,0,1,1.46-1.09,4,4,0,0,1,1.88-.4,3.09,3.09,0,0,1,1.69.42,2.64,2.64,0,0,1,1,1.17,5.39,5.39,0,0,1,1.59-1.18,4.5,4.5,0,0,1,1.92-.41,2.85,2.85,0,0,1,2.24.84,3.34,3.34,0,0,1,.75,2.32v6.68h-1.81v-6.35a2.32,2.32,0,0,0-.42-1.49,1.65,1.65,0,0,0-1.36-.51,3.62,3.62,0,0,0-2.62,1.26,1.23,1.23,0,0,1,0,.2v6.89h-1.81v-6.35a2.32,2.32,0,0,0-.42-1.49,1.65,1.65,0,0,0-1.36-.51,3.5,3.5,0,0,0-2.6,1.32Z"/><path class="cls-1" d="M173.33,506.38l.93-.44a6.11,6.11,0,0,1,.87-.32,6.24,6.24,0,0,1,.88-.19,7.74,7.74,0,0,1,1-.06,5.72,5.72,0,0,1,1.48.18,2.78,2.78,0,0,1,1.15.58,2.71,2.71,0,0,1,.76,1.09,4.55,4.55,0,0,1,.27,1.68v6.31h-1.51l-.23-1.07h0a3.77,3.77,0,0,1-1.4,1,4.79,4.79,0,0,1-1.69.29,4.06,4.06,0,0,1-1.29-.2,2.94,2.94,0,0,1-1-.55,2.54,2.54,0,0,1-.68-.88,2.86,2.86,0,0,1-.23-1.16,2.62,2.62,0,0,1,1.2-2.32,5.73,5.73,0,0,1,3.19-.79h1.86v-.83a1.64,1.64,0,0,0-.54-1.43,2.39,2.39,0,0,0-1.44-.38,5.39,5.39,0,0,0-1.23.17,6.86,6.86,0,0,0-1.58.67Zm5.51,4.36-1.53,0a3.79,3.79,0,0,0-2.19.54,1.5,1.5,0,0,0-.65,1.23,1.61,1.61,0,0,0,.14.73,1.2,1.2,0,0,0,.38.47,1.67,1.67,0,0,0,.56.24,3.62,3.62,0,0,0,.67.07,3.38,3.38,0,0,0,1.38-.32,3.31,3.31,0,0,0,1.24-1Z"/><path class="cls-1" d="M185,515.21h-1.81v-9.69h1.42l.27,1.34a5.48,5.48,0,0,1,1.51-1.11,4.24,4.24,0,0,1,1.83-.38,3.15,3.15,0,0,1,2.33.84,3.08,3.08,0,0,1,.85,2.32v6.68h-1.82V508.8a2.07,2.07,0,0,0-.46-1.42,1.79,1.79,0,0,0-1.42-.52,3.72,3.72,0,0,0-2.7,1.3Z"/><path class="cls-1" d="M195,503a1.15,1.15,0,0,1-.81-.32,1,1,0,0,1-.34-.8,1.07,1.07,0,0,1,.34-.8,1.12,1.12,0,0,1,.81-.33,1.17,1.17,0,0,1,.81.33,1.08,1.08,0,0,1,.35.8,1,1,0,0,1-.35.8A1.2,1.2,0,0,1,195,503Zm-.91,12.19v-9.69H196v9.69Z"/><path class="cls-1" d="M204.06,507.33a5.55,5.55,0,0,0-1.24-.45,4.67,4.67,0,0,0-1.11-.13,2.45,2.45,0,0,0-1.47.36,1.18,1.18,0,0,0-.47,1,1,1,0,0,0,.33.76,3.71,3.71,0,0,0,1.38.63l.62.18a5.42,5.42,0,0,1,2.1,1.07,2.28,2.28,0,0,1,.71,1.76,2.61,2.61,0,0,1-1,2.12,4.2,4.2,0,0,1-2.74.81,9.35,9.35,0,0,1-1.78-.17,6.64,6.64,0,0,1-1.48-.45l.44-1.42a6.85,6.85,0,0,0,1.3.46,5.64,5.64,0,0,0,1.42.18,2.87,2.87,0,0,0,1.48-.33,1.19,1.19,0,0,0,.54-1.1,1,1,0,0,0-.47-.94,7.06,7.06,0,0,0-1.36-.54l-.64-.21a5,5,0,0,1-2-1.08,2.3,2.3,0,0,1-.64-1.68,2.39,2.39,0,0,1,.26-1.14,2.69,2.69,0,0,1,.74-.87,3.42,3.42,0,0,1,1.1-.54,4.78,4.78,0,0,1,1.4-.2,9.92,9.92,0,0,1,1.5.13,6.11,6.11,0,0,1,1.47.45Z"/><path class="cls-1" d="M212.1,506.88h-2.85v5.63a1.1,1.1,0,0,0,.36,1,1.58,1.58,0,0,0,.94.25,5.18,5.18,0,0,0,.91-.09,8.17,8.17,0,0,0,.86-.22l.29,1.38a5.49,5.49,0,0,1-1.05.29,7.26,7.26,0,0,1-1.34.12,3,3,0,0,1-2.11-.63,2.37,2.37,0,0,1-.66-1.82v-5.88H206v-1.36h1.44v-3.1h1.8v3.1h2.85Z"/><path class="cls-1" d="M215.36,503a1.13,1.13,0,0,1-.81-.32,1,1,0,0,1-.34-.8,1.07,1.07,0,0,1,.34-.8,1.1,1.1,0,0,1,.81-.33,1.17,1.17,0,0,1,.81.33,1.08,1.08,0,0,1,.35.8,1,1,0,0,1-.35.8A1.2,1.2,0,0,1,215.36,503Zm-.91,12.19v-9.69h1.82v9.69Z"/><path class="cls-1" d="M224.38,507.33a5.55,5.55,0,0,0-1.24-.45,4.67,4.67,0,0,0-1.11-.13,2.45,2.45,0,0,0-1.47.36,1.18,1.18,0,0,0-.47,1,1,1,0,0,0,.33.76,3.71,3.71,0,0,0,1.38.63l.62.18a5.3,5.3,0,0,1,2.09,1.07,2.25,2.25,0,0,1,.72,1.76,2.61,2.61,0,0,1-1,2.12,4.2,4.2,0,0,1-2.74.81,9.35,9.35,0,0,1-1.78-.17,6.48,6.48,0,0,1-1.48-.45l.44-1.42a6.85,6.85,0,0,0,1.3.46,5.64,5.64,0,0,0,1.42.18,2.81,2.81,0,0,0,1.47-.33,1.18,1.18,0,0,0,.55-1.1,1,1,0,0,0-.47-.94,6.94,6.94,0,0,0-1.37-.54l-.63-.21a5,5,0,0,1-2-1.08,2.31,2.31,0,0,1-.65-1.68,2.4,2.4,0,0,1,.27-1.14,2.65,2.65,0,0,1,.73-.87,3.59,3.59,0,0,1,1.11-.54,4.73,4.73,0,0,1,1.4-.2,9.92,9.92,0,0,1,1.5.13,6.11,6.11,0,0,1,1.47.45Z"/><path class="cls-1" d="M231.87,514a4,4,0,0,0,1.15-.15,5.7,5.7,0,0,0,1-.37l.39,1.36a5.9,5.9,0,0,1-2.66.56,6,6,0,0,1-2-.31,4.56,4.56,0,0,1-1.61-.94,4.32,4.32,0,0,1-1.08-1.57,5.67,5.67,0,0,1-.39-2.19,5.56,5.56,0,0,1,.37-2.09,4.39,4.39,0,0,1,2.62-2.58,5.82,5.82,0,0,1,2-.35,8.55,8.55,0,0,1,1.25.09,5.55,5.55,0,0,1,1.39.45l-.41,1.38a4,4,0,0,0-2-.54,3.3,3.3,0,0,0-2.44.94,3.59,3.59,0,0,0-.93,2.63,4.69,4.69,0,0,0,.29,1.76,3,3,0,0,0,.77,1.12,2.79,2.79,0,0,0,1.07.61A4.2,4.2,0,0,0,231.87,514Z"/><path class="cls-1" d="M238,515.21h-1.82V500.56H238v6.19a6.35,6.35,0,0,1,1.51-1,4.17,4.17,0,0,1,1.81-.39,3.78,3.78,0,0,1,1.41.24,2.73,2.73,0,0,1,1,.66,2.81,2.81,0,0,1,.57,1,3.87,3.87,0,0,1,.2,1.26v6.68h-1.82V509a2.41,2.41,0,0,0-.45-1.62,1.78,1.78,0,0,0-1.38-.5,3.13,3.13,0,0,0-1.42.35,6.06,6.06,0,0,0-1.41,1Z"/><path class="cls-1" d="M255.37,510.57h-7v.08a3.35,3.35,0,0,0,.88,2.48,3.24,3.24,0,0,0,2.38.87,6.54,6.54,0,0,0,1.4-.13,7.91,7.91,0,0,0,1.33-.41l.37,1.34a6.72,6.72,0,0,1-1.41.43,8.88,8.88,0,0,1-1.75.17,6.61,6.61,0,0,1-2-.29,4.45,4.45,0,0,1-1.62-.9,4.12,4.12,0,0,1-1.1-1.55,5.79,5.79,0,0,1-.41-2.27,5.91,5.91,0,0,1,.35-2.07,4.28,4.28,0,0,1,2.45-2.59,5.16,5.16,0,0,1,2-.36,4.3,4.3,0,0,1,1.68.31,3.67,3.67,0,0,1,1.29.87,3.75,3.75,0,0,1,.83,1.34,5,5,0,0,1,.29,1.73Zm-1.88-1.3a4,4,0,0,0-.13-1,2.23,2.23,0,0,0-.42-.81,1.89,1.89,0,0,0-.71-.56,2.4,2.4,0,0,0-1-.21,2.49,2.49,0,0,0-1.85.72,3.27,3.27,0,0,0-.87,1.9Z"/><path class="cls-1" d="M268.59,505.52h1.82v9.69H269l-.25-1.21h-.08a4.65,4.65,0,0,1-1.33,1,4.06,4.06,0,0,1-1.85.4,3.5,3.5,0,0,1-2.45-.86,3.35,3.35,0,0,1-.94-2.59v-6.43h1.82v6.21a3.24,3.24,0,0,0,.15,1,1.8,1.8,0,0,0,.42.69,1.42,1.42,0,0,0,.61.37,2.29,2.29,0,0,0,.76.12,3,3,0,0,0,1.48-.36,4.68,4.68,0,0,0,1.26-1Z"/><path class="cls-1" d="M274.84,515.21H273v-9.69h1.42l.27,1.34a5.52,5.52,0,0,1,1.52-1.11,4.23,4.23,0,0,1,1.82-.38,3.15,3.15,0,0,1,2.33.84,3.08,3.08,0,0,1,.85,2.32v6.68h-1.82V508.8a2.07,2.07,0,0,0-.46-1.42,1.78,1.78,0,0,0-1.41-.52,3.73,3.73,0,0,0-2.71,1.3Z"/><path class="cls-1" d="M290.37,500.56h1.81v14.65h-1.53l-.22-1.07h-.06a4.49,4.49,0,0,1-1.29,1,3.94,3.94,0,0,1-1.64.3,3.79,3.79,0,0,1-1.52-.31,3.84,3.84,0,0,1-1.31-.93,4.43,4.43,0,0,1-.93-1.56,6.37,6.37,0,0,1-.35-2.21,6.72,6.72,0,0,1,.3-2.07,4.65,4.65,0,0,1,.85-1.59,3.82,3.82,0,0,1,1.37-1,4.59,4.59,0,0,1,1.83-.35,4.43,4.43,0,0,1,1.46.24,3.6,3.6,0,0,1,1.23.71Zm0,7.29a3,3,0,0,0-2.29-1.1,3.1,3.1,0,0,0-1.09.2,2.4,2.4,0,0,0-.93.63,3.32,3.32,0,0,0-.65,1.11,5,5,0,0,0-.24,1.63,5.48,5.48,0,0,0,.22,1.68,3.33,3.33,0,0,0,.61,1.14,2.34,2.34,0,0,0,.87.65,2.43,2.43,0,0,0,1,.21,3,3,0,0,0,2.52-1.34Z"/><path class="cls-1" d="M22.72,540H20.9v-9.7h1.41l.26,1.34A5.67,5.67,0,0,1,24,530.54a4,4,0,0,1,1.88-.41,3,3,0,0,1,1.69.43,2.61,2.61,0,0,1,1,1.16,5.19,5.19,0,0,1,1.59-1.17,4.36,4.36,0,0,1,1.92-.42,2.87,2.87,0,0,1,2.24.84,3.35,3.35,0,0,1,.75,2.32V540H33.28v-6.36a2.32,2.32,0,0,0-.41-1.49,1.65,1.65,0,0,0-1.36-.51,3.6,3.6,0,0,0-2.62,1.26,1.36,1.36,0,0,1,0,.2V540H27.09v-6.36a2.32,2.32,0,0,0-.41-1.49,1.65,1.65,0,0,0-1.36-.51,3.49,3.49,0,0,0-2.6,1.32Z"/><path class="cls-1" d="M46.65,535a6.19,6.19,0,0,1-.37,2.18,4.64,4.64,0,0,1-1,1.62,4.38,4.38,0,0,1-1.51,1,5.06,5.06,0,0,1-1.88.34,5.4,5.4,0,0,1-1.87-.32,4,4,0,0,1-1.48-1,4.39,4.39,0,0,1-1-1.55,5.52,5.52,0,0,1-.37-2.11,5.91,5.91,0,0,1,.38-2.17,4.41,4.41,0,0,1,2.53-2.59,5.27,5.27,0,0,1,1.88-.34,5.6,5.6,0,0,1,1.87.31,4.17,4.17,0,0,1,1.49.93,4.64,4.64,0,0,1,1,1.54A5.76,5.76,0,0,1,46.65,535Zm-1.9.11a4.7,4.7,0,0,0-.25-1.65,3.12,3.12,0,0,0-.65-1.12,2.37,2.37,0,0,0-.92-.63,2.91,2.91,0,0,0-1-.19,3.39,3.39,0,0,0-1.05.16,2.06,2.06,0,0,0-.91.58,3,3,0,0,0-.63,1.1,5.39,5.39,0,0,0-.24,1.75,5.09,5.09,0,0,0,.25,1.66,3.28,3.28,0,0,0,.65,1.12,2.51,2.51,0,0,0,.92.64,2.73,2.73,0,0,0,1.05.21,3.13,3.13,0,0,0,1-.18,2,2,0,0,0,.91-.6,3.11,3.11,0,0,0,.63-1.11A5.37,5.37,0,0,0,44.75,535.13Z"/><path class="cls-1" d="M50.54,540H48.73v-9.7h1.42l.27,1.34a5.69,5.69,0,0,1,1.51-1.11,4.24,4.24,0,0,1,1.83-.38,3.15,3.15,0,0,1,2.33.84,3.1,3.1,0,0,1,.85,2.32V540H55.12v-6.42a2.09,2.09,0,0,0-.46-1.42,1.79,1.79,0,0,0-1.42-.52,3.72,3.72,0,0,0-2.7,1.3Z"/><path class="cls-1" d="M68.48,535a6,6,0,0,1-.37,2.18,4.48,4.48,0,0,1-1,1.62,4.38,4.38,0,0,1-1.51,1,5.06,5.06,0,0,1-1.88.34,5.36,5.36,0,0,1-1.87-.32,4.09,4.09,0,0,1-1.49-1,4.39,4.39,0,0,1-1-1.55,5.72,5.72,0,0,1-.36-2.11,6.13,6.13,0,0,1,.37-2.17,4.64,4.64,0,0,1,1-1.6,4.4,4.4,0,0,1,1.51-1,5.27,5.27,0,0,1,1.88-.34,5.64,5.64,0,0,1,1.87.31,4.13,4.13,0,0,1,1.48.93,4.35,4.35,0,0,1,1,1.54A5.76,5.76,0,0,1,68.48,535Zm-1.89.11a4.94,4.94,0,0,0-.25-1.65,3.28,3.28,0,0,0-.65-1.12,2.45,2.45,0,0,0-.92-.63,2.91,2.91,0,0,0-1-.19,3.39,3.39,0,0,0-1,.16,2.06,2.06,0,0,0-.91.58,3,3,0,0,0-.63,1.1,5.39,5.39,0,0,0-.24,1.75,4.83,4.83,0,0,0,.25,1.66,3.12,3.12,0,0,0,.65,1.12,2.51,2.51,0,0,0,.92.64,2.73,2.73,0,0,0,1,.21,3.13,3.13,0,0,0,1.05-.18,2,2,0,0,0,.91-.6,3.11,3.11,0,0,0,.63-1.11A5.37,5.37,0,0,0,66.59,535.13Z"/><path class="cls-1" d="M70.62,540V525.33H72.4V540Z"/><path class="cls-1" d="M76.11,527.78a1.17,1.17,0,0,1-.82-.32,1,1,0,0,1-.34-.79,1.07,1.07,0,0,1,.34-.81,1.14,1.14,0,0,1,.82-.33,1.13,1.13,0,0,1,.8.33,1.08,1.08,0,0,1,.35.81,1,1,0,0,1-.35.79A1.16,1.16,0,0,1,76.11,527.78ZM75.2,540v-9.7H77V540Z"/><path class="cls-1" d="M81.53,540H79.71v-9.7h1.42l.27,1.34a5.73,5.73,0,0,1,1.52-1.11,4.23,4.23,0,0,1,1.82-.38,3.18,3.18,0,0,1,2.34.84,3.13,3.13,0,0,1,.84,2.32V540H86.11v-6.42a2.1,2.1,0,0,0-.47-1.42,1.78,1.78,0,0,0-1.41-.52,3.71,3.71,0,0,0-2.7,1.3Z"/><path class="cls-1" d="M98.83,535.33h-7v.09a3.34,3.34,0,0,0,.87,2.47,3.25,3.25,0,0,0,2.39.87,6.51,6.51,0,0,0,1.39-.13,7.91,7.91,0,0,0,1.33-.41l.37,1.34a6.7,6.7,0,0,1-1.41.44,8.9,8.9,0,0,1-1.75.16,6.66,6.66,0,0,1-2-.29,4.45,4.45,0,0,1-1.62-.9,4.23,4.23,0,0,1-1.1-1.55,5.79,5.79,0,0,1-.4-2.27,5.91,5.91,0,0,1,.34-2.07,4.28,4.28,0,0,1,2.45-2.59,5.2,5.2,0,0,1,2-.36,4.58,4.58,0,0,1,1.69.31,3.68,3.68,0,0,1,2.11,2.21,5,5,0,0,1,.29,1.73ZM97,534a3.56,3.56,0,0,0-.13-1,2.38,2.38,0,0,0-.41-.81,2,2,0,0,0-.72-.56,2.4,2.4,0,0,0-1-.21,2.46,2.46,0,0,0-1.85.73,3.27,3.27,0,0,0-.87,1.89Z"/><path class="cls-1" d="M100.83,531.14l.92-.44a6.11,6.11,0,0,1,.87-.32,8.79,8.79,0,0,1,.89-.19,7.52,7.52,0,0,1,1-.06,5.58,5.58,0,0,1,1.47.18,2.72,2.72,0,0,1,1.16.59,2.68,2.68,0,0,1,.75,1.08,4.55,4.55,0,0,1,.27,1.68V540h-1.51l-.22-1.08h0a3.69,3.69,0,0,1-1.41,1,4.79,4.79,0,0,1-1.69.29A3.8,3.8,0,0,1,102,540a3.13,3.13,0,0,1-1-.55,2.52,2.52,0,0,1-.67-.88,2.69,2.69,0,0,1-.24-1.15,2.61,2.61,0,0,1,1.21-2.33,5.71,5.71,0,0,1,3.19-.79h1.85v-.83a1.63,1.63,0,0,0-.53-1.43,2.49,2.49,0,0,0-1.45-.38,5.38,5.38,0,0,0-1.22.17,6.86,6.86,0,0,0-1.58.67Zm5.5,4.36-1.52,0a3.82,3.82,0,0,0-2.2.55,1.5,1.5,0,0,0-.65,1.22,1.81,1.81,0,0,0,.14.74,1.18,1.18,0,0,0,.39.46,1.61,1.61,0,0,0,.55.24,3,3,0,0,0,.67.07,3.39,3.39,0,0,0,1.39-.32,3.19,3.19,0,0,0,1.23-1Z"/><path class="cls-1" d="M110.66,540v-9.7H112l.31,1.94a3.27,3.27,0,0,1,1.16-1.51,3.14,3.14,0,0,1,1.86-.58,4.26,4.26,0,0,1,.88.08,4.37,4.37,0,0,1,.64.21l-.35,1.59a3.79,3.79,0,0,0-.54-.21,3,3,0,0,0-.72-.08,2.84,2.84,0,0,0-1.1.21,2.47,2.47,0,0,0-.89.62,3,3,0,0,0-.6,1,4.23,4.23,0,0,0-.21,1.39v5Z"/><path class="cls-1" d="M126.42,535.33h-7v.09a3.34,3.34,0,0,0,.87,2.47,3.25,3.25,0,0,0,2.39.87,6.51,6.51,0,0,0,1.39-.13,7.64,7.64,0,0,0,1.33-.41l.37,1.34a6.7,6.7,0,0,1-1.41.44,8.79,8.79,0,0,1-1.74.16,6.67,6.67,0,0,1-2-.29,4.45,4.45,0,0,1-1.62-.9,4.23,4.23,0,0,1-1.1-1.55,5.79,5.79,0,0,1-.4-2.27,5.91,5.91,0,0,1,.34-2.07,4.65,4.65,0,0,1,1-1.58,4.32,4.32,0,0,1,1.49-1,5.2,5.2,0,0,1,2-.36,4.58,4.58,0,0,1,1.69.31,3.68,3.68,0,0,1,2.11,2.21,5,5,0,0,1,.29,1.73Zm-1.88-1.3a3.56,3.56,0,0,0-.13-1,2.38,2.38,0,0,0-.41-.81,2,2,0,0,0-.72-.56,2.37,2.37,0,0,0-1-.21,2.44,2.44,0,0,0-1.84.73,3.22,3.22,0,0,0-.88,1.89Z"/><path class="cls-1" d="M137.05,526.79a10.94,10.94,0,0,1,1.83.15,7.23,7.23,0,0,1,1.76.57l-.46,1.57a9.42,9.42,0,0,0-1.6-.59,6.39,6.39,0,0,0-1.45-.17,3.06,3.06,0,0,0-1.86.51,1.73,1.73,0,0,0-.68,1.45,1.65,1.65,0,0,0,.51,1.26,4.25,4.25,0,0,0,1.66.82l1.3.41a5,5,0,0,1,2.51,1.52A3.58,3.58,0,0,1,141,538a3.42,3.42,0,0,1-1,1.18,4.46,4.46,0,0,1-1.44.74,5.78,5.78,0,0,1-1.81.26,12.59,12.59,0,0,1-2-.17,8.47,8.47,0,0,1-2-.65l.46-1.55a8.72,8.72,0,0,0,1.73.64,7.42,7.42,0,0,0,1.78.2,3.38,3.38,0,0,0,1.89-.51,1.7,1.7,0,0,0,.79-1.53,2.17,2.17,0,0,0-.11-.69,1.74,1.74,0,0,0-.4-.61,2.9,2.9,0,0,0-.75-.54,8.14,8.14,0,0,0-1.2-.47l-1.3-.41a5.11,5.11,0,0,1-2.18-1.24,2.91,2.91,0,0,1-.77-2.13,3.45,3.45,0,0,1,1.13-2.71A4.76,4.76,0,0,1,137.05,526.79Z"/><path class="cls-1" d="M148.15,538.76a4,4,0,0,0,1.16-.15,6,6,0,0,0,1-.37l.39,1.36a5.77,5.77,0,0,1-2.66.56,6,6,0,0,1-2-.31,4.37,4.37,0,0,1-2.7-2.51,5.64,5.64,0,0,1-.39-2.19,5.56,5.56,0,0,1,.37-2.09,4.39,4.39,0,0,1,2.62-2.58,5.84,5.84,0,0,1,2.05-.35,7.24,7.24,0,0,1,1.24.1,5.67,5.67,0,0,1,1.4.44l-.42,1.38a4,4,0,0,0-2-.53,3.29,3.29,0,0,0-2.43.93,3.59,3.59,0,0,0-.93,2.63,4.5,4.5,0,0,0,.29,1.76,2.88,2.88,0,0,0,.76,1.12,2.73,2.73,0,0,0,1.07.61A3.93,3.93,0,0,0,148.15,538.76Z"/><path class="cls-1" d="M154.25,540h-1.81V525.33h1.81v6.19a7,7,0,0,1,1.51-1,4.22,4.22,0,0,1,1.82-.39,3.77,3.77,0,0,1,1.4.24,2.57,2.57,0,0,1,1,.66,2.92,2.92,0,0,1,.58,1,4,4,0,0,1,.19,1.26V540h-1.81v-6.24a2.36,2.36,0,0,0-.46-1.62,1.78,1.78,0,0,0-1.38-.5,3.19,3.19,0,0,0-1.41.35,5.9,5.9,0,0,0-1.42,1Z"/><path class="cls-1" d="M163.33,540v-9.7h1.36l.31,1.94a3.27,3.27,0,0,1,1.16-1.51,3.12,3.12,0,0,1,1.86-.58,4.26,4.26,0,0,1,.88.08,4.37,4.37,0,0,1,.64.21l-.35,1.59a3.51,3.51,0,0,0-.55-.21,2.9,2.9,0,0,0-.71-.08,2.84,2.84,0,0,0-1.1.21,2.47,2.47,0,0,0-.89.62,3,3,0,0,0-.6,1,4.23,4.23,0,0,0-.21,1.39v5Z"/><path class="cls-1" d="M172.1,527.78a1.17,1.17,0,0,1-.82-.32,1.07,1.07,0,0,1-.34-.79,1.11,1.11,0,0,1,.34-.81,1.14,1.14,0,0,1,.82-.33,1.13,1.13,0,0,1,.8.33,1,1,0,0,1,.35.81,1,1,0,0,1-.35.79A1.16,1.16,0,0,1,172.1,527.78Zm-.91,12.2v-9.7H173V540Z"/><path class="cls-1" d="M179.4,525.22a4.75,4.75,0,0,1,1.2.17,5.54,5.54,0,0,1,1.13.41l-.37,1.26a6,6,0,0,0-.79-.26,3.27,3.27,0,0,0-.78-.09,1.66,1.66,0,0,0-1.41.55,3.19,3.19,0,0,0-.43,1.9v1.12h3v1.36h-3V540h-1.79v-8.34h-1.43v-1.36h1.43v-1.72a3.45,3.45,0,0,1,.83-2.47A3.19,3.19,0,0,1,179.4,525.22Z"/><path class="cls-1" d="M188.11,531.64h-2.85v5.63a1.1,1.1,0,0,0,.36,1,1.6,1.6,0,0,0,.94.25,5.09,5.09,0,0,0,.91-.09c.33-.07.62-.14.87-.22l.28,1.38a5.49,5.49,0,0,1-1.05.29,7.17,7.17,0,0,1-1.34.13,3,3,0,0,1-2.1-.63,2.41,2.41,0,0,1-.66-1.83v-5.88H182v-1.36h1.45v-3.1h1.79v3.1h2.85Z"/><path class="cls-1" d="M194.24,525.22a4.75,4.75,0,0,1,1.2.17,5.54,5.54,0,0,1,1.13.41l-.37,1.26a6,6,0,0,0-.79-.26,3.33,3.33,0,0,0-.78-.09,1.69,1.69,0,0,0-1.42.55,3.27,3.27,0,0,0-.42,1.9v1.12h3v1.36h-3V540H191v-8.34h-1.43v-1.36H191v-1.72a3.4,3.4,0,0,1,.83-2.47A3.19,3.19,0,0,1,194.24,525.22Z"/><path class="cls-1" d="M197.4,531.14l.93-.44a6.11,6.11,0,0,1,.87-.32,8.6,8.6,0,0,1,.88-.19,7.74,7.74,0,0,1,1-.06,5.72,5.72,0,0,1,1.48.18,2.78,2.78,0,0,1,1.16.59,2.68,2.68,0,0,1,.75,1.08,4.55,4.55,0,0,1,.27,1.68V540h-1.51L203,538.9h0a3.59,3.59,0,0,1-1.4,1,4.79,4.79,0,0,1-1.69.29,3.8,3.8,0,0,1-1.29-.2,2.94,2.94,0,0,1-1-.55,2.4,2.4,0,0,1-.67-.88,2.69,2.69,0,0,1-.24-1.15,2.62,2.62,0,0,1,1.2-2.33,5.73,5.73,0,0,1,3.19-.79h1.86v-.83a1.64,1.64,0,0,0-.54-1.43,2.46,2.46,0,0,0-1.44-.38,5.39,5.39,0,0,0-1.23.17,6.86,6.86,0,0,0-1.58.67Zm5.51,4.36-1.53,0a3.78,3.78,0,0,0-2.19.55,1.47,1.47,0,0,0-.65,1.22,1.66,1.66,0,0,0,.14.74,1.16,1.16,0,0,0,.38.46,1.67,1.67,0,0,0,.56.24,2.93,2.93,0,0,0,.67.07,3.34,3.34,0,0,0,1.38-.32,3.22,3.22,0,0,0,1.24-1Z"/><path class="cls-1" d="M209.07,540h-1.82v-9.7h1.41l.26,1.34a5.67,5.67,0,0,1,1.47-1.08,4,4,0,0,1,1.88-.41,3,3,0,0,1,1.69.43,2.61,2.61,0,0,1,1,1.16,5.19,5.19,0,0,1,1.59-1.17,4.33,4.33,0,0,1,1.92-.42,2.87,2.87,0,0,1,2.24.84,3.35,3.35,0,0,1,.75,2.32V540h-1.82v-6.36a2.32,2.32,0,0,0-.41-1.49,1.65,1.65,0,0,0-1.36-.51,3.6,3.6,0,0,0-2.62,1.26,1.36,1.36,0,0,1,0,.2V540h-1.82v-6.36a2.38,2.38,0,0,0-.41-1.49,1.66,1.66,0,0,0-1.36-.51,3.49,3.49,0,0,0-2.6,1.32Z"/><path class="cls-1" d="M225.09,527.78a1.15,1.15,0,0,1-.81-.32,1,1,0,0,1-.34-.79,1.07,1.07,0,0,1,.34-.81,1.12,1.12,0,0,1,.81-.33,1.15,1.15,0,0,1,.81.33,1.08,1.08,0,0,1,.35.81,1,1,0,0,1-.35.79A1.19,1.19,0,0,1,225.09,527.78Zm-.91,12.2v-9.7H226V540Z"/><path class="cls-1" d="M228.75,540V525.33h1.78V540Z"/><path class="cls-1" d="M234.23,527.78a1.17,1.17,0,0,1-.81-.32,1,1,0,0,1-.34-.79,1.07,1.07,0,0,1,.34-.81,1.13,1.13,0,0,1,.81-.33,1.15,1.15,0,0,1,.81.33,1.08,1.08,0,0,1,.35.81,1,1,0,0,1-.35.79A1.19,1.19,0,0,1,234.23,527.78Zm-.9,12.2v-9.7h1.81V540Z"/><path class="cls-1" d="M246.1,535.33h-6.95v.09a3.3,3.3,0,0,0,.88,2.47,3.23,3.23,0,0,0,2.38.87,6.44,6.44,0,0,0,1.39-.13,7.64,7.64,0,0,0,1.33-.41l.38,1.34a6.62,6.62,0,0,1-1.42.44,8.72,8.72,0,0,1-1.74.16,6.61,6.61,0,0,1-2-.29,4.45,4.45,0,0,1-1.62-.9,4.14,4.14,0,0,1-1.11-1.55,6,6,0,0,1-.4-2.27,6.15,6.15,0,0,1,.34-2.07,4.65,4.65,0,0,1,1-1.58,4.27,4.27,0,0,1,1.5-1,5.12,5.12,0,0,1,2-.36,4.49,4.49,0,0,1,1.68.31,3.73,3.73,0,0,1,2.12,2.21,5,5,0,0,1,.28,1.73Zm-1.87-1.3a3.55,3.55,0,0,0-.14-1,2.21,2.21,0,0,0-.41-.81,2,2,0,0,0-.71-.56,2.4,2.4,0,0,0-1.05-.21,2.45,2.45,0,0,0-1.85.73,3.22,3.22,0,0,0-.88,1.89Z"/><path class="cls-1" d="M247.61,538.86A1.23,1.23,0,0,1,248,538a1.26,1.26,0,0,1,.89-.37,1.22,1.22,0,0,1,.88.37,1.38,1.38,0,0,1,0,1.86,1.24,1.24,0,0,1-.88.35,1.28,1.28,0,0,1-.89-.35A1.23,1.23,0,0,1,247.61,538.86Z"/></svg>