<svg id="Ebene_3_Kopie" data-name="Ebene 3 Kopie" xmlns="http://www.w3.org/2000/svg" viewBox="0 0 1540 1080"><defs><style>.cls-1{fill:#fff;}</style></defs><title>Zeichenfläche 1</title><path class="cls-1" d="M165.59,200h43.73L225,250.87q1.6,4.6,3.34,10.7t3.45,12.66q1.73,6.56,3.22,13.23t2.42,12.43h1.15q.91-6.21,2.64-13.47t3.46-14q1.72-6.78,3.33-12.54c1.08-3.83,1.92-6.82,2.54-9L265.71,200h43.73l10.35,145H287.11l-2.53-49q-.46-6.92-.69-15.08t-.35-16.69q-.1-8.5-.11-16.8V232.22h-.69q-1.62,7.6-3.57,15.65t-4,16q-2.07,7.94-4.14,15.42T266.86,293l-16.11,52H224.51l-16.8-51.79q-2.07-6.43-4.15-13.92t-4-15.42q-2-7.94-3.8-16t-3.22-15.65h-.69q.22,7.36.11,16t-.34,17.26q-.24,8.63-.58,16.57T190.44,296l-2.53,49H155.69Z"/><path class="cls-1" d="M410.63,234.52H444.7V345H419.61l-3.45-12h-.92a62.17,62.17,0,0,1-5.53,4.84,42,42,0,0,1-7.71,4.71,49.69,49.69,0,0,1-10.24,3.57,56.52,56.52,0,0,1-13.12,1.38q-18,0-28.08-9.9T340.44,308.4V234.52H374.5v71.12q0,8.52,4.26,12.55a15.28,15.28,0,0,0,10.93,4q8.06,0,13.23-3.33a26.83,26.83,0,0,0,7.71-7Z"/><path class="cls-1" d="M499.93,309.1V345H466.1V180.44h33.83v96l34.53-41.89h41.2L534,281l43.5,64h-40l-29.23-44.42Z"/><path class="cls-1" d="M659.68,258.92H631.37v46.72q0,7.61,3.34,10.59t9.32,3a46.4,46.4,0,0,0,9.21-.92,21,21,0,0,0,7.13-2.53L665.44,339a54.57,54.57,0,0,1-11.86,4,70.18,70.18,0,0,1-16.91,2q-21.4,0-30.27-8.29t-8.86-25.08V258.92H580.28v-24.4h17.26v-33.6h33.83v33.6h28.31Z"/><path class="cls-1" d="M678.35,244.19a90.67,90.67,0,0,1,21.29-8.86A89.31,89.31,0,0,1,723.92,232q20.48,0,32.91,9.9t12.43,31.53V345h-26l-3-11.05h-.92a33.55,33.55,0,0,1-12.78,9.78,50.46,50.46,0,0,1-35.67,1,33.27,33.27,0,0,1-11.62-7.37,30.66,30.66,0,0,1-7-10.93A37.41,37.41,0,0,1,669.83,313a30.92,30.92,0,0,1,4.26-16.57,33.69,33.69,0,0,1,11.51-11.28,54.9,54.9,0,0,1,17-6.45,100.43,100.43,0,0,1,20.83-2.07H735v-6q0-6.21-4.38-9.55t-12.43-3.34a45.61,45.61,0,0,0-13.58,2.07,75.06,75.06,0,0,0-14.73,6.68Zm56.85,53.17-7.6.23A50,50,0,0,0,716.78,299a24.14,24.14,0,0,0-7,2.88A10.2,10.2,0,0,0,706,306a11.36,11.36,0,0,0-1.16,4.95c0,4.75,1.42,8,4.26,9.78a18.19,18.19,0,0,0,9.78,2.65,16.78,16.78,0,0,0,10-3.23A18.84,18.84,0,0,0,735.2,313Z"/><path class="cls-1" d="M868.68,200l19.11,60.53q3.45,11.06,7.36,24.74t6.91,27.51h.69q3-13.81,6.79-27.39T917,260.3L935.89,200H971.8L921.85,345H883L831.63,200Z"/><path class="cls-1" d="M974.51,244.19a90.85,90.85,0,0,1,21.29-8.86,89.37,89.37,0,0,1,24.28-3.34q20.49,0,32.91,9.9t12.43,31.53V345h-26l-3-11.05h-.92a33.59,33.59,0,0,1-12.77,9.78,50.49,50.49,0,0,1-35.68,1,33.36,33.36,0,0,1-11.62-7.37,30.66,30.66,0,0,1-7-10.93A37.41,37.41,0,0,1,966,313a30.92,30.92,0,0,1,4.26-16.57,33.78,33.78,0,0,1,11.51-11.28,55,55,0,0,1,17-6.45,100.5,100.5,0,0,1,20.83-2.07h11.51v-6q0-6.21-4.37-9.55t-12.43-3.34a45.57,45.57,0,0,0-13.58,2.07A75.06,75.06,0,0,0,986,266.52Zm56.85,53.17-7.6.23A49.88,49.88,0,0,0,1013,299a23.91,23.91,0,0,0-7,2.88,10.22,10.22,0,0,0-3.8,4.14,11.35,11.35,0,0,0-1.15,4.95c0,4.75,1.42,8,4.26,9.78a18.16,18.16,0,0,0,9.78,2.65,16.76,16.76,0,0,0,10-3.23,18.84,18.84,0,0,0,6.33-7.13Z"/><path class="cls-1" d="M1086.69,244.19a90.67,90.67,0,0,1,21.29-8.86,89.31,89.31,0,0,1,24.28-3.34q20.48,0,32.91,9.9t12.43,31.53V345h-26l-3-11.05h-.92a33.59,33.59,0,0,1-12.77,9.78,50.49,50.49,0,0,1-35.68,1,33.36,33.36,0,0,1-11.62-7.37,30.66,30.66,0,0,1-7-10.93,37.41,37.41,0,0,1-2.42-13.46,30.92,30.92,0,0,1,4.26-16.57,33.69,33.69,0,0,1,11.51-11.28,55,55,0,0,1,17-6.45,100.43,100.43,0,0,1,20.83-2.07h11.51v-6q0-6.21-4.38-9.55t-12.42-3.34a45.57,45.57,0,0,0-13.58,2.07,74.8,74.8,0,0,0-14.73,6.68Zm56.85,53.17-7.6.23a50,50,0,0,0-10.82,1.38,24.14,24.14,0,0,0-7,2.88,10.2,10.2,0,0,0-3.79,4.14,11.35,11.35,0,0,0-1.15,4.95c0,4.75,1.41,8,4.25,9.78a18.2,18.2,0,0,0,9.79,2.65,16.76,16.76,0,0,0,10-3.23,18.84,18.84,0,0,0,6.33-7.13Z"/><path class="cls-1" d="M1231.69,345h-34.07V234.52h26.47l3.91,13.81a57,57,0,0,1,16.58-12,45.94,45.94,0,0,1,20-4.38q18.64,0,28.54,10.13t9.9,29.69V345H1269V275.26q0-8.06-3.8-12.77T1254,257.77a25,25,0,0,0-11.62,3.22,36.82,36.82,0,0,0-10.7,8.52Z"/><path class="cls-1" d="M1342.09,212.89q-8.74,0-13.35-4.95a16.79,16.79,0,0,1-4.6-11.85,16.58,16.58,0,0,1,4.72-11.86q4.71-4.93,13.23-4.94t13.24,4.83a16.47,16.47,0,0,1,4.71,12,16.69,16.69,0,0,1-4.6,12Q1350.83,212.89,1342.09,212.89Zm-17,132.11V234.52h34.06V345Z"/><path class="cls-1" d="M158.65,646.6l5.8,18.36c.69,2.24,1.44,4.74,2.23,7.51s1.49,5.55,2.1,8.35h.2q.92-4.2,2.07-8.31c.76-2.75,1.52-5.29,2.26-7.62L179,646.6h10.9l-15.16,44H163l-15.58-44Z"/><path class="cls-1" d="M198.49,650.51a5.23,5.23,0,0,1-4.05-1.51,5.1,5.1,0,0,1-1.4-3.59,5,5,0,0,1,1.44-3.6,5.27,5.27,0,0,1,4-1.5,5.37,5.37,0,0,1,4,1.47,5,5,0,0,1,1.43,3.63,5.08,5.08,0,0,1-1.4,3.63A5.32,5.32,0,0,1,198.49,650.51Zm-5.17,40.09V657.07h10.34V690.6Z"/><path class="cls-1" d="M240.62,676.84H219v.28a5.47,5.47,0,0,0,2.72,5.09,13.23,13.23,0,0,0,6.85,1.61,19.93,19.93,0,0,0,5-.56,17.18,17.18,0,0,0,3.63-1.32l1.88,7.12a24.12,24.12,0,0,1-4.78,1.61,31.13,31.13,0,0,1-7.09.69,24.73,24.73,0,0,1-7.16-1,16.57,16.57,0,0,1-5.93-3.11,15,15,0,0,1-4.06-5.3,18.09,18.09,0,0,1-1.5-7.69,20.91,20.91,0,0,1,1.23-7.3,16.51,16.51,0,0,1,3.45-5.69,15.28,15.28,0,0,1,5.35-3.66,17.56,17.56,0,0,1,6.87-1.3q6.91,0,11,4.19t4.12,12Zm-10.55-7.06a9.23,9.23,0,0,0-.28-2.3,5.88,5.88,0,0,0-.87-2,4.47,4.47,0,0,0-1.53-1.4,4.62,4.62,0,0,0-2.27-.52,5.34,5.34,0,0,0-4.06,1.71,7.58,7.58,0,0,0-1.88,4.64Z"/><path class="cls-1" d="M245.7,690.6V640.66h10.2V690.6Z"/><path class="cls-1" d="M283.45,665.66a20.9,20.9,0,0,0-4-1.43,16.61,16.61,0,0,0-4.05-.52,6,6,0,0,0-2.93.62,1.94,1.94,0,0,0-1.12,1.75,2.4,2.4,0,0,0,1.08,2,14.6,14.6,0,0,0,4.3,1.71l2.09.63a13.56,13.56,0,0,1,6.36,3.67,8.9,8.9,0,0,1,2.16,6.18,10,10,0,0,1-1,4.57,10.25,10.25,0,0,1-3,3.53,13.85,13.85,0,0,1-4.61,2.24,21.76,21.76,0,0,1-6,.76,29.16,29.16,0,0,1-6.32-.62,23,23,0,0,1-5.14-1.82l2.24-7.47a25.36,25.36,0,0,0,4.22,1.71,15.63,15.63,0,0,0,4.51.66,6.62,6.62,0,0,0,3.73-.77,2.18,2.18,0,0,0,1.09-1.81,2.22,2.22,0,0,0-.25-1.09,2.56,2.56,0,0,0-.87-.87,7.36,7.36,0,0,0-1.78-.8c-.77-.26-1.76-.57-3-.94l-2.16-.63a12.4,12.4,0,0,1-6-3.67,11,11,0,0,1-1-10.55,9.92,9.92,0,0,1,2.62-3.35,12.4,12.4,0,0,1,4.19-2.23,18.3,18.3,0,0,1,5.69-.81,28.09,28.09,0,0,1,6,.6,22.92,22.92,0,0,1,5,1.64Z"/><path class="cls-1" d="M322.13,676.84H300.48v.28a5.47,5.47,0,0,0,2.72,5.09,13.23,13.23,0,0,0,6.85,1.61,19.93,19.93,0,0,0,5-.56,17.18,17.18,0,0,0,3.63-1.32l1.88,7.12a24.12,24.12,0,0,1-4.78,1.61,31.13,31.13,0,0,1-7.09.69,24.73,24.73,0,0,1-7.16-1,16.7,16.7,0,0,1-5.94-3.11,14.85,14.85,0,0,1-4.05-5.3,18.09,18.09,0,0,1-1.5-7.69,21.14,21.14,0,0,1,1.22-7.3,16.69,16.69,0,0,1,3.46-5.69,15.33,15.33,0,0,1,5.34-3.66,17.64,17.64,0,0,1,6.88-1.3q6.91,0,11,4.19t4.12,12Zm-10.55-7.06a9.23,9.23,0,0,0-.28-2.3,5.88,5.88,0,0,0-.87-2,4.5,4.5,0,0,0-1.54-1.4,4.56,4.56,0,0,0-2.27-.52,5.32,5.32,0,0,0-4.05,1.71,7.58,7.58,0,0,0-1.88,4.64Z"/><path class="cls-1" d="M332.49,650.51a5.23,5.23,0,0,1-4.05-1.51,5.09,5.09,0,0,1-1.39-3.59,5,5,0,0,1,1.43-3.6,5.27,5.27,0,0,1,4-1.5,5.35,5.35,0,0,1,4,1.47,5,5,0,0,1,1.43,3.63,5.08,5.08,0,0,1-1.4,3.63A5.32,5.32,0,0,1,332.49,650.51Zm-5.17,40.09V657.07h10.34V690.6Z"/><path class="cls-1" d="M365,664.47h-8.59v14.18a4.18,4.18,0,0,0,1,3.22,4.11,4.11,0,0,0,2.83.9,13.9,13.9,0,0,0,2.79-.28,6.55,6.55,0,0,0,2.17-.76l1.53,7a16.26,16.26,0,0,1-3.59,1.22,21.24,21.24,0,0,1-5.14.6q-6.5,0-9.18-2.52t-2.69-7.61v-16H340.9v-7.4h5.24V646.88h10.27v10.19H365Z"/><path class="cls-1" d="M375.44,650.51a5.23,5.23,0,0,1-4.05-1.51,5.09,5.09,0,0,1-1.39-3.59,5,5,0,0,1,1.43-3.6,5.27,5.27,0,0,1,4-1.5,5.34,5.34,0,0,1,4,1.47,5,5,0,0,1,1.43,3.63A5.07,5.07,0,0,1,379.5,649,5.36,5.36,0,0,1,375.44,650.51Zm-5.16,40.09V657.07h10.33V690.6Z"/><path class="cls-1" d="M386.51,668.6a11.25,11.25,0,0,1,1.11-5,12,12,0,0,1,3.11-3.91,14.21,14.21,0,0,1,4.68-2.51,18.77,18.77,0,0,1,5.9-.88,20.55,20.55,0,0,1,2.73.21,21.81,21.81,0,0,1,2.79.56h14.25v6.36h-3.21L414,662.8a9.22,9.22,0,0,1,1.3,2.65,10.28,10.28,0,0,1,.52,3.22,11.55,11.55,0,0,1-1,4.81,10.6,10.6,0,0,1-2.86,3.78,13.39,13.39,0,0,1-4.61,2.48,20.21,20.21,0,0,1-6.15.87c-.51,0-1,0-1.46-.07s-.94-.12-1.4-.21a3.43,3.43,0,0,0-.91.77,1.84,1.84,0,0,0-.42,1.25,1.8,1.8,0,0,0,.67,1.47,4.46,4.46,0,0,0,2.69.56h7.05a21.46,21.46,0,0,1,5,.56,10.51,10.51,0,0,1,3.94,1.81,8.3,8.3,0,0,1,2.55,3.25,11.4,11.4,0,0,1,.91,4.79,9.82,9.82,0,0,1-1.33,5,12.38,12.38,0,0,1-3.73,4,19.12,19.12,0,0,1-5.87,2.62,29.36,29.36,0,0,1-7.65.94q-7.82,0-12.29-2.73a8.59,8.59,0,0,1-4.47-7.75,5.79,5.79,0,0,1,1.5-3.94,9.84,9.84,0,0,1,4.23-2.69,9,9,0,0,1-1.89-1.92,5.4,5.4,0,0,1-1.05-3.39,6.16,6.16,0,0,1,1.44-4.09,10.67,10.67,0,0,1,3.59-2.76,11.1,11.1,0,0,1-1.92-1.36,12.49,12.49,0,0,1-1.88-2.06,10.62,10.62,0,0,1-1.43-2.69A9.47,9.47,0,0,1,386.51,668.6Zm9.43,23.46a4.17,4.17,0,0,0-1.47,1.26,3.4,3.4,0,0,0-.63,2.1,3.71,3.71,0,0,0,1.64,3c1.09.84,3.11,1.25,6,1.25q4.13,0,6.11-1.36a3.83,3.83,0,0,0,2-3.17,2.58,2.58,0,0,0-1.11-2.34,7.2,7.2,0,0,0-3.77-.74Zm9.77-23.6a5.07,5.07,0,0,0-1.29-3.74,4.78,4.78,0,0,0-6.53,0,5.14,5.14,0,0,0-1.26,3.74,5,5,0,0,0,1.3,3.73,4.78,4.78,0,0,0,6.53,0A5.16,5.16,0,0,0,405.71,668.46Z"/><path class="cls-1" d="M153.71,745.71h3.81l4.19,12.77c.22.61.42,1.21.61,1.79s.37,1.17.54,1.76h.06c.17-.59.34-1.16.52-1.71s.39-1.17.62-1.84l4.1-12.77H172l1.74,20h-2.92l-.82-10.6c-.09-1-.15-2.07-.19-3.09s-.09-2.07-.13-3.13h-.06c-.3,1-.6,2.07-.91,3.11s-.63,2.08-1,3.11l-3.52,10.6h-2.67L158,755.08c-.36-1.08-.69-2.11-1-3.1s-.6-2-.89-3.09h-.07c0,1-.1,2.07-.17,3.11s-.15,2.08-.24,3.11l-.76,10.6H152Z"/><path class="cls-1" d="M187.41,750.79h2.79v14.92H188l-.38-1.87h-.13a6.7,6.7,0,0,1-2.05,1.54,6.22,6.22,0,0,1-2.84.62,5.36,5.36,0,0,1-3.76-1.32,5.13,5.13,0,0,1-1.44-4v-9.91h2.79v9.56a4.85,4.85,0,0,0,.24,1.62,2.87,2.87,0,0,0,.63,1.06,2.23,2.23,0,0,0,.94.57,3.68,3.68,0,0,0,1.17.18,4.81,4.81,0,0,0,2.29-.54,8,8,0,0,0,1.94-1.49Z"/><path class="cls-1" d="M196.9,760.25v5.46h-2.76V743.17h2.76v14l6-6.42h3.46l-6.13,6.29,6.42,8.63h-3.3l-5-7Z"/><path class="cls-1" d="M217.35,752.89H213v8.67a1.7,1.7,0,0,0,.55,1.49,2.54,2.54,0,0,0,1.45.38,8,8,0,0,0,1.39-.14,10.4,10.4,0,0,0,1.34-.34l.44,2.13a8.39,8.39,0,0,1-1.62.44,10.52,10.52,0,0,1-2.06.19,4.61,4.61,0,0,1-3.24-1,3.69,3.69,0,0,1-1-2.81v-9.05H208v-2.1h2.23V746H213v4.76h4.38Z"/><path class="cls-1" d="M221.11,752.13c.5-.26,1-.48,1.43-.68a8.6,8.6,0,0,1,1.33-.5,10.25,10.25,0,0,1,1.36-.28,10.44,10.44,0,0,1,1.53-.1,9,9,0,0,1,2.27.27,4.37,4.37,0,0,1,1.78.91,4.19,4.19,0,0,1,1.15,1.66,6.92,6.92,0,0,1,.42,2.59v9.71h-2.32l-.35-1.65h-.06a5.87,5.87,0,0,1-2.16,1.5,7.48,7.48,0,0,1-2.61.44,6.28,6.28,0,0,1-2-.3,4.77,4.77,0,0,1-1.57-.86,3.69,3.69,0,0,1-1-1.35,4.11,4.11,0,0,1-.37-1.78,4,4,0,0,1,1.86-3.57,8.82,8.82,0,0,1,4.9-1.22h2.86v-1.27a2.53,2.53,0,0,0-.82-2.2,3.71,3.71,0,0,0-2.23-.59,7.8,7.8,0,0,0-1.89.27,10.37,10.37,0,0,0-2.42,1Zm8.47,6.7-2.35.06a5.87,5.87,0,0,0-3.38.84,2.35,2.35,0,0,0-1,1.89,2.59,2.59,0,0,0,.23,1.13,1.78,1.78,0,0,0,.58.71,2.58,2.58,0,0,0,.86.37,4.93,4.93,0,0,0,1,.11,5.23,5.23,0,0,0,2.13-.49,5.05,5.05,0,0,0,1.9-1.58Z"/><path class="cls-1" d="M244.34,745.71,248.5,757c.3.78.62,1.64,1,2.58s.67,1.82,1,2.62h.06l1.91-5.2,4.22-11.31h3.05l-7.87,20H249l-7.71-20Z"/><path class="cls-1" d="M260.75,752.13c.51-.26,1-.48,1.43-.68a9,9,0,0,1,1.33-.5,10.39,10.39,0,0,1,1.37-.28,10.21,10.21,0,0,1,1.52-.1,8.94,8.94,0,0,1,2.27.27,4.37,4.37,0,0,1,1.78.91,4.21,4.21,0,0,1,1.16,1.66A7.14,7.14,0,0,1,272,756v9.71H269.7l-.35-1.65h-.06a5.87,5.87,0,0,1-2.16,1.5,7.43,7.43,0,0,1-2.6.44,6.34,6.34,0,0,1-2-.3,4.87,4.87,0,0,1-1.57-.86,3.8,3.8,0,0,1-1-1.35,4.26,4.26,0,0,1-.36-1.78,4,4,0,0,1,1.85-3.57,8.86,8.86,0,0,1,4.91-1.22h2.86v-1.27a2.53,2.53,0,0,0-.83-2.2,3.7,3.7,0,0,0-2.22-.59,7.8,7.8,0,0,0-1.89.27,10.25,10.25,0,0,0-2.43,1Zm8.48,6.7-2.35.06a5.83,5.83,0,0,0-3.38.84,2.32,2.32,0,0,0-1,1.89,2.59,2.59,0,0,0,.22,1.13,1.8,1.8,0,0,0,.59.71,2.52,2.52,0,0,0,.85.37,5,5,0,0,0,1,.11,5.22,5.22,0,0,0,2.12-.49,5.08,5.08,0,0,0,1.91-1.58Z"/><path class="cls-1" d="M275.87,752.13c.5-.26,1-.48,1.42-.68a9.11,9.11,0,0,1,1.34-.5,10.25,10.25,0,0,1,1.36-.28,10.44,10.44,0,0,1,1.53-.1,9,9,0,0,1,2.27.27,4.33,4.33,0,0,1,1.77.91,4.11,4.11,0,0,1,1.16,1.66,6.92,6.92,0,0,1,.42,2.59v9.71h-2.32l-.35-1.65h-.07a5.76,5.76,0,0,1-2.15,1.5,7.48,7.48,0,0,1-2.61.44,6.23,6.23,0,0,1-2-.3,4.77,4.77,0,0,1-1.57-.86,3.69,3.69,0,0,1-1-1.35,4.11,4.11,0,0,1-.37-1.78,4,4,0,0,1,1.86-3.57,8.82,8.82,0,0,1,4.9-1.22h2.86v-1.27a2.53,2.53,0,0,0-.83-2.2,3.7,3.7,0,0,0-2.22-.59,7.8,7.8,0,0,0-1.89.27,10.25,10.25,0,0,0-2.43,1Zm8.47,6.7-2.35.06a5.85,5.85,0,0,0-3.38.84,2.32,2.32,0,0,0-1,1.89,2.74,2.74,0,0,0,.22,1.13,1.89,1.89,0,0,0,.59.71,2.49,2.49,0,0,0,.86.37,4.93,4.93,0,0,0,1,.11,5.23,5.23,0,0,0,2.13-.49,5.05,5.05,0,0,0,1.9-1.58Z"/><path class="cls-1" d="M293.72,765.71h-2.79V750.79h2.19l.41,2.07a8.61,8.61,0,0,1,2.33-1.7,6.45,6.45,0,0,1,2.81-.59,4.87,4.87,0,0,1,3.59,1.29,4.77,4.77,0,0,1,1.3,3.57v10.28h-2.79v-9.87a3.14,3.14,0,0,0-.72-2.17,2.74,2.74,0,0,0-2.17-.81,5.72,5.72,0,0,0-4.16,2Z"/><path class="cls-1" d="M309.06,747a1.77,1.77,0,0,1-1.26-.49,1.6,1.6,0,0,1-.52-1.22,1.65,1.65,0,0,1,.52-1.24,1.77,1.77,0,0,1,2.49,0,1.64,1.64,0,0,1,.54,1.24,1.58,1.58,0,0,1-.54,1.22A1.76,1.76,0,0,1,309.06,747Zm-1.4,18.76V750.79h2.79v14.92Z"/><path class="cls-1" d="M324.9,765.71h-2.8V743.17h2.8v9.53a10,10,0,0,1,2.31-1.53,6.48,6.48,0,0,1,2.8-.6,5.75,5.75,0,0,1,2.16.37,3.94,3.94,0,0,1,1.5,1,4.29,4.29,0,0,1,.89,1.54,6,6,0,0,1,.3,1.94v10.28h-2.79v-9.58a3.61,3.61,0,0,0-.7-2.49,2.69,2.69,0,0,0-2.12-.78,4.91,4.91,0,0,0-2.18.54,9.64,9.64,0,0,0-2.17,1.52Z"/><path class="cls-1" d="M338.9,752.13c.5-.26,1-.48,1.42-.68a9.11,9.11,0,0,1,1.34-.5,10.25,10.25,0,0,1,1.36-.28,10.44,10.44,0,0,1,1.53-.1,9,9,0,0,1,2.27.27,4.33,4.33,0,0,1,1.77.91,4.11,4.11,0,0,1,1.16,1.66,6.92,6.92,0,0,1,.42,2.59v9.71h-2.32l-.35-1.65h-.06a5.87,5.87,0,0,1-2.16,1.5,7.48,7.48,0,0,1-2.61.44,6.23,6.23,0,0,1-2-.3,4.77,4.77,0,0,1-1.57-.86,3.69,3.69,0,0,1-1-1.35,4.11,4.11,0,0,1-.37-1.78,4,4,0,0,1,1.86-3.57,8.82,8.82,0,0,1,4.9-1.22h2.86v-1.27a2.53,2.53,0,0,0-.82-2.2,3.75,3.75,0,0,0-2.23-.59,7.8,7.8,0,0,0-1.89.27,10.19,10.19,0,0,0-2.42,1Zm8.47,6.7-2.35.06a5.87,5.87,0,0,0-3.38.84,2.35,2.35,0,0,0-1,1.89,2.74,2.74,0,0,0,.22,1.13,1.89,1.89,0,0,0,.59.71,2.49,2.49,0,0,0,.86.37,4.93,4.93,0,0,0,1,.11,5.23,5.23,0,0,0,2.13-.49,5.05,5.05,0,0,0,1.9-1.58Z"/><path class="cls-1" d="M361.65,752.89h-4.39v8.67a1.7,1.7,0,0,0,.56,1.49,2.52,2.52,0,0,0,1.44.38,8.08,8.08,0,0,0,1.4-.14A10.22,10.22,0,0,0,362,763l.45,2.13a8.39,8.39,0,0,1-1.62.44,10.59,10.59,0,0,1-2.06.19,4.6,4.6,0,0,1-3.24-1,3.7,3.7,0,0,1-1-2.81v-9.05h-2.22v-2.1h2.22V746h2.76v4.76h4.39Z"/><path class="cls-1" d="M374.25,747a1.77,1.77,0,0,1-1.26-.49,1.63,1.63,0,0,1-.52-1.22A1.69,1.69,0,0,1,373,744a1.74,1.74,0,0,1,1.26-.51,1.77,1.77,0,0,1,1.24.51,1.64,1.64,0,0,1,.54,1.24,1.58,1.58,0,0,1-.54,1.22A1.79,1.79,0,0,1,374.25,747Zm-1.4,18.76V750.79h2.8v14.92Z"/><path class="cls-1" d="M382.5,765.71h-2.79V743.17h2.79v9.53a10,10,0,0,1,2.32-1.53,6.41,6.41,0,0,1,2.79-.6,5.71,5.71,0,0,1,2.16.37,4.05,4.05,0,0,1,1.51,1,4.61,4.61,0,0,1,.89,1.54,6,6,0,0,1,.3,1.94v10.28h-2.8v-9.58a3.67,3.67,0,0,0-.69-2.49,2.73,2.73,0,0,0-2.13-.78,4.91,4.91,0,0,0-2.18.54,9.64,9.64,0,0,0-2.17,1.52Z"/><path class="cls-1" d="M396.36,765.71V750.79h2.1l.47,3a5,5,0,0,1,1.78-2.32,4.81,4.81,0,0,1,2.86-.89,5.74,5.74,0,0,1,1.36.13,5.47,5.47,0,0,1,1,.32l-.54,2.44a5.23,5.23,0,0,0-.84-.32,4.46,4.46,0,0,0-1.1-.12,4.51,4.51,0,0,0-1.7.31,3.79,3.79,0,0,0-1.36,1,4.41,4.41,0,0,0-.92,1.57,6.16,6.16,0,0,0-.34,2.14v7.71Z"/><path class="cls-1" d="M420.5,758.57H409.81v.13a5.12,5.12,0,0,0,1.34,3.81,5,5,0,0,0,3.67,1.33,10.5,10.5,0,0,0,2.14-.19A12.7,12.7,0,0,0,419,763l.57,2.06a10.11,10.11,0,0,1-2.17.67,13.48,13.48,0,0,1-2.68.25,10.34,10.34,0,0,1-3-.44,6.93,6.93,0,0,1-2.49-1.39,6.49,6.49,0,0,1-1.7-2.39,9,9,0,0,1-.61-3.49,9.14,9.14,0,0,1,.52-3.18,6.93,6.93,0,0,1,1.48-2.43,6.62,6.62,0,0,1,2.3-1.55,7.9,7.9,0,0,1,3-.56,6.75,6.75,0,0,1,2.59.48,5.8,5.8,0,0,1,2,1.33,5.87,5.87,0,0,1,1.27,2.07,7.54,7.54,0,0,1,.44,2.66Zm-2.88-2a5.46,5.46,0,0,0-.21-1.54,3.61,3.61,0,0,0-.64-1.25,3,3,0,0,0-1.09-.86,4.21,4.21,0,0,0-4.46.79,5.07,5.07,0,0,0-1.35,2.93Z"/><path class="cls-1" d="M431.23,765.71v-20h2.92v8.42h9.5v-8.42h2.92v20h-2.92V756.6h-9.5v9.11Z"/><path class="cls-1" d="M463.7,758.57H453v.13a5.12,5.12,0,0,0,1.35,3.81,5,5,0,0,0,3.66,1.33,10.68,10.68,0,0,0,2.15-.19,13.33,13.33,0,0,0,2-.63l.57,2.06a10.21,10.21,0,0,1-2.18.67,13.41,13.41,0,0,1-2.68.25,10.23,10.23,0,0,1-3-.44,6.85,6.85,0,0,1-2.49-1.39,6.38,6.38,0,0,1-1.7-2.39,8.81,8.81,0,0,1-.62-3.49,9.14,9.14,0,0,1,.52-3.18,6.93,6.93,0,0,1,1.48-2.43,6.62,6.62,0,0,1,2.3-1.55,7.9,7.9,0,0,1,3-.56,6.71,6.71,0,0,1,2.59.48,5.8,5.8,0,0,1,2,1.33,5.73,5.73,0,0,1,1.27,2.07,7.54,7.54,0,0,1,.45,2.66Zm-2.89-2a5.46,5.46,0,0,0-.21-1.54,3.77,3.77,0,0,0-.63-1.25,3,3,0,0,0-1.1-.86,3.74,3.74,0,0,0-1.62-.32,3.82,3.82,0,0,0-2.84,1.11,5.07,5.07,0,0,0-1.35,2.93Z"/><path class="cls-1" d="M466.68,765.71V750.79h2.1l.47,3a5,5,0,0,1,1.78-2.32,4.81,4.81,0,0,1,2.86-.89,5.74,5.74,0,0,1,1.36.13,5.47,5.47,0,0,1,1,.32l-.54,2.44a5.23,5.23,0,0,0-.84-.32,4.46,4.46,0,0,0-1.1-.12,4.51,4.51,0,0,0-1.7.31,3.79,3.79,0,0,0-1.36,1,4.41,4.41,0,0,0-.92,1.57,6.16,6.16,0,0,0-.34,2.14v7.71Z"/><path class="cls-1" d="M481.23,760.25v5.46h-2.76V743.17h2.76v14l6-6.42h3.46l-6.12,6.29,6.41,8.63h-3.3l-4.95-7Z"/><path class="cls-1" d="M503.05,750.79h2.8v14.92h-2.2l-.38-1.87h-.12a6.82,6.82,0,0,1-2,1.54,6.25,6.25,0,0,1-2.84.62,5.34,5.34,0,0,1-3.76-1.32,5.1,5.1,0,0,1-1.45-4v-9.91h2.8v9.56a4.87,4.87,0,0,0,.23,1.62,2.76,2.76,0,0,0,.64,1.06,2.14,2.14,0,0,0,.93.57,3.74,3.74,0,0,0,1.18.18,4.81,4.81,0,0,0,2.29-.54,8,8,0,0,0,1.93-1.49Z"/><path class="cls-1" d="M512.56,765.71h-2.79V750.79H512l.41,2.07a8.5,8.5,0,0,1,2.34-1.7,6.42,6.42,0,0,1,2.81-.59,4.86,4.86,0,0,1,3.58,1.29,4.77,4.77,0,0,1,1.3,3.57v10.28h-2.79v-9.87a3.19,3.19,0,0,0-.71-2.17,2.77,2.77,0,0,0-2.18-.81,5.72,5.72,0,0,0-4.16,2Z"/><path class="cls-1" d="M531.85,743a7.34,7.34,0,0,1,1.86.25,8.77,8.77,0,0,1,1.73.64l-.58,1.93a8.33,8.33,0,0,0-1.2-.39,4.72,4.72,0,0,0-1.21-.15,2.56,2.56,0,0,0-2.17.86,4.9,4.9,0,0,0-.65,2.92v1.71h4.54v2.1h-4.54v12.82h-2.77V752.89h-2.19v-2.1h2.19v-2.63a5.26,5.26,0,0,1,1.29-3.81A4.9,4.9,0,0,1,531.85,743Z"/><path class="cls-1" d="M545.17,752.89h-4.38v8.67a1.7,1.7,0,0,0,.55,1.49,2.54,2.54,0,0,0,1.45.38,8,8,0,0,0,1.39-.14,10.4,10.4,0,0,0,1.34-.34l.44,2.13a8.39,8.39,0,0,1-1.62.44,10.52,10.52,0,0,1-2.06.19,4.61,4.61,0,0,1-3.24-1,3.69,3.69,0,0,1-1-2.81v-9.05H535.8v-2.1H538V746h2.76v4.76h4.38Z"/><path class="cls-1" d="M557.77,747a1.74,1.74,0,0,1-1.25-.49,1.6,1.6,0,0,1-.53-1.22,1.66,1.66,0,0,1,.53-1.24,1.72,1.72,0,0,1,1.25-.51A1.75,1.75,0,0,1,559,744a1.64,1.64,0,0,1,.54,1.24,1.58,1.58,0,0,1-.54,1.22A1.77,1.77,0,0,1,557.77,747Zm-1.4,18.76V750.79h2.8v14.92Z"/><path class="cls-1" d="M566,765.71h-2.8V750.79h2.19l.41,2.07a8.65,8.65,0,0,1,2.34-1.7,6.42,6.42,0,0,1,2.81-.59,4.89,4.89,0,0,1,3.59,1.29,4.81,4.81,0,0,1,1.3,3.57v10.28h-2.8v-9.87a3.19,3.19,0,0,0-.71-2.17,2.76,2.76,0,0,0-2.18-.81,5.7,5.7,0,0,0-4.15,2Z"/><path class="cls-1" d="M590.51,745.71v20h-2.92v-20Z"/><path class="cls-1" d="M597.63,765.71h-2.79V750.79H597l.41,2.07a8.61,8.61,0,0,1,2.33-1.7,6.45,6.45,0,0,1,2.81-.59,4.87,4.87,0,0,1,3.59,1.29,4.77,4.77,0,0,1,1.3,3.57v10.28h-2.79v-9.87a3.14,3.14,0,0,0-.72-2.17,2.74,2.74,0,0,0-2.17-.81,5.72,5.72,0,0,0-4.16,2Z"/><path class="cls-1" d="M621.41,743.17h2.79v22.54h-2.35l-.35-1.65h-.09a6.8,6.8,0,0,1-2,1.48,5.94,5.94,0,0,1-2.52.46,5.86,5.86,0,0,1-2.33-.48,5.72,5.72,0,0,1-2-1.42,7.25,7.25,0,0,1-1.43-2.4,9.72,9.72,0,0,1-.54-3.41,10.52,10.52,0,0,1,.46-3.18,7.15,7.15,0,0,1,1.32-2.44,5.62,5.62,0,0,1,2.1-1.56,7,7,0,0,1,2.82-.54,6.71,6.71,0,0,1,2.24.37,5.57,5.57,0,0,1,1.89,1.09Zm0,11.21a4.58,4.58,0,0,0-3.53-1.68,4.73,4.73,0,0,0-1.66.3,3.61,3.61,0,0,0-1.43,1,4.89,4.89,0,0,0-1,1.71,7.24,7.24,0,0,0-.38,2.51,8.15,8.15,0,0,0,.35,2.59,5,5,0,0,0,.93,1.74,3.55,3.55,0,0,0,1.34,1,3.65,3.65,0,0,0,1.5.32,4.6,4.6,0,0,0,3.88-2.06Z"/><path class="cls-1" d="M629.77,747a1.73,1.73,0,0,1-1.25-.49,1.6,1.6,0,0,1-.53-1.22,1.66,1.66,0,0,1,.53-1.24,1.71,1.71,0,0,1,1.25-.51A1.77,1.77,0,0,1,631,744a1.64,1.64,0,0,1,.54,1.24,1.58,1.58,0,0,1-.54,1.22A1.79,1.79,0,0,1,629.77,747Zm-1.4,18.76V750.79h2.8v14.92Z"/><path class="cls-1" d="M647.93,758.57h-10.7v.13a5.12,5.12,0,0,0,1.35,3.81,5,5,0,0,0,3.67,1.33,10.64,10.64,0,0,0,2.14-.19,13.33,13.33,0,0,0,2.05-.63l.57,2.06a10.21,10.21,0,0,1-2.18.67,13.41,13.41,0,0,1-2.68.25,10.23,10.23,0,0,1-3-.44,6.93,6.93,0,0,1-2.49-1.39,6.38,6.38,0,0,1-1.7-2.39,8.81,8.81,0,0,1-.62-3.49,9.14,9.14,0,0,1,.52-3.18,6.93,6.93,0,0,1,1.48-2.43,6.62,6.62,0,0,1,2.3-1.55,7.9,7.9,0,0,1,3-.56,6.71,6.71,0,0,1,2.59.48,5.8,5.8,0,0,1,2,1.33,5.73,5.73,0,0,1,1.27,2.07,7.54,7.54,0,0,1,.45,2.66Zm-2.89-2a5.46,5.46,0,0,0-.21-1.54,3.77,3.77,0,0,0-.63-1.25,3,3,0,0,0-1.1-.86,3.74,3.74,0,0,0-1.62-.32,3.82,3.82,0,0,0-2.84,1.11,5.07,5.07,0,0,0-1.35,2.93Z"/><path class="cls-1" d="M653.74,765.71h-2.8V750.79h2.19l.42,2.07a8.46,8.46,0,0,1,2.33-1.7,6.42,6.42,0,0,1,2.81-.59,4.89,4.89,0,0,1,3.59,1.29,4.81,4.81,0,0,1,1.3,3.57v10.28h-2.8v-9.87a3.14,3.14,0,0,0-.71-2.17,2.75,2.75,0,0,0-2.17-.81,5.71,5.71,0,0,0-4.16,2Z"/><path class="cls-1" d="M684.94,750.79h2.8v14.92h-2.19l-.38-1.87H685a6.7,6.7,0,0,1-2,1.54,6.22,6.22,0,0,1-2.84.62,5.34,5.34,0,0,1-3.76-1.32,5.1,5.1,0,0,1-1.45-4v-9.91h2.8v9.56A5.14,5.14,0,0,0,678,762a2.76,2.76,0,0,0,.64,1.06,2.17,2.17,0,0,0,.94.57,3.68,3.68,0,0,0,1.17.18,4.81,4.81,0,0,0,2.29-.54,8,8,0,0,0,1.93-1.49Z"/><path class="cls-1" d="M694.45,765.71h-2.79V750.79h2.19l.41,2.07a8.5,8.5,0,0,1,2.34-1.7,6.42,6.42,0,0,1,2.81-.59,4.86,4.86,0,0,1,3.58,1.29,4.77,4.77,0,0,1,1.3,3.57v10.28H701.5v-9.87a3.19,3.19,0,0,0-.71-2.17,2.76,2.76,0,0,0-2.18-.81,5.72,5.72,0,0,0-4.16,2Z"/><path class="cls-1" d="M718.23,743.17H721v22.54h-2.34l-.35-1.65h-.1a6.9,6.9,0,0,1-2,1.48,6,6,0,0,1-2.53.46,6,6,0,0,1-4.35-1.9,7.07,7.07,0,0,1-1.42-2.4,9.5,9.5,0,0,1-.54-3.41,10.22,10.22,0,0,1,.46-3.18,7,7,0,0,1,1.31-2.44,5.62,5.62,0,0,1,2.1-1.56,7,7,0,0,1,2.82-.54,6.66,6.66,0,0,1,2.24.37,5.57,5.57,0,0,1,1.89,1.09Zm0,11.21a4.56,4.56,0,0,0-3.52-1.68,4.78,4.78,0,0,0-1.67.3,3.61,3.61,0,0,0-1.43,1,5,5,0,0,0-1,1.71,7.49,7.49,0,0,0-.38,2.51,8.45,8.45,0,0,0,.35,2.59,4.81,4.81,0,0,0,.94,1.74,3.52,3.52,0,0,0,1.33,1,3.69,3.69,0,0,0,1.51.32,4.57,4.57,0,0,0,3.87-2.06Z"/><path class="cls-1" d="M150.35,788.89h3l2.54,9.4.57,3.33h.13l.7-3.33,2.57-9.4h3l2.63,9.4.67,3.33h.13l.69-3.33,2.48-9.4h2.86l-4.54,14.92H164.6l-2.54-9.14-.73-3.68-.76,3.68-2.6,9.14h-3Z"/><path class="cls-1" d="M184.6,788.89h2.79v14.92H185.2l-.38-1.87h-.13a7,7,0,0,1-2.05,1.54,6.22,6.22,0,0,1-2.84.62,5.36,5.36,0,0,1-3.76-1.32,5.15,5.15,0,0,1-1.44-4v-9.9h2.79v9.56a4.75,4.75,0,0,0,.24,1.61,2.92,2.92,0,0,0,.63,1.07,2.45,2.45,0,0,0,.94.57,3.68,3.68,0,0,0,1.17.17,4.81,4.81,0,0,0,2.29-.54,7.75,7.75,0,0,0,1.94-1.49Z"/><path class="cls-1" d="M191.29,803.81V788.89h2.09l.48,3a4.94,4.94,0,0,1,1.77-2.31,4.74,4.74,0,0,1,2.86-.89,6.5,6.5,0,0,1,1.37.12,7.51,7.51,0,0,1,1,.32l-.54,2.45a4,4,0,0,0-.84-.32,4.37,4.37,0,0,0-1.1-.13,4.42,4.42,0,0,0-1.69.32,3.8,3.8,0,0,0-1.37,1,4.59,4.59,0,0,0-.92,1.57,6.47,6.47,0,0,0-.33,2.15v7.71Z"/><path class="cls-1" d="M212.7,781.27h2.8v22.54h-2.35l-.35-1.65h-.1a6.64,6.64,0,0,1-2,1.48,6.17,6.17,0,0,1-2.52.46,5.9,5.9,0,0,1-2.34-.48,5.8,5.8,0,0,1-2-1.43,6.9,6.9,0,0,1-1.43-2.4,9.72,9.72,0,0,1-.54-3.41,10.2,10.2,0,0,1,.46-3.17,7,7,0,0,1,1.32-2.45,5.75,5.75,0,0,1,2.09-1.55,7,7,0,0,1,2.83-.54,7,7,0,0,1,2.24.36,5.64,5.64,0,0,1,1.88,1.1Zm0,11.21a4.58,4.58,0,0,0-3.52-1.69,4.8,4.8,0,0,0-1.67.31,3.76,3.76,0,0,0-1.43,1,5.2,5.2,0,0,0-1,1.72,7.45,7.45,0,0,0-.38,2.51,8.38,8.38,0,0,0,.35,2.58,5.18,5.18,0,0,0,.94,1.75,3.6,3.6,0,0,0,1.33,1,3.87,3.87,0,0,0,1.51.32,4.56,4.56,0,0,0,3.87-2.07Z"/><path class="cls-1" d="M232.23,796.67h-10.7v.12a5.11,5.11,0,0,0,1.35,3.81,5,5,0,0,0,3.66,1.34,11.46,11.46,0,0,0,2.15-.19,12.42,12.42,0,0,0,2.05-.64l.57,2.07a10.84,10.84,0,0,1-2.18.66,13.39,13.39,0,0,1-2.68.26,9.91,9.91,0,0,1-3-.45,6.76,6.76,0,0,1-2.49-1.38,6.34,6.34,0,0,1-1.7-2.4,8.75,8.75,0,0,1-.62-3.49,9.13,9.13,0,0,1,.52-3.17,6.84,6.84,0,0,1,1.48-2.43,6.51,6.51,0,0,1,2.3-1.56,7.9,7.9,0,0,1,3-.55,6.91,6.91,0,0,1,2.59.47,5.83,5.83,0,0,1,2,1.34,5.77,5.77,0,0,1,1.27,2.06,7.59,7.59,0,0,1,.45,2.67Zm-2.89-2a5.41,5.41,0,0,0-.21-1.54,3.73,3.73,0,0,0-.63-1.26,3,3,0,0,0-1.1-.85,3.74,3.74,0,0,0-1.62-.32,3.82,3.82,0,0,0-2.84,1.11,5,5,0,0,0-1.35,2.92Z"/><path class="cls-1" d="M251.75,788.89h3l-5.55,14.92h-2.73l-5.62-14.92h3l3.36,10.25.57,2.35h.13l.54-2.31Z"/><path class="cls-1" d="M270.23,796.19a9.23,9.23,0,0,1-.57,3.35,7.11,7.11,0,0,1-1.57,2.49,6.63,6.63,0,0,1-2.33,1.54,7.85,7.85,0,0,1-2.89.53,8,8,0,0,1-2.87-.5,6.11,6.11,0,0,1-2.29-1.46,6.67,6.67,0,0,1-1.52-2.38,8.82,8.82,0,0,1-.56-3.25,9.08,9.08,0,0,1,.57-3.33,7.16,7.16,0,0,1,1.57-2.47,6.9,6.9,0,0,1,2.34-1.52,7.81,7.81,0,0,1,2.89-.52,8.6,8.6,0,0,1,2.87.47,6.26,6.26,0,0,1,2.28,1.43,6.74,6.74,0,0,1,1.53,2.37A8.82,8.82,0,0,1,270.23,796.19Zm-2.92.16a7.35,7.35,0,0,0-.38-2.54,4.89,4.89,0,0,0-1-1.71,3.61,3.61,0,0,0-1.41-1,4.55,4.55,0,0,0-1.62-.3,5.27,5.27,0,0,0-1.62.25,3.38,3.38,0,0,0-1.4.89,4.54,4.54,0,0,0-1,1.7,8.17,8.17,0,0,0-.37,2.68,7.72,7.72,0,0,0,.38,2.56,5.15,5.15,0,0,0,1,1.73,4,4,0,0,0,1.41,1,4.37,4.37,0,0,0,1.62.32,5,5,0,0,0,1.62-.27,3.39,3.39,0,0,0,1.4-.92,5,5,0,0,0,1-1.72A8.47,8.47,0,0,0,267.31,796.35Z"/><path class="cls-1" d="M276.12,803.81h-2.79V788.89h2.19l.41,2.06a8.82,8.82,0,0,1,2.33-1.7,6.48,6.48,0,0,1,2.81-.58,4.91,4.91,0,0,1,3.59,1.28,4.79,4.79,0,0,1,1.3,3.57v10.29h-2.79v-9.87a3.21,3.21,0,0,0-.71-2.18,2.77,2.77,0,0,0-2.18-.81,5.76,5.76,0,0,0-4.16,2Z"/><path class="cls-1" d="M297.71,783.81h2.54l9.11,12.67c.34.46.67.94,1,1.43s.61,1,.86,1.42h.06q-.06-1.11-.09-2.22t0-2.22V783.81H314v20h-2.54l-9-12.51c-.32-.44-.65-.94-1-1.51s-.65-1.11-.95-1.66h-.06c0,.89.07,1.78.09,2.66s0,1.78,0,2.67v10.35h-2.86Z"/><path class="cls-1" d="M332.12,796.19a9.23,9.23,0,0,1-.57,3.35A7.11,7.11,0,0,1,330,802a6.63,6.63,0,0,1-2.33,1.54,7.82,7.82,0,0,1-2.89.53,8,8,0,0,1-2.87-.5,6.19,6.19,0,0,1-2.29-1.46,6.67,6.67,0,0,1-1.52-2.38,8.82,8.82,0,0,1-.56-3.25,9.08,9.08,0,0,1,.57-3.33,7.16,7.16,0,0,1,1.57-2.47,6.9,6.9,0,0,1,2.34-1.52,7.81,7.81,0,0,1,2.89-.52,8.6,8.6,0,0,1,2.87.47,6.26,6.26,0,0,1,2.28,1.43,6.74,6.74,0,0,1,1.53,2.37A8.82,8.82,0,0,1,332.12,796.19Zm-2.92.16a7.35,7.35,0,0,0-.38-2.54,4.89,4.89,0,0,0-1-1.71,3.61,3.61,0,0,0-1.41-1,4.55,4.55,0,0,0-1.62-.3,5.27,5.27,0,0,0-1.62.25,3.38,3.38,0,0,0-1.4.89,4.54,4.54,0,0,0-1,1.7,8.17,8.17,0,0,0-.37,2.68,7.72,7.72,0,0,0,.38,2.56,5.15,5.15,0,0,0,1,1.73,4,4,0,0,0,1.41,1,4.37,4.37,0,0,0,1.62.32,5,5,0,0,0,1.62-.27,3.39,3.39,0,0,0,1.4-.92,5,5,0,0,0,1-1.72A8.47,8.47,0,0,0,329.2,796.35Z"/><path class="cls-1" d="M349,796.19a9.23,9.23,0,0,1-.57,3.35,7.11,7.11,0,0,1-1.57,2.49,6.72,6.72,0,0,1-2.33,1.54,7.85,7.85,0,0,1-2.89.53,8.14,8.14,0,0,1-2.88-.5,6.15,6.15,0,0,1-2.28-1.46,6.69,6.69,0,0,1-1.53-2.38,8.82,8.82,0,0,1-.55-3.25,9.08,9.08,0,0,1,.57-3.33,7.16,7.16,0,0,1,1.57-2.47,6.9,6.9,0,0,1,2.34-1.52,7.76,7.76,0,0,1,2.88-.52,8.61,8.61,0,0,1,2.88.47,6.35,6.35,0,0,1,2.28,1.43,6.74,6.74,0,0,1,1.53,2.37A8.82,8.82,0,0,1,349,796.19Zm-2.92.16a7.59,7.59,0,0,0-.38-2.54,4.89,4.89,0,0,0-1-1.71,3.61,3.61,0,0,0-1.41-1,4.55,4.55,0,0,0-1.62-.3,5.27,5.27,0,0,0-1.62.25,3.32,3.32,0,0,0-1.4.89,4.69,4.69,0,0,0-1,1.7,8.47,8.47,0,0,0-.36,2.68,7.72,7.72,0,0,0,.38,2.56,5,5,0,0,0,1,1.73,3.87,3.87,0,0,0,1.41,1,4.37,4.37,0,0,0,1.62.32,5,5,0,0,0,1.62-.27,3.39,3.39,0,0,0,1.4-.92,5,5,0,0,0,1-1.72A8.47,8.47,0,0,0,346.1,796.35Z"/><path class="cls-1" d="M358.37,804.1a6.72,6.72,0,0,1-1.95-.29,5.4,5.4,0,0,1-1.6-.76v8.06h-2.76V788.67h2.31l.42,1.93a9.29,9.29,0,0,1,1.93-1.36,5.38,5.38,0,0,1,2.54-.57,6,6,0,0,1,4.7,1.9,7.91,7.91,0,0,1,1.72,5.46,9.62,9.62,0,0,1-.62,3.62,7.31,7.31,0,0,1-1.65,2.51,6.72,6.72,0,0,1-2.35,1.46A7.83,7.83,0,0,1,358.37,804.1Zm.29-13.15a4.15,4.15,0,0,0-2.32.65,7.09,7.09,0,0,0-1.52,1.32v8a5.17,5.17,0,0,0,1.55.79,5.57,5.57,0,0,0,1.65.26,5.15,5.15,0,0,0,1.72-.3,4,4,0,0,0,1.52-1,5.1,5.1,0,0,0,1.08-1.81,7.77,7.77,0,0,0,.41-2.73,6.29,6.29,0,0,0-1-3.77A3.54,3.54,0,0,0,358.66,791Z"/><path class="cls-1" d="M378.72,788.89h2.79v14.92h-2.19l-.38-1.87h-.13a7.12,7.12,0,0,1-2,1.54,6.25,6.25,0,0,1-2.84.62,5.38,5.38,0,0,1-3.77-1.32,5.15,5.15,0,0,1-1.44-4v-9.9h2.79v9.56a4.75,4.75,0,0,0,.24,1.61,2.8,2.8,0,0,0,.64,1.07,2.34,2.34,0,0,0,.93.57,3.7,3.7,0,0,0,1.18.17,4.77,4.77,0,0,0,2.28-.54,7.58,7.58,0,0,0,1.94-1.49Z"/><path class="cls-1" d="M385.41,803.81V788.89h2.09l.48,3a4.9,4.9,0,0,1,1.78-2.31,4.72,4.72,0,0,1,2.86-.89,6.4,6.4,0,0,1,1.36.12,7,7,0,0,1,1,.32l-.54,2.45a4,4,0,0,0-.84-.32,4.28,4.28,0,0,0-1.09-.13,4.47,4.47,0,0,0-1.7.32,3.89,3.89,0,0,0-1.37,1,4.75,4.75,0,0,0-.92,1.57,6.47,6.47,0,0,0-.33,2.15v7.71Z"/><path class="cls-1" d="M411.22,783.81a12.36,12.36,0,0,1,3.93.6,8.74,8.74,0,0,1,3.13,1.8,8.08,8.08,0,0,1,2.06,3,10.79,10.79,0,0,1,.75,4.18,12,12,0,0,1-.89,4.88,8.49,8.49,0,0,1-2.4,3.24,9.1,9.1,0,0,1-3.49,1.78,15.9,15.9,0,0,1-4.2.54h-5.4v-20Zm-3.59,17.59h2.19a12.85,12.85,0,0,0,3-.34,6.28,6.28,0,0,0,2.59-1.23,6.67,6.67,0,0,0,1.83-2.46,9.93,9.93,0,0,0,.7-4,8.48,8.48,0,0,0-.51-3,6,6,0,0,0-1.46-2.24,6.48,6.48,0,0,0-2.3-1.38,8.91,8.91,0,0,0-3-.48h-3Z"/><path class="cls-1" d="M424.31,790.22c.5-.25,1-.48,1.42-.68a10,10,0,0,1,2.7-.78,12.12,12.12,0,0,1,1.53-.09,9,9,0,0,1,2.27.27,4.43,4.43,0,0,1,1.77.9,4.15,4.15,0,0,1,1.16,1.67,6.92,6.92,0,0,1,.42,2.59v9.71h-2.32l-.35-1.65h-.06a5.73,5.73,0,0,1-2.16,1.49,7.26,7.26,0,0,1-2.61.45,6,6,0,0,1-2-.31,4.75,4.75,0,0,1-1.57-.85,3.69,3.69,0,0,1-1-1.35,4.11,4.11,0,0,1-.37-1.78,4,4,0,0,1,1.86-3.57,8.74,8.74,0,0,1,4.9-1.22h2.86v-1.27a2.55,2.55,0,0,0-.82-2.21,3.82,3.82,0,0,0-2.23-.59,7.8,7.8,0,0,0-1.89.27,10.63,10.63,0,0,0-2.42,1Zm8.47,6.7-2.35.07a5.87,5.87,0,0,0-3.38.84,2.33,2.33,0,0,0-1,1.88,2.68,2.68,0,0,0,.22,1.13,1.85,1.85,0,0,0,.59.72,2.3,2.3,0,0,0,.86.36,4.34,4.34,0,0,0,1,.11,5.08,5.08,0,0,0,2.13-.49,5,5,0,0,0,1.9-1.57Z"/><path class="cls-1" d="M447.06,791h-4.39v8.66a1.69,1.69,0,0,0,.56,1.49,2.45,2.45,0,0,0,1.44.38,7.21,7.21,0,0,0,1.4-.14,8.9,8.9,0,0,0,1.33-.33l.45,2.13a9.18,9.18,0,0,1-1.62.44,10.59,10.59,0,0,1-2.06.19,4.57,4.57,0,0,1-3.24-1,3.68,3.68,0,0,1-1-2.81v-9h-2.22v-2.1h2.22v-4.76h2.76v4.76h4.39Z"/><path class="cls-1" d="M449.06,788.89h3l3.18,8.54L456.3,801h.06l1.08-3.56,2.89-8.54h2.86l-5.75,16.19a11.65,11.65,0,0,1-2.4,4.22,8.45,8.45,0,0,1-3.44,2.22l-1.21-2.22a8,8,0,0,0,2.65-1.65,7.1,7.1,0,0,0,1.8-3l.28-.86Z"/><path class="cls-1" d="M477.67,796.67H467v.12a5.11,5.11,0,0,0,1.35,3.81,5,5,0,0,0,3.67,1.34,11.35,11.35,0,0,0,2.14-.19,11.86,11.86,0,0,0,2.05-.64l.57,2.07a10.73,10.73,0,0,1-2.17.66,13.49,13.49,0,0,1-2.69.26,9.91,9.91,0,0,1-3-.45,6.76,6.76,0,0,1-2.49-1.38,6.34,6.34,0,0,1-1.7-2.4,8.93,8.93,0,0,1-.62-3.49,9.13,9.13,0,0,1,.53-3.17,7,7,0,0,1,1.47-2.43,6.6,6.6,0,0,1,2.3-1.56,7.92,7.92,0,0,1,3-.55,6.85,6.85,0,0,1,2.58.47,5.77,5.77,0,0,1,2,1.34,5.91,5.91,0,0,1,1.27,2.06,7.83,7.83,0,0,1,.44,2.67Zm-2.89-2a5.79,5.79,0,0,0-.2-1.54,3.57,3.57,0,0,0-.64-1.26,3,3,0,0,0-1.09-.85,4.21,4.21,0,0,0-4.46.79,5,5,0,0,0-1.35,2.92Z"/><path class="cls-1" d="M498,788.89h2.79v14.92h-2.19l-.38-1.87h-.12a7.31,7.31,0,0,1-2.05,1.54,6.25,6.25,0,0,1-2.84.62,5.38,5.38,0,0,1-3.77-1.32,5.15,5.15,0,0,1-1.44-4v-9.9h2.79v9.56a4.75,4.75,0,0,0,.24,1.61,2.8,2.8,0,0,0,.64,1.07,2.34,2.34,0,0,0,.93.57,3.7,3.7,0,0,0,1.18.17,4.77,4.77,0,0,0,2.28-.54,7.58,7.58,0,0,0,1.94-1.49Z"/><path class="cls-1" d="M507.53,803.81h-2.79V788.89h2.19l.41,2.06a8.82,8.82,0,0,1,2.33-1.7,6.45,6.45,0,0,1,2.81-.58,4.91,4.91,0,0,1,3.59,1.28,4.79,4.79,0,0,1,1.3,3.57v10.29h-2.79v-9.87a3.17,3.17,0,0,0-.72-2.18,2.74,2.74,0,0,0-2.17-.81,5.76,5.76,0,0,0-4.16,2Z"/><path class="cls-1" d="M531.31,781.27h2.79v22.54h-2.35l-.35-1.65h-.09a6.8,6.8,0,0,1-2,1.48,6.1,6.1,0,0,1-2.52.46,5.92,5.92,0,0,1-4.35-1.91,7.06,7.06,0,0,1-1.43-2.4,9.72,9.72,0,0,1-.54-3.41,10.5,10.5,0,0,1,.46-3.17,7.2,7.2,0,0,1,1.32-2.45,5.7,5.7,0,0,1,2.1-1.55,7.41,7.41,0,0,1,5.06-.18,5.59,5.59,0,0,1,1.89,1.1Zm0,11.21a4.59,4.59,0,0,0-3.53-1.69,4.74,4.74,0,0,0-1.66.31,3.69,3.69,0,0,0-1.43,1,5,5,0,0,0-1,1.72,7.45,7.45,0,0,0-.38,2.51,8.09,8.09,0,0,0,.35,2.58,5,5,0,0,0,.93,1.75,3.63,3.63,0,0,0,1.34,1,3.83,3.83,0,0,0,1.51.32,4.59,4.59,0,0,0,3.87-2.07Z"/><path class="cls-1" d="M545.85,783.81h6.28a9.3,9.3,0,0,1,2.83.4,6.06,6.06,0,0,1,2.19,1.17,5.43,5.43,0,0,1,1.43,1.91,6.19,6.19,0,0,1,.51,2.58,6.45,6.45,0,0,1-.54,2.75,5.14,5.14,0,0,1-1.53,1.92,6.66,6.66,0,0,1-2.31,1.14,10.56,10.56,0,0,1-3,.38h-3v7.75h-2.92Zm2.92,9.87h1.81a13.75,13.75,0,0,0,2.19-.16,4.77,4.77,0,0,0,1.73-.57,3,3,0,0,0,1.13-1.16,3.88,3.88,0,0,0,.41-1.88,3.56,3.56,0,0,0-.4-1.77,3.36,3.36,0,0,0-1-1.15,4.11,4.11,0,0,0-1.46-.64,7.27,7.27,0,0,0-1.68-.19h-2.7Z"/><path class="cls-1" d="M561.8,790.22c.51-.25,1-.48,1.43-.68a10.21,10.21,0,0,1,1.33-.49,10.41,10.41,0,0,1,1.37-.29,11.84,11.84,0,0,1,1.52-.09,8.94,8.94,0,0,1,2.27.27,4.48,4.48,0,0,1,1.78.9,4.25,4.25,0,0,1,1.16,1.67,7.14,7.14,0,0,1,.41,2.59v9.71h-2.32l-.35-1.65h-.06a5.73,5.73,0,0,1-2.16,1.49,7.2,7.2,0,0,1-2.6.45,6.06,6.06,0,0,1-2-.31,4.85,4.85,0,0,1-1.57-.85,3.8,3.8,0,0,1-1-1.35,4.26,4.26,0,0,1-.36-1.78,4,4,0,0,1,1.85-3.57,8.78,8.78,0,0,1,4.91-1.22h2.85v-1.27a2.55,2.55,0,0,0-.82-2.21,3.77,3.77,0,0,0-2.22-.59,7.8,7.8,0,0,0-1.89.27,10.68,10.68,0,0,0-2.43,1Zm8.48,6.7-2.35.07a5.83,5.83,0,0,0-3.38.84,2.3,2.3,0,0,0-1,1.88,2.53,2.53,0,0,0,.22,1.13,1.77,1.77,0,0,0,.59.72,2.25,2.25,0,0,0,.85.36,4.34,4.34,0,0,0,1,.11,5.09,5.09,0,0,0,4-2.06Z"/><path class="cls-1" d="M576.93,803.81V781.27h2.73v22.54Z"/><path class="cls-1" d="M583.69,803.81V781.27h2.73v22.54Z"/><path class="cls-1" d="M590.52,790.22c.51-.25,1-.48,1.43-.68a10.21,10.21,0,0,1,1.33-.49,10.41,10.41,0,0,1,1.37-.29,11.84,11.84,0,0,1,1.52-.09,8.94,8.94,0,0,1,2.27.27,4.48,4.48,0,0,1,1.78.9,4.25,4.25,0,0,1,1.16,1.67,7.14,7.14,0,0,1,.41,2.59v9.71h-2.32l-.35-1.65h-.06a5.73,5.73,0,0,1-2.16,1.49,7.2,7.2,0,0,1-2.6.45,6.06,6.06,0,0,1-2-.31,4.85,4.85,0,0,1-1.57-.85,3.8,3.8,0,0,1-1-1.35,4.26,4.26,0,0,1-.36-1.78,4,4,0,0,1,1.85-3.57,8.78,8.78,0,0,1,4.91-1.22H599v-1.27a2.55,2.55,0,0,0-.82-2.21,3.77,3.77,0,0,0-2.22-.59,7.8,7.8,0,0,0-1.89.27,10.68,10.68,0,0,0-2.43,1Zm8.48,6.7-2.35.07a5.83,5.83,0,0,0-3.38.84,2.3,2.3,0,0,0-1,1.88,2.53,2.53,0,0,0,.22,1.13,1.77,1.77,0,0,0,.59.72,2.25,2.25,0,0,0,.85.36,4.34,4.34,0,0,0,1,.11,5.09,5.09,0,0,0,4-2.06Z"/><path class="cls-1" d="M614.36,788.89h3l-5.56,14.92h-2.73l-5.62-14.92h3l3.37,10.25.57,2.35h.12l.54-2.31Z"/><path class="cls-1" d="M621.29,785.05a1.79,1.79,0,0,1-1.25-.49,1.63,1.63,0,0,1-.53-1.23,1.66,1.66,0,0,1,.53-1.23,1.72,1.72,0,0,1,1.25-.51,1.75,1.75,0,0,1,1.24.51,1.63,1.63,0,0,1,.54,1.23,1.6,1.6,0,0,1-.54,1.23A1.82,1.82,0,0,1,621.29,785.05Zm-1.4,18.76V788.89h2.8v14.92Z"/><path class="cls-1" d="M634.69,803.81v-20h2.92v9.05l8.41-9.05h3.62l-8.25,8.86,8.88,11.14h-3.68l-7.3-9.14-1.68,1.81v7.33Z"/><path class="cls-1" d="M652.52,790.22c.51-.25,1-.48,1.43-.68a10.21,10.21,0,0,1,1.33-.49,10.41,10.41,0,0,1,1.37-.29,11.84,11.84,0,0,1,1.52-.09,9,9,0,0,1,2.27.27,4.48,4.48,0,0,1,1.78.9,4.35,4.35,0,0,1,1.16,1.67,7.14,7.14,0,0,1,.41,2.59v9.71h-2.32l-.35-1.65h-.06a5.73,5.73,0,0,1-2.16,1.49,7.2,7.2,0,0,1-2.6.45,6.06,6.06,0,0,1-2-.31,4.85,4.85,0,0,1-1.57-.85,3.8,3.8,0,0,1-1-1.35,4.26,4.26,0,0,1-.37-1.78,4,4,0,0,1,1.86-3.57,8.75,8.75,0,0,1,4.91-1.22H661v-1.27a2.55,2.55,0,0,0-.82-2.21,3.77,3.77,0,0,0-2.22-.59,7.73,7.73,0,0,0-1.89.27,10.68,10.68,0,0,0-2.43,1Zm8.47,6.7-2.34.07a5.89,5.89,0,0,0-3.39.84,2.33,2.33,0,0,0-1,1.88,2.52,2.52,0,0,0,.23,1.13,1.75,1.75,0,0,0,.58.72,2.37,2.37,0,0,0,.86.36,4.34,4.34,0,0,0,1,.11,5.08,5.08,0,0,0,2.13-.49A5,5,0,0,0,661,800Z"/><path class="cls-1" d="M667.55,803.81V788.89h2.09l.48,3a4.9,4.9,0,0,1,1.78-2.31,4.69,4.69,0,0,1,2.85-.89,6.5,6.5,0,0,1,1.37.12,7,7,0,0,1,1,.32l-.54,2.45a4,4,0,0,0-.84-.32,4.34,4.34,0,0,0-1.09-.13,4.47,4.47,0,0,0-1.7.32,3.8,3.8,0,0,0-1.37,1,4.59,4.59,0,0,0-.92,1.57,6.47,6.47,0,0,0-.33,2.15v7.71Z"/><path class="cls-1" d="M679.31,790.22l1.43-.68a10,10,0,0,1,2.7-.78,12.12,12.12,0,0,1,1.53-.09,9,9,0,0,1,2.27.27,4.43,4.43,0,0,1,1.77.9,4.15,4.15,0,0,1,1.16,1.67,6.93,6.93,0,0,1,.41,2.59v9.71h-2.31l-.35-1.65h-.07a5.62,5.62,0,0,1-2.15,1.49,7.26,7.26,0,0,1-2.61.45,6,6,0,0,1-2-.31,4.75,4.75,0,0,1-1.57-.85,3.69,3.69,0,0,1-1-1.35,4.11,4.11,0,0,1-.37-1.78,4,4,0,0,1,1.86-3.57,8.74,8.74,0,0,1,4.9-1.22h2.86v-1.27a2.55,2.55,0,0,0-.83-2.21,3.77,3.77,0,0,0-2.22-.59,7.8,7.8,0,0,0-1.89.27,10.68,10.68,0,0,0-2.43,1Zm8.48,6.7-2.35.07a5.85,5.85,0,0,0-3.38.84,2.3,2.3,0,0,0-1,1.88,2.53,2.53,0,0,0,.22,1.13,1.85,1.85,0,0,0,.59.72,2.3,2.3,0,0,0,.86.36,4.34,4.34,0,0,0,1,.11,5.08,5.08,0,0,0,2.13-.49,5,5,0,0,0,1.9-1.57Z"/><path class="cls-1" d="M697.17,803.81h-2.79V788.89h2.15L697,791a9,9,0,0,1,2.25-1.66,6.17,6.17,0,0,1,2.89-.62,4.66,4.66,0,0,1,2.6.65,4,4,0,0,1,1.53,1.79,8.37,8.37,0,0,1,2.44-1.81,6.81,6.81,0,0,1,3-.63,4.42,4.42,0,0,1,3.45,1.28,5.16,5.16,0,0,1,1.16,3.57v10.29h-2.8V794a3.6,3.6,0,0,0-.63-2.28,2.54,2.54,0,0,0-2.1-.8,5.57,5.57,0,0,0-4,1.94,1.73,1.73,0,0,1,0,.32v10.6H703.9V794a3.54,3.54,0,0,0-.64-2.28,2.52,2.52,0,0,0-2.09-.8,5.36,5.36,0,0,0-4,2Z"/><path class="cls-1" d="M733.89,796.35a9,9,0,0,1-.54,3.21,7.69,7.69,0,0,1-1.46,2.44,6.36,6.36,0,0,1-2.16,1.56,6.56,6.56,0,0,1-2.64.54,7.1,7.1,0,0,1-2.55-.42,6.19,6.19,0,0,1-2-1.27h-.06l-.29,1.4h-2V781.27h2.76v9.49a6.34,6.34,0,0,1,2.24-1.58,6.57,6.57,0,0,1,2.56-.51,5.55,5.55,0,0,1,4.52,2A8.67,8.67,0,0,1,733.89,796.35Zm-2.93,0a6.67,6.67,0,0,0-1-4,3.44,3.44,0,0,0-3-1.48,4.5,4.5,0,0,0-2.19.54A7.24,7.24,0,0,0,722.9,793v7.23a5.67,5.67,0,0,0,1.51,1.23,4.07,4.07,0,0,0,2,.46,4.91,4.91,0,0,0,1.73-.32,3.85,3.85,0,0,0,1.48-1,4.94,4.94,0,0,0,1-1.73A7.21,7.21,0,0,0,731,796.38Z"/><path class="cls-1" d="M749.8,796.67H739.1v.12a5.11,5.11,0,0,0,1.35,3.81,5,5,0,0,0,3.67,1.34,11.35,11.35,0,0,0,2.14-.19,12.14,12.14,0,0,0,2-.64l.57,2.07a10.64,10.64,0,0,1-2.18.66,13.39,13.39,0,0,1-2.68.26,9.91,9.91,0,0,1-3-.45,6.76,6.76,0,0,1-2.49-1.38,6.34,6.34,0,0,1-1.7-2.4,8.93,8.93,0,0,1-.62-3.49,9.37,9.37,0,0,1,.52-3.17,7,7,0,0,1,1.48-2.43,6.6,6.6,0,0,1,2.3-1.56,7.9,7.9,0,0,1,3-.55,6.87,6.87,0,0,1,2.59.47,5.7,5.7,0,0,1,3.26,3.4,7.83,7.83,0,0,1,.44,2.67Zm-2.89-2a5.41,5.41,0,0,0-.21-1.54,3.4,3.4,0,0,0-.63-1.26A3,3,0,0,0,745,791a3.73,3.73,0,0,0-1.61-.32,3.83,3.83,0,0,0-2.85,1.11,4.94,4.94,0,0,0-1.34,2.92Z"/><path class="cls-1" d="M752.91,803.81V781.27h2.73v22.54Z"/><path class="cls-1" d="M762.38,798.35v5.46h-2.76V781.27h2.76v14l6-6.41h3.46l-6.12,6.29,6.41,8.63h-3.3l-5-6.95Z"/><path class="cls-1" d="M774.28,790.22c.5-.25,1-.48,1.42-.68a10,10,0,0,1,2.7-.78,12.12,12.12,0,0,1,1.53-.09,9,9,0,0,1,2.27.27,4.43,4.43,0,0,1,1.77.9,4.15,4.15,0,0,1,1.16,1.67,6.92,6.92,0,0,1,.42,2.59v9.71h-2.32l-.35-1.65h-.06a5.73,5.73,0,0,1-2.16,1.49,7.26,7.26,0,0,1-2.61.45,6,6,0,0,1-2-.31,4.75,4.75,0,0,1-1.57-.85,3.69,3.69,0,0,1-1-1.35,4.11,4.11,0,0,1-.37-1.78,4,4,0,0,1,1.86-3.57,8.74,8.74,0,0,1,4.9-1.22h2.86v-1.27a2.52,2.52,0,0,0-.83-2.21,3.77,3.77,0,0,0-2.22-.59,7.8,7.8,0,0,0-1.89.27,10.44,10.44,0,0,0-2.42,1Zm8.47,6.7-2.35.07a5.87,5.87,0,0,0-3.38.84,2.33,2.33,0,0,0-1,1.88,2.68,2.68,0,0,0,.22,1.13,1.85,1.85,0,0,0,.59.72,2.3,2.3,0,0,0,.86.36,4.34,4.34,0,0,0,1,.11,5.08,5.08,0,0,0,2.13-.49,5,5,0,0,0,1.9-1.57Z"/><path class="cls-1" d="M789.3,803.81V788.89h2.1l.48,3a4.94,4.94,0,0,1,1.77-2.31,4.74,4.74,0,0,1,2.86-.89,6.5,6.5,0,0,1,1.37.12,7.51,7.51,0,0,1,1,.32l-.54,2.45a4,4,0,0,0-.84-.32,4.37,4.37,0,0,0-1.1-.13,4.42,4.42,0,0,0-1.69.32,3.8,3.8,0,0,0-1.37,1,4.59,4.59,0,0,0-.92,1.57,6.47,6.47,0,0,0-.33,2.15v7.71Z"/><path class="cls-1" d="M164.86,834.76h-10.7v.13a5.12,5.12,0,0,0,1.35,3.81,5,5,0,0,0,3.66,1.33,10.68,10.68,0,0,0,2.15-.19,13.33,13.33,0,0,0,2.05-.63l.57,2.06a10.21,10.21,0,0,1-2.18.67,13.41,13.41,0,0,1-2.68.25,10.23,10.23,0,0,1-3-.44,7,7,0,0,1-2.49-1.38,6.49,6.49,0,0,1-1.7-2.4,8.78,8.78,0,0,1-.62-3.49,9.14,9.14,0,0,1,.52-3.18,6.93,6.93,0,0,1,1.48-2.43,6.62,6.62,0,0,1,2.3-1.55,7.9,7.9,0,0,1,3-.56,6.71,6.71,0,0,1,2.59.48,5.8,5.8,0,0,1,2,1.33,5.73,5.73,0,0,1,1.27,2.07,7.54,7.54,0,0,1,.45,2.66Zm-2.89-2a5.46,5.46,0,0,0-.21-1.54,3.77,3.77,0,0,0-.63-1.25,3,3,0,0,0-1.1-.86,3.74,3.74,0,0,0-1.62-.32,3.83,3.83,0,0,0-2.84,1.12,5,5,0,0,0-1.35,2.92Z"/><path class="cls-1" d="M170.67,841.91h-2.8V827h2.19l.42,2.07a8.46,8.46,0,0,1,2.33-1.7,6.42,6.42,0,0,1,2.81-.59,4.89,4.89,0,0,1,3.59,1.29,4.83,4.83,0,0,1,1.3,3.57v10.29h-2.8V832a3.14,3.14,0,0,0-.71-2.17,2.75,2.75,0,0,0-2.17-.81,5.71,5.71,0,0,0-4.16,2Z"/><path class="cls-1" d="M192.16,829.08h-4.39v8.67a1.7,1.7,0,0,0,.56,1.49,2.52,2.52,0,0,0,1.44.38,8.08,8.08,0,0,0,1.4-.14,10.22,10.22,0,0,0,1.33-.34l.45,2.13a8.39,8.39,0,0,1-1.62.44,10.58,10.58,0,0,1-2.06.2,4.6,4.6,0,0,1-3.24-1,3.7,3.7,0,0,1-1-2.81v-9h-2.22V827H185v-4.76h2.76V827h4.39Z"/><path class="cls-1" d="M194.19,827h3l2.54,9.4.58,3.33h.12l.7-3.33,2.57-9.4h3l2.63,9.4.67,3.33h.13l.7-3.33,2.47-9.4h2.86l-4.54,14.93h-3.18l-2.54-9.15-.73-3.68-.76,3.68-2.6,9.15h-3Z"/><path class="cls-1" d="M231.76,834.29a9.27,9.27,0,0,1-.57,3.35,7.2,7.2,0,0,1-1.57,2.49,6.87,6.87,0,0,1-2.33,1.54,7.85,7.85,0,0,1-2.89.52,8.14,8.14,0,0,1-2.88-.49,6.42,6.42,0,0,1-2.28-1.46,6.87,6.87,0,0,1-1.53-2.38,8.87,8.87,0,0,1-.55-3.26,9.12,9.12,0,0,1,.57-3.33,7.07,7.07,0,0,1,1.57-2.46,6.81,6.81,0,0,1,2.33-1.52,7.85,7.85,0,0,1,2.89-.53,8.37,8.37,0,0,1,2.88.48,6.21,6.21,0,0,1,2.28,1.43,6.6,6.6,0,0,1,1.53,2.36A8.87,8.87,0,0,1,231.76,834.29Zm-2.92.16a7.51,7.51,0,0,0-.38-2.54,5,5,0,0,0-1-1.72,3.72,3.72,0,0,0-1.41-1,4.55,4.55,0,0,0-1.62-.3,5.59,5.59,0,0,0-1.62.25,3.32,3.32,0,0,0-1.4.89,4.78,4.78,0,0,0-1,1.7,8.54,8.54,0,0,0-.36,2.69,7.7,7.7,0,0,0,.38,2.55,4.9,4.9,0,0,0,1,1.73,3.87,3.87,0,0,0,1.41,1,4.18,4.18,0,0,0,1.62.32,5,5,0,0,0,1.62-.27,3.29,3.29,0,0,0,1.4-.92,4.83,4.83,0,0,0,1-1.71A8.51,8.51,0,0,0,228.84,834.45Z"/><path class="cls-1" d="M234.82,841.91V827h2.1l.48,3a5,5,0,0,1,1.77-2.32,4.81,4.81,0,0,1,2.86-.89,5.83,5.83,0,0,1,1.37.13,5.36,5.36,0,0,1,1,.32l-.54,2.44a4.59,4.59,0,0,0-.84-.32,4.89,4.89,0,0,0-2.79.19,3.83,3.83,0,0,0-1.37,1,4.41,4.41,0,0,0-.92,1.57,6.41,6.41,0,0,0-.33,2.14v7.72Z"/><path class="cls-1" d="M253,819.21a7.34,7.34,0,0,1,1.86.25,8.77,8.77,0,0,1,1.73.64L256,822a8.86,8.86,0,0,0-1.21-.39,4.72,4.72,0,0,0-1.21-.15,2.56,2.56,0,0,0-2.17.86,5,5,0,0,0-.65,2.92V827h4.54v2.1H250.8v12.83H248V829.08h-2.19V827H248v-2.63a5.3,5.3,0,0,1,1.28-3.81A4.9,4.9,0,0,1,253,819.21Z"/><path class="cls-1" d="M270.15,834.76h-10.7v.13a5.12,5.12,0,0,0,1.35,3.81,5,5,0,0,0,3.67,1.33,10.64,10.64,0,0,0,2.14-.19,13.33,13.33,0,0,0,2.05-.63l.57,2.06a10.21,10.21,0,0,1-2.18.67,13.41,13.41,0,0,1-2.68.25,10.23,10.23,0,0,1-3-.44,7.06,7.06,0,0,1-2.49-1.38,6.49,6.49,0,0,1-1.7-2.4,8.78,8.78,0,0,1-.62-3.49,9.14,9.14,0,0,1,.52-3.18,6.93,6.93,0,0,1,1.48-2.43,6.62,6.62,0,0,1,2.3-1.55,7.9,7.9,0,0,1,3-.56,6.71,6.71,0,0,1,2.59.48,5.8,5.8,0,0,1,2,1.33,5.73,5.73,0,0,1,1.27,2.07,7.54,7.54,0,0,1,.45,2.66Zm-2.89-2a5.46,5.46,0,0,0-.21-1.54,3.77,3.77,0,0,0-.63-1.25,3,3,0,0,0-1.1-.86,3.74,3.74,0,0,0-1.62-.32,3.83,3.83,0,0,0-2.84,1.12,5,5,0,0,0-1.35,2.92Z"/><path class="cls-1" d="M276,841.91h-2.8V827h2.19l.42,2.07a8.61,8.61,0,0,1,2.33-1.7,6.42,6.42,0,0,1,2.81-.59,4.89,4.89,0,0,1,3.59,1.29,4.83,4.83,0,0,1,1.3,3.57v10.29H283V832a3.14,3.14,0,0,0-.71-2.17,2.75,2.75,0,0,0-2.17-.81,5.71,5.71,0,0,0-4.16,2Z"/><path class="cls-1" d="M289.47,840.19a1.92,1.92,0,0,1,.58-1.4,1.85,1.85,0,0,1,1.36-.57,1.81,1.81,0,0,1,1.35.57,2.11,2.11,0,0,1,0,2.86,1.86,1.86,0,0,1-1.35.54,1.9,1.9,0,0,1-1.36-.54A1.93,1.93,0,0,1,289.47,840.19Z"/><path class="cls-1" d="M309.66,821.62a16.29,16.29,0,0,1,2.83.24,10.62,10.62,0,0,1,2.7.87l-.7,2.41a13.94,13.94,0,0,0-2.46-.9,9.34,9.34,0,0,0-2.24-.27,4.63,4.63,0,0,0-2.86.79,2.64,2.64,0,0,0-1,2.22,2.56,2.56,0,0,0,.77,1.94,6.52,6.52,0,0,0,2.56,1.27l2,.64a7.5,7.5,0,0,1,3.86,2.33,5.32,5.32,0,0,1,1.12,3.32,5.27,5.27,0,0,1-.52,2.36,5.33,5.33,0,0,1-1.46,1.81,6.52,6.52,0,0,1-2.21,1.14,9.09,9.09,0,0,1-2.79.4,18.3,18.3,0,0,1-3.1-.27,12,12,0,0,1-3.12-1l.7-2.38a13.29,13.29,0,0,0,2.66,1,11.09,11.09,0,0,0,2.73.32,5.16,5.16,0,0,0,2.92-.79,2.62,2.62,0,0,0,1.21-2.35,3,3,0,0,0-.18-1.06,2.5,2.5,0,0,0-.6-.94,4.39,4.39,0,0,0-1.16-.83,12.34,12.34,0,0,0-1.84-.73l-2-.63a8,8,0,0,1-3.36-1.91,4.45,4.45,0,0,1-1.18-3.27,5.32,5.32,0,0,1,1.73-4.17A7.33,7.33,0,0,1,309.66,821.62Z"/><path class="cls-1" d="M320.84,823.14a1.77,1.77,0,0,1-1.26-.49,1.6,1.6,0,0,1-.52-1.22,1.65,1.65,0,0,1,.52-1.24,1.74,1.74,0,0,1,1.26-.51,1.77,1.77,0,0,1,1.24.51,1.64,1.64,0,0,1,.54,1.24,1.58,1.58,0,0,1-.54,1.22A1.79,1.79,0,0,1,320.84,823.14Zm-1.4,18.77V827h2.79v14.93Z"/><path class="cls-1" d="M339,834.76H328.3v.13a5.12,5.12,0,0,0,1.35,3.81,5,5,0,0,0,3.66,1.33,10.68,10.68,0,0,0,2.15-.19,12.92,12.92,0,0,0,2-.63l.58,2.06a10.21,10.21,0,0,1-2.18.67,13.48,13.48,0,0,1-2.68.25,10.23,10.23,0,0,1-3-.44,7,7,0,0,1-2.5-1.38A6.59,6.59,0,0,1,326,838a8.78,8.78,0,0,1-.62-3.49,9.14,9.14,0,0,1,.52-3.18,6.93,6.93,0,0,1,1.48-2.43,6.62,6.62,0,0,1,2.3-1.55,7.9,7.9,0,0,1,3-.56,6.75,6.75,0,0,1,2.59.48,5.8,5.8,0,0,1,2,1.33,5.73,5.73,0,0,1,1.27,2.07,7.54,7.54,0,0,1,.45,2.66Zm-2.89-2a5.46,5.46,0,0,0-.21-1.54,3.77,3.77,0,0,0-.63-1.25,3,3,0,0,0-1.1-.86,3.74,3.74,0,0,0-1.62-.32,3.83,3.83,0,0,0-2.84,1.12,5,5,0,0,0-1.35,2.92Z"/><path class="cls-1" d="M351.19,823.14a1.77,1.77,0,0,1-1.26-.49,1.6,1.6,0,0,1-.52-1.22,1.65,1.65,0,0,1,.52-1.24,1.77,1.77,0,0,1,2.49,0,1.64,1.64,0,0,1,.54,1.24,1.58,1.58,0,0,1-.54,1.22A1.76,1.76,0,0,1,351.19,823.14Zm-1.4,18.77V827h2.79v14.93Z"/><path class="cls-1" d="M365,829.78a8.77,8.77,0,0,0-1.9-.7,7.68,7.68,0,0,0-1.72-.19,3.73,3.73,0,0,0-2.25.56,1.75,1.75,0,0,0-.73,1.47,1.56,1.56,0,0,0,.51,1.16,5.58,5.58,0,0,0,2.13,1l.95.28a8.27,8.27,0,0,1,3.22,1.64,3.5,3.5,0,0,1,1.1,2.71,4,4,0,0,1-1.51,3.27,6.44,6.44,0,0,1-4.21,1.24,14.32,14.32,0,0,1-2.74-.25,9.5,9.5,0,0,1-2.27-.7l.66-2.19a11,11,0,0,0,2,.71,9,9,0,0,0,2.19.27,4.36,4.36,0,0,0,2.27-.51,1.8,1.8,0,0,0,.84-1.68,1.53,1.53,0,0,0-.73-1.44,9.33,9.33,0,0,0-2.09-.84l-1-.32a7.68,7.68,0,0,1-3.06-1.67,3.48,3.48,0,0,1-1-2.59,3.78,3.78,0,0,1,.41-1.74,3.92,3.92,0,0,1,1.13-1.33,5.64,5.64,0,0,1,1.7-.85,7.32,7.32,0,0,1,2.16-.3,13.2,13.2,0,0,1,2.3.21,9.76,9.76,0,0,1,2.27.68Z"/><path class="cls-1" d="M377.22,829.08h-4.38v8.67a1.68,1.68,0,0,0,.56,1.49,2.52,2.52,0,0,0,1.44.38,8.18,8.18,0,0,0,1.4-.14,10.66,10.66,0,0,0,1.33-.34l.44,2.13a8.48,8.48,0,0,1-1.61.44,10.69,10.69,0,0,1-2.07.2,4.61,4.61,0,0,1-3.24-1,3.73,3.73,0,0,1-1-2.81v-9h-2.22V827h2.22v-4.76h2.76V827h4.38Z"/><path class="cls-1" d="M400.68,834.76H390v.13a5.12,5.12,0,0,0,1.35,3.81A5,5,0,0,0,395,840a10.57,10.57,0,0,0,2.14-.19,13,13,0,0,0,2.05-.63l.57,2.06a10,10,0,0,1-2.18.67,13.41,13.41,0,0,1-2.68.25,10.23,10.23,0,0,1-3-.44,7.06,7.06,0,0,1-2.49-1.38,6.49,6.49,0,0,1-1.7-2.4,9,9,0,0,1-.62-3.49,9.38,9.38,0,0,1,.52-3.18,7.08,7.08,0,0,1,1.48-2.43,6.72,6.72,0,0,1,2.3-1.55,7.9,7.9,0,0,1,3-.56,6.68,6.68,0,0,1,2.59.48,5.63,5.63,0,0,1,3.26,3.4,7.77,7.77,0,0,1,.44,2.66Zm-2.89-2a5.46,5.46,0,0,0-.21-1.54A3.43,3.43,0,0,0,397,830a3,3,0,0,0-1.1-.86,3.73,3.73,0,0,0-1.61-.32,3.83,3.83,0,0,0-2.85,1.12,4.94,4.94,0,0,0-1.34,2.92Z"/><path class="cls-1" d="M405.26,823.14a1.76,1.76,0,0,1-1.25-.49,1.6,1.6,0,0,1-.52-1.22,1.65,1.65,0,0,1,.52-1.24,1.77,1.77,0,0,1,2.49,0,1.64,1.64,0,0,1,.54,1.24,1.58,1.58,0,0,1-.54,1.22A1.77,1.77,0,0,1,405.26,823.14Zm-1.39,18.77V827h2.79v14.93Z"/><path class="cls-1" d="M413.5,841.91h-2.79V827h2.19l.41,2.07a8.61,8.61,0,0,1,2.33-1.7,6.45,6.45,0,0,1,2.81-.59,4.87,4.87,0,0,1,3.59,1.29,4.79,4.79,0,0,1,1.3,3.57v10.29h-2.79V832a3.14,3.14,0,0,0-.72-2.17,2.74,2.74,0,0,0-2.17-.81,5.72,5.72,0,0,0-4.16,2Z"/><path class="cls-1" d="M440,834.76h-10.7v.13a5.12,5.12,0,0,0,1.35,3.81,5,5,0,0,0,3.67,1.33,10.64,10.64,0,0,0,2.14-.19,13,13,0,0,0,2-.63l.57,2.06a10.21,10.21,0,0,1-2.18.67,13.41,13.41,0,0,1-2.68.25,10.23,10.23,0,0,1-3-.44,7.06,7.06,0,0,1-2.49-1.38A6.49,6.49,0,0,1,427,838a9,9,0,0,1-.62-3.49,9.14,9.14,0,0,1,.52-3.18,7.08,7.08,0,0,1,1.48-2.43,6.72,6.72,0,0,1,2.3-1.55,7.9,7.9,0,0,1,3-.56,6.68,6.68,0,0,1,2.59.48,5.94,5.94,0,0,1,2,1.33,5.85,5.85,0,0,1,1.26,2.07,7.54,7.54,0,0,1,.45,2.66Zm-2.89-2a5.46,5.46,0,0,0-.21-1.54,3.59,3.59,0,0,0-.63-1.25,3,3,0,0,0-1.1-.86,3.74,3.74,0,0,0-1.62-.32,3.83,3.83,0,0,0-2.84,1.12,5,5,0,0,0-1.35,2.92Z"/><path class="cls-1" d="M459.54,827h3L457,841.91h-2.73L448.62,827h3L455,837.24l.57,2.35h.13l.54-2.32Z"/><path class="cls-1" d="M466.48,823.14a1.73,1.73,0,0,1-1.25-.49,1.6,1.6,0,0,1-.53-1.22,1.66,1.66,0,0,1,.53-1.24,1.71,1.71,0,0,1,1.25-.51,1.77,1.77,0,0,1,1.24.51,1.64,1.64,0,0,1,.54,1.24,1.58,1.58,0,0,1-.54,1.22A1.79,1.79,0,0,1,466.48,823.14Zm-1.4,18.77V827h2.8v14.93Z"/><path class="cls-1" d="M484.64,834.76h-10.7v.13a5.12,5.12,0,0,0,1.35,3.81A5,5,0,0,0,479,840a10.64,10.64,0,0,0,2.14-.19,13.33,13.33,0,0,0,2-.63l.57,2.06a10.21,10.21,0,0,1-2.18.67,13.41,13.41,0,0,1-2.68.25,10.23,10.23,0,0,1-3-.44,7.06,7.06,0,0,1-2.49-1.38,6.49,6.49,0,0,1-1.7-2.4,9,9,0,0,1-.62-3.49,9.14,9.14,0,0,1,.52-3.18,6.93,6.93,0,0,1,1.48-2.43,6.62,6.62,0,0,1,2.3-1.55,7.9,7.9,0,0,1,3-.56,6.71,6.71,0,0,1,2.59.48,5.8,5.8,0,0,1,2,1.33,5.73,5.73,0,0,1,1.27,2.07,7.54,7.54,0,0,1,.45,2.66Zm-2.89-2a5.46,5.46,0,0,0-.21-1.54,3.77,3.77,0,0,0-.63-1.25,3,3,0,0,0-1.1-.86,3.74,3.74,0,0,0-1.62-.32,3.83,3.83,0,0,0-2.84,1.12,5,5,0,0,0-1.35,2.92Z"/><path class="cls-1" d="M487.75,841.91V819.37h2.73v22.54Z"/><path class="cls-1" d="M502.88,829.78a9,9,0,0,0-1.9-.7,7.75,7.75,0,0,0-1.72-.19,3.73,3.73,0,0,0-2.25.56,1.75,1.75,0,0,0-.73,1.47,1.56,1.56,0,0,0,.51,1.16,5.44,5.44,0,0,0,2.12,1l1,.28a8.34,8.34,0,0,1,3.22,1.64,3.49,3.49,0,0,1,1.09,2.71,4,4,0,0,1-1.5,3.27,6.44,6.44,0,0,1-4.21,1.24,14.5,14.5,0,0,1-2.75-.25,9.65,9.65,0,0,1-2.27-.7l.67-2.19a10.71,10.71,0,0,0,2,.71,9,9,0,0,0,2.19.27,4.36,4.36,0,0,0,2.27-.51,1.8,1.8,0,0,0,.84-1.68,1.53,1.53,0,0,0-.73-1.44,9.53,9.53,0,0,0-2.09-.84l-1-.32a7.68,7.68,0,0,1-3.06-1.67,3.48,3.48,0,0,1-1-2.59,3.78,3.78,0,0,1,.41-1.74,3.92,3.92,0,0,1,1.13-1.33,5.53,5.53,0,0,1,1.7-.85,7.32,7.32,0,0,1,2.16-.3,13.29,13.29,0,0,1,2.3.21,9.76,9.76,0,0,1,2.27.68Z"/><path class="cls-1" d="M519.94,834.76h-10.7v.13a5.12,5.12,0,0,0,1.35,3.81,5,5,0,0,0,3.67,1.33,10.64,10.64,0,0,0,2.14-.19,13,13,0,0,0,2.05-.63l.57,2.06a10.21,10.21,0,0,1-2.18.67,13.41,13.41,0,0,1-2.68.25,10.23,10.23,0,0,1-3-.44,7.06,7.06,0,0,1-2.49-1.38,6.49,6.49,0,0,1-1.7-2.4,9,9,0,0,1-.62-3.49,9.14,9.14,0,0,1,.52-3.18,6.93,6.93,0,0,1,1.48-2.43,6.62,6.62,0,0,1,2.3-1.55,7.9,7.9,0,0,1,3-.56,6.68,6.68,0,0,1,2.59.48,5.8,5.8,0,0,1,2,1.33,5.73,5.73,0,0,1,1.27,2.07,7.54,7.54,0,0,1,.45,2.66Zm-2.89-2a5.46,5.46,0,0,0-.21-1.54,3.59,3.59,0,0,0-.63-1.25,3,3,0,0,0-1.1-.86,3.74,3.74,0,0,0-1.62-.32,3.83,3.83,0,0,0-2.84,1.12,5,5,0,0,0-1.35,2.92Z"/><path class="cls-1" d="M524.52,823.14a1.76,1.76,0,0,1-1.25-.49,1.6,1.6,0,0,1-.52-1.22,1.65,1.65,0,0,1,.52-1.24,1.77,1.77,0,0,1,2.49,0,1.64,1.64,0,0,1,.54,1.24,1.58,1.58,0,0,1-.54,1.22A1.77,1.77,0,0,1,524.52,823.14Zm-1.39,18.77V827h2.79v14.93Z"/><path class="cls-1" d="M537.86,829.08h-4.38v8.67a1.7,1.7,0,0,0,.55,1.49,2.54,2.54,0,0,0,1.45.38,8.07,8.07,0,0,0,1.39-.14,10.85,10.85,0,0,0,1.34-.34l.44,2.13a8.39,8.39,0,0,1-1.62.44,10.58,10.58,0,0,1-2.06.2,4.61,4.61,0,0,1-3.24-1,3.7,3.7,0,0,1-1-2.81v-9h-2.22V827h2.22v-4.76h2.77V827h4.38Z"/><path class="cls-1" d="M542.77,823.14a1.74,1.74,0,0,1-1.25-.49,1.6,1.6,0,0,1-.53-1.22,1.66,1.66,0,0,1,.53-1.24,1.72,1.72,0,0,1,1.25-.51,1.75,1.75,0,0,1,1.24.51,1.64,1.64,0,0,1,.54,1.24,1.58,1.58,0,0,1-.54,1.22A1.77,1.77,0,0,1,542.77,823.14Zm-1.4,18.77V827h2.8v14.93Z"/><path class="cls-1" d="M547.75,831.94a5.35,5.35,0,0,1,.44-2.21,4.5,4.5,0,0,1,1.26-1.63,5.32,5.32,0,0,1,1.92-1,8.07,8.07,0,0,1,2.41-.34,5.45,5.45,0,0,1,.92.07c.3,0,.59.09.89.15H562v2.07h-1l-2.54-.35a4.57,4.57,0,0,1,.94,1.46,4.66,4.66,0,0,1,.33,1.75,5.3,5.3,0,0,1-.44,2.2,4.69,4.69,0,0,1-1.24,1.64,5.43,5.43,0,0,1-1.91,1,8.41,8.41,0,0,1-2.41.33,9.52,9.52,0,0,1-1.71-.13,2.07,2.07,0,0,0-1,.65,1.44,1.44,0,0,0-.28.85,1,1,0,0,0,.49,1,2.9,2.9,0,0,0,1.32.25h3.93a5.71,5.71,0,0,1,3.8,1.13,3.83,3.83,0,0,1,1.31,3.06,4.57,4.57,0,0,1-.54,2.23,5,5,0,0,1-1.54,1.68,7.36,7.36,0,0,1-2.42,1.06,13.23,13.23,0,0,1-3.21.37,10,10,0,0,1-5.16-1.16,3.74,3.74,0,0,1-1.92-3.41,2.75,2.75,0,0,1,.75-2,4.67,4.67,0,0,1,1.95-1.21,3.27,3.27,0,0,1-.95-.94,2.29,2.29,0,0,1-.32-1.31,2.51,2.51,0,0,1,.59-1.69,4.08,4.08,0,0,1,1.6-1.11,4.52,4.52,0,0,1-2-1.66A5.11,5.11,0,0,1,547.75,831.94Zm3.4,10a2.39,2.39,0,0,0-1.62,2.28q0,2.79,4.51,2.79a8.52,8.52,0,0,0,2.25-.25,4.58,4.58,0,0,0,1.49-.67,2.68,2.68,0,0,0,.84-.92,2.18,2.18,0,0,0,.27-1,1.77,1.77,0,0,0-.9-1.77,5.38,5.38,0,0,0-2.27-.42ZM557,832a3.18,3.18,0,0,0-.88-2.48,3.74,3.74,0,0,0-4.6,0,3,3,0,0,0-.87,2.35,3.11,3.11,0,0,0,.87,2.43,3.32,3.32,0,0,0,2.3.78,3.36,3.36,0,0,0,2.3-.76A2.89,2.89,0,0,0,557,832Z"/><path class="cls-1" d="M577.09,834.76h-10.7v.13a5.12,5.12,0,0,0,1.35,3.81,5,5,0,0,0,3.67,1.33,10.57,10.57,0,0,0,2.14-.19,13,13,0,0,0,2.05-.63l.57,2.06a10,10,0,0,1-2.18.67,13.41,13.41,0,0,1-2.68.25,10.23,10.23,0,0,1-3-.44,7.06,7.06,0,0,1-2.49-1.38,6.49,6.49,0,0,1-1.7-2.4,9,9,0,0,1-.62-3.49,9.38,9.38,0,0,1,.52-3.18,7.08,7.08,0,0,1,1.48-2.43,6.72,6.72,0,0,1,2.3-1.55,7.9,7.9,0,0,1,3-.56,6.68,6.68,0,0,1,2.59.48,5.63,5.63,0,0,1,3.26,3.4,7.77,7.77,0,0,1,.44,2.66Zm-2.89-2a5.46,5.46,0,0,0-.21-1.54,3.43,3.43,0,0,0-.63-1.25,3,3,0,0,0-1.1-.86,3.73,3.73,0,0,0-1.61-.32,3.83,3.83,0,0,0-2.85,1.12,4.94,4.94,0,0,0-1.34,2.92Z"/><path class="cls-1" d="M580.94,842.19a1.64,1.64,0,0,1-1.24-.7,2.25,2.25,0,0,1-.41-1.33,2,2,0,0,1,.52-1.37,1.86,1.86,0,0,1,1.48-.6,3,3,0,0,1,.77.11,1.62,1.62,0,0,1,.73.45,2.48,2.48,0,0,1,.56.92,4.37,4.37,0,0,1,.22,1.54,5.45,5.45,0,0,1-1,3.14,7.14,7.14,0,0,1-2.51,2.25l-.92-1.27a5.21,5.21,0,0,0,1.48-1.19,3.93,3.93,0,0,0,.87-1.85Z"/><path class="cls-1" d="M603.7,828.6l-7.91,11.21h8.07v2.1H592.37v-1.72l7.9-11.11h-7.36V827H603.7Z"/><path class="cls-1" d="M618.83,834.76H608.14v.13a5.12,5.12,0,0,0,1.35,3.81,5,5,0,0,0,3.66,1.33,10.68,10.68,0,0,0,2.15-.19,12.92,12.92,0,0,0,2-.63l.57,2.06a9.94,9.94,0,0,1-2.17.67,13.48,13.48,0,0,1-2.68.25,10.23,10.23,0,0,1-3-.44,7,7,0,0,1-2.5-1.38,6.61,6.61,0,0,1-1.7-2.4,9,9,0,0,1-.61-3.49,9.14,9.14,0,0,1,.52-3.18,6.93,6.93,0,0,1,1.48-2.43,6.62,6.62,0,0,1,2.3-1.55,7.9,7.9,0,0,1,3-.56,6.75,6.75,0,0,1,2.59.48,5.8,5.8,0,0,1,2,1.33,5.87,5.87,0,0,1,1.27,2.07,7.54,7.54,0,0,1,.44,2.66Zm-2.88-2a5.46,5.46,0,0,0-.21-1.54,3.61,3.61,0,0,0-.64-1.25,3,3,0,0,0-1.09-.86,3.74,3.74,0,0,0-1.62-.32,3.83,3.83,0,0,0-2.84,1.12,5,5,0,0,0-1.35,2.92Z"/><path class="cls-1" d="M623.42,823.14a1.73,1.73,0,0,1-1.25-.49,1.6,1.6,0,0,1-.53-1.22,1.66,1.66,0,0,1,.53-1.24,1.71,1.71,0,0,1,1.25-.51,1.77,1.77,0,0,1,1.24.51,1.64,1.64,0,0,1,.54,1.24,1.58,1.58,0,0,1-.54,1.22A1.79,1.79,0,0,1,623.42,823.14ZM622,841.91V827h2.8v14.93Z"/><path class="cls-1" d="M636.75,829.08h-4.38v8.67a1.7,1.7,0,0,0,.56,1.49,2.52,2.52,0,0,0,1.44.38,8.18,8.18,0,0,0,1.4-.14,10.22,10.22,0,0,0,1.33-.34l.45,2.13a8.82,8.82,0,0,1-1.62.44,10.69,10.69,0,0,1-2.07.2,4.57,4.57,0,0,1-3.23-1,3.7,3.7,0,0,1-1-2.81v-9h-2.22V827h2.22v-4.76h2.76V827h4.38Z"/><path class="cls-1" d="M639.65,831.94a5.19,5.19,0,0,1,.45-2.21,4.37,4.37,0,0,1,1.25-1.63,5.32,5.32,0,0,1,1.92-1,8.07,8.07,0,0,1,2.41-.34,5.45,5.45,0,0,1,.92.07c.3,0,.6.09.89.15h6.45v2.07h-1l-2.54-.35a4.57,4.57,0,0,1,.94,1.46,4.66,4.66,0,0,1,.33,1.75,5.3,5.3,0,0,1-.44,2.2,4.69,4.69,0,0,1-1.24,1.64,5.47,5.47,0,0,1-1.9,1,8.53,8.53,0,0,1-2.42.33A9.6,9.6,0,0,1,644,837a2.07,2.07,0,0,0-1,.65,1.44,1.44,0,0,0-.28.85,1,1,0,0,0,.49,1,2.9,2.9,0,0,0,1.32.25h3.93a5.71,5.71,0,0,1,3.8,1.13,3.83,3.83,0,0,1,1.31,3.06,4.57,4.57,0,0,1-.54,2.23,5,5,0,0,1-1.54,1.68,7.36,7.36,0,0,1-2.42,1.06,13.23,13.23,0,0,1-3.21.37,10,10,0,0,1-5.16-1.16,3.74,3.74,0,0,1-1.92-3.41,2.75,2.75,0,0,1,.75-2,4.67,4.67,0,0,1,1.95-1.21,3.27,3.27,0,0,1-.95-.94,2.29,2.29,0,0,1-.32-1.31,2.51,2.51,0,0,1,.59-1.69,4.08,4.08,0,0,1,1.6-1.11,4.44,4.44,0,0,1-2-1.66A5,5,0,0,1,639.65,831.94Zm3.4,10a2.39,2.39,0,0,0-1.62,2.28q0,2.79,4.51,2.79a8.52,8.52,0,0,0,2.25-.25,4.58,4.58,0,0,0,1.49-.67,2.68,2.68,0,0,0,.84-.92,2.18,2.18,0,0,0,.27-1,1.77,1.77,0,0,0-.9-1.77,5.38,5.38,0,0,0-2.27-.42Zm5.81-9.91a3.18,3.18,0,0,0-.88-2.48,3.74,3.74,0,0,0-4.6,0,3,3,0,0,0-.87,2.35,3.11,3.11,0,0,0,.87,2.43,3.32,3.32,0,0,0,2.3.78,3.36,3.36,0,0,0,2.3-.76A2.89,2.89,0,0,0,648.86,832Z"/><path class="cls-1" d="M669,834.76h-10.7v.13a5.12,5.12,0,0,0,1.35,3.81,5,5,0,0,0,3.67,1.33,10.57,10.57,0,0,0,2.14-.19,13,13,0,0,0,2-.63l.57,2.06a10.11,10.11,0,0,1-2.17.67,13.51,13.51,0,0,1-2.69.25,10.23,10.23,0,0,1-3-.44,7.06,7.06,0,0,1-2.49-1.38A6.49,6.49,0,0,1,656,838a9,9,0,0,1-.62-3.49,9.14,9.14,0,0,1,.53-3.18,6.91,6.91,0,0,1,1.47-2.43,6.72,6.72,0,0,1,2.3-1.55,7.9,7.9,0,0,1,3-.56,6.68,6.68,0,0,1,2.59.48,5.63,5.63,0,0,1,3.26,3.4,7.77,7.77,0,0,1,.44,2.66Zm-2.89-2a5.85,5.85,0,0,0-.2-1.54,3.61,3.61,0,0,0-.64-1.25,3.09,3.09,0,0,0-1.09-.86,3.8,3.8,0,0,0-1.62-.32,3.85,3.85,0,0,0-2.85,1.12,4.94,4.94,0,0,0-1.34,2.92Z"/><path class="cls-1" d="M674.8,841.91H672V827h2.16l.41,2.07a9,9,0,0,1,2.25-1.67,6.32,6.32,0,0,1,2.89-.62,4.75,4.75,0,0,1,2.6.65,4.08,4.08,0,0,1,1.53,1.8,8,8,0,0,1,2.44-1.81,6.71,6.71,0,0,1,3-.64,4.39,4.39,0,0,1,3.45,1.29,5.16,5.16,0,0,1,1.16,3.57v10.29h-2.8v-9.78a3.61,3.61,0,0,0-.63-2.29,2.52,2.52,0,0,0-2.1-.79,5.56,5.56,0,0,0-4,1.93,1.82,1.82,0,0,1,0,.32v10.61h-2.79v-9.78a3.61,3.61,0,0,0-.63-2.29,2.55,2.55,0,0,0-2.1-.79,5.38,5.38,0,0,0-4,2Z"/><path class="cls-1" d="M697.86,828.32c.51-.26,1-.48,1.43-.68a9.44,9.44,0,0,1,1.33-.5,10.76,10.76,0,0,1,2.89-.38,8.89,8.89,0,0,1,2.27.27,4.37,4.37,0,0,1,1.78.91,4.21,4.21,0,0,1,1.16,1.66,7.14,7.14,0,0,1,.41,2.59v9.72h-2.31l-.35-1.66h-.07a5.72,5.72,0,0,1-2.16,1.5,7.43,7.43,0,0,1-2.6.44,6.23,6.23,0,0,1-2-.3,4.82,4.82,0,0,1-1.58-.86,3.92,3.92,0,0,1-1-1.35,4.24,4.24,0,0,1-.36-1.77,4,4,0,0,1,1.86-3.58,8.8,8.8,0,0,1,4.9-1.22h2.86v-1.27a2.53,2.53,0,0,0-.83-2.2,3.7,3.7,0,0,0-2.22-.59,7.8,7.8,0,0,0-1.89.27,10.25,10.25,0,0,0-2.43,1Zm1.62-6.19a1.49,1.49,0,0,1,.48-1.08,1.52,1.52,0,0,1,2.22,0,1.49,1.49,0,0,1,.48,1.08,1.55,1.55,0,0,1-.48,1.12,1.48,1.48,0,0,1-2.22,0A1.55,1.55,0,0,1,699.48,822.13ZM706.34,835l-2.35.06a5.85,5.85,0,0,0-3.38.84,2.32,2.32,0,0,0-1,1.89,2.59,2.59,0,0,0,.22,1.13,1.8,1.8,0,0,0,.59.71,2.49,2.49,0,0,0,.86.37,4.85,4.85,0,0,0,1,.11,5.19,5.19,0,0,0,2.12-.49,5.08,5.08,0,0,0,1.91-1.58Zm-1.59-12.89a1.49,1.49,0,0,1,.48-1.08,1.52,1.52,0,0,1,2.22,0,1.49,1.49,0,0,1,.48,1.08,1.55,1.55,0,0,1-.48,1.12,1.48,1.48,0,0,1-2.22,0A1.55,1.55,0,0,1,704.75,822.13Z"/><path class="cls-1" d="M721.28,829.78a8.84,8.84,0,0,0-1.91-.7,7.66,7.66,0,0,0-1.71-.19,3.68,3.68,0,0,0-2.25.56,1.75,1.75,0,0,0-.73,1.47,1.55,1.55,0,0,0,.5,1.16,5.58,5.58,0,0,0,2.13,1l1,.28a8.39,8.39,0,0,1,3.23,1.64,3.49,3.49,0,0,1,1.09,2.71,4,4,0,0,1-1.51,3.27,6.39,6.39,0,0,1-4.2,1.24,14.43,14.43,0,0,1-2.75-.25,9.65,9.65,0,0,1-2.27-.7l.67-2.19a10.71,10.71,0,0,0,2,.71,9,9,0,0,0,2.19.27,4.36,4.36,0,0,0,2.27-.51,1.8,1.8,0,0,0,.84-1.68,1.53,1.53,0,0,0-.73-1.44,9.65,9.65,0,0,0-2.1-.84l-1-.32a7.54,7.54,0,0,1-3.06-1.67,3.48,3.48,0,0,1-1-2.59,3.66,3.66,0,0,1,.41-1.74,3.81,3.81,0,0,1,1.13-1.33,5.58,5.58,0,0,1,1.69-.85,7.42,7.42,0,0,1,2.16-.3,13.2,13.2,0,0,1,2.3.21,9.62,9.62,0,0,1,2.27.68Z"/><path class="cls-1" d="M733.84,829.78a9,9,0,0,0-1.91-.7,7.66,7.66,0,0,0-1.71-.19,3.74,3.74,0,0,0-2.26.56,1.77,1.77,0,0,0-.73,1.47,1.56,1.56,0,0,0,.51,1.16,5.58,5.58,0,0,0,2.13,1l1,.28A8.27,8.27,0,0,1,734,835a3.5,3.5,0,0,1,1.1,2.71,4,4,0,0,1-1.51,3.27,6.42,6.42,0,0,1-4.21,1.24,14.4,14.4,0,0,1-2.74-.25,9.5,9.5,0,0,1-2.27-.7l.67-2.19a10.71,10.71,0,0,0,2,.71,8.88,8.88,0,0,0,2.19.27,4.36,4.36,0,0,0,2.27-.51,1.8,1.8,0,0,0,.84-1.68,1.55,1.55,0,0,0-.73-1.44,9.65,9.65,0,0,0-2.1-.84l-1-.32a7.65,7.65,0,0,1-3.07-1.67,3.52,3.52,0,0,1-1-2.59,3.67,3.67,0,0,1,.42-1.74,3.89,3.89,0,0,1,1.12-1.33,5.76,5.76,0,0,1,1.7-.85,7.42,7.42,0,0,1,2.16-.3,13.2,13.2,0,0,1,2.3.21,9.62,9.62,0,0,1,2.27.68Z"/><path class="cls-1" d="M750.89,834.76H740.2v.13a5.16,5.16,0,0,0,1.34,3.81,5,5,0,0,0,3.67,1.33,10.5,10.5,0,0,0,2.14-.19,12.7,12.7,0,0,0,2-.63l.57,2.06a10.11,10.11,0,0,1-2.17.67,13.48,13.48,0,0,1-2.68.25,10.34,10.34,0,0,1-3-.44,7.06,7.06,0,0,1-2.49-1.38,6.61,6.61,0,0,1-1.7-2.4,9,9,0,0,1-.61-3.49,9.14,9.14,0,0,1,.52-3.18,6.93,6.93,0,0,1,1.48-2.43,6.62,6.62,0,0,1,2.3-1.55,7.9,7.9,0,0,1,3-.56,6.75,6.75,0,0,1,2.59.48,5.8,5.8,0,0,1,2,1.33,5.87,5.87,0,0,1,1.27,2.07,7.54,7.54,0,0,1,.44,2.66Zm-2.88-2a5.46,5.46,0,0,0-.21-1.54,3.61,3.61,0,0,0-.64-1.25,3,3,0,0,0-1.09-.86,4.19,4.19,0,0,0-4.46.8,5,5,0,0,0-1.35,2.92Z"/><path class="cls-1" d="M754.74,842.19a1.65,1.65,0,0,1-1.24-.7,2.32,2.32,0,0,1-.41-1.33,2.05,2.05,0,0,1,.53-1.37,1.84,1.84,0,0,1,1.47-.6,3.06,3.06,0,0,1,.78.11,1.67,1.67,0,0,1,.73.45,2.47,2.47,0,0,1,.55.92,4.35,4.35,0,0,1,.23,1.54,5.39,5.39,0,0,1-1,3.14,7.05,7.05,0,0,1-2.51,2.25l-.92-1.27a5.08,5.08,0,0,0,1.48-1.19,3.84,3.84,0,0,0,.87-1.85Z"/><path class="cls-1" d="M155,880h-2.79V857.46H155V867a9.92,9.92,0,0,1,2.32-1.53,6.48,6.48,0,0,1,2.8-.6,5.87,5.87,0,0,1,2.15.36,4,4,0,0,1,1.51,1,4.36,4.36,0,0,1,.89,1.54,6,6,0,0,1,.3,1.93V880h-2.79v-9.59a3.65,3.65,0,0,0-.7-2.49,2.71,2.71,0,0,0-2.13-.78,4.86,4.86,0,0,0-2.17.54,9.44,9.44,0,0,0-2.18,1.53Z"/><path class="cls-1" d="M178.81,865.08h2.79V880h-2.19l-.38-1.87h-.13a7.12,7.12,0,0,1-2,1.54,6.28,6.28,0,0,1-2.84.62,5.38,5.38,0,0,1-3.77-1.32,5.14,5.14,0,0,1-1.44-4v-9.91h2.79v9.56a4.75,4.75,0,0,0,.24,1.61,2.8,2.8,0,0,0,.64,1.07,2.34,2.34,0,0,0,.93.57,3.7,3.7,0,0,0,1.18.17,4.8,4.8,0,0,0,2.28-.54,7.52,7.52,0,0,0,1.94-1.49Z"/><path class="cls-1" d="M188.32,880h-2.79V865.08h2.16l.41,2.06a9.2,9.2,0,0,1,2.25-1.66,6.19,6.19,0,0,1,2.89-.62,4.75,4.75,0,0,1,2.6.65,4,4,0,0,1,1.53,1.79,8.37,8.37,0,0,1,2.44-1.81,6.85,6.85,0,0,1,2.95-.63,4.42,4.42,0,0,1,3.45,1.28,5.16,5.16,0,0,1,1.16,3.57V880h-2.8v-9.78a3.6,3.6,0,0,0-.63-2.28,2.53,2.53,0,0,0-2.1-.8,5.57,5.57,0,0,0-4,1.94,1.73,1.73,0,0,1,0,.32V880h-2.79v-9.78a3.6,3.6,0,0,0-.63-2.28,2.55,2.55,0,0,0-2.1-.8,5.36,5.36,0,0,0-4,2Z"/><path class="cls-1" d="M211.38,866.41l1.43-.68a10.33,10.33,0,0,1,1.34-.49,9.94,9.94,0,0,1,1.36-.29,12,12,0,0,1,1.52-.09,8.89,8.89,0,0,1,2.27.27,4.48,4.48,0,0,1,1.78.9,4.25,4.25,0,0,1,1.16,1.67,7.14,7.14,0,0,1,.41,2.59V880h-2.31l-.35-1.65h-.07a5.58,5.58,0,0,1-2.16,1.49,7.2,7.2,0,0,1-2.6.45,6.23,6.23,0,0,1-2-.3,5,5,0,0,1-1.58-.86,3.92,3.92,0,0,1-1-1.35,4.26,4.26,0,0,1-.36-1.78,4,4,0,0,1,1.86-3.57,8.8,8.8,0,0,1,4.9-1.22h2.86v-1.27a2.55,2.55,0,0,0-.83-2.21,3.77,3.77,0,0,0-2.22-.59,7.8,7.8,0,0,0-1.89.27,10.33,10.33,0,0,0-2.43,1Zm8.48,6.7-2.35.07a5.85,5.85,0,0,0-3.38.84,2.32,2.32,0,0,0-1,1.89,2.51,2.51,0,0,0,.22,1.12,1.77,1.77,0,0,0,.59.72,2.3,2.3,0,0,0,.86.36,4.28,4.28,0,0,0,1,.11,5.09,5.09,0,0,0,4-2.06Z"/><path class="cls-1" d="M229.24,880h-2.8V865.08h2.19l.42,2.06a8.41,8.41,0,0,1,2.33-1.69,6.28,6.28,0,0,1,2.81-.59,4.93,4.93,0,0,1,3.59,1.28,4.83,4.83,0,0,1,1.3,3.57V880h-2.8v-9.87a3.16,3.16,0,0,0-.71-2.18,2.75,2.75,0,0,0-2.17-.81,5.75,5.75,0,0,0-4.16,2Z"/><path class="cls-1" d="M244.57,861.24a1.76,1.76,0,0,1-1.25-.49,1.62,1.62,0,0,1-.52-1.23,1.65,1.65,0,0,1,.52-1.23,1.77,1.77,0,0,1,2.49,0,1.63,1.63,0,0,1,.54,1.23,1.6,1.6,0,0,1-.54,1.23A1.77,1.77,0,0,1,244.57,861.24ZM243.18,880V865.08H246V880Z"/><path class="cls-1" d="M258.34,867.87a8.88,8.88,0,0,0-1.9-.69,7.75,7.75,0,0,0-1.72-.19,3.73,3.73,0,0,0-2.25.55,1.75,1.75,0,0,0-.73,1.48,1.57,1.57,0,0,0,.51,1.16,5.46,5.46,0,0,0,2.12,1l1,.29a8.34,8.34,0,0,1,3.22,1.63,3.51,3.51,0,0,1,1.09,2.72,4,4,0,0,1-1.5,3.27,6.5,6.5,0,0,1-4.21,1.24,14.49,14.49,0,0,1-2.75-.26,9.65,9.65,0,0,1-2.27-.7l.67-2.19a10.05,10.05,0,0,0,2,.72,9,9,0,0,0,2.19.27,4.36,4.36,0,0,0,2.27-.51,1.81,1.81,0,0,0,.84-1.68,1.54,1.54,0,0,0-.73-1.45,10.65,10.65,0,0,0-2.09-.84l-1-.32a7.6,7.6,0,0,1-3.06-1.66,3.5,3.5,0,0,1-1-2.59,3.82,3.82,0,0,1,.41-1.75,4,4,0,0,1,1.13-1.33,5.3,5.3,0,0,1,1.7-.84,7.3,7.3,0,0,1,2.15-.3,14.33,14.33,0,0,1,2.31.2,9.78,9.78,0,0,1,2.27.69Z"/><path class="cls-1" d="M270.61,867.18h-4.38v8.66a1.69,1.69,0,0,0,.55,1.49,2.46,2.46,0,0,0,1.45.38,7.11,7.11,0,0,0,1.39-.14,9.06,9.06,0,0,0,1.34-.33l.44,2.13a9.18,9.18,0,0,1-1.62.44,10.52,10.52,0,0,1-2.06.19,4.57,4.57,0,0,1-3.24-1,3.68,3.68,0,0,1-1-2.81v-9h-2.22v-2.1h2.22v-4.76h2.77v4.76h4.38Z"/><path class="cls-1" d="M275.52,861.24a1.74,1.74,0,0,1-1.25-.49,1.63,1.63,0,0,1-.53-1.23,1.66,1.66,0,0,1,.53-1.23,1.72,1.72,0,0,1,1.25-.51,1.75,1.75,0,0,1,1.24.51,1.63,1.63,0,0,1,.54,1.23,1.6,1.6,0,0,1-.54,1.23A1.77,1.77,0,0,1,275.52,861.24ZM274.12,880V865.08h2.8V880Z"/><path class="cls-1" d="M289.29,867.87a8.76,8.76,0,0,0-1.91-.69,7.66,7.66,0,0,0-1.71-.19,3.69,3.69,0,0,0-2.25.55,1.75,1.75,0,0,0-.73,1.48,1.6,1.6,0,0,0,.5,1.16,5.6,5.6,0,0,0,2.13,1l.95.29a8.32,8.32,0,0,1,3.23,1.63,3.51,3.51,0,0,1,1.09,2.72,4,4,0,0,1-1.51,3.27,6.45,6.45,0,0,1-4.2,1.24,14.42,14.42,0,0,1-2.75-.26,9.65,9.65,0,0,1-2.27-.7l.67-2.19a10.05,10.05,0,0,0,2,.72,9,9,0,0,0,2.19.27,4.36,4.36,0,0,0,2.27-.51,1.81,1.81,0,0,0,.84-1.68,1.54,1.54,0,0,0-.73-1.45,10.78,10.78,0,0,0-2.1-.84l-1-.32a7.53,7.53,0,0,1-3.06-1.66,3.5,3.5,0,0,1-1-2.59,3.7,3.7,0,0,1,.41-1.75A3.9,3.9,0,0,1,281.5,866a5.35,5.35,0,0,1,1.69-.84,7.42,7.42,0,0,1,2.16-.3,14.21,14.21,0,0,1,2.3.2,9.49,9.49,0,0,1,2.27.69Z"/><path class="cls-1" d="M300.71,878.13a6.71,6.71,0,0,0,1.78-.22,9.37,9.37,0,0,0,1.49-.58l.6,2.1a9,9,0,0,1-4.09.86,9.34,9.34,0,0,1-3-.48,7.06,7.06,0,0,1-2.48-1.44,6.8,6.8,0,0,1-1.67-2.42,8.76,8.76,0,0,1-.6-3.38,8.56,8.56,0,0,1,.57-3.2,6.81,6.81,0,0,1,4-4,8.86,8.86,0,0,1,3.15-.54,13.56,13.56,0,0,1,1.92.14,8.67,8.67,0,0,1,2.14.68l-.63,2.13a6.3,6.3,0,0,0-3.15-.82,5,5,0,0,0-3.74,1.44,5.47,5.47,0,0,0-1.43,4.05,7.26,7.26,0,0,0,.44,2.7,4.69,4.69,0,0,0,1.18,1.73,4.36,4.36,0,0,0,1.65.93A6.29,6.29,0,0,0,300.71,878.13Z"/><path class="cls-1" d="M310,880h-2.8V857.46H310V867a9.86,9.86,0,0,1,2.31-1.53,6.48,6.48,0,0,1,2.8-.6,6,6,0,0,1,2.16.36,4.07,4.07,0,0,1,1.5,1,4.21,4.21,0,0,1,.89,1.54,6,6,0,0,1,.31,1.93V880h-2.8v-9.59a3.65,3.65,0,0,0-.7-2.49,2.69,2.69,0,0,0-2.12-.78,4.91,4.91,0,0,0-2.18.54,9.39,9.39,0,0,0-2.17,1.53Z"/><path class="cls-1" d="M336.66,872.86H326V873a5.08,5.08,0,0,0,1.35,3.8,5,5,0,0,0,3.67,1.34,11.35,11.35,0,0,0,2.14-.19,12.14,12.14,0,0,0,2.05-.64l.57,2.07a10.64,10.64,0,0,1-2.18.66,13.39,13.39,0,0,1-2.68.26,9.91,9.91,0,0,1-3-.45,6.76,6.76,0,0,1-2.49-1.38,6.34,6.34,0,0,1-1.7-2.4,8.93,8.93,0,0,1-.62-3.49,9.37,9.37,0,0,1,.52-3.17A7.08,7.08,0,0,1,325,867a6.6,6.6,0,0,1,2.3-1.56,7.9,7.9,0,0,1,3-.55,6.87,6.87,0,0,1,2.59.47,5.7,5.7,0,0,1,3.26,3.4,7.83,7.83,0,0,1,.44,2.67Zm-2.89-2a5.41,5.41,0,0,0-.21-1.54,3.4,3.4,0,0,0-.63-1.26,3.13,3.13,0,0,0-1.1-.85,3.73,3.73,0,0,0-1.61-.32,3.83,3.83,0,0,0-2.85,1.11,4.94,4.94,0,0,0-1.34,2.92Z"/><path class="cls-1" d="M357,865.08h2.79V880h-2.19l-.38-1.87h-.13a7.12,7.12,0,0,1-2,1.54,6.28,6.28,0,0,1-2.84.62,5.38,5.38,0,0,1-3.77-1.32,5.14,5.14,0,0,1-1.44-4v-9.91h2.79v9.56a4.75,4.75,0,0,0,.24,1.61,2.8,2.8,0,0,0,.64,1.07,2.34,2.34,0,0,0,.93.57,3.7,3.7,0,0,0,1.18.17,4.8,4.8,0,0,0,2.28-.54A7.52,7.52,0,0,0,357,876Z"/><path class="cls-1" d="M366.52,880h-2.79V865.08h2.19l.41,2.06a8.56,8.56,0,0,1,2.33-1.69,6.31,6.31,0,0,1,2.81-.59,4.91,4.91,0,0,1,3.59,1.28,4.79,4.79,0,0,1,1.3,3.57V880h-2.79v-9.87a3.17,3.17,0,0,0-.72-2.18,2.74,2.74,0,0,0-2.17-.81,5.76,5.76,0,0,0-4.16,2Z"/><path class="cls-1" d="M390.3,857.46h2.79V880h-2.35l-.35-1.65h-.09a6.8,6.8,0,0,1-2,1.48,6.1,6.1,0,0,1-2.52.46,5.86,5.86,0,0,1-2.33-.48,5.75,5.75,0,0,1-2-1.43A7.1,7.1,0,0,1,380,876a9.82,9.82,0,0,1-.54-3.42,10.5,10.5,0,0,1,.46-3.17,7.29,7.29,0,0,1,1.32-2.45,5.7,5.7,0,0,1,2.1-1.55,7.41,7.41,0,0,1,5.06-.18,5.59,5.59,0,0,1,1.89,1.1Zm0,11.21a4.58,4.58,0,0,0-3.53-1.68,4.73,4.73,0,0,0-1.66.3,3.69,3.69,0,0,0-1.43,1,5,5,0,0,0-1,1.72,7.21,7.21,0,0,0-.38,2.51,8.09,8.09,0,0,0,.35,2.58,5,5,0,0,0,.93,1.75,3.55,3.55,0,0,0,1.34,1,3.82,3.82,0,0,0,1.5.32,4.59,4.59,0,0,0,3.88-2.07Z"/><path class="cls-1" d="M407.25,880h-2.79V865.08h2.15l.42,2.06a9.2,9.2,0,0,1,2.25-1.66,6.17,6.17,0,0,1,2.89-.62,4.75,4.75,0,0,1,2.6.65,4,4,0,0,1,1.53,1.79,8.37,8.37,0,0,1,2.44-1.81,6.81,6.81,0,0,1,2.95-.63,4.42,4.42,0,0,1,3.45,1.28,5.16,5.16,0,0,1,1.16,3.57V880h-2.8v-9.78a3.6,3.6,0,0,0-.63-2.28,2.54,2.54,0,0,0-2.1-.8,5.57,5.57,0,0,0-4,1.94,1.73,1.73,0,0,1,0,.32V880H414v-9.78a3.54,3.54,0,0,0-.64-2.28,2.52,2.52,0,0,0-2.09-.8,5.36,5.36,0,0,0-4,2Z"/><path class="cls-1" d="M444,872.38a9.23,9.23,0,0,1-.57,3.35,7.25,7.25,0,0,1-1.57,2.49,6.67,6.67,0,0,1-2.34,1.54,7.82,7.82,0,0,1-2.89.53,8.12,8.12,0,0,1-2.87-.5,6.07,6.07,0,0,1-2.28-1.46,6.69,6.69,0,0,1-1.53-2.38,8.82,8.82,0,0,1-.55-3.25,9.08,9.08,0,0,1,.57-3.33,6.89,6.89,0,0,1,1.57-2.46,6.74,6.74,0,0,1,2.33-1.53,7.81,7.81,0,0,1,2.89-.52,8.51,8.51,0,0,1,2.87.47,6.39,6.39,0,0,1,2.29,1.43,6.71,6.71,0,0,1,1.52,2.37A8.82,8.82,0,0,1,444,872.38Zm-2.92.16a7.59,7.59,0,0,0-.38-2.54,5,5,0,0,0-1-1.71,3.69,3.69,0,0,0-1.41-1,4.55,4.55,0,0,0-1.62-.3,5.27,5.27,0,0,0-1.62.25,3.32,3.32,0,0,0-1.4.89,4.69,4.69,0,0,0-1,1.7,8.47,8.47,0,0,0-.36,2.68,7.47,7.47,0,0,0,.38,2.56,5,5,0,0,0,1,1.73,3.87,3.87,0,0,0,1.41,1,4.37,4.37,0,0,0,1.62.32,5,5,0,0,0,1.62-.27,3.45,3.45,0,0,0,1.4-.92,4.8,4.8,0,0,0,1-1.72A8.17,8.17,0,0,0,441,872.54Z"/><path class="cls-1" d="M449.85,880h-2.8V865.08h2.2l.41,2.06a8.56,8.56,0,0,1,2.33-1.69,6.31,6.31,0,0,1,2.81-.59,4.93,4.93,0,0,1,3.59,1.28,4.79,4.79,0,0,1,1.3,3.57V880H456.9v-9.87a3.17,3.17,0,0,0-.72-2.18,2.74,2.74,0,0,0-2.17-.81,5.76,5.76,0,0,0-4.16,2Z"/><path class="cls-1" d="M477.35,872.38a9.23,9.23,0,0,1-.57,3.35,7.11,7.11,0,0,1-1.57,2.49,6.63,6.63,0,0,1-2.33,1.54,7.85,7.85,0,0,1-2.89.53,8.14,8.14,0,0,1-2.88-.5,6.15,6.15,0,0,1-2.28-1.46,6.67,6.67,0,0,1-1.52-2.38,8.82,8.82,0,0,1-.56-3.25,9.08,9.08,0,0,1,.57-3.33,7,7,0,0,1,1.57-2.46,6.78,6.78,0,0,1,2.34-1.53,7.76,7.76,0,0,1,2.88-.52,8.61,8.61,0,0,1,2.88.47,6.26,6.26,0,0,1,2.28,1.43,6.74,6.74,0,0,1,1.53,2.37A8.82,8.82,0,0,1,477.35,872.38Zm-2.92.16a7.35,7.35,0,0,0-.38-2.54,4.89,4.89,0,0,0-1-1.71,3.61,3.61,0,0,0-1.41-1A4.55,4.55,0,0,0,470,867a5.27,5.27,0,0,0-1.62.25,3.38,3.38,0,0,0-1.4.89,4.54,4.54,0,0,0-1,1.7,8.17,8.17,0,0,0-.37,2.68,7.72,7.72,0,0,0,.38,2.56,5.15,5.15,0,0,0,1,1.73,4,4,0,0,0,1.41,1,4.37,4.37,0,0,0,1.62.32,5,5,0,0,0,1.62-.27,3.39,3.39,0,0,0,1.4-.92,5,5,0,0,0,1-1.72A8.47,8.47,0,0,0,474.43,872.54Z"/><path class="cls-1" d="M480.54,880V857.46h2.73V880Z"/><path class="cls-1" d="M488.87,861.24a1.77,1.77,0,0,1-1.26-.49,1.62,1.62,0,0,1-.52-1.23,1.65,1.65,0,0,1,.52-1.23,1.77,1.77,0,0,1,2.49,0,1.63,1.63,0,0,1,.54,1.23,1.6,1.6,0,0,1-.54,1.23A1.76,1.76,0,0,1,488.87,861.24ZM487.47,880V865.08h2.79V880Z"/><path class="cls-1" d="M497.1,880h-2.79V865.08h2.19l.41,2.06a8.56,8.56,0,0,1,2.33-1.69,6.31,6.31,0,0,1,2.81-.59,4.91,4.91,0,0,1,3.59,1.28,4.79,4.79,0,0,1,1.3,3.57V880h-2.79v-9.87a3.17,3.17,0,0,0-.72-2.18,2.74,2.74,0,0,0-2.17-.81,5.76,5.76,0,0,0-4.16,2Z"/><path class="cls-1" d="M523.62,872.86h-10.7V873a5.08,5.08,0,0,0,1.35,3.8,5,5,0,0,0,3.67,1.34,11.35,11.35,0,0,0,2.14-.19,11.86,11.86,0,0,0,2-.64l.57,2.07a10.73,10.73,0,0,1-2.17.66,13.49,13.49,0,0,1-2.69.26,9.91,9.91,0,0,1-3-.45,6.76,6.76,0,0,1-2.49-1.38,6.34,6.34,0,0,1-1.7-2.4,8.93,8.93,0,0,1-.62-3.49,9.13,9.13,0,0,1,.53-3.17A7.06,7.06,0,0,1,512,867a6.6,6.6,0,0,1,2.3-1.56,7.92,7.92,0,0,1,3-.55,6.85,6.85,0,0,1,2.58.47,5.77,5.77,0,0,1,2,1.34,5.91,5.91,0,0,1,1.27,2.06,7.83,7.83,0,0,1,.44,2.67Zm-2.89-2a5.79,5.79,0,0,0-.2-1.54,3.57,3.57,0,0,0-.64-1.26,3.09,3.09,0,0,0-1.09-.85,4.21,4.21,0,0,0-4.46.79,5,5,0,0,0-1.35,2.92Z"/><path class="cls-1" d="M526.59,866.41c.51-.25,1-.48,1.43-.68a10.21,10.21,0,0,1,1.33-.49,10.41,10.41,0,0,1,1.37-.29,11.84,11.84,0,0,1,1.52-.09,8.94,8.94,0,0,1,2.27.27,4.48,4.48,0,0,1,1.78.9,4.35,4.35,0,0,1,1.16,1.67,7.14,7.14,0,0,1,.41,2.59V880h-2.32l-.35-1.65h-.06a5.73,5.73,0,0,1-2.16,1.49,7.2,7.2,0,0,1-2.6.45,6.34,6.34,0,0,1-2-.3,5.07,5.07,0,0,1-1.57-.86,3.8,3.8,0,0,1-1-1.35,4.26,4.26,0,0,1-.36-1.78,4,4,0,0,1,1.85-3.57,8.86,8.86,0,0,1,4.91-1.22H535v-1.27a2.55,2.55,0,0,0-.82-2.21,3.77,3.77,0,0,0-2.22-.59,7.8,7.8,0,0,0-1.89.27,10.33,10.33,0,0,0-2.43,1Zm8.48,6.7-2.35.07a5.83,5.83,0,0,0-3.38.84,2.32,2.32,0,0,0-1,1.89,2.51,2.51,0,0,0,.22,1.12,1.77,1.77,0,0,0,.59.72,2.25,2.25,0,0,0,.85.36,4.34,4.34,0,0,0,1,.11,5.09,5.09,0,0,0,4-2.06Z"/><path class="cls-1" d="M541.62,880V865.08h2.09l.48,3a4.9,4.9,0,0,1,1.78-2.31,4.71,4.71,0,0,1,2.85-.89,5.83,5.83,0,0,1,1.37.13,6,6,0,0,1,1,.31l-.54,2.45a4,4,0,0,0-.84-.32,4.28,4.28,0,0,0-1.09-.13,4.47,4.47,0,0,0-1.7.32,3.89,3.89,0,0,0-1.37,1,4.75,4.75,0,0,0-.92,1.57,6.47,6.47,0,0,0-.33,2.15V880Z"/><path class="cls-1" d="M565.76,872.86h-10.7V873a5.08,5.08,0,0,0,1.35,3.8,5,5,0,0,0,3.67,1.34,11.35,11.35,0,0,0,2.14-.19,11.86,11.86,0,0,0,2-.64l.57,2.07a10.73,10.73,0,0,1-2.17.66,13.49,13.49,0,0,1-2.69.26,9.91,9.91,0,0,1-3-.45,6.76,6.76,0,0,1-2.49-1.38,6.34,6.34,0,0,1-1.7-2.4,8.93,8.93,0,0,1-.62-3.49,9.13,9.13,0,0,1,.53-3.17,7.06,7.06,0,0,1,1.47-2.43,6.6,6.6,0,0,1,2.3-1.56,7.92,7.92,0,0,1,3-.55,6.85,6.85,0,0,1,2.58.47,5.7,5.7,0,0,1,3.26,3.4,7.83,7.83,0,0,1,.44,2.67Zm-2.89-2a5.79,5.79,0,0,0-.2-1.54,3.57,3.57,0,0,0-.64-1.26,3.09,3.09,0,0,0-1.09-.85,4.21,4.21,0,0,0-4.46.79,5,5,0,0,0-1.35,2.92Z"/><path class="cls-1" d="M582.11,859.71a16.26,16.26,0,0,1,2.82.24,10.27,10.27,0,0,1,2.7.88l-.7,2.41a14.06,14.06,0,0,0-2.46-.91,9.26,9.26,0,0,0-2.23-.27,4.63,4.63,0,0,0-2.86.8,2.63,2.63,0,0,0-1,2.22,2.55,2.55,0,0,0,.78,1.94,6.66,6.66,0,0,0,2.56,1.27l2,.63a7.58,7.58,0,0,1,3.85,2.33,5.34,5.34,0,0,1-.85,7.5,7.11,7.11,0,0,1-2.21,1.14,9.5,9.5,0,0,1-2.79.4,18.3,18.3,0,0,1-3.1-.27,12.51,12.51,0,0,1-3.13-1l.7-2.38a13.37,13.37,0,0,0,2.67,1,11.6,11.6,0,0,0,2.73.32,5.21,5.21,0,0,0,2.92-.8,2.63,2.63,0,0,0,1.21-2.35,3.06,3.06,0,0,0-.18-1.06,2.77,2.77,0,0,0-.6-.94,4.73,4.73,0,0,0-1.16-.82,10.82,10.82,0,0,0-1.84-.73l-2-.64a8,8,0,0,1-3.37-1.9,4.48,4.48,0,0,1-1.17-3.27,5.3,5.3,0,0,1,1.73-4.18A7.36,7.36,0,0,1,582.11,859.71Z"/><path class="cls-1" d="M599.09,878.13a6.71,6.71,0,0,0,1.78-.22,9.37,9.37,0,0,0,1.49-.58l.6,2.1a9.07,9.07,0,0,1-4.09.86,9.34,9.34,0,0,1-3-.48,7,7,0,0,1-2.48-1.44,6.67,6.67,0,0,1-1.67-2.42,8.76,8.76,0,0,1-.6-3.38,8.56,8.56,0,0,1,.57-3.2,6.81,6.81,0,0,1,4-4,8.86,8.86,0,0,1,3.15-.54,13.56,13.56,0,0,1,1.92.14,8.8,8.8,0,0,1,2.14.68l-.64,2.13a6.27,6.27,0,0,0-3.14-.82,5,5,0,0,0-3.74,1.44,5.47,5.47,0,0,0-1.43,4.05,7.06,7.06,0,0,0,.44,2.7,4.69,4.69,0,0,0,1.18,1.73,4.36,4.36,0,0,0,1.65.93A6.24,6.24,0,0,0,599.09,878.13Z"/><path class="cls-1" d="M608.37,880h-2.79V857.46h2.79V867a9.92,9.92,0,0,1,2.32-1.53,6.48,6.48,0,0,1,2.8-.6,5.87,5.87,0,0,1,2.15.36,4,4,0,0,1,1.51,1,4.36,4.36,0,0,1,.89,1.54,6,6,0,0,1,.3,1.93V880h-2.79v-9.59a3.65,3.65,0,0,0-.7-2.49,2.7,2.7,0,0,0-2.13-.78,4.86,4.86,0,0,0-2.17.54,9.44,9.44,0,0,0-2.18,1.53Z"/><path class="cls-1" d="M622.24,880V865.08h2.09l.48,3a4.9,4.9,0,0,1,1.78-2.31,4.71,4.71,0,0,1,2.85-.89,5.83,5.83,0,0,1,1.37.13,6,6,0,0,1,1,.31l-.54,2.45a4,4,0,0,0-.84-.32,4.28,4.28,0,0,0-1.09-.13,4.47,4.47,0,0,0-1.7.32,3.89,3.89,0,0,0-1.37,1,4.75,4.75,0,0,0-.92,1.57,6.47,6.47,0,0,0-.33,2.15V880Z"/><path class="cls-1" d="M635.62,861.24a1.74,1.74,0,0,1-1.25-.49,1.63,1.63,0,0,1-.53-1.23,1.66,1.66,0,0,1,.53-1.23,1.72,1.72,0,0,1,1.25-.51,1.75,1.75,0,0,1,1.24.51,1.63,1.63,0,0,1,.54,1.23,1.6,1.6,0,0,1-.54,1.23A1.77,1.77,0,0,1,635.62,861.24ZM634.22,880V865.08H637V880Z"/><path class="cls-1" d="M646.75,857.3a7.37,7.37,0,0,1,1.86.26,9.45,9.45,0,0,1,1.73.63l-.58,1.94a9.92,9.92,0,0,0-1.2-.4,5.28,5.28,0,0,0-1.21-.14,2.53,2.53,0,0,0-2.17.86,4.9,4.9,0,0,0-.65,2.92v1.71h4.54v2.1h-4.54V880h-2.77V867.18h-2.19v-2.1h2.19v-2.63a5.23,5.23,0,0,1,1.29-3.81A4.91,4.91,0,0,1,646.75,857.3Z"/><path class="cls-1" d="M660.07,867.18h-4.38v8.66a1.69,1.69,0,0,0,.55,1.49,2.46,2.46,0,0,0,1.45.38,7.11,7.11,0,0,0,1.39-.14,9.06,9.06,0,0,0,1.34-.33l.44,2.13a9.18,9.18,0,0,1-1.62.44,10.52,10.52,0,0,1-2.06.19,4.57,4.57,0,0,1-3.24-1,3.68,3.68,0,0,1-1-2.81v-9H650.7v-2.1h2.23v-4.76h2.76v4.76h4.38Z"/><path class="cls-1" d="M669.4,857.3a7.37,7.37,0,0,1,1.86.26,9.45,9.45,0,0,1,1.73.63l-.57,1.94a10.66,10.66,0,0,0-1.21-.4,5.21,5.21,0,0,0-1.21-.14,2.53,2.53,0,0,0-2.17.86,5,5,0,0,0-.65,2.92v1.71h4.54v2.1h-4.54V880h-2.76V867.18h-2.19v-2.1h2.19v-2.63a5.27,5.27,0,0,1,1.28-3.81A4.91,4.91,0,0,1,669.4,857.3Z"/><path class="cls-1" d="M674.17,866.41c.5-.25,1-.48,1.42-.68a10,10,0,0,1,2.7-.78,12.12,12.12,0,0,1,1.53-.09,9,9,0,0,1,2.27.27,4.43,4.43,0,0,1,1.77.9A4.15,4.15,0,0,1,685,867.7a6.92,6.92,0,0,1,.42,2.59V880h-2.32l-.35-1.65h-.06a5.73,5.73,0,0,1-2.16,1.49,7.26,7.26,0,0,1-2.61.45,6.23,6.23,0,0,1-2-.3,5,5,0,0,1-1.57-.86,3.69,3.69,0,0,1-1-1.35A4.11,4.11,0,0,1,673,876a4,4,0,0,1,1.86-3.57,8.82,8.82,0,0,1,4.9-1.22h2.86v-1.27a2.55,2.55,0,0,0-.82-2.21,3.82,3.82,0,0,0-2.23-.59,7.8,7.8,0,0,0-1.89.27,10.27,10.27,0,0,0-2.42,1Zm8.47,6.7-2.35.07a5.87,5.87,0,0,0-3.38.84,2.35,2.35,0,0,0-1,1.89,2.66,2.66,0,0,0,.22,1.12,1.85,1.85,0,0,0,.59.72,2.3,2.3,0,0,0,.86.36,4.34,4.34,0,0,0,1,.11,5.08,5.08,0,0,0,2.13-.49,5,5,0,0,0,1.9-1.57Z"/><path class="cls-1" d="M692,880h-2.79V865.08h2.16l.41,2.06a9.2,9.2,0,0,1,2.25-1.66,6.19,6.19,0,0,1,2.89-.62,4.75,4.75,0,0,1,2.6.65,4,4,0,0,1,1.53,1.79,8.37,8.37,0,0,1,2.44-1.81,6.85,6.85,0,0,1,3-.63,4.42,4.42,0,0,1,3.45,1.28,5.16,5.16,0,0,1,1.16,3.57V880h-2.8v-9.78a3.6,3.6,0,0,0-.63-2.28,2.53,2.53,0,0,0-2.1-.8,5.57,5.57,0,0,0-4,1.94,1.73,1.73,0,0,1,0,.32V880h-2.79v-9.78a3.6,3.6,0,0,0-.63-2.28,2.55,2.55,0,0,0-2.1-.8,5.36,5.36,0,0,0-4,2Z"/><path class="cls-1" d="M716.56,861.24a1.76,1.76,0,0,1-1.25-.49,1.63,1.63,0,0,1-.53-1.23,1.66,1.66,0,0,1,.53-1.23,1.77,1.77,0,0,1,2.49,0,1.63,1.63,0,0,1,.54,1.23,1.6,1.6,0,0,1-.54,1.23A1.77,1.77,0,0,1,716.56,861.24ZM715.17,880V865.08H718V880Z"/><path class="cls-1" d="M722.08,880V857.46h2.73V880Z"/><path class="cls-1" d="M730.41,861.24a1.73,1.73,0,0,1-1.25-.49,1.63,1.63,0,0,1-.53-1.23,1.66,1.66,0,0,1,.53-1.23,1.71,1.71,0,0,1,1.25-.51,1.75,1.75,0,0,1,1.24.51,1.63,1.63,0,0,1,.54,1.23,1.6,1.6,0,0,1-.54,1.23A1.77,1.77,0,0,1,730.41,861.24ZM729,880V865.08h2.8V880Z"/><path class="cls-1" d="M748.57,872.86h-10.7V873a5.08,5.08,0,0,0,1.35,3.8,5,5,0,0,0,3.67,1.34,11.42,11.42,0,0,0,2.14-.19,12.42,12.42,0,0,0,2.05-.64l.57,2.07a10.84,10.84,0,0,1-2.18.66,13.39,13.39,0,0,1-2.68.26,9.91,9.91,0,0,1-3-.45,6.76,6.76,0,0,1-2.49-1.38,6.34,6.34,0,0,1-1.7-2.4,8.75,8.75,0,0,1-.62-3.49,9.13,9.13,0,0,1,.52-3.17A6.93,6.93,0,0,1,737,867a6.51,6.51,0,0,1,2.3-1.56,7.9,7.9,0,0,1,3-.55,6.91,6.91,0,0,1,2.59.47,5.83,5.83,0,0,1,2,1.34,5.77,5.77,0,0,1,1.27,2.06,7.59,7.59,0,0,1,.45,2.67Zm-2.89-2a5.41,5.41,0,0,0-.21-1.54,3.73,3.73,0,0,0-.63-1.26,3.13,3.13,0,0,0-1.1-.85,3.74,3.74,0,0,0-1.62-.32,3.82,3.82,0,0,0-2.84,1.11,5,5,0,0,0-1.35,2.92Z"/><path class="cls-1" d="M750.77,878.29a1.88,1.88,0,0,1,.58-1.4,1.85,1.85,0,0,1,1.36-.57,1.81,1.81,0,0,1,1.35.57,2.11,2.11,0,0,1,0,2.86,1.86,1.86,0,0,1-1.35.54,1.91,1.91,0,0,1-1.94-2Z"/></svg>