<?xml version="1.0" encoding="utf-8"?>
<!-- Generator: Adobe Illustrator 22.1.0, SVG Export Plug-In . SVG Version: 6.00 Build 0)  -->
<svg version="1.1" id="Ebene_1" xmlns="http://www.w3.org/2000/svg" xmlns:xlink="http://www.w3.org/1999/xlink" x="0px" y="0px"
	 viewBox="0 0 595.3 255.1" style="enable-background:new 0 0 595.3 255.1;" xml:space="preserve">
<style type="text/css">
	.st0{fill:#044ADA;}
	.st1{fill:#FFFFFF;}
</style>
<rect y="0" width="595.3" height="255.1"/>
<g id="Ebene_2_1_">
</g>
<path class="st0" d="M0,255.1C0,255.1,226,0,595.3,0H0V255.1z"/>
<g>
	<g>
		<path class="st1" d="M320.2,133.3V54.9H351c6.8,0,12,2,15.6,5.9s5.4,9.3,5.4,16c0,6.8-1.8,12.2-5.4,16.1s-8.8,5.9-15.6,5.9h-24
			v34.5H320.2z M327,92.9h24c4.5,0,7.9-1.3,10.3-3.8s3.5-5.7,3.5-9.6v-5.4c0-3.8-1.2-7-3.5-9.5c-2.4-2.5-5.8-3.8-10.3-3.8h-24V92.9z
			"/>
		<path class="st1" d="M394.2,133.3c-2.3,0-4.1-0.6-5.3-1.9c-1.2-1.3-1.8-3-1.8-5.1V50.2h6.4v77.6h8.9v5.5H394.2z"/>
		<path class="st1" d="M437.3,134.6c-3.8,0-7.3-0.7-10.4-2s-5.8-3.3-8-5.9s-3.9-5.7-5.1-9.5c-1.2-3.7-1.7-8-1.7-12.7
			s0.6-8.9,1.7-12.6c1.2-3.7,2.8-6.9,5.1-9.4c2.2-2.6,4.8-4.6,7.9-6s6.5-2.1,10.3-2.1c3.7,0,7,0.7,10,2.1s5.5,3.3,7.6,5.8
			s3.7,5.5,4.9,9c1.2,3.5,1.7,7.3,1.7,11.6v3h-42.6v2.8c0,3,0.4,5.7,1.3,8.3c0.9,2.5,2.1,4.7,3.7,6.5s3.6,3.2,5.9,4.2
			s4.9,1.5,7.9,1.5c8.4,0,14.2-3.9,17.4-11.6l4.7,3.1c-1.8,4.2-4.6,7.6-8.5,10.2C447.4,133.4,442.8,134.6,437.3,134.6z M437.2,79.9
			c-2.8,0-5.3,0.5-7.5,1.5s-4.2,2.4-5.8,4.2c-1.6,1.8-2.8,4-3.7,6.5c-0.9,2.5-1.3,5.3-1.3,8.3v0.6h35.6v-1c0-3-0.4-5.7-1.2-8.3
			c-0.8-2.5-2-4.6-3.5-6.3c-1.5-1.7-3.4-3.1-5.5-4C442.1,80.4,439.7,79.9,437.2,79.9z"/>
		<path class="st1" d="M469,133.3l21.3-29l-20.6-28.5h7.5l16.4,23.5h0.3l16.7-23.5h7.2l-20.4,28.1l21,29.4H511L494,109h-0.2
			l-17.6,24.3H469z"/>
	</g>
	<g>
		<path class="st1" d="M362.6,204.9c-3.7,0-6.9-0.7-9.5-2.2c-2.7-1.5-4.9-3.6-6.8-6.4l1.6-1.1c3.3,5.3,8.2,8,14.7,8
			c4.1,0,7.4-1,9.9-3s3.7-4.8,3.7-8.5c0-1.4-0.2-2.6-0.6-3.6s-1-1.8-1.8-2.5s-1.7-1.3-2.8-1.8c-1.1-0.5-2.4-0.9-3.9-1.2l-4.4-1.1
			c-1.5-0.4-2.9-0.9-4.1-1.4c-1.2-0.6-2.3-1.2-3.2-2.1c-0.9-0.8-1.6-1.8-2.1-3s-0.7-2.6-0.7-4.3c0-2,0.4-3.8,1.2-5.4
			c0.8-1.5,1.8-2.8,3.2-3.8c1.3-1,2.9-1.8,4.6-2.3c1.8-0.5,3.7-0.8,5.7-0.8c1.9,0,3.6,0.2,5.1,0.6c1.5,0.4,2.8,0.9,3.9,1.5
			s2.1,1.4,3,2.2c0.8,0.8,1.6,1.7,2.2,2.6l-1.4,1.2c-1.2-1.8-2.8-3.3-4.7-4.6c-1.9-1.3-4.6-1.9-8.2-1.9c-3.9,0-6.9,0.9-9.3,2.7
			c-2.3,1.8-3.5,4.4-3.5,7.9c0,2.7,0.7,4.8,2.2,6.1s3.7,2.4,6.6,3.1l4.4,1.1c1.5,0.4,2.8,0.9,4.1,1.4c1.3,0.5,2.4,1.2,3.3,2
			s1.6,1.8,2.1,2.9c0.5,1.2,0.8,2.6,0.8,4.3c0,2.2-0.4,4.2-1.2,5.8c-0.8,1.6-1.9,3-3.3,4.1s-3,1.9-4.9,2.5
			C366.7,204.7,364.7,204.9,362.6,204.9z"/>
		<path class="st1" d="M420.6,203.9c-1.3,0-2-0.6-2-1.7c0-0.3,0-0.5,0-0.7s0.1-0.4,0.1-0.7l1.3-6.7h-0.3c-1.9,3.3-4,5.9-6.5,7.9
			s-5.6,2.9-9.3,2.9c-2.3,0-4.3-0.4-6.1-1.3c-1.8-0.8-3.3-2-4.5-3.5s-2.1-3.2-2.8-5.2c-0.6-2-0.9-4.2-0.9-6.5c0-4,0.5-7.9,1.4-11.5
			c1-3.6,2.4-6.8,4.2-9.6c1.8-2.7,4.1-4.9,6.8-6.5c2.7-1.6,5.8-2.4,9.3-2.4c3.7,0,6.8,0.8,9,2.5c2.3,1.7,3.8,3.9,4.6,6.7h0.3
			l1.6-8.2h1.8l-8.5,42.7h7.5l-0.4,1.7h-6.6V203.9z M404,203.3c1.9,0,3.6-0.3,5.1-0.8s3-1.4,4.6-2.7c1.7-1.4,3.3-3.3,4.9-5.6
			c1.5-2.3,2.6-5.1,3.3-8.2l2.5-12.5c0.3-1.5,0.3-3,0-4.6s-1-3-2-4.3s-2.4-2.4-4.1-3.2c-1.8-0.8-3.9-1.3-6.6-1.3
			c-5,0-9.2,1.7-12.4,5.2c-3.2,3.5-5.4,8.1-6.5,13.9l-0.6,3.1c-0.2,1-0.3,2-0.4,2.9c-0.1,1-0.1,2.1-0.1,3.3c0,2,0.2,4,0.7,5.7
			c0.5,1.8,1.3,3.3,2.3,4.7c1,1.3,2.3,2.4,3.9,3.2C399.9,202.9,401.8,203.3,404,203.3z"/>
		<path class="st1" d="M438.8,203.9l8.9-44.4h1.8l-1.8,9.2h0.3c1.8-3.3,3.9-5.9,6.4-7.6c2.5-1.8,5.6-2.6,9.3-2.6c3.7,0,6.6,1,8.6,3
			s3,4.9,3,8.6c0,0.9-0.1,1.8-0.2,2.9c-0.1,1-0.3,2-0.4,2.9l-5.3,26.5h7.5l-0.4,1.7h-6.8c-1.3,0-2-0.6-2-1.7c0-0.3,0-0.5,0-0.7
			s0.1-0.4,0.1-0.7l5-25c0.2-1,0.3-2,0.4-3.1s0.2-1.9,0.2-2.5c0-6.8-3.3-10.2-10-10.2c-2,0-4,0.4-6,1.2s-3.9,2.2-5.7,4.3
			c-1,1.2-2,2.6-3.1,4.4c-1.1,1.8-1.9,3.9-2.4,6.6l-5.4,27.4h-2V203.9z"/>
		<path class="st1" d="M499.6,204.9c-3.7,0-6.9-0.7-9.5-2.2c-2.7-1.5-4.9-3.6-6.8-6.4l1.6-1.1c3.3,5.3,8.2,8,14.7,8
			c4.1,0,7.4-1,9.9-3c2.5-2,3.7-4.8,3.7-8.5c0-1.4-0.2-2.6-0.6-3.6c-0.4-1-1-1.8-1.8-2.5s-1.7-1.3-2.8-1.8c-1.1-0.5-2.4-0.9-3.9-1.2
			l-4.4-1.1c-1.5-0.4-2.9-0.9-4.1-1.4c-1.2-0.6-2.3-1.2-3.2-2.1c-0.9-0.8-1.6-1.8-2.1-3s-0.7-2.6-0.7-4.3c0-2,0.4-3.8,1.2-5.4
			c0.8-1.5,1.8-2.8,3.2-3.8c1.3-1,2.9-1.8,4.6-2.3c1.8-0.5,3.7-0.8,5.7-0.8c1.9,0,3.6,0.2,5.1,0.6c1.5,0.4,2.8,0.9,3.9,1.5
			c1.1,0.6,2.1,1.4,3,2.2c0.8,0.8,1.6,1.7,2.2,2.6l-1.4,1.2c-1.2-1.8-2.8-3.3-4.7-4.6c-1.9-1.3-4.6-1.9-8.2-1.9
			c-3.9,0-6.9,0.9-9.3,2.7c-2.3,1.8-3.5,4.4-3.5,7.9c0,2.7,0.7,4.8,2.2,6.1s3.7,2.4,6.6,3.1l4.4,1.1c1.5,0.4,2.8,0.9,4.1,1.4
			c1.3,0.5,2.4,1.2,3.3,2s1.6,1.8,2.1,2.9c0.5,1.2,0.8,2.6,0.8,4.3c0,2.2-0.4,4.2-1.2,5.8s-1.9,3-3.3,4.1s-3,1.9-4.9,2.5
			C503.8,204.7,501.8,204.9,499.6,204.9z"/>
	</g>
	<g>
		<path class="st1" d="M85.4,133.3v-14.4h10.7V64.6H85.4V50.2H125v14.4h-10.7v54.3H125v14.4H85.4z"/>
		<path class="st1" d="M140.1,50.2h40.4c6.9,0,12.3,1.9,16.1,5.8c3.8,3.9,5.8,9,5.8,15.5c0,3.2-0.4,5.9-1.3,8.1
			c-0.8,2.2-1.9,4-3.3,5.5c-1.4,1.4-3,2.5-4.9,3.2c-1.9,0.7-3.9,1.1-6,1.1v0.7c2,0,4.1,0.4,6.3,1.1c2.2,0.7,4.2,1.8,6,3.4
			c1.8,1.5,3.4,3.6,4.6,6c1.2,2.5,1.8,5.5,1.8,9c0,3.3-0.5,6.3-1.6,9.2c-1.1,2.9-2.6,5.4-4.5,7.6c-1.9,2.1-4.2,3.8-6.8,5.1
			c-2.6,1.2-5.5,1.8-8.6,1.8h-44V50.2z M158.2,84.2h18c2.4,0,4.2-0.7,5.6-2c1.3-1.3,2-3.2,2-5.6v-3.6c0-2.4-0.7-4.2-2-5.6
			c-1.4-1.3-3.2-2-5.6-2h-18V84.2z M158.2,118.1H179c2.4,0,4.3-0.7,5.7-2c1.4-1.3,2.1-3.2,2.1-5.5v-4c0-2.4-0.7-4.2-2.1-5.5
			c-1.4-1.3-3.3-2-5.7-2h-20.8V118.1z"/>
		<path class="st1" d="M281.6,78.8h-0.4l-6.1,12.1L259,120.3L243.2,91l-6.3-13.1h-0.4v55.4h-17V50.2h19.2L259,89.1h0.2l20.1-38.9
			h19.3v83.1h-17V78.8z"/>
	</g>
</g>
</svg>
