<?xml version="1.0" encoding="utf-8"?>
<!-- Generator: Adobe Illustrator 22.1.0, SVG Export Plug-In . SVG Version: 6.00 Build 0)  -->
<svg version="1.1" id="Ebene_1" xmlns="http://www.w3.org/2000/svg" xmlns:xlink="http://www.w3.org/1999/xlink" x="0px" y="0px"
	 viewBox="0 0 595.3 255.1" style="enable-background:new 0 0 595.3 255.1;" xml:space="preserve">
<style type="text/css">
	.st0{fill:#FFFFFF;}
	.st1{enable-background:new    ;}
	.st2{fill:#3B98FF;}
</style>
<g id="Ebene_1_1_">
	<g>
		<rect y="0" width="595.3" height="255.1"/>
	</g>
	<g>
		<g>
			<path class="st0" d="M371,31.4h99.2c17,0,30.2,4.8,39.6,14.3c9.5,9.6,14.2,22.2,14.2,38c0,7.8-1,14.4-3.1,19.9
				c-2,5.5-4.8,9.9-8.2,13.5c-3.4,3.5-7.4,6.1-12,7.8c-4.6,1.7-9.5,2.6-14.8,2.8v1.8c4.9,0,10,0.9,15.4,2.6
				c5.4,1.8,10.3,4.5,14.8,8.3c4.5,3.8,8.2,8.7,11.3,14.8c3,6,4.5,13.5,4.5,22.2c0,8-1.3,15.6-4,22.7c-2.6,7.1-6.3,13.3-11,18.6
				s-10.2,9.4-16.7,12.4c-6.4,3-13.5,4.5-21.1,4.5H371V31.4z M415.5,115.1h44.2c5.9,0,10.4-1.7,13.8-5c3.3-3.3,5-7.9,5-13.8v-8.8
				c0-5.9-1.7-10.4-5-13.8c-3.3-3.3-7.9-5-13.8-5h-44.2V115.1z M415.5,198.2h51.2c5.9,0,10.5-1.6,13.9-4.8s5.1-7.8,5.1-13.6v-9.9
				c0-5.9-1.7-10.4-5.1-13.6c-3.4-3.2-8-4.8-13.9-4.8h-51.2V198.2z"/>
		</g>
	</g>
	<g class="st1">
		<path class="st0" d="M25.4,225.9c-1,0-1.7-0.3-2.3-0.8c-0.6-0.5-0.9-1.2-0.9-2.2c0-0.4,0-0.7,0.1-1l1.6-8.3
			c0.1-0.4,0.1-0.8,0.1-1.2c0-1.9-1-2.9-3.1-2.9l0.9-4.2c2.5,0,4-1.2,4.5-3.6l1.8-8.8c0.2-1.3,0.7-2.3,1.5-2.9c0.8-0.6,1.7-1,2.7-1
			h4.5l-0.7,3.8h-3.3l-1.9,9.4c-0.1,0.6-0.3,1.2-0.6,1.8c-0.2,0.6-0.6,1.1-1,1.6s-0.9,0.9-1.5,1.2s-1.3,0.5-2.1,0.5v0.3
			c1,0.2,1.7,0.6,2.3,1.3c0.6,0.7,0.9,1.5,0.9,2.6c0,0.2,0,0.4-0.1,0.7c0,0.2-0.1,0.5-0.1,0.7l-1.9,9.3h3.3l-0.8,3.8h-3.9V225.9z"/>
		<path class="st0" d="M46.7,220.2l1.1-5.6H35.2l0.9-4.7L51,191.5h6.4l-3.8,19h3.7l-0.8,4.2h-3.7l-1.1,5.6h-5V220.2z M40.4,210.5
			h8.3l2.7-13.2H51L40.4,210.5z"/>
		<path class="st0" d="M82.3,196.1H69.8l-2.5,9.8h0.4c0.8-1.4,1.6-2.4,2.6-3.1c0.9-0.7,2.2-1,3.9-1c2.1,0,3.9,0.7,5.2,2
			c1.3,1.3,2,3.3,2,5.7c0,1.5-0.3,2.8-0.8,4.2c-0.5,1.3-1.3,2.5-2.2,3.6c-1,1-2.2,1.9-3.6,2.5s-3.1,0.9-4.9,0.9
			c-1.4,0-2.6-0.2-3.7-0.5c-1-0.3-1.9-0.7-2.7-1.2s-1.4-1.1-1.8-1.7c-0.5-0.6-0.9-1.3-1.1-2l4.2-2.7c0.4,1.1,1,2,1.9,2.7s2,1,3.6,1
			s2.8-0.4,3.7-1.3s1.5-2,1.8-3.5c0.1-0.3,0.1-0.6,0.1-0.9c0-0.3,0.1-0.6,0.1-0.9c0-1.2-0.3-2.1-1-2.7c-0.7-0.7-1.7-1-3-1
			c-1.1,0-2.1,0.2-2.9,0.7s-1.5,1-2,1.6l-4.1-0.6l4.1-16.3h16.3L82.3,196.1z"/>
		<path class="st0" d="M88.9,220.2c-1,0-1.9-0.3-2.5-0.8c-0.6-0.6-0.9-1.3-0.9-2.2c0-0.3,0-0.6,0.1-1l3.5-17.4h5l-3.5,17.4h2.6
			l-0.8,4.1h-3.5V220.2z M92.3,195.6c-0.9,0-1.6-0.2-2-0.5c-0.4-0.4-0.6-0.8-0.6-1.4c0-0.4,0.1-0.9,0.2-1.6c0.2-0.7,0.5-1.3,1-1.8
			s1.3-0.8,2.5-0.8c0.9,0,1.6,0.2,2,0.5c0.4,0.4,0.6,0.8,0.6,1.4c0,0.4-0.1,0.9-0.2,1.6c-0.2,0.7-0.5,1.3-1,1.8
			S93.4,195.6,92.3,195.6z"/>
	</g>
	<g class="st1">
		<path class="st0" d="M104.9,209.8l0.8-4.2h20.8l-0.8,4.2H104.9z"/>
	</g>
	<g class="st1">
		<path class="st0" d="M142.2,222.7c-0.4,1.9-1.1,3.3-2.3,4.3c-1.1,1-2.7,1.5-4.8,1.5h-3l0.8-4.1h3.9l4.3-21.6h-3l0.8-4.1h3l0.7-3.3
			c0.4-1.9,1.1-3.3,2.3-4.3c1.1-1,2.7-1.5,4.8-1.5h3.2l-0.9,4.1h-4.1l-0.9,4.9h4.2l-0.8,4.1h-4.2L142.2,222.7z"/>
		<path class="st0" d="M150.3,220.2l4.3-21.5h5l-1,4.9h0.2c0.2-0.6,0.6-1.2,0.9-1.7c0.4-0.6,0.8-1.1,1.4-1.6
			c0.5-0.5,1.1-0.9,1.8-1.2s1.4-0.5,2.3-0.5h1.1l-1,4.9h-1.4c-1.9,0-3.3,0.4-4.3,1.2s-1.7,2-2,3.7l-2.3,11.7h-5V220.2z"/>
		<path class="st0" d="M164.4,222.1h3.3l1.9-9.4c0.1-0.6,0.3-1.2,0.5-1.8s0.6-1.1,1-1.6s0.9-0.9,1.5-1.2s1.3-0.5,2.1-0.5v-0.3
			c-0.9-0.2-1.7-0.6-2.3-1.3s-0.9-1.5-0.9-2.6c0-0.2,0-0.4,0-0.6c0-0.2,0.1-0.5,0.1-0.7l1.9-9.3h-3.3l0.8-3.8h4.1
			c1,0,1.7,0.3,2.3,0.8s0.9,1.2,0.9,2.2c0,0.2,0,0.3,0,0.5s0,0.4-0.1,0.5l-1.7,8.3c-0.1,0.4-0.1,0.8-0.1,1.2c0,1.9,1.1,2.9,3.2,2.9
			l-0.9,4.2c-2.6,0-4.1,1.2-4.6,3.6l-1.8,8.8c-0.2,1.3-0.7,2.3-1.5,2.9s-1.7,1-2.8,1h-4.4L164.4,222.1z"/>
	</g>
	<g class="st1">
		<path class="st0" d="M544.7,170.9V166l17.8,3.5v-0.2l-3.6-3.1l-5.5-5.6v-5.7l8.5,8.8l8.5-3.3v-2.5l4,0.8v2.6c0,1.9-1,3.2-2.9,3.8
			l-6.4,2.3l3.1,3.3l6.1,1.2v4.9L544.7,170.9z"/>
		<path class="st0" d="M581.7,157.3l-4.1-0.8v-19.8l4.1,0.8V157.3z"/>
		<path class="st0" d="M569.7,122.3v0.2c1.7,0.9,3,1.8,3.9,2.9s1.3,2.4,1.3,4c0,1-0.2,1.8-0.5,2.6c-0.4,0.7-0.9,1.3-1.5,1.8
			s-1.5,0.8-2.4,1.1c-0.9,0.2-1.9,0.4-3.1,0.4c-2,0-3.9-0.2-5.7-0.7s-3.3-1.2-4.6-2c-1.3-0.9-2.3-1.9-3.1-3.1
			c-0.7-1.2-1.1-2.6-1.1-4s0.4-2.6,1.1-3.6c0.8-1,1.7-1.5,2.9-1.7V120l-3.6-0.7v-4.9l29.1,5.8v4.9L569.7,122.3z M570.9,127.2
			c0-0.8-0.2-1.5-0.6-2.1c-0.4-0.6-0.8-1.2-1.4-1.6c-0.6-0.5-1.3-0.9-2-1.3s-1.5-0.6-2.4-0.8l-3.6-0.7c-1.1-0.2-2.1,0-2.8,0.6
			c-0.7,0.7-1.1,1.7-1.1,3c0,2.7,1.7,4.5,5.2,5.2l2.9,0.6c0.3,0.1,0.7,0.1,1.1,0.2c0.4,0.1,0.8,0.1,1.1,0.1c1.1,0,1.9-0.3,2.6-0.8
			C570.5,128.9,570.9,128.1,570.9,127.2z"/>
		<path class="st0" d="M565.3,107.2l-6.3-1.3c-0.2-2.2-0.6-3.9-1.4-5.1s-1.8-2-3.1-2.3c-0.2-0.1-0.4-0.1-0.7-0.1s-0.5-0.1-0.8-0.1
			c-1,0-1.7,0.3-2.2,0.9s-0.7,1.4-0.7,2.4c0,1.2,0.4,2.2,1.1,3c0.7,0.8,1.7,1.4,2.9,1.9l-1.8,4c-1-0.4-1.8-0.9-2.6-1.5
			s-1.5-1.3-2.1-2.1c-0.6-0.8-1-1.7-1.3-2.7s-0.5-2.1-0.5-3.3c0-2.5,0.6-4.4,1.8-5.8s2.8-2.1,4.9-2.1c1.1,0,2.2,0.2,3.2,0.6
			s1.9,1,2.8,1.8c0.8,0.8,1.5,1.6,2.1,2.7c0.6,1,1,2.2,1.2,3.4l3.4,0.7L565.3,107.2L565.3,107.2z M574.9,106.4c0,1-0.2,1.7-0.6,2.1
			c-0.4,0.4-0.9,0.7-1.5,0.7c-0.3,0-0.8-0.1-1.7-0.2c-0.8-0.2-1.5-0.5-2-1.1s-0.8-1.4-0.8-2.5c0-1,0.2-1.7,0.6-2.2
			c0.4-0.4,0.9-0.7,1.5-0.7c0.3,0,0.8,0.1,1.6,0.2c0.8,0.2,1.5,0.5,2,1.1C574.7,104.5,574.9,105.3,574.9,106.4z"/>
		<path class="st0" d="M574.9,94.6c0,1-0.2,1.7-0.7,2.1c-0.4,0.4-1,0.6-1.5,0.6c-0.2,0-0.5,0-0.8-0.1s-0.6-0.1-0.9-0.2
			c-0.8-0.2-1.4-0.6-2-1.1c-0.5-0.5-0.8-1.3-0.8-2.4c0-1,0.2-1.7,0.7-2.1c0.4-0.4,1-0.6,1.5-0.6c0.2,0,0.5,0,0.8,0.1
			s0.6,0.1,0.9,0.2c0.8,0.2,1.4,0.5,2,1.1C574.6,92.7,574.9,93.6,574.9,94.6z"/>
		<path class="st0" d="M579.3,71.4c0,2-0.3,3.8-0.9,5.4c-0.6,1.6-1.5,2.9-2.7,4c-1.1,1.1-2.5,1.9-4.1,2.5s-3.4,0.9-5.4,0.9
			c-0.6,0-1.3,0-2.1-0.1c-0.7-0.1-1.5-0.2-2.3-0.3c-2.3-0.5-4.5-1.2-6.4-2.3c-1.9-1.1-3.6-2.4-5-3.9c-1.4-1.6-2.5-3.3-3.3-5.3
			s-1.2-4.1-1.2-6.5c0-1.9,0.3-3.6,0.9-5.1c0.6-1.6,1.4-2.9,2.5-4.1c1.1-1.2,2.4-2.1,3.9-2.7c1.5-0.7,3.3-1,5.2-1c0.5,0,1,0,1.6,0.1
			c0.5,0,1.1,0.1,1.7,0.3c1.3,0.3,2.6,0.7,3.8,1.2s2.2,1.2,3,2c0.9,0.8,1.5,1.6,2,2.6s0.7,2,0.7,3.1c0,1.4-0.3,2.4-0.9,3.1
			c-0.6,0.7-1.4,1.1-2.5,1.1h-0.5v0.2c1,0.4,1.9,1,2.7,1.9s1.1,1.9,1.1,3.1c0,1.6-0.5,2.9-1.6,3.8s-2.6,1.4-4.6,1.4
			c-0.4,0-0.8,0-1.3-0.1c-0.4,0-0.9-0.1-1.5-0.3c-2.7-0.6-4.7-1.5-6-2.9c-1.4-1.4-2.1-2.9-2.1-4.6c0-1.2,0.3-2.1,0.8-2.8
			c0.5-0.6,1.2-1.1,2.1-1.3v-0.2l-2.6-0.5V60l11.1,2.2c0.5,0.1,0.9,0.1,1.2,0.1c0.9,0,1.3-0.4,1.3-1.3c0-1-0.5-1.8-1.6-2.6
			c-1-0.8-2.6-1.4-4.8-1.9l-1.5-0.3c-0.4-0.1-0.7-0.1-1.1-0.2c-0.4,0-0.8,0-1.4,0c-1.4,0-2.6,0.2-3.7,0.7s-2,1.2-2.8,2
			c-0.8,0.9-1.4,1.9-1.8,3.1c-0.4,1.2-0.6,2.6-0.6,4c0,1.7,0.3,3.4,0.9,4.9c0.6,1.5,1.4,2.9,2.5,4.1s2.4,2.2,3.8,3.1s3.2,1.4,5,1.8
			l1.9,0.4c0.6,0.1,1.1,0.2,1.7,0.3s1,0.1,1.5,0.1c1.5,0,2.9-0.2,4.2-0.7c1.2-0.4,2.3-1.1,3.2-1.9s1.5-1.9,2-3.1s0.7-2.6,0.7-4.1
			v-8.1l3.1,0.6v8.2H579.3z M568,69.8c0-0.5-0.1-0.9-0.3-1.4c-0.2-0.4-0.5-0.8-0.8-1.2c-0.3-0.3-0.7-0.6-1.1-0.8
			c-0.4-0.2-0.8-0.4-1.2-0.5l-4.3-0.8c-0.7-0.1-1.4,0.1-1.9,0.6c-0.6,0.5-0.8,1.3-0.8,2.3s0.3,1.8,1,2.5c0.7,0.6,1.5,1.1,2.6,1.3
			l3.2,0.6c0.2,0.1,0.4,0.1,0.5,0.1s0.3,0,0.4,0c0.9,0,1.5-0.2,2-0.7C567.8,71.4,568,70.7,568,69.8z"/>
	</g>
	<g class="st1">
		<path class="st0" d="M230.8,84.3c-1.1,0-1.9-0.3-2.5-0.9c-0.5-0.6-0.8-1.4-0.9-2.4v-0.9h-0.3c-0.6,1.5-1.5,2.6-2.9,3.5
			s-3,1.3-5.1,1.3c-2.8,0-4.9-0.7-6.4-2c-1.5-1.4-2.2-3.3-2.2-5.7c0-2.3,0.8-4.2,2.5-5.5c1.7-1.4,4.4-2.1,8.2-2.1h6v-3.1
			c0-4.3-2.2-6.5-6.7-6.5c-1.7,0-3.2,0.4-4.3,1.1c-1.2,0.7-2.1,1.8-2.8,3.1l-1.8-1.5c0.7-1.5,1.8-2.8,3.3-3.8s3.4-1.5,5.8-1.5
			c3.1,0,5.4,0.8,7.1,2.3c1.6,1.5,2.5,3.7,2.5,6.5v15.5h3.5v2.5L230.8,84.3L230.8,84.3z M219.7,82.4c1.1,0,2-0.1,3-0.4
			c0.9-0.3,1.7-0.7,2.4-1.2s1.2-1.1,1.6-1.8c0.4-0.7,0.6-1.5,0.6-2.4v-4.9h-6.1c-2.6,0-4.5,0.4-5.7,1.3s-1.8,2-1.8,3.5v1.2
			c0,1.5,0.5,2.7,1.6,3.5C216.4,82,217.9,82.4,219.7,82.4z"/>
		<path class="st0" d="M249.1,84.9c-1.7,0-3.3-0.3-4.7-0.9s-2.6-1.5-3.6-2.7s-1.8-2.6-2.3-4.3c-0.5-1.7-0.8-3.6-0.8-5.8
			c0-2.1,0.3-4.1,0.8-5.8c0.5-1.7,1.3-3.1,2.3-4.3s2.2-2.1,3.6-2.7c1.4-0.6,3-0.9,4.7-0.9s3.2,0.3,4.6,0.9c1.4,0.6,2.5,1.5,3.5,2.6
			s1.7,2.5,2.2,4.1s0.8,3.3,0.8,5.3v1.4h-19.4v1.3c0,1.4,0.2,2.6,0.6,3.8c0.4,1.1,1,2.1,1.7,2.9s1.6,1.5,2.7,1.9
			c1.1,0.5,2.2,0.7,3.6,0.7c3.8,0,6.5-1.8,7.9-5.3l2.1,1.4c-0.8,1.9-2.1,3.5-3.9,4.6C253.7,84.4,251.6,84.9,249.1,84.9z M249,60
			c-1.3,0-2.4,0.2-3.4,0.7s-1.9,1.1-2.6,1.9c-0.7,0.8-1.3,1.8-1.7,2.9s-0.6,2.4-0.6,3.8v0.3h16.2v-0.4c0-1.4-0.2-2.6-0.6-3.8
			c-0.4-1.1-0.9-2.1-1.6-2.9c-0.7-0.8-1.5-1.4-2.5-1.8S250.2,60,249,60z"/>
		<path class="st0" d="M272,84.3c-1.1,0-1.9-0.3-2.4-0.9s-0.8-1.4-0.8-2.4V60.6h-4.6v-2.5h3c0.7,0,1.2-0.1,1.5-0.4
			c0.3-0.3,0.4-0.8,0.4-1.6v-5.3h2.7v7.3h5.9v2.5h-5.9v21.2h5.5v2.5H272z"/>
	</g>
	<g class="st1">
		<path class="st0" d="M284.9,84.9c-1.3,0-2.2-0.3-2.7-0.8s-0.8-1.2-0.8-1.9c0-0.2,0-0.5,0.1-0.8c0-0.3,0.1-0.8,0.2-1.3
			c0.2-1,0.7-1.9,1.4-2.5s1.8-1,3.2-1c1.3,0,2.2,0.3,2.7,0.8s0.8,1.2,0.8,1.9c0,0.2,0,0.5-0.1,0.8c0,0.3-0.1,0.8-0.2,1.3
			c-0.2,1-0.7,1.9-1.4,2.5C287.4,84.6,286.3,84.9,284.9,84.9z M285.6,73.6l1-14.9l2-10.1h6.7l-2,10.1l-4.9,14.9H285.6z"/>
	</g>
	<g class="st1">
		<path class="st0" d="M300.1,58.1h2.9v32.1c0,1.3-0.3,2.4-1,3.2c-0.6,0.8-1.7,1.2-3.1,1.2h-3.2V92h4.3V58.1H300.1z M301.5,51
			c-0.7,0-1.2-0.2-1.5-0.5s-0.5-0.8-0.5-1.3v-0.5c0-0.5,0.2-1,0.5-1.3s0.8-0.5,1.5-0.5s1.2,0.2,1.5,0.5s0.5,0.8,0.5,1.3v0.5
			c0,0.5-0.2,1-0.5,1.3C302.7,50.9,302.2,51,301.5,51z"/>
		<path class="st0" d="M315.7,84.3c-1.1,0-1.9-0.3-2.4-0.9s-0.8-1.3-0.8-2.3V46.5h2.9v35.3h4v2.5H315.7z"/>
		<path class="st0" d="M327.2,60.6h-4.5v-2.5h4.5v-7.3c0-1.3,0.3-2.4,1-3.2s1.7-1.2,3.1-1.2h4.6V49h-5.8v9.2h5.8v2.5h-5.8v23.7h-2.9
			L327.2,60.6L327.2,60.6z"/>
	</g>
	<g>
		<polygon class="st0" points="96.1,0 73.2,44.3 72.7,44.3 49.5,0 0,0 0,152.8 17.4,152.8 17.4,16.8 18.2,16.8 33.7,49 72.7,120.9 
			112.4,48.7 127.4,18.8 128.2,18.8 128.2,152.8 170.1,152.8 170.1,0 		"/>
	</g>
	<g>
		<path class="st0" d="M240.3,255.1h40.3l9-45.7h34.8l6.6-32.9h-34.8l9.3-47.1H268l-6,29.9c-1.1,6-2.8,10.3-5.1,13.1
			c-2.3,2.8-6.9,4.1-13.8,4.1h-12.3l-6.3,32.9h24.9L240.3,255.1z"/>
	</g>
</g>
<g id="Ebene_3">
	<g>
		<g>
			<path class="st2" d="M72.8,154.8C54.2,154.8,39,139.6,39,121s15.1-33.8,33.8-33.8s33.8,15.1,33.8,33.8S91.4,154.8,72.8,154.8z
				 M72.8,89.3C55.3,89.3,41,103.5,41,121s14.2,31.8,31.8,31.8c17.5,0,31.8-14.2,31.8-31.8S90.3,89.3,72.8,89.3z"/>
		</g>
	</g>
	<g>
		<path class="st0" d="M272,84.3c-1.1,0-1.9-0.3-2.4-0.9s-0.8-1.4-0.8-2.4V60.6h-4.6v-2.5h3c0.7,0,1.2-0.1,1.5-0.4
			c0.3-0.3,0.4-0.8,0.4-1.6v-5.3h2.7v7.3h5.9v2.5h-5.9v21.2h5.5v2.5H272z"/>
	</g>
	<g>
		<path class="st0" d="M285,84.9c-1.3,0-2.2-0.3-2.7-0.8s-0.8-1.2-0.8-1.9c0-0.2,0-0.5,0.1-0.8c0-0.3,0.1-0.8,0.2-1.3
			c0.2-1,0.7-1.9,1.4-2.5c0.7-0.7,1.8-1,3.2-1c1.3,0,2.2,0.3,2.7,0.8s0.8,1.2,0.8,1.9c0,0.2,0,0.5-0.1,0.8c0,0.3-0.1,0.8-0.2,1.3
			c-0.2,1-0.7,1.9-1.4,2.5C287.5,84.6,286.4,84.9,285,84.9z M285.7,73.6l1-14.9l2-10.1h6.7l-2,10.1l-4.9,14.9H285.7z"/>
	</g>
	<g>
		<path class="st0" d="M300,58.1h2.9v32.1c0,1.3-0.3,2.4-1,3.2c-0.6,0.8-1.7,1.2-3.1,1.2h-3.2V92h4.3V58.1H300z M301.5,51
			c-0.7,0-1.2-0.2-1.5-0.5s-0.5-0.8-0.5-1.3v-0.5c0-0.5,0.2-1,0.5-1.3s0.8-0.5,1.5-0.5s1.2,0.2,1.5,0.5s0.5,0.8,0.5,1.3v0.5
			c0,0.5-0.2,1-0.5,1.3C302.7,50.9,302.2,51,301.5,51z"/>
	</g>
	<g>
		<path class="st0" d="M315.7,84.3c-1.1,0-1.9-0.3-2.4-0.9s-0.8-1.3-0.8-2.3V46.5h2.9v35.3h4v2.5H315.7z"/>
	</g>
	<g>
		<path class="st0" d="M327.2,60.6h-4.5v-2.5h4.5v-7.3c0-1.3,0.3-2.4,1-3.2s1.7-1.2,3.1-1.2h4.6V49h-5.8v9.2h5.8v2.5h-5.8v23.7h-2.9
			L327.2,60.6L327.2,60.6z"/>
	</g>
	<g>
		<path class="st2" d="M245.7,228.4h40.2l3.8-19h34.8l6.6-32.9h-34.8l9.3-47.1h-37.5l-6,29.9c-1.1,6-2.8,10.3-5.1,13.1
			c-2.3,2.8-6.9,4.1-13.8,4.1h-12.3l-6.3,32.9h24.9L245.7,228.4z"/>
	</g>
	<g>
		<rect x="419.7" y="73.6" class="st2" width="2" height="35.6"/>
	</g>
	<g>
		<rect x="419.7" y="157" class="st2" width="2" height="35.6"/>
	</g>
	<g>
		<g>
			<path class="st2" d="M147.2,197.6l0.7-3.8h4.1l0.9-4.1h-3.2c-2.1,0-3.7,0.5-4.8,1.5s-1.9,2.4-2.3,4.3l-0.4,2.2L147.2,197.6
				L147.2,197.6z"/>
		</g>
		<g>
			<path class="st2" d="M137.4,221.5l-0.6,2.9h-3.9l-0.8,4.1h3c2.1,0,3.7-0.5,4.8-1.5s1.9-2.4,2.3-4.3l0.2-1.2H137.4z"/>
		</g>
	</g>
	<g>
		<g>
			<path class="st2" d="M168.3,219.6l-0.5,2.5h-3.3l-0.7,3.8h4.4c1.1,0,2-0.3,2.8-1s1.2-1.6,1.5-2.9l0.5-2.4L168.3,219.6
				L168.3,219.6z"/>
		</g>
		<g>
			<path class="st2" d="M173,195.6h4.6l0.6-2.7c0-0.1,0-0.3,0.1-0.5c0-0.2,0-0.4,0-0.5c0-0.9-0.3-1.7-0.9-2.2s-1.3-0.8-2.3-0.8H171
				l-0.8,3.8h3.3L173,195.6z"/>
		</g>
	</g>
	<g>
		<g>
			<path class="st2" d="M27.5,219.1h-4.6l-0.6,2.8c-0.1,0.3-0.1,0.6-0.1,1c0,0.9,0.3,1.7,0.9,2.2s1.3,0.8,2.3,0.8h4.1l0.8-3.8H27
				L27.5,219.1z"/>
		</g>
		<g>
			<path class="st2" d="M32.4,188.9c-1.1,0-2,0.3-2.7,1c-0.8,0.6-1.3,1.6-1.5,2.9l-0.4,2.1h4.6l0.4-2.2h3.3l0.7-3.8H32.4z"/>
		</g>
	</g>
	<g>
		<path class="st0" d="M213.7,53"/>
	</g>
	<g>
		<path class="st2" d="M216.2,61.1c0.4-0.2,0.8-0.4,1.2-0.6l-1.9-1.9c-0.2,0.1-0.4,0.2-0.6,0.3c-1.5,1-2.6,2.2-3.3,3.8l1.8,1.5
			C214.1,62.9,215.1,61.9,216.2,61.1z"/>
	</g>
	<g>
		<path class="st2" d="M253.6,81.3l1.9,1.8c1.7-1.1,2.9-2.6,3.7-4.5l-2.1-1.4C256.3,79.1,255.2,80.5,253.6,81.3z"/>
	</g>
	<g>
		<g>
			<path class="st2" d="M579.3,71.7c0-0.1,0-0.2,0-0.3v-8l-3.1-0.6v8.1c0,0.1,0,0.2,0,0.4L579.3,71.7z"/>
		</g>
		<g>
			<path class="st2" d="M549.1,67.4c0-0.4-0.1-0.9-0.1-1.4c0-1.5,0.2-2.8,0.6-4c0.4-1.2,1-2.3,1.8-3.1c0.8-0.9,1.7-1.5,2.8-2
				s2.3-0.7,3.7-0.7c0.5,0,1,0,1.4,0s0.7,0.1,1.1,0.2l1.5,0.3c2.2,0.5,3.8,1.1,4.8,1.9c1,0.8,1.6,1.6,1.6,2.6c0,0.9-0.4,1.3-1.3,1.3
				c-0.4,0-0.8,0-1.2-0.1L554.6,60v4l2.6,0.5v0.2c-0.9,0.2-1.6,0.6-2.1,1.3c-0.4,0.5-0.7,1.3-0.8,2.2l3.4,0.5c0-0.2-0.1-0.4-0.1-0.6
				c0-1,0.3-1.8,0.8-2.3c0.6-0.5,1.2-0.7,1.9-0.6l4.3,0.8c0.4,0.1,0.8,0.2,1.2,0.5c0.4,0.2,0.7,0.5,1.1,0.8c0.3,0.3,0.6,0.7,0.8,1.2
				c0.2,0.4,0.3,0.9,0.3,1.4c0,0.1,0,0.2,0,0.2l3.3,0.5c-0.1-0.9-0.5-1.7-1.1-2.4c-0.8-0.9-1.7-1.5-2.7-1.9v-0.2h0.5
				c1,0,1.9-0.4,2.5-1.1s0.9-1.8,0.9-3.1c0-1.1-0.2-2.1-0.7-3.1s-1.2-1.8-2-2.6c-0.9-0.8-1.9-1.4-3-2c-1.2-0.5-2.4-0.9-3.8-1.2
				c-0.6-0.1-1.2-0.2-1.7-0.3c-0.5,0-1.1-0.1-1.6-0.1c-1.9,0-3.7,0.3-5.2,1s-2.9,1.6-3.9,2.7c-1.1,1.2-1.9,2.5-2.5,4.1
				s-0.9,3.3-0.9,5.1c0,0.4,0,0.9,0.1,1.3L549.1,67.4z"/>
		</g>
	</g>
	<g>
		<path class="st2" d="M572,164.9c1.6-0.7,2.5-1.9,2.5-3.6v-2.6l-4-0.8v2.5l-2.6,1L572,164.9z"/>
	</g>
	<g>
		<polygon class="st2" points="556.8,158.3 553.4,154.8 553.4,160.5 556.8,164 		"/>
	</g>
	<g>
		<path class="st2" d="M461,109.3v-2c6,0,10.9-4.9,10.9-10.9v-10c0-6-4.9-10.9-10.9-10.9v-2c7.1,0,12.9,5.8,12.9,12.9v10
			C473.9,103.5,468.1,109.3,461,109.3z"/>
	</g>
	<g>
		<path class="st2" d="M462.3,193.5v-2c7.9,0,14.3-5.2,14.3-11.5v-10.5c0-6.3-6.4-11.5-14.3-11.5v-2c9,0,16.3,6.1,16.3,13.5V180
			C478.6,187.4,471.3,193.5,462.3,193.5z"/>
	</g>
</g>
<g id="Ebene_2_1_">
	<g>
		<rect y="0" class="st2" width="595.3" height="7.6"/>
	</g>
	<g>
		<rect y="247.5" class="st2" width="595.3" height="7.6"/>
	</g>
</g>
</svg>
