<?xml version="1.0" encoding="utf-8"?>
<!-- Generator: Adobe Illustrator 22.1.0, SVG Export Plug-In . SVG Version: 6.00 Build 0)  -->
<svg version="1.1" xmlns="http://www.w3.org/2000/svg" xmlns:xlink="http://www.w3.org/1999/xlink" x="0px" y="0px"
	 viewBox="0 0 595.3 255.1" style="enable-background:new 0 0 595.3 255.1;" xml:space="preserve">
<style type="text/css">
	.st0{fill:#FFFFFF;}
	.st1{font-family:'IBMPlexSans-SemiBoldItalic';}
	.st2{font-size:41.1518px;}
	.st3{letter-spacing:-1;}
	.st4{font-size:40.2406px;}
	.st5{font-family:'IBMPlexSans-Light';}
	.st6{font-size:51.1373px;}
	.st7{fill:#3B98FF;}
	.st8{fill:none;stroke:#3B98FF;stroke-width:2;stroke-miterlimit:10;}
	.st9{fill:#044ADA;}
</style>
<g id="Ebene_1">
	<rect y="0" width="595.3" height="255.1"/>
	<g>
		<path class="st0" d="M371,31.4h99.2c17,0,30.2,4.8,39.6,14.3c9.5,9.6,14.2,22.2,14.2,38c0,7.8-1,14.4-3.1,19.9
			c-2,5.5-4.8,9.9-8.2,13.5c-3.4,3.5-7.4,6.1-12,7.8c-4.6,1.7-9.5,2.6-14.8,2.8v1.8c4.9,0,10,0.9,15.4,2.6
			c5.4,1.8,10.3,4.5,14.8,8.3c4.5,3.8,8.2,8.7,11.3,14.8c3,6,4.5,13.5,4.5,22.2c0,8-1.3,15.6-4,22.7c-2.6,7.1-6.3,13.3-11,18.6
			c-4.7,5.3-10.2,9.4-16.7,12.4c-6.4,3-13.5,4.5-21.1,4.5H371V31.4z M415.5,115.1h44.2c5.9,0,10.4-1.7,13.8-5c3.3-3.3,5-7.9,5-13.8
			v-8.8c0-5.9-1.7-10.4-5-13.8c-3.3-3.3-7.9-5-13.8-5h-44.2V115.1z M415.5,198.2h51.2c5.9,0,10.5-1.6,13.9-4.8
			c3.4-3.2,5.1-7.8,5.1-13.6v-9.9c0-5.9-1.7-10.4-5.1-13.6c-3.4-3.2-8-4.8-13.9-4.8h-51.2V198.2z"/>
	</g>
	<text transform="matrix(1 0 0 1 20 220.2141)"><tspan x="0" y="0" class="st0 st1 st2">{45i</tspan><tspan x="75.3" y="0" class="st0 st1 st2 st3"> </tspan><tspan x="83.5" y="0" class="st0 st1 st2">–</tspan><tspan x="107.3" y="0" class="st0 st1 st2 st3"> </tspan><tspan x="115.5" y="0" class="st0 st1 st2">fr}</tspan></text>
	<text transform="matrix(6.123234e-17 -1 1 6.123234e-17 574.4326 177.6518)" class="st0 st1 st4">k_q?.@</text>
	<text transform="matrix(1 0 0 1 207.9995 84.3142)"><tspan x="0" y="0" class="st0 st5 st6">aet</tspan><tspan x="71.8" y="0" class="st0 st1 st6">!</tspan><tspan x="87.3" y="0" class="st0 st5 st6">jlf</tspan></text>
	<polygon class="st0" points="96.1,0 73.2,44.3 72.7,44.3 49.5,0 0,0 0,152.8 17.4,152.8 17.4,16.8 18.2,16.8 33.7,49 72.7,120.9 
		112.4,48.7 127.4,18.8 128.2,18.8 128.2,152.8 170.1,152.8 170.1,0 	"/>
	<path class="st0" d="M240.3,255.1h40.3l9-45.7h34.8l6.6-32.9h-34.8l9.3-47.1h-37.5l-6,29.9c-1.1,6-2.8,10.3-5.1,13.1
		c-2.3,2.8-6.9,4.1-13.8,4.1h-12.3l-6.3,32.9h24.9L240.3,255.1z"/>
</g>
<g id="Ebene_3">
	<g>
		<path class="st7" d="M72.8,154.8C54.2,154.8,39,139.6,39,121s15.1-33.8,33.8-33.8s33.8,15.1,33.8,33.8S91.4,154.8,72.8,154.8z
			 M72.8,89.3C55.3,89.3,41,103.5,41,121s14.2,31.8,31.8,31.8c17.5,0,31.8-14.2,31.8-31.8S90.3,89.3,72.8,89.3z"/>
	</g>
	<path class="st0" d="M272,84.3c-1.1,0-1.9-0.3-2.4-0.9c-0.5-0.6-0.8-1.4-0.8-2.4V60.6h-4.6v-2.5h3c0.7,0,1.2-0.1,1.5-0.4
		c0.3-0.3,0.4-0.8,0.4-1.6v-5.3h2.7v7.3h5.9v2.5h-5.9v21.2h5.5v2.5H272z"/>
	<path class="st0" d="M285,84.9c-1.3,0-2.2-0.3-2.7-0.8c-0.5-0.5-0.8-1.2-0.8-1.9c0-0.2,0-0.5,0.1-0.8c0-0.3,0.1-0.8,0.2-1.3
		c0.2-1,0.7-1.9,1.4-2.5c0.7-0.7,1.8-1,3.2-1c1.3,0,2.2,0.3,2.7,0.8c0.5,0.5,0.8,1.2,0.8,1.9c0,0.2,0,0.5-0.1,0.8
		c0,0.3-0.1,0.8-0.2,1.3c-0.2,1-0.7,1.9-1.4,2.5C287.5,84.6,286.4,84.9,285,84.9z M285.7,73.6l1-14.9l2-10.1h6.7l-2,10.1l-4.9,14.9
		H285.7z"/>
	<path class="st0" d="M300,58.1h2.9v32.1c0,1.3-0.3,2.4-1,3.2c-0.6,0.8-1.7,1.2-3.1,1.2h-3.2V92h4.3V58.1z M301.5,51
		c-0.7,0-1.2-0.2-1.5-0.5c-0.3-0.3-0.5-0.8-0.5-1.3v-0.5c0-0.5,0.2-1,0.5-1.3c0.3-0.3,0.8-0.5,1.5-0.5c0.7,0,1.2,0.2,1.5,0.5
		c0.3,0.3,0.5,0.8,0.5,1.3v0.5c0,0.5-0.2,1-0.5,1.3C302.7,50.9,302.2,51,301.5,51z"/>
	<path class="st0" d="M315.7,84.3c-1.1,0-1.9-0.3-2.4-0.9c-0.5-0.6-0.8-1.3-0.8-2.3V46.5h2.9v35.3h4v2.5H315.7z"/>
	<path class="st0" d="M327.2,60.6h-4.5v-2.5h4.5v-7.3c0-1.3,0.3-2.4,1-3.2c0.7-0.8,1.7-1.2,3.1-1.2h4.6V49h-5.8v9.2h5.8v2.5h-5.8
		v23.7h-2.9V60.6z"/>
	<path class="st7" d="M245.7,228.4h40.2l3.8-19h34.8l6.6-32.9h-34.8l9.3-47.1h-37.5l-6,29.9c-1.1,6-2.8,10.3-5.1,13.1
		c-2.3,2.8-6.9,4.1-13.8,4.1h-12.3l-6.3,32.9h24.9L245.7,228.4z"/>
	<line class="st8" x1="420.7" y1="73.6" x2="420.7" y2="109.2"/>
	<line class="st8" x1="420.7" y1="157" x2="420.7" y2="192.6"/>
	<g>
		<path class="st7" d="M147.2,197.6l0.7-3.8h4.1l0.9-4.1h-3.2c-2.1,0-3.7,0.5-4.8,1.5c-1.1,1-1.9,2.4-2.3,4.3l-0.4,2.2H147.2z"/>
		<path class="st7" d="M137.4,221.5l-0.6,2.9h-3.9l-0.8,4.1h3c2.1,0,3.7-0.5,4.8-1.5c1.1-1,1.9-2.4,2.3-4.3l0.2-1.2H137.4z"/>
	</g>
	<g>
		<path class="st7" d="M168.3,219.6l-0.5,2.5h-3.3l-0.7,3.8h4.4c1.1,0,2-0.3,2.8-1s1.2-1.6,1.5-2.9l0.5-2.4H168.3z"/>
		<path class="st7" d="M173,195.6h4.6l0.6-2.7c0-0.1,0-0.3,0.1-0.5c0-0.2,0-0.4,0-0.5c0-0.9-0.3-1.7-0.9-2.2s-1.3-0.8-2.3-0.8h-4.1
			l-0.8,3.8h3.3L173,195.6z"/>
	</g>
	<g>
		<path class="st7" d="M27.5,219.1h-4.6l-0.6,2.8c-0.1,0.3-0.1,0.6-0.1,1c0,0.9,0.3,1.7,0.9,2.2c0.6,0.5,1.3,0.8,2.3,0.8h4.1
			l0.8-3.8h-3.3L27.5,219.1z"/>
		<path class="st7" d="M32.4,188.9c-1.1,0-2,0.3-2.7,1c-0.8,0.6-1.3,1.6-1.5,2.9l-0.4,2.1h4.6l0.4-2.2h3.3l0.7-3.8H32.4z"/>
	</g>
	<path class="st0" d="M213.7,53"/>
	<path class="st7" d="M216.2,61.1c0.4-0.2,0.8-0.4,1.2-0.6l-1.9-1.9c-0.2,0.1-0.4,0.2-0.6,0.3c-1.5,1-2.6,2.2-3.3,3.8l1.8,1.5
		C214.1,62.9,215.1,61.9,216.2,61.1z"/>
	<path class="st7" d="M253.6,81.3l1.9,1.8c1.7-1.1,2.9-2.6,3.7-4.5l-2.1-1.4C256.3,79.1,255.2,80.5,253.6,81.3z"/>
	<g>
		<path class="st7" d="M579.3,71.7c0-0.1,0-0.2,0-0.3v-8l-3.1-0.6v8.1c0,0.1,0,0.2,0,0.4L579.3,71.7z"/>
		<path class="st7" d="M549.1,67.4c0-0.4-0.1-0.9-0.1-1.4c0-1.5,0.2-2.8,0.6-4c0.4-1.2,1-2.3,1.8-3.1c0.8-0.9,1.7-1.5,2.8-2
			c1.1-0.5,2.3-0.7,3.7-0.7c0.5,0,1,0,1.4,0c0.4,0,0.7,0.1,1.1,0.2l1.5,0.3c2.2,0.5,3.8,1.1,4.8,1.9c1,0.8,1.6,1.6,1.6,2.6
			c0,0.9-0.4,1.3-1.3,1.3c-0.4,0-0.8,0-1.2-0.1L554.6,60V64l2.6,0.5v0.2c-0.9,0.2-1.6,0.6-2.1,1.3c-0.4,0.5-0.7,1.3-0.8,2.2l3.4,0.5
			c0-0.2-0.1-0.4-0.1-0.6c0-1,0.3-1.8,0.8-2.3c0.6-0.5,1.2-0.7,1.9-0.6l4.3,0.8c0.4,0.1,0.8,0.2,1.2,0.5c0.4,0.2,0.7,0.5,1.1,0.8
			c0.3,0.3,0.6,0.7,0.8,1.2c0.2,0.4,0.3,0.9,0.3,1.4c0,0.1,0,0.2,0,0.2l3.3,0.5c-0.1-0.9-0.5-1.7-1.1-2.4c-0.8-0.9-1.7-1.5-2.7-1.9
			v-0.2h0.5c1,0,1.9-0.4,2.5-1.1c0.6-0.7,0.9-1.8,0.9-3.1c0-1.1-0.2-2.1-0.7-3.1s-1.2-1.8-2-2.6c-0.9-0.8-1.9-1.4-3-2
			c-1.2-0.5-2.4-0.9-3.8-1.2c-0.6-0.1-1.2-0.2-1.7-0.3c-0.5,0-1.1-0.1-1.6-0.1c-1.9,0-3.7,0.3-5.2,1c-1.5,0.7-2.9,1.6-3.9,2.7
			c-1.1,1.2-1.9,2.5-2.5,4.1c-0.6,1.6-0.9,3.3-0.9,5.1c0,0.4,0,0.9,0.1,1.3L549.1,67.4z"/>
	</g>
	<path class="st7" d="M572,164.9c1.6-0.7,2.5-1.9,2.5-3.6v-2.6l-4-0.8v2.5l-2.6,1L572,164.9z"/>
	<polygon class="st7" points="556.8,158.3 553.4,154.8 553.4,160.5 556.8,164 	"/>
	<path class="st8" d="M461,74.5c6.6,0,11.9,5.3,11.9,11.9v10c0,6.6-5.3,11.9-11.9,11.9"/>
	<path class="st8" d="M462.3,157c8.5,0,15.3,5.6,15.3,12.5v10.5c0,6.9-6.9,12.5-15.3,12.5"/>
</g>
<g id="Ebene_2">
	<rect class="st9" width="595.3" height="7.6"/>
	<rect y="247.5" class="st9" width="595.3" height="7.6"/>
</g>
</svg>
