<?xml version="1.0" encoding="utf-8"?>
<!-- Generator: Adobe Illustrator 22.1.0, SVG Export Plug-In . SVG Version: 6.00 Build 0)  -->
<svg version="1.1" xmlns="http://www.w3.org/2000/svg" xmlns:xlink="http://www.w3.org/1999/xlink" x="0px" y="0px"
	 viewBox="0 0 595.3 255.1" style="enable-background:new 0 0 595.3 255.1;" xml:space="preserve">
<style type="text/css">
	.st0{fill:#FFFFFF;}
	.st1{fill:#044ADA;}
</style>
<g id="Ebene_1">
	<rect width="595.3" height="255.1"/>
	<title>Zeichenfläche 1</title>
	
		<image style="overflow:visible;" width="3360" height="2100" xlink:href="../../../../../../../Dropbox/Screenshots/Screenshot 2018-06-29 09.03.35.png"  transform="matrix(0.1363 0 0 0.1363 -551 -376.3238)">
	</image>
</g>
<g id="Ebene_2">
	<g>
		<path class="st0" d="M355.1,214.5v-43h20.3c2,0,3.8,0.4,5.4,1c1.6,0.7,3,1.6,4.1,2.8s2,2.6,2.6,4.3c0.6,1.7,0.9,3.6,0.9,5.6
			c0,2-0.3,3.9-0.9,5.6c-0.6,1.7-1.5,3.1-2.6,4.3c-1.1,1.2-2.5,2.1-4.1,2.8c-1.6,0.7-3.4,1-5.4,1h-11v15.5L355.1,214.5L355.1,214.5
			L355.1,214.5z M364.4,190.9h9.9c1.4,0,2.5-0.4,3.3-1.1c0.8-0.7,1.2-1.8,1.2-3.2v-2.7c0-1.4-0.4-2.5-1.2-3.2
			c-0.8-0.7-1.9-1.1-3.3-1.1h-9.9V190.9z"/>
		<path class="st0" d="M404.1,214.5c-3.1,0-5.4-0.8-6.9-2.3c-1.5-1.5-2.2-3.7-2.2-6.6v-36.7h9.1v38.5h4.1v7.1H404.1z"/>
		<path class="st0" d="M427.2,215.2c-2.5,0-4.7-0.4-6.6-1.2c-1.9-0.8-3.6-1.9-4.9-3.4c-1.3-1.5-2.3-3.2-3-5.3c-0.7-2.1-1-4.4-1-7
			c0-2.6,0.3-4.9,1-6.9c0.7-2.1,1.6-3.9,2.9-5.3c1.3-1.5,2.9-2.6,4.8-3.4c1.9-0.8,4.1-1.2,6.5-1.2c2.7,0,4.9,0.4,6.9,1.3
			c1.9,0.9,3.5,2.1,4.7,3.6c1.2,1.5,2.1,3.3,2.6,5.3c0.5,2,0.8,4.1,0.8,6.3v2.7H421v0.5c0,2.1,0.6,3.8,1.7,5c1.1,1.2,3,1.9,5.4,1.9
			c1.9,0,3.4-0.4,4.6-1.1c1.2-0.8,2.3-1.7,3.3-2.7l4.6,5.7c-1.4,1.7-3.3,3-5.6,4C432.8,214.8,430.1,215.2,427.2,215.2z M427,188.1
			c-1.9,0-3.3,0.6-4.3,1.8c-1.1,1.2-1.6,2.8-1.6,4.9v0.5h11.3v-0.5c0-2-0.4-3.6-1.3-4.8C430.2,188.8,428.8,188.1,427,188.1z"/>
		<path class="st0" d="M444.2,214.5l10.7-16.5l-10.5-15.9h10.3l6,10.2h0.3l5.8-10.2h9.6l-10.7,16.2l10.8,16.2h-10.3l-6.2-10.5h-0.3
			l-6,10.5H444.2z"/>
		<path class="st0" d="M507.4,213.3c0,1-0.2,1.9-0.6,2.8c-0.4,0.9-1,1.5-1.7,2l-1.1-1.3c0.6-0.4,1-1,1.3-1.5c0.3-0.6,0.5-1.2,0.5-2
			c0-0.8-0.2-1.5-0.6-2.1s-1-0.8-1.8-0.8c-0.4,0-0.8,0.1-1.1,0.4s-0.5,0.8-0.7,1.5l-0.2,1c-0.1,0.5-0.2,0.9-0.4,1.3
			s-0.4,0.8-0.6,1.1c-0.3,0.3-0.6,0.5-0.9,0.7c-0.4,0.2-0.8,0.3-1.3,0.3c-0.5,0-1-0.1-1.5-0.3c-0.5-0.2-0.9-0.5-1.3-0.9
			c-0.4-0.4-0.7-0.9-0.9-1.5c-0.2-0.6-0.3-1.3-0.3-2.1c0-0.9,0.2-1.8,0.5-2.4c0.3-0.7,0.8-1.2,1.4-1.7l1.1,1.3
			c-0.4,0.3-0.7,0.7-1,1.1c-0.3,0.5-0.4,1.1-0.4,1.9c0,0.9,0.2,1.6,0.6,2.1c0.4,0.4,0.9,0.6,1.6,0.6c0.4,0,0.8-0.1,1.1-0.4
			c0.3-0.3,0.5-0.7,0.6-1.5l0.2-1c0.1-0.5,0.2-1,0.4-1.4c0.2-0.4,0.4-0.8,0.6-1.1c0.3-0.3,0.6-0.5,1-0.7c0.4-0.2,0.8-0.3,1.4-0.3
			c0.6,0,1.2,0.1,1.8,0.4c0.5,0.2,1,0.6,1.3,1c0.4,0.4,0.6,0.9,0.8,1.5C507.3,212,507.4,212.7,507.4,213.3z"/>
		<path class="st0" d="M507.1,196.1c0,0.6-0.1,1-0.4,1.2c-0.3,0.3-0.6,0.4-1.1,0.4c-0.2,0-0.4,0-0.7-0.1l-0.6-0.1v0.1
			c1.1,0.5,1.9,1.1,2.3,1.8c0.5,0.6,0.7,1.4,0.7,2.4c0,1.2-0.4,2.1-1.3,2.8s-2,1.1-3.6,1.1c-0.9,0-1.9-0.1-2.9-0.4
			c-1-0.3-1.9-0.6-2.7-1.1c-0.8-0.5-1.5-1.1-2-1.9c-0.5-0.8-0.8-1.7-0.8-2.7c0-0.4,0.1-0.7,0.2-1.1c0.1-0.4,0.3-0.7,0.4-1
			c0.2-0.3,0.4-0.5,0.7-0.8s0.6-0.4,1-0.5v-0.1l-2.1-0.4v-1.9l11,2.2v-1.8l1.7,0.3L507.1,196.1L507.1,196.1L507.1,196.1z
			 M505.7,201.3c0-0.6-0.1-1.1-0.4-1.5c-0.2-0.4-0.5-0.8-0.9-1.2c-0.4-0.4-0.9-0.8-1.4-1c-0.5-0.3-1.1-0.4-1.7-0.6l-3.1-0.6
			c-0.3-0.1-0.6,0-0.9,0.1c-0.3,0.1-0.6,0.3-0.8,0.5s-0.4,0.5-0.6,0.9c-0.2,0.4-0.2,0.8-0.2,1.3c0,1.1,0.4,1.9,1,2.6
			c0.7,0.7,1.6,1.1,2.9,1.4l1.9,0.4c0.4,0.1,0.9,0.1,1.2,0.1c0.8,0,1.5-0.2,2.1-0.6C505.4,202.7,505.7,202.1,505.7,201.3z"/>
		<path class="st0" d="M507.1,191.6l-12.7-2.6v-1.9l2.5,0.5v-0.1c-1-0.4-1.7-1-2.1-1.6c-0.4-0.6-0.7-1.4-0.7-2.3
			c0-1.1,0.3-1.9,0.9-2.5c0.6-0.5,1.5-0.8,2.6-0.8c0.2,0,0.5,0,0.8,0c0.3,0,0.6,0.1,0.9,0.1l6.2,1.2v-1.8l1.7,0.3v1.8
			c0,0.5-0.1,0.9-0.4,1.1c-0.2,0.3-0.6,0.4-1.1,0.4c-0.1,0-0.2,0-0.2,0c-0.1,0-0.2,0-0.3-0.1l-5.9-1.2c-0.3-0.1-0.5-0.1-0.7-0.1
			c-0.2,0-0.4,0-0.6,0c-0.7,0-1.3,0.2-1.6,0.4c-0.4,0.3-0.5,0.8-0.5,1.5c0,0.9,0.4,1.7,1,2.3c0.4,0.4,0.9,0.8,1.5,1.1
			s1.1,0.5,1.7,0.6l7.1,1.4L507.1,191.6L507.1,191.6z"/>
		<path class="st0" d="M507.4,173.4c0,1-0.2,1.9-0.6,2.8c-0.4,0.9-1,1.5-1.7,2l-1.1-1.3c0.6-0.4,1-1,1.3-1.5c0.3-0.6,0.5-1.2,0.5-2
			c0-0.8-0.2-1.5-0.6-2.1s-1-0.8-1.8-0.8c-0.4,0-0.8,0.1-1.1,0.4s-0.5,0.8-0.7,1.5l-0.2,1c-0.1,0.5-0.2,0.9-0.4,1.3
			s-0.4,0.8-0.6,1.1c-0.3,0.3-0.6,0.5-0.9,0.7c-0.4,0.2-0.8,0.3-1.3,0.3c-0.5,0-1-0.1-1.5-0.3c-0.5-0.2-0.9-0.5-1.3-0.9
			c-0.4-0.4-0.7-0.9-0.9-1.5c-0.2-0.6-0.3-1.3-0.3-2.1c0-0.9,0.2-1.8,0.5-2.4c0.3-0.7,0.8-1.2,1.4-1.7l1.1,1.3
			c-0.4,0.3-0.7,0.7-1,1.1c-0.3,0.5-0.4,1.1-0.4,1.9c0,0.9,0.2,1.6,0.6,2.1c0.4,0.4,0.9,0.6,1.6,0.6c0.4,0,0.8-0.1,1.1-0.4
			c0.3-0.3,0.5-0.7,0.6-1.5l0.2-1c0.1-0.5,0.2-1,0.4-1.4c0.2-0.4,0.4-0.8,0.6-1.1c0.3-0.3,0.6-0.5,1-0.7c0.4-0.2,0.8-0.3,1.4-0.3
			c0.6,0,1.2,0.1,1.8,0.4c0.5,0.2,1,0.6,1.3,1c0.4,0.4,0.6,0.9,0.8,1.5C507.3,172.1,507.4,172.7,507.4,173.4z"/>
		<rect x="102.5" y="82.7" class="st0" width="24.7" height="7.9"/>
		<rect x="102.5" y="68" class="st0" width="24.7" height="7.9"/>
		<polygon class="st0" points="127.2,61 127.2,56.6 141.8,56.6 141.8,53.2 87.9,53.2 87.9,56.6 102.5,56.6 102.5,61 		"/>
		<polygon class="st0" points="102.5,127.2 102.5,130.7 87.9,130.7 87.9,135 141.8,135 141.8,130.7 127.2,130.7 127.2,127.2 		"/>
		<rect x="102.5" y="97.6" class="st0" width="24.7" height="7.9"/>
		<rect x="102.5" y="112.4" class="st0" width="24.7" height="7.9"/>
		<rect x="87.9" y="142" class="st0" width="53.9" height="8.3"/>
		<rect x="87.9" y="37" class="st0" width="53.9" height="9.2"/>
		<rect x="162.5" y="68" class="st0" width="24.7" height="7.9"/>
		<path class="st0" d="M162.5,61h24.7v-3.2h24.5c3.2,0,5.8,0.9,7.6,2.8c0.2,0.2,0.3,0.3,0.4,0.4H247c-0.4-2.8-1-5.4-2.1-7.9h-82.5
			V61z"/>
		<path class="st0" d="M221.8,75.8h24.4c0.7-2.3,1.1-4.9,1.2-7.9h-25.3c0,0.1,0,0.1,0,0.2v4.9C222.1,74,221.9,74.9,221.8,75.8z"/>
		<path class="st0" d="M226.3,90.6v-0.2c2.9-0.1,5.6-0.6,8.2-1.5c2.5-0.9,4.8-2.4,6.7-4.3c0.5-0.5,1-1.1,1.5-1.8h-26.8
			c-1.2,0.4-2.6,0.7-4.2,0.7h-24.5v-0.7h-24.7v7.9H226.3z"/>
		<path class="st0" d="M222.9,127.2c-1.9,1.6-4.3,2.4-7.3,2.4h-28.4v-2.4h-24.7v7.9h85.1c0.7-1.4,1.4-2.9,2-4.4
			c0.4-1.1,0.7-2.2,1-3.4H222.9L222.9,127.2z"/>
		<path class="st0" d="M162.5,142v8.3h60.1c4.2,0,8.1-0.8,11.7-2.5c3.1-1.4,5.8-3.4,8.3-5.8H162.5z"/>
		<path class="st0" d="M240.7,46.2c-0.4-0.4-0.7-0.8-1.1-1.2c-5.3-5.3-12.6-7.9-22-7.9h-55.1v9.2H240.7z"/>
		<path class="st0" d="M251.3,112.4H226c0,0.4,0.1,0.9,0.1,1.4v5.5c0,0.3,0,0.6,0,0.9h25.6c0-0.7,0.1-1.4,0.1-2.2
			C251.7,116,251.6,114.1,251.3,112.4z"/>
		<path class="st0" d="M187.1,105.4v-1.9h28.4c2.7,0,4.9,0.6,6.7,1.9h26.9c-1.6-3.2-3.6-5.8-6-7.9h-80.7v7.9H187.1z"/>
		<rect x="162.5" y="112.4" class="st0" width="24.7" height="7.9"/>
		<polygon class="st0" points="332.4,75.8 378.8,75.8 378.8,68 336.4,68 		"/>
		<rect x="355.5" y="97.6" class="st0" width="23.2" height="7.9"/>
		<rect x="355.5" y="82.7" class="st0" width="23.2" height="7.9"/>
		<polygon class="st0" points="340.1,61 378.8,61 378.8,53.2 344.1,53.2 		"/>
		<polygon class="st0" points="270.7,61 309.5,61 305.4,53.2 270.7,53.2 		"/>
		<polygon class="st0" points="327.7,127.2 321.8,127.2 324.7,132.6 		"/>
		<polygon class="st0" points="294,75.8 294,74.8 294.5,74.8 295,75.8 317.2,75.8 313.1,68 270.7,68 270.7,75.8 		"/>
		<polygon class="st0" points="313.8,112.4 318,120.2 331.5,120.2 335.8,112.4 		"/>
		<polygon class="st0" points="302.1,90.6 347.7,90.6 351.6,82.7 328.8,82.7 325,90.1 324.7,90.1 320.8,82.7 298.3,82.7 		"/>
		<polygon class="st0" points="305.7,97.6 310,105.4 339.7,105.4 344,97.6 		"/>
		<polygon class="st0" points="378.8,46.2 378.8,37 352.4,37 347.7,46.2 		"/>
		<rect x="270.7" y="142" class="st0" width="23.2" height="8.3"/>
		<rect x="355.5" y="112.4" class="st0" width="23.2" height="7.9"/>
		<polygon class="st0" points="301.7,46.2 296.9,37 270.7,37 270.7,46.2 		"/>
		<rect x="355.5" y="142" class="st0" width="23.2" height="8.3"/>
		<rect x="270.7" y="127.2" class="st0" width="23.2" height="7.9"/>
		<rect x="270.7" y="112.4" class="st0" width="23.2" height="7.9"/>
		<rect x="270.7" y="97.6" class="st0" width="23.2" height="7.9"/>
		<rect x="270.7" y="82.7" class="st0" width="23.2" height="7.9"/>
		<rect x="355.5" y="127.2" class="st0" width="23.2" height="7.9"/>
	</g>
	<rect class="st1" width="595.3" height="7.6"/>
	<rect y="247.5" class="st1" width="595.3" height="7.6"/>
</g>
</svg>
