<?xml version="1.0" encoding="utf-8"?>
<!-- Generator: Adobe Illustrator 22.1.0, SVG Export Plug-In . SVG Version: 6.00 Build 0)  -->
<svg version="1.1" id="Ebene_1" xmlns="http://www.w3.org/2000/svg" xmlns:xlink="http://www.w3.org/1999/xlink" x="0px" y="0px"
	 viewBox="0 0 595.3 255.1" style="enable-background:new 0 0 595.3 255.1;" xml:space="preserve">
<style type="text/css">
	.st0{fill:#044ADA;}
	.st1{fill:#FFFFFF;}
</style>
<rect y="0" width="595.3" height="255.1"/>
<g id="Ebene_2_1_">
	<rect y="0" class="st0" width="595.3" height="7.6"/>
	<rect y="247.5" class="st0" width="595.3" height="7.6"/>
</g>
<g>
	<g>
		<path class="st1" d="M320.2,133.3V54.9H351c6.8,0,12,2,15.6,5.9c3.6,3.9,5.4,9.3,5.4,16c0,6.8-1.8,12.2-5.4,16.1
			c-3.6,3.9-8.8,5.9-15.6,5.9h-24v34.5H320.2z M327,92.9h24c4.5,0,7.9-1.3,10.3-3.8c2.4-2.5,3.5-5.7,3.5-9.6v-5.4
			c0-3.8-1.2-7-3.5-9.5c-2.4-2.5-5.8-3.8-10.3-3.8h-24V92.9z"/>
		<path class="st1" d="M394.2,133.3c-2.3,0-4.1-0.6-5.3-1.9c-1.2-1.3-1.8-3-1.8-5.1V50.2h6.4v77.6h8.9v5.5H394.2z"/>
		<path class="st1" d="M437.3,134.6c-3.8,0-7.3-0.7-10.4-2c-3.1-1.3-5.8-3.3-8-5.9c-2.2-2.6-3.9-5.7-5.1-9.5
			c-1.2-3.7-1.7-8-1.7-12.7c0-4.7,0.6-8.9,1.7-12.6c1.2-3.7,2.8-6.9,5.1-9.4c2.2-2.6,4.8-4.6,7.9-6c3.1-1.4,6.5-2.1,10.3-2.1
			c3.7,0,7,0.7,10,2.1c3,1.4,5.5,3.3,7.6,5.8c2.1,2.5,3.7,5.5,4.9,9c1.2,3.5,1.7,7.3,1.7,11.6v3h-42.6v2.8c0,3,0.4,5.7,1.3,8.3
			c0.9,2.5,2.1,4.7,3.7,6.5c1.6,1.8,3.6,3.2,5.9,4.2c2.3,1,4.9,1.5,7.9,1.5c8.4,0,14.2-3.9,17.4-11.6l4.7,3.1
			c-1.8,4.2-4.6,7.6-8.5,10.2C447.4,133.4,442.8,134.6,437.3,134.6z M437.2,79.9c-2.8,0-5.3,0.5-7.5,1.5c-2.2,1-4.2,2.4-5.8,4.2
			c-1.6,1.8-2.8,4-3.7,6.5c-0.9,2.5-1.3,5.3-1.3,8.3v0.6h35.6V100c0-3-0.4-5.7-1.2-8.3c-0.8-2.5-2-4.6-3.5-6.3
			c-1.5-1.7-3.4-3.1-5.5-4C442.1,80.4,439.7,79.9,437.2,79.9z"/>
		<path class="st1" d="M469,133.3l21.3-29l-20.6-28.5h7.5l16.4,23.5h0.3l16.7-23.5h7.2l-20.4,28.1l21,29.4H511L494,109h-0.2
			l-17.6,24.3H469z"/>
	</g>
	<g>
		<rect x="87.4" y="84.5" class="st1" width="17.9" height="5.7"/>
		<rect x="87.4" y="73.8" class="st1" width="17.9" height="5.7"/>
		<polygon class="st1" points="105.3,68.8 105.3,65.6 115.8,65.6 115.8,63.1 76.8,63.1 76.8,65.6 87.4,65.6 87.4,68.8 		"/>
		<polygon class="st1" points="87.4,116.7 87.4,119.2 76.8,119.2 76.8,122.4 115.8,122.4 115.8,119.2 105.3,119.2 105.3,116.7 		"/>
		<rect x="87.4" y="95.3" class="st1" width="17.9" height="5.7"/>
		<rect x="87.4" y="106" class="st1" width="17.9" height="5.7"/>
		<rect x="76.8" y="127.4" class="st1" width="39" height="6"/>
		<rect x="76.8" y="51.4" class="st1" width="39" height="6.7"/>
		<rect x="130.8" y="73.8" class="st1" width="17.9" height="5.7"/>
		<path class="st1" d="M130.8,68.8h17.9v-2.3h17.7c2.3,0,4.2,0.7,5.5,2c0.1,0.1,0.2,0.2,0.3,0.3h19.8c-0.3-2-0.7-3.9-1.5-5.7h-59.8
			L130.8,68.8L130.8,68.8z"/>
		<path class="st1" d="M173.8,79.5h17.7c0.5-1.7,0.8-3.5,0.9-5.7H174c0,0.1,0,0.1,0,0.1v3.5C174,78.2,173.9,78.8,173.8,79.5z"/>
		<path class="st1" d="M177.1,90.2v-0.1c2.1-0.1,4.1-0.4,5.9-1.1c1.8-0.7,3.5-1.7,4.9-3.1c0.4-0.4,0.7-0.8,1.1-1.3h-19.4
			c-0.9,0.3-1.9,0.5-3,0.5h-17.7v-0.5h-17.9v5.7L177.1,90.2L177.1,90.2z"/>
		<path class="st1" d="M174.6,116.7c-1.4,1.2-3.1,1.7-5.3,1.7h-20.6v-1.7h-17.9v5.7h61.7c0.5-1,1-2.1,1.4-3.2
			c0.3-0.8,0.5-1.6,0.7-2.5L174.6,116.7L174.6,116.7z"/>
		<path class="st1" d="M130.8,127.4v6h43.5c3,0,5.9-0.6,8.5-1.8c2.2-1,4.2-2.5,6-4.2H130.8z"/>
		<path class="st1" d="M187.5,58c-0.3-0.3-0.5-0.6-0.8-0.9c-3.8-3.8-9.1-5.7-15.9-5.7h-39.9v6.7L187.5,58L187.5,58z"/>
		<path class="st1" d="M195.2,106h-18.3c0,0.3,0.1,0.7,0.1,1v4c0,0.2,0,0.4,0,0.7h18.5c0-0.5,0.1-1,0.1-1.6
			C195.5,108.6,195.4,107.2,195.2,106z"/>
		<path class="st1" d="M148.7,100.9v-1.4h20.6c2,0,3.5,0.4,4.9,1.4h19.5c-1.2-2.3-2.6-4.2-4.3-5.7h-58.5v5.7H148.7z"/>
		<rect x="130.8" y="106" class="st1" width="17.9" height="5.7"/>
		<polygon class="st1" points="253.9,79.5 287.5,79.5 287.5,73.8 256.8,73.8 		"/>
		<rect x="270.7" y="95.3" class="st1" width="16.8" height="5.7"/>
		<rect x="270.7" y="84.5" class="st1" width="16.8" height="5.7"/>
		<polygon class="st1" points="259.5,68.8 287.5,68.8 287.5,63.1 262.4,63.1 		"/>
		<polygon class="st1" points="209.2,68.8 237.3,68.8 234.4,63.1 209.2,63.1 		"/>
		<polygon class="st1" points="250.5,116.7 246.3,116.7 248.4,120.6 		"/>
		<polygon class="st1" points="226.1,79.5 226.1,78.7 226.5,78.7 226.8,79.5 242.9,79.5 239.9,73.8 209.2,73.8 209.2,79.5 		"/>
		<polygon class="st1" points="240.5,106 243.5,111.6 253.3,111.6 256.4,106 		"/>
		<polygon class="st1" points="232,90.2 265,90.2 267.8,84.5 251.3,84.5 248.6,89.8 248.4,89.8 245.5,84.5 229.2,84.5 		"/>
		<polygon class="st1" points="234.6,95.3 237.7,100.9 259.2,100.9 262.3,95.3 		"/>
		<polygon class="st1" points="287.5,58 287.5,51.4 268.4,51.4 265,58 		"/>
		<rect x="209.2" y="127.4" class="st1" width="16.8" height="6"/>
		<rect x="270.7" y="106" class="st1" width="16.8" height="5.7"/>
		<polygon class="st1" points="231.7,58 228.2,51.4 209.2,51.4 209.2,58 		"/>
		<rect x="270.7" y="127.4" class="st1" width="16.8" height="6"/>
		<rect x="209.2" y="116.7" class="st1" width="16.8" height="5.7"/>
		<rect x="209.2" y="106" class="st1" width="16.8" height="5.7"/>
		<rect x="209.2" y="95.3" class="st1" width="16.8" height="5.7"/>
		<rect x="209.2" y="84.5" class="st1" width="16.8" height="5.7"/>
		<rect x="270.7" y="116.7" class="st1" width="16.8" height="5.7"/>
	</g>
	<g>
		<path class="st1" d="M362.6,204.9c-3.7,0-6.9-0.7-9.5-2.2c-2.7-1.5-4.9-3.6-6.8-6.4l1.6-1.1c3.3,5.3,8.2,8,14.7,8
			c4.1,0,7.4-1,9.9-3c2.5-2,3.7-4.8,3.7-8.5c0-1.4-0.2-2.6-0.6-3.6c-0.4-1-1-1.8-1.8-2.5c-0.8-0.7-1.7-1.3-2.8-1.8
			c-1.1-0.5-2.4-0.9-3.9-1.2l-4.4-1.1c-1.5-0.4-2.9-0.9-4.1-1.4c-1.2-0.6-2.3-1.2-3.2-2.1c-0.9-0.8-1.6-1.8-2.1-3
			c-0.5-1.2-0.7-2.6-0.7-4.3c0-2,0.4-3.8,1.2-5.4c0.8-1.5,1.8-2.8,3.2-3.8c1.3-1,2.9-1.8,4.6-2.3c1.8-0.5,3.7-0.8,5.7-0.8
			c1.9,0,3.6,0.2,5.1,0.6c1.5,0.4,2.8,0.9,3.9,1.5c1.1,0.6,2.1,1.4,3,2.2c0.8,0.8,1.6,1.7,2.2,2.6l-1.4,1.2
			c-1.2-1.8-2.8-3.3-4.7-4.6c-1.9-1.3-4.6-1.9-8.2-1.9c-3.9,0-6.9,0.9-9.3,2.7c-2.3,1.8-3.5,4.4-3.5,7.9c0,2.7,0.7,4.8,2.2,6.1
			c1.5,1.3,3.7,2.4,6.6,3.1l4.4,1.1c1.5,0.4,2.8,0.9,4.1,1.4c1.3,0.5,2.4,1.2,3.3,2c0.9,0.8,1.6,1.8,2.1,2.9
			c0.5,1.2,0.8,2.6,0.8,4.3c0,2.2-0.4,4.2-1.2,5.8c-0.8,1.6-1.9,3-3.3,4.1c-1.4,1.1-3,1.9-4.9,2.5
			C366.7,204.7,364.7,204.9,362.6,204.9z"/>
		<path class="st1" d="M420.6,203.9c-1.3,0-2-0.6-2-1.7c0-0.3,0-0.5,0-0.7c0-0.2,0.1-0.4,0.1-0.7l1.3-6.7h-0.3
			c-1.9,3.3-4,5.9-6.5,7.9c-2.5,2-5.6,2.9-9.3,2.9c-2.3,0-4.3-0.4-6.1-1.3c-1.8-0.8-3.3-2-4.5-3.5c-1.2-1.5-2.1-3.2-2.8-5.2
			c-0.6-2-0.9-4.2-0.9-6.5c0-4,0.5-7.9,1.4-11.5c1-3.6,2.4-6.8,4.2-9.6c1.8-2.7,4.1-4.9,6.8-6.5c2.7-1.6,5.8-2.4,9.3-2.4
			c3.7,0,6.8,0.8,9,2.5c2.3,1.7,3.8,3.9,4.6,6.7h0.3l1.6-8.2h1.8l-8.5,42.7h7.5l-0.4,1.7H420.6z M404,203.3c1.9,0,3.6-0.3,5.1-0.8
			c1.5-0.5,3-1.4,4.6-2.7c1.7-1.4,3.3-3.3,4.9-5.6c1.5-2.3,2.6-5.1,3.3-8.2l2.5-12.5c0.3-1.5,0.3-3,0-4.6c-0.3-1.6-1-3-2-4.3
			c-1-1.3-2.4-2.4-4.1-3.2c-1.8-0.8-3.9-1.3-6.6-1.3c-5,0-9.2,1.7-12.4,5.2c-3.2,3.5-5.4,8.1-6.5,13.9l-0.6,3.1
			c-0.2,1-0.3,2-0.4,2.9c-0.1,1-0.1,2.1-0.1,3.3c0,2,0.2,4,0.7,5.7c0.5,1.8,1.3,3.3,2.3,4.7c1,1.3,2.3,2.4,3.9,3.2
			C399.9,202.9,401.8,203.3,404,203.3z"/>
		<path class="st1" d="M438.8,203.9l8.9-44.4h1.8l-1.8,9.2h0.3c1.8-3.3,3.9-5.9,6.4-7.6c2.5-1.8,5.6-2.6,9.3-2.6c3.7,0,6.6,1,8.6,3
			c2,2,3,4.9,3,8.6c0,0.9-0.1,1.8-0.2,2.9c-0.1,1-0.3,2-0.4,2.9l-5.3,26.5h7.5l-0.4,1.7h-6.8c-1.3,0-2-0.6-2-1.7c0-0.3,0-0.5,0-0.7
			c0-0.2,0.1-0.4,0.1-0.7l5-25c0.2-1,0.3-2,0.4-3.1c0.1-1.1,0.2-1.9,0.2-2.5c0-6.8-3.3-10.2-10-10.2c-2,0-4,0.4-6,1.2
			c-2,0.8-3.9,2.2-5.7,4.3c-1,1.2-2,2.6-3.1,4.4c-1.1,1.8-1.9,3.9-2.4,6.6l-5.4,27.4H438.8z"/>
		<path class="st1" d="M499.6,204.9c-3.7,0-6.9-0.7-9.5-2.2c-2.7-1.5-4.9-3.6-6.8-6.4l1.6-1.1c3.3,5.3,8.2,8,14.7,8
			c4.1,0,7.4-1,9.9-3c2.5-2,3.7-4.8,3.7-8.5c0-1.4-0.2-2.6-0.6-3.6c-0.4-1-1-1.8-1.8-2.5c-0.8-0.7-1.7-1.3-2.8-1.8
			c-1.1-0.5-2.4-0.9-3.9-1.2l-4.4-1.1c-1.5-0.4-2.9-0.9-4.1-1.4c-1.2-0.6-2.3-1.2-3.2-2.1c-0.9-0.8-1.6-1.8-2.1-3
			c-0.5-1.2-0.7-2.6-0.7-4.3c0-2,0.4-3.8,1.2-5.4c0.8-1.5,1.8-2.8,3.2-3.8c1.3-1,2.9-1.8,4.6-2.3c1.8-0.5,3.7-0.8,5.7-0.8
			c1.9,0,3.6,0.2,5.1,0.6c1.5,0.4,2.8,0.9,3.9,1.5c1.1,0.6,2.1,1.4,3,2.2c0.8,0.8,1.6,1.7,2.2,2.6l-1.4,1.2
			c-1.2-1.8-2.8-3.3-4.7-4.6c-1.9-1.3-4.6-1.9-8.2-1.9c-3.9,0-6.9,0.9-9.3,2.7c-2.3,1.8-3.5,4.4-3.5,7.9c0,2.7,0.7,4.8,2.2,6.1
			c1.5,1.3,3.7,2.4,6.6,3.1l4.4,1.1c1.5,0.4,2.8,0.9,4.1,1.4c1.3,0.5,2.4,1.2,3.3,2c0.9,0.8,1.6,1.8,2.1,2.9
			c0.5,1.2,0.8,2.6,0.8,4.3c0,2.2-0.4,4.2-1.2,5.8c-0.8,1.6-1.9,3-3.3,4.1c-1.4,1.1-3,1.9-4.9,2.5
			C503.8,204.7,501.8,204.9,499.6,204.9z"/>
	</g>
</g>
</svg>
